<svg width="135" height="79" viewBox="0 0 135 79" fill="none" xmlns="http://www.w3.org/2000/svg">
<path d="M96.5135 9.29634L96 9.28721C95.9718 9.25158 95.936 9.22296 95.895 9.20327C95.8541 9.18359 95.8092 9.17347 95.7638 9.17371C95.7183 9.17442 95.6736 9.1856 95.6331 9.20619C95.5925 9.22678 95.5572 9.25639 95.5298 9.29269H95.0066C94.5868 9.14005 94.136 9.09207 93.6934 9.15291C92.1141 9.14244 90.5355 9.14759 88.9562 9.14086C88.4576 9.14086 87.9412 9.14677 87.9397 8.42774C87.9352 5.92607 87.8649 3.42021 88.0892 0.926026L88.3986 0.890625C90.2672 0.91529 92.1425 0.95809 94.0133 0.960332C101.142 0.967059 108.271 0.979613 115.4 0.935515C116.521 0.928788 116.91 1.25035 116.857 2.39243C116.77 4.22065 116.8 6.05486 116.848 7.88906C116.874 8.86595 116.452 9.17218 115.534 9.15948C113.457 9.12584 111.379 9.14826 109.302 9.15948C108.901 9.07876 108.484 9.12721 108.112 9.2978L108.033 9.37918C107.639 9.6946 107.809 10.1303 107.809 10.5175C107.799 18.1286 107.774 25.74 107.824 33.3503C107.831 34.5006 107.499 34.9982 106.356 34.9803C103.793 34.9399 101.228 35.1009 98.6691 34.8886C96.9627 34.7474 96.9627 34.7336 96.9627 32.9869C96.9627 25.4572 96.9739 17.9278 96.9478 10.3989C96.9463 10.0371 97.376 9.36959 96.5135 9.29634Z" fill="white"/>
<path d="M39.907 66.0845C39.8245 66.1467 39.7606 66.2303 39.7225 66.3265C39.6844 66.4226 39.6735 66.5275 39.691 66.6294C39.1735 67.6595 38.5213 68.6162 37.7514 69.4742L37.7596 69.4629C36.0278 70.8855 33.9755 71.8647 31.7802 72.3158C31.6807 72.2811 31.5737 72.2735 31.4703 72.2939C31.3669 72.3143 31.2709 72.3621 31.1919 72.4318H31.1695C30.3577 72.4071 29.5467 72.5011 28.762 72.7107L27.6154 72.8114C21.3833 72.6477 15.1497 72.7299 8.91536 72.768C8.91571 72.7537 8.91283 72.7397 8.90687 72.7267C8.90091 72.7138 8.89211 72.7022 8.88105 72.6932C8.87072 72.6847 8.85864 72.679 8.84574 72.6756C8.83284 72.6723 8.81936 72.6715 8.80624 72.6738C8.801 61.7486 8.80625 50.8233 8.76664 39.8973C8.7629 38.8733 9.04247 38.5894 10.062 38.5999C15.2805 38.65 20.4992 38.6043 25.7178 38.632C28.8786 38.6492 31.8743 39.295 34.444 41.2794C37.7073 43.8005 38.6222 47.5042 36.9106 51.1457C36.5032 51.8992 35.962 52.572 35.3133 53.1314C34.7634 53.6929 34.1285 54.1644 33.432 54.5285C33.4449 54.6482 33.4961 54.7606 33.5779 54.8489C33.6598 54.9372 33.768 54.9966 33.8864 55.0186C38.7365 56.8476 40.3487 59.2673 40.1963 64.4732C40.0961 65.0084 39.9982 65.5478 39.907 66.0845ZM19.7831 48.9891C19.7831 49.5168 19.8205 50.0477 19.7741 50.5709C19.7069 51.3385 19.9437 51.6918 20.7846 51.6387C21.8759 51.573 22.9761 51.6538 24.0696 51.6037C24.7042 51.6017 25.3145 51.3595 25.7779 50.926C26.2413 50.4924 26.5234 49.8996 26.5676 49.2665C26.5877 48.61 26.3517 47.9716 25.9095 47.4859C25.4674 47.0002 24.8537 46.7054 24.1982 46.664C23.5105 46.6138 22.8207 46.5992 22.1315 46.6206C19.7875 46.6123 19.7875 46.6146 19.7838 48.987L19.7831 48.9891ZM22.7983 58.789V58.7656C22.1076 58.7656 21.4117 58.8157 20.7263 58.7514C20.0207 58.6849 19.7891 58.9407 19.8048 59.6306C19.8369 61.0933 19.8257 62.5565 19.7973 64.0192C19.7861 64.5716 19.9356 64.8582 20.5447 64.8462C22.1697 64.8148 23.7998 64.887 25.4195 64.7801C26.1997 64.7304 26.9312 64.3833 27.4633 63.8104C27.9953 63.2376 28.2873 62.4828 28.2792 61.701C28.2372 60.9422 27.9156 60.2257 27.3764 59.6901C26.8372 59.1545 26.1188 58.8376 25.3597 58.8007C24.5129 58.7319 23.6563 58.7857 22.802 58.7857L22.7983 58.789Z" fill="white"/>
<path d="M0.052099 0.953822C6.20796 0.959054 12.3646 0.885015 18.519 1.00236C21.284 1.03483 23.9484 2.04408 26.0411 3.85159C30.3889 7.56484 29.9921 13.4509 25.1808 16.528C24.9865 16.6529 24.6905 16.6659 24.6659 17.0605C25.7609 17.4489 26.8156 17.9428 27.8148 18.5357C29.2371 19.4645 30.3364 20.8116 30.9617 22.3911C31.5869 23.9705 31.7072 25.705 31.3061 27.3556C30.8741 29.1927 29.888 30.8525 28.4815 32.1106L28.1953 32.4351L27.9366 32.6833C25.7691 33.5899 23.6897 34.5898 21.2254 34.7602C14.4604 35.2274 7.69686 34.847 0.935571 34.9763C0.275587 34.9897 -0.0144 34.7523 0.000548661 34.0482C0.0371729 32.0683 0.013982 30.0867 0.0169718 28.1045C0.0284324 19.0551 0.04014 10.0047 0.052099 0.953822ZM14.1929 21.0539V21.0473C13.4193 21.0473 12.6441 21.0771 11.8757 21.0382C11.2666 21.0075 10.9624 21.1877 10.9721 21.8484C10.993 23.3545 10.9848 24.8612 10.9721 26.3673C10.9669 26.8972 11.2202 27.0992 11.7195 27.0939C13.3885 27.076 15.0651 27.1513 16.7274 27.0242C17.5107 26.9734 18.2425 26.6166 18.765 26.0308C19.2874 25.445 19.5585 24.6772 19.5198 23.8933C19.4565 23.1355 19.1161 22.4279 18.5637 21.9053C18.0113 21.3827 17.2857 21.0817 16.5256 21.0604C15.7527 21.0171 14.9768 21.0532 14.2033 21.0532L14.1929 21.0539ZM13.5022 13.8883C14.1524 13.8883 14.8065 13.936 15.4515 13.8784C16.0861 13.8418 16.6846 13.5714 17.1314 13.1193C17.5782 12.6673 17.8417 12.0656 17.871 11.4307C17.8493 10.7947 17.5973 10.1884 17.1618 9.72449C16.7263 9.26056 16.1371 8.97062 15.5038 8.90881C14.8145 8.85661 14.1228 8.84206 13.4319 8.86538C10.5251 8.87136 10.928 8.50901 10.9236 11.3814C10.9236 13.9324 10.9333 13.9324 13.5052 13.8861L13.5022 13.8883Z" fill="white"/>
<path d="M43.3413 26.4779C43.5961 27.0758 44.1186 26.8001 44.5185 26.8016C49.0861 26.8173 53.6529 26.8397 58.2197 26.7866C59.3035 26.7739 59.7572 27.0205 59.6959 28.2067C59.5988 30.1179 59.6466 32.038 59.678 33.9529C59.6907 34.7303 59.4268 35.0359 58.6166 35.0321C50.1751 35.0082 41.7338 35.0047 33.2928 35.0212C32.4557 35.0212 32.1492 34.7565 32.1642 33.888C32.2038 31.5664 32.1552 29.2418 32.141 26.918C31.8452 25.957 31.8476 24.9291 32.1477 23.9695C32.1602 20.6733 32.1724 17.3767 32.1843 14.0795C32.1925 10.1278 32.2127 6.17627 32.1798 2.22459C32.1724 1.32767 32.348 0.922259 33.3817 0.928986C41.7744 0.966358 50.1674 0.964737 58.5606 0.923877C59.5322 0.919392 59.82 1.22296 59.7841 2.18043C59.7093 4.17383 59.7093 6.17303 59.7691 8.16793C59.7953 9.05289 59.4866 9.25272 58.648 9.24674C53.8816 9.21311 49.1152 9.25944 44.3488 9.21609C43.4422 9.20712 43.0685 9.43209 43.1574 10.3686C43.2272 11.0585 43.2272 11.7535 43.1574 12.4434C43.0468 13.4614 43.4908 13.6714 44.4281 13.6587C48.0943 13.6094 51.7619 13.6713 55.4288 13.6153C56.4318 13.5996 56.6741 13.9495 56.6711 14.8861C56.5447 16.7922 56.5897 18.7058 56.8056 20.6039L56.7951 21.0232C56.5862 21.1843 56.3458 21.2996 56.0893 21.3615C55.8329 21.4235 55.5663 21.4307 55.307 21.3827C52.0182 21.3827 48.7296 21.3745 45.4409 21.3827C44.9999 21.3827 44.5589 21.4573 44.1179 21.4955H43.629C43.5822 21.4749 43.5309 21.4668 43.4799 21.4717C43.429 21.4767 43.3803 21.4947 43.3383 21.5239C43.2963 21.5533 43.2625 21.593 43.2403 21.6393C43.218 21.6855 43.208 21.7366 43.2112 21.7878C43.2292 23.3454 42.987 24.912 43.3383 26.46L43.3413 26.4779Z" fill="white"/>
<path d="M59.5473 59.9002C59.7985 59.3844 59.8805 58.8026 59.7813 58.2375C59.7813 52.1683 59.7993 46.0981 59.7462 40.0297C59.7365 38.9616 60.0249 38.6196 61.1147 38.648C63.8802 38.7227 66.6555 38.7098 69.424 38.6418C70.4195 38.6179 70.6587 38.9624 70.652 39.9027C70.5996 46.8262 70.5952 53.7497 70.5772 60.6732C70.2394 61.885 69.9013 63.0965 69.5629 64.3078L69.1892 65.0629L69.0838 65.3275C67.4457 68.165 64.9829 70.4368 62.0228 71.8413C58.6918 73.3683 54.9277 73.6662 51.398 72.6821C49.2651 72.1098 47.2861 71.0703 45.6045 69.6388C43.9229 68.2072 42.5809 66.4196 41.6755 64.4053L41.5312 64.11C41.5271 63.785 41.4055 63.4724 41.1889 63.2301C41.1316 63.0427 41.0752 62.8559 41.0199 62.6695L40.7374 61.3991C40.7105 61.1644 40.6834 60.9292 40.656 60.694C40.6328 53.8124 40.6305 46.9318 40.5647 40.0509C40.555 39.0045 40.7987 38.6261 41.9101 38.6553C44.716 38.73 47.5301 38.7113 50.3397 38.6553C51.2426 38.6381 51.5319 38.89 51.5244 39.8213C51.4811 45.9294 51.4915 52.0382 51.4915 58.1477C51.393 58.671 51.4661 59.212 51.7001 59.6904C51.8372 60.5322 52.2445 61.3066 52.8606 61.8965C53.4767 62.4865 54.268 62.8599 55.1151 62.9604C57.1129 63.2108 58.4254 62.3062 59.5473 59.9002Z" fill="white"/>
<path opacity="0.494" d="M110.732 57.2129C111.217 57.2435 111.703 57.2998 112.188 57.2998C119.198 57.2998 126.208 57.2973 133.219 57.2928C133.388 57.2928 133.558 57.2824 133.729 57.2749C133.894 57.2691 134.059 57.2966 134.213 57.356C134.367 57.4153 134.508 57.5052 134.626 57.6202C134.745 57.7352 134.84 57.8732 134.904 58.0257C134.968 58.1781 135.001 58.3419 135 58.5074C134.972 64.7724 134.925 71.0395 134.951 77.306C134.955 78.487 134.613 78.8099 133.436 78.8009C125.203 78.7598 116.97 78.7861 108.736 78.7943C108.194 78.795 107.673 78.5883 107.279 78.2166C105.54 76.5762 103.801 74.9336 102.063 73.2893C101.745 72.9903 101.335 72.7485 101.28 72.2484C101.441 69.4105 101.444 66.5656 101.288 63.7274C103.314 61.7721 105.367 59.8407 107.343 57.8413C107.753 57.4603 108.286 57.2378 108.846 57.2136C108.96 57.2743 109.086 57.306 109.215 57.306C109.344 57.306 109.471 57.2743 109.585 57.2136L110.732 57.2129ZM103.84 68.0678C103.832 68.2613 103.864 68.4543 103.934 68.635C104.003 68.8157 104.109 68.9806 104.245 69.1189C104.381 69.2573 104.544 69.3661 104.724 69.439C104.904 69.5119 105.097 69.5473 105.291 69.5426C105.487 69.5619 105.684 69.539 105.87 69.4758C106.056 69.4127 106.227 69.3106 106.37 69.1762C106.514 69.0418 106.627 68.8786 106.702 68.697C106.778 68.5154 106.813 68.3198 106.807 68.1233C106.822 67.9267 106.797 67.7287 106.731 67.5427C106.666 67.3566 106.562 67.1864 106.426 67.043C106.291 66.8995 106.127 66.7863 105.945 66.7102C105.763 66.6341 105.567 66.5969 105.369 66.6014C105.172 66.5914 104.974 66.6219 104.788 66.6912C104.602 66.7605 104.432 66.8671 104.289 67.0043C104.146 67.1415 104.032 67.3066 103.955 67.4894C103.878 67.6722 103.839 67.8687 103.841 68.0671L103.84 68.0678Z" fill="white"/>
<path d="M73.4194 42.8305C73.0495 41.716 72.5127 40.6642 71.8274 39.7108C71.3729 38.9634 71.4185 38.6442 72.4021 38.6539C75.4143 38.6853 78.4269 38.6824 81.4401 38.6455C81.7208 38.6352 81.9983 38.708 82.2377 38.855C82.477 39.0019 82.6676 39.2164 82.7855 39.4714C84.8237 42.7526 86.9083 46.0049 88.9144 49.3041C89.4533 50.1905 89.6679 50.1112 90.1664 49.2785C92.0896 46.0788 94.0889 42.9252 96.0375 39.7382C96.2122 39.377 96.4921 39.0776 96.8404 38.8787C97.1888 38.6798 97.5892 38.5909 97.989 38.6239C100.795 38.6987 103.606 38.6439 106.416 38.6477C107.757 38.6477 107.784 38.7033 107.088 39.8955L99.7926 52.4343C99.5923 52.7796 99.2963 53.0963 99.3868 53.5493C98.1639 54.7721 97.6624 56.4556 96.6646 57.8204C95.417 59.529 94.8252 61.6292 94.997 63.7378C95.1465 66.6961 95.0202 69.6679 95.012 72.6322C91.6777 72.6509 88.3442 72.6575 85.0106 72.7001C84.1712 72.7105 84.018 72.322 84.0232 71.5738C84.0531 68.2799 84.0367 64.9858 84.018 61.6911C84.018 61.2673 84.1981 60.7847 83.7751 60.4342L83.7549 60.4167C83.7568 60.2333 83.7131 60.0527 83.6278 59.8904C83.5425 59.7281 83.4182 59.5895 83.2661 59.4871C80.0513 53.8993 76.9607 48.2329 73.4194 42.8305Z" fill="white"/>
<path d="M28.1943 32.4377L28.4806 32.1133C28.4223 32.2545 28.5449 32.5543 28.1943 32.4377Z" fill="white"/>
<path d="M77.3914 0.018016C80.6106 0.363131 83.6827 1.54696 86.3008 3.45154C87.4706 4.31856 87.4743 4.44143 86.4107 5.44823C84.7836 6.98794 83.1295 8.49989 81.524 10.062C81.0576 10.515 80.7766 10.5404 80.1958 10.1697C78.7899 9.26903 77.2584 8.653 75.5206 9.07007C75.0488 9.13059 74.6103 9.34535 74.2733 9.68101C73.9363 10.0167 73.7197 10.4543 73.6573 10.9259C73.5377 11.9274 74.3606 12.3102 75.0707 12.7123C76.029 13.1649 77.0383 13.5004 78.0768 13.7116C80.3964 14.3557 82.604 15.3503 84.6236 16.6605C87.5334 18.5634 88.5648 21.4335 88.4796 24.7625C88.3197 30.97 83.3769 34.5786 78.8609 35.5054C75.8044 36.1931 72.6315 36.1758 69.5827 35.4547C66.5339 34.7336 63.6894 33.3278 61.2648 31.3438C60.3679 30.642 60.2603 30.1517 61.1393 29.3647C62.806 27.8698 64.4279 26.321 66.017 24.7454C66.5088 24.2588 66.7644 24.2969 67.3123 24.699C69.1061 26.0108 71.0151 27.0863 73.3665 26.9413C74.1055 26.9275 74.8176 26.6615 75.3846 26.1873C76.7658 24.9847 76.5857 23.6832 74.9488 22.8483C72.9397 21.8236 70.7004 21.4371 68.6464 20.5312C65.3577 19.0745 62.6117 17.1261 61.7432 13.3456C60.6168 8.44014 63.0616 3.7401 67.8953 1.42529C69.212 0.817675 70.6085 0.400852 72.0428 0.186992C73.8207 0.0237417 75.6068 -0.0327219 77.3914 0.018016Z" fill="white"/>
<path d="M69.1864 65.0625C69.2612 65.1948 69.2126 65.2785 69.0811 65.3271L69.1864 65.0625Z" fill="white"/>
</svg>
