<svg width="135" height="79" fill="none" xmlns="http://www.w3.org/2000/svg"><path d="M96.513 9.296L96 9.287a.298.298 0 00-.367-.08.299.299 0 00-.103.086h-.523c-.42-.153-.871-.2-1.314-.14-1.579-.01-3.157-.005-4.737-.012-.498 0-1.015.006-1.016-.713-.005-2.502-.075-5.008.15-7.502l.309-.035c1.868.024 3.743.067 5.614.07 7.129.006 14.258.019 21.387-.025 1.121-.007 1.51.314 1.457 1.456-.087 1.829-.057 3.663-.009 5.497.026.977-.396 1.283-1.314 1.27-2.077-.033-4.155-.01-6.232 0a1.939 1.939 0 00-1.19.139l-.079.081c-.394.316-.224.751-.224 1.139-.01 7.61-.035 15.222.015 22.832.007 1.15-.325 1.648-1.468 1.63-2.563-.04-5.128.12-7.687-.091-1.706-.142-1.706-.155-1.706-1.902 0-7.53.01-15.06-.015-22.588-.002-.362.428-1.03-.434-1.103zM39.907 66.085a.562.562 0 00-.216.544 12.993 12.993 0 01-1.94 2.845l.009-.011a13.794 13.794 0 01-5.98 2.853.593.593 0 00-.588.116h-.023a8.345 8.345 0 00-2.407.279l-1.147.1c-6.232-.163-12.465-.081-18.7-.043a.093.093 0 00-.109-.094c-.005-10.925 0-21.85-.04-32.777-.003-1.024.276-1.308 1.296-1.297 5.219.05 10.437.004 15.656.032 3.16.017 6.156.663 8.726 2.647 3.263 2.521 4.178 6.225 2.467 9.867a7.049 7.049 0 01-1.598 1.985 7.49 7.49 0 01-1.881 1.398.56.56 0 00.454.49c4.85 1.829 6.463 4.248 6.31 9.454-.1.535-.198 1.075-.289 1.612zM19.783 48.989c0 .528.037 1.059-.009 1.582-.067.768.17 1.12 1.01 1.068 1.092-.066 2.192.015 3.286-.035a2.512 2.512 0 002.498-2.337 2.53 2.53 0 00-2.37-2.603 19.903 19.903 0 00-2.067-.043c-2.343-.009-2.343-.006-2.347 2.366v.002zm3.015 9.8v-.023c-.69 0-1.386.05-2.072-.015-.705-.066-.937.19-.921.88.032 1.462.02 2.925-.008 4.388-.01.553.139.84.748.827 1.625-.031 3.255.041 4.874-.066a3.054 3.054 0 002.86-3.079 3.074 3.074 0 00-2.92-2.9c-.846-.07-1.703-.015-2.557-.015l-.004.003zM.052.954c6.156.005 12.313-.069 18.467.048a11.718 11.718 0 017.522 2.85c4.348 3.713 3.951 9.599-.86 12.676-.195.125-.49.138-.515.533a17.89 17.89 0 013.149 1.475 8.217 8.217 0 013.491 8.82 9.208 9.208 0 01-2.825 4.755l-.286.324-.258.248c-2.168.907-4.247 1.907-6.712 2.077-6.765.467-13.528.087-20.29.216-.66.014-.95-.224-.934-.928.036-1.98.013-3.961.016-5.944L.052.955zm14.14 20.1v-.007c-.773 0-1.548.03-2.316-.009-.61-.03-.914.15-.904.81.021 1.507.013 3.013 0 4.52-.005.53.248.731.748.726 1.668-.018 3.345.057 5.007-.07a2.99 2.99 0 002.793-3.13 3.09 3.09 0 00-2.994-2.834c-.773-.043-1.55-.007-2.323-.007h-.01zm-.69-7.166c.65 0 1.304.048 1.95-.01a2.57 2.57 0 002.419-2.447 2.623 2.623 0 00-2.367-2.522 18.966 18.966 0 00-2.072-.044c-2.907.006-2.504-.356-2.508 2.516 0 2.551.01 2.551 2.581 2.505l-.003.002zm29.839 12.59c.255.598.778.322 1.178.324 4.567.015 9.134.038 13.7-.015 1.084-.013 1.538.233 1.477 1.42-.097 1.91-.05 3.831-.018 5.746.013.777-.251 1.083-1.061 1.08-8.442-.025-16.883-.028-25.324-.012-.837 0-1.144-.264-1.129-1.133.04-2.322-.009-4.646-.023-6.97a4.975 4.975 0 01.007-2.948l.036-9.89c.009-3.952.029-7.904-.004-11.855-.008-.897.168-1.303 1.202-1.296C41.774.966 50.167.965 58.56.924c.971-.005 1.259.299 1.223 1.256a88.806 88.806 0 00-.015 5.988c.026.885-.282 1.085-1.121 1.079-4.766-.034-9.533.012-14.3-.03-.906-.01-1.28.215-1.19 1.152.07.69.07 1.385 0 2.074-.111 1.018.333 1.228 1.27 1.216 3.666-.05 7.334.012 11-.044 1.004-.015 1.246.335 1.243 1.271a31.91 31.91 0 00.135 5.718l-.01.42a1.877 1.877 0 01-1.489.359c-3.289 0-6.577-.008-9.866 0-.441 0-.882.074-1.323.113h-.489a.299.299 0 00-.418.292c.018 1.557-.224 3.124.127 4.672l.003.018zM59.547 59.9a2.722 2.722 0 00.234-1.663c0-6.069.018-12.139-.035-18.207-.01-1.068.279-1.41 1.369-1.382 2.765.075 5.54.062 8.309-.006.995-.024 1.235.32 1.228 1.26-.052 6.924-.057 13.848-.075 20.771l-1.014 3.635-.374.755-.105.264a16.144 16.144 0 01-7.061 6.514 15.504 15.504 0 01-10.625.841 14.891 14.891 0 01-9.723-8.277l-.144-.295a1.346 1.346 0 00-.342-.88 70.27 70.27 0 01-.17-.56l-.282-1.27c-.026-.236-.054-.47-.081-.706-.023-6.882-.026-13.762-.091-20.643-.01-1.047.234-1.425 1.345-1.396 2.806.075 5.62.056 8.43 0 .903-.017 1.192.235 1.184 1.166-.043 6.108-.032 12.217-.032 18.327a2.47 2.47 0 00.208 1.542 3.929 3.929 0 003.415 3.27c1.998.25 3.31-.654 4.432-3.06z" fill="#fff"/><path opacity=".494" d="M110.732 57.213c.485.03.971.087 1.456.087 7.01 0 14.02-.003 21.031-.007.169 0 .339-.01.51-.018A1.226 1.226 0 01135 58.507c-.028 6.265-.075 12.533-.049 18.799.004 1.181-.338 1.504-1.515 1.495-8.233-.041-16.466-.015-24.7-.007a2.119 2.119 0 01-1.457-.577 4873.03 4873.03 0 01-5.216-4.928c-.318-.299-.728-.54-.783-1.04.161-2.838.164-5.683.008-8.522 2.026-1.955 4.079-3.886 6.055-5.886a2.36 2.36 0 011.503-.627.783.783 0 00.739 0l1.147-.001zm-6.892 10.855a1.409 1.409 0 00.405 1.05 1.417 1.417 0 001.046.425 1.378 1.378 0 001.411-.846c.076-.182.111-.377.105-.574a1.414 1.414 0 00-.862-1.413 1.41 1.41 0 00-.576-.109 1.454 1.454 0 00-1.528 1.466h-.001z" fill="#fff"/><path d="M73.42 42.83a11.612 11.612 0 00-1.593-3.12c-.454-.747-.409-1.066.575-1.056 3.012.031 6.025.028 9.038-.009a1.424 1.424 0 011.346.826c2.038 3.282 4.122 6.534 6.128 9.833.54.886.754.807 1.252-.026 1.924-3.2 3.923-6.353 5.871-9.54a1.985 1.985 0 011.952-1.114c2.806.075 5.617.02 8.427.024 1.341 0 1.368.055.672 1.247l-7.295 12.54c-.2.345-.497.661-.406 1.114-1.223 1.223-1.725 2.907-2.722 4.271a8.82 8.82 0 00-1.668 5.918c.15 2.958.023 5.93.015 8.894-3.334.019-6.668.025-10.001.068-.84.01-.993-.378-.988-1.126.03-3.294.014-6.588-.005-9.883 0-.424.18-.906-.243-1.257l-.02-.017a1.106 1.106 0 00-.489-.93C80.051 53.9 76.961 48.233 73.42 42.83zM28.194 32.438l.287-.325c-.059.142.064.441-.287.325zM77.391.018a18.496 18.496 0 018.91 3.434c1.17.867 1.173.99.11 1.996-1.627 1.54-3.282 3.052-4.887 4.614-.466.453-.747.478-1.328.108-1.406-.901-2.938-1.517-4.675-1.1a2.156 2.156 0 00-1.864 1.856c-.12 1.001.704 1.384 1.414 1.786.958.453 1.967.788 3.006 1a23.661 23.661 0 016.547 2.948c2.91 1.903 3.94 4.773 3.856 8.102-.16 6.208-5.103 9.817-9.62 10.743a20.633 20.633 0 01-17.595-4.161c-.897-.702-1.005-1.192-.126-1.98a134.392 134.392 0 004.878-4.619c.492-.486.747-.448 1.295-.046 1.794 1.312 3.703 2.387 6.055 2.242a3.24 3.24 0 002.018-.754c1.38-1.202 1.2-2.504-.436-3.339-2.01-1.024-4.249-1.41-6.303-2.317-3.288-1.456-6.034-3.405-6.903-7.185-1.126-4.906 1.319-9.606 6.152-11.92a15.274 15.274 0 014.148-1.24A44.625 44.625 0 0177.39.018zm-8.205 65.045c.075.132.027.215-.105.264l.105-.264z" fill="#fff"/></svg>