<svg width="22" height="22" viewBox="0 0 22 22" fill="none" xmlns="http://www.w3.org/2000/svg">
<path d="M19.8889 14.889C18.5499 14.8893 17.2189 14.6834 15.9426 14.2785C15.7506 14.2109 15.5429 14.2012 15.3453 14.2506C15.1478 14.3 14.9691 14.4063 14.8315 14.5564L12.3877 17.0002C9.22768 15.3951 6.65994 12.8268 5.05559 9.66646L7.50055 7.22206C7.63925 7.07685 7.7378 6.89806 7.78653 6.70326C7.83525 6.50845 7.83248 6.30433 7.77848 6.11092C7.33216 4.82385 7.10668 3.47058 7.11157 2.10833C7.10994 1.8143 6.99218 1.53283 6.78395 1.32523C6.57572 1.11764 6.2939 1.00074 5.99987 1H2.11002C1.8158 1.00119 1.53398 1.11867 1.32604 1.32683C1.11809 1.53498 1.0009 1.81692 1.00001 2.11114C0.997931 4.59225 1.48509 7.04941 2.43361 9.34205C3.38212 11.6347 4.77339 13.7178 6.52779 15.4722C8.2822 17.2266 10.3653 18.6179 12.658 19.5664C14.9506 20.5149 17.4078 21.0021 19.8889 21C20.1833 20.9991 20.4654 20.8817 20.6736 20.6736C20.8818 20.4654 20.9991 20.1833 21 19.8889V15.999C20.9988 15.7048 20.8813 15.423 20.6732 15.215C20.465 15.0071 20.1831 14.8899 19.8889 14.889Z" stroke="#E35D14"/>
</svg>
