<svg width="28" height="28" viewBox="0 0 28 28" fill="none" xmlns="http://www.w3.org/2000/svg">
<path d="M25.5555 19.0557C23.8149 19.0561 22.0846 18.7884 20.4254 18.262C20.1757 18.1741 19.9057 18.1615 19.6489 18.2258C19.3922 18.29 19.1599 18.4282 18.981 18.6233L15.804 21.8003C11.696 19.7137 8.35793 16.3749 6.27227 12.2664L9.45072 9.08868C9.63102 8.8999 9.75914 8.66748 9.82248 8.41423C9.88583 8.16099 9.88222 7.89562 9.81203 7.64419C9.23181 5.971 8.93869 4.21175 8.94504 2.44082C8.94292 2.05859 8.78983 1.69267 8.51913 1.4228C8.24844 1.15293 7.88207 1.00096 7.49983 1H2.44303C2.06054 1.00155 1.69418 1.15427 1.42385 1.42488C1.15352 1.69548 1.00117 2.06199 1.00001 2.44449C0.99731 5.66992 1.63061 8.86423 2.86369 11.8447C4.09676 14.8251 5.9054 17.5331 8.18613 19.8139C10.4669 22.0946 13.1749 23.9032 16.1553 25.1363C19.1358 26.3694 22.3301 27.0027 25.5555 27C25.9383 26.9988 26.305 26.8463 26.5756 26.5756C26.8463 26.305 26.9988 25.9383 27 25.5555V20.4987C26.9985 20.1162 26.8457 19.7499 26.5751 19.4795C26.3045 19.2092 25.938 19.0569 25.5555 19.0557Z" stroke="black"/>
</svg>
