<svg width="28" height="28" fill="none" xmlns="http://www.w3.org/2000/svg"><path d="M14.112 12.502a1.41 1.41 0 00-.803.253 1.487 1.487 0 00-.533.672 1.54 1.54 0 00.313 1.632c.203.21.46.352.74.41a1.4 1.4 0 00.836-.085c.264-.114.49-.306.65-.552.158-.246.243-.536.243-.832a1.54 1.54 0 00-.428-1.055 1.435 1.435 0 00-1.018-.443v0zm0-12.118c-2.6 0-5.142.799-7.304 2.295a13.525 13.525 0 00-4.842 6.11 14.068 14.068 0 00-.748 7.867 13.773 13.773 0 003.598 6.972 13.013 13.013 0 006.731 3.726c2.55.526 5.194.256 7.596-.774a13.258 13.258 0 005.9-5.015A13.964 13.964 0 0027.258 14c-.01-3.608-1.398-7.065-3.862-9.616-2.463-2.551-5.8-3.99-9.284-4v0zm2.893 16.612L6.224 22.17l4.995-11.165L22 5.83l-4.994 11.165z" stroke="#E35D14"/></svg>