<svg width="28" height="28" viewBox="0 0 28 28" fill="none" xmlns="http://www.w3.org/2000/svg">
<path d="M14.1118 12.5025C13.8258 12.5025 13.5463 12.5903 13.3085 12.7549C13.0707 12.9194 12.8854 13.1533 12.7759 13.427C12.6665 13.7006 12.6379 14.0017 12.6937 14.2922C12.7494 14.5828 12.8872 14.8496 13.0894 15.059C13.2916 15.2685 13.5492 15.4111 13.8297 15.4689C14.1102 15.5267 14.4009 15.497 14.6652 15.3837C14.9294 15.2703 15.1552 15.0784 15.3141 14.8321C15.473 14.5858 15.5578 14.2963 15.5578 14.0001C15.5543 13.604 15.4008 13.2252 15.1304 12.9451C14.86 12.665 14.4942 12.5061 14.1118 12.5025V12.5025ZM14.1118 0.384277C11.5117 0.384277 8.97002 1.18283 6.80813 2.67895C4.64623 4.17508 2.96124 6.30158 1.96622 8.78954C0.971211 11.2775 0.710871 14.0152 1.21812 16.6564C1.72538 19.2976 2.97744 21.7237 4.81598 23.6279C6.65452 25.5321 8.99697 26.8289 11.5471 27.3543C14.0972 27.8796 16.7405 27.61 19.1427 26.5795C21.5449 25.5489 23.598 23.8037 25.0426 21.5646C26.4871 19.3255 27.2581 16.693 27.2581 14.0001C27.2479 10.3922 25.8596 6.93508 23.3964 4.3839C20.9332 1.83272 17.5953 0.394819 14.1118 0.384277V0.384277ZM17.0052 16.996L6.22404 22.1696L11.2192 11.0049L21.9996 5.8306L17.0052 16.996Z" stroke="#E35D14"/>
</svg>
