<svg width="86" height="70" viewBox="0 0 86 70" fill="none" xmlns="http://www.w3.org/2000/svg">
<path d="M45.3098 31.5199H21.6696C20.2214 31.5199 19.0428 30.3418 19.0428 28.8932V10.5066C19.0428 9.05793 20.2214 7.87988 21.6696 7.87988H53.1891C54.6372 7.87988 55.8158 9.05796 55.8158 10.5066V18.3867H47.9357C46.4875 18.3867 45.3089 19.5648 45.3089 21.0134L45.3098 31.5199ZM21.6696 10.5065V28.8931H42.683V21.0129C42.683 18.1161 45.0391 15.7595 47.9364 15.7595H53.1898L53.1893 10.5066L21.6696 10.5065Z" fill="black"/>
<path d="M45.3098 44.6525H17.7293C14.1088 44.6525 11.1625 41.7066 11.1625 38.0856V34.1455H45.3088L45.3098 44.6525ZM13.7903 36.7728V38.0862C13.7903 40.2589 15.5576 42.0264 17.7304 42.0264H42.6841V36.7729L13.7903 36.7728Z" fill="black"/>
<path d="M45.3097 36.7732H13.7902V6.56707C13.7902 4.39439 15.5575 2.62695 17.7303 2.62695H57.1303C59.303 2.62695 61.0704 4.39427 61.0704 6.56707V18.3868H47.9363C46.4881 18.3868 45.3096 19.5649 45.3096 21.0135L45.3097 36.7732ZM16.417 34.1465H42.6828V21.0135C42.6828 18.1167 45.0389 15.7601 47.9363 15.7601H58.4426V6.56707C58.4426 5.84299 57.8538 5.25366 57.1292 5.25366H17.7292C17.0046 5.25366 16.4163 5.84293 16.4163 6.56707L16.417 34.1465Z" fill="black"/>
<path d="M58.4427 47.2793C57.7167 47.2793 57.1293 46.6915 57.1293 45.9659V32.8329C57.1293 32.1074 57.7166 31.5195 58.4427 31.5195C59.1687 31.5195 59.7561 32.1074 59.7561 32.8329V45.9659C59.7561 46.6914 59.1687 47.2793 58.4427 47.2793Z" fill="black"/>
<path d="M62.3842 39.4004C61.9854 39.4004 61.59 39.2189 61.3323 38.8754L58.4417 35.0225L55.5534 38.8754C55.1185 39.4557 54.2967 39.5738 53.7156 39.1384C53.1344 38.703 53.0168 37.8794 53.4527 37.2991L57.3913 32.0457C57.8863 31.385 58.9972 31.384 59.4922 32.0457L63.4332 37.2991C63.869 37.8793 63.7514 38.702 63.1716 39.1374C62.9344 39.3151 62.6586 39.4004 62.3842 39.4004L62.3842 39.4004Z" fill="black"/>
<path d="M37.428 21.0135H26.9217C26.1957 21.0135 25.6083 20.4257 25.6083 19.7001C25.6083 18.9746 26.1956 18.3867 26.9217 18.3867H37.428C38.154 18.3867 38.7414 18.9746 38.7414 19.7001C38.7414 20.4252 38.1536 21.0135 37.428 21.0135Z" fill="#E35D14"/>
<path d="M33.489 24.954C33.1532 24.954 32.8169 24.8259 32.5606 24.5691C32.0475 24.0561 32.0475 23.2249 32.5606 22.7122L35.5717 19.7006L32.5601 16.689C32.047 16.176 32.047 15.3447 32.5601 14.8321C33.0731 14.319 33.9043 14.319 34.417 14.8321L38.3572 18.7722C38.8702 19.2852 38.8702 20.1164 38.3572 20.6291L34.417 24.5692C34.1612 24.8255 33.8249 24.9542 33.4891 24.9542L33.489 24.954Z" fill="#E35D14"/>
<path d="M61.0695 60.412H55.8161C55.0901 60.412 54.5027 59.8242 54.5027 59.0986C54.5027 58.373 55.09 57.7852 55.8161 57.7852H61.0695C61.7955 57.7852 62.3829 58.373 62.3829 59.0986C62.3829 59.8242 61.7956 60.412 61.0695 60.412Z" fill="#E35D14"/>
<path d="M72.8891 55.1601H43.9964C43.2704 55.1601 42.683 54.5723 42.683 53.8467V24.954C42.683 24.2285 43.2703 23.6406 43.9964 23.6406H72.8891C73.6151 23.6406 74.2025 24.2285 74.2025 24.954V53.8467C74.2025 54.5718 73.6151 55.1601 72.8891 55.1601ZM45.3098 52.5334H71.5757V26.2664H45.3098V52.5334Z" fill="#E35D14"/>
<path d="M72.8891 26.2657H43.9964C43.2704 26.2657 42.683 25.6779 42.683 24.9523V21.0122C42.683 18.1154 45.0391 15.7588 47.9364 15.7588H68.9498C71.8471 15.7588 74.2032 18.1154 74.2032 21.0122V24.9523C74.2028 25.6778 73.6154 26.2657 72.8895 26.2657H72.8891ZM45.3098 23.6395H71.5757V21.0128C71.5757 19.5642 70.3971 18.3861 68.949 18.3861H47.9368C46.4886 18.3861 45.3101 19.5642 45.3101 21.0128L45.3098 23.6395Z" fill="#E35D14"/>
<path d="M68.9489 65.6659H47.9366C45.0393 65.6659 42.6832 63.3093 42.6832 60.4125V53.8456C42.6832 53.1201 43.2706 52.5322 43.9966 52.5322H72.8894C73.6153 52.5322 74.2028 53.1201 74.2028 53.8456V60.4125C74.2028 63.3093 71.8467 65.6659 68.9493 65.6659H68.9489ZM45.3098 55.1595V60.413C45.3098 61.8616 46.4884 63.0397 47.9365 63.0397H68.95C70.3981 63.0397 71.5767 61.8616 71.5767 60.413V55.1595H45.3098Z" fill="#E35D14"/>
</svg>
