<svg width="113" height="89" viewBox="0 0 113 89" fill="none" xmlns="http://www.w3.org/2000/svg">
<path d="M68.8784 12.6504H71.6898V15.4618H68.8784V12.6504Z" fill="black"/>
<path d="M74.5015 12.6504H77.3129V15.4618H74.5015V12.6504Z" fill="black"/>
<path d="M80.1241 12.6504H82.9355V15.4618H80.1241V12.6504Z" fill="black"/>
<path d="M26.7079 43.5762V21.0852H52.0102V18.2738H26.7079V9.83969H52.0102V7.02832H23.8965V43.5762H26.7079Z" fill="black"/>
<path d="M60.4443 9.83969H85.7467V18.2738H60.4443V21.0852H85.7467V43.5762H88.5581V7.02832H60.4443V9.83969Z" fill="black"/>
<path d="M52.0102 74.5008H26.7079V52.0098H23.8965V77.3121H52.0102V74.5008Z" fill="black"/>
<path d="M85.7467 52.0098V74.5008H60.4443V77.3121H88.5581V52.0098H85.7467Z" fill="black"/>
<path d="M98.398 46.3873H79.9843C79.2815 34.2984 69.5823 24.7397 57.6347 24.0377V5.62402H54.8234V24.0377C42.7345 24.7405 33.1758 34.4398 32.4738 46.3873H14.0601V49.1987H32.4738C33.1766 61.2876 42.8758 70.8462 54.8234 71.5483V84.34H57.6347V71.5483C69.7236 70.8454 79.2823 61.1462 79.9843 49.1987H98.398V46.3873ZM56.2274 68.8783C44.5603 68.8783 35.1422 59.4602 35.1422 47.793C35.1422 36.1258 44.5603 26.7077 56.2274 26.7077C67.8946 26.7077 77.3127 36.1258 77.3127 47.793C77.3127 59.4602 67.8946 68.8783 56.2274 68.8783Z" fill="#E35D14"/>
</svg>
