<svg width="108" height="89" viewBox="0 0 108 89" fill="none" xmlns="http://www.w3.org/2000/svg">
<path d="M84.8119 19.5529H75.5801V0.335938H42.6409V5.83142H37.1455V11.3269H31.65V19.57H22.4182L11.0587 53.6489V85.4484H96.1708V53.6489L84.8119 19.5529ZM82.8349 22.3007L92.9043 52.5086H64.5898V49.7608H70.0853V44.2653H75.5807V22.3002L82.8349 22.3007ZM45.3722 3.08376H72.8335V41.5192H70.0857V5.83188H45.3725L45.3722 3.08376ZM39.8934 8.57924H67.3548V47.0147H64.6069V11.3274H39.8937L39.8934 8.57924ZM34.3979 14.058H61.8593V52.4935H34.3979V14.058ZM24.3955 22.3012H31.6501V52.5091H14.3434L24.3955 22.3012ZM13.8066 82.7017V55.2404H93.4241V82.7017H13.8066Z" fill="black"/>
<path d="M50.8665 16.8047H37.1446V33.2751H50.8665V16.8047ZM48.1187 30.5435H39.8756V19.5692H48.1187V30.5435Z" fill="#E35D14"/>
<path d="M37.1441 37.3955H59.1091V40.1433H37.1441V37.3955Z" fill="#E35D14"/>
<path d="M37.1441 45.6406H59.1091V48.3884H37.1441V45.6406Z" fill="#E35D14"/>
<path d="M38.5181 77.2057H68.726V66.2314H38.5181V77.2057ZM41.2659 68.9793H65.9791V74.4747H41.2659V68.9793Z" fill="#E35D14"/>
<path d="M52.2404 59.3623H54.9882V62.1102H52.2404V59.3623Z" fill="#E35D14"/>
<path d="M57.7369 59.3623H60.4847V62.1102H57.7369V59.3623Z" fill="#E35D14"/>
<path d="M46.7456 59.3623H49.4935V62.1102H46.7456V59.3623Z" fill="#E35D14"/>
</svg>
