<svg width="113" height="89" viewBox="0 0 113 89" fill="none" xmlns="http://www.w3.org/2000/svg">
<path d="M100.676 69.3337V8.98047H11.5762V69.3337H37.4471V77.963H31.6942V80.8396H80.5592V77.963H74.8063V69.3337H100.676ZM97.7991 11.8397V54.951H14.4518V11.8397H97.7991ZM14.4518 66.4568V57.8275H97.7991V66.4568H14.4518ZM71.9281 77.9627H40.3227V69.3334H71.9458V77.9627H71.9281Z" fill="black"/>
<path d="M54.6874 60.7051H57.564V63.5816H54.6874V60.7051Z" fill="#E35D14"/>
<path d="M60.4414 60.7051H63.3179V63.5816H60.4414V60.7051Z" fill="#E35D14"/>
<path d="M48.9355 60.7051H51.8121V63.5816H48.9355V60.7051Z" fill="#E35D14"/>
<path d="M31.6932 50.6552C34.0785 50.6552 36.0078 48.7259 36.0078 46.3405C36.0078 45.4811 35.7447 44.6918 35.3238 44.0252L48.2328 31.1162L59.7212 42.6046L78.2428 24.083C78.9093 24.5039 79.6986 24.767 80.5581 24.767C82.9434 24.767 84.8727 22.8377 84.8727 20.4523C84.8727 18.067 82.9434 16.1377 80.5581 16.1377C78.1727 16.1377 76.2434 18.067 76.2434 20.4523C76.2434 20.9259 76.3311 21.3644 76.4714 21.7853L59.7218 38.535L48.2334 27.0466L33.0443 42.2358C32.6233 42.0955 32.1848 42.0078 31.7113 42.0078C29.3259 42.0078 27.3966 43.9371 27.3966 46.3224C27.3791 48.7078 29.3259 50.6547 31.6938 50.6547L31.6932 50.6552ZM80.5582 19.0321C81.3475 19.0321 81.9964 19.6811 81.9964 20.4703C81.9964 21.2596 81.3475 21.9086 80.5582 21.9086C79.7689 21.9086 79.1199 21.2596 79.1199 20.4703C79.1199 19.6811 79.7689 19.0321 80.5582 19.0321ZM31.6932 44.903C32.4824 44.903 33.1314 45.552 33.1314 46.3413C33.1314 47.1305 32.4824 47.7795 31.6932 47.7795C30.9039 47.7795 30.2549 47.1305 30.2549 46.3413C30.2549 45.552 30.9039 44.903 31.6932 44.903Z" fill="#E35D14"/>
<path d="M40.3223 43.4629H43.1989V52.0922H40.3223V43.4629Z" fill="black"/>
<path d="M50.3721 39.1475H53.2486V52.074H50.3721V39.1475Z" fill="black"/>
<path d="M60.4414 43.4629H63.3179V52.0922H60.4414V43.4629Z" fill="black"/>
<path d="M70.4912 34.834H73.3678V52.0759H70.4912V34.834Z" fill="black"/>
<path d="M80.5586 27.6592H83.4352V52.0917H80.5586V27.6592Z" fill="black"/>
</svg>
