<svg width="107" height="89" viewBox="0 0 107 89" fill="none" xmlns="http://www.w3.org/2000/svg">
<path d="M34.0713 17.3277C33.1664 16.552 31.8728 16.0347 29.9334 15.5174H29.8042V10.9919C31.0972 11.1211 32.261 11.6384 33.2956 12.4141L34.8477 10.2156C33.2956 9.18099 31.6152 8.53454 29.8048 8.4053V7.1123H28.2528V8.27612C26.7008 8.4053 25.4079 8.79343 24.3739 9.69829C23.3392 10.6031 22.9517 11.7669 22.9517 13.1897C22.9517 14.6119 23.3398 15.6465 24.2447 16.4222C25.1495 17.1979 26.4432 17.7152 28.2535 18.1033V22.7586C26.8313 22.5002 25.4085 21.8537 23.9864 20.6899L22.3047 22.8884C24.115 24.4404 26.0544 25.3452 28.2529 25.4745V27.2848H29.8049V25.4745C31.486 25.3453 32.7791 24.9571 33.8137 24.0523C34.8483 23.1474 35.3657 21.9836 35.3657 20.5609C35.3651 19.1381 34.977 18.1041 34.0715 17.3278L34.0713 17.3277ZM28.2528 15.1298C27.3479 14.8715 26.7008 14.4833 26.4424 14.225C26.0543 13.9666 25.9251 13.4493 25.9251 12.932C25.9251 12.4147 26.1835 11.8973 26.5716 11.5098C26.9598 11.1217 27.6063 10.9925 28.2527 10.8633L28.2528 15.1298ZM31.7442 22.2413C31.2269 22.6294 30.7096 22.8878 29.9339 22.8878V18.4914C30.9685 18.7498 31.615 19.1379 31.8734 19.3963C32.2616 19.7844 32.3907 20.172 32.3907 20.6893C32.3907 21.4656 32.1318 21.8537 31.7442 22.2413L31.7442 22.2413Z" fill="#E35D14"/>
<path d="M61.4845 55.9891V52.6269C65.4933 50.2993 68.0792 46.0322 68.2084 41.1184C70.7945 40.9893 72.7339 38.92 72.7339 36.3339C72.7339 33.7479 70.6652 31.6786 68.2084 31.5494V25.472C68.3376 25.3428 68.4668 25.0838 68.4668 24.9546C71.9582 17.9724 61.4846 10.7311 61.0964 10.4722C60.7083 10.2138 60.0618 10.2138 59.6742 10.4722C59.2861 10.7305 59.0277 11.2478 59.1569 11.7652C59.2861 12.4117 59.1569 12.929 58.7688 13.3172C57.3466 14.9983 52.9497 16.1621 46.7431 16.5497C45.968 7.6285 38.4684 0.645508 29.4171 0.645508C19.8482 0.645508 11.96 8.40406 11.96 18.1026C11.96 27.8007 19.7185 35.5597 29.4171 35.5597C30.4517 35.5597 31.4857 35.4305 32.3913 35.3014C32.2621 35.6895 32.2621 36.077 32.2621 36.4652C32.2621 39.0512 34.3307 41.1205 36.7875 41.2497C36.7875 46.1633 39.5026 50.4304 43.5114 52.7581V55.9906C31.7447 59.7399 23.5977 70.731 23.5977 83.1448V83.4031C23.5977 84.1788 24.115 84.6961 24.8907 84.6961H79.8467C80.6223 84.6961 81.1397 84.1788 81.1397 83.4031V83.1448C81.1403 70.8608 73.1228 59.8691 61.485 55.9906L61.4845 55.9891ZM70.1486 36.3344C70.1486 37.4982 69.2438 38.403 68.2091 38.5329V34.1365C69.3723 34.2651 70.1486 35.1706 70.1486 36.3344ZM60.709 14.9988C60.9673 14.6106 61.2263 14.3523 61.3555 13.9641C69.114 20.688 67.3037 25.8606 62.1311 26.2481C51.1401 26.2481 49.9762 25.9897 41.8303 26.2481C40.5373 26.1189 40.02 26.1189 39.2443 25.0843C38.2096 23.6621 38.0805 22.3692 38.8561 21.0755C39.5026 20.0408 40.5372 19.3944 41.8303 19.3944C46.8731 19.395 57.4769 18.8777 60.7093 14.9986L60.709 14.9988ZM14.5463 18.102C14.5463 9.82609 21.2702 3.2314 29.4169 3.2314C37.1755 3.2314 43.5112 9.17962 44.1579 16.6792C41.7011 16.809 38.4686 16.4209 36.5286 19.7825C35.3647 21.8512 35.4939 23.9204 36.7869 25.9892V31.5493C36.1404 31.5493 34.2009 32.0666 34.2009 32.0666C32.6489 32.5839 31.0976 32.8422 29.4164 32.8422C21.2703 32.8428 14.5464 26.248 14.5464 18.1019L14.5463 18.102ZM34.8472 36.3348C34.8472 35.171 35.752 34.2662 36.7867 34.1364V38.5327C35.7521 38.4035 34.8472 37.4987 34.8472 36.3348ZM39.3726 40.8603V28.3172C41.4412 28.9637 62.0005 28.7054 62.1301 28.7054C62.9058 28.7054 63.6821 28.5762 64.3286 28.3172C64.7167 28.188 65.1042 28.0589 65.4924 27.9291V40.8597C65.4924 45.256 62.9063 49.1356 59.0268 50.8161C56.3117 52.1091 54.3715 51.721 52.0445 51.8507C49.717 51.8507 48.1656 51.9799 45.7088 50.9459C42.0881 49.2654 39.3724 45.3858 39.3724 40.8602L39.3726 40.8603ZM52.3032 54.4374C54.76 54.3082 56.0529 54.6957 58.8979 53.7908V57.153C58.8979 60.7737 55.9237 63.7477 52.174 63.6186C48.6825 63.4895 45.9673 60.6445 45.9673 57.153V53.7908C48.1658 54.4374 50.1052 54.5671 52.303 54.4374H52.3032ZM54.1135 66.0749L56.312 77.4541L52.1741 80.8163L48.6827 77.0665L51.2687 66.2047C52.1742 66.2047 53.2087 66.2047 54.1137 66.0749L54.1135 66.0749ZM43.6397 58.5752C44.0279 61.4202 45.9673 64.1353 48.8118 65.4284L46.0967 77.1951C45.9675 77.5833 46.0967 78.1 46.355 78.359L49.9757 82.2379H37.95V71.8933C37.95 71.1177 37.4327 70.6003 36.657 70.6003C35.8813 70.6003 35.364 71.1177 35.364 71.8933V82.2379H26.3124C26.7005 71.5058 33.6834 62.0666 43.6399 58.5752L43.6397 58.5752ZM69.8886 82.11V71.7654C69.8886 70.9897 69.3713 70.4724 68.5956 70.4724C67.8199 70.4724 67.3026 70.9897 67.3026 71.7654V82.11H54.7596L58.6385 79.0067C59.0267 78.7483 59.1558 78.231 59.1558 77.7137L56.6991 65.1706C59.4142 63.7485 61.0954 61.2917 61.4836 58.5759C71.3108 62.1966 78.1635 71.5066 78.6816 82.1107L69.8886 82.11Z" fill="black"/>
<path d="M81.6574 38.1445C74.5453 38.1445 68.5977 43.9637 68.5977 51.2042C68.5977 58.3163 74.4168 64.2639 81.6574 64.2639C88.8987 64.2639 94.7176 58.3163 94.7176 51.2042C94.7176 43.9629 88.8985 38.1445 81.6574 38.1445ZM81.6574 61.5482C75.9681 61.5482 71.1835 56.8929 71.1835 51.0744C71.1835 45.3851 75.8388 40.6006 81.6574 40.6006C87.3466 40.6006 92.1312 45.2558 92.1312 51.0744C92.1318 56.8929 87.4765 61.5482 81.6574 61.5482Z" fill="#E35D14"/>
<path d="M81.6573 45.1276C82.433 45.1276 82.9503 44.6103 82.9503 43.8346V42.9297C82.9503 42.154 82.433 41.6367 81.6573 41.6367C80.8816 41.6367 80.3643 42.154 80.3643 42.9297V43.8346C80.3643 44.6102 81.0108 45.1276 81.6573 45.1276Z" fill="#E35D14"/>
<path d="M81.6573 57.1533C80.8816 57.1533 80.3643 57.6706 80.3643 58.4463V59.3512C80.3643 60.1269 80.8816 60.6442 81.6573 60.6442C82.433 60.6442 82.9503 60.1269 82.9503 59.3512V58.4463C82.9509 57.7998 82.4336 57.1533 81.6573 57.1533Z" fill="#E35D14"/>
<path d="M76.7428 44.3519C76.2254 43.8345 75.4497 43.8345 74.9324 44.3519C74.4151 44.8692 74.4151 45.6449 74.9324 46.1622L75.5789 46.8087C76.0962 47.326 76.8719 47.326 77.3893 46.8087C77.9066 46.2914 77.9066 45.5157 77.3893 44.9984L76.7428 44.3519Z" fill="#E35D14"/>
<path d="M87.735 55.3431C87.2177 54.8258 86.442 54.8258 85.9246 55.3431C85.4073 55.8604 85.4073 56.6361 85.9246 57.1534L86.5711 57.7999C87.0884 58.3172 87.8641 58.3172 88.3815 57.7999C88.8988 57.2826 88.8988 56.5069 88.3815 55.9896L87.735 55.3431Z" fill="#E35D14"/>
<path d="M75.7091 51.2051C75.7091 50.4294 75.1918 49.9121 74.4161 49.9121H73.5113C72.7356 49.9121 72.2183 50.4294 72.2183 51.2051C72.2183 51.9808 72.7356 52.4981 73.5113 52.4981H74.4161C75.0626 52.4981 75.7091 51.8516 75.7091 51.2051Z" fill="#E35D14"/>
<path d="M89.9327 49.9131H89.0279C88.2522 49.9131 87.7349 50.4304 87.7349 51.2061C87.7349 51.9818 88.2522 52.4991 89.0279 52.4991H89.9327C90.7084 52.4991 91.2257 51.9818 91.2257 51.2061C91.2257 50.4304 90.5792 49.9131 89.9327 49.9131Z" fill="#E35D14"/>
<path d="M75.5799 55.3429L74.9334 55.9894C74.4161 56.5067 74.4161 57.2824 74.9334 57.7997C75.4507 58.317 76.2264 58.317 76.7437 57.7997L77.3902 57.1532C77.9076 56.6359 77.9076 55.8602 77.3902 55.3429C76.8735 54.9547 76.0972 54.9547 75.5799 55.3429Z" fill="#E35D14"/>
<path d="M87.735 46.9386L88.3815 46.2921C88.8988 45.7748 88.8988 44.9991 88.3815 44.4817C87.8641 43.9644 87.0885 43.9644 86.5711 44.4817L85.9246 45.1282C85.4073 45.6455 85.4073 46.4212 85.9246 46.9386C86.4419 47.4559 87.2182 47.4559 87.735 46.9386Z" fill="#E35D14"/>
<path d="M81.6574 53.1449H85.5364C86.312 53.1449 86.8294 52.6276 86.8294 51.8519C86.8294 51.0762 86.3121 50.5589 85.5364 50.5589H82.9503V48.4903C82.9503 47.7146 82.433 47.1973 81.6573 47.1973C80.8816 47.1973 80.3643 47.7146 80.3643 48.4903V51.8524C80.3643 52.4983 81.0108 53.1448 81.6573 53.1448L81.6574 53.1449Z" fill="#E35D14"/>
</svg>
