<svg width="108" height="89" viewBox="0 0 108 89" fill="none" xmlns="http://www.w3.org/2000/svg">
<path d="M94.2309 73.4284H91.3614V24.3892C91.3614 21.2592 88.753 18.6508 85.6229 18.6508H82.3625V17.4769C82.3625 17.0854 82.2322 16.8249 81.971 16.5643L66.4506 1.04384C66.19 0.783246 65.9288 0.652344 65.5379 0.652344H26.5409C25.7585 0.652344 25.2367 1.17412 25.2367 1.95651V18.6513H21.9757C18.8456 18.6513 16.2373 21.2597 16.2373 24.3897V73.4289H13.3677C12.5854 73.4289 12.0636 73.9507 12.0636 74.7331C12.0636 80.6024 16.8894 85.4275 22.758 85.4275H84.9704C90.8398 85.4275 95.6649 80.6017 95.6649 74.7331C95.5352 74.081 95.0134 73.4289 94.231 73.4289L94.2309 73.4284ZM85.6229 21.2596C87.3186 21.2596 88.753 22.6941 88.753 24.3897V73.4288H82.3625V21.2601L85.6229 21.2596ZM66.8423 5.08745L77.9282 16.1734H66.8423V5.08745ZM64.2339 3.26149V17.4775C64.2339 18.2599 64.7557 18.7817 65.5381 18.7817H79.7541V73.4298H27.8451V3.26278L64.2339 3.26149ZM18.847 24.3909C18.847 22.6953 20.2814 21.2609 21.977 21.2609H25.2374V73.4296L18.847 73.429V24.3909ZM84.8407 82.8204H22.759C18.7155 82.8204 15.4551 79.9509 14.8031 76.0384H17.5416H92.9273C92.1443 79.9509 88.8838 82.8204 84.8405 82.8204H84.8407Z" fill="black"/>
<path d="M32.8009 25.1719C33.5833 25.1719 34.1051 24.6502 34.1051 23.8678C34.1051 20.4766 36.8436 17.8682 40.1046 17.8682C43.4959 17.8682 46.1042 20.6067 46.1042 23.8678C46.1042 24.6501 46.626 25.1719 47.4084 25.1719C48.1908 25.1719 48.7126 24.6502 48.7126 23.8678C48.7126 20.4766 46.7563 17.6075 44.0171 16.1726C45.0607 15.129 45.5825 13.8249 45.5825 12.2601C45.5825 9.26024 43.1045 6.78223 40.1046 6.78223C37.1048 6.78223 34.6267 9.26024 34.6267 12.2601C34.6267 13.8255 35.2788 15.1296 36.1922 16.1726C33.4536 17.607 31.4967 20.4766 31.4967 23.8678C31.4967 24.5199 32.1488 25.1719 32.8008 25.1719H32.8009ZM37.2352 12.26C37.2352 10.6946 38.5394 9.3905 40.1047 9.3905C41.6701 9.3905 42.9743 10.6947 42.9743 12.26C42.9743 13.8254 41.6701 15.1295 40.1047 15.1295C38.5394 15.1295 37.2352 13.8248 37.2352 12.26Z" fill="#E35D14"/>
<path d="M39.0617 58.2988H32.9317C32.1494 58.2988 31.6276 58.8206 31.6276 59.603V68.7328C31.6276 69.5152 32.1493 70.037 32.9317 70.037H39.0617C39.844 70.037 40.3658 69.5152 40.3658 68.7328V59.603C40.3658 58.8206 39.7138 58.2988 39.0617 58.2988ZM37.7575 67.4286H34.2359V60.9072H37.7575V67.4286Z" fill="#E35D14"/>
<path d="M50.9299 54.7764H44.7999C44.0175 54.7764 43.4958 55.2981 43.4958 56.0805V68.6009C43.4958 69.3833 44.0175 69.9051 44.7999 69.9051H50.9299C51.7122 69.9051 52.234 69.3833 52.234 68.6009V56.0805C52.234 55.4285 51.7128 54.7764 50.9299 54.7764ZM49.6257 67.4277H46.1041V57.3847H49.6257V67.4277Z" fill="#E35D14"/>
<path d="M62.7994 52.0391H56.6695C55.8871 52.0391 55.3653 52.5608 55.3653 53.3432V68.6028C55.3653 69.3852 55.8871 69.907 56.6695 69.907H62.7994C63.5818 69.907 64.1036 69.3852 64.1036 68.6028V53.3432C64.1036 52.6911 63.5818 52.0391 62.7994 52.0391ZM61.4953 67.4288H57.9737V54.7775H61.4953V67.4288Z" fill="#E35D14"/>
<path d="M68.5377 48.3867C67.7553 48.3867 67.2335 48.9085 67.2335 49.6909V68.7329C67.2335 69.5153 67.7553 70.0371 68.5377 70.0371H74.6676C75.45 70.0371 75.9718 69.5153 75.9718 68.7329V49.6909C75.9718 48.9085 75.45 48.3867 74.6676 48.3867H68.5377ZM73.3635 67.4287H69.8419V50.9952H73.3635V67.4287Z" fill="#E35D14"/>
<path d="M32.5409 52.2994C32.8015 52.9515 33.4536 53.343 34.2366 53.0818L67.6246 42.2564L66.712 43.952C66.3205 44.6041 66.5817 45.3865 67.2337 45.778C67.8858 46.1695 68.6682 45.9083 69.0597 45.2562L71.4074 40.8219C71.668 40.3001 71.668 39.648 70.8856 38.9959L66.3205 36.5179C65.6684 36.1264 64.886 36.3876 64.4945 37.0397C64.103 37.6917 64.3642 38.4741 65.0163 38.8656L66.8422 39.7783L33.3235 50.7339C32.672 50.9951 32.2805 51.6472 32.5411 52.2993L32.5409 52.2994Z" fill="#E35D14"/>
<path d="M34.4979 32.3456C35.2803 32.3456 35.8021 31.8239 35.8021 31.0415C35.8021 30.2591 35.2803 29.7373 34.4979 29.7373H33.8458C33.0635 29.7373 32.5417 30.2591 32.5417 31.0415C32.5417 31.8239 33.0634 32.3456 33.8458 32.3456H34.4979Z" fill="black"/>
<path d="M53.1479 32.3456H54.4521C55.2345 32.3456 55.7563 31.8239 55.7563 31.0415C55.7563 30.2591 55.2345 29.7373 54.4521 29.7373H53.1479C52.3656 29.7373 51.8438 30.2591 51.8438 31.0415C51.8438 31.8239 52.3656 32.3456 53.1479 32.3456Z" fill="black"/>
<path d="M47.8003 29.7354H46.4961C45.7137 29.7354 45.1919 30.2571 45.1919 31.0395C45.1919 31.8219 45.7137 32.3437 46.4961 32.3437H47.8003C48.5826 32.3437 49.1044 31.8219 49.1044 31.0395C49.1044 30.3874 48.5832 29.7354 47.8003 29.7354Z" fill="black"/>
<path d="M59.7994 32.3456H61.1035C61.8859 32.3456 62.4077 31.8239 62.4077 31.0415C62.4077 30.2591 61.8859 29.7373 61.1035 29.7373H59.7994C59.017 29.7373 58.4952 30.2591 58.4952 31.0415C58.4952 31.8239 59.0164 32.3456 59.7994 32.3456Z" fill="black"/>
<path d="M66.4503 32.3456H67.7545C68.5369 32.3456 69.0587 31.8239 69.0587 31.0415C69.0587 30.2591 68.5369 29.7373 67.7545 29.7373H66.4503C65.668 29.7373 65.1462 30.2591 65.1462 31.0415C65.1456 31.8239 65.7983 32.3456 66.4503 32.3456Z" fill="black"/>
<path d="M41.1489 32.3456C41.9313 32.3456 42.4531 31.8239 42.4531 31.0415C42.4531 30.2591 41.9313 29.7373 41.1489 29.7373H39.8448C39.0624 29.7373 38.5406 30.2591 38.5406 31.0415C38.5406 31.8239 39.0624 32.3456 39.8448 32.3456H41.1489Z" fill="black"/>
<path d="M73.1016 32.3456H73.7537C74.5361 32.3456 75.0579 31.8239 75.0579 31.0415C75.0579 30.2591 74.5361 29.7373 73.7537 29.7373H73.1016C72.3193 29.7373 71.7975 30.2591 71.7975 31.0415C71.7975 31.8239 72.4495 32.3456 73.1016 32.3456Z" fill="black"/>
<path d="M56.0175 79.4278C56.0175 80.6527 55.0244 81.6453 53.8001 81.6453C52.5757 81.6453 51.5826 80.6527 51.5826 79.4278C51.5826 78.2035 52.5757 77.2109 53.8001 77.2109C55.0244 77.2109 56.0175 78.2035 56.0175 79.4278Z" fill="black"/>
</svg>
