<svg width="109" height="89" viewBox="0 0 109 89" fill="none" xmlns="http://www.w3.org/2000/svg">
<path d="M94.9536 3.95313H87.31C86.5194 3.95313 85.9921 4.48038 85.9921 5.27096V6.19319C78.0847 4.08483 77.4258 3.03035 77.0308 2.89863C76.2402 2.50304 68.596 -1.0548 64.6426 1.9764L56.6034 8.56613L54.89 8.03889V5.27103C54.89 4.48047 54.3627 3.95321 53.5722 3.95321H45.7964C45.0058 3.95321 44.4786 4.48046 44.4786 5.27103V14.4964H26.6863C25.8958 14.4964 25.3685 15.0237 25.3685 15.8143V59.4367L13.7715 59.4373C12.9809 59.4373 12.4537 59.9645 12.4537 60.7551V78.5473C12.4537 82.8964 15.8804 86.3231 20.2294 86.3231H73.0765C77.4255 86.3231 80.8523 82.7647 80.8523 78.5473V31.3665V31.1032C83.3562 31.8937 85.5969 30.7076 85.7286 27.0174C85.7286 26.6218 85.597 26.3585 85.4653 26.0952H85.9926V29.9169C85.9926 30.7074 86.5198 31.2347 87.3104 31.2347H95.0862C95.8767 31.2347 96.404 30.7075 96.404 29.9169L96.4028 5.2718C96.2705 4.48123 95.7438 3.95397 94.9527 3.95397L94.9536 3.95313ZM47.1141 6.58943H52.2538V28.5987H47.1141V6.58943ZM15.0897 78.5459V62.0723H25.3689V78.5459C25.3689 81.4454 22.9967 83.6855 20.2293 83.6855C17.3297 83.6855 15.0897 81.3132 15.0897 78.5452V78.5459ZM73.0763 83.6861H26.0275C27.2136 82.3683 28.0043 80.5233 28.0043 78.6782V78.5465L28.0049 17.1334H44.4784V29.9173C44.4784 30.7078 45.0057 31.2351 45.7963 31.2351H53.572C54.3626 31.2351 54.8899 30.7078 54.8899 29.9173V26.7544C55.2854 26.8861 55.8121 27.15 56.076 27.545L56.2077 27.6767C57.6571 28.8628 64.6425 34.5297 66.8825 35.4524C67.1459 35.5841 67.937 35.9797 68.9909 35.9797C69.5181 35.9797 70.0454 35.848 70.5727 35.5841C70.9683 35.3208 71.3633 35.0568 71.6272 34.3979C72.5494 34.7935 73.604 34.9252 74.5268 34.5296C75.054 34.2663 75.5813 33.8707 75.9762 33.0801C76.6352 33.4757 77.5581 33.6074 78.3485 33.6074V78.6789C78.2156 81.314 75.9756 83.6862 73.0761 83.6862L73.0763 83.6861ZM82.565 28.5977C82.1694 28.8611 81.2472 28.4661 80.5882 28.0705L78.4799 25.0392C78.0843 24.3803 77.2937 24.2487 76.6348 24.6436C75.9759 25.0392 75.8442 25.8298 76.2392 26.4887L78.3475 29.6516C78.2159 30.5738 78.0842 30.8377 77.952 30.8377C77.6886 30.9694 76.6341 30.4421 75.8436 29.9155L73.6029 26.7526C73.2073 26.0937 72.4168 25.9621 71.7578 26.357C71.0989 26.7526 70.9673 27.5432 71.3623 28.2021L73.4706 31.2334C73.3389 31.629 73.2073 31.8923 73.075 31.8923C72.6794 32.024 71.7572 31.629 71.2299 31.2334L68.9892 28.0706C68.5937 27.4117 67.8031 27.28 67.1442 27.675C66.4852 28.0706 66.3536 28.8611 66.7486 29.5201L68.8569 32.5513C68.8569 32.9469 68.7253 33.0786 68.7253 33.0786C68.5936 33.2102 68.0663 33.0786 67.6708 32.8153C67.6708 32.8153 67.5391 32.8153 67.5391 32.6836C66.3529 32.288 60.9494 28.2028 57.6548 25.435C56.7326 24.5128 55.5465 23.9855 54.6235 23.7216L54.6254 13.1785C55.2843 14.3646 56.3387 15.1553 56.6021 15.4192C62.533 19.1093 69.1219 12.7835 69.5176 12.5196C69.6492 12.3879 69.7809 12.2563 69.9131 12.2563L82.8286 27.2802C82.9602 28.0707 82.6969 28.4663 82.5646 28.598L82.565 28.5977ZM83.6195 23.9854L71.8902 10.2794C71.7585 10.1478 71.6268 10.0161 71.4946 9.88384C70.8357 9.62052 69.1223 9.3566 67.9361 10.6744C67.9361 10.6744 62.5326 15.814 58.4474 13.3101C57.7885 12.7828 57.1296 11.9923 57.1296 11.465C57.1296 11.2017 57.5252 11.0694 57.6569 10.9378L57.7885 10.8061H57.9202L66.2233 3.95309C68.464 2.23973 73.8669 4.21641 75.712 5.13925C77.6892 6.72106 83.3562 8.17053 85.9918 8.82941V23.326C85.2013 23.3266 84.2785 23.4583 83.6196 23.9855L83.6195 23.9854ZM93.6354 28.5977H88.6274V6.5885H93.7671V28.5977H93.6354Z" fill="black"/>
<path d="M45.7969 42.303C45.0064 42.303 44.4791 42.8302 44.4791 43.6208C44.4791 44.4114 45.0064 44.9386 45.7969 44.9386H73.3404C74.1309 44.9386 74.6582 44.4114 74.6582 43.6208C74.6588 41.1168 71.891 42.8302 45.7961 42.303H45.7969Z" fill="#E35D14"/>
<path d="M73.3405 57.0635H45.7955C45.0049 57.0635 44.4777 57.5907 44.4777 58.3813C44.4777 59.1719 45.0049 59.6991 45.7955 59.6991H73.3389C74.1295 59.6991 74.6567 59.1719 74.6567 58.3813C74.6573 57.5907 74.1301 57.0635 73.3395 57.0635H73.3405Z" fill="#E35D14"/>
<path d="M73.3405 71.9561H45.7955C45.0049 71.9561 44.4777 72.4833 44.4777 73.2739C44.4777 74.0644 45.0049 74.5917 45.7955 74.5917H73.3389C74.1295 74.5917 74.6567 74.0645 74.6567 73.2739C74.6573 72.4833 74.1301 71.9561 73.3395 71.9561H73.3405Z" fill="#E35D14"/>
<path d="M39.8666 39.4055L34.3313 44.9408L33.0135 43.6229C32.4863 43.0957 31.6957 43.0957 31.1684 43.6229C30.6412 44.1502 30.6412 44.9408 31.1684 45.468L33.5407 47.8403C34.0679 48.3675 34.8585 48.3675 35.3858 47.8403L41.8431 41.3829C42.3704 40.8556 42.3704 40.065 41.8431 39.5378C41.3159 39.0105 40.3937 39.0105 39.8664 39.4055L39.8666 39.4055Z" fill="#E35D14"/>
<path d="M39.8666 54.2958L34.3313 59.8311L33.0135 58.5132C32.4863 57.986 31.6957 57.986 31.1684 58.5132C30.6412 59.0405 30.6412 59.8311 31.1684 60.3583L33.5407 62.7306C34.0679 63.2578 34.8585 63.2578 35.3858 62.7306L41.8431 56.2732C42.3704 55.7459 42.3704 54.9554 41.8431 54.4281C41.3159 53.7692 40.3937 53.7692 39.8664 54.2959L39.8666 54.2958Z" fill="#E35D14"/>
<path d="M39.8666 69.1884L34.3314 74.7237L33.0135 73.4058C32.4863 72.8786 31.6957 72.8786 31.1684 73.4058C30.6412 73.9331 30.6412 74.7237 31.1684 75.2509L33.5407 77.6232C34.0679 78.1504 34.8585 78.1504 35.3858 77.6232L41.8432 71.1658C42.3704 70.6385 42.3704 69.848 41.8432 69.3207C41.3159 68.6618 40.3937 68.6618 39.8664 69.1884L39.8666 69.1884Z" fill="#E35D14"/>
</svg>
