<svg width="106" height="89" viewBox="0 0 106 89" fill="none" xmlns="http://www.w3.org/2000/svg">
<path d="M42.3414 62.5266C41.3225 62.9088 41.3225 63.9272 40.4313 63.6727C40.1769 63.6727 39.7946 63.4183 39.6674 63.036C39.5402 62.6538 39.2852 61.8899 38.3941 61.6355C37.1207 61.2532 34.9556 63.036 34.0644 64.055C32.9183 61.5082 30.7533 60.3621 28.9709 60.4893C28.3342 60.6165 27.8247 61.2532 27.8247 61.8898C27.9519 62.5265 28.5886 63.036 29.2253 63.036C31.2625 62.7816 32.0271 65.5828 32.4087 67.4928C32.6632 68.7661 34.446 68.8933 34.8282 67.62C35.3377 66.3466 36.2288 65.2005 37.5021 64.4365C38.0116 65.3277 38.9027 65.965 39.9217 66.2194C41.0678 66.4738 42.3412 65.9649 43.2328 65.0732C44.2518 65.3277 45.1429 65.7099 46.1619 65.5827C47.308 65.5827 48.5814 64.946 49.473 64.0542C50.3641 63.1631 50.7464 61.8891 50.7464 60.6158C50.7464 59.8519 50.1097 59.3424 49.3458 59.4697C48.5819 59.4697 48.0724 60.1063 48.1997 60.8702C48.3269 62.0164 47.3085 63.1625 46.1624 63.1625C44.7607 63.1631 43.4873 62.0169 42.3411 62.5264L42.3414 62.5266Z" fill="#E35D14"/>
<path d="M53.2931 71.0576H27.6977C26.9338 71.0576 26.4243 71.5671 26.4243 72.331C26.4243 73.0949 26.9338 73.6043 27.6977 73.6043H53.2946C54.0585 73.6043 54.568 73.0949 54.568 72.331C54.5674 71.6943 53.9307 71.0576 53.294 71.0576H53.2931Z" fill="#E35D14"/>
<path d="M34.8283 26.8697C36.8656 26.8697 38.6484 25.2141 38.6484 23.0496C38.6484 21.0123 36.9929 19.2295 34.8283 19.2295C32.7911 19.2295 31.0082 20.8851 31.0082 23.0496C31.0077 25.2141 32.6632 26.8697 34.8283 26.8697ZM34.8283 21.9028C35.465 21.9028 36.1017 22.4123 36.1017 23.1762C36.1017 23.8129 35.5923 24.4495 34.8283 24.4495C34.1917 24.4495 33.555 23.9401 33.555 23.1762C33.5544 22.4123 34.0638 21.9028 34.8283 21.9028Z" fill="#E35D14"/>
<path d="M29.2256 35.7842C29.9895 35.7842 30.499 35.2748 30.499 34.5109C30.499 32.2186 32.4091 30.3085 34.7013 30.3085C36.9936 30.3085 38.9037 32.2186 38.9037 34.5109C38.9037 35.2748 39.4131 35.7842 40.1771 35.7842C40.941 35.7842 41.4504 35.2748 41.4504 34.5109C41.4504 30.818 38.3943 27.7617 34.7013 27.7617C31.0085 27.7617 27.9521 30.8179 27.9521 34.5109C27.9521 35.1476 28.5888 35.7842 29.2255 35.7842H29.2256Z" fill="#E35D14"/>
<path d="M45.2714 37.5656V17.4453C45.2714 16.6814 44.7619 16.1719 43.998 16.1719H25.5331C24.7692 16.1719 24.2598 16.6813 24.2598 17.4453V37.5656C24.2598 38.3295 24.7692 38.8389 25.5331 38.8389H44.1256C44.7623 38.8389 45.2717 38.3295 45.2717 37.5656H45.2714ZM42.7246 36.2916H26.8067V18.7182H42.8522V36.2916H42.7246Z" fill="#E35D14"/>
<path d="M50.7465 19.9921H66.4093C67.1732 19.9921 67.6827 19.4826 67.6827 18.7187C67.6827 17.9548 67.1732 17.4453 66.4093 17.4453H50.7465C49.9826 17.4453 49.4731 17.9548 49.4731 18.7187C49.4731 19.3554 49.9826 19.9921 50.7465 19.9921Z" fill="#E35D14"/>
<path d="M50.7465 28.7801H66.4093C67.1732 28.7801 67.6827 28.2707 67.6827 27.5068C67.6827 26.7429 67.1732 26.2334 66.4093 26.2334H50.7465C49.9826 26.2334 49.4731 26.7429 49.4731 27.5068C49.4731 28.2707 49.9826 28.7801 50.7465 28.7801Z" fill="#E35D14"/>
<path d="M50.7465 37.6932H66.4093C67.1732 37.6932 67.6827 37.1838 67.6827 36.4199C67.6827 35.656 67.1732 35.1465 66.4093 35.1465H50.7465C49.9826 35.1465 49.4731 35.6559 49.4731 36.4199C49.4731 37.0566 49.9826 37.6932 50.7465 37.6932Z" fill="#E35D14"/>
<path d="M93.9165 35.2741C93.7893 34.8919 93.6621 34.6374 93.4071 34.5102L91.1148 33.1091L91.7515 32.2179C93.4071 29.6711 92.6426 26.2327 90.0959 24.5771L88.8225 23.8132C86.2758 22.1577 82.8373 22.9221 81.1818 25.4688L73.2866 37.5664L73.2872 10.4416C73.2872 9.67773 72.7777 9.16825 72.0138 9.16825H64.628L64.6274 2.92865C64.6274 2.16475 64.1179 1.65527 63.354 1.65527H12.4169C11.653 1.65527 11.1436 2.16473 11.1436 2.92865V63.9274C11.1436 64.6913 11.653 65.2008 12.4169 65.2008H18.6565V80.9911C18.6565 81.755 19.166 82.2645 19.9299 82.2645H72.0137C72.7776 82.2645 73.287 81.7551 73.287 80.9911L73.2876 59.5966L81.6923 46.6073H81.8196C82.2018 46.4801 82.4562 46.3528 82.5835 46.0978L89.7149 35.2736L90.861 36.0375L85.0031 45.0789C84.6208 45.7156 84.7486 46.4795 85.3853 46.8617C86.022 47.244 86.7859 47.1162 87.1682 46.4795L93.6628 36.4192C93.9172 36.0381 93.9172 35.6559 93.9172 35.2742L93.9165 35.2741ZM18.6568 62.6525H13.6899V4.20217H62.0815V9.04119H19.9304C19.1665 9.04119 18.657 9.55065 18.657 10.3146L18.6568 62.6525ZM21.2035 79.8447V11.7154H70.7404V41.5146C70.7404 41.6418 70.7404 41.8969 70.8676 42.0241L62.2085 55.3951C61.954 55.9046 61.954 56.5412 62.3357 56.9236L54.9499 68.3844C54.5676 69.0211 54.6954 69.785 55.3321 70.1673L56.9877 71.1862C57.4972 71.5685 58.2611 71.4407 58.6433 70.9318C60.4261 68.5123 63.4823 67.6206 63.9918 67.4934C67.6847 66.9839 69.4675 64.4372 70.2314 62.1448C70.3587 62.272 70.6137 62.272 70.7409 62.272V79.7178L21.2026 79.7172L21.2035 79.8447ZM67.9383 60.7434C66.7921 65.9647 63.3537 63.6725 58.5146 67.3653L64.3726 58.3239L67.9383 60.7434ZM70.4851 59.3428L65.0094 55.7771L73.9236 42.0239L79.3993 45.5896L70.4851 59.3428ZM81.182 43.68C81.0548 43.5528 74.8145 39.4777 74.9424 39.605L83.3471 26.7435C84.2383 25.3429 86.1489 24.9606 87.5495 25.8524L88.8229 26.6163C90.2234 27.5074 90.6057 29.418 89.714 30.8186C86.5306 35.4026 84.3654 38.7133 81.182 43.6801L81.182 43.68Z" fill="black"/>
</svg>
