<svg width="107" height="89" viewBox="0 0 107 89" fill="none" xmlns="http://www.w3.org/2000/svg">
<path d="M48.4253 62.5852L46.2269 62.1971C45.9685 61.4214 45.7095 60.516 45.1922 59.7403L46.4852 57.8007C46.8734 57.2834 46.7436 56.6369 46.356 56.1196L42.9938 52.7574C42.6057 52.3693 41.83 52.2401 41.3128 52.6283L39.3732 53.9213C38.5975 53.5331 37.8212 53.1456 36.9164 52.8866L36.5283 50.5591C36.3991 49.9126 35.8818 49.5244 35.2353 49.5244H30.4507C29.8042 49.5244 29.2869 49.9126 29.1577 50.5591L28.7696 52.8866C27.9939 53.145 27.0885 53.4039 26.3128 53.9213L24.3732 52.6283C23.8559 52.2401 23.2094 52.3699 22.6921 52.7574L19.7192 55.9905C19.331 56.3787 19.2019 57.1544 19.59 57.6716L20.883 59.6112C20.4949 60.3869 20.1073 61.1632 19.8484 62.068L17.6499 62.4561C17.0034 62.5853 16.6152 63.1026 16.6152 63.7491V68.5336C16.6152 69.1801 17.0034 69.6975 17.6499 69.8266L19.8484 70.2148C20.1067 70.9905 20.3657 71.8959 20.883 72.6716L19.59 74.4819C19.2019 74.9992 19.3316 75.6457 19.7192 76.163L23.0814 79.5252C23.4695 79.9133 24.2452 80.0425 24.7625 79.6544L26.702 78.3614C27.4777 78.7495 28.254 79.137 29.1588 79.396L29.547 81.7236C29.6761 82.3701 30.1935 82.7582 30.84 82.7582H35.6245C36.271 82.7582 36.7883 82.3701 36.9175 81.7236L37.3056 79.5251C38.0813 79.2667 38.9867 79.0078 39.7624 78.4905L41.702 79.7835C42.2193 80.1716 42.8658 80.0418 43.3831 79.6543L46.7453 76.2921C47.1334 75.9039 47.2626 75.1283 46.8744 74.611L45.5814 72.6714C45.9696 71.8958 46.3571 71.1194 46.6161 70.2146L48.8146 69.8265C49.4611 69.6973 49.8492 69.18 49.8492 68.5335V63.749C49.4599 63.2317 49.0717 62.7143 48.4252 62.5852L48.4253 62.5852ZM46.8733 67.4988L44.8047 67.8869C44.2874 68.0161 43.8998 68.4043 43.77 68.9216C43.5117 70.0854 43.1235 71.1201 42.477 72.1541C42.2187 72.5422 42.2187 73.1887 42.477 73.5763L43.6409 75.2574L41.8305 77.0677L40.1494 75.9039C39.7613 75.6455 39.1148 75.6455 38.7273 75.9039C37.6926 76.5504 36.6586 76.9385 35.4948 77.1969C34.9775 77.326 34.5899 77.7142 34.4601 78.2315L34.072 80.1711H31.486L31.0978 78.1024C30.9686 77.5851 30.5805 77.1976 30.0632 77.0678C28.8994 76.8094 27.8647 76.2921 26.8307 75.7748C26.4425 75.5164 25.796 75.5164 25.4085 75.7748L23.7274 76.9386L22.176 74.9986L23.3398 73.3175C23.5982 72.9293 23.5982 72.2828 23.3398 71.8953C22.6933 70.8607 22.3052 69.8267 22.0468 68.6628C21.9176 68.1455 21.5295 67.758 21.0122 67.6282L19.0726 67.24V64.654L21.0122 64.2659C21.5295 64.1367 21.917 63.7486 22.0468 63.361C22.3052 62.1972 22.8225 61.1625 23.469 60.1285C23.7273 59.7404 23.7273 59.0939 23.469 58.7063L22.3052 57.1543L24.1155 55.344L25.7966 56.5078C26.1847 56.7662 26.7015 56.7662 27.2188 56.5078C28.2534 55.8613 29.2874 55.4732 30.4513 55.2148C30.9686 55.0856 31.3561 54.6975 31.4859 54.1802L31.874 52.1115H34.4601L34.8482 54.1802C34.9774 54.6975 35.3655 55.085 35.8829 55.2148C37.0467 55.4732 38.0813 55.9905 39.1154 56.5078C39.5035 56.7662 40.15 56.7662 40.5375 56.5078L42.2186 55.344L44.029 57.1543L42.8651 58.8354C42.6068 59.2236 42.6068 59.8701 42.8651 60.2576C43.5116 61.2922 43.8998 62.3262 44.1581 63.4901C44.2873 64.0074 44.6755 64.3949 45.1928 64.5247L47.1323 64.9129L46.8733 67.4988Z" fill="#E35D14"/>
<path d="M33.038 57.0244C27.9952 57.0244 23.9864 61.0332 23.9864 66.0761C23.9864 71.1189 27.9952 75.1277 33.038 75.1277C38.0808 75.1277 42.0896 71.1189 42.0896 66.0761C42.0896 61.0326 37.9517 57.0244 33.038 57.0244ZM33.038 72.5415C29.5466 72.5415 26.5724 69.6966 26.5724 66.0759C26.5724 62.4552 29.4173 59.6103 33.038 59.6103C36.5294 59.6103 39.5036 62.4552 39.5036 66.0759C39.503 69.6966 36.5288 72.5415 33.038 72.5415Z" fill="#E35D14"/>
<path d="M54.6312 46.9386V42.2834C54.6312 36.5941 50.1057 31.9388 44.4158 31.6805C42.9937 31.4221 39.373 30.2583 38.2091 28.3183C37.9508 27.801 37.821 27.2836 37.821 26.6372C40.0195 25.215 41.5707 22.7582 41.9589 19.784C43.8985 19.2667 45.3211 17.3272 45.3211 15.1288C45.3211 13.5767 44.6746 12.1546 43.5108 11.2498C43.7691 9.31024 43.8989 5.04312 41.5712 2.97387C40.7955 2.1982 39.3727 1.5517 37.0458 2.06901C36.0111 1.29334 33.5543 0.129453 30.4511 0.646841C26.5715 1.55229 23.4682 4.91396 23.0801 9.05185C22.9509 9.82752 22.9509 10.6039 23.0801 11.3794C21.9163 12.2843 21.2697 13.707 21.2697 15.2584C21.2697 17.4569 22.6919 19.3963 24.6319 19.9137C24.8903 22.7586 26.4423 25.2154 28.6407 26.6376C28.6407 27.1549 28.3824 28.1896 27.6061 29.0944C26.4423 30.5165 24.3736 31.4219 21.5287 31.6804C15.8394 31.8096 11.1841 36.4649 11.1841 42.2833V46.9386C11.1841 47.7142 11.7014 48.2315 12.4771 48.2315H53.3378C54.1135 48.2315 54.6308 47.7142 54.6308 46.9386L54.6312 46.9386ZM25.6665 9.43978C26.0547 6.46559 28.2526 4.0088 31.0975 3.49156C33.9425 2.97433 36.0111 4.65537 36.0111 4.65537C36.3993 4.91373 36.7868 5.04351 37.1749 4.91373C38.9853 4.39642 39.761 4.91373 39.89 5.17209C41.0539 6.20673 41.183 8.79274 41.0539 10.6031C40.149 9.95657 39.5018 8.27551 39.5018 8.27551C39.3727 7.88737 38.9845 7.49984 38.597 7.37065C38.2088 7.24147 37.6921 7.37065 37.304 7.75879C33.1661 11.8967 27.6059 11.5085 25.5372 11.121C25.5366 10.4745 25.5366 9.95716 25.6664 9.43988L25.6665 9.43978ZM27.218 18.8794C27.218 18.1037 26.7006 17.5864 25.925 17.5864C24.7611 17.5864 23.8563 16.5518 23.8563 15.2588C23.8563 14.4832 24.1147 13.8367 24.632 13.4485C25.2785 13.5777 26.5715 13.8367 28.1234 13.8367C30.8385 13.8367 34.4592 13.1902 37.6923 10.7334C38.468 12.1556 39.8908 13.4485 41.7011 13.4485C42.2184 13.8366 42.6059 14.6123 42.6059 15.3881C42.6059 16.6811 41.7011 17.7156 40.5373 17.7156C39.7616 17.7156 39.2443 18.2329 39.2443 19.0086C39.2443 22.6293 36.5292 25.7325 33.0376 25.7325C29.8039 25.4742 27.2179 22.3708 27.2179 18.8794L27.218 18.8794ZM52.045 45.6465H13.9V42.2843C13.9 37.8879 17.5206 34.2674 21.9168 34.2674H22.305C25.7964 33.8793 28.2532 32.5863 29.8046 30.6468C30.5802 29.6121 30.9684 28.5781 31.2267 27.8018C32.0024 28.0602 32.7788 28.0602 33.1663 28.0602C33.8128 28.0602 34.5885 28.0602 35.3648 27.8018C35.494 28.4483 35.7529 29.0948 36.0113 29.7414C37.8216 32.5863 42.0887 33.8793 43.6406 34.1377C43.7698 34.2669 44.0287 34.2669 44.1579 34.2669C48.5543 34.2669 52.1748 37.8876 52.1748 42.2838V45.6466L52.045 45.6465Z" fill="black"/>
<path d="M85.1485 68.1444C83.7264 67.886 80.1057 66.7222 78.9419 64.7822C78.6835 64.2649 78.5537 63.7475 78.5537 63.1011C80.7522 61.6789 82.3035 59.2221 82.6916 56.2479C84.6312 55.7306 86.0538 53.7911 86.0538 51.5926C86.0538 50.0406 85.4073 48.6185 84.2435 47.7137C84.5018 45.7741 84.6316 41.507 82.3039 39.4377C81.5282 38.6621 80.1054 38.0156 77.7785 38.5329C76.7438 37.7572 74.2871 36.5933 71.1838 37.1107C67.175 37.8864 64.2016 41.2486 63.6842 45.3866C63.6836 46.2915 63.6836 47.0671 63.6836 47.8428C62.5198 48.7477 61.8733 50.1704 61.8733 51.7218C61.8733 53.9203 63.2954 55.8597 65.2354 56.3771C65.4938 59.222 67.0458 61.6788 69.2443 63.101C69.2443 63.6183 68.9859 64.653 68.2096 65.5578C67.0458 66.98 64.9771 67.8854 62.1322 68.1438C56.4429 68.273 51.7876 72.9284 51.7876 78.7467V83.402C51.7876 84.1777 52.3049 84.695 53.0806 84.695H93.8118C94.5875 84.695 95.1048 84.1777 95.1048 83.402V78.7467C95.3631 73.058 90.8377 68.4028 85.1478 68.1444L85.1485 68.1444ZM66.2696 45.774C66.6577 42.7998 68.8556 40.343 71.7006 39.8257C74.5455 39.3085 76.6141 40.9896 76.6141 40.9896C77.0023 41.2479 77.3898 41.3777 77.778 41.2479C79.5883 40.7306 80.364 41.2479 80.4931 41.5063C81.6569 42.5409 81.7861 45.1269 81.6569 46.9373C80.752 46.2908 80.1049 44.6097 80.1049 44.6097C79.9757 44.2216 79.5876 43.834 79.2 43.7048C78.8119 43.5757 78.2951 43.7048 77.907 44.093C73.7691 48.2309 68.3381 47.8427 66.1403 47.4552C66.2695 46.9379 66.2695 46.2914 66.2695 45.7741L66.2696 45.774ZM67.8216 55.2136C67.8216 54.4379 67.3043 53.9206 66.5286 53.9206C65.3648 53.9206 64.46 52.886 64.46 51.593C64.46 50.8174 64.7183 50.1709 65.2356 49.7827C65.8821 49.9119 67.1752 50.1709 68.727 50.1709C71.4422 50.1709 75.0628 49.5244 78.2959 47.0676C79.0716 48.4898 80.4944 49.7827 82.3047 49.7827C82.822 50.1708 83.2096 50.9465 83.2096 51.7223C83.2096 53.0153 82.3047 54.0498 81.1409 54.0498C80.3653 54.0498 79.8479 54.5671 79.8479 55.3428C79.8479 59.3516 76.4858 62.7132 72.6066 61.9375C69.8903 61.1612 67.8217 58.3169 67.8217 55.2136L67.8216 55.2136ZM92.7782 82.1087H54.6331V78.7465C54.6331 74.3501 58.2538 70.7296 62.65 70.7296H63.0381C66.4003 70.3415 68.9864 69.0485 70.5378 67.109C71.3134 66.0743 71.7016 65.0403 71.9599 64.264C73.2529 64.6522 74.675 64.6522 75.9687 64.3932H76.0979C76.2271 65.0397 76.4861 65.6862 76.7444 66.3328C78.5547 69.1777 82.8219 70.4707 84.3737 70.7291C84.5029 70.8583 84.7619 70.8583 84.891 70.8583C89.2874 70.8583 92.9079 74.479 92.9079 78.8752V82.1089L92.7782 82.1087Z" fill="black"/>
<path d="M56.0545 32.4567H91.8724C92.6481 32.4567 93.1654 31.9393 93.1654 31.1637C93.1654 30.388 92.6481 29.8707 91.8724 29.8707H89.1573V15.1297C89.1573 14.3541 88.64 13.8367 87.8643 13.8367C87.0886 13.8367 86.5713 14.354 86.5713 15.1297V29.8707H79.8474V20.1726C79.8474 19.3969 79.3301 18.8796 78.5544 18.8796C77.7787 18.8796 77.2614 19.3969 77.2614 20.1726V29.8707H70.5374L70.5368 13.8369C70.5368 13.0613 70.0195 12.5439 69.2438 12.5439C68.4682 12.5439 67.9508 13.0613 67.9508 13.8369V29.8707H61.2269V22.7586C61.2269 21.9829 60.7096 21.4656 59.9339 21.4656C59.1583 21.4656 58.6409 21.9829 58.6409 22.7586V29.8707H55.9258C55.1501 29.8707 54.6328 30.388 54.6328 31.1637C54.7614 31.8102 55.4079 32.4567 56.0544 32.4567H56.0545Z" fill="#E35D14"/>
<path d="M59.8049 17.7152C62.2617 17.7152 64.3304 15.6466 64.3304 13.1898C64.3304 12.5433 64.2012 11.8968 63.9422 11.3795L66.7872 8.92266C67.5629 9.43998 68.4683 9.69833 69.3732 9.69833C70.4079 9.69833 71.3128 9.31019 72.0883 8.79348L74.5451 10.733C74.2868 11.2503 74.157 11.8968 74.157 12.4141C74.157 14.8709 76.2256 16.9396 78.6824 16.9396C81.1392 16.9396 83.2078 14.8709 83.2078 12.4141C83.2078 12.1558 83.2078 11.8968 83.0787 11.6385L84.6307 10.8628C85.4063 11.7676 86.5702 12.285 87.8632 12.285C90.32 12.285 92.3886 10.2163 92.3886 7.75952C92.3886 5.30273 90.32 3.23408 87.8632 3.23408C85.4064 3.23408 83.3377 5.30273 83.3377 7.75952C83.3377 8.01788 83.3377 8.27683 83.4669 8.66438L81.9149 9.44005C81.1392 8.53519 79.9753 8.01788 78.6824 8.01788C77.7775 8.01788 76.8721 8.27624 76.0964 8.79355L73.6396 6.72491C73.7688 6.2076 73.8979 5.69027 73.8979 5.1729C73.8979 2.7161 71.8293 0.647461 69.3725 0.647461C66.9157 0.647461 64.8471 2.7161 64.8471 5.1729C64.8471 5.8194 64.9763 6.33671 65.2352 6.85399L62.261 9.31079C61.6145 8.79348 60.709 8.53512 59.8042 8.53512C57.3474 8.53512 55.2788 10.6038 55.2788 13.0606C55.2788 15.5167 57.2184 17.7152 59.8049 17.7152H59.8049ZM87.8643 5.81925C88.8989 5.81925 89.8039 6.7241 89.8039 7.75881C89.8039 8.79345 88.899 9.69837 87.8643 9.69837C86.8296 9.69837 85.9247 8.79351 85.9247 7.75881C85.9242 6.59499 86.8296 5.81925 87.8643 5.81925ZM80.3641 11.6378C80.4933 11.8961 80.6224 12.1551 80.6224 12.5426C80.6224 13.5773 79.7176 14.4822 78.6829 14.4822C77.6482 14.4822 76.7433 13.5773 76.7433 12.5426C76.7433 11.508 77.6482 10.6031 78.6829 10.6031C79.33 10.6031 79.9765 10.9912 80.364 11.6377L80.3641 11.6378ZM69.373 3.23276C70.4077 3.23276 71.3126 4.13762 71.3126 5.17232C71.3126 6.20702 70.4077 7.11188 69.373 7.11188C68.3384 7.11188 67.4335 6.20702 67.4335 5.17232C67.4335 4.13827 68.3389 3.23276 69.373 3.23276ZM59.8048 11.2496C60.8394 11.2496 61.7443 12.1545 61.7443 13.1892C61.7443 14.2238 60.8395 15.1287 59.8048 15.1287C58.7701 15.1287 57.8652 14.2239 57.8652 13.1892C57.8646 12.026 58.6409 11.2496 59.8048 11.2496Z" fill="#E35D14"/>
</svg>
