<svg width="107" height="89" viewBox="0 0 107 89" fill="none" xmlns="http://www.w3.org/2000/svg">
<path d="M93.325 3.88573H85.8125C85.0355 3.88573 84.5173 4.40393 84.5173 5.18095V6.08736C76.7455 4.01517 76.0979 2.97877 75.7097 2.84932C74.9327 2.46051 67.4196 -1.0363 63.5339 1.94291L55.6326 8.4196L53.9487 7.9014V5.18103C53.9487 4.40402 53.4305 3.88581 52.6534 3.88581H45.011C44.234 3.88581 43.7158 4.40401 43.7158 5.18103V14.2482H26.2288C25.4518 14.2482 24.9336 14.7664 24.9336 15.5434V58.4176L13.5355 58.4182C12.7584 58.4182 12.2402 58.9364 12.2402 59.7134V77.2005C12.2402 81.4749 15.6082 84.8428 19.8826 84.8428H71.8232C76.0977 84.8428 79.4656 81.3454 79.4656 77.2005V30.8289V30.5701C81.9266 31.3471 84.1289 30.1813 84.2583 26.5544C84.2583 26.1656 84.1289 25.9068 83.9995 25.648H84.5177V29.4041C84.5177 30.1811 85.0359 30.6993 85.8129 30.6993H93.4553C94.2323 30.6993 94.7506 30.1811 94.7506 29.4041L94.7494 5.18177C94.6194 4.40477 94.1018 3.88656 93.3242 3.88656L93.325 3.88573ZM46.3062 6.47681H51.3576V28.1085H46.3062V6.47681ZM14.831 77.199V61.008H24.934V77.199C24.934 80.0488 22.6024 82.2505 19.8825 82.2505C17.0326 82.2505 14.831 79.9189 14.831 77.1984V77.199ZM71.8231 82.2511H25.5812C26.747 80.9559 27.5241 79.1425 27.5241 77.3291V77.1997L27.5247 16.8399H43.7157V29.4045C43.7157 30.1815 44.2339 30.6997 45.0109 30.6997H52.6533C53.4303 30.6997 53.9485 30.1815 53.9485 29.4045V26.2959C54.3373 26.4253 54.8549 26.6847 55.1143 27.0729L55.2437 27.2023C56.6683 28.3681 63.5339 33.9378 65.7355 34.8447C65.9943 34.9741 66.7719 35.3629 67.8077 35.3629C68.3259 35.3629 68.8441 35.2335 69.3624 34.9741C69.7512 34.7153 70.1394 34.4559 70.3988 33.8083C71.3052 34.1971 72.3417 34.3265 73.2486 33.9377C73.7668 33.6789 74.285 33.2901 74.6732 32.5131C75.3208 32.9019 76.2279 33.0313 77.0048 33.0313V77.3298C76.8742 79.9197 74.6726 82.2512 71.8228 82.2512L71.8231 82.2511ZM81.149 28.1076C80.7602 28.3664 79.8538 27.9782 79.2061 27.5894L77.1339 24.6101C76.7451 23.9625 75.9681 23.8331 75.3205 24.2213C74.6729 24.6101 74.5435 25.3871 74.9317 26.0348L77.0039 29.1434C76.8745 30.0498 76.7451 30.3092 76.6151 30.3092C76.3562 30.4386 75.3198 29.9204 74.5429 29.4028L72.3406 26.2942C71.9518 25.6466 71.1748 25.5172 70.5272 25.9054C69.8796 26.2942 69.7502 27.0712 70.1384 27.7188L72.2106 30.6981C72.0812 31.0869 71.9518 31.3457 71.8218 31.3457C71.4329 31.4751 70.5265 31.0869 70.0083 30.6981L67.8061 27.5895C67.4173 26.9419 66.6403 26.8125 65.9926 27.2007C65.345 27.5895 65.2156 28.3665 65.6038 29.0141L67.676 31.9934C67.676 32.3822 67.5466 32.5116 67.5466 32.5116C67.4172 32.641 66.899 32.5116 66.5102 32.2528C66.5102 32.2528 66.3808 32.2528 66.3808 32.1234C65.215 31.7346 59.9041 27.7195 56.6661 24.9991C55.7596 24.0927 54.5939 23.5745 53.6868 23.3151L53.6886 12.9528C54.3362 14.1186 55.3725 14.8957 55.6314 15.1551C61.4606 18.7819 67.9365 12.5646 68.3253 12.3052C68.4547 12.1758 68.5841 12.0464 68.7141 12.0464L81.408 26.8127C81.5374 27.5897 81.2786 27.9785 81.1486 28.1079L81.149 28.1076ZM82.1854 23.5744L70.6572 10.1035C70.5278 9.97412 70.3984 9.84472 70.2684 9.71471C69.6208 9.45591 67.9369 9.19651 66.771 10.4917C66.771 10.4917 61.4602 15.5432 57.4451 13.0822C56.7975 12.564 56.1499 11.787 56.1499 11.2687C56.1499 11.0099 56.5387 10.8799 56.6681 10.7505L56.7975 10.6211H56.9269L65.0876 3.88569C67.2898 2.20171 72.6 4.14449 74.4135 5.0515C76.3568 6.60618 81.9266 8.03079 84.517 8.67836V22.9263C83.74 22.9269 82.833 23.0563 82.1855 23.5745L82.1854 23.5744ZM92.0294 28.1076H87.1074V6.47589H92.1589V28.1076H92.0294Z" fill="black"/>
<path d="M45.0116 41.5778C44.2346 41.5778 43.7164 42.096 43.7164 42.873C43.7164 43.65 44.2346 44.1682 45.0116 44.1682H72.0826C72.8596 44.1682 73.3778 43.65 73.3778 42.873C73.3784 40.412 70.658 42.096 45.0107 41.5778H45.0116Z" fill="#E35D14"/>
<path d="M72.0826 56.085H45.0101C44.2331 56.085 43.7149 56.6032 43.7149 57.3802C43.7149 58.1572 44.2331 58.6754 45.0101 58.6754H72.0811C72.8581 58.6754 73.3763 58.1572 73.3763 57.3802C73.3769 56.6032 72.8587 56.085 72.0817 56.085H72.0826Z" fill="#E35D14"/>
<path d="M72.0826 70.7227H45.0101C44.2331 70.7227 43.7149 71.2409 43.7149 72.0179C43.7149 72.7949 44.2331 73.3131 45.0101 73.3131H72.0811C72.8581 73.3131 73.3763 72.7949 73.3763 72.0179C73.3769 71.2409 72.8587 70.7227 72.0817 70.7227H72.0826Z" fill="#E35D14"/>
<path d="M39.1831 38.7298L33.7428 44.1701L32.4476 42.8748C31.9294 42.3566 31.1524 42.3566 30.6342 42.8748C30.116 43.393 30.116 44.1701 30.6342 44.6883L32.9657 47.0198C33.4839 47.538 34.261 47.538 34.7792 47.0198L41.1258 40.6732C41.644 40.155 41.644 39.378 41.1258 38.8598C40.6076 38.3416 39.7012 38.3416 39.1829 38.7298L39.1831 38.7298Z" fill="#E35D14"/>
<path d="M39.1831 53.3645L33.7428 58.8048L32.4476 57.5096C31.9294 56.9914 31.1524 56.9914 30.6342 57.5096C30.116 58.0278 30.116 58.8048 30.6342 59.323L32.9657 61.6546C33.4839 62.1728 34.261 62.1728 34.7792 61.6546L41.1258 55.308C41.644 54.7898 41.644 54.0127 41.1258 53.4945C40.6076 52.8469 39.7012 52.8469 39.1829 53.3645L39.1831 53.3645Z" fill="#E35D14"/>
<path d="M39.1832 68.0022L33.7429 73.4425L32.4476 72.1473C31.9294 71.6291 31.1524 71.6291 30.6342 72.1473C30.116 72.6655 30.116 73.4425 30.6342 73.9607L32.9658 76.2923C33.484 76.8105 34.261 76.8105 34.7792 76.2923L41.1258 69.9456C41.644 69.4275 41.644 68.6504 41.1258 68.1322C40.6076 67.4846 39.7012 67.4846 39.1829 68.0022L39.1832 68.0022Z" fill="#E35D14"/>
</svg>
