<svg width="82" height="70" viewBox="0 0 82 70" fill="none" xmlns="http://www.w3.org/2000/svg">
<path d="M73.3362 43.8375L71.5607 42.062C70.0586 40.56 68.8295 38.6477 68.1464 36.5992C67.1903 34.141 65.8249 31.9558 63.9127 30.044L61.5912 27.7226C59.6794 25.8108 56.4018 25.6741 54.4896 27.5858C54.2166 27.7226 54.0799 27.9955 53.9432 28.1323C53.1238 27.8593 52.4411 27.8593 51.8947 27.8593L51.8951 5.46281C51.8951 2.45819 49.4369 0 46.4323 0H13.6564C10.6518 0 8.1936 2.45819 8.1936 5.46281V60.0897C8.1936 63.0943 10.6518 65.5525 13.6564 65.5525H46.4323C49.4369 65.5525 51.8951 63.0943 51.8951 60.0897V50.3937C53.6707 51.486 55.4457 52.0325 57.2212 52.1692L61.1815 56.1294C61.4545 56.4024 61.7279 56.5391 62.1376 56.5391C62.5473 56.5391 62.8203 56.4024 63.0937 56.1294L73.4729 45.7503C73.8822 45.2038 73.8822 44.3844 73.3358 43.838L73.3362 43.8375ZM46.433 62.8206H13.6571C12.1551 62.8206 10.926 61.5916 10.926 60.0895L10.9255 5.46257C10.9255 3.9605 12.1546 2.7314 13.6567 2.7314H46.4326C47.9347 2.7314 49.1638 3.9605 49.1638 5.46257V29.2251L49.027 29.3618C48.8903 29.4986 48.7541 29.6348 48.6173 29.7715C47.525 29.6348 46.2959 29.9083 45.4765 30.5909L45.4769 10.9254C45.4769 10.106 44.9305 9.55956 44.1111 9.55956L15.9788 9.56002C15.1594 9.56002 14.613 10.1064 14.613 10.9258V54.6267C14.613 55.4461 15.1594 55.9925 15.9788 55.9925H44.1111C44.9305 55.9925 45.4769 55.4461 45.4769 54.6267V49.0276H47.1157C47.7984 49.0276 48.4815 49.1643 49.0275 49.3006V60.089C49.1642 61.5915 47.9351 62.8206 46.433 62.8206V62.8206ZM32.3663 30.4544L43.1552 41.2433H39.7409C37.5557 41.2433 35.7806 42.8821 35.7806 44.9306C35.7806 46.023 36.0536 46.9791 36.873 47.7985C37.5557 48.6179 38.6485 49.0276 39.6042 49.0276H42.745L42.7455 53.2609H17.3442V12.291H42.7455V30.045L37.8291 25.1286C36.4633 23.7628 34.2786 23.6265 32.776 24.5822C31.8199 25.2648 31.2739 26.221 31.1372 27.4501C31.0005 28.6792 31.5469 29.6353 32.3663 30.4547L32.3663 30.4544ZM62.0016 53.2606L58.8607 50.1198C58.5878 49.8468 58.0413 49.5733 57.6316 49.5733C56.2658 49.4366 54.7637 49.0269 53.2617 48.0713C52.579 47.6616 51.8959 47.3886 51.2132 47.1151C51.0765 47.1151 51.0765 47.1151 50.9402 46.9784C49.7111 46.5687 48.482 46.2957 47.2529 46.2957H39.6044C39.3314 46.2957 39.058 46.159 38.785 45.886C38.512 45.6131 38.512 45.3396 38.512 45.0666C38.512 44.5202 39.1947 43.9743 39.7411 43.9743H44.9305C45.7499 43.9743 46.4326 43.4278 46.8423 42.7452C47.1152 42.0625 46.979 41.1064 46.4326 40.56L34.4143 28.5417C34.1414 28.2688 34.0046 27.9953 34.1414 27.5856C34.1414 27.4489 34.2781 27.0392 34.6878 26.7662C35.0975 26.4932 35.7802 26.6295 36.1899 27.0392L45.4762 36.3255C46.0226 36.872 46.842 36.872 47.388 36.3255C47.9344 35.7791 47.9344 34.9597 47.388 34.4138C47.115 34.1408 47.115 33.8673 47.115 33.5944C47.115 33.3214 47.2517 33.0479 47.388 32.775C47.7977 32.3653 48.6171 32.3653 49.0268 32.775C49.5732 33.3214 50.3926 33.3214 50.9386 32.775C51.3483 32.3653 51.485 31.8189 51.2115 31.2729C51.4845 30.9999 52.0309 30.7265 52.5774 30.5902C53.26 30.5902 54.2162 30.9999 54.3529 31.1366C54.8993 31.6831 55.7187 31.6831 56.2646 31.1366C56.6743 30.7269 56.8111 30.0443 56.5376 29.4979C57.357 28.6785 58.9958 28.8152 59.8152 29.6346L62.1367 31.956C63.7755 33.5948 64.8679 35.3704 65.6873 37.5551C66.5067 39.8766 68.0087 42.0618 69.7842 43.9736L70.6036 44.793L62.0016 53.2606Z" fill="#E35D14"/>
<path d="M24.9918 7.78437H28.1327C28.9521 7.78437 29.4985 7.23795 29.4985 6.41855C29.4985 5.59916 28.9521 5.05273 28.1327 5.05273H24.9918C24.1724 5.05273 23.626 5.59916 23.626 6.41855C23.626 7.23795 24.3091 7.78437 24.9918 7.78437Z" fill="black"/>
<path d="M33.3227 7.78437H35.0982C35.9176 7.78437 36.4641 7.23795 36.4641 6.41855C36.4641 5.59916 35.9176 5.05273 35.0982 5.05273H33.3227C32.5033 5.05273 31.9569 5.59916 31.9569 6.41855C31.9569 7.23795 32.5033 7.78437 33.3227 7.78437Z" fill="black"/>
<path d="M32.0936 58.4502H27.9966C27.1772 58.4502 26.6307 58.9966 26.6307 59.816C26.6307 60.6354 27.1772 61.1818 27.9966 61.1818H32.0936C32.913 61.1818 33.4594 60.6354 33.4594 59.816C33.4589 58.9966 32.7762 58.4502 32.0936 58.4502Z" fill="black"/>
</svg>
