<svg width="81" height="70" viewBox="0 0 81 70" fill="none" xmlns="http://www.w3.org/2000/svg">
<path d="M18.8666 42.9902H9.43348C8.6249 42.9902 8.08569 43.5294 8.08569 44.338V63.2045C8.08569 64.0131 8.6249 64.5523 9.43348 64.5523H18.8671C19.6757 64.5523 20.2149 64.0131 20.2149 63.2045V44.338C20.2144 43.6639 19.6752 42.9902 18.8666 42.9902ZM17.5193 61.8567H10.7808V45.6851H17.5188L17.5193 61.8567Z" fill="black"/>
<path d="M36.3864 32.208H26.9528C26.1442 32.208 25.605 32.7472 25.605 33.5558V63.2041C25.605 64.0127 26.1442 64.5519 26.9528 64.5519H36.3864C37.1949 64.5519 37.7341 64.0127 37.7341 63.2041V33.5558C37.7341 32.8821 37.1949 32.208 36.3864 32.208ZM35.0386 61.8564H28.3006V34.9041H35.0386V61.8564Z" fill="#E35D14"/>
<path d="M53.9059 38.9473H44.4723C43.6637 38.9473 43.1245 39.4865 43.1245 40.2951V63.2045C43.1245 64.013 43.6637 64.5522 44.4723 64.5522H53.9059C54.7145 64.5522 55.2537 64.013 55.2537 63.2045V40.2951C55.2532 39.6209 54.7145 38.9473 53.9059 38.9473ZM52.5581 61.8567H45.8201V41.6421H52.5581V61.8567Z" fill="black"/>
<path d="M71.4244 25.4697H61.9908C61.1822 25.4697 60.643 26.0089 60.643 26.8175V63.2037C60.643 64.0122 61.1822 64.5514 61.9908 64.5514H71.4244C72.233 64.5514 72.7722 64.0122 72.7722 63.2037V26.8175C72.7722 26.1434 72.233 25.4697 71.4244 25.4697ZM70.0771 61.8559H63.339V28.1646H70.0771V61.8559Z" fill="#E35D14"/>
<path d="M66.708 0.134766C63.7431 0.134766 61.3174 2.56051 61.3174 5.52546C61.3174 6.73833 61.7216 7.9512 62.3953 8.75978L50.4018 22.2365C48.2454 20.8887 45.0111 21.293 43.3939 23.5843L35.443 19.4065C35.9822 16.0372 33.2866 13.477 30.1872 13.3421C26.9529 13.0728 23.8535 16.5764 25.0664 20.4844L16.7112 27.7617C15.9026 26.9526 14.6897 26.4139 13.4769 26.4139C10.5119 26.4139 8.08618 28.8396 8.08618 31.8046C8.08618 34.7695 10.5119 37.1953 13.4769 37.1953C16.4418 37.1953 18.8676 34.7695 18.8676 31.8046C18.8676 31.1309 18.7326 30.4568 18.4633 29.7831L26.684 22.6408C27.6275 23.4494 28.8404 24.123 30.3226 24.123C32.0747 24.123 33.6919 23.3145 34.6349 21.9667L42.4513 26.1445C41.9121 29.2439 44.4728 32.3438 47.7071 32.3438C50.672 32.3438 53.0978 29.918 53.0978 26.9531C53.0978 26.0096 52.8284 25.0665 52.2892 24.258L64.4179 10.5121C65.0916 10.7815 65.7657 10.9164 66.5743 10.9164C69.5392 10.9164 71.965 8.49064 71.965 5.52569C71.9641 2.56074 69.6732 0.134997 66.7083 0.134997L66.708 0.134766ZM13.4769 34.4995C11.9946 34.4995 10.7818 33.2866 10.7818 31.8043C10.7818 30.3221 11.9946 29.1092 13.4769 29.1092C14.9591 29.1092 16.172 30.3221 16.172 31.8043C16.172 33.2866 14.9591 34.4995 13.4769 34.4995ZM30.3219 21.427C28.8397 21.427 27.6268 20.2141 27.6268 18.7319C28.166 14.9584 32.8826 15.4976 33.0175 18.7319C33.017 20.2141 31.8042 21.427 30.3219 21.427ZM47.8416 29.5128C46.3593 29.5128 45.1464 28.2999 45.1464 26.8177C45.1464 25.3355 46.3593 24.1226 47.8416 24.1226C49.3238 24.1226 50.5367 25.3355 50.5367 26.8177C50.5367 28.2999 49.3238 29.5128 47.8416 29.5128ZM66.708 8.22057C65.3603 8.08566 64.2823 7.27708 64.0129 5.52546C64.0129 4.04321 65.2258 2.83034 66.708 2.83034C68.1903 2.83034 69.4032 4.04321 69.4032 5.52546C69.4032 7.0077 68.1903 8.22057 66.708 8.22057Z" fill="#E35D14"/>
</svg>
