<svg width="84" height="70" viewBox="0 0 84 70" fill="none" xmlns="http://www.w3.org/2000/svg">
<path d="M69.0714 2.02025H14.2738C12.1123 2.02025 10.3545 3.7781 10.3545 5.93953V60.7371C10.3545 62.8883 12.1123 64.6462 14.2738 64.6462H69.0714C71.2328 64.6462 72.9907 62.8888 72.9907 60.7269L72.9902 5.93882C72.9804 3.77739 71.2226 2.01953 69.0714 2.01953L69.0714 2.02025ZM70.3744 60.7381C70.3744 61.4552 69.7884 62.0411 69.0714 62.0411H14.2738C13.5567 62.0411 12.9708 61.4551 12.9708 60.7381V5.94048C12.9708 5.22341 13.5567 4.63751 14.2738 4.63751H69.0714C69.7884 4.63751 70.3744 5.22345 70.3744 5.94048V60.7381Z" fill="#E35D14"/>
<path d="M66.4548 17.6758H16.8787C16.1616 17.6758 15.5757 18.2617 15.5757 18.9788V58.1204C15.5757 58.8375 16.1616 59.4234 16.8787 59.4234H66.4548C67.1719 59.4234 67.7578 58.8375 67.7578 58.1204V18.9788C67.7578 18.2617 67.1821 17.6758 66.4548 17.6758ZM65.1518 56.8175H18.1816V20.2817H65.1518V56.8175Z" fill="#E35D14"/>
<path d="M63.8487 7.24219C61.6873 7.24219 59.9294 8.99957 59.9294 11.1615C59.9294 13.3229 61.6868 15.0808 63.8487 15.0808C66.0102 15.0808 67.768 13.3234 67.768 11.1615C67.7578 8.98981 66.0102 7.24219 63.8487 7.24219ZM63.8487 12.4542C63.1317 12.4542 62.5458 11.8683 62.5458 11.1512C62.5458 10.4342 63.1317 9.84826 63.8487 9.84826C64.5658 9.84826 65.1517 10.4342 65.1517 11.1512C65.1517 11.8683 64.5658 12.4542 63.8487 12.4542Z" fill="black"/>
<path d="M52.1012 15.07C54.2626 15.07 56.0205 13.3126 56.0205 11.1507C56.0205 8.9893 54.2631 7.23145 52.1012 7.23145C49.9397 7.23145 48.1819 8.98883 48.1819 11.1507C48.1921 13.3126 49.9495 15.07 52.1012 15.07ZM52.1012 9.84776C52.8183 9.84776 53.4042 10.4337 53.4042 11.1507C53.4042 11.8678 52.8182 12.4537 52.1012 12.4537C51.3841 12.4537 50.7982 11.8678 50.7982 11.1507C50.7982 10.4337 51.3841 9.84776 52.1012 9.84776Z" fill="black"/>
<path d="M40.363 15.07C42.5244 15.07 44.2721 13.3126 44.2721 11.1507C44.2721 8.9893 42.5147 7.23145 40.363 7.23145C38.2016 7.23145 36.4437 8.98883 36.4437 11.1507C36.4437 13.3126 38.2016 15.07 40.363 15.07ZM40.363 9.84776C41.0801 9.84776 41.666 10.4337 41.666 11.1507C41.666 11.8678 41.08 12.4537 40.363 12.4537C39.6459 12.4537 39.06 11.8678 39.06 11.1507C39.06 10.4337 39.646 9.84776 40.363 9.84776Z" fill="black"/>
<path d="M31.6868 47.374C32.0705 47.7074 32.616 47.7781 33.081 47.566C33.5456 47.354 33.8385 46.8894 33.8385 46.3844V42.4651H49.4957V46.3844C49.4957 46.8894 49.7886 47.354 50.2532 47.566C50.4248 47.6469 51.0312 47.8692 51.6474 47.374L60.8694 39.5456C61.1624 39.2931 61.334 38.9295 61.334 38.5458C61.334 38.1622 61.1624 37.7985 60.8694 37.546L51.6474 29.7177C51.2637 29.3843 50.7182 29.3136 50.2532 29.5256C49.7886 29.7377 49.4957 30.2023 49.4957 30.7073V34.6266H33.8385V30.7073C33.8385 30.2023 33.5456 29.7377 33.081 29.5256C32.6164 29.3136 32.0812 29.3843 31.6868 29.7177L22.4648 37.546C22.1718 37.7985 22.0002 38.1622 22.0002 38.5458C22.0002 38.9295 22.1718 39.2931 22.4648 39.5456L31.6868 47.374ZM31.2325 33.5454V35.9496C31.2325 36.6666 31.8184 37.2525 32.5355 37.2525H50.7986C51.5156 37.2525 52.1015 36.6666 52.1015 35.9496V33.5454L58.0107 38.5556L52.1015 43.5659V41.1617C52.1015 40.4446 51.5156 39.8587 50.7986 39.8587H32.5355C31.8184 39.8587 31.2325 40.4447 31.2325 41.1617V43.5659L25.3233 38.5556L31.2325 33.5454Z" fill="black"/>
</svg>
