<svg width="85" height="70" viewBox="0 0 85 70" fill="none" xmlns="http://www.w3.org/2000/svg">
<path d="M68.0627 1.02246H16.2747C12.5129 1.02246 9.45618 4.07921 9.45618 7.84101V59.6398C9.45618 63.3912 12.5129 66.448 16.2747 66.448H68.0735C71.8353 66.448 74.8921 63.3912 74.8921 59.6294V18.7391L74.8925 7.84161C74.8822 4.07981 71.8254 1.02306 68.0636 1.02306L68.0627 1.02246ZM12.1856 7.84101C12.1856 5.58198 14.0155 3.7521 16.2745 3.7521H68.0733C70.3323 3.7521 72.1622 5.58198 72.1622 7.84101L72.1626 17.3788H12.1868L12.1856 7.84101ZM72.1518 59.6289C72.1518 61.888 70.3219 63.7179 68.0629 63.7179H16.275C14.0159 63.7179 12.1861 61.888 12.1861 59.6289V20.1085H72.1619V59.6289H72.1518Z" fill="#E35D14"/>
<path d="M18.9941 6.47168C16.735 6.47168 14.9052 8.30156 14.9052 10.5606C14.9052 12.8196 16.735 14.6495 18.9941 14.6495C21.2531 14.6495 23.083 12.8196 23.083 10.5606C23.083 8.30156 21.2531 6.47168 18.9941 6.47168ZM18.9941 11.9306C18.2476 11.9306 17.6344 11.3169 17.6344 10.5606C17.6344 9.81417 18.2477 9.20096 18.9941 9.20096C19.7405 9.20096 20.3537 9.81419 20.3537 10.5606C20.3641 11.3169 19.7504 11.9306 18.9941 11.9306Z" fill="#E35D14"/>
<path d="M65.3435 6.47168H40.8085C38.5495 6.47168 36.7196 8.30156 36.7196 10.5606C36.7196 12.8196 38.5495 14.6495 40.8085 14.6495H65.3435C67.6025 14.6495 69.4324 12.8196 69.4324 10.5606C69.4324 8.30156 67.5926 6.47168 65.3435 6.47168ZM65.3435 11.9306H40.8085C40.0522 11.9306 39.4489 11.3174 39.4489 10.571C39.4489 9.81466 40.0621 9.21132 40.8085 9.21132H65.3435C66.0899 9.20096 66.7031 9.8142 66.7031 10.5606C66.7031 11.3169 66.0899 11.9306 65.3435 11.9306Z" fill="#E35D14"/>
<path d="M17.3169 49.7131C17.9508 49.8971 18.6252 49.4778 18.8605 49.018C22.8576 41.2795 30.7393 36.4638 39.4279 36.4638C43.7319 36.4638 47.8617 37.6291 51.4809 39.8477L39.1219 51.011C37.6295 52.0026 36.6478 53.6893 36.6478 55.6011C36.6478 58.6372 39.1219 61.1113 42.1579 61.1113C44.3252 61.1113 46.1856 59.8438 47.0854 58.0239L67.6432 28.8793C68.0419 28.3169 67.9501 27.5301 67.4286 27.0697C66.9072 26.6099 66.1302 26.6099 65.6091 27.0801L61.1315 31.1285C56.2449 25.8433 49.4062 22.8379 42.1484 22.8379C28.0713 22.8379 16.4689 34.2973 16.2749 48.374C16.2744 48.9971 16.7036 49.5388 17.3173 49.7125L17.3169 49.7131ZM42.1578 58.3822C40.6244 58.3822 39.3773 57.1349 39.3773 55.6017C39.3773 54.0683 40.6246 52.8212 42.1578 52.8212C43.6912 52.8212 44.9383 54.0684 44.9383 55.6017C44.9383 57.1351 43.6911 58.3822 42.1578 58.3822ZM47.1159 53.24C46.4721 51.9011 45.3062 50.8684 43.8752 50.388L58.3499 37.3024L47.1159 53.24ZM42.1479 25.5569C48.5984 25.5569 54.6708 28.2047 59.107 32.9477L53.5766 37.9468C49.3748 35.1865 44.5089 33.7351 39.4284 33.7351C31.7509 33.7351 24.6356 37.0883 19.7911 42.7722C22.4281 32.8865 31.4956 25.5565 42.1477 25.5565L42.1479 25.5569Z" fill="black"/>
</svg>
