<svg width="88" height="70" viewBox="0 0 88 70" fill="none" xmlns="http://www.w3.org/2000/svg">
<path d="M75.2007 8.27903C66.0427 7.59081 60.0403 2.49835 59.9766 2.44569C59.4683 2.00117 58.6957 2.00117 58.1873 2.44569C58.124 2.49882 52.1951 7.56979 42.9944 8.2688C42.2853 8.32192 41.7344 8.91462 41.7344 9.63448V27.0397C41.7344 27.1669 41.7554 28.0666 42.1049 29.4533L13.6145 29.4529V22.6136C13.6145 21.862 14.2287 21.2479 14.9802 21.2479H38.9923C39.7439 21.2479 40.358 20.6337 40.358 19.8822C40.358 19.1306 39.7439 18.5165 38.9923 18.5165H14.9814C12.716 18.5165 10.8843 20.3585 10.8843 22.6244V30.8188V30.8295V30.8402V63.6504C10.8735 65.9159 12.7155 67.7583 14.9814 67.7583H58.7383C61.0038 67.7583 62.8355 65.9164 62.8355 63.6504L62.835 48.8593C62.835 48.1077 62.2209 47.4936 61.4693 47.4936C60.7177 47.4936 60.1036 48.1078 60.1036 48.8593V63.6504C60.1036 64.402 59.4895 65.0161 58.7379 65.0161H14.9811C14.2295 65.0161 13.6154 64.402 13.6154 63.6504L13.6149 32.2066H43.0573C44.8252 36.1765 48.9438 41.6502 58.5359 45.7686C58.7056 45.8427 59.4464 45.8427 59.616 45.7686C76.2064 38.6645 76.4709 27.5262 76.4709 27.0395V9.64434C76.4709 8.92443 75.9206 8.33168 75.2007 8.27865L75.2007 8.27903ZM73.7292 27.0293C73.7185 27.4212 73.3797 36.6742 59.0766 43.027C45.0591 36.8968 44.4552 27.189 44.4552 27.0505L44.4547 10.8831C51.8444 10.0151 57.0747 6.69036 59.0761 5.21887C61.0877 6.69036 66.339 10.0151 73.7287 10.8831L73.7292 27.0293Z" fill="#E35D14"/>
<path d="M51.8986 17.1616V19.8931H51.2528C50.5012 19.8931 49.8871 20.5072 49.8871 21.2587V33.561C49.8871 34.3126 50.5012 34.9267 51.2528 34.9267H66.9435C67.6951 34.9267 68.3092 34.3126 68.3092 33.561V21.2587C68.3092 20.5072 67.695 19.8931 66.9435 19.8931H65.5778V17.1616C65.5778 13.3924 62.5077 10.3223 58.7385 10.3223C54.9699 10.3223 51.8992 13.3924 51.8992 17.1616H51.8986ZM65.5766 22.6352V32.2059H52.6173V22.6352H65.5766ZM62.8452 17.1616V19.8931H54.6401V17.1616C54.6401 14.8961 56.482 13.0536 58.748 13.0536C61.0032 13.0536 62.8452 14.8961 62.8452 17.1616Z" fill="black"/>
<path d="M58.7376 29.4633C59.4892 29.4633 60.1033 28.8491 60.1033 28.0976V26.7319C60.1033 25.9803 59.4892 25.3662 58.7376 25.3662C57.986 25.3662 57.3719 25.9804 57.3719 26.7319V28.0976C57.3719 28.8599 57.9861 29.4633 58.7376 29.4633Z" fill="#E35D14"/>
<path d="M19.0785 36.3037C18.3269 36.3037 17.7128 36.9178 17.7128 37.6694V59.5528C17.7128 60.3044 18.327 60.9185 19.0785 60.9185H35.4892C36.2408 60.9185 36.8549 60.3044 36.8549 59.5528V37.6694C36.8549 36.9178 36.2408 36.3037 35.4892 36.3037H19.0785ZM34.1229 58.1871H20.4448V39.0451H34.1229V58.1871Z" fill="black"/>
<path d="M54.6399 58.1875H40.9618C40.2102 58.1875 39.5961 58.8016 39.5961 59.5532C39.5961 60.3048 40.2103 60.9189 40.9618 60.9189H54.6399C55.3915 60.9189 56.0056 60.3047 56.0056 59.5532C56.0056 58.8016 55.3914 58.1875 54.6399 58.1875Z" fill="black"/>
<path d="M54.6399 52.7129H40.9618C40.2102 52.7129 39.5961 53.327 39.5961 54.0786C39.5961 54.8301 40.2103 55.4443 40.9618 55.4443H54.6399C55.3915 55.4443 56.0056 54.8301 56.0056 54.0786C56.0056 53.327 55.3914 52.7129 54.6399 52.7129Z" fill="black"/>
<path d="M54.6399 47.25H40.9618C40.2102 47.25 39.5961 47.8641 39.5961 48.6157C39.5961 49.3672 40.2103 49.9814 40.9618 49.9814H54.6399C55.3915 49.9814 56.0056 49.3672 56.0056 48.6157C56.0056 47.8534 55.3914 47.25 54.6399 47.25Z" fill="black"/>
<path d="M16.347 25.3667C16.347 26.1182 16.9612 26.7324 17.7127 26.7324C18.4643 26.7324 19.0784 26.1182 19.0784 25.3667C19.0784 24.6151 18.4643 24.001 17.7127 24.001C16.9607 24.001 16.347 24.6044 16.347 25.3667Z" fill="black"/>
<path d="M24.5511 25.3667C24.5511 26.1212 23.9399 26.7324 23.1855 26.7324C22.4314 26.7324 21.8198 26.1211 21.8198 25.3667C21.8198 24.6126 22.4315 24.001 23.1855 24.001C23.94 24.001 24.5511 24.6127 24.5511 25.3667Z" fill="black"/>
<path d="M27.2836 25.3667C27.2836 26.1182 27.8978 26.7324 28.6493 26.7324C29.4009 26.7324 30.015 26.1182 30.015 25.3667C30.015 24.6151 29.4009 24.001 28.6493 24.001C27.8972 24.001 27.2836 24.6044 27.2836 25.3667Z" fill="black"/>
</svg>
