<svg width="107" height="89" viewBox="0 0 107 89" fill="none" xmlns="http://www.w3.org/2000/svg">
<path d="M32.9816 28.5283L33.8849 25.1719C34.1428 24.5265 33.627 23.7521 32.9816 23.6225C32.3362 23.3646 31.5618 23.8804 31.4322 24.5258L29.625 30.9804C29.3671 31.6258 29.8829 32.4001 30.5283 32.5297L36.9829 34.337C37.6283 34.5949 38.4026 34.0791 38.5322 33.4337C38.7901 32.7883 38.2743 32.0139 37.6289 31.8843L33.885 30.852C54.4097 19.4923 76.0953 44.2769 62.2843 63.1233C61.8969 63.6397 62.0264 64.543 62.5423 64.9305C63.0587 65.318 63.962 65.1884 64.3495 64.6726C67.4474 60.4128 69.1258 55.3785 69.1258 50.2149C69.1258 31.6268 49.2461 19.7495 32.9827 28.5278L32.9816 28.5283Z" fill="#E35D14"/>
<path d="M58.67 67.6418L52.2155 65.8346C51.5701 65.5766 50.7958 66.0925 50.6661 66.7379C50.4082 67.3833 50.924 68.1576 51.5694 68.2872L55.4418 69.3201C40.7267 77.4523 22.5255 66.9965 22.5255 50.2163C22.5255 45.569 23.9452 41.0513 26.7853 37.1789C27.1728 36.6625 27.0432 35.7592 26.5274 35.3717C26.011 34.9842 25.1076 35.1138 24.7202 35.6296C21.6222 39.8894 19.9438 44.9236 19.9438 50.0873C19.9438 68.6754 39.8235 80.4219 56.0869 71.7744L55.1836 75.0014C54.9257 75.6468 55.4416 76.4211 56.0869 76.5507C56.7323 76.8087 57.5067 76.2928 57.6363 75.6474L59.4435 69.1929C59.7015 68.5469 59.314 67.772 58.6686 67.6429L58.67 67.6418Z" fill="#E35D14"/>
<path d="M38.7905 64.2856C38.7905 65.06 39.3069 65.5764 40.0813 65.5764H48.9884C49.7628 65.5764 50.2792 65.06 50.2792 64.2856V57.3154C50.2792 55.766 50.7957 54.4753 51.8286 53.443C54.2812 51.2483 55.4431 48.0213 55.185 44.6655C54.7976 39.6313 50.7962 35.6293 45.762 34.984C42.664 34.5965 39.6949 35.6294 37.3714 37.5656C35.176 39.7591 33.8853 42.7282 33.8853 45.6971C33.8853 48.5372 35.0471 51.2477 37.1123 53.3134C38.2741 54.4752 38.7905 55.895 38.7905 57.3154V64.2856H38.7905ZM47.6977 62.9949H41.3727V61.0586H47.6977V62.9949ZM44.4707 47.8918C43.4378 47.8918 42.6635 47.1174 42.6635 46.0846C42.6635 45.0517 43.4378 44.2773 44.4707 44.2773C45.5036 44.2773 46.2779 45.0517 46.2779 46.0846C46.2779 46.9879 45.503 47.8918 44.4707 47.8918ZM36.4669 45.6971C36.4669 43.3735 37.4998 41.1794 39.1774 39.63C40.8556 38.0806 43.1794 37.3064 45.5023 37.6938C49.2456 38.0812 52.2147 41.3082 52.6022 44.9227C52.8602 47.3753 51.9568 49.8279 50.1496 51.5061C48.6003 52.9258 47.8261 54.9916 47.8261 57.1857V58.3475H45.8898V50.0857C47.697 49.5693 48.9878 47.891 48.9878 45.9549C48.9878 43.5023 47.0515 41.5661 44.5989 41.5661C42.1463 41.5661 40.2101 43.5023 40.2101 45.9549C40.2101 47.8911 41.5009 49.5694 43.3081 50.0857V58.3475H41.3718V57.1857C41.3718 54.9909 40.4685 52.9258 38.9192 51.3765C37.2416 49.9567 36.4666 47.8916 36.4666 45.6969L36.4669 45.6971Z" fill="#E35D14"/>
<path d="M72.2239 9.68158H61.768V6.9705C61.768 6.19616 61.2516 5.67971 60.4772 5.67971H56.4753C55.8299 2.84023 53.2483 0.645508 50.1503 0.645508H38.9202C35.8222 0.645508 33.2406 2.84023 32.7241 5.67971H28.7222C27.9478 5.67971 27.4314 6.19614 27.4314 6.9705V9.68097L16.846 9.68156C14.7809 9.68156 12.9737 11.3598 12.9737 13.5539V80.6781C12.9737 82.7432 14.6519 84.5505 16.846 84.5505H72.2238C74.2889 84.5505 76.0961 82.8723 76.0961 80.6781V13.5539C76.0967 11.3598 74.2895 9.68156 72.2238 9.68156L72.2239 9.68158ZM29.8842 8.26184H33.7566C34.5309 8.26184 35.0474 7.74541 35.0474 6.97105C35.0474 4.90594 36.7256 3.22772 38.7907 3.22772H50.0208C52.0859 3.22772 53.7642 4.90594 53.7642 6.97105C53.7642 7.74539 54.2806 8.26184 55.0549 8.26184H58.9273V13.4251H29.8844L29.8842 8.26184ZM73.5155 80.6789C73.5155 81.3243 72.9991 81.9697 72.2248 81.9697H16.847C16.2016 81.9697 15.5562 81.4533 15.5562 80.6789V13.5547C15.5562 12.9093 16.0726 12.2639 16.847 12.2639H27.3029V14.7165C27.3029 15.4908 27.8193 16.0073 28.5937 16.0073H60.477C61.2513 16.0073 61.7678 15.4908 61.7678 14.7165L61.7684 12.2633H72.2243C72.8697 12.2633 73.515 12.7797 73.515 13.5541L73.5155 80.6789Z" fill="black"/>
<path d="M93.5232 15.3613C93.5232 13.1666 91.7159 11.3594 89.5212 11.3594H83.4541C81.2594 11.3594 79.4522 13.1666 79.4522 15.3613V71.2548C79.4522 71.3838 79.5811 71.7713 79.5811 71.9002L85.2607 83.1304C85.5186 83.5178 85.9061 83.7758 86.4225 83.7758C86.939 83.7758 87.3258 83.5178 87.5844 83.1304L93.2639 71.9002C93.2639 71.7713 93.3929 71.5128 93.3929 71.2548C93.523 59.8951 93.523 100.17 93.523 15.3613H93.5232ZM82.0344 69.9647V21.6872H85.1324V69.9647H82.0344ZM87.8436 69.9647V21.6872H90.9415V69.9647H87.8436ZM82.0344 15.3613C82.0344 14.587 82.6798 13.9416 83.4541 13.9416H89.5212C90.2955 13.9416 90.9409 14.587 90.9409 15.3613V19.1047H82.0338L82.0344 15.3613ZM86.5527 79.6467L82.9382 72.5468H90.1672L86.5527 79.6467Z" fill="#E35D14"/>
</svg>
