<svg width="105" height="89" viewBox="0 0 105 89" fill="none" xmlns="http://www.w3.org/2000/svg">
<path d="M24.6438 35.857C29.5851 35.857 33.6397 31.8024 33.6397 26.8611C33.6397 21.9198 29.5851 17.8652 24.6438 17.8652C19.7025 17.8652 15.6479 21.9198 15.6479 26.8611C15.6479 31.8024 19.7019 35.857 24.6438 35.857ZM24.6438 20.3985C28.1915 20.3985 31.1057 23.3128 31.1057 26.8604C31.1057 30.4081 28.1914 33.3223 24.6438 33.3223C21.0962 33.3223 18.1819 30.408 18.1819 26.8604C18.1819 23.3126 21.0962 20.3985 24.6438 20.3985Z" fill="black"/>
<path d="M93.3171 80.7093L72.9173 42.5722L76.8454 37.5043C77.2257 37.6309 77.7321 37.7574 78.239 37.7574C78.8724 37.7574 79.5059 37.6309 80.1395 37.2505L83.5606 40.545C83.3074 41.0519 83.1803 41.5588 83.1803 42.0658C83.1803 44.3465 84.9541 46.1204 87.2348 46.1204C89.5155 46.1204 91.2894 44.3465 91.2894 42.0658C91.2894 40.2919 90.1491 38.7713 88.5018 38.2649L88.6283 28.002C90.2756 27.4951 91.416 25.975 91.416 24.2011C91.416 21.9204 89.6421 20.1466 87.3614 20.1466C85.0807 20.1466 83.3069 21.9204 83.3069 24.2011C83.3069 25.975 84.4472 27.4956 86.0945 28.002L85.9679 38.2649C85.7148 38.3915 85.461 38.5181 85.2079 38.6453L81.9134 35.4778C82.1665 34.971 82.2937 34.3375 82.2937 33.704C82.2937 31.4233 80.5198 29.6494 78.2391 29.6494C75.9584 29.6494 74.1846 31.4233 74.1846 33.704C74.1846 34.5906 74.4377 35.3512 74.9446 35.9847L71.6501 40.1659L67.2158 31.9301C66.9626 31.5498 66.7089 31.2966 66.3292 31.2966C65.9488 31.2966 65.5691 31.4232 65.1888 31.6769L56.3194 41.0531L49.2239 23.5682V20.5274C50.2377 21.0343 51.3781 21.1609 52.3913 21.1609C54.672 21.1609 56.9528 20.2743 58.9798 19.3871C62.401 17.9935 65.188 16.7266 68.1023 19.1339C68.989 19.7674 70.1293 19.2605 70.1293 18.1201L70.1299 5.95501C70.1299 5.57468 70.0033 5.19495 69.623 4.9412C65.5684 1.52008 61.5137 3.29395 57.8395 4.68804C54.672 5.95501 51.8844 7.222 49.0967 5.19494L49.0973 2.28064C49.0973 1.52058 48.5904 1.01367 47.8303 1.01367C47.0703 1.01367 46.5634 1.52057 46.5634 2.28064V23.3136L36.9334 41.8125C35.7931 39.5318 33.8926 37.6313 31.6118 36.3644C31.1049 36.1112 30.4714 36.2378 30.091 36.6175L24.6429 42.0656L19.3219 36.6175C18.9416 36.2372 18.3081 36.1106 17.8011 36.3644C13.6199 38.5186 11.0859 42.6998 11.0859 47.3872V64.9991C11.0859 65.7591 11.5928 66.266 12.3529 66.266H15.3937L14.7602 81.3438C14.7602 81.7241 14.8868 81.9772 15.1405 82.2304C15.3937 82.4836 15.6474 82.6107 16.0272 82.6107H21.0951C21.7286 82.6107 22.2355 82.2304 22.3621 81.5969L24.7694 70.7005L27.1767 81.5969C27.3033 82.2304 27.8102 82.6107 28.4437 82.6107H33.5116C33.6382 82.6107 33.7648 82.6107 33.8919 82.4841C34.0185 82.4841 34.1451 82.6107 34.2723 82.6107H92.303C92.8099 82.6107 93.1896 82.3576 93.4434 81.9772C93.4439 81.5975 93.4439 81.0906 93.3174 80.7103L93.3171 80.7093ZM87.3621 43.5847C86.4754 43.5847 85.8413 42.9512 85.8413 42.0639C85.8413 41.1773 86.4748 40.5431 87.3621 40.5431C88.2487 40.5431 88.8828 41.1766 88.8828 42.0639C88.8822 42.9511 88.1222 43.5847 87.3621 43.5847ZM87.4886 22.5517C88.3753 22.5517 89.0094 23.1852 89.0094 24.0725C89.0094 24.9591 88.3759 25.5932 87.4886 25.5932C86.602 25.5932 85.9679 24.9597 85.9679 24.0725C85.9679 23.3118 86.6014 22.5517 87.4886 22.5517ZM78.2391 32.0545C79.1257 32.0545 79.7598 32.688 79.7598 33.5753C79.7598 34.4619 79.1264 35.0961 78.2391 35.0961C77.3524 35.0961 76.7183 34.4626 76.7183 33.5753C76.7189 32.8146 77.3524 32.0545 78.2391 32.0545ZM58.9801 7.09421C62.1475 5.82724 64.9352 4.56025 67.7229 6.58731V15.8364C64.3017 14.3157 61.0077 15.7099 58.0935 16.9768C54.9261 18.2438 52.1385 19.5108 49.3508 17.4837V8.23459C52.6453 9.75476 55.9393 8.36117 58.9801 7.09421ZM29.3323 80.0757L25.9112 64.6172C25.7846 64.1103 25.2777 63.6034 24.6443 63.6034C24.0108 63.6034 23.6304 63.9837 23.5039 64.3634C23.5039 64.3634 23.5039 64.49 23.3773 64.49L20.0828 80.0755H17.2951L18.4355 50.5531C18.4355 49.7931 17.9286 49.2862 17.1685 49.2862C16.5351 49.2862 15.9016 49.7931 15.9016 50.5531L15.3947 63.7302H13.6208V47.3847C13.6208 43.9636 15.3947 40.9228 18.1823 39.0223L23.7571 44.597C24.0103 44.8502 24.264 44.9773 24.6437 44.9773C25.0241 44.9773 25.2772 44.8508 25.5304 44.597L31.1051 39.0223C33.8928 40.7961 35.6667 43.9636 35.6667 47.3847V63.7287H33.8928L33.3859 50.425C33.3859 49.665 32.7524 49.1581 32.1189 49.1581C31.3589 49.1581 30.852 49.7915 30.852 50.425C31.2323 60.9417 31.612 69.1763 31.9923 79.9473L29.3325 79.9479L29.3323 80.0757ZM71.1444 80.0757H34.5275L34.0206 66.2652H37.0614C37.8214 66.2652 38.3284 65.7583 38.3284 64.9982V47.3864C38.3284 46.4997 38.2018 45.7391 38.0752 44.979C38.2018 44.8525 38.2018 44.7259 38.3284 44.7259L47.8312 26.6078C49.352 30.4087 56.8271 48.4009 56.8271 48.4009C57.0802 49.0343 57.8409 49.2875 58.4743 49.0343C59.1078 48.7812 59.361 48.0205 59.1078 47.3871L57.3339 43.5862L65.823 34.7168L69.8776 42.4458L61.6418 53.0889C61.5152 53.0889 61.3886 53.2155 61.2614 53.2155L59.8679 54.1027C59.361 53.8496 58.7275 53.5958 58.2207 53.3427L57.9675 51.6954C57.8409 51.0619 57.334 50.6816 56.7005 50.6816H52.8997C52.2662 50.6816 51.7593 51.0619 51.6327 51.6954L51.3795 53.3427C50.7461 53.4692 50.2392 53.723 49.7323 53.9762L48.3387 52.9623C47.8319 52.582 47.1984 52.7092 46.6915 53.0889L44.0299 55.7494C43.6495 56.1297 43.523 56.8897 43.9033 57.3966L44.9171 58.7901C44.6639 59.297 44.4102 59.9305 44.157 60.4374L42.5098 60.8177C41.8763 60.9443 41.496 61.4512 41.496 62.0847V65.8856C41.496 66.519 41.8763 67.0259 42.5098 67.1525L44.157 67.4057C44.2836 68.0392 44.5374 68.5461 44.7905 69.0529L43.7767 70.4465C43.3964 70.9534 43.5236 71.5868 43.9033 72.0937L46.5637 74.7542C46.9441 75.1345 47.7041 75.261 48.211 74.8807L49.6045 73.8669C50.1114 74.1201 50.7449 74.3738 51.2518 74.627L51.5049 76.2742C51.6315 76.9077 52.1384 77.288 52.7719 77.288H56.5728C57.2062 77.288 57.7131 76.9077 57.8397 76.2742L58.0929 74.627C58.7264 74.5004 59.2333 74.2467 59.7401 73.9935L61.1337 75.0073C61.6406 75.3876 62.2741 75.2605 62.7809 74.8807L65.4414 72.2203C65.8217 71.84 65.9483 71.0799 65.5679 70.573L64.6813 69.1795C64.9345 68.6726 65.1882 68.0391 65.4414 67.5322L67.0886 67.2791C67.7221 67.1525 68.1024 66.6456 68.1024 66.0121V62.2113C68.1024 61.5778 67.7221 61.0709 67.0886 60.9443L65.4414 60.6911C65.3148 60.0577 65.061 59.5508 64.8079 59.0439L65.8217 57.6504C66.202 57.1435 66.0748 56.51 65.6951 56.0031L64.0479 54.3559L71.3965 44.853L90.2761 80.2036H71.1456L71.1444 80.0757ZM63.0351 57.0149L62.2751 58.1552C62.0219 58.5356 62.0219 59.169 62.2751 59.5488C62.782 60.3088 63.0351 61.196 63.2889 62.0827C63.4155 62.5896 63.7958 62.9694 64.3027 63.0965L65.6962 63.3497V64.9969L64.3027 65.2501C63.7958 65.3767 63.4161 65.757 63.2889 66.2639C63.0357 67.1506 62.782 67.9112 62.2751 68.7979C62.0219 69.1782 62.0219 69.8117 62.2751 70.1914L63.0351 71.3318L61.7682 72.2196L60.6278 71.4595C60.2475 71.2064 59.614 71.2064 59.2342 71.4595C58.4742 71.9664 57.587 72.2196 56.7003 72.4734C56.1934 72.5999 55.8136 72.9802 55.6865 73.4872L55.4327 74.7535H53.7855L53.5323 73.36C53.4058 72.8531 53.0254 72.4734 52.5185 72.3462C51.6319 72.093 50.7447 71.8393 49.9846 71.3324C49.6042 71.0792 48.9708 71.0792 48.591 71.3324L47.5772 72.2196L46.4368 70.9526L47.1969 69.8123C47.45 69.4319 47.45 68.7985 47.1969 68.4187C46.69 67.6587 46.3102 66.7715 46.1831 65.8848C46.0565 65.3779 45.6762 64.9981 45.1693 64.871L43.7757 64.6178V62.9705L45.1693 62.7174C45.6762 62.5908 46.0559 62.2105 46.1831 61.8308C46.4362 60.9441 46.8166 60.0569 47.1969 59.2968C47.45 58.9165 47.45 58.283 47.1969 57.9033L46.4368 56.7629L47.5772 55.6225L48.7176 56.3825C49.0979 56.6357 49.6042 56.6357 50.1111 56.3825C50.8712 55.8756 51.7584 55.6225 52.6451 55.3687C53.152 55.2422 53.5317 54.8618 53.6589 54.3549L53.9121 52.9614H55.5593L55.8125 54.3549C55.939 54.8618 56.3194 55.2416 56.8263 55.3687C57.5863 55.4953 58.347 55.8756 58.9805 56.2554L57.2066 58.5361C56.4466 58.1558 55.6859 58.0292 54.7993 58.0292C51.6319 58.0292 48.9708 60.6896 48.9708 63.8576C48.9708 67.0251 51.6313 69.6861 54.7993 69.6861C57.9667 69.6861 60.6277 67.0257 60.6277 63.8576C60.6277 62.4641 60.1208 61.1972 59.2342 60.1834L62.4016 56.1288L63.0351 57.0149ZM58.0938 63.9837C58.0938 65.7576 56.5731 67.2782 54.7993 67.2782C53.0256 67.2782 51.5049 65.7575 51.5049 63.9837C51.5049 62.21 53.0256 60.6892 54.7993 60.6892C55.0525 60.6892 55.4328 60.6892 55.686 60.8158L53.7855 63.2231C53.4052 63.73 53.4052 64.6167 54.0386 64.997C55.6859 66.264 56.8263 63.0965 57.7129 62.3366C57.84 62.8435 58.0938 63.3504 58.0938 63.9838L58.0938 63.9837Z" fill="#E35D14"/>
</svg>
