<svg width="107" height="89" viewBox="0 0 107 89" fill="none" xmlns="http://www.w3.org/2000/svg">
<path d="M81.5379 26.9417H77.2634V22.6673C77.2634 21.8903 76.7452 21.3721 75.9682 21.3721C75.1912 21.3721 74.673 21.8903 74.673 22.6673V27.7188L73.7666 28.7552V26.2942C73.7666 25.5172 73.2484 24.9989 72.4714 24.9989C71.6944 24.9989 71.1761 25.5171 71.1761 26.2942V31.3456L70.2691 32.3821C65.8652 28.3664 59.9068 25.7761 53.4309 25.7761C39.5712 25.7761 28.3018 37.0447 28.3018 50.9052C28.3018 64.7657 39.5704 76.0343 53.4309 76.0343C67.2914 76.0343 78.56 64.7657 78.56 50.9052C78.56 44.5586 76.099 38.7295 72.2134 34.1967L73.2498 33.0309H78.0419C78.8189 33.0309 79.3371 32.5127 79.3371 31.7357C79.3371 30.9587 78.8189 30.4405 78.0419 30.4405H75.7104L76.6168 29.5341H81.5388C82.3158 29.5341 82.834 29.0159 82.834 28.2388C82.8346 27.5906 82.3164 26.943 81.5394 26.943L81.5379 26.9417ZM75.9683 50.9046C75.9683 63.3391 65.8647 73.4431 53.4298 73.4431C40.9948 73.4431 30.8912 63.3395 30.8912 50.9046C30.8912 38.4696 40.9948 28.4958 53.4298 28.4958C59.2589 28.4958 64.4396 30.698 68.4553 34.3249L65.0874 37.6929C61.9788 34.9731 57.8336 33.1597 53.3004 33.1597C43.5857 33.1597 35.5554 41.061 35.5554 50.9047C35.6848 60.7477 43.7155 68.6482 53.4302 68.6482C63.1449 68.6482 71.1753 60.7469 71.1753 50.9032C71.1753 46.6287 69.6206 42.6131 67.0303 39.5045L70.3982 36.1365C73.7657 40.0234 75.9678 45.2041 75.9678 50.9032L75.9683 50.9046ZM59.7773 52.1998H61.0725C60.5543 55.4378 57.9639 58.0289 54.7259 58.5464V57.2512C54.7259 56.4742 54.2077 55.956 53.4307 55.956C52.6537 55.956 52.1355 56.4742 52.1355 57.2512V58.5464C48.8974 58.0282 46.3063 55.4378 45.7888 52.1998H47.084C47.861 52.1998 48.3793 51.6816 48.3793 50.9046C48.3793 50.1275 47.8611 49.6093 47.084 49.6093H45.7888C46.307 46.3713 48.8974 43.7802 52.1355 43.2627V44.5579C52.1355 45.3349 52.6537 45.8531 53.4307 45.8531C54.2077 45.8531 54.7259 45.3349 54.7259 44.5579V43.2627C56.0211 43.5215 57.1869 44.0397 58.2233 44.8174L52.5242 50.6465C52.006 51.1647 52.006 51.9417 52.5242 52.4599C52.783 52.7187 53.0424 52.8487 53.4307 52.8487C53.8195 52.8487 54.0783 52.7193 54.3371 52.4599L59.9067 46.7609C60.4249 47.6673 60.8131 48.5743 60.9431 49.6107H59.6479C58.8709 49.6107 58.3526 50.1289 58.3526 50.9059C58.482 51.6823 59.1296 52.2 59.7773 52.2L59.7773 52.1998ZM60.0367 43.0033C58.6121 41.7081 56.6687 40.9311 54.7259 40.6718V39.2471C54.7259 38.4701 54.2077 37.9519 53.4306 37.9519C52.6536 37.9519 52.1354 38.4701 52.1354 39.2471V40.6718C47.4722 41.3194 43.716 44.9462 43.1977 49.6095H41.7731C40.9961 49.6095 40.4779 50.1277 40.4779 50.9047C40.4779 51.6817 40.9961 52.1999 41.7731 52.1999H43.1977C43.8453 56.8632 47.4722 60.6193 52.1354 61.1376V62.5622C52.1354 63.3392 52.6536 63.8574 53.4306 63.8574C54.2077 63.8574 54.7259 63.3392 54.7259 62.5622V61.1376C59.3891 60.49 63.1453 56.8632 63.6636 52.1999H65.0882C65.8652 52.1999 66.3834 51.6817 66.3834 50.9047C66.3834 50.1277 65.8652 49.6095 65.0882 49.6095H63.6636C63.4048 47.796 62.7571 46.2415 61.8501 44.8167L65.2181 41.3193C67.2903 43.9098 68.586 47.2778 68.586 50.7747C68.5854 59.3242 61.7205 66.0589 53.4305 66.0589C45.1406 66.0589 38.2757 59.3234 38.2757 50.904C38.2757 42.6139 45.0111 35.7491 53.4305 35.7491C57.1867 35.7491 60.6843 37.1737 63.404 39.5053L60.0367 43.0033Z" fill="#E35D14"/>
<path d="M82.1853 11.7872H70.6572V8.41974C70.6572 7.64274 70.139 7.12452 69.3619 7.12452H62.8853V4.53406C62.8853 2.46187 61.2013 0.648438 58.9996 0.648438H47.8603C45.7881 0.648438 43.9746 2.33242 43.9746 4.53406V7.12452H37.498C36.7209 7.12452 36.2027 7.64272 36.2027 8.41974V11.7877H24.6746C22.0841 11.7877 19.8818 13.99 19.8818 16.5804V80.0498C19.8818 82.6403 22.0841 84.8425 24.6746 84.8425H82.0559C84.6464 84.8425 86.8486 82.6403 86.8486 80.0498V16.5804C86.9781 13.9893 84.7758 11.7872 82.1854 11.7872H82.1853ZM38.7936 9.71505H45.2703C46.0473 9.71505 46.5655 9.19685 46.5655 8.41983V4.53421C46.5655 3.8866 47.0837 3.23899 47.8608 3.23899H59.0001C59.6477 3.23899 60.2953 3.75719 60.2953 4.53421V8.41983C60.2953 9.19683 60.8135 9.71505 61.5905 9.71505H68.0673V16.4505H38.7934L38.7936 9.71505ZM84.3882 80.0495C84.3882 81.2153 83.3518 82.2517 82.186 82.2517H24.6748C23.509 82.2517 22.4726 81.2153 22.4726 80.0495V16.5801C22.4726 15.4143 23.509 14.3779 24.6748 14.3779H36.203V17.7458C36.203 18.5228 36.7212 19.041 37.4982 19.041H69.3627C70.1397 19.041 70.6579 18.5228 70.6579 17.7458V14.3779H82.1861C83.3519 14.3779 84.3883 15.4143 84.3883 16.5801L84.3882 80.0495Z" fill="black"/>
<path d="M53.4304 5.8291C50.8399 5.8291 48.7671 7.90129 48.7671 10.4924C48.7671 13.0828 50.8393 15.1556 53.4304 15.1556C56.0208 15.1556 58.0936 13.0834 58.0936 10.4924C58.0936 7.90129 56.0208 5.8291 53.4304 5.8291ZM53.4304 12.694C52.2646 12.694 51.3582 11.7876 51.3582 10.6218C51.3582 9.45604 52.2646 8.54963 53.4304 8.54963C54.5961 8.54963 55.5026 9.45604 55.5026 10.6218C55.5026 11.6576 54.5961 12.694 53.4304 12.694Z" fill="black"/>
</svg>
