<svg width="128" height="48" viewBox="0 0 128 48" fill="none" xmlns="http://www.w3.org/2000/svg">
<g clip-path="url(#clip0_412_6649)">
<path d="M22.1987 15.0091C22.2632 18.8817 22.3202 22.755 22.3979 26.6269C22.4202 27.7346 22.4957 28.8482 22.5549 29.9582C22.5823 30.4751 22.6933 30.5637 23.1975 30.5586C24.012 30.5492 24.8265 30.544 25.6409 30.543C26.094 30.543 26.2503 30.6908 26.2118 31.128C26.0511 32.9188 25.8786 34.7088 25.7098 36.4989C25.7098 36.5559 25.6976 36.6122 25.6741 36.6642C25.6506 36.7161 25.6163 36.7625 25.5735 36.8002C25.5308 36.838 25.4805 36.8662 25.426 36.8832C25.3715 36.9001 25.314 36.9053 25.2573 36.8985C24.6561 36.8985 24.055 36.9044 23.4545 36.8985C23.0621 36.8925 22.9628 36.7618 22.9628 36.3616C22.9628 35.6231 22.9553 34.8864 22.94 34.1513C22.9318 33.7378 22.8067 33.624 22.3476 33.6034C21.2585 33.5546 20.1693 33.4808 19.0794 33.4749C15.7841 33.4571 12.4889 33.4571 9.19363 33.4749C8.14226 33.48 7.09088 33.5612 6.03951 33.6041C5.96401 33.5982 5.88812 33.6077 5.81645 33.6321C5.74477 33.6565 5.67883 33.6952 5.62267 33.7459C5.56651 33.7964 5.52129 33.8578 5.48972 33.9264C5.45815 33.995 5.44086 34.0692 5.43901 34.1446C5.34498 34.9001 5.2325 35.6534 5.15106 36.4103C5.11478 36.7485 4.96366 36.9066 4.62604 36.9066C4.03371 36.9029 3.44807 36.9066 2.85945 36.9066C2.53811 36.9066 2.3412 36.7825 2.3412 36.4177C2.33454 34.669 2.31825 32.9203 2.3027 31.1745C2.29752 30.6575 2.38638 30.563 2.90762 30.5571H2.94612C4.27514 30.631 4.10188 30.5076 4.41951 29.3873C5.12734 26.8883 5.82181 24.3841 6.54148 21.8888C7.04693 20.1366 7.57115 18.3888 8.11411 16.6455C8.64177 14.9519 9.18919 13.2648 9.75634 11.584C10.6781 8.86338 11.6451 6.15759 12.5558 3.43332C12.9667 2.20374 12.9319 2.35513 14.0603 2.35439C16.6917 2.35439 19.3233 2.34969 21.9552 2.34033C22.3461 2.34033 22.4779 2.49985 22.4646 2.9518C22.4187 4.57646 22.3453 6.20117 22.3298 7.8214C22.3068 10.22 22.3239 12.6215 22.3239 15.0187L22.1987 15.0091ZM19.3201 17.9726H19.2557V16.6241C19.2433 13.0769 19.2305 9.52973 19.2172 5.98254C19.2172 5.49071 19.0691 5.30536 18.6249 5.30536C17.3973 5.30536 16.1704 5.31866 14.9429 5.32235C14.8107 5.31294 14.6795 5.35136 14.5735 5.43057C14.4674 5.50978 14.3935 5.62447 14.3653 5.75361C13.9152 7.14418 13.4465 8.52886 13.0037 9.92016C12.2816 12.1799 11.5659 14.4421 10.8565 16.7068C10.2028 18.8174 9.54608 20.928 8.94192 23.0526C8.30221 25.2976 7.72094 27.5574 7.11604 29.8127C6.94574 30.4478 7.03682 30.5593 7.7017 30.5593C11.347 30.5593 14.9922 30.5593 18.6375 30.5593C19.4119 30.5593 19.48 30.5091 19.4563 29.7374C19.4119 28.2272 19.3372 26.717 19.3231 25.206C19.2994 22.7971 19.3157 20.3867 19.3157 17.9756L19.3201 17.9726Z" fill="white"/>
<path d="M114.391 37.9809C110.977 38.045 107.579 37.5031 104.355 36.3807C102.976 35.8902 101.633 35.3054 100.335 34.6305C99.6864 34.2931 99.1308 33.8022 98.7168 33.2008C98.3028 32.5994 98.0431 31.9058 97.9604 31.181C97.7921 29.5897 97.8026 27.9846 97.9915 26.3956C98.1712 23.1639 98.586 19.9494 99.2324 16.7776C99.3353 16.2874 99.5349 15.8224 99.8197 15.4099C100.104 14.9973 100.469 14.6454 100.891 14.3746C100.973 14.317 101.061 14.2675 101.139 14.2047C101.439 13.9588 101.413 13.7358 101.049 13.6014C100.027 13.2149 99.1016 12.61 98.3388 11.829C97.9967 11.4878 98.0271 11.3217 98.4765 11.1415C98.7504 11.0329 98.7867 10.8741 98.5557 10.6304C97.9768 9.96856 97.5734 9.17267 97.3822 8.31532C97.3081 8.05464 97.203 7.76069 97.4562 7.54358C97.7242 7.3176 97.9797 7.53327 98.2247 7.63075C98.8282 7.87297 99.4094 8.18091 100.029 8.36405C100.464 8.47381 100.915 8.50705 101.362 8.46226C101.732 8.43716 101.83 8.19493 101.648 7.8759C100.931 6.46908 99.9387 5.21945 98.7304 4.20047C98.3226 3.87183 97.8845 3.58227 97.4221 3.33569C97.3051 3.31222 97.1845 3.31325 97.0679 3.33867C96.9513 3.36409 96.8412 3.41337 96.7447 3.4834C95.6996 4.20591 94.4887 4.65372 93.2241 4.78535C92.9804 4.81357 92.7336 4.77888 92.5072 4.68461C92.2808 4.59034 92.0825 4.43965 91.9313 4.24699C91.8699 4.19586 91.8214 4.13109 91.7896 4.05786C91.7578 3.98463 91.7437 3.90498 91.7484 3.82533C91.7531 3.74578 91.7764 3.6684 91.8163 3.59942C91.8563 3.53044 91.9119 3.47174 91.9787 3.428C92.4503 3.08387 92.9694 2.80844 93.4654 2.49827C93.6046 2.41113 93.7335 2.30478 93.8645 2.20656C93.7602 2.07781 93.6383 1.96424 93.5024 1.86909C92.9901 1.60767 92.8827 1.37946 93.1278 0.850702C93.2221 0.608539 93.3747 0.393225 93.5721 0.22373C93.6678 0.165892 93.7745 0.128391 93.8855 0.113525C93.9964 0.0986587 94.1093 0.106743 94.217 0.137324C94.5353 0.252643 94.8334 0.417393 95.1002 0.62547C95.3781 0.829689 95.6972 0.971261 96.0353 1.04037C96.3734 1.10948 96.7226 1.10447 97.0586 1.02572C97.9516 0.840365 98.8536 0.701324 99.7611 0.609198C100.399 0.540857 101.041 0.696497 101.576 1.04925C102.111 1.402 102.506 1.9298 102.693 2.54181C102.802 2.75049 102.935 2.94623 103.088 3.12525C103.176 2.91699 103.253 2.70281 103.356 2.5012C103.48 2.20527 103.638 1.92475 103.827 1.66527C104.436 1.00897 105.237 0.561099 106.117 0.385453C107.721 0.026113 109.372 -0.0849615 111.01 0.0561013C113.338 0.183974 115.648 0.54796 117.902 1.14242C119.588 1.53056 121.222 2.11577 122.771 2.88595C123.615 3.30411 124.352 3.90817 124.928 4.65243C125.406 5.33764 125.603 6.17892 125.48 7.0045C125.352 8.36732 124.864 9.67185 124.066 10.7855C123.915 10.9852 123.745 11.1695 123.558 11.3357C123.501 11.3768 123.455 11.4302 123.422 11.4917C123.39 11.5532 123.371 11.6213 123.369 11.6909C123.366 11.7608 123.379 11.8303 123.408 11.8942C123.436 11.9582 123.478 12.015 123.532 12.0602C124.151 12.8587 125.034 13.4132 126.024 13.6257C126.518 13.7129 127.009 13.8104 127.5 13.913C128.024 14.0223 128.126 14.2513 127.839 14.704C127.391 15.4391 126.685 15.9811 125.857 16.2237C125.295 16.3884 124.708 16.4777 124.14 16.6269C123.965 16.6619 123.811 16.762 123.707 16.9068C123.665 16.9962 123.807 17.2222 123.921 17.33C124.35 17.7001 124.683 18.1679 124.891 18.6937C125.1 19.2196 125.178 19.7879 125.12 20.3504C124.934 22.1892 124.766 24.0295 124.545 25.8639C124.255 28.2825 123.91 30.6936 123.612 33.1114C123.524 33.9955 123.178 34.8342 122.615 35.5232C122.053 36.2122 121.3 36.721 120.449 36.9862C118.501 37.6582 116.453 37.9946 114.391 37.9809ZM117.911 35.6304L117.931 35.5019C118.153 35.5019 118.383 35.5166 118.607 35.5019C119.112 35.504 119.609 35.3744 120.048 35.1258C120.487 34.8772 120.854 34.5182 121.111 34.0847C121.397 33.5586 121.601 32.9917 121.715 32.4039C121.975 31.0946 122.188 29.7734 122.366 28.4493C122.696 25.9621 122.983 23.4683 123.293 20.9781C123.368 20.5641 123.342 20.1381 123.217 19.7365C123.091 19.3348 122.87 18.9693 122.573 18.6711C122.236 18.338 121.864 18.0411 121.513 17.7228C121.389 17.6061 121.232 17.5303 121.064 17.5056C120.895 17.4809 120.723 17.5085 120.571 17.5847C120.012 17.8063 119.451 18.0212 118.886 18.2191C117.981 18.5655 117.008 18.7002 116.043 18.6128C115.078 18.5253 114.145 18.2181 113.318 17.7147C112.858 17.443 112.834 17.3794 113.055 16.8824C113.21 16.5317 113.143 16.3781 112.765 16.353C112.328 16.3196 111.889 16.3196 111.453 16.353C110.392 16.4438 109.336 16.5863 108.274 16.6712C107.519 16.7682 106.752 16.7077 106.022 16.4933C105.292 16.279 104.614 15.9156 104.032 15.4262C103.942 15.336 103.824 15.2794 103.697 15.2659C103.57 15.2525 103.442 15.283 103.335 15.3523C102.914 15.5967 102.51 15.8681 102.124 16.1646C101.553 16.6254 101.177 17.285 101.072 18.0109C100.561 21.1044 100.11 24.2082 99.8988 27.3379C99.828 28.2326 99.8596 29.1325 99.9928 30.0201C100.047 30.7014 100.312 31.3492 100.751 31.874C101.19 32.3988 101.781 32.7746 102.444 32.9497C103.394 33.2112 104.368 33.3825 105.351 33.4614C108.264 33.6575 111.153 34.1253 113.978 34.8587C115.27 35.1888 116.6 35.377 117.913 35.6311L117.911 35.6304ZM117.298 8.57157C117.874 8.57157 118.453 8.60259 119.026 8.56566C120.422 8.55708 121.8 8.24668 123.064 7.65585C124.383 6.9506 124.873 5.77937 123.609 4.5941C123.163 4.15732 122.646 3.79767 122.081 3.52992C120.784 2.94185 119.456 2.42417 118.103 1.97912C115.039 1.00774 111.829 0.576629 108.616 0.705205C107.637 0.704628 106.666 0.89269 105.758 1.25907C105.535 1.33011 105.329 1.44504 105.152 1.59694C104.975 1.74884 104.831 1.93465 104.727 2.14337C104.624 2.35208 104.563 2.57942 104.549 2.8119C104.536 3.04438 104.569 3.27725 104.647 3.4967C104.878 4.25596 105.342 4.92388 105.973 5.40642C107.013 6.23697 108.203 6.86161 109.479 7.24672C111.999 8.09627 114.638 8.54363 117.297 8.57229L117.298 8.57157ZM114.088 37.2794C115.904 37.2801 117.715 37.078 119.487 36.6768C120.405 36.4767 121.237 35.9975 121.87 35.3053C122.503 34.6131 122.905 33.7421 123.021 32.8123C123.187 31.2231 123.472 29.6464 123.663 28.0587C123.969 25.4917 124.251 22.9218 124.524 20.3504C124.546 20.0401 124.514 19.7283 124.427 19.4295C124.167 18.6283 123.69 17.9145 123.048 17.3669C122.94 17.2449 122.799 17.1576 122.641 17.1158C122.467 17.1231 122.296 17.1603 122.135 17.2259C122.159 17.3735 122.209 17.5157 122.283 17.646C122.597 18.0153 122.963 18.3476 123.26 18.7309C123.605 19.1021 123.802 19.5855 123.817 20.0912C123.79 20.7278 123.786 21.368 123.707 21.9987C123.411 24.3781 123.104 26.7567 122.762 29.1302C122.553 30.5873 122.314 32.0428 122.007 33.4813C121.896 34.0249 121.639 34.5284 121.265 34.9393C120.892 35.3501 120.414 35.6531 119.882 35.8165C119.07 36.1289 118.193 36.234 117.329 36.1222C115.883 35.9007 114.428 35.6872 113.011 35.3386C110.813 34.7307 108.554 34.3654 106.277 34.2494C105.101 34.2118 103.931 34.0704 102.78 33.827C102.063 33.7044 101.394 33.3887 100.845 32.9139C100.296 32.4392 99.8869 31.8236 99.6633 31.1337C99.3008 30.0656 99.1666 28.9336 99.2694 27.8106C99.3435 26.8269 99.4227 25.841 99.5545 24.8647C99.8884 22.4277 100.251 19.9907 100.609 17.5596C100.694 16.8926 101.027 16.2819 101.543 15.8493C102.021 15.452 102.567 15.1367 103.075 14.7711C103.187 14.6677 103.284 14.5509 103.367 14.4233C103.237 14.3242 103.093 14.2432 102.941 14.1825C102.77 14.1368 102.591 14.1314 102.418 14.1667C102.245 14.2019 102.082 14.2769 101.943 14.3856C101.545 14.6884 101.145 14.9905 100.772 15.322C100.321 15.7269 100.028 16.2782 99.9462 16.878C99.5871 19.1481 99.1947 21.413 98.8793 23.6883C98.5689 25.7027 98.4359 27.7404 98.4817 29.7779C98.4618 30.7409 98.7235 31.6889 99.2347 32.5061C99.7458 33.3233 100.484 33.9745 101.36 34.3801C103.325 35.3251 105.394 36.0366 107.526 36.5003C109.678 36.9906 111.877 37.2513 114.085 37.2779L114.088 37.2794ZM117.938 11.6082C118.571 11.5646 119.211 11.5425 119.844 11.4716C121.065 11.4129 122.241 10.994 123.222 10.2679C123.935 9.6909 124.449 8.90629 124.693 8.02361C124.704 7.89506 124.691 7.76561 124.655 7.64179C124.53 7.67103 124.409 7.7139 124.294 7.76958C123.993 8.01199 123.667 8.2212 123.321 8.39357C122.445 8.72365 121.543 8.98057 120.625 9.16162C117.838 9.54837 115.004 9.42041 112.264 8.78422C110.65 8.47996 109.082 7.97044 107.599 7.26813C106.106 6.53777 104.711 5.68849 104.038 4.05349C104.016 4.01177 103.984 3.97603 103.946 3.94937C103.907 3.92271 103.862 3.90597 103.816 3.90065C103.772 3.91805 103.732 3.94569 103.701 3.98128C103.67 4.01687 103.648 4.05936 103.637 4.10519C103.578 4.42274 103.541 4.74549 103.506 5.06525C103.394 5.70721 103.49 6.36801 103.779 6.95212C104.069 7.53623 104.537 8.01335 105.116 8.31456C106.093 8.8737 107.109 9.36234 108.157 9.77674C111.292 10.9238 114.598 11.5433 117.937 11.6097L117.938 11.6082ZM114.408 13.642C114.411 13.5028 114.362 13.3674 114.27 13.2629C114.177 13.1583 114.049 13.0922 113.91 13.0778C113.034 12.8769 112.156 12.68 111.278 12.487C110.093 12.2256 108.909 11.9745 107.73 11.7035C107.596 11.6503 107.447 11.6474 107.311 11.6952C107.175 11.7429 107.061 11.8382 106.99 11.9634C106.39 12.9625 105.585 13.8231 104.627 14.4883C104.27 14.7172 104.302 14.9447 104.677 15.2098C105.471 15.8113 106.449 16.1223 107.446 16.0908C108.257 16.0524 109.068 15.9837 109.875 15.898C111.01 15.6992 112.167 15.6607 113.312 15.7836C113.417 15.7743 113.518 15.7392 113.606 15.6813C113.694 15.6235 113.767 15.5446 113.817 15.452C114.049 14.8612 114.215 14.249 114.405 13.6442L114.408 13.642ZM116.455 18.0146C117.474 17.9896 118.48 17.7784 119.423 17.3913C120.446 17.022 121.473 16.6653 122.494 16.2924C122.622 16.2451 122.803 16.1514 122.824 16.0509C122.82 15.9803 122.799 15.9115 122.765 15.8497C122.73 15.7878 122.683 15.7345 122.625 15.6935C122.045 15.2517 121.585 14.6734 121.285 14.0105C120.946 13.3141 120.899 13.3141 120.121 13.4492C118.634 13.7551 117.101 13.7659 115.61 13.481C115.176 13.3858 115.047 13.5408 114.89 14.0186C114.581 14.9631 114.231 15.8944 113.872 16.8248C113.742 17.1594 113.766 17.33 114.108 17.4792C114.838 17.8366 115.641 18.021 116.454 18.0183L116.455 18.0146ZM104.178 13.8709C104.424 13.7747 104.656 13.645 104.867 13.4854C105.39 12.953 105.877 12.3858 106.372 11.8268C106.668 11.4967 106.594 11.3276 106.204 11.1186C105.492 10.7365 104.793 10.3316 104.107 9.9038C103.821 9.72435 103.588 9.71253 103.375 9.95402C102.933 10.4409 102.395 10.8315 101.794 11.1013C101.194 11.3711 100.544 11.5143 99.8855 11.5218C99.7249 11.5591 99.5714 11.622 99.4309 11.7079C99.5301 11.8556 99.5982 12.0513 99.7351 12.1325C100.195 12.4351 100.682 12.6938 101.19 12.905C102.16 13.2624 103.158 13.546 104.176 13.8695L104.178 13.8709ZM124.374 15.9711C125.267 15.9084 126.111 15.5377 126.76 14.9225C127.032 14.6759 126.956 14.4543 126.602 14.3642C126.528 14.3458 126.454 14.3428 126.38 14.3258C125.172 14.1456 124.054 13.5816 123.193 12.7174C123.068 12.5826 122.896 12.4997 122.713 12.4855C122.564 12.4874 122.418 12.5256 122.287 12.5968C122.156 12.6679 122.045 12.77 121.963 12.8939C121.881 13.0178 121.83 13.16 121.816 13.3079C121.801 13.4558 121.823 13.605 121.88 13.7424C122.173 14.408 122.635 14.9857 123.22 15.4188C123.365 15.5833 123.542 15.7172 123.74 15.8125C123.938 15.9079 124.153 15.9628 124.372 15.9741L124.374 15.9711ZM101.846 7.10199L102.047 6.97051C101.972 6.70419 101.876 6.44437 101.759 6.19362C101.393 5.5445 101.018 4.89317 100.606 4.27358C99.9162 3.21903 98.8826 2.43436 97.6798 2.05223C96.5234 1.76638 95.405 1.34496 94.348 0.796794C94.2612 0.770918 94.1691 0.767859 94.0808 0.787915C93.9924 0.80797 93.9108 0.85048 93.8438 0.911281C93.814 1.00281 93.8061 1.09998 93.8206 1.19511C93.8351 1.29024 93.8717 1.38066 93.9274 1.45919C94.0798 1.58698 94.266 1.66806 94.4635 1.69258C95.7782 2.01614 97.0323 2.54796 98.1781 3.26777C99.5135 4.11836 100.638 5.25987 101.468 6.60645C101.585 6.77855 101.71 6.94442 101.845 7.10343L101.846 7.10199ZM99.9876 11.0292C100.97 10.9759 101.904 10.5844 102.63 9.92152C102.784 9.75392 102.919 9.57019 103.033 9.37356C102.829 9.28549 102.614 9.22608 102.394 9.19705C101.078 9.2626 99.7657 8.99751 98.5787 8.42607C98.4436 8.39 98.3029 8.37999 98.164 8.39655C98.1396 8.53753 98.1396 8.68164 98.164 8.82263C98.4233 9.58183 98.8807 10.2584 99.4893 10.7826C99.6432 10.8882 99.8115 10.971 99.9891 11.0285L99.9876 11.0292ZM114.574 12.0668V11.9302C114.447 11.9021 114.322 11.8689 114.194 11.8467C113.122 11.6606 112.043 11.5151 110.982 11.284C108.925 10.8917 106.95 10.1532 105.142 9.10032C104.931 9.00611 104.709 8.93958 104.481 8.90241C104.581 9.11517 104.709 9.31381 104.862 9.49319C105.672 10.1653 106.613 10.6631 107.625 10.9554C109.611 11.6094 111.672 12.009 113.758 12.1444C114.031 12.1432 114.304 12.1184 114.573 12.0705L114.574 12.0668ZM102.707 6.31402C102.748 6.19661 102.774 6.07491 102.786 5.9514C102.706 5.23359 102.643 4.51213 102.521 3.80171C102.442 3.44822 102.322 3.10532 102.161 2.78034C101.976 2.24279 101.617 1.7818 101.141 1.4697C100.665 1.1576 100.098 1.01209 99.5301 1.05601C99.0098 1.09983 98.4933 1.18129 97.9849 1.29972C97.9049 1.31523 97.816 1.44741 97.7931 1.53677C97.7835 1.5796 97.9175 1.7044 97.9952 1.71179C98.3582 1.77982 98.7285 1.80065 99.0969 1.77381C99.3568 1.69676 99.6294 1.672 99.8989 1.70101C100.168 1.73003 100.429 1.81222 100.667 1.94279C100.904 2.07336 101.113 2.24971 101.281 2.46158C101.45 2.67346 101.574 2.91665 101.648 3.17695C101.855 3.79043 102.02 4.41707 102.143 5.05268C102.215 5.51527 102.409 5.95049 102.705 6.31402H102.707ZM93.2048 4.15765C94.2244 4.0212 95.2077 3.6889 96.1005 3.17915C96.3626 3.04106 96.279 2.835 96.065 2.72053C95.8881 2.60149 95.6852 2.52656 95.4732 2.50201C95.2613 2.47747 95.0465 2.50405 94.847 2.5795C94.2883 2.82566 93.7317 3.07749 93.1774 3.33497C93.0491 3.38451 92.9305 3.45625 92.8272 3.54691C92.7421 3.63331 92.6429 3.78396 92.6658 3.87775C92.6888 3.97154 92.8428 4.05796 92.9553 4.11925C93.0347 4.147 93.1184 4.16046 93.2026 4.1591L93.2048 4.15765ZM121.823 12.0402L121.753 11.8571C121.457 11.8859 121.156 11.9095 120.858 11.9435C119.525 12.0963 118.193 12.2425 116.867 12.4153C116.706 12.436 116.564 12.6014 116.413 12.6997C116.575 12.7883 116.736 12.8784 116.899 12.9648C116.923 12.971 116.949 12.971 116.973 12.9648C117.822 12.8998 118.676 12.8629 119.518 12.7602C120.101 12.6798 120.677 12.5584 121.243 12.3969C121.452 12.3066 121.646 12.1864 121.82 12.0402H121.823ZM101.594 4.77575L101.709 4.74767C101.716 4.63519 101.705 4.52236 101.677 4.41313C101.527 3.99295 101.333 3.58935 101.1 3.20868C100.827 2.86165 100.508 2.55336 100.151 2.29224C100.054 2.21839 99.8396 2.28484 99.6781 2.28706C99.7271 2.42912 99.7922 2.56515 99.8721 2.6925C100.279 3.20943 100.701 3.70937 101.119 4.21449C101.272 4.4065 101.434 4.59112 101.594 4.77796L101.594 4.77575ZM102.487 8.32046C102.626 8.48235 102.782 8.6287 102.953 8.75691C103.088 8.8002 103.231 8.81629 103.372 8.80419C103.36 8.61883 103.351 8.43494 103.336 8.24884C103.334 8.21113 103.319 8.17527 103.294 8.14693C103.165 8.02213 103.03 7.90322 102.897 7.78211L102.487 8.32046Z" fill="white"/>
<path d="M91.1391 33.774H89.6731C89.3666 33.774 89.237 33.6078 89.1756 33.3235C88.7313 31.2875 88.2997 29.25 87.828 27.2214C87.5822 26.1639 87.2638 25.1241 86.9817 24.0755C86.867 23.6516 86.7522 23.5681 86.2413 23.5681L77.2588 23.5748C76.9582 23.5748 76.6576 23.5681 76.357 23.5748C76.2303 23.5675 76.1053 23.6073 76.0063 23.6866C75.9073 23.7658 75.8412 23.8788 75.8209 24.0038C75.2827 26.1218 74.7222 28.2346 74.2076 30.3548C73.967 31.348 73.8093 32.362 73.6197 33.3671C73.6159 33.4266 73.6002 33.4848 73.5733 33.538C73.5465 33.5913 73.5091 33.6387 73.4635 33.6772C73.4177 33.7155 73.3647 33.7442 73.3076 33.7616C73.2505 33.779 73.1904 33.7847 73.1311 33.7784C72.2167 33.7725 71.3015 33.7747 70.3879 33.7644C69.9792 33.7599 69.8444 33.582 69.9614 33.1869C70.3316 31.9418 70.7018 30.6967 71.0898 29.4583C71.6502 27.6859 72.2263 25.9136 72.8046 24.1478C73.2777 22.6997 73.7671 21.2567 74.2432 19.8092C74.66 18.5405 75.0635 17.2674 75.4796 15.9986C76.0357 14.3001 76.6176 12.6142 77.1537 10.9112C77.7349 9.06503 78.285 7.20922 78.8285 5.3512C79.0839 4.47757 79.2934 3.59065 79.5178 2.7089C79.5333 2.60185 79.5886 2.50452 79.6727 2.43616C79.7567 2.36779 79.8634 2.33336 79.9717 2.33965C81.137 2.33375 82.3017 2.33004 83.4671 2.33447C83.7381 2.33447 83.881 2.48732 83.952 2.76204C84.3963 4.46498 84.8324 6.16944 85.3107 7.86278C85.7164 9.30357 86.1606 10.734 86.6093 12.1622C87.272 14.2706 87.9554 16.3716 88.6255 18.4792C89.0593 19.8469 89.4905 21.216 89.919 22.5867C90.4824 24.3864 91.0518 26.1838 91.6041 27.9872C91.9217 29.0262 92.2142 30.0734 92.5052 31.1191C92.6888 31.7838 92.8472 32.4484 93.0197 33.113C93.1486 33.6093 93.0368 33.7651 92.5311 33.7695C92.0676 33.7732 91.6041 33.7695 91.1406 33.7695L91.1391 33.774ZM81.328 20.5049V20.499H85.3484C85.8186 20.499 85.9511 20.3277 85.8349 19.8654C85.8105 19.7686 85.7742 19.6741 85.7446 19.5795C85.29 18.1026 84.8356 16.6236 84.3815 15.1427C83.9372 13.6872 83.4738 12.2353 83.0525 10.7731C82.5971 9.19056 82.1839 7.59766 81.739 6.00918C81.6669 5.8383 81.5734 5.67726 81.4606 5.52991C81.3399 5.68647 81.2162 5.8408 81.1007 6.00179C81.0741 6.04019 81.0807 6.09854 81.0682 6.14949C80.8682 6.90939 80.6883 7.67519 80.4625 8.42697C80.0183 9.92018 79.5437 11.406 79.0802 12.8956C78.6841 14.1709 78.2924 15.447 77.8904 16.7209C77.5601 17.7688 77.2121 18.8101 76.8819 19.858C76.739 20.3114 76.8908 20.5093 77.3447 20.5071H81.3273L81.328 20.5049Z" fill="white"/>
<path d="M40.4941 2.34018C41.0457 2.34018 41.5965 2.34461 42.1481 2.34018C42.2799 2.32672 42.4116 2.36572 42.5147 2.44872C42.6177 2.53171 42.6837 2.65195 42.6982 2.78325C43.1499 4.50983 43.5926 6.23936 44.0872 7.95264C44.6233 9.81288 45.206 11.6599 45.785 13.5068C46.4358 15.5805 47.1088 17.6468 47.7641 19.7189C48.4452 21.8738 49.1279 24.0294 49.7876 26.1917C50.371 28.1014 50.9278 30.02 51.4905 31.9372C51.6164 32.3684 51.7201 32.8071 51.8193 33.245C51.8933 33.5803 51.7697 33.762 51.4202 33.762C50.4184 33.7752 49.4159 33.7671 48.4134 33.762C48.3537 33.7661 48.2938 33.7579 48.2373 33.738C48.1809 33.718 48.1292 33.6867 48.0854 33.646C48.0417 33.6053 48.0068 33.556 47.983 33.5012C47.9592 33.4465 47.9469 33.3874 47.9469 33.3277C47.4964 30.7195 46.8954 28.1394 46.1471 25.6002C46.0093 25.0944 45.8627 24.5907 45.7406 24.0804C45.7319 24.0028 45.7079 23.9276 45.67 23.8593C45.632 23.7909 45.5809 23.7307 45.5194 23.6823C45.458 23.6338 45.3876 23.5979 45.3122 23.5767C45.2367 23.5556 45.1579 23.5496 45.0801 23.5591C41.7848 23.5645 38.4895 23.5645 35.1943 23.5591C35.0438 23.5421 34.8926 23.5844 34.773 23.6772C34.6535 23.7699 34.5751 23.9057 34.5545 24.0553C33.8546 26.9423 33.1527 29.8288 32.4488 32.7148C32.4155 32.9117 32.3942 33.1105 32.3852 33.31C32.3873 33.3731 32.376 33.4358 32.3519 33.4942C32.3277 33.5525 32.2914 33.605 32.2453 33.6482C32.1994 33.6916 32.1447 33.7247 32.0849 33.7454C32.0252 33.766 31.9617 33.7737 31.8987 33.7679C30.9718 33.7679 30.0477 33.7723 29.117 33.7679C28.7342 33.7679 28.6136 33.5766 28.7343 33.1571C28.9453 32.4127 29.16 31.6676 29.3932 30.9313C30.0749 28.7759 30.7625 26.6223 31.456 24.4703C32.2482 22.0237 33.0553 19.5816 33.8556 17.1372C34.656 14.6928 35.4697 12.2529 36.2508 9.80404C36.7247 8.31747 37.1593 6.8176 37.5909 5.31774C37.8397 4.45592 38.0508 3.58306 38.2744 2.71461C38.2999 2.59701 38.3688 2.49327 38.4674 2.42393C38.566 2.35458 38.6871 2.32468 38.8067 2.34018H40.4978H40.4941ZM40.1076 20.498C41.4349 20.498 42.7624 20.498 44.0902 20.498C44.5685 20.498 44.7269 20.2854 44.5878 19.829C44.1502 18.4103 43.6993 16.9939 43.2669 15.5753C42.7138 13.7734 42.1503 11.9745 41.6261 10.1644C41.213 8.73917 40.8561 7.29764 40.4622 5.86646C40.4274 5.74018 40.2994 5.63974 40.2142 5.52823C40.1061 5.63309 39.9921 5.73278 39.8936 5.84577C39.8551 5.88787 39.8618 5.9639 39.844 6.02372C39.3813 7.66611 38.9355 9.31738 38.4483 10.9539C38.0463 12.3046 37.5917 13.6405 37.1652 14.9838C36.6588 16.5767 36.1605 18.1726 35.6526 19.7647C35.4823 20.2972 35.6141 20.4951 36.1664 20.4951L40.1076 20.498Z" fill="white"/>
<path d="M67.1553 16.6196C67.2412 21.913 67.2989 25.7975 67.3715 29.6812C67.3922 30.8177 67.4574 31.9528 67.5003 33.0885C67.521 33.6387 67.3856 33.779 66.8273 33.779C66.0758 33.779 65.3243 33.779 64.572 33.7724C64.0915 33.768 63.9701 33.6357 63.9797 33.1646C64.0715 28.8942 64.1633 24.6235 64.2551 20.3526C64.267 19.8283 64.073 19.6621 63.5658 19.7965C61.3765 20.3529 59.1128 20.5603 56.8585 20.411C55.1472 20.3906 53.5032 19.7429 52.2399 18.5914C51.4297 17.7655 50.8626 16.7334 50.6006 15.6079C50.2366 14.2676 50.0347 12.8886 49.9994 11.5004C49.8965 8.62992 49.8388 5.75796 49.7647 2.88673C49.7529 2.43478 49.8662 2.33363 50.3089 2.33363C51.0974 2.33363 51.8867 2.32697 52.6782 2.31885C53.0062 2.31885 53.1476 2.45399 53.1321 2.8092C53.078 4.04395 53.0018 5.27871 52.9618 6.5142C52.819 8.93618 52.9992 11.3664 53.4978 13.741C53.6545 14.5651 54.0607 15.3214 54.6616 15.9082C55.2625 16.495 56.0292 16.884 56.8585 17.0228C58.9789 17.4431 61.1658 17.396 63.266 16.8847C63.4481 16.8463 63.6184 16.7547 63.7983 16.7038C63.9469 16.6728 64.0779 16.5862 64.1643 16.4617C64.2507 16.3372 64.2859 16.1843 64.2625 16.0347C64.2344 13.9108 64.2403 11.7869 64.1952 9.6638C64.1478 7.42915 64.0567 5.19527 63.9819 2.95988C63.9649 2.45328 64.07 2.33437 64.5779 2.33363C65.38 2.33363 66.1819 2.33363 66.9835 2.33363C67.3922 2.33363 67.5114 2.47096 67.5018 2.88673C67.3737 7.93722 67.2471 12.9811 67.1553 16.6196Z" fill="white"/>
<path d="M43.0454 43.875V42.1507C43.0454 41.7076 43.1816 41.5598 43.5837 41.5598C44.0375 41.5598 44.1901 41.7127 44.1893 42.1713C44.1675 42.4448 44.1715 42.7198 44.2012 42.9926C44.2308 43.1454 44.3885 43.3617 44.5166 43.3839C44.6728 43.4097 44.8668 43.2738 45.0275 43.1801C45.0908 43.119 45.1313 43.0383 45.1423 42.9512C45.2946 42.4562 45.6244 42.0346 46.0688 41.7669C46.5131 41.4992 47.0407 41.4042 47.5508 41.5C48.0156 41.5084 48.4606 41.6891 48.7993 42.0067C49.1381 42.3243 49.3462 42.7562 49.3833 43.2185C49.4975 43.8852 49.401 44.571 49.1071 45.1806C48.5044 46.436 46.278 46.5365 45.5672 45.6037C45.3759 45.3144 45.2201 45.0033 45.103 44.6769C44.9919 44.4192 44.8735 44.1844 44.541 44.2383C44.1968 44.2937 44.1753 44.5655 44.179 44.8416C44.1827 45.1178 44.1982 45.3919 44.1834 45.6659C44.1634 46.0351 43.9694 46.1695 43.537 46.1591C43.1883 46.151 43.0454 45.9782 43.0513 45.6422C43.0602 45.0551 43.0513 44.468 43.0513 43.8801L43.0454 43.875ZM48.3556 43.8949L48.2816 43.8565C48.2664 43.633 48.235 43.4108 48.1875 43.1919C48.1532 42.9596 48.034 42.7483 47.853 42.5983C47.6719 42.4484 47.4416 42.3705 47.2065 42.3796C46.9791 42.3876 46.7614 42.4733 46.5899 42.6224C46.4185 42.7715 46.3036 42.975 46.2647 43.1985C46.1002 43.7015 46.1201 44.2464 46.321 44.7361C46.3741 44.8941 46.4701 45.0344 46.5983 45.1413C46.7265 45.2482 46.882 45.3175 47.0473 45.3416C47.2124 45.3661 47.381 45.3447 47.5346 45.2795C47.6881 45.2143 47.8206 45.108 47.9173 44.9724C48.1048 44.6323 48.251 44.2711 48.3526 43.8965L48.3556 43.8949Z" fill="white"/>
<path d="M101.813 43.4414V44.6407C101.813 44.9176 101.887 45.1288 102.203 45.1872C102.316 45.2073 102.417 45.2702 102.484 45.3627C102.552 45.4552 102.581 45.5701 102.565 45.6834C102.565 46.1955 102.563 46.7077 102.56 47.2202C102.567 47.2832 102.559 47.347 102.538 47.4068C102.517 47.4666 102.483 47.5209 102.438 47.5658C102.394 47.6107 102.339 47.645 102.28 47.6662C102.22 47.6874 102.156 47.695 102.093 47.6884C102.024 47.6975 101.954 47.691 101.888 47.6696C101.821 47.6481 101.761 47.6122 101.711 47.5644C101.66 47.5165 101.621 47.4581 101.597 47.3933C101.572 47.3285 101.562 47.2591 101.568 47.19C101.568 47.0157 101.582 46.8399 101.583 46.6656C101.583 46.2565 101.468 46.1258 101.046 46.1214C100.245 46.1125 99.4432 46.1125 98.6416 46.1214C98.2507 46.1214 98.1271 46.2557 98.1182 46.6427C98.113 46.8421 98.1271 47.043 98.1182 47.2424C98.1108 47.5008 97.9916 47.6803 97.7154 47.6854C97.4392 47.6906 97.1794 47.6028 97.1631 47.2992C97.1356 46.7383 97.1383 46.1762 97.1712 45.6155C97.1853 45.5369 97.2151 45.4619 97.2589 45.3951C97.3026 45.3282 97.3594 45.2708 97.4259 45.2263C97.8089 44.9552 98.0694 44.5445 98.1508 44.0832C98.3038 43.4431 98.4272 42.7937 98.521 42.135C98.5208 42.0599 98.5363 41.9855 98.5664 41.9167C98.5965 41.8478 98.6405 41.7858 98.6957 41.7347C98.751 41.6835 98.8163 41.6443 98.8875 41.6195C98.9587 41.5947 99.0344 41.585 99.1096 41.5908C99.8374 41.5797 100.563 41.5827 101.289 41.5864C101.362 41.577 101.435 41.5847 101.504 41.609C101.573 41.6332 101.636 41.6733 101.686 41.7259C101.737 41.7785 101.774 41.8422 101.796 41.9118C101.817 41.9814 101.822 42.055 101.81 42.1269C101.804 42.5641 101.81 43.0012 101.81 43.4384L101.813 43.4414ZM100.688 43.9H100.698V43.4886C100.698 43.3409 100.69 43.1889 100.687 43.0397C100.679 42.7155 100.567 42.4828 100.196 42.4547C99.7856 42.4237 99.6219 42.5597 99.5094 42.9717C99.3458 43.5692 99.1629 44.1622 98.9734 44.7529C98.883 45.035 98.9637 45.2115 99.2503 45.2226C99.5627 45.2374 99.8766 45.2308 100.188 45.2168C100.258 45.2214 100.328 45.2105 100.392 45.1849C100.457 45.1594 100.515 45.1198 100.563 45.069C100.611 45.0185 100.646 44.958 100.668 44.892C100.689 44.8259 100.696 44.756 100.687 44.6872C100.687 44.4258 100.687 44.1637 100.687 43.9015L100.688 43.9Z" fill="white"/>
<path d="M0 45.9576V45.1275L0.0362428 45.1208L0.0888446 45.4014H0.162867C0.22358 44.8343 0.285012 44.2671 0.344985 43.6985C0.398294 43.1897 0.438323 42.6794 0.504959 42.1706C0.559009 41.7541 0.732294 41.6108 1.14766 41.5798C1.94359 41.5199 2.19897 41.6787 2.45367 42.4438C2.62322 42.9526 2.74985 43.4777 2.9194 43.9843C2.99702 44.1266 3.09703 44.2555 3.21558 44.3661C3.32267 44.2569 3.41294 44.1324 3.48356 43.9969C3.68569 43.4194 3.85375 42.8308 4.0507 42.2511C4.10447 42.1019 4.19029 41.9662 4.30205 41.8534C4.41382 41.7407 4.54885 41.6536 4.69783 41.5982C4.84691 41.5432 5.00629 41.5213 5.16474 41.534C5.32319 41.5468 5.47689 41.5939 5.6152 41.6721C5.7601 41.7843 5.85525 41.9487 5.88029 42.13C6.02837 43.2939 6.15275 44.4599 6.28158 45.6282C6.29727 45.6862 6.29979 45.7471 6.2889 45.8062C6.27801 45.8654 6.25402 45.9214 6.21867 45.9701C6.18338 46.0189 6.13754 46.0591 6.08464 46.088C6.03173 46.1169 5.97304 46.1336 5.91282 46.137C5.54262 46.1946 5.26652 46.0506 5.22358 45.7345C5.16064 45.2523 5.13688 44.7648 5.09542 44.2797C5.07172 44.0057 5.06063 43.7295 5.01398 43.4599C4.97198 43.3356 4.91138 43.2184 4.83413 43.1122C4.74083 43.1978 4.60455 43.265 4.56235 43.3721C4.44092 43.6852 4.36093 44.0131 4.25876 44.3321C4.12327 44.7612 3.9752 45.1858 3.84563 45.6164C3.82085 45.7716 3.73873 45.912 3.61543 46.01C3.49212 46.108 3.33654 46.1565 3.17925 46.1459C3.0217 46.1525 2.86742 46.1001 2.7465 45.9992C2.62558 45.8983 2.54677 45.756 2.52552 45.6001C2.31895 44.8801 2.09607 44.1645 1.85914 43.4526C1.79136 43.3175 1.70406 43.1931 1.60002 43.0833C1.51354 43.2084 1.44711 43.3463 1.40308 43.4918C1.31645 44.1475 1.25495 44.807 1.18535 45.465C1.11575 46.123 0.844773 46.2869 0.23246 46.0344C0.154718 46.0166 0.0762614 45.9878 0 45.9576Z" fill="white"/>
<path d="M62.3219 41.5871C62.5349 41.5598 62.7505 41.6135 62.9257 41.7375C63.1008 41.8615 63.2228 42.0466 63.2674 42.2562C63.4614 42.875 63.6546 43.4947 63.8597 44.1091C63.9173 44.2258 63.9902 44.3343 64.0766 44.4318C64.1765 44.3344 64.2609 44.2223 64.3269 44.0994C64.549 43.4629 64.7334 42.8138 64.9622 42.1794C65.0304 42.0412 65.1265 41.9185 65.2445 41.8192C65.3625 41.7198 65.4997 41.6458 65.6478 41.6019C65.7955 41.5582 65.9507 41.5455 66.1035 41.5644C66.2564 41.5833 66.4037 41.6336 66.5362 41.712C66.6776 41.8468 66.7661 42.0274 66.7858 42.2215C66.9242 43.3492 67.0345 44.4798 67.1611 45.6082C67.1937 45.9036 67.1264 46.0971 66.7954 46.1369C66.3623 46.1894 66.1587 46.0757 66.1135 45.7013C66.0395 45.0699 65.9935 44.4333 65.9017 43.8041C65.8422 43.565 65.7575 43.3328 65.6492 43.1114C65.5226 43.3081 65.4129 43.515 65.3213 43.7302C65.0947 44.4037 64.894 45.0868 64.6852 45.767C64.6473 45.8942 64.5641 46.0033 64.4512 46.0737C64.3383 46.144 64.2035 46.1706 64.0722 46.1487C63.9409 46.1702 63.8062 46.1438 63.6929 46.0744C63.5795 46.0049 63.4949 45.8972 63.4547 45.7707C63.2489 45.106 63.0593 44.4318 62.8402 43.7686C62.7486 43.5492 62.6395 43.3376 62.5137 43.1358C62.4028 43.3385 62.3165 43.5537 62.2567 43.7768C62.1664 44.3934 62.1175 45.0166 62.0538 45.6377C62.022 45.9516 61.888 46.1488 61.5356 46.1547C61.0914 46.1591 60.9566 46.0173 61.0062 45.5639C61.1239 44.4975 61.2431 43.4318 61.3505 42.3647C61.4186 41.7193 61.5718 41.5768 62.3219 41.5871Z" fill="white"/>
<path d="M54.6586 43.5993C54.7152 44.0481 54.6454 44.5038 54.4571 44.9153C54.2688 45.3268 53.9694 45.6778 53.5925 45.9293C53.322 46.1047 53.0145 46.2154 52.6941 46.2527C52.3736 46.29 52.0488 46.2528 51.7452 46.1442C51.4415 46.0355 51.1672 45.8584 50.9436 45.6265C50.72 45.3947 50.5531 45.1143 50.4561 44.8075C50.0835 43.4844 50.2015 42.0718 50.7886 40.8286C50.8979 40.5875 51.0609 40.3744 51.2651 40.2055C51.4694 40.0367 51.7095 39.9163 51.9673 39.8537C52.6181 39.689 53.2882 39.5842 53.953 39.4735C54.0079 39.4557 54.0663 39.451 54.1233 39.46C54.1803 39.469 54.2343 39.4913 54.281 39.5251C54.3273 39.5593 54.3647 39.6038 54.3905 39.6551C54.4162 39.7064 54.4295 39.7631 54.4291 39.8205C54.4446 39.8917 54.4455 39.9652 54.4319 40.0368C54.4183 40.1083 54.3904 40.1764 54.3499 40.237C54.3093 40.2976 54.2569 40.3494 54.1958 40.3894C54.1348 40.4293 54.0663 40.4566 53.9945 40.4697C53.5902 40.548 53.1756 40.5753 52.7691 40.6506C52.4921 40.6634 52.2254 40.7589 52.0036 40.9248C51.7818 41.0908 51.6151 41.3195 51.5253 41.5811C51.5052 41.6421 51.4986 41.7067 51.506 41.7704C51.5134 41.8342 51.5346 41.8956 51.5682 41.9503C51.6269 41.9756 51.6903 41.988 51.7542 41.9866C51.8181 41.9852 51.8809 41.97 51.9384 41.9421C53.511 41.259 54.6564 42.0212 54.6586 43.5993ZM53.5369 43.8859C53.5257 43.7126 53.5049 43.5399 53.4747 43.3689C53.4397 43.1503 53.325 42.9523 53.1528 42.8127C52.9806 42.6731 52.7628 42.6016 52.5411 42.612C52.0384 42.6261 51.4638 43.0403 51.4638 43.4812C51.4588 43.9283 51.5286 44.373 51.6704 44.7972C51.7182 44.9204 51.7947 45.0304 51.8936 45.1184C51.9925 45.2063 52.1108 45.2696 52.239 45.303C52.3667 45.3357 52.5003 45.3379 52.629 45.3093C52.7577 45.2807 52.8778 45.222 52.9794 45.1383C53.1699 44.9934 53.3206 44.8028 53.4174 44.5842C53.5143 44.3656 53.5541 44.1261 53.5332 43.8881L53.5369 43.8859Z" fill="white"/>
<path d="M87.2964 44.6878C87.2964 43.8518 87.2809 43.0152 87.3082 42.177C87.3114 42.0722 87.3355 41.9689 87.3792 41.8736C87.423 41.7782 87.4854 41.6925 87.5629 41.6216C87.7725 41.4739 88.0198 41.5869 88.1849 41.7988C88.407 42.0831 88.6225 41.9902 88.8638 41.8159C89.11 41.6063 89.4189 41.484 89.7421 41.4681C90.0654 41.4522 90.3848 41.5436 90.6504 41.728C90.9937 41.9888 91.2514 42.3456 91.3908 42.7529C91.619 43.5019 91.6014 44.3041 91.3405 45.0423C91.2716 45.2776 91.1502 45.4943 90.9854 45.6761C90.8207 45.858 90.6168 46.0003 90.3891 46.0924C90.1613 46.1848 89.9156 46.2244 89.6704 46.2086C89.4251 46.1927 89.1865 46.1217 88.9727 46.0009C88.544 45.7793 88.4396 45.8479 88.4159 46.3449C88.393 46.8117 88.3663 47.2799 88.2974 47.7414C88.2834 47.8374 88.0849 47.9571 87.9591 47.9741C87.7673 48.0007 87.5148 48.0694 87.4408 47.7658C87.3734 47.595 87.3255 47.4171 87.2979 47.2356C87.2823 46.3871 87.2912 45.5371 87.2912 44.6893L87.2964 44.6878ZM90.3906 43.7477C90.3187 43.4366 90.2196 43.1325 90.0944 42.8387C90.0498 42.7411 89.9828 42.6555 89.8988 42.5886C89.8148 42.5218 89.7161 42.4756 89.6109 42.4539C89.5057 42.4322 89.3968 42.4355 89.2931 42.4636C89.1895 42.4917 89.0939 42.5438 89.0141 42.6157C88.7325 42.8489 88.5322 43.165 88.4417 43.5188C88.3513 43.8726 88.3754 44.2459 88.5107 44.5852C88.5996 44.7782 88.7407 44.9427 88.9182 45.0601C89.0957 45.1775 89.3025 45.2433 89.5154 45.2498C89.7129 45.2089 89.8926 45.1073 90.0293 44.9594C90.1661 44.8115 90.253 44.6246 90.278 44.4249C90.3261 44.2329 90.3454 44.0335 90.3928 43.7463L90.3906 43.7477Z" fill="white"/>
<path d="M59.9185 43.8919C59.9185 44.4539 59.9185 45.0158 59.9185 45.5778C59.9185 46.0039 59.7653 46.159 59.3662 46.156C58.9138 46.156 58.782 46.0297 58.7827 45.5829C58.7827 45.0837 58.8072 44.5838 58.7953 44.0853C58.7657 43.9491 58.7123 43.8191 58.6376 43.7013C58.5096 43.7577 58.392 43.8351 58.2896 43.9303C57.8298 44.5388 57.4011 45.1686 56.9377 45.772C56.8122 45.9387 56.6374 46.062 56.4379 46.1243C55.9196 46.2528 55.7234 46.0666 55.7219 45.5335C55.7219 44.4341 55.7182 43.335 55.7108 42.2361C55.7108 41.731 55.8589 41.5545 56.2928 41.5641C56.7267 41.5737 56.871 41.7583 56.8606 42.2561C56.851 42.7184 56.831 43.1807 56.8392 43.6423C56.8656 43.7685 56.914 43.8892 56.9821 43.9989C57.102 43.9518 57.2128 43.884 57.3093 43.7988C57.7802 43.1843 58.2237 42.5486 58.705 41.9415C58.8447 41.7715 59.0333 41.6482 59.2455 41.5885C59.6971 41.4741 59.9237 41.6956 59.92 42.1667C59.9141 42.7413 59.9185 43.3159 59.9185 43.8919Z" fill="white"/>
<path d="M24.7643 43.8594V42.0988C24.7548 42.0303 24.7607 41.9606 24.7818 41.8947C24.8028 41.8287 24.8383 41.7683 24.8857 41.7178C24.9326 41.6674 24.9902 41.628 25.0542 41.6025C25.1182 41.577 25.1871 41.5659 25.2559 41.5701C25.6801 41.548 25.8963 41.6956 25.903 42.0604C25.9119 42.5589 25.8749 43.0589 25.8882 43.5581C25.9201 43.7162 25.9779 43.8678 26.0592 44.0071C26.1878 43.9266 26.3059 43.8307 26.4109 43.7213C26.8455 43.1416 27.2461 42.5397 27.6999 41.9718C27.8692 41.7779 28.094 41.6406 28.3441 41.5782C28.7565 41.4785 28.9697 41.7127 28.966 42.1395C28.9567 43.2753 28.9537 44.4115 28.9571 45.5483C28.9571 46.0017 28.8387 46.1392 28.3989 46.1502C27.9591 46.1613 27.8169 46.0187 27.8206 45.5653C27.8251 45.0786 27.8592 44.5913 27.851 44.1053C27.8203 43.9444 27.7635 43.7895 27.6829 43.6468C27.5613 43.7205 27.4497 43.8093 27.3505 43.9111C26.8685 44.5491 26.4139 45.2094 25.9171 45.8312C25.7688 45.993 25.5709 46.1013 25.3544 46.1391C24.9605 46.213 24.7731 46.0246 24.7709 45.6185C24.7709 45.0314 24.7709 44.4443 24.7709 43.8572L24.7643 43.8594Z" fill="white"/>
<path d="M121.86 43.8409C121.86 43.2922 121.853 42.7428 121.86 42.1941C121.867 41.7584 121.978 41.5959 122.398 41.5834C123.107 41.5634 123.82 41.5834 124.529 41.6299C124.738 41.6411 124.939 41.7144 125.106 41.8401C125.273 41.9659 125.399 42.1385 125.467 42.3359C125.534 42.4712 125.557 42.6236 125.535 42.7726C125.512 42.9216 125.444 43.0602 125.341 43.1697C124.947 43.6128 124.958 43.6423 125.398 44.0101C125.508 44.1329 125.592 44.277 125.643 44.4333C125.695 44.5896 125.714 44.7549 125.699 44.9189C125.684 45.0829 125.636 45.242 125.557 45.3865C125.477 45.531 125.369 45.6577 125.239 45.7588C124.666 46.1014 123.999 46.253 123.333 46.1915C123.037 46.1974 122.734 46.1731 122.434 46.1531C122.019 46.1236 121.867 45.9619 121.859 45.5261C121.85 44.9649 121.859 44.4036 121.859 43.8424L121.86 43.8409ZM123.602 45.4213H123.715C124.159 45.4036 124.529 45.1901 124.542 44.8689C124.544 44.7569 124.523 44.6458 124.482 44.5417C124.44 44.4377 124.379 44.3429 124.3 44.2626C124.108 44.1598 123.895 44.1023 123.678 44.0948C123.46 44.0872 123.244 44.1297 123.045 44.219C123.019 44.2452 122.996 44.2751 122.978 44.3076C122.902 44.4169 122.858 44.5453 122.852 44.678C122.845 44.8108 122.877 44.9427 122.942 45.0587C123.007 45.1748 123.103 45.2702 123.22 45.3342C123.337 45.3982 123.47 45.4281 123.603 45.4206L123.602 45.4213ZM123.602 43.4511C123.681 43.4499 123.76 43.4435 123.837 43.4318C124.19 43.3661 124.462 43.0988 124.445 42.8255C124.421 42.4371 124.123 42.3669 123.818 42.313C123.732 42.3006 123.645 42.2942 123.558 42.2938C123.077 42.2791 122.919 42.4031 122.91 42.7996C122.899 43.2974 123.047 43.4511 123.604 43.4503L123.602 43.4511Z" fill="white"/>
<path d="M96.8542 43.8283C96.8864 44.2481 96.8014 44.6686 96.6084 45.0432C96.4155 45.4177 96.1223 45.7316 95.7614 45.95C95.2845 46.2047 94.7372 46.2973 94.2027 46.2137C93.6683 46.1302 93.1757 45.875 92.7998 45.487C92.5521 45.1156 92.4035 44.6872 92.3681 44.2426C92.279 43.8107 92.3119 43.3627 92.4631 42.9484C92.6144 42.5341 92.8781 42.1699 93.2248 41.8964C94.0674 41.282 95.9272 41.3056 96.4618 42.3269C96.6646 42.8015 96.8273 43.292 96.9483 43.7936L96.8542 43.8283ZM93.4269 43.9022L93.5254 43.9346C93.5365 44.0964 93.5365 44.2596 93.5609 44.4191C93.5941 44.6491 93.699 44.8628 93.8607 45.03C94.0224 45.1973 94.2328 45.3096 94.462 45.351C94.7008 45.3659 94.9377 45.3008 95.1351 45.1659C95.3324 45.0311 95.4789 44.8342 95.5511 44.6067C95.7309 44.0956 95.7222 43.5374 95.5267 43.0322C95.4812 42.8617 95.3851 42.709 95.251 42.5941C95.1169 42.4791 94.951 42.4074 94.7752 42.3882C94.5974 42.3402 94.4087 42.3518 94.2381 42.4212C94.0675 42.4905 93.9246 42.6139 93.8312 42.7723C93.6716 43.1396 93.5366 43.5171 93.4269 43.9022Z" fill="white"/>
<path d="M116.255 43.9037C116.307 43.5238 116.392 43.1492 116.51 42.7841C116.732 42.3043 117.115 41.9165 117.593 41.6874C118.07 41.4584 118.613 41.4023 119.128 41.5288C119.565 41.5687 119.973 41.7661 120.275 42.0842C120.576 42.4022 120.752 42.8191 120.768 43.2568C120.921 44.4384 120.68 45.405 119.756 45.9153C119.394 46.1207 118.986 46.2344 118.57 46.2465C118.154 46.2586 117.741 46.1687 117.367 45.9847C116.997 45.786 116.693 45.4824 116.495 45.1121C116.297 44.7418 116.214 44.3213 116.255 43.9037ZM119.718 43.897C119.647 43.5799 119.56 43.2668 119.456 42.9591C119.394 42.7799 119.274 42.626 119.116 42.5209C118.958 42.4158 118.77 42.3654 118.58 42.3772C118.39 42.3687 118.203 42.4181 118.042 42.5188C117.882 42.6195 117.756 42.7667 117.682 42.9407C117.52 43.2391 117.438 43.5743 117.445 43.9135C117.452 44.2528 117.547 44.5845 117.72 44.8763C117.795 45.0192 117.906 45.1401 118.042 45.2268C118.178 45.3135 118.334 45.3629 118.495 45.3703C118.656 45.3771 118.816 45.3419 118.959 45.2681C119.102 45.1942 119.223 45.0844 119.31 44.9494C119.486 44.6154 119.623 44.2623 119.718 43.897Z" fill="white"/>
<path d="M30.2388 43.8726V42.1136C30.2289 42.0415 30.2355 41.9681 30.258 41.8989C30.2806 41.8298 30.3185 41.7665 30.3691 41.7141C30.4194 41.6613 30.4811 41.6206 30.5494 41.5951C30.6178 41.5695 30.691 41.5597 30.7637 41.5664C31.168 41.5472 31.3834 41.714 31.399 42.0796C31.4094 42.3285 31.3849 42.5788 31.3938 42.8284C31.3845 42.9009 31.3919 42.9744 31.4156 43.0435C31.4392 43.1126 31.4785 43.1755 31.5302 43.2271C31.582 43.2787 31.6449 43.3178 31.7142 43.3414C31.7835 43.365 31.8572 43.3724 31.9298 43.3631C32.1801 43.3698 32.4303 43.3632 32.6806 43.3691C32.7496 43.3794 32.8201 43.3737 32.8866 43.3526C32.9531 43.3314 33.0138 43.2954 33.0641 43.2472C33.1145 43.1988 33.153 43.1396 33.1768 43.074C33.2005 43.0084 33.2088 42.9384 33.2011 42.8691C33.2063 42.6202 33.1789 42.3706 33.1781 42.121C33.1718 42.0455 33.1822 41.9695 33.2085 41.8984C33.2349 41.8273 33.2766 41.7629 33.3307 41.7096C33.3845 41.6564 33.4494 41.6155 33.5208 41.59C33.5922 41.5645 33.6683 41.5549 33.7438 41.562C33.8186 41.5472 33.8958 41.5497 33.9695 41.5693C34.0431 41.5889 34.1113 41.625 34.1688 41.6749C34.2264 41.7247 34.2719 41.787 34.3017 41.857C34.3314 41.927 34.3447 42.0029 34.3406 42.0789C34.3504 43.2895 34.3504 44.5004 34.3406 45.7115C34.3406 46.0727 34.0725 46.1627 33.7682 46.1546C33.4639 46.1465 33.2115 46.0682 33.2048 45.6989C33.1996 45.3991 33.2048 45.1001 33.2048 44.8002C33.2048 44.4111 33.0878 44.2833 32.6939 44.2693C32.4192 44.2582 32.1431 44.2567 31.8677 44.2693C31.8016 44.2615 31.7347 44.2693 31.6722 44.292C31.6097 44.3147 31.5534 44.3517 31.5078 44.4C31.4617 44.4486 31.4277 44.5073 31.4087 44.5714C31.3896 44.6356 31.386 44.7034 31.3982 44.7692C31.4101 45.0306 31.4145 45.2935 31.4071 45.5549C31.3953 45.998 31.2087 46.1694 30.78 46.1583C30.3935 46.1487 30.2402 45.9862 30.2358 45.5601C30.2299 44.9988 30.2358 44.4369 30.2358 43.8749L30.2388 43.8726Z" fill="white"/>
<path d="M104.489 47.9875C104.078 47.9926 103.897 47.7607 103.988 47.3538C104.035 47.1593 104.114 46.9738 104.221 46.8044C104.314 46.6509 104.367 46.4756 104.372 46.2959C104.377 46.1161 104.335 45.9381 104.25 45.7794C103.759 44.5772 103.305 43.3594 102.849 42.1439C102.718 41.7946 102.875 41.5826 103.243 41.5619C103.424 41.5287 103.611 41.5674 103.764 41.6698C103.917 41.7722 104.024 41.9301 104.061 42.1099C104.284 42.759 104.499 43.4125 104.734 44.058C104.804 44.1791 104.892 44.2883 104.996 44.3814C105.091 44.2765 105.233 44.1865 105.275 44.0632C105.497 43.4138 105.703 42.7592 105.893 42.0995C105.967 41.8322 106.099 41.6247 106.378 41.5959C106.568 41.5582 106.765 41.5936 106.93 41.6949C106.98 41.7748 107.011 41.8647 107.021 41.9581C107.032 42.0514 107.021 42.1458 106.99 42.2347C106.426 43.9295 105.852 45.6206 105.253 47.3029C105.13 47.6485 104.965 48.0451 104.489 47.9875Z" fill="white"/>
<path d="M10.9534 44.3689C10.9534 44.7691 10.9734 45.1709 10.9446 45.5667C10.9312 45.744 10.8609 46.0098 10.7402 46.063C10.6397 46.1014 10.5319 46.1174 10.4245 46.11C10.3171 46.1026 10.2126 46.0719 10.1183 46.0201C10.0212 45.9357 9.89681 45.8893 9.76807 45.8893C9.63932 45.8893 9.51491 45.9357 9.41784 46.0201C9.2279 46.1349 9.01568 46.2082 8.7952 46.2351C8.57472 46.2619 8.351 46.2417 8.13895 46.1758C7.92689 46.1098 7.73127 45.9997 7.56512 45.8527C7.39896 45.7057 7.26602 45.5251 7.17512 45.323C7.11326 45.1481 7.08952 44.9621 7.10535 44.7773C7.12118 44.5926 7.17623 44.4133 7.26695 44.2515C7.35776 44.0896 7.48219 43.9489 7.63182 43.8387C7.78145 43.7286 7.95285 43.6515 8.1347 43.6127C8.4878 43.5314 8.84724 43.4802 9.20906 43.4598C9.47264 43.434 9.76134 43.4724 9.80133 43.0987C9.82376 42.9352 9.78062 42.7694 9.68121 42.6375C9.5818 42.5056 9.43422 42.4182 9.27052 42.3942C8.83899 42.4094 8.41029 42.4705 7.99181 42.5766C7.77487 42.626 7.55573 42.8085 7.40469 42.5256C7.36996 42.4682 7.34789 42.404 7.33998 42.3374C7.33206 42.2708 7.33847 42.2033 7.35878 42.1393C7.37909 42.0754 7.4128 42.0165 7.45774 41.9666C7.50268 41.9167 7.55786 41.8769 7.61944 41.8499C8.02252 41.6167 8.47665 41.4855 8.94225 41.4675C9.40786 41.4495 9.87075 41.5452 10.2907 41.7465C10.512 41.8819 10.6908 42.0765 10.8066 42.3083C10.9225 42.54 10.9707 42.7995 10.946 43.0573C10.9682 43.493 10.9504 43.931 10.9504 44.3681L10.9534 44.3689ZM9.84281 44.4796C9.78358 44.4206 9.67029 44.2123 9.55775 44.2123C9.20302 44.1948 8.84821 44.245 8.51231 44.36C8.14803 44.5129 8.1273 44.8924 8.38496 45.2004C8.47211 45.316 8.59656 45.3982 8.73736 45.433C8.87816 45.4679 9.02675 45.4533 9.15799 45.3917C9.35072 45.3267 9.51922 45.205 9.64144 45.0428C9.76366 44.8806 9.83383 44.6853 9.84281 44.4826V44.4796Z" fill="white"/>
<path d="M82.0336 43.9007C82.0336 43.3276 82.0291 42.7524 82.0336 42.1786C82.038 41.7355 82.1816 41.5944 82.6259 41.5922C83.5272 41.5878 84.4285 41.5878 85.3298 41.5922C85.8481 41.5922 86.0073 41.7554 86.008 42.2605C86.008 43.3589 86.008 44.4573 86.008 45.5557C86.008 46.0172 85.8215 46.1848 85.3617 46.1531C85.0359 46.1302 84.8582 45.984 84.8641 45.6362C84.873 44.8485 84.873 44.0622 84.8641 43.2774C84.856 42.5574 84.7694 42.4806 84.0601 42.4939C83.1716 42.5109 83.1642 42.5167 83.1634 43.4051C83.1634 44.1436 83.1634 44.8777 83.1634 45.614C83.1634 46.0372 83.0487 46.1413 82.5874 46.1487C82.1831 46.1553 82.0321 46.0209 82.0269 45.6258C82.0202 45.0528 82.0269 44.4775 82.0269 43.9029L82.0336 43.9007Z" fill="white"/>
<path d="M19.2837 44.2913C19.2837 44.7152 19.3038 45.1412 19.2749 45.5629C19.2623 45.7416 19.1934 46.0016 19.0676 46.0674C18.9737 46.1068 18.872 46.1242 18.7704 46.1183C18.6687 46.1124 18.5698 46.0833 18.4812 46.0334C18.3693 45.9453 18.2304 45.8983 18.0879 45.9003C17.9453 45.9023 17.8079 45.9532 17.6986 46.0445C17.5079 46.1514 17.2969 46.2173 17.0791 46.238C16.8614 46.2587 16.6417 46.2338 16.4342 46.1648C16.2267 46.0958 16.0359 45.9843 15.8742 45.8374C15.7125 45.6905 15.5833 45.5115 15.4951 45.3118C15.437 45.133 15.4176 44.9439 15.4381 44.7571C15.4587 44.5702 15.5187 44.3898 15.6143 44.2277C15.7103 44.0659 15.8395 43.9263 15.9936 43.8179C16.1476 43.7096 16.323 43.6351 16.508 43.5993C16.8632 43.5282 17.2229 43.4816 17.5845 43.4598C17.8067 43.4384 18.0651 43.4701 18.1339 43.1836C18.1696 43.0483 18.1581 42.905 18.1013 42.7771C18.0445 42.6492 17.9459 42.5444 17.8215 42.4798C17.6351 42.3892 17.4315 42.3394 17.2242 42.3337C17.017 42.3279 16.8109 42.3664 16.6198 42.4465C16.497 42.5074 16.3701 42.5597 16.24 42.6031C16.0815 42.6238 15.8009 42.6312 15.7757 42.5647C15.7247 42.383 15.7268 42.1906 15.7817 42.0101C15.8017 41.9245 15.9349 41.844 16.0326 41.8026C16.7398 41.4628 17.5483 41.397 18.3013 41.618C18.5535 41.6781 18.7796 41.8178 18.9459 42.0162C19.1122 42.2147 19.2099 42.4615 19.2245 42.7198C19.2704 43.2411 19.2778 43.7662 19.2986 44.2898L19.2837 44.2913ZM17.2106 45.4374C17.6549 45.4374 18.185 44.984 18.1731 44.611C18.165 44.3075 17.9681 44.1391 17.6208 44.1398C16.9944 44.1398 16.5791 44.4072 16.5746 44.8126C16.5687 44.8969 16.5811 44.9815 16.611 45.0605C16.6409 45.1395 16.6876 45.2111 16.7479 45.2705C16.8082 45.3297 16.8806 45.3753 16.9603 45.404C17.0399 45.4327 17.1248 45.4439 17.2091 45.4367L17.2106 45.4374Z" fill="white"/>
<path d="M107.901 43.8779C107.901 43.3166 107.897 42.7546 107.901 42.1934C107.901 41.7503 108.093 41.5619 108.509 41.5612C108.896 41.5612 109.068 41.7481 109.07 42.1904C109.049 42.4135 109.044 42.6379 109.057 42.8617C109.083 43.0286 109.175 43.2752 109.295 43.3144C109.388 43.3356 109.484 43.3341 109.576 43.3099C109.667 43.2857 109.752 43.2396 109.822 43.1755C110.048 42.866 110.232 42.5281 110.37 42.1705C110.392 42.0664 110.435 41.9678 110.497 41.881C110.558 41.7943 110.637 41.7212 110.729 41.6661C110.82 41.6111 110.922 41.5754 111.027 41.5613C111.133 41.5472 111.241 41.5549 111.343 41.5841C111.611 41.6336 111.742 41.7924 111.621 42.0317C111.372 42.5295 111.098 43.0138 110.798 43.4828C110.728 43.5665 110.692 43.673 110.695 43.7821C110.699 43.8911 110.743 43.9948 110.819 44.0735C111.167 44.5997 111.485 45.1449 111.772 45.7063C111.891 45.9353 111.76 46.1103 111.487 46.1494C111.381 46.1827 111.27 46.1937 111.16 46.1818C111.049 46.1698 110.943 46.1352 110.847 46.08C110.751 46.0248 110.668 45.9504 110.602 45.8614C110.537 45.7724 110.491 45.6708 110.467 45.5631C110.327 45.2308 110.174 44.8984 110.004 44.5838C109.949 44.4616 109.852 44.3633 109.731 44.3068C109.609 44.2503 109.471 44.2396 109.343 44.2766C109.027 44.3571 109.03 44.6289 109.036 44.8836C109.041 45.1207 109.068 45.357 109.067 45.5941C109.067 45.9811 108.875 46.1538 108.481 46.1531C108.07 46.1531 107.901 45.9943 107.9 45.5992C107.9 45.0254 107.901 44.4517 107.901 43.8779Z" fill="white"/>
<path d="M41.7669 43.9235C41.7669 44.4471 41.761 44.9707 41.7669 45.4942C41.7743 45.9521 41.6351 46.1434 41.2486 46.1589C40.8007 46.1788 40.6089 46.0016 40.6052 45.5416C40.5993 44.7292 40.6052 43.9169 40.6008 43.109C40.6008 42.6577 40.4645 42.4791 40.1454 42.4695C39.8263 42.4599 39.7012 42.6393 39.6005 43.0558C39.4258 43.7943 39.2443 44.5327 39.0082 45.2483C38.9412 45.4725 38.8128 45.6737 38.6373 45.829C38.4619 45.9842 38.2464 46.0875 38.0153 46.1272C37.8331 46.1582 37.5177 46.1271 37.46 46.0164C37.39 45.8041 37.39 45.5751 37.46 45.3628C37.4852 45.2528 37.6636 45.1856 37.7421 45.0778C37.9662 44.8373 38.1466 44.5596 38.2752 44.2573C38.4329 43.6044 38.5523 42.9428 38.6328 42.276C38.7068 41.748 38.8734 41.5884 39.4117 41.5936C39.9737 41.5995 40.5356 41.601 41.0969 41.5936C41.5411 41.5847 41.7521 41.7553 41.7632 42.2043C41.7758 42.7759 41.7669 43.3497 41.7669 43.9235Z" fill="white"/>
<path d="M68.254 43.8187C68.254 43.2686 68.254 42.7192 68.254 42.1698C68.254 41.7341 68.4073 41.5708 68.7901 41.5723C69.2343 41.5723 69.4024 41.7466 69.3905 42.1897C69.3905 42.2768 69.3794 42.3647 69.3802 42.4518C69.3846 42.9104 69.5334 43.0537 69.9888 43.0655C70.2758 43.0677 70.5623 43.0905 70.8462 43.1334C71.1688 43.1541 71.4731 43.2902 71.7034 43.5166C71.9336 43.743 72.0743 44.0445 72.0997 44.366C72.1657 44.7359 72.0885 45.1168 71.8837 45.4321C71.679 45.7474 71.3618 45.9734 70.9965 46.0645C70.24 46.2517 69.4532 46.2829 68.6842 46.1561C68.3584 46.1206 68.2629 45.8725 68.2629 45.5853C68.2584 44.9982 68.2629 44.4111 68.2629 43.824L68.254 43.8187ZM69.378 44.6208C69.378 45.2212 69.4957 45.3932 69.9251 45.3998C70.5174 45.4087 70.9483 45.1044 70.9617 44.6613C70.9772 44.1799 70.6122 43.8875 69.9851 43.8779C69.4905 43.8705 69.3794 44.0041 69.3794 44.6215L69.378 44.6208Z" fill="white"/>
<path d="M75.5182 41.5117C75.7273 41.5143 75.9303 41.5827 76.0982 41.7071C76.2661 41.8314 76.3904 42.0055 76.4533 42.2044C76.5298 42.388 76.6248 42.5635 76.7369 42.728C76.9383 42.9842 77.13 42.9495 77.2818 42.6593C77.4092 42.4163 77.5187 42.1631 77.6646 41.9312C77.7386 41.8115 77.8667 41.6638 77.9874 41.6446C78.2171 41.5809 78.4619 41.5989 78.6797 41.6955C78.9181 41.8816 78.6797 42.1054 78.5568 42.3085C78.3067 42.7107 78.0828 43.1286 77.8867 43.5595C77.8315 43.7459 77.8504 43.9464 77.9393 44.1193C78.1777 44.5993 78.4613 45.0556 78.7234 45.5224C78.964 45.9529 78.8448 46.1309 78.3584 46.1678C78.1514 46.1865 77.9442 46.1342 77.7711 46.0195C77.5979 45.9048 77.4692 45.7347 77.4062 45.5371C77.3354 45.3508 77.2495 45.1705 77.1493 44.9981C77.0689 44.8795 76.945 44.7973 76.8042 44.7692C76.7124 44.7633 76.5821 44.905 76.5185 45.0099C76.3815 45.2314 76.2815 45.4759 76.1579 45.7063C76.0854 45.8742 75.9554 46.0109 75.7912 46.0921C75.6269 46.1732 75.4391 46.1935 75.2613 46.1493C74.9421 46.0991 74.8436 45.9381 74.9984 45.6531C75.2111 45.2437 75.447 44.8468 75.7048 44.4641C75.8535 44.2941 75.9386 44.0781 75.9456 43.8526C75.9526 43.6271 75.8811 43.4061 75.7433 43.2272C75.523 42.9089 75.3262 42.5749 75.1546 42.228C75.0677 42.0716 75.0441 41.8879 75.0887 41.7147C75.1309 41.6025 75.3671 41.573 75.5182 41.5117Z" fill="white"/>
<path d="M21.6241 46.235C21.3436 46.2002 21.0658 46.1462 20.7927 46.0733C20.6049 46.0121 20.4416 45.8925 20.3269 45.7321C20.2867 45.6614 20.2646 45.582 20.2624 45.5007C20.2602 45.4195 20.278 45.3389 20.3144 45.2661C20.3847 45.1812 20.6209 45.2026 20.7786 45.224C21.1241 45.3031 21.4735 45.3635 21.8255 45.405C21.9961 45.4036 22.1599 45.3388 22.2851 45.2232C22.4102 45.1077 22.4877 44.9497 22.5022 44.7802C22.4815 44.4073 22.2061 44.2854 21.8892 44.233C21.6527 44.2237 21.4172 44.1958 21.185 44.1496C21.0421 44.1008 20.9452 43.9184 20.8275 43.7958C20.9511 43.6792 21.057 43.5108 21.2043 43.4583C21.3999 43.4253 21.5983 43.4107 21.7967 43.4148C21.9547 43.4062 22.1039 43.3392 22.2153 43.227C22.3266 43.1148 22.3922 42.9654 22.3993 42.8077C22.3638 42.4259 22.0928 42.3004 21.7663 42.3166C21.4712 42.3364 21.1792 42.3887 20.8956 42.4725C20.6971 42.5279 20.4987 42.6423 20.3632 42.4141C20.3301 42.3631 20.3087 42.3056 20.3005 42.2455C20.2923 42.1854 20.2976 42.1242 20.3158 42.0663C20.3341 42.0084 20.3649 41.9552 20.4061 41.9105C20.4473 41.8658 20.4979 41.8308 20.5542 41.8078C20.8763 41.6444 21.2251 41.5401 21.5841 41.4999C21.9713 41.4951 22.3577 41.5355 22.7354 41.6202C22.9198 41.6576 23.0908 41.7439 23.2302 41.8699C23.3696 41.996 23.4724 42.1571 23.5277 42.3365C23.5824 42.5156 23.5878 42.7061 23.5434 42.888C23.499 43.0699 23.4063 43.2365 23.2752 43.3704C22.9361 43.719 22.9539 43.7397 23.3137 44.0196C23.4422 44.1151 23.5476 44.2379 23.6224 44.3792C23.6972 44.5205 23.7395 44.6767 23.7461 44.8363C23.7527 44.9961 23.7234 45.1554 23.6604 45.3025C23.5973 45.4495 23.5022 45.5806 23.3818 45.6863C22.8879 46.0868 22.2588 46.2832 21.6241 46.235Z" fill="white"/>
<path d="M114.068 41.5908H115.382C115.703 41.5908 115.912 41.726 115.926 42.0709C115.94 42.3943 115.752 42.5671 115.38 42.5878C114.67 42.6306 114.607 42.7148 114.628 43.4186C114.648 44.157 114.647 44.8896 114.645 45.6252C114.645 45.9863 114.456 46.1465 114.067 46.1487C113.678 46.151 113.513 45.9959 113.512 45.6141C113.512 44.8283 113.519 44.0426 113.522 43.2575C113.522 42.7288 113.388 42.593 112.859 42.593C112.403 42.593 112.242 42.46 112.243 42.0908C112.243 41.7215 112.417 41.5886 112.871 41.5901L114.068 41.5908Z" fill="white"/>
<path d="M12.23 43.8432V42.158C12.23 41.7348 12.3618 41.5945 12.7897 41.5879C13.3524 41.579 13.9159 41.5834 14.4786 41.5879C14.5385 41.5806 14.5993 41.5864 14.6568 41.605C14.7142 41.6236 14.7668 41.6546 14.811 41.6957C14.8552 41.7368 14.8899 41.787 14.9125 41.8429C14.9351 41.8988 14.9452 41.959 14.9421 42.0191C14.9533 42.0844 14.9509 42.1512 14.9351 42.2155C14.9194 42.2798 14.8905 42.3401 14.8503 42.3928C14.8101 42.4455 14.7594 42.4893 14.7014 42.5216C14.6435 42.5539 14.5795 42.5739 14.5134 42.5804C14.3886 42.5875 14.2634 42.5828 14.1395 42.5663C13.4961 42.5309 13.3539 42.6616 13.3547 43.2982C13.3547 44.0366 13.3354 44.7752 13.365 45.5077C13.3902 46.1111 13.0992 46.224 12.5032 46.0985C12.3884 46.0748 12.2507 45.826 12.2433 45.6746C12.2137 45.0631 12.2315 44.4524 12.2315 43.8409L12.23 43.8432Z" fill="white"/>
<path d="M73.9706 43.8911C73.9706 44.4642 73.9706 45.0395 73.9706 45.614C73.9706 46.0232 73.847 46.1487 73.4708 46.1487C72.9681 46.1487 72.837 46.0305 72.837 45.5874V42.1801C72.837 41.737 72.9955 41.5759 73.4472 41.5737C73.8433 41.5737 73.9773 41.7215 73.9765 42.1646V43.8874L73.9706 43.8911Z" fill="white"/>
<path d="M116.094 33.0258C113.031 32.9603 109.988 32.5203 107.032 31.7157C105.667 31.3864 104.351 30.8812 103.117 30.2129C102.56 29.8635 102.043 29.4527 101.577 28.9885C101.451 28.8475 101.361 28.6789 101.312 28.4962C101.264 28.3136 101.26 28.1222 101.3 27.9376C101.522 25.8514 101.721 23.7637 101.947 21.679C102.049 20.7492 102.17 19.8195 102.33 18.8978C102.373 18.5374 102.555 18.2079 102.838 17.9796C103.12 17.7512 103.481 17.6421 103.844 17.6756C104.585 17.7706 105.317 17.932 106.03 18.1579C108.946 18.9853 111.933 19.5418 114.952 19.8202C116.61 19.9746 118.273 20.0742 119.933 20.202C120.095 20.2141 120.256 20.2388 120.415 20.2758C120.668 20.2987 120.913 20.375 121.135 20.4996C121.357 20.6241 121.549 20.7942 121.7 20.9985C121.851 21.2029 121.956 21.4368 122.01 21.6848C122.063 21.9329 122.063 22.1893 122.009 22.4374C121.799 24.9516 121.397 27.4463 120.807 29.8998C120.709 30.286 120.563 30.6634 120.491 31.054C120.408 31.5087 120.175 31.9225 119.829 32.2291C119.482 32.5358 119.042 32.7175 118.58 32.7451C117.623 32.9061 116.645 32.966 116.094 33.0258ZM116.045 32.4047C116.556 32.3309 117.549 32.2216 118.529 32.0355C118.799 31.995 119.052 31.8794 119.259 31.7018C119.466 31.5243 119.618 31.292 119.699 31.0319C119.807 30.739 119.897 30.4396 119.967 30.1353C120.441 27.595 120.915 25.0539 121.365 22.509C121.428 22.1784 121.37 21.836 121.199 21.5453C121.029 21.2545 120.76 21.035 120.44 20.9272C120.131 20.8239 119.81 20.7625 119.485 20.7448C118.424 20.6709 117.357 20.6532 116.302 20.552C114.534 20.3817 112.769 20.183 111.007 19.9561C110.015 19.836 109.029 19.6657 108.054 19.4458C106.91 19.1785 105.789 18.8173 104.656 18.5079C104.39 18.4218 104.103 18.428 103.841 18.5255C103.579 18.623 103.358 18.806 103.214 19.0448C103.084 19.2728 103.001 19.5235 102.967 19.7833C102.597 22.5046 102.227 25.2274 101.887 27.9539C101.874 28.249 101.965 28.5393 102.144 28.7743C102.654 29.3835 103.323 29.8388 104.078 30.0888C107.905 31.5394 111.955 32.3216 116.049 32.401L116.045 32.4047Z" fill="white"/>
<path d="M114.28 27.3572C114.612 27.0987 114.951 26.8483 115.274 26.5788C115.472 26.4126 115.461 26.2384 115.224 26.101C115.064 26.0072 114.902 25.9141 114.745 25.8159C114.686 25.7703 114.618 25.7369 114.546 25.7178C114.474 25.6986 114.399 25.6941 114.326 25.7044C114.252 25.7149 114.182 25.7399 114.118 25.778C114.054 25.816 113.999 25.8663 113.955 25.926C113.723 26.1406 113.455 26.3133 113.163 26.4363C113.302 26.189 113.489 25.9721 113.713 25.7986C113.938 25.625 114.195 25.4983 114.47 25.426C114.762 25.4453 115.042 25.5538 115.27 25.7369C115.365 25.8136 115.478 25.8636 115.598 25.8817C115.719 25.8997 115.842 25.8852 115.954 25.8396C116.15 25.7657 116.424 25.8898 116.66 25.9341C116.791 25.9592 116.956 26.0699 117.043 26.0256C117.127 25.9816 117.219 25.9548 117.314 25.9469C117.409 25.9391 117.504 25.9503 117.594 25.9799C117.685 26.0095 117.768 26.0569 117.84 26.1193C117.911 26.1818 117.97 26.2579 118.011 26.3432C118.115 26.5164 118.167 26.7152 118.161 26.9166C118.156 27.118 118.093 27.3138 117.981 27.4812C117.892 27.6595 117.776 27.8226 117.636 27.9642C117.516 28.0398 117.374 28.0724 117.234 28.0565C117.189 28.0565 117.095 27.877 117.119 27.8209C117.166 27.6858 117.259 27.5709 117.38 27.4953C117.477 27.4545 117.563 27.3933 117.633 27.316C117.703 27.2388 117.755 27.1472 117.786 27.0477C117.817 26.9483 117.826 26.8432 117.813 26.7399C117.799 26.6366 117.763 26.5376 117.707 26.4496C117.665 26.3883 117.565 26.3188 117.508 26.3307C117.451 26.3425 117.399 26.4451 117.368 26.5175C117.337 26.5899 117.368 26.6822 117.324 26.7339C117.25 26.8299 117.141 26.9694 117.049 26.9672C116.99 26.9508 116.936 26.9192 116.892 26.8755C116.849 26.8319 116.818 26.7778 116.801 26.7184C116.793 26.4126 116.616 26.3144 116.368 26.2405C116.103 26.1615 115.937 26.1667 115.912 26.5153C115.906 26.6113 115.72 26.7102 115.603 26.7826C115.418 26.8601 115.238 26.9522 115.067 27.058C114.771 27.3062 114.531 27.6105 114.233 27.8534C114.167 27.8924 114.092 27.9166 114.016 27.9244C113.939 27.9321 113.862 27.9233 113.789 27.8985C113.71 27.8712 113.663 27.6836 113.641 27.561C113.569 27.3537 113.57 27.1285 113.642 26.9215C113.714 26.7146 113.854 26.5379 114.04 26.42C114.125 26.3825 114.214 26.3552 114.306 26.3388C114.349 26.4316 114.374 26.5319 114.38 26.6342C114.338 26.7503 114.287 26.8627 114.226 26.9702C114.195 27.0818 114.17 27.1953 114.152 27.3099L114.28 27.3572Z" fill="white"/>
<path d="M107.75 26.2952C107.48 26.4949 107.18 26.6504 106.862 26.7561C106.564 26.8245 106.256 26.8318 105.956 26.7776C105.655 26.7234 105.369 26.6088 105.115 26.4407C105 26.3687 104.906 26.269 104.84 26.1509C104.775 26.0328 104.74 25.9 104.74 25.765C104.739 25.6299 104.773 25.497 104.837 25.3783C104.902 25.2597 104.996 25.1593 105.11 25.0864C105.228 24.9948 105.332 24.8862 105.458 24.8028C105.519 24.7541 105.589 24.7183 105.665 24.6977C105.74 24.6772 105.819 24.6722 105.897 24.6831C105.974 24.694 106.049 24.7206 106.116 24.7613C106.182 24.8019 106.24 24.8557 106.285 24.9195C106.334 25.0133 106.28 25.1602 106.272 25.2828C106.16 25.2747 106.02 25.3064 105.941 25.251C105.485 24.929 105.213 25.0391 105.122 25.5996C105.105 25.7485 105.131 25.8994 105.198 26.0338C105.264 26.1682 105.369 26.2803 105.498 26.3565C105.58 26.4358 105.69 26.4806 105.804 26.4815C105.918 26.4825 106.028 26.4396 106.111 26.3617C106.562 26.0161 107 25.6543 107.444 25.2998C107.472 25.2761 107.505 25.2598 107.54 25.2526C107.576 25.2453 107.613 25.2473 107.647 25.2584C107.55 25.4061 107.465 25.5641 107.351 25.7015C107.066 26.0567 107.083 26.1099 107.531 26.1978C107.604 26.225 107.676 26.2578 107.744 26.296L107.75 26.2952Z" fill="white"/>
<path d="M109.913 25.206L109.201 25.8832C108.986 26.087 108.964 26.2724 109.22 26.474C109.3 26.5582 109.36 26.6591 109.395 26.7694C109.4 26.7782 109.292 26.8706 109.257 26.8595C109.13 26.833 109.012 26.7745 108.913 26.6896C108.675 26.4427 108.47 26.1653 108.305 25.8647C108.246 25.7519 108.211 25.6279 108.202 25.5008C108.193 25.3736 108.211 25.246 108.255 25.1262C108.604 24.6105 109.001 24.1284 109.44 23.6862C109.548 23.574 109.839 23.6375 110.05 23.619C109.685 23.9469 109.364 24.2334 109.044 24.5207C109.006 24.5539 108.958 24.5886 108.946 24.6307C108.887 24.8597 108.836 25.0893 108.783 25.3212C109.005 25.2828 109.227 25.2473 109.449 25.203C109.602 25.1728 109.756 25.1292 109.909 25.0938L109.913 25.206Z" fill="white"/>
<path d="M117.268 23.2062C117.099 23.1117 116.915 23.0681 116.892 22.9847C116.878 22.9157 116.88 22.8443 116.899 22.7765C116.918 22.7087 116.953 22.6464 117.001 22.5947C117.223 22.4395 117.468 22.3187 117.726 22.2366C118.005 22.1472 118.199 22.0682 118.03 21.7196C117.892 21.439 118.052 21.3231 118.316 21.3142C118.42 21.324 118.522 21.3553 118.614 21.4062C118.707 21.457 118.787 21.5263 118.852 21.6096C118.916 21.6937 118.961 21.79 118.986 21.8926C119.011 21.9952 119.014 22.1017 118.995 22.2056C118.965 22.255 118.924 22.2964 118.875 22.3265C118.825 22.3565 118.769 22.3743 118.712 22.3783C118.556 22.3787 118.402 22.4149 118.263 22.4841C118.124 22.5532 118.002 22.6535 117.908 22.7772C117.713 22.9454 117.498 23.0895 117.268 23.2062Z" fill="white"/>
<path d="M108.433 21.8658L108.021 21.6022C108.079 21.4765 108.156 21.3607 108.25 21.2588C108.601 20.9826 108.61 20.8896 108.262 20.6208C108.123 20.5365 107.998 20.4311 107.891 20.3084C107.822 20.2043 107.777 19.9923 107.833 19.9207C107.914 19.8203 108.165 19.7206 108.231 19.773C108.441 19.9101 108.606 20.1048 108.707 20.3335C108.731 20.4662 108.787 20.591 108.87 20.6975C108.954 20.8039 109.061 20.8888 109.184 20.945C109.507 21.0831 109.522 21.1998 109.234 21.4161C108.977 21.5837 108.709 21.7339 108.433 21.8658Z" fill="white"/>
<path d="M120.788 22.1642C120.745 22.4596 120.709 22.7048 120.364 22.7757C120.258 22.8141 120.17 22.8888 120.116 22.9861C120.034 23.1131 119.918 23.2149 119.782 23.2802C119.646 23.3454 119.494 23.3714 119.343 23.3554C119.217 23.3554 118.999 23.2527 118.991 23.1782C118.984 23.103 118.996 23.0273 119.025 22.9576C119.054 22.8878 119.099 22.826 119.157 22.7771C119.377 22.7012 119.605 22.6466 119.836 22.6139C119.959 22.5807 120.132 22.5401 120.173 22.4522C120.213 22.3643 120.129 22.1997 120.058 22.0992C119.927 21.9168 119.645 21.7854 119.866 21.5085C119.997 21.3452 120.39 21.442 120.589 21.6997C120.675 21.8453 120.742 22.0015 120.788 22.1642Z" fill="white"/>
<path d="M105.114 27.7642C105.299 27.8853 105.458 27.934 105.503 28.0344C105.523 28.0952 105.528 28.1599 105.517 28.223C105.507 28.2861 105.481 28.3458 105.443 28.3971C105.163 28.6807 105.299 28.7921 105.584 28.9346C105.807 29.0526 106.005 29.21 106.171 29.3992C106.198 29.4557 106.211 29.5184 106.207 29.5812C106.203 29.6439 106.183 29.7046 106.149 29.7573C106.089 29.7939 106.021 29.8154 105.95 29.82C105.88 29.8247 105.81 29.8123 105.746 29.7839C105.553 29.595 105.371 29.395 105.202 29.185C105.059 29.0116 104.888 28.8639 104.695 28.7478C104.446 28.6275 104.386 28.496 104.558 28.2966C104.723 28.1097 104.917 27.9517 105.114 27.7642Z" fill="white"/>
<path d="M113.057 22.4847C112.619 22.4847 112.491 22.2935 112.658 22.0291C112.825 21.7647 112.738 21.6517 112.489 21.5173C112.29 21.3989 112.118 21.2408 111.984 21.0528C111.954 20.9974 111.938 20.9353 111.938 20.8723C111.938 20.8092 111.954 20.7471 111.984 20.6917C112.031 20.6462 112.089 20.6121 112.151 20.5917C112.214 20.5714 112.28 20.5654 112.346 20.5743C112.503 20.5959 112.647 20.6741 112.75 20.7942C112.854 20.9143 112.91 21.068 112.908 21.2264C112.916 21.5698 113.034 21.733 113.391 21.7226C113.485 21.7226 113.583 21.8053 113.678 21.8504C113.65 21.9408 113.606 22.0255 113.549 22.1007C113.367 22.2595 113.17 22.3991 113.057 22.4847Z" fill="white"/>
<path d="M103.945 29.4368C103.801 29.3974 103.668 29.3287 103.552 29.2351C103.289 28.9738 103.074 28.6684 102.917 28.3327C102.902 28.209 102.914 28.0836 102.953 27.9652C102.992 27.8469 103.057 27.7386 103.143 27.6482C103.229 27.5845 103.328 27.5399 103.433 27.5174C103.537 27.4948 103.646 27.4949 103.75 27.5175C103.972 27.5603 104.015 27.767 103.835 27.9465C103.776 28.0063 103.673 28.0204 103.613 28.0824C103.525 28.174 103.41 28.2811 103.399 28.3903C103.393 28.4583 103.547 28.5513 103.644 28.6192C103.856 28.7397 104.055 28.8832 104.236 29.0469C104.409 29.2507 104.286 29.4383 103.945 29.4368Z" fill="white"/>
<path d="M112.761 27.3467C112.563 27.4833 112.322 27.5454 112.082 27.5222C111.842 27.4989 111.618 27.3918 111.45 27.2197C111.324 27.0429 111.149 26.9066 110.947 26.8278C110.745 26.7491 110.523 26.7313 110.311 26.7766C110.215 26.8003 110.115 26.7983 110.021 26.771C109.926 26.7436 109.84 26.6918 109.772 26.6208C109.704 26.5497 109.656 26.462 109.632 26.3665C109.609 26.2709 109.612 26.1709 109.64 26.0766C109.655 25.9953 109.742 25.9288 109.797 25.855C109.862 25.903 109.965 25.94 109.985 26.0027C110.086 26.3232 110.293 26.3963 110.616 26.3845C110.796 26.3591 110.979 26.3914 111.138 26.477C111.298 26.5625 111.427 26.6968 111.505 26.8601C111.571 27.0455 111.707 27.198 111.884 27.2858C112.061 27.3736 112.265 27.3898 112.453 27.3312C112.556 27.3194 112.66 27.3246 112.761 27.3467Z" fill="white"/>
<path d="M115.16 21.8843L115.657 22.1797C115.583 22.2993 115.532 22.475 115.424 22.5275C115.166 22.654 114.895 22.7509 114.615 22.8163C114.562 22.816 114.51 22.8023 114.464 22.7764C114.418 22.7506 114.379 22.7135 114.351 22.6686C114.346 22.6174 114.353 22.5658 114.372 22.5178C114.39 22.4699 114.42 22.4271 114.459 22.3931C114.674 22.2122 114.912 22.06 115.16 21.8843Z" fill="white"/>
<path d="M106.006 20.3371C105.618 20.326 104.99 19.7412 105.021 19.4805C105.047 19.424 105.087 19.375 105.137 19.3381C105.188 19.3011 105.246 19.2775 105.308 19.2693C105.509 19.3128 105.694 19.4098 105.843 19.55C105.993 19.6903 106.101 19.8684 106.157 20.0654C106.166 20.1651 106.042 20.2773 106.006 20.3371Z" fill="white"/>
<path d="M113.115 30.3886C113.369 30.3139 113.642 30.3391 113.878 30.4589C114.114 30.5786 114.295 30.7839 114.384 31.0326C114.401 31.0694 114.41 31.1097 114.409 31.1503C114.408 31.1909 114.397 31.2308 114.378 31.2667C114.319 31.3272 114.181 31.3878 114.121 31.3583C113.899 31.2592 113.692 31.1277 113.508 30.9683C113.357 30.7894 113.225 30.5951 113.115 30.3886Z" fill="white"/>
<path d="M110.105 20.1799C110.209 20.1953 110.31 20.2311 110.4 20.2852C110.491 20.3393 110.57 20.4107 110.632 20.4953C110.695 20.5799 110.74 20.676 110.766 20.7781C110.791 20.8803 110.796 20.9865 110.78 21.0905C110.75 21.1288 110.711 21.159 110.666 21.1784C110.621 21.1979 110.572 21.206 110.523 21.202C110.352 21.1615 110.194 21.0797 110.062 20.9638C109.93 20.8479 109.829 20.7015 109.768 20.5374C109.676 20.3505 109.85 20.1807 110.105 20.1799Z" fill="white"/>
<path d="M106.499 21.444C106.447 21.3879 106.277 21.2912 106.25 21.1612C106.191 20.8872 106.594 20.5822 106.996 20.6088C107.136 20.6177 107.358 20.7277 107.387 20.8348C107.456 21.0858 106.971 21.4418 106.499 21.444Z" fill="white"/>
<path d="M114.821 21.6132C114.786 21.6546 114.711 21.8347 114.603 21.8584C114.318 21.9152 113.821 21.4684 113.863 21.1937C113.886 21.1197 113.926 21.0525 113.981 20.9978C114.036 20.9431 114.103 20.9026 114.177 20.8799C114.531 20.8348 114.821 21.1428 114.821 21.6132Z" fill="white"/>
<path d="M106.294 28.9546C106.463 28.4303 106.765 28.2088 107.25 28.2856C107.308 28.2929 107.364 28.3129 107.413 28.3442C107.463 28.3754 107.505 28.4172 107.537 28.4665C107.563 28.5463 107.479 28.6991 107.399 28.7722C107.245 28.893 107.063 28.9731 106.87 29.005C106.677 29.0369 106.479 29.0196 106.294 28.9546Z" fill="white"/>
<path d="M107.734 29.5121C107.916 29.5161 108.092 29.5854 108.228 29.7074C108.363 29.8293 108.451 29.9959 108.474 30.1768C108.519 30.4374 108.354 30.6043 108.14 30.4677C107.884 30.2986 107.663 30.0811 107.491 29.8274C107.362 29.6428 107.503 29.5069 107.734 29.5121Z" fill="white"/>
<path d="M117.068 21.8998C116.994 21.9471 116.876 22.0866 116.748 22.0984C116.575 22.0807 116.414 22.0034 116.293 21.8799C116.171 21.7564 116.096 21.5945 116.082 21.422C116.102 21.3606 116.138 21.3053 116.185 21.2611C116.233 21.2168 116.291 21.1851 116.353 21.1687C116.449 21.1686 116.543 21.1875 116.631 21.2244C116.719 21.2613 116.799 21.3155 116.866 21.3836C116.933 21.4519 116.985 21.5328 117.02 21.6216C117.055 21.7104 117.071 21.8052 117.069 21.9005L117.068 21.8998Z" fill="white"/>
<path d="M116.798 30.6323C116.673 30.5422 116.538 30.4906 116.497 30.3968C116.47 30.3355 116.556 30.1752 116.634 30.1294C116.884 29.9873 117.147 29.8701 117.42 29.7793C117.486 29.7579 117.642 29.8791 117.683 29.9669C117.709 30.0275 117.623 30.1833 117.546 30.2321C117.311 30.3805 117.056 30.4972 116.798 30.6323Z" fill="white"/>
<path d="M112.37 30.2159C112.329 30.1775 112.148 30.0807 112.133 29.9662C112.101 29.7056 112.478 29.3792 112.777 29.4154C112.859 29.427 112.938 29.4575 113.006 29.5044C113.074 29.5513 113.13 29.6133 113.171 29.6856C113.231 29.8835 112.77 30.2137 112.37 30.2159Z" fill="white"/>
<path d="M110.398 29.9346C110.361 29.8962 110.19 29.8031 110.168 29.682C110.122 29.425 110.51 29.0706 110.79 29.1149C110.922 29.1355 111.122 29.2825 111.134 29.3904C111.173 29.7249 110.898 29.9479 110.398 29.9346Z" fill="white"/>
<path d="M105.367 20.2913C105.199 20.9655 104.87 21.2188 104.467 21.08C104.407 21.0575 104.352 21.0225 104.306 20.9773C104.261 20.9321 104.225 20.8777 104.202 20.8178C104.183 20.744 104.3 20.5726 104.391 20.5416C104.679 20.4404 104.985 20.3843 105.367 20.2913Z" fill="white"/>
<path d="M108.79 29.7365C108.664 29.6065 108.466 29.4942 108.427 29.3421C108.359 29.0822 108.707 28.7573 109.001 28.8023C109.074 28.8231 109.141 28.8615 109.196 28.9142C109.25 28.9669 109.291 29.0322 109.314 29.1043C109.351 29.4447 109.152 29.6553 108.79 29.7365Z" fill="white"/>
<path d="M110.745 21.8991C110.776 21.4442 110.93 21.2957 111.263 21.3511C111.434 21.3799 111.671 21.4567 111.733 21.583C111.807 21.7388 111.278 22.19 111.082 22.1346C110.956 22.0781 110.841 21.9982 110.745 21.8991Z" fill="white"/>
<path d="M112.192 26.7502C112.098 26.6299 111.99 26.5501 111.97 26.4504C111.942 26.1801 111.896 25.9121 111.83 25.6484C111.707 25.4204 111.555 25.2087 111.378 25.0185C111.477 24.9958 111.58 24.9961 111.679 25.0193C111.778 25.0425 111.87 25.0879 111.949 25.1521C112.027 25.2163 112.09 25.2976 112.133 25.3897C112.175 25.4819 112.196 25.5825 112.193 25.6838C112.198 26.0132 112.192 26.3411 112.192 26.7502Z" fill="white"/>
<path d="M115.938 31.3561C115.759 31.3715 115.582 31.3154 115.445 31.2003C115.377 31.1431 115.321 31.0732 115.28 30.9946C115.24 30.9159 115.215 30.83 115.207 30.7417C115.224 30.6844 115.254 30.6322 115.296 30.5895C115.338 30.5469 115.389 30.5152 115.446 30.4973C115.695 30.4589 116.156 30.8429 116.134 31.0762C116.125 31.1914 115.981 31.2985 115.938 31.3561Z" fill="white"/>
<path d="M117.814 31.642C117.377 31.642 117.049 31.3414 117.081 31.0327C117.094 30.9816 117.12 30.9345 117.155 30.8958C117.191 30.857 117.236 30.828 117.286 30.8112C117.616 30.7905 118.032 31.1273 118 31.3894C117.985 31.498 117.853 31.5918 117.814 31.642Z" fill="white"/>
<path d="M114.284 30.4684C114.177 30.2394 114.079 30.1302 114.086 30.0253C114.128 29.8504 114.234 29.6978 114.385 29.5985C114.535 29.4992 114.717 29.4607 114.895 29.4906C114.979 29.5494 115.037 29.639 115.056 29.7401C114.845 29.9661 114.611 30.1693 114.284 30.4684Z" fill="white"/>
<path d="M103.953 20.3342C103.746 20.1865 103.541 20.0499 103.356 19.8911C103.331 19.869 103.417 19.6504 103.438 19.6526C103.696 19.6708 103.951 19.7175 104.199 19.7922C104.289 19.8239 104.329 20.0012 104.391 20.1127L103.953 20.3342Z" fill="white"/>
<path d="M112.002 30.5665C111.882 30.681 111.78 30.8508 111.638 30.8914C111.416 30.9549 111.144 30.6241 111.165 30.3317C111.178 30.2805 111.203 30.2333 111.239 30.1946C111.275 30.1559 111.32 30.1268 111.37 30.1101C111.442 30.097 111.516 30.0985 111.587 30.1145C111.658 30.1305 111.725 30.1607 111.784 30.2032C111.843 30.2458 111.893 30.3001 111.93 30.3625C111.968 30.425 111.992 30.4944 112.002 30.5665Z" fill="white"/>
<path d="M109.553 29.9011C109.933 29.9417 110.197 30.0267 110.182 30.3553C110.177 30.4601 109.979 30.6226 109.853 30.6418C109.618 30.6757 109.353 30.3597 109.391 30.1189C109.405 30.0244 109.517 29.944 109.553 29.9011Z" fill="white"/>
<path d="M118.545 30.3796L119.045 30.7799C118.909 30.8729 118.769 31.0472 118.638 31.0406C118.436 30.9953 118.243 30.9159 118.068 30.8058L118.545 30.3796Z" fill="white"/>
<path d="M107.141 22.9292C107.027 23.1796 106.933 23.4255 106.802 23.6552C106.766 23.7172 106.568 23.7696 106.541 23.7386C106.451 23.6519 106.398 23.5335 106.393 23.4085C106.439 23.1663 106.898 22.9078 107.141 22.9292Z" fill="white"/>
<path d="M110.913 23.1094C111.074 23.3029 111.247 23.466 111.228 23.4911C111.122 23.6386 110.986 23.7622 110.829 23.8538C110.8 23.87 110.561 23.6559 110.577 23.5864C110.612 23.4424 110.754 23.3235 110.913 23.1094Z" fill="white"/>
<path d="M116.29 27.5964C116.182 27.7349 116.053 27.8559 115.908 27.9553C115.834 27.9937 115.64 27.905 115.574 27.8186C115.526 27.7566 115.574 27.5189 115.623 27.5041C115.817 27.4609 116.016 27.4361 116.215 27.4302L116.29 27.5964Z" fill="white"/>
<path d="M110.832 26.0523C110.749 25.8507 110.673 25.757 110.684 25.6706C110.695 25.5842 110.789 25.5014 110.846 25.418C110.911 25.4918 111.029 25.5657 111.029 25.6395C111.029 25.7429 110.939 25.8433 110.832 26.0523Z" fill="white"/>
<path d="M108.247 23.6212C108.342 23.5667 108.447 23.5324 108.556 23.5208C108.604 23.5318 108.649 23.5547 108.686 23.5874C108.723 23.62 108.751 23.6613 108.768 23.7076C108.762 23.7557 108.744 23.8014 108.715 23.8402C108.686 23.8791 108.647 23.9097 108.603 23.9292C108.535 23.9469 108.438 23.8501 108.353 23.8036L108.247 23.6212Z" fill="white"/>
<path d="M111.004 24.9799H110.412C110.412 24.9529 110.412 24.9255 110.412 24.8979H111.004V24.9799Z" fill="white"/>
<path d="M105.712 26.0323C105.682 25.9518 105.621 25.8661 105.632 25.7915C105.644 25.717 105.728 25.6505 105.781 25.5811C105.826 25.6549 105.901 25.7288 105.906 25.8026C105.911 25.8765 105.843 25.9577 105.807 26.0352L105.712 26.0323Z" fill="white"/>
</g>
<defs>
<clipPath id="clip0_412_6649">
<rect width="128" height="48" fill="white"/>
</clipPath>
</defs>
</svg>
