<svg width="128" height="48" fill="none" xmlns="http://www.w3.org/2000/svg"><g clip-path="url(#clip0_412_6649)" fill="#fff"><path d="M22.199 15.01c.064 3.872.121 7.745.199 11.617.022 1.108.098 2.221.157 3.331.027.517.138.606.643.6.814-.009 1.628-.014 2.443-.015.453 0 .61.148.57.585-.16 1.79-.332 3.58-.501 5.37a.401.401 0 01-.453.4c-.6 0-1.202.006-1.803 0-.392-.006-.491-.136-.491-.536 0-.739-.008-1.476-.023-2.21-.008-.414-.133-.528-.592-.549-1.09-.048-2.179-.122-3.269-.128-3.295-.018-6.59-.018-9.885 0-1.052.005-2.103.086-3.154.13a.557.557 0 00-.601.54c-.094.755-.207 1.508-.288 2.265-.036.339-.187.497-.525.497-.592-.004-1.178 0-1.767 0-.32 0-.518-.124-.518-.49-.006-1.748-.023-3.497-.038-5.243-.005-.517.083-.611.605-.617h.038c1.33.074 1.156-.05 1.474-1.17.707-2.499 1.402-5.003 2.121-7.498.506-1.752 1.03-3.5 1.573-5.244a231.3 231.3 0 011.642-5.061c.922-2.72 1.89-5.426 2.8-8.15.41-1.23.376-1.079 1.504-1.08 2.632 0 5.263-.004 7.895-.014.391 0 .523.16.51.612-.046 1.624-.12 3.25-.135 4.87-.023 2.398-.006 4.8-.006 7.197l-.125-.01zm-2.879 2.963h-.064v-1.349l-.039-10.641c0-.492-.148-.678-.592-.678-1.228 0-2.455.014-3.682.017a.552.552 0 00-.578.432c-.45 1.39-.918 2.775-1.361 4.166a1214.95 1214.95 0 00-2.147 6.787c-.654 2.11-1.31 4.221-1.915 6.346-.64 2.245-1.221 4.504-1.826 6.76-.17.635-.08.746.586.746h10.936c.774 0 .842-.05.818-.822-.044-1.51-.119-3.02-.133-4.531-.024-2.409-.007-4.82-.007-7.23l.004-.003zm95.071 20.007a28.876 28.876 0 01-10.036-1.6 31.854 31.854 0 01-4.02-1.75 4.467 4.467 0 01-2.375-3.449 21.437 21.437 0 01.032-4.785 66.79 66.79 0 011.24-9.618 3.77 3.77 0 011.659-2.403c.082-.058.17-.107.248-.17.3-.246.274-.47-.09-.604a7.494 7.494 0 01-2.71-1.772c-.342-.341-.312-.507.138-.688.273-.108.31-.267.079-.51a5.253 5.253 0 01-1.174-2.316c-.074-.26-.179-.554.074-.771.268-.226.524-.01.769.087.603.242 1.184.55 1.804.733.435.11.886.143 1.333.098.37-.025.468-.267.286-.586A11.844 11.844 0 0098.73 4.2a8.336 8.336 0 00-1.308-.864.865.865 0 00-.677.147 7.57 7.57 0 01-3.52 1.302 1.435 1.435 0 01-1.294-.538.51.51 0 01.048-.819c.471-.344.99-.62 1.486-.93.14-.087.269-.193.4-.291a1.78 1.78 0 00-.363-.338c-.512-.261-.62-.49-.374-1.018.094-.242.247-.458.444-.627a.815.815 0 01.645-.087c.318.116.616.28.883.488a2.386 2.386 0 001.959.4A26.434 26.434 0 0199.76.61a2.763 2.763 0 011.815.44c.535.353.93.88 1.117 1.493.109.208.242.404.395.583.088-.208.165-.422.268-.624.124-.296.282-.576.471-.836a4.26 4.26 0 012.29-1.28 16.09 16.09 0 014.893-.329c2.328.128 4.638.492 6.892 1.086 1.686.389 3.32.974 4.869 1.744a6.218 6.218 0 012.157 1.766c.478.686.675 1.527.552 2.353a7.733 7.733 0 01-1.414 3.78 3.81 3.81 0 01-.508.55.46.46 0 00-.026.725 4.293 4.293 0 002.492 1.566 46.3 46.3 0 011.476.287c.524.11.626.338.339.791a3.46 3.46 0 01-1.982 1.52c-.562.164-1.149.254-1.717.403a.702.702 0 00-.433.28c-.042.09.1.315.214.423a3.504 3.504 0 011.199 3.02c-.186 1.84-.354 3.68-.575 5.514-.29 2.418-.635 4.83-.933 7.247a4.536 4.536 0 01-3.163 3.875 18.204 18.204 0 01-6.058.995zm3.52-2.35l.02-.128c.222 0 .452.015.676 0a2.9 2.9 0 002.504-1.417c.286-.526.49-1.093.604-1.681.26-1.31.473-2.63.651-3.955.33-2.487.617-4.98.927-7.47a2.612 2.612 0 00-.72-2.308c-.337-.333-.709-.63-1.06-.948a.832.832 0 00-.942-.138c-.559.221-1.12.436-1.685.634a6.352 6.352 0 01-5.568-.504c-.46-.272-.484-.336-.263-.833.155-.35.088-.504-.29-.529a8.602 8.602 0 00-1.312 0c-1.061.09-2.117.233-3.179.318a5.504 5.504 0 01-4.242-1.245.556.556 0 00-.697-.074c-.421.245-.825.516-1.211.813a2.908 2.908 0 00-1.052 1.846c-.511 3.093-.962 6.197-1.173 9.327a11.8 11.8 0 00.094 2.682 3.297 3.297 0 002.451 2.93c.95.261 1.924.432 2.907.511a46.89 46.89 0 018.627 1.398c1.292.33 2.622.518 3.935.772h-.002zm-.613-27.058c.576 0 1.155.03 1.728-.006a9.678 9.678 0 004.038-.91c1.319-.705 1.809-1.877.545-3.062a5.63 5.63 0 00-1.528-1.064 39.591 39.591 0 00-3.978-1.55 27.723 27.723 0 00-9.487-1.275c-.979 0-1.95.188-2.858.554a1.742 1.742 0 00-1.209 1.553c-.013.232.02.465.098.685a3.8 3.8 0 001.326 1.91 10.47 10.47 0 003.506 1.84 25.33 25.33 0 007.818 1.325h.001zm-3.21 28.707a24.401 24.401 0 005.399-.602 4.538 4.538 0 003.534-3.865c.166-1.589.451-3.166.642-4.753.306-2.567.588-5.137.861-7.709.022-.31-.01-.622-.097-.92a4.561 4.561 0 00-1.379-2.063.824.824 0 00-.407-.251 1.508 1.508 0 00-.506.11c.024.148.074.29.148.42.314.37.68.702.977 1.085.345.371.542.854.557 1.36-.027.637-.031 1.277-.11 1.908-.296 2.38-.603 4.758-.945 7.131a65.197 65.197 0 01-.755 4.351 3.095 3.095 0 01-2.125 2.335 5.237 5.237 0 01-2.553.306c-1.446-.221-2.901-.435-4.318-.783a31.227 31.227 0 00-6.734-1.09 19.988 19.988 0 01-3.497-.422 3.984 3.984 0 01-3.117-2.693 8.055 8.055 0 01-.394-3.323c.075-.984.154-1.97.285-2.946.334-2.437.697-4.874 1.055-7.305a2.672 2.672 0 01.934-1.71c.478-.398 1.024-.713 1.532-1.079.112-.103.209-.22.292-.348a1.788 1.788 0 00-.426-.24 1.142 1.142 0 00-.998.203c-.398.302-.798.605-1.171.936a2.556 2.556 0 00-.826 1.556c-.359 2.27-.751 4.535-1.067 6.81a34.844 34.844 0 00-.397 6.09 4.969 4.969 0 002.878 4.602 27.913 27.913 0 006.166 2.12c2.152.49 4.351.751 6.559.778l.003.001zm3.85-25.67c.633-.044 1.273-.066 1.906-.137a6.177 6.177 0 003.378-1.204 4.392 4.392 0 001.471-2.244 1.048 1.048 0 00-.038-.382 1.704 1.704 0 00-.361.128 5.365 5.365 0 01-.973.624 16.95 16.95 0 01-2.696.768 22.994 22.994 0 01-8.361-.378 19.218 19.218 0 01-4.665-1.516c-1.493-.73-2.888-1.58-3.561-3.215a.29.29 0 00-.222-.153.298.298 0 00-.179.205c-.059.318-.096.64-.131.96a3.066 3.066 0 001.61 3.25 23.669 23.669 0 003.041 1.462 30.216 30.216 0 009.78 1.833l.001-.002zm-3.53 2.033a.555.555 0 00-.498-.564 294.23 294.23 0 00-2.632-.591c-1.185-.261-2.369-.512-3.548-.784a.598.598 0 00-.74.26c-.6 1-1.405 1.86-2.363 2.525-.357.23-.325.457.05.722a4.359 4.359 0 002.769.88 41.701 41.701 0 002.429-.192 12.308 12.308 0 013.437-.114.637.637 0 00.505-.332c.232-.59.398-1.203.588-1.808l.003-.002zm2.047 4.373a8.356 8.356 0 002.968-.624c1.023-.369 2.05-.726 3.071-1.099.128-.047.309-.14.33-.241a.475.475 0 00-.199-.357 4.391 4.391 0 01-1.34-1.684c-.339-.696-.386-.696-1.164-.56-1.487.305-3.02.316-4.511.031-.434-.095-.563.06-.72.538a57.34 57.34 0 01-1.018 2.806c-.13.334-.106.505.236.654.73.358 1.533.542 2.346.54l.001-.004zm-12.277-4.144c.246-.096.478-.226.689-.386.523-.532 1.01-1.1 1.505-1.658.296-.33.222-.5-.168-.708a37.245 37.245 0 01-2.097-1.215c-.286-.18-.519-.191-.732.05a4.777 4.777 0 01-3.49 1.568c-.16.037-.314.1-.454.186.1.148.167.343.304.425.46.302.947.56 1.455.772.97.357 1.968.641 2.986.965h.002zm20.196 2.1a3.862 3.862 0 002.386-1.049c.272-.246.196-.468-.158-.558-.074-.018-.148-.021-.222-.038a5.682 5.682 0 01-3.187-1.609.733.733 0 00-.48-.232.916.916 0 00-.897.823.897.897 0 00.064.434 4.183 4.183 0 001.34 1.677 1.643 1.643 0 001.152.555l.002-.003zm-22.528-8.869l.201-.131a5.117 5.117 0 00-.288-.777c-.366-.65-.741-1.3-1.153-1.92a5.478 5.478 0 00-2.926-2.222A15.116 15.116 0 0194.348.797a.527.527 0 00-.504.114.617.617 0 00.083.548c.153.128.339.21.536.234 1.315.323 2.57.855 3.715 1.575 1.335.85 2.46 1.992 3.29 3.338.117.173.242.338.377.497l.001-.001zm-1.858 3.927a4.262 4.262 0 002.642-1.107 3.13 3.13 0 00.403-.548 2.406 2.406 0 00-.639-.177 7.893 7.893 0 01-3.815-.77 1.102 1.102 0 00-.415-.03 1.25 1.25 0 000 .426c.26.759.717 1.435 1.325 1.96.154.105.322.188.5.245l-.001.001zm14.586 1.038v-.137c-.127-.028-.252-.061-.38-.083-1.072-.186-2.151-.332-3.212-.563a18.488 18.488 0 01-5.84-2.184 2.677 2.677 0 00-.661-.198c.1.213.228.412.381.591a7.653 7.653 0 002.763 1.462 24.73 24.73 0 006.133 1.19c.273-.002.546-.027.815-.075l.001-.003zm-11.867-5.753a1.56 1.56 0 00.079-.363c-.08-.717-.143-1.439-.265-2.15a4.52 4.52 0 00-.36-1.02 2.567 2.567 0 00-2.63-1.725 10.81 10.81 0 00-1.546.244c-.08.015-.169.147-.192.237-.01.043.124.167.202.175.363.068.733.089 1.102.062a2.05 2.05 0 012.184.688c.169.211.293.455.367.715.207.613.372 1.24.495 1.876.072.462.266.897.562 1.261h.002zm-9.502-2.156a7.973 7.973 0 002.895-.979c.263-.138.179-.344-.035-.458a1.335 1.335 0 00-1.218-.142 92.31 92.31 0 00-1.67.756 1.17 1.17 0 00-.35.212c-.085.086-.184.237-.161.33.023.095.177.181.29.242a.71.71 0 00.247.04l.002-.001zm28.618 7.882l-.07-.183c-.296.029-.597.053-.895.087-1.333.152-2.665.298-3.991.471-.161.021-.303.186-.454.285.162.088.323.178.486.265a.15.15 0 00.074 0c.849-.065 1.703-.102 2.545-.205a12.53 12.53 0 001.725-.363c.209-.09.403-.21.577-.357h.003zm-20.229-7.264l.115-.028a1.078 1.078 0 00-.032-.335 6.485 6.485 0 00-.577-1.204 4.851 4.851 0 00-.949-.917c-.097-.074-.311-.007-.473-.005.05.142.114.278.194.405.407.517.829 1.017 1.247 1.522.153.192.315.377.475.564v-.002zm.893 3.544c.139.162.295.309.466.437.135.043.278.06.419.047-.012-.185-.021-.37-.036-.555a.168.168 0 00-.042-.102c-.129-.125-.264-.244-.397-.365l-.41.538zM91.14 33.774h-1.467c-.306 0-.436-.166-.497-.45-.445-2.036-.876-4.074-1.348-6.103-.246-1.057-.564-2.097-.846-3.145-.115-.424-.23-.508-.74-.508l-8.983.007c-.3 0-.601-.007-.902 0a.514.514 0 00-.536.429c-.538 2.118-1.099 4.23-1.613 6.35-.241.994-.399 2.008-.588 3.013a.441.441 0 01-.489.411c-.914-.005-1.83-.003-2.743-.014-.409-.004-.544-.182-.427-.577.37-1.245.74-2.49 1.129-3.729.56-1.772 1.136-3.544 1.715-5.31.473-1.448.962-2.891 1.438-4.339.417-1.268.82-2.542 1.237-3.81.556-1.699 1.138-3.385 1.674-5.088a284.44 284.44 0 001.675-5.56c.255-.873.464-1.76.689-2.642a.431.431 0 01.454-.37c1.165-.005 2.33-.009 3.495-.005.271 0 .414.153.485.428.444 1.703.88 3.407 1.359 5.1.405 1.442.85 2.872 1.298 4.3.663 2.109 1.346 4.21 2.017 6.317.433 1.368.864 2.737 1.293 4.108.563 1.8 1.133 3.597 1.685 5.4.318 1.04.61 2.086.901 3.132.184.665.342 1.33.515 1.994.129.496.017.652-.489.657-.463.003-.927 0-1.39 0l-.002.004zm-9.812-13.27V20.5h4.02c.47 0 .603-.171.487-.634-.024-.096-.06-.19-.09-.285-.455-1.477-.91-2.956-1.364-4.437-.444-1.456-.907-2.908-1.329-4.37-.455-1.582-.868-3.175-1.313-4.764a2.187 2.187 0 00-.278-.48c-.121.157-.245.312-.36.473-.027.038-.02.097-.033.147-.2.76-.38 1.526-.605 2.278-.445 1.493-.92 2.979-1.383 4.469-.396 1.275-.788 2.551-1.19 3.825-.33 1.048-.678 2.09-1.008 3.137-.143.453.009.651.463.65h3.982l.001-.003zM40.494 2.34c.552 0 1.102.005 1.654 0a.503.503 0 01.55.443c.452 1.727.895 3.456 1.39 5.17.535 1.86 1.118 3.707 1.697 5.554.65 2.074 1.324 4.14 1.98 6.212.68 2.155 1.363 4.31 2.023 6.473.583 1.91 1.14 3.828 1.703 5.745.125.431.23.87.328 1.308.074.335-.05.517-.399.517-1.002.013-2.004.005-3.007 0a.44.44 0 01-.43-.26.435.435 0 01-.036-.174 68.704 68.704 0 00-1.8-7.728c-.138-.506-.284-1.01-.406-1.52a.592.592 0 00-.66-.52c-3.296.005-6.592.005-9.887 0a.58.58 0 00-.64.495 6421.4 6421.4 0 01-2.105 8.66 4.892 4.892 0 00-.064.595.444.444 0 01-.486.458c-.927 0-1.851.004-2.782 0-.383 0-.503-.191-.383-.61.211-.745.426-1.49.66-2.227.68-2.155 1.369-4.309 2.062-6.46.792-2.447 1.6-4.89 2.4-7.334.8-2.444 1.614-4.884 2.395-7.333.474-1.487.908-2.986 1.34-4.486.249-.862.46-1.735.683-2.603a.48.48 0 01.533-.375h1.69-.003zm-.386 18.158h3.982c.478 0 .637-.213.498-.669-.438-1.419-.889-2.835-1.321-4.254-.553-1.802-1.117-3.6-1.64-5.41-.414-1.426-.77-2.867-1.165-4.299-.035-.126-.163-.226-.248-.338-.108.105-.222.205-.32.318-.039.042-.032.118-.05.178-.463 1.642-.909 3.293-1.396 4.93-.402 1.35-.856 2.686-1.283 4.03-.506 1.593-1.005 3.189-1.512 4.78-.17.533-.039.731.513.731l3.942.003zm27.047-3.878c.086 5.293.144 9.177.216 13.061.021 1.137.086 2.272.13 3.408.02.55-.115.69-.674.69-.751 0-1.503 0-2.255-.007-.48-.004-.602-.136-.592-.607l.275-12.812c.012-.525-.182-.69-.69-.556a21.47 21.47 0 01-6.706.614 6.98 6.98 0 01-4.62-1.82 6.3 6.3 0 01-1.638-2.983 17.356 17.356 0 01-.602-4.108c-.102-2.87-.16-5.742-.234-8.613-.012-.452.101-.553.544-.553.788 0 1.578-.007 2.37-.015.327 0 .469.135.453.49-.054 1.235-.13 2.47-.17 3.705a27.338 27.338 0 00.536 7.227 4.1 4.1 0 001.164 2.167c.6.587 1.367.976 2.197 1.115 2.12.42 4.307.373 6.407-.138.182-.039.352-.13.532-.181a.593.593 0 00.465-.67c-.029-2.123-.023-4.247-.068-6.37-.047-2.235-.138-4.469-.213-6.704-.017-.507.088-.626.596-.626h2.406c.408 0 .527.137.518.553l-.347 13.733zm-24.11 27.255v-1.724c0-.443.137-.591.539-.591.453 0 .606.153.605.611-.022.274-.017.549.012.822.03.152.188.369.316.39.156.027.35-.11.51-.203a.385.385 0 00.115-.229 2.115 2.115 0 012.409-1.451 1.875 1.875 0 011.832 1.718 3.253 3.253 0 01-.276 1.963c-.603 1.255-2.829 1.355-3.54.423-.191-.29-.347-.6-.464-.927-.111-.258-.23-.493-.562-.439-.344.056-.366.328-.362.604.004.276.02.55.004.824-.02.37-.214.504-.646.493-.349-.008-.492-.18-.486-.517.01-.587 0-1.174 0-1.762l-.006-.005zm5.31.02l-.073-.039a4.61 4.61 0 00-.094-.664.952.952 0 00-.982-.812.993.993 0 00-.941.819 2.227 2.227 0 00.056 1.537.902.902 0 00.726.606.906.906 0 00.87-.37c.188-.34.334-.7.436-1.075l.003-.002zm53.458-.454v1.2c0 .277.074.488.39.546a.443.443 0 01.362.496c0 .513-.002 1.025-.005 1.537a.423.423 0 01-.28.446.428.428 0 01-.187.022.467.467 0 01-.525-.498c0-.174.014-.35.015-.524 0-.41-.115-.54-.537-.545-.801-.009-1.603-.009-2.404 0-.391 0-.515.135-.524.522-.005.2.01.4 0 .6-.007.258-.126.437-.403.442-.276.006-.536-.082-.552-.386-.027-.56-.025-1.123.008-1.684a.593.593 0 01.255-.389 1.78 1.78 0 00.725-1.143c.153-.64.276-1.29.37-1.948a.541.541 0 01.367-.515.547.547 0 01.222-.03c.727-.01 1.453-.007 2.179-.004a.465.465 0 01.521.54c-.006.438 0 .875 0 1.312l.003.003zm-1.125.459h.01v-.411c0-.148-.008-.3-.011-.45-.008-.324-.12-.556-.491-.584-.41-.031-.574.105-.687.517-.163.597-.346 1.19-.536 1.78-.09.283-.01.46.277.47.313.015.627.009.938-.005a.468.468 0 00.375-.148.472.472 0 00.124-.382v-.785l.001-.002zM0 45.958v-.83l.036-.007.053.28h.074l.182-1.703c.053-.508.093-1.019.16-1.527.054-.417.227-.56.643-.591.796-.06 1.051.099 1.306.864.17.509.296 1.034.465 1.54.078.143.178.271.297.382.107-.11.197-.234.268-.37.202-.577.37-1.165.567-1.745a1.09 1.09 0 011.564-.579.7.7 0 01.265.458c.148 1.164.273 2.33.402 3.498a.403.403 0 01-.37.509c-.37.058-.645-.086-.688-.403-.063-.482-.087-.97-.129-1.454-.023-.274-.034-.55-.081-.82a1.297 1.297 0 00-.18-.348c-.093.086-.23.153-.272.26-.121.313-.201.641-.303.96-.136.43-.284.854-.413 1.284a.63.63 0 01-.667.53.634.634 0 01-.653-.546c-.207-.72-.43-1.436-.667-2.147a1.543 1.543 0 00-.259-.37 1.464 1.464 0 00-.197.409c-.087.656-.148 1.315-.218 1.973-.07.658-.34.822-.953.57A1.635 1.635 0 010 45.957zm62.322-4.371a.857.857 0 01.945.67c.194.618.388 1.238.593 1.852.057.117.13.225.217.323.1-.098.184-.21.25-.333.222-.636.406-1.285.635-1.92a1.117 1.117 0 011.574-.467c.142.135.23.315.25.51.138 1.127.248 2.258.375 3.386.033.296-.035.49-.366.529-.433.052-.636-.061-.681-.436-.075-.631-.12-1.268-.212-1.897a3.5 3.5 0 00-.253-.693 4.137 4.137 0 00-.328.62c-.226.673-.427 1.356-.636 2.036a.545.545 0 01-.613.382.555.555 0 01-.617-.378c-.206-.665-.396-1.34-.615-2.002-.091-.22-.2-.431-.326-.633a2.9 2.9 0 00-.257.64c-.09.617-.14 1.24-.203 1.862-.032.314-.166.51-.518.517-.445.004-.58-.138-.53-.591.118-1.066.237-2.132.344-3.2.069-.645.222-.787.972-.777zM54.659 43.6a2.431 2.431 0 01-1.066 2.33 2.097 2.097 0 01-3.137-1.123 5.699 5.699 0 01.333-3.978 1.742 1.742 0 011.178-.975c.651-.165 1.321-.27 1.986-.38a.367.367 0 01.328.051.366.366 0 01.148.296.541.541 0 01-.434.649c-.405.078-.82.105-1.226.18a1.385 1.385 0 00-1.244.931.442.442 0 00.043.37.445.445 0 00.37-.009c1.573-.683 2.718.08 2.72 1.657zm-1.122.286a4.726 4.726 0 00-.062-.517.9.9 0 00-.934-.757c-.503.014-1.077.428-1.077.87a4.01 4.01 0 00.206 1.315.833.833 0 001.31.341 1.417 1.417 0 00.553-1.25l.004-.002zm33.759.802c0-.836-.015-1.673.012-2.511a.786.786 0 01.255-.555c.21-.148.457-.035.622.177.222.284.438.191.679.017a1.466 1.466 0 011.786-.088c.344.26.601.618.74 1.025a3.66 3.66 0 01-.05 2.29 1.623 1.623 0 01-.95 1.05A1.633 1.633 0 0188.972 46c-.429-.222-.533-.153-.557.344-.023.467-.05.935-.119 1.396-.014.096-.212.216-.338.233-.192.027-.444.095-.518-.208a2.447 2.447 0 01-.143-.53c-.016-.849-.007-1.699-.007-2.547l.005-.001zm3.095-.94a5.447 5.447 0 00-.297-.91.682.682 0 00-1.08-.222 1.729 1.729 0 00-.503 1.97 1.143 1.143 0 001.004.664.967.967 0 00.763-.825c.048-.192.067-.392.115-.679l-.002.002zm-30.472.144v1.686c0 .426-.154.581-.553.578-.452 0-.584-.126-.583-.573 0-.5.024-1 .012-1.498a1.188 1.188 0 00-.157-.384 1.253 1.253 0 00-.348.23c-.46.608-.889 1.238-1.352 1.841a.998.998 0 01-.5.352c-.518.129-.715-.057-.716-.59 0-1.1-.004-2.199-.011-3.298 0-.505.148-.681.582-.672.434.01.578.194.568.692-.01.462-.03.925-.022 1.386.027.127.075.247.143.357.12-.047.23-.115.327-.2.471-.615.915-1.25 1.396-1.858.14-.17.328-.293.54-.352.452-.115.679.107.675.578-.006.574-.002 1.149-.002 1.725zm-35.155-.032v-1.761a.461.461 0 01.122-.381.466.466 0 01.37-.148c.424-.022.64.126.647.49.009.499-.028.999-.015 1.498.032.158.09.31.171.45.129-.081.247-.177.352-.287.434-.58.835-1.181 1.289-1.75a1.26 1.26 0 01.644-.393c.412-.1.626.135.622.561a298.04 298.04 0 00-.009 3.41c0 .453-.118.59-.558.601-.44.011-.582-.131-.578-.585.004-.486.038-.974.03-1.46a1.507 1.507 0 00-.168-.458 1.68 1.68 0 00-.332.264c-.482.638-.937 1.298-1.434 1.92a.996.996 0 01-.563.308c-.393.074-.58-.114-.583-.52v-1.762l-.007.002zm97.096-.02c0-.548-.007-1.097 0-1.646.007-.436.118-.598.538-.61.709-.02 1.422 0 2.131.046a1.054 1.054 0 01.938.706.74.74 0 01-.126.834c-.394.443-.383.472.057.84a1.188 1.188 0 01.301.909 1.202 1.202 0 01-.46.84 3.149 3.149 0 01-1.906.432c-.296.006-.599-.018-.899-.038-.415-.03-.567-.191-.575-.627-.009-.561 0-1.122 0-1.684l.001-.001zm1.742 1.581h.113c.444-.017.814-.23.827-.552a.852.852 0 00-.242-.606 1.423 1.423 0 00-1.255-.044.406.406 0 00-.067.089.705.705 0 00-.036.75.707.707 0 00.661.363h-.001zm0-1.97c.079-.001.158-.008.235-.02.353-.065.625-.332.608-.605-.024-.389-.322-.46-.627-.513a1.884 1.884 0 00-.26-.02c-.481-.014-.639.11-.648.507-.011.497.137.651.694.65l-.002.001zm-26.748.377a2.273 2.273 0 01-1.093 2.122 2.492 2.492 0 01-2.961-.463 2.617 2.617 0 01-.432-1.244 2.375 2.375 0 01.857-2.347c.842-.614 2.702-.59 3.237.43.203.475.365.966.486 1.468l-.094.034zm-3.427.074l.098.033c.011.161.011.325.036.484a1.106 1.106 0 00.901.932 1.074 1.074 0 001.09-.744c.179-.511.17-1.07-.025-1.575a.873.873 0 00-.752-.644.843.843 0 00-.944.384 9.07 9.07 0 00-.404 1.13zm22.828.002a6.51 6.51 0 01.255-1.12 2.287 2.287 0 012.618-1.255 1.803 1.803 0 011.64 1.728c.153 1.181-.088 2.148-1.012 2.658a2.556 2.556 0 01-2.389.07 2.122 2.122 0 01-1.112-2.081zm3.463-.007a9.219 9.219 0 00-.262-.938.868.868 0 00-.876-.582.934.934 0 00-.898.564 1.955 1.955 0 00.038 1.935.926.926 0 00.775.494.927.927 0 00.815-.42c.176-.335.313-.688.408-1.053zm-89.479-.024v-1.76a.482.482 0 01.525-.547c.404-.019.62.148.635.514.01.248-.014.499-.005.748a.476.476 0 00.536.535c.25.007.5 0 .75.006a.458.458 0 00.497-.295.455.455 0 00.024-.205c.005-.249-.022-.498-.023-.748a.518.518 0 01.566-.559.5.5 0 01.597.517c.01 1.21.01 2.421 0 3.633 0 .36-.269.45-.573.443-.304-.008-.556-.087-.563-.456-.005-.3 0-.599 0-.899 0-.389-.117-.517-.511-.53a9.605 9.605 0 00-.826 0 .426.426 0 00-.47.5c.012.26.017.523.01.785-.013.443-.2.614-.628.603-.387-.01-.54-.172-.544-.598-.006-.561 0-1.123 0-1.685l.003-.002zm74.25 4.114c-.411.006-.592-.226-.501-.633.047-.195.126-.38.233-.55a1.039 1.039 0 00.029-1.025c-.491-1.202-.945-2.42-1.401-3.635-.131-.35.026-.561.394-.582a.707.707 0 01.818.548c.223.649.438 1.303.673 1.948.07.121.158.23.262.323.095-.105.237-.194.279-.318.222-.65.428-1.304.618-1.964.074-.267.206-.474.485-.503a.769.769 0 01.552.099.62.62 0 01.06.54 257.472 257.472 0 01-1.737 5.068c-.123.346-.288.742-.764.684zm-93.536-3.618c0 .4.02.802-.008 1.198-.014.177-.084.443-.205.496a.742.742 0 01-.622-.043.534.534 0 00-.7 0 1.572 1.572 0 01-2.243-.697 1.303 1.303 0 01.96-1.71 6.392 6.392 0 011.074-.153c.264-.026.552.012.592-.361a.625.625 0 00-.53-.705 6.09 6.09 0 00-1.28.183c-.216.049-.435.232-.586-.051a.47.47 0 01.214-.676 2.862 2.862 0 012.672-.104 1.384 1.384 0 01.655 1.311c.022.436.004.874.004 1.311h.003zm-1.11.11c-.06-.058-.173-.267-.285-.267a2.802 2.802 0 00-1.046.148c-.364.153-.385.532-.127.84a.63.63 0 00.773.192 1.01 1.01 0 00.685-.91v-.002zm72.191-.579c0-.572-.005-1.148 0-1.721.004-.444.148-.585.592-.587.901-.004 1.802-.004 2.704 0 .518 0 .677.163.678.669v3.295c0 .461-.186.629-.646.597-.326-.023-.504-.169-.498-.517.009-.788.009-1.574 0-2.359-.008-.72-.095-.796-.804-.783-.888.017-.896.023-.897.911v2.209c0 .423-.114.527-.576.535-.404.006-.555-.128-.56-.523-.007-.573 0-1.148 0-1.723l.007-.002zm-62.75.391c0 .424.02.85-.01 1.272-.012.179-.08.439-.206.504a.668.668 0 01-.587-.034.622.622 0 00-.782.011 1.57 1.57 0 01-2.204-.732 1.327 1.327 0 011.013-1.713 7.91 7.91 0 011.076-.14c.223-.02.481.011.55-.275a.615.615 0 00-.313-.704 1.458 1.458 0 00-1.201-.033 2.97 2.97 0 01-.38.156c-.159.02-.44.028-.464-.038a.988.988 0 01.006-.555c.02-.085.153-.166.25-.207a3.175 3.175 0 012.27-.185 1.206 1.206 0 01.922 1.102c.046.521.054 1.046.075 1.57l-.015.001zm-2.073 1.146c.444 0 .974-.453.962-.826-.008-.303-.205-.472-.552-.471-.627 0-1.042.267-1.046.673a.585.585 0 00.634.624h.002zm90.69-1.559c0-.561-.004-1.123 0-1.685 0-.443.192-.631.608-.632.387 0 .559.187.561.63a4.425 4.425 0 00-.013.67c.026.168.118.414.238.453a.588.588 0 00.527-.139c.226-.309.41-.647.548-1.005a.773.773 0 01.657-.609.778.778 0 01.316.023c.268.05.399.208.278.448a15.85 15.85 0 01-.823 1.45.443.443 0 00.021.59c.348.528.666 1.073.953 1.634.119.23-.012.404-.285.443a.802.802 0 01-1.02-.586c-.14-.332-.293-.665-.463-.98a.559.559 0 00-.661-.306c-.316.08-.313.352-.307.607.005.237.032.473.031.71 0 .387-.192.56-.586.56-.411 0-.58-.16-.581-.555l.001-1.721zm-66.134.045c0 .524-.006 1.048 0 1.571.007.458-.132.65-.518.665-.448.02-.64-.157-.644-.617-.006-.813 0-1.625-.004-2.433 0-.451-.136-.63-.456-.64-.319-.01-.444.17-.545.587a26.362 26.362 0 01-.592 2.192 1.255 1.255 0 01-.993.88c-.182.03-.497 0-.555-.112a1.043 1.043 0 010-.653c.025-.11.204-.177.282-.285.224-.24.405-.518.533-.82a17.24 17.24 0 00.358-1.982c.074-.528.24-.688.779-.682a78.87 78.87 0 001.685 0c.444-.01.655.161.666.61.013.572.004 1.146.004 1.72zm26.487-.104v-1.65c0-.435.153-.598.536-.597.444 0 .612.175.6.618 0 .087-.01.175-.01.262.005.458.153.602.609.614a6 6 0 01.857.067 1.346 1.346 0 011.254 1.233 1.48 1.48 0 01-1.103 1.699 5.74 5.74 0 01-2.313.091c-.326-.035-.421-.283-.421-.57-.005-.588 0-1.175 0-1.762l-.009-.005zm1.124.802c0 .6.118.772.547.779.592.009 1.023-.296 1.037-.739.015-.481-.35-.773-.977-.783-.495-.008-.606.126-.606.743h-.001zm6.14-3.109a.995.995 0 01.935.692c.077.184.172.36.284.524.201.256.393.221.545-.069.127-.243.237-.496.383-.728.074-.12.202-.267.322-.286a1.03 1.03 0 01.693.05c.238.187 0 .41-.123.614-.25.402-.474.82-.67 1.25a.755.755 0 00.052.56c.239.48.522.937.784 1.403.241.43.122.609-.365.646a.914.914 0 01-.952-.63 3.66 3.66 0 00-.257-.54.546.546 0 00-.345-.229c-.092-.006-.222.136-.285.24-.138.222-.238.467-.361.697a.772.772 0 01-.897.443c-.319-.05-.417-.21-.263-.496.213-.41.449-.806.707-1.189a.975.975 0 00.038-1.237 7.949 7.949 0 01-.588-.999.698.698 0 01-.066-.513c.042-.113.278-.142.43-.203zm-53.894 4.723a6.168 6.168 0 01-.831-.162.925.925 0 01-.466-.34.495.495 0 01-.013-.467c.07-.085.307-.063.465-.042.345.08.695.14 1.047.181a.686.686 0 00.676-.625c-.02-.373-.296-.495-.613-.547a4.519 4.519 0 01-.704-.083c-.143-.05-.24-.232-.357-.354.123-.117.229-.285.376-.338.196-.033.394-.047.593-.043a.639.639 0 00.602-.607c-.035-.382-.306-.508-.633-.491-.295.02-.587.072-.87.155-.199.056-.397.17-.533-.058a.412.412 0 01.191-.606 3.001 3.001 0 011.03-.308 4.98 4.98 0 011.151.12 1.049 1.049 0 01.793.717 1.042 1.042 0 01-.253 1.033c-.339.349-.321.37.039.65a1.074 1.074 0 01.068 1.666c-.494.4-1.123.597-1.758.549zm92.444-4.645h1.314c.321 0 .53.136.544.48.014.324-.174.497-.546.518-.71.043-.773.127-.752.83.02.739.019 1.472.017 2.207 0 .361-.189.522-.578.524-.389.002-.554-.153-.555-.535 0-.786.007-1.571.01-2.356 0-.53-.134-.665-.663-.665-.456 0-.617-.133-.616-.502 0-.37.174-.502.628-.5h1.197zM12.23 43.843v-1.685c0-.423.132-.564.56-.57a70.957 70.957 0 011.689 0 .416.416 0 01.463.431.482.482 0 01-.429.561 1.98 1.98 0 01-.373-.014c-.644-.035-.786.096-.785.732 0 .739-.02 1.477.01 2.21.025.603-.266.716-.862.59-.115-.023-.252-.272-.26-.423-.03-.612-.011-1.223-.011-1.834l-.002.002zm61.74.048v1.723c0 .41-.123.535-.5.535-.502 0-.633-.118-.633-.562V42.18c0-.443.159-.604.61-.606.396 0 .53.148.53.59v1.723l-.006.004z"/><path d="M116.094 33.026a37.56 37.56 0 01-9.062-1.31 16.197 16.197 0 01-3.915-1.503 8.835 8.835 0 01-1.54-1.225 1.199 1.199 0 01-.277-1.05c.222-2.087.421-4.174.647-6.259.102-.93.223-1.86.383-2.781a1.391 1.391 0 011.514-1.222c.741.095 1.473.256 2.186.482a49.257 49.257 0 008.922 1.662c1.658.155 3.321.254 4.981.382.162.012.323.037.482.074a1.802 1.802 0 011.595 1.409c.053.248.053.504-.001.752a49.56 49.56 0 01-1.202 7.463c-.098.386-.244.763-.316 1.154a2.066 2.066 0 01-1.911 1.691c-.957.161-1.935.221-2.486.28zm-.049-.621c.511-.074 1.504-.183 2.484-.37a1.452 1.452 0 001.17-1.003 7.34 7.34 0 00.268-.897c.474-2.54.948-5.081 1.398-7.626a1.394 1.394 0 00-.925-1.582 3.635 3.635 0 00-.955-.182c-1.061-.074-2.128-.092-3.183-.193a165.14 165.14 0 01-5.295-.596 29.53 29.53 0 01-2.953-.51c-1.144-.268-2.265-.629-3.398-.938a1.24 1.24 0 00-1.442.537c-.13.228-.213.478-.247.738-.37 2.722-.74 5.444-1.08 8.17-.013.296.078.586.257.821a4.274 4.274 0 001.934 1.315 35.732 35.732 0 0011.971 2.312l-.004.004z"/><path d="M114.28 27.357c.332-.258.671-.509.994-.778.198-.166.187-.34-.05-.478-.16-.094-.322-.187-.479-.285a.561.561 0 00-.627-.038.553.553 0 00-.163.148c-.232.215-.5.387-.792.51a2.121 2.121 0 011.307-1.01c.292.02.572.128.8.31a.685.685 0 00.684.104c.196-.074.47.05.706.094.131.025.296.136.383.092a.71.71 0 01.968.317 1.064 1.064 0 01-.03 1.138 1.88 1.88 0 01-.345.483.623.623 0 01-.402.093c-.045 0-.139-.18-.115-.236a.63.63 0 01.261-.326.715.715 0 00.433-.755.72.72 0 00-.106-.29c-.042-.062-.142-.131-.199-.12-.057.013-.109.115-.14.188-.031.072 0 .164-.044.216-.074.096-.183.235-.275.233a.36.36 0 01-.248-.249c-.008-.305-.185-.404-.433-.477-.265-.08-.431-.074-.456.274-.006.096-.192.195-.309.268a3.84 3.84 0 00-.536.275c-.296.248-.536.552-.834.795a.537.537 0 01-.444.045c-.079-.027-.126-.214-.148-.337a.974.974 0 01.399-1.141 1.12 1.12 0 01.266-.081.816.816 0 01.074.295 2.187 2.187 0 01-.154.336 3.023 3.023 0 00-.074.34l.128.047zm-6.53-1.062c-.27.2-.57.355-.888.461a2.256 2.256 0 01-1.747-.315.803.803 0 01-.278-1.063.807.807 0 01.273-.292c.118-.091.222-.2.348-.283a.57.57 0 01.439-.12.58.58 0 01.388.236c.049.094-.005.241-.013.364-.112-.008-.252.023-.331-.032-.456-.322-.728-.212-.819.349a.776.776 0 00.376.756.446.446 0 00.613.006c.451-.346.889-.708 1.333-1.062a.21.21 0 01.203-.041c-.097.147-.182.305-.296.442-.285.356-.268.409.18.497.073.027.145.06.213.098h.006zm2.163-1.089l-.712.677c-.215.204-.237.39.019.591.08.084.14.185.175.295.005.01-.103.102-.138.09a.77.77 0 01-.344-.17 3.88 3.88 0 01-.608-.824.927.927 0 01-.05-.739 9.998 9.998 0 011.185-1.44c.108-.112.399-.049.61-.067l-1.006.902c-.038.033-.086.068-.098.11-.059.229-.11.458-.163.69.222-.038.444-.074.666-.118.153-.03.307-.074.46-.11l.004.113zm7.355-2c-.169-.094-.353-.138-.376-.221a.444.444 0 01.109-.39 2.69 2.69 0 01.725-.358c.279-.09.473-.169.304-.517-.138-.281.022-.397.286-.406a.765.765 0 01.67.579.75.75 0 01.009.313.362.362 0 01-.283.172 1.014 1.014 0 00-.804.4 3.19 3.19 0 01-.64.428zm-8.835-1.34l-.412-.264c.058-.125.135-.241.229-.343.351-.276.36-.37.012-.638a1.578 1.578 0 01-.371-.313c-.069-.104-.114-.316-.058-.387.081-.1.332-.2.398-.148.21.137.375.332.476.56a.833.833 0 00.477.612c.323.138.338.255.05.471a6.965 6.965 0 01-.801.45zm12.355.298c-.043.296-.079.54-.424.612a.464.464 0 00-.248.21.82.82 0 01-.773.37c-.126 0-.344-.103-.352-.178a.463.463 0 01.166-.4c.22-.077.448-.131.679-.164.123-.033.296-.074.337-.162.04-.088-.044-.252-.115-.353-.131-.182-.413-.314-.192-.59.131-.164.524-.067.723.19.086.146.153.302.199.465zm-15.674 5.6c.185.121.344.17.389.27a.398.398 0 01-.06.363c-.28.284-.144.395.141.538.223.118.421.275.587.464a.369.369 0 01-.022.358.435.435 0 01-.403.027 6.835 6.835 0 01-.544-.599 1.979 1.979 0 00-.507-.437c-.249-.12-.309-.252-.137-.451.165-.187.359-.345.556-.533zm7.943-5.279c-.438 0-.566-.191-.399-.456.167-.264.08-.377-.169-.512a1.666 1.666 0 01-.505-.464.38.38 0 010-.361.437.437 0 01.362-.118.649.649 0 01.562.652c.008.344.126.507.483.497.094 0 .192.082.287.127a.813.813 0 01-.129.25c-.182.16-.379.3-.492.385zm-9.112 6.952a1.078 1.078 0 01-.393-.202 3.158 3.158 0 01-.635-.902.848.848 0 01.226-.685.752.752 0 01.607-.13c.222.042.265.249.085.428-.059.06-.162.074-.222.136-.088.092-.203.2-.214.308-.006.068.148.161.245.23.212.12.411.263.592.427.173.204.05.391-.291.39zm8.816-2.09a1.023 1.023 0 01-1.311-.127 1.116 1.116 0 00-1.139-.443.56.56 0 01-.671-.7c.015-.082.102-.148.157-.222.065.048.168.085.188.148.101.32.308.393.631.381a.85.85 0 01.889.476.767.767 0 00.948.471.94.94 0 01.308.016zm2.399-5.463l.497.296c-.074.12-.125.295-.233.348a3.8 3.8 0 01-.809.288.311.311 0 01-.264-.147.324.324 0 01.108-.276c.215-.18.453-.333.701-.509zm-9.154-1.547c-.388-.011-1.016-.596-.985-.857a.369.369 0 01.287-.21 1.129 1.129 0 01.849.795c.009.1-.115.212-.151.272zm7.109 10.052a1.039 1.039 0 011.269.644.263.263 0 01-.006.234c-.059.06-.197.12-.257.091a2.462 2.462 0 01-.613-.39 3.317 3.317 0 01-.393-.58zm-3.01-10.209a.802.802 0 01.675.91.29.29 0 01-.257.112 1.073 1.073 0 01-.755-.665c-.092-.186.082-.356.337-.357zm-3.606 1.264c-.052-.056-.222-.153-.249-.283-.059-.274.344-.579.746-.552.14.009.362.119.391.226.069.25-.416.607-.888.609zm8.322.169c-.035.042-.11.222-.218.245-.285.057-.782-.39-.74-.664a.474.474 0 01.314-.314c.354-.045.644.263.644.733zm-8.527 7.342c.169-.525.471-.746.956-.67a.395.395 0 01.287.181c.026.08-.058.233-.138.306a1.165 1.165 0 01-1.105.183zm1.44.557a.766.766 0 01.74.665c.045.26-.12.427-.334.29a2.346 2.346 0 01-.649-.64c-.129-.184.012-.32.243-.315zm9.334-7.612c-.074.047-.192.187-.32.198a.742.742 0 01-.666-.676.386.386 0 01.271-.253.715.715 0 01.716.732l-.001-.001zm-.27 8.732c-.125-.09-.26-.141-.301-.235-.027-.061.059-.222.137-.268a4.4 4.4 0 01.786-.35c.066-.021.222.1.263.188.026.06-.06.216-.137.265-.235.149-.49.265-.748.4zm-4.428-.416c-.041-.039-.222-.135-.237-.25-.032-.26.345-.587.644-.55a.537.537 0 01.394.27c.06.198-.401.528-.801.53zm-1.972-.281c-.037-.039-.208-.132-.23-.253-.046-.257.342-.611.622-.567.132.02.332.168.344.275.039.335-.236.558-.736.545zm-5.031-9.644c-.168.674-.497.928-.9.789a.46.46 0 01-.265-.262c-.019-.074.098-.245.189-.276.288-.102.594-.158.976-.25zm3.423 9.445c-.126-.13-.324-.242-.363-.394-.068-.26.28-.585.574-.54a.467.467 0 01.313.302c.037.34-.162.551-.524.633zm1.955-7.836c.031-.456.185-.604.518-.549.171.029.408.106.47.232.074.156-.455.607-.651.552a1.091 1.091 0 01-.337-.236zm1.447 4.85c-.094-.12-.202-.2-.222-.3a5.736 5.736 0 00-.14-.802 3.052 3.052 0 00-.452-.63.667.667 0 01.815.666c.005.33-.001.657-.001 1.066zm3.746 4.606a.676.676 0 01-.731-.614.363.363 0 01.239-.245c.249-.038.71.346.688.58-.009.114-.153.221-.196.28zm1.876.286c-.437 0-.765-.3-.733-.61a.316.316 0 01.205-.221c.33-.02.746.316.714.578-.015.109-.147.203-.186.253zm-3.53-1.174c-.107-.229-.205-.338-.198-.443a.707.707 0 01.809-.534.394.394 0 01.161.25c-.211.225-.445.428-.772.727zm-10.331-10.134c-.207-.148-.412-.284-.597-.443-.025-.022.061-.24.082-.238.258.018.513.065.761.14.09.03.13.208.192.32l-.438.221zm8.049 10.233c-.12.114-.222.284-.364.324-.222.064-.494-.267-.473-.56a.314.314 0 01.205-.22.545.545 0 01.56.252.533.533 0 01.072.204zm-2.449-.666c.38.04.644.126.629.454-.005.105-.203.268-.329.287-.235.034-.5-.282-.462-.523.014-.095.126-.175.162-.218zm8.992.479l.5.4c-.136.093-.276.267-.407.26a1.818 1.818 0 01-.57-.234l.477-.426zm-11.404-7.45c-.114.25-.208.495-.339.725-.036.062-.234.115-.261.084a.485.485 0 01-.148-.33c.046-.243.505-.501.748-.48zm3.772.18c.161.193.334.356.315.381a1.295 1.295 0 01-.399.363c-.029.016-.268-.198-.252-.268.035-.144.177-.262.336-.477z"/><path d="M116.29 27.596c-.108.139-.237.26-.382.36-.074.038-.268-.051-.334-.137-.048-.062 0-.3.049-.315a3.16 3.16 0 01.592-.074l.075.166zm-5.458-1.544c-.083-.201-.159-.295-.148-.381.011-.087.105-.17.162-.253.065.074.183.148.183.222 0 .103-.09.203-.197.412zm-2.585-2.431a.788.788 0 01.309-.1.297.297 0 01.212.187.279.279 0 01-.165.221c-.068.018-.165-.079-.25-.125l-.106-.183zm2.757 1.359h-.592v-.082h.592v.082zm-5.292 1.052c-.03-.08-.091-.166-.08-.24.012-.075.096-.142.149-.21.045.073.12.147.125.22.005.075-.063.156-.099.233l-.095-.003z"/></g><defs><clipPath id="clip0_412_6649"><path fill="#fff" d="M0 0h128v48H0z"/></clipPath></defs></svg>