<svg width="80" height="68" viewBox="0 0 80 68" fill="none" xmlns="http://www.w3.org/2000/svg">
<path d="M69.0731 4.69679C69.328 4.69679 69.328 5.07752 69.0731 5.20458C67.5422 5.96604 63.4604 8.37791 62.6951 14.2168C62.6951 14.2168 61.8022 21.1983 55.9346 22.0868C53.0005 22.4676 50.3219 20.6906 49.3018 18.025V17.8979C48.4089 15.7402 48.9192 13.2012 50.1947 11.1706C52.6181 7.36244 58.1031 1.90418 69.0734 4.69684L69.0731 4.69679Z" stroke="#E35D14" stroke-width="2" stroke-miterlimit="10"/>
<path d="M39.4795 21.5786L48.5362 30.7179" stroke="#E35D14" stroke-width="2" stroke-miterlimit="10"/>
<path d="M34.2494 26.1485L18.9424 10.9165" stroke="#E35D14" stroke-width="2" stroke-miterlimit="10"/>
<path d="M49.9392 41.7613L44.0715 35.9224" stroke="#E35D14" stroke-width="2" stroke-miterlimit="10"/>
<path d="M18.9426 6.09309V10.9164H14.0955L10.5234 4.95043L12.9472 2.53857L18.9426 6.09309Z" stroke="#E35D14" stroke-width="2" stroke-miterlimit="10" stroke-linejoin="round"/>
<path d="M55.1692 46.9653L61.5471 53.312" stroke="#E35D14" stroke-width="2" stroke-miterlimit="10" stroke-dasharray="22.4 33.6"/>
<path d="M66.7769 58.5164C63.4602 61.8168 58.1029 61.8168 54.7862 58.5164L44.0715 47.8542L56.0622 35.9224L66.7769 46.5845C69.9658 49.8849 69.9658 55.216 66.7769 58.5164Z" stroke="#E35D14" stroke-width="2" stroke-miterlimit="10"/>
<path d="M42.2856 37.8262C31.3155 48.7425 13.5849 61.9436 10.9062 59.151C8.22743 56.4854 21.4937 38.8417 32.336 27.9254C43.1784 17.0092 47.7706 17.0092 50.4493 19.6746C53.1281 22.3402 53.2558 26.9098 42.2856 37.8261V37.8262Z" stroke="#E35D14" stroke-width="2" stroke-miterlimit="10"/>
</svg>
