<svg width="81" height="68" viewBox="0 0 81 68" fill="none" xmlns="http://www.w3.org/2000/svg">
<path d="M40.5 18.0718V27.7531" stroke="#E35D14" stroke-width="2" stroke-miterlimit="10"/>
<path d="M43.6105 45.1797C43.6105 38.2091 50.868 34.8528 50.868 34.8528L42.5736 18.0718L40.5002 18.0722" stroke="#E35D14" stroke-width="2" stroke-miterlimit="10"/>
<path d="M37.3896 45.1797C37.3896 38.2091 30.1321 34.8528 30.1321 34.8528L38.4265 18.0718L40.4998 18.0722" stroke="#E35D14" stroke-width="2" stroke-miterlimit="10"/>
<path d="M42.5735 29.6896C42.5735 30.83 41.6451 31.7547 40.4996 31.7547C39.3542 31.7547 38.4258 30.83 38.4258 29.6896C38.4258 28.5488 39.3542 27.624 40.4996 27.624C41.6451 27.624 42.5735 28.5488 42.5735 29.6896Z" stroke="#E35D14" stroke-width="2" stroke-miterlimit="10"/>
<path d="M10.6919 2.58154H70.3079V52.9246H10.6919V2.58154Z" stroke="#E35D14" stroke-width="2" stroke-miterlimit="10"/>
<path d="M30.1321 52.9248V61.961" stroke="#E35D14" stroke-width="2" stroke-miterlimit="10"/>
<path d="M50.8679 52.9248V61.961" stroke="#E35D14" stroke-width="2" stroke-miterlimit="10"/>
<path d="M23.6519 61.9604H57.3479" stroke="#E35D14" stroke-width="2" stroke-miterlimit="10"/>
<path d="M70.3079 45.1797H10.6919" stroke="#E35D14" stroke-width="2" stroke-miterlimit="10"/>
<path d="M57.3479 29.6895H62.532V34.853H57.3479V29.6895Z" stroke="#E35D14" stroke-width="2" stroke-miterlimit="10"/>
<path d="M37.908 7.74512H43.0921V12.9086H37.908V7.74512Z" stroke="#E35D14" stroke-width="2" stroke-miterlimit="10"/>
<path d="M18.468 29.6895H23.6521V34.853H18.468V29.6895Z" stroke="#E35D14" stroke-width="2" stroke-miterlimit="10"/>
<path d="M37.9081 10.4556C28.447 11.7463 21.0601 19.879 21.0601 29.6892" stroke="#E35D14" stroke-width="2" stroke-miterlimit="10"/>
<path d="M59.94 29.6897C59.94 19.8791 52.5528 11.7469 43.092 10.4561" stroke="#E35D14" stroke-width="2" stroke-miterlimit="10"/>
<path d="M43.092 10.3271H59.94" stroke="#E35D14" stroke-width="2" stroke-miterlimit="10"/>
<path d="M59.9399 7.74512H65.1241V12.9086H59.9399V7.74512Z" stroke="#E35D14" stroke-width="2" stroke-miterlimit="10"/>
<path d="M37.9081 10.3271H21.0601" stroke="#E35D14" stroke-width="2" stroke-miterlimit="10"/>
<path d="M21.0601 12.9087L15.8759 12.9087L15.8759 7.74517L21.0601 7.74517L21.0601 12.9087Z" stroke="#E35D14" stroke-width="2" stroke-miterlimit="10"/>
</svg>
