<svg width="77" height="68" viewBox="0 0 77 68" fill="none" xmlns="http://www.w3.org/2000/svg">
<path d="M38.3872 4.91374V1.84277" stroke="#E35D14" stroke-width="2" stroke-miterlimit="10"/>
<path d="M31.3854 6.87884L29.7886 4.17627" stroke="#E35D14" stroke-width="2" stroke-miterlimit="10"/>
<path d="M26.226 12.0386L23.5234 10.4414" stroke="#E35D14" stroke-width="2" stroke-miterlimit="10"/>
<path d="M50.5481 12.0386L53.2507 10.4414" stroke="#E35D14" stroke-width="2" stroke-miterlimit="10"/>
<path d="M45.3889 6.87884L46.9857 4.17627" stroke="#E35D14" stroke-width="2" stroke-miterlimit="10"/>
<path d="M44.652 31.3239C45.3888 28.7443 46.3717 26.1648 47.8459 23.8308C48.8287 22.234 49.3201 20.2685 49.3201 18.3032C49.3201 11.7928 43.6695 6.63361 37.1591 7.37052C32.1225 7.98488 28.0692 11.9157 27.5778 16.9518C27.2094 19.6544 27.9463 22.1109 29.1746 24.0766C30.6488 26.2877 31.6313 28.7443 32.2456 31.3238" stroke="#E35D14" stroke-width="2" stroke-miterlimit="10"/>
<path d="M48.3372 22.7251H59.2698V31.3241" stroke="#E35D14" stroke-width="2" stroke-miterlimit="10"/>
<path d="M10.134 59.5769L19.9612 31.324H66.5171C66.5171 31.324 66.64 31.324 66.5171 31.447L56.6899 59.5771H10.134V16.5835H27.5771" stroke="#E35D14" stroke-width="2" stroke-miterlimit="10"/>
<path d="M49.4426 38.6943H64.1833" stroke="#E35D14" stroke-width="2" stroke-miterlimit="10"/>
<path d="M46.9858 46.0645H61.7265" stroke="#E35D14" stroke-width="2" stroke-miterlimit="10"/>
<path d="M44.5291 53.4351H59.2697" stroke="#E35D14" stroke-width="2" stroke-miterlimit="10"/>
</svg>
