<svg width="79" height="68" viewBox="0 0 79 68" fill="none" xmlns="http://www.w3.org/2000/svg">
<path d="M10.3359 2.49268H67.967V51.1054H10.3359V2.49268Z" stroke="#E35D14" stroke-width="2" stroke-miterlimit="10"/>
<path d="M29.1289 51.106V59.8316" stroke="#E35D14" stroke-width="2" stroke-miterlimit="10"/>
<path d="M49.1743 51.106V59.8316" stroke="#E35D14" stroke-width="2" stroke-miterlimit="10"/>
<path d="M22.8645 59.8311H55.4386" stroke="#E35D14" stroke-width="2" stroke-miterlimit="10"/>
<path d="M67.9669 44.8735H10.3359" stroke="#E35D14" stroke-width="2" stroke-miterlimit="10"/>
<path d="M44.1628 20.5667L35.3926 15.5807V25.5527L44.1628 20.5666L35.3926 15.5806V25.5525L44.1628 20.5667Z" stroke="#E35D14" stroke-width="2" stroke-miterlimit="10"/>
<path d="M10.3359 37.3945H22.8644" stroke="#E35D14" stroke-width="2" stroke-miterlimit="10"/>
<path d="M27.876 37.3945H67.9671" stroke="#E35D14" stroke-width="2" stroke-miterlimit="10"/>
<path d="M27.8758 37.3942C27.8758 38.7711 26.7541 39.8871 25.3702 39.8871C23.9863 39.8871 22.8643 38.7711 22.8643 37.3942C22.8643 36.0173 23.9864 34.9014 25.3702 34.9014C26.754 34.9014 27.8758 36.0173 27.8758 37.3942Z" stroke="#E35D14" stroke-width="2" stroke-miterlimit="10"/>
</svg>
