<svg width="159" height="72" fill="none" xmlns="http://www.w3.org/2000/svg"><g opacity=".999" fill="#fff" clip-path="url(#clip0_412_9394)"><path opacity=".999" d="M90.567 54.454a1.416 1.416 0 01-.544.167c.063-.054.125-.112.187-.167.119 0 .236-.002.357 0zm11.861 6.672h-.244c.023-.057.043-.117.064-.177a.91.91 0 01.179.177h.001zm15.691-.521l-.168-.04a.843.843 0 01.093-.08.708.708 0 01.075.12zm2.68-35.062c-.02.058-.043.116-.069.171-.062 0-.127-.01-.194-.018.084-.052.172-.1.263-.153zm16.545-1.101c-.016.008-.032.014-.047.02 0-.015.002-.03.005-.046l.042.026zM52.054 63.19a2.17 2.17 0 00-.044.177c-.005.013-.008.029-.014.04H51.7c.108-.088.227-.162.355-.217h-.001zm20.769-16.47c.04-.257.074-.515.1-.775v-.105a.996.996 0 01.278-.09 28.83 28.83 0 00-.378.97zm9.09-14.23a.93.93 0 01-.174.008c.041-.07.078-.14.114-.213.027.067.047.135.06.206zm.139 2.05a6.528 6.528 0 01-.563-.119c-.187-.049-.323-.12-.323-.358.111.1.213.21.303.33a.91.91 0 00.29.04h.232a.72.72 0 01.062.108h-.001zm.37 18.938v.053a.296.296 0 01-.008.047c-.059.052-.116.107-.175.158.058-.086.117-.172.183-.258zm.207 7.645h-.12a.803.803 0 01.06-.07.512.512 0 01.06.07z"/><path opacity=".999" d="M118.119 60.605l-.168-.04a.843.843 0 01.093-.08.708.708 0 01.075.12zm-55.263 2.823h-.191c.04-.029.074-.052.114-.075.025.024.052.049.077.075zm9.967-16.708c.04-.257.074-.515.1-.775v-.105a.996.996 0 01.278-.09 28.83 28.83 0 00-.378.97zm9.806 14.403h-.12a.803.803 0 01.06-.07.512.512 0 01.06.07zm10.622.004h-.135a1 1 0 01.074-.082.62.62 0 01.061.082z"/><path opacity=".9" d="M158.152 11.168c-6.676.06-13.353.05-20.028.062H83.799c-.603 2.062-1.205 4.124-1.805 6.186 0 .035-.006.068-.01.102a.047.047 0 01-.022-.005c-.99 3.027-2.005 6.048-2.963 9.081-1.219 3.86-2.429 7.723-3.575 11.602-.74 2.517-1.715 4.964-2.222 7.549-.13.322-.256.645-.376.968a.014.014 0 000 .01c-1.055 2.813-1.777 5.732-2.711 8.58-.79 2.414-1.55 4.84-2.277 7.276a1.055 1.055 0 01-1.229.843c-1.248-.021-2.497-.005-3.745 0h-.191c-3.556-.005-7.111-.011-10.667-.019h-.296l-2.815 8.591h91.567l13.193-42.927c1.713-5.564 3.424-11.13 5.134-16.696.16-.548.612-1.213-.637-1.203zm-50.955 26.365c-1.451 2.697-3.71 4.738-5.851 6.857-.174.172-.334.36-.497.541a.06.06 0 00.005.023h-.026l-10.614 9.502h.357a1.401 1.401 0 01-.544.167c-.336.21-.538.426.075.446.814.023 1.637.005 2.455.005 3.491 0 6.981.05 10.469-.033 1.219-.03 1.384.345.977 1.37-.611 1.545-.611 3.295-1.576 4.72h-28.21c2.815-2.592 5.419-4.988 8.02-7.388.059-.088.119-.174.183-.26v.051a.31.31 0 01-.007.047c3.231-2.928 6.464-5.858 9.697-8.79a6.56 6.56 0 00.101-.506c.096-.082.191-.168.287-.255a3.503 3.503 0 01-.388.76 69.571 69.571 0 006.653-6.32 14.675 14.675 0 002.686-3.624c1.374-2.932.314-5.801-2.758-6.784a7.396 7.396 0 00-7.384 1.32.93.93 0 01.608-.11c-.07.05-.137.101-.204.158a1.423 1.423 0 00-.404-.046 9.2 9.2 0 00-2.888 4.153c-.177.481-.316.938-1.018.92-1.804-.044-3.61-.02-5.414-.02a.73.73 0 01.064.108 6.12 6.12 0 01-.563-.12c-.186-.048-.323-.118-.323-.358a4.723 4.723 0 00.577-1.563c.04-.07.074-.14.114-.213 1.045-1.919 1.935-3.915 3.443-5.567a15.702 15.702 0 016.267-4.14l.331-.091c3.33-.913 6.84-.938 10.184-.074l.037-.016c0 .013-.001.024.005.034 2.049.91 3.943 2.026 5.216 3.965 2.451 3.732 1.83 7.465-.142 11.131zm34.954 2.25a29.592 29.592 0 01-6.267 14.287c-.065.07-.127.143-.191.213l-.189.21c-.101.105-.204.205-.305.31a62.06 62.06 0 01-.676.687l-.357.364c-2.183 1.736-4.385 3.468-7.076 4.36a16.274 16.274 0 01-8.971.39l-.168-.041c-6.431-2.507-8.777-8.394-8-15.196.624-5.476 2.233-10.63 5.768-15.011a32.881 32.881 0 014.814-4.664c.088-.052.176-.104.264-.153a19.786 19.786 0 016.161-2.704c3.629-.707 7.139-.521 10.347 1.578l.041.026c5.002 4.042 5.75 9.429 4.805 15.342v.002z"/><path opacity=".999" d="M52.054 63.19a2.17 2.17 0 00-.044.177c-.005.013-.008.029-.014.04H51.7c.108-.088.227-.162.355-.217h-.001zm10.802.238h-.191c.04-.029.074-.052.114-.075.025.024.052.049.077.075zm30.395-2.301h-.135a1 1 0 01.074-.082.62.62 0 01.061.082zm9.177-.001h-.244c.023-.057.043-.117.064-.177a.91.91 0 01.179.177h.001zM24.034.662h-.24V.3c.097.11.178.231.24.364V.662zm7.509 0h-.253V.3c.103.105.19.227.253.36zM40.346.3v.359h-.241c.058-.135.14-.257.24-.362V.3zm21.209 19.97c-.06.06-.121.116-.187.168a.375.375 0 01.023-.108l.164-.06zm-1.76 31.458c-.032.075-.06.15-.089.224-.026-.052-.054-.101-.081-.153v-.01a.665.665 0 01.172-.059l-.002-.002zm.733 9.078h-.075a2.838 2.838 0 01-.103-.091l-.008-.041c.066.038.127.082.184.133h.002z"/><path opacity=".999" d="M60.528 60.806h-.075a2.838 2.838 0 01-.103-.091l-.008-.041c.066.038.127.082.184.133h.002zm-8.474 2.384a2.17 2.17 0 00-.044.177c-.005.013-.008.029-.014.04H51.7c.108-.088.227-.162.355-.217h-.001zm10.802.238h-.191c.04-.029.074-.052.114-.075.025.024.052.049.077.075zm9.967-16.708c.04-.257.074-.515.1-.775v-.105a.996.996 0 01.278-.09 28.83 28.83 0 00-.378.97zm47.976-21.177c-.02.058-.043.116-.069.171-.062 0-.127-.01-.194-.018.084-.052.172-.1.263-.153zm16.545-1.101c-.016.008-.032.014-.047.02 0-.015.002-.03.005-.046l.042.026zM24.034.662h-.24V.3c.097.11.178.231.24.364V.662zm.306 17.198a.917.917 0 010 .168c-.082.088-.169.177-.252.268.075-.15.163-.297.252-.437zm57.573 14.63a.93.93 0 01-.174.008c.041-.07.078-.14.114-.213.027.067.047.135.06.206zm9.982-10.004a1.452 1.452 0 01-.184.211.622.622 0 01-.148-.12c.112-.03.224-.062.332-.09z"/><path opacity=".999" d="M91.895 22.486a1.452 1.452 0 01-.184.211.622.622 0 01-.148-.12c.112-.03.224-.062.332-.09zm45.408 1.93a.254.254 0 00-.005.048c.015-.01.031-.014.046-.021l-.041-.027zm-19.259 36.07a.85.85 0 00-.093.082l.168.04a.78.78 0 00-.074-.122h-.001zm2.49-34.79c.067.008.131.015.194.018.026-.056.049-.113.069-.172l-.263.154zm-28.616 3.571a2.89 2.89 0 00-.204.16 1.417 1.417 0 00-.403-.047.923.923 0 01.607-.113zM81.913 32.49a.93.93 0 01-.174.008c.041-.07.078-.14.114-.213.027.067.047.135.06.206zm.139 2.05a6.528 6.528 0 01-.563-.119c-.187-.049-.323-.12-.323-.358.111.1.213.21.303.33a.91.91 0 00.29.04h.232a.72.72 0 01.062.108h-.001z"/><path opacity=".999" d="M91.895 22.486a1.452 1.452 0 01-.184.211.622.622 0 01-.148-.12c.112-.03.224-.062.332-.09zm.605 21.539a3.521 3.521 0 01-.388.76c.04-.17.074-.335.1-.505.097-.083.192-.169.288-.255zm-1.933 10.429a1.416 1.416 0 01-.544.167c.063-.054.125-.112.187-.167.119 0 .236-.002.357 0zm-8.145-.976v.053a.296.296 0 01-.008.047c-.059.052-.116.107-.175.158.058-.086.117-.172.183-.258zm.207 7.645h-.12a.803.803 0 01.06-.07.512.512 0 01.06.07zm10.622.004h-.135a1 1 0 01.074-.082.62.62 0 01.061.082zm9.177-.001h-.244c.023-.057.043-.117.064-.177a.91.91 0 01.179.177h.001z"/><path opacity=".999" d="M90.567 54.454a1.416 1.416 0 01-.544.167c.063-.054.125-.112.187-.167.119 0 .236-.002.357 0zM40.593 52.76h-.013a.029.029 0 010-.014.07.07 0 01.015.012l-.002.002zm19.202-1.032c-.032.075-.06.15-.089.224-.026-.052-.054-.101-.081-.153v-.01a.665.665 0 01.172-.059l-.002-.002zm.733 9.078h-.075a2.838 2.838 0 01-.103-.091l-.008-.041c.066.038.127.082.184.133h.002zM29.53 52.883a10.902 10.902 0 01-.305-.058.747.747 0 01.127-.108.954.954 0 01.178.166z"/><path opacity=".999" d="M29.53 52.883a10.902 10.902 0 01-.305-.058.747.747 0 01.127-.108.954.954 0 01.178.166zm11.063-.123h-.013a.029.029 0 010-.014.07.07 0 01.015.012l-.002.002zm40.872-18.368a.424.424 0 01-.303-.33c.11.1.212.211.302.33zm.587.151a6.124 6.124 0 01-.563-.12h-.004a.24.24 0 00-.021-.029c.094.03.192.044.29.042h.233c.024.033.046.07.065.107zm9.866-5.276a2.89 2.89 0 00-.204.16 1.417 1.417 0 00-.403-.047.923.923 0 01.607-.113zm-9.496 24.211v.053a.296.296 0 01-.008.047c-.059.052-.116.107-.175.158.058-.086.117-.172.183-.258zM92.5 44.025a3.521 3.521 0 01-.388.76c.04-.17.074-.335.1-.505.097-.083.192-.169.288-.255z"/><path opacity=".999" d="M82.364.04C61.607.06 40.85.065 20.092.053c-.4 0-.861-.207-1.206.198-1.115 2.894-1.93 5.88-2.802 8.855-.396 1.232-.807 2.456-1.185 3.697-1.935 6.305-3.868 12.611-5.799 18.919-.074.101-.196.192-.232.307A44500.84 44500.84 0 00.58 58.979c-.122.389-.049.894-.577 1.067v.777c3.188 0 6.377-.005 9.568-.014h32.073c.468.021.936.053 1.407.058 3.098.028 6.195.05 9.292.07h.05c2.69-.044 5.38-.088 8.067-.13a2.812 2.812 0 01-.104-.09c0-.014-.005-.03-.007-.042.066.038.127.082.184.133 1.376 0 2.957.432 4.074-.107 1.117-.54 1.014-2.335 1.407-3.588 4.634-14.829 9.255-29.66 13.863-44.495.153-.489.357-.962.536-1.443.977-3.264 1.894-6.542 2.95-9.777.366-1.145.144-1.361-1-1.358zM40.347.3v.358h-.241a1.21 1.21 0 01.24-.36l.001.002zm-9.053 0c.103.106.188.23.251.364h-.253L31.294.3zm-7.498 0c.096.109.178.232.24.364h-.24V.3zm35.999 51.432c-.031.074-.06.148-.088.223-.87 2.159-.95 2.159-3.478 2.159h-4.453c.766-2.634 1.501-5.166 2.316-7.975h-.005a.628.628 0 00-.135-.088 34.542 34.542 0 01-13.357 6.718h-.013c-2.105.39-4.24.59-6.38.596a29.234 29.234 0 01-4.976-.532 16.298 16.298 0 01-9.944-7.013c-.201-.309-.402-.62-.6-.933-.099-.156-.197-.315-.296-.47-1.933-4.06-1.936-8.318-1.292-12.64.074-.295.153-.585.236-.874a34.633 34.633 0 016.761-12.6 4.94 4.94 0 01.251-.438.943.943 0 010 .17 49.37 49.37 0 016.955-6.104 47.974 47.974 0 018.541-4.144c6.37-1.856 12.62-2.077 18.61 1.254.081.044.165.09.248.138a17.033 17.033 0 016.463 8.25c.296.824.303 1.292-.68 1.589a25.82 25.82 0 00-2.922 1.258c-.059.06-.121.116-.187.17a.375.375 0 01.023-.11c-.908.336-1.827.64-2.708 1.033-.61.273-.89.19-1.157-.453-1.883-4.55-5.493-6.614-10.205-7.055a19.22 19.22 0 00-11.91 3.3c-5.821 3.564-9.777 8.491-10.97 15.372a11.395 11.395 0 002.232 9.229 11.297 11.297 0 003.749 3.073 11.242 11.242 0 004.685 1.214c6.197.556 11.297-1.856 16.148-5.98h-9.043v-.006l2.02-6.76c.006 0 .008-.006.013-.009l.008.008c6.869-.02 13.739-.038 20.609-.054.194.015.386.042.577.082-1.89 6.165-3.77 12.282-5.648 18.407l.002-.005z"/><path opacity=".999" d="M24.34 17.86a.917.917 0 010 .168c-.082.088-.169.177-.252.268.075-.15.163-.297.252-.437zm5.19 35.023a10.902 10.902 0 01-.305-.058.747.747 0 01.127-.108.954.954 0 01.178.166zm11.063-.123h-.013a.029.029 0 010-.014.07.07 0 01.015.012l-.002.002zm19.202-1.032c-.032.075-.06.15-.089.224-.026-.052-.054-.101-.081-.153v-.01a.665.665 0 01.172-.059l-.002-.002zm1.76-31.458c-.06.06-.121.116-.187.168a.375.375 0 01.023-.108l.164-.06z"/><path opacity=".999" d="M61.555 20.27c-.06.06-.121.116-.187.168a.375.375 0 01.023-.108l.164-.06zM40.346.3v.359h-.241c.058-.135.14-.257.24-.362V.3zM24.034.662h-.24V.3c.097.11.178.231.24.364V.662zm7.509 0h-.253V.3c.103.105.19.227.253.36zM24.34 17.86a.917.917 0 010 .168c-.082.088-.169.177-.252.268.075-.15.163-.297.252-.437z"/><path opacity=".999" d="M31.543.662h-.253V.3c.103.105.19.227.253.36zM40.346.3v.359h-.241c.058-.135.14-.257.24-.362V.3z"/><path opacity=".9" d="M135.897 37.229a23.046 23.046 0 01-5.377 14.012 10.86 10.86 0 01-6.296 4.02 5.173 5.173 0 01-3.649-.382 5.211 5.211 0 01-2.489-2.71c-1.4-3.01-1.201-6.147-.636-9.28.903-5.027 2.916-9.502 6.92-12.814 3.42-2.829 8.154-2.421 10.125.798a11.183 11.183 0 011.402 6.356z"/><path opacity=".999" d="M91.918 29.267a2.89 2.89 0 00-.204.16 1.417 1.417 0 00-.403-.047.923.923 0 01.607-.113zm.582 14.758a3.521 3.521 0 01-.388.76c.04-.17.074-.335.1-.505.097-.083.192-.169.288-.255z"/></g><defs><clipPath id="clip0_412_9394"><path fill="#fff" d="M0 0h159v72H0z"/></clipPath></defs></svg>