<svg width="159" height="72" viewBox="0 0 159 72" fill="none" xmlns="http://www.w3.org/2000/svg">
<g clip-path="url(#clip0_412_9394)">
<g opacity="0.999">
<path opacity="0.999" d="M90.5671 54.4541C90.3989 54.5459 90.214 54.6027 90.0234 54.6209C90.0857 54.5666 90.1478 54.5092 90.2101 54.4541C90.3286 54.4541 90.4457 54.4519 90.5671 54.4541Z" fill="white"/>
<path opacity="0.999" d="M102.428 61.1259H102.184C102.207 61.0685 102.227 61.0088 102.248 60.9492C102.315 60.9998 102.376 61.0593 102.427 61.1259H102.428Z" fill="white"/>
<path opacity="0.999" d="M118.119 60.6047L117.951 60.5654C117.98 60.5362 118.011 60.5091 118.044 60.4844C118.073 60.5219 118.098 60.5621 118.119 60.6047Z" fill="white"/>
<path opacity="0.999" d="M120.799 25.543C120.779 25.6013 120.756 25.6585 120.73 25.7142C120.668 25.7142 120.603 25.7038 120.536 25.6964C120.62 25.6442 120.708 25.5951 120.799 25.543Z" fill="white"/>
<path opacity="0.999" d="M137.344 24.4422C137.328 24.4504 137.312 24.4555 137.297 24.4629C137.297 24.4472 137.299 24.4315 137.302 24.416L137.344 24.4422Z" fill="white"/>
<path opacity="0.999" d="M52.0536 63.1902C52.0358 63.2497 52.0224 63.3069 52.0098 63.3665C52.0046 63.3799 52.0024 63.3956 51.9965 63.4075H51.7002C51.8079 63.3187 51.9273 63.2454 52.055 63.1895L52.0536 63.1902Z" fill="white"/>
<path opacity="0.999" d="M72.8228 46.7205C72.8635 46.4629 72.8968 46.2053 72.9235 45.9448C72.9235 45.9113 72.9235 45.8747 72.9235 45.8405C73.0109 45.7968 73.1043 45.7665 73.2005 45.75C73.0687 46.0731 72.942 46.3952 72.8228 46.7205Z" fill="white"/>
<path opacity="0.999" d="M81.9126 32.4905C81.8552 32.4984 81.7971 32.5007 81.7393 32.4978C81.78 32.4278 81.817 32.3581 81.8533 32.2852C81.8798 32.3515 81.8997 32.4202 81.9126 32.4905Z" fill="white"/>
<path opacity="0.999" d="M82.0519 34.5405C81.8912 34.5144 81.7312 34.4799 81.5705 34.4412C81.543 34.436 81.5158 34.4294 81.489 34.4212C81.3023 34.3721 81.166 34.3014 81.166 34.0625C81.277 34.1626 81.3785 34.273 81.469 34.3922C81.5627 34.4213 81.6605 34.4353 81.7586 34.4332H81.9912C82.0146 34.4673 82.0354 34.5032 82.0534 34.5405H82.0519Z" fill="white"/>
<path opacity="0.999" d="M82.4217 53.4785V53.5309C82.4205 53.5467 82.418 53.5623 82.4143 53.5777C82.355 53.6298 82.298 53.6849 82.2388 53.7362C82.2973 53.6499 82.3565 53.5641 82.4217 53.4785Z" fill="white"/>
<path opacity="0.999" d="M82.629 61.1225H82.5098C82.5282 61.0981 82.5479 61.0749 82.569 61.0527C82.5908 61.0742 82.6107 61.0975 82.6283 61.1225H82.629Z" fill="white"/>
<path opacity="0.999" d="M118.119 60.6047L117.951 60.5654C117.98 60.5362 118.011 60.5091 118.044 60.4844C118.073 60.5219 118.098 60.5621 118.119 60.6047Z" fill="white"/>
<path opacity="0.999" d="M62.8556 63.428H62.6646C62.7053 63.399 62.7386 63.3758 62.7786 63.3535C62.8045 63.3773 62.8312 63.402 62.8556 63.428Z" fill="white"/>
<path opacity="0.999" d="M72.8228 46.7205C72.8635 46.4629 72.8968 46.2053 72.9235 45.9448C72.9235 45.9113 72.9235 45.8747 72.9235 45.8405C73.0109 45.7968 73.1043 45.7665 73.2005 45.75C73.0687 46.0731 72.942 46.3952 72.8228 46.7205Z" fill="white"/>
<path opacity="0.999" d="M82.629 61.1225H82.5098C82.5282 61.0981 82.5479 61.0749 82.569 61.0527C82.5908 61.0742 82.6107 61.0975 82.6283 61.1225H82.629Z" fill="white"/>
<path opacity="0.999" d="M93.251 61.1267H93.1162C93.1392 61.0977 93.1658 61.0695 93.1903 61.0449C93.2127 61.0705 93.2331 61.0978 93.251 61.1267Z" fill="white"/>
<path opacity="0.9" d="M158.152 11.1681C151.476 11.2276 144.799 11.2172 138.124 11.2299H91.8229C89.1479 11.2299 86.4735 11.2299 83.7994 11.2299C83.1965 13.2918 82.5945 15.354 81.9936 17.4164C81.9936 17.4507 81.9884 17.484 81.9832 17.5182C81.9759 17.5181 81.9688 17.5164 81.9624 17.5131C80.9713 20.5398 79.9572 23.561 78.9995 26.5943C77.7802 30.4532 76.57 34.3172 75.4241 38.1961C74.6834 40.7129 73.7086 43.1597 73.2019 45.745C73.0723 46.0673 72.9456 46.3898 72.8263 46.7129C72.825 46.7162 72.825 46.7197 72.8263 46.7231C71.7708 49.5361 71.0486 52.455 70.1145 55.3038C69.3244 57.717 68.5654 60.1422 67.8375 62.5793C67.7856 62.8547 67.6271 63.098 67.3967 63.256C67.1662 63.414 66.8829 63.4736 66.6087 63.4218C65.3613 63.4009 64.1117 63.4166 62.8636 63.4218H62.6725C59.117 63.4168 55.5616 63.4107 52.0061 63.4032H51.7098C50.7716 66.2671 49.8333 69.1307 48.895 71.9941H140.462C144.86 57.6852 149.258 43.3763 153.655 29.0673C155.368 23.5034 157.079 17.9378 158.789 12.3708C158.949 11.8229 159.401 11.1577 158.152 11.1681ZM107.197 37.5332C105.746 40.2301 103.487 42.2711 101.346 44.3903C101.172 44.5615 101.012 44.7492 100.849 44.9315C100.849 44.9395 100.851 44.9471 100.854 44.9544H100.828C97.2911 48.1215 93.7532 51.2887 90.214 54.4558C90.3333 54.4558 90.4526 54.4558 90.5711 54.4558C90.4031 54.548 90.218 54.6048 90.0274 54.6226C89.6911 54.8333 89.4889 55.0489 90.1015 55.069C90.9163 55.092 91.7393 55.0744 92.557 55.0744C96.048 55.0744 99.5383 55.1243 103.026 55.041C104.245 55.0119 104.41 55.3862 104.003 56.4112C103.392 57.9558 103.392 59.7057 102.427 61.1305H74.2174C77.0322 58.5386 79.6358 56.1433 82.2364 53.7434C82.2957 53.6548 82.3557 53.5691 82.4202 53.4828V53.5344C82.4189 53.5502 82.4165 53.5659 82.4128 53.5813C85.6443 50.6534 88.8768 47.723 92.1103 44.7901C92.1511 44.6204 92.1844 44.4543 92.2111 44.2853C92.3066 44.2034 92.4021 44.1165 92.4984 44.0301C92.4004 44.2984 92.2701 44.5537 92.1103 44.7901C94.4637 42.8331 96.686 40.722 98.7627 38.4709C99.8391 37.4092 100.745 36.1862 101.449 34.8457C102.823 31.9136 101.763 29.0449 98.691 28.0624C97.4542 27.6046 96.1185 27.4857 94.8209 27.7178C93.5233 27.9498 92.3104 28.5244 91.3067 29.3828C91.4909 29.2773 91.7053 29.238 91.9148 29.2712C91.8451 29.3211 91.7777 29.3731 91.711 29.4304C91.5793 29.3958 91.4435 29.3803 91.3074 29.3843C89.9767 30.4696 88.9757 31.9085 88.4186 33.5372C88.2423 34.0181 88.103 34.475 87.4008 34.4572C85.5971 34.4133 83.7913 34.4365 81.9869 34.4365C82.0112 34.4709 82.0326 34.5073 82.0513 34.5451C81.8905 34.5198 81.7306 34.4857 81.5699 34.447C81.5423 34.4417 81.5151 34.4345 81.4884 34.4259C81.3017 34.3768 81.1647 34.3069 81.1647 34.0672C81.4484 33.5849 81.6438 33.0554 81.7417 32.5039C81.7824 32.4339 81.8158 32.3642 81.8558 32.2913C82.9009 30.3723 83.7912 28.3758 85.2993 26.7241C87.025 24.8561 89.1752 23.4357 91.5659 22.5846C91.677 22.5533 91.7882 22.5227 91.897 22.493C95.2278 21.5803 98.7376 21.5545 102.081 22.4185C102.095 22.4125 102.107 22.408 102.118 22.4028C102.118 22.4162 102.117 22.4266 102.123 22.437C104.172 23.3474 106.066 24.4633 107.339 26.4024C109.79 30.134 109.169 33.8671 107.197 37.5332H107.197ZM142.151 39.7827C141.376 45.0242 139.211 49.9593 135.884 54.0702C135.819 54.1409 135.757 54.2132 135.693 54.2832C135.629 54.3531 135.566 54.4229 135.504 54.4936C135.403 54.5978 135.3 54.6983 135.199 54.8033C134.977 55.032 134.752 55.2611 134.523 55.4899C134.407 55.609 134.285 55.7316 134.166 55.8537C131.983 57.5903 129.781 59.3224 127.09 60.2135C124.194 61.1823 121.087 61.3174 118.119 60.6035L117.951 60.5628C111.52 58.0564 109.174 52.1691 109.951 45.367C110.575 39.8913 112.184 34.7372 115.719 30.3558C117.161 28.6406 118.775 27.0778 120.533 25.6922C120.621 25.6401 120.709 25.5879 120.797 25.5388C122.683 24.2916 124.766 23.3771 126.958 22.8346C130.587 22.1275 134.097 22.3136 137.305 24.4128L137.346 24.4386C142.348 28.4806 143.096 33.8679 142.151 39.7812L142.151 39.7827Z" fill="white"/>
<path opacity="0.999" d="M52.0536 63.1902C52.0358 63.2497 52.0224 63.3069 52.0098 63.3665C52.0046 63.3799 52.0024 63.3956 51.9965 63.4075H51.7002C51.8079 63.3187 51.9273 63.2454 52.055 63.1895L52.0536 63.1902Z" fill="white"/>
<path opacity="0.999" d="M62.8556 63.428H62.6646C62.7053 63.399 62.7386 63.3758 62.7786 63.3535C62.8045 63.3773 62.8312 63.402 62.8556 63.428Z" fill="white"/>
<path opacity="0.999" d="M93.251 61.1267H93.1162C93.1392 61.0977 93.1658 61.0695 93.1903 61.0449C93.2127 61.0705 93.2331 61.0978 93.251 61.1267Z" fill="white"/>
<path opacity="0.999" d="M102.428 61.1259H102.184C102.207 61.0685 102.227 61.0088 102.248 60.9492C102.315 60.9998 102.376 61.0593 102.427 61.1259H102.428Z" fill="white"/>
<path opacity="0.999" d="M24.0339 0.661703C23.9598 0.661703 23.8858 0.661703 23.8169 0.661703H23.7939V0.300781C23.8909 0.410065 23.9719 0.532448 24.0346 0.664611L24.0339 0.661703Z" fill="white"/>
<path opacity="0.999" d="M31.5429 0.661703C31.4688 0.661703 31.3947 0.661703 31.3207 0.661703H31.2896V0.300781C31.3934 0.406101 31.4791 0.528021 31.5429 0.661703Z" fill="white"/>
<path opacity="0.999" d="M40.3458 0.299783V0.658524H40.3405C40.2665 0.658524 40.1828 0.658524 40.105 0.658524C40.1629 0.524339 40.2445 0.401898 40.3458 0.296875V0.299783Z" fill="white"/>
<path opacity="0.999" d="M61.5548 20.2695C61.4958 20.3294 61.4335 20.3855 61.3682 20.4382C61.3704 20.401 61.3781 20.3644 61.3911 20.3295C61.4459 20.3109 61.4985 20.2904 61.5548 20.2695Z" fill="white"/>
<path opacity="0.999" d="M59.7946 51.7285C59.7635 51.803 59.7354 51.8776 59.7065 51.952C59.6805 51.8999 59.6517 51.8508 59.625 51.7987C59.625 51.7987 59.625 51.7904 59.625 51.7881C59.6794 51.761 59.7372 51.7414 59.7969 51.73L59.7946 51.7285Z" fill="white"/>
<path opacity="0.999" d="M60.5275 60.8065H60.4534C60.4193 60.7775 60.3838 60.7469 60.3497 60.7149L60.3423 60.6738C60.4078 60.7116 60.4694 60.7562 60.526 60.8065H60.5275Z" fill="white"/>
<path opacity="0.999" d="M60.5275 60.8065H60.4534C60.4193 60.7775 60.3838 60.7469 60.3497 60.7149L60.3423 60.6738C60.4078 60.7116 60.4694 60.7562 60.526 60.8065H60.5275Z" fill="white"/>
<path opacity="0.999" d="M52.0536 63.1902C52.0358 63.2497 52.0224 63.3069 52.0098 63.3665C52.0046 63.3799 52.0024 63.3956 51.9965 63.4075H51.7002C51.8079 63.3187 51.9273 63.2454 52.055 63.1895L52.0536 63.1902Z" fill="white"/>
<path opacity="0.999" d="M62.8556 63.428H62.6646C62.7053 63.399 62.7386 63.3758 62.7786 63.3535C62.8045 63.3773 62.8312 63.402 62.8556 63.428Z" fill="white"/>
<path opacity="0.999" d="M72.8228 46.7205C72.8635 46.4629 72.8968 46.2053 72.9235 45.9448C72.9235 45.9113 72.9235 45.8747 72.9235 45.8405C73.0109 45.7968 73.1043 45.7665 73.2005 45.75C73.0687 46.0731 72.942 46.3952 72.8228 46.7205Z" fill="white"/>
<path opacity="0.999" d="M120.799 25.543C120.779 25.6013 120.756 25.6585 120.73 25.7142C120.668 25.7142 120.603 25.7038 120.536 25.6964C120.62 25.6442 120.708 25.5951 120.799 25.543Z" fill="white"/>
<path opacity="0.999" d="M137.344 24.4422C137.328 24.4504 137.312 24.4555 137.297 24.4629C137.297 24.4472 137.299 24.4315 137.302 24.416L137.344 24.4422Z" fill="white"/>
<path opacity="0.999" d="M24.0339 0.661703C23.9598 0.661703 23.8858 0.661703 23.8169 0.661703H23.7939V0.300781C23.8909 0.410065 23.9719 0.532448 24.0346 0.664611L24.0339 0.661703Z" fill="white"/>
<path opacity="0.999" d="M24.3395 17.8594C24.3447 17.9156 24.3447 17.9722 24.3395 18.0284C24.258 18.1162 24.1713 18.2047 24.0884 18.2955C24.1625 18.1452 24.2513 17.9993 24.3395 17.8594Z" fill="white"/>
<path opacity="0.999" d="M81.9126 32.4905C81.8552 32.4984 81.7971 32.5007 81.7393 32.4978C81.78 32.4278 81.817 32.3581 81.8533 32.2852C81.8798 32.3515 81.8997 32.4202 81.9126 32.4905Z" fill="white"/>
<path opacity="0.999" d="M91.8948 22.4863C91.8405 22.5623 91.7789 22.633 91.7111 22.6971C91.6559 22.6651 91.606 22.6245 91.563 22.5772C91.6748 22.5467 91.7867 22.5154 91.8948 22.4863Z" fill="white"/>
<path opacity="0.999" d="M91.8948 22.4863C91.8405 22.5623 91.7789 22.633 91.7111 22.6971C91.6559 22.6651 91.606 22.6245 91.563 22.5772C91.6748 22.5467 91.7867 22.5154 91.8948 22.4863Z" fill="white"/>
<path opacity="0.999" d="M137.303 24.416C137.3 24.4317 137.298 24.4476 137.298 24.4636C137.313 24.4547 137.329 24.4496 137.344 24.4429L137.303 24.416ZM118.044 60.4864C118.011 60.5114 117.98 60.5387 117.951 60.5682L118.119 60.6071C118.098 60.5645 118.073 60.524 118.045 60.4864H118.044ZM120.534 25.6958C120.601 25.704 120.665 25.7114 120.728 25.7136C120.754 25.6578 120.777 25.6007 120.797 25.5424L120.534 25.6958Z" fill="white"/>
<path opacity="0.999" d="M91.918 29.2674C91.8484 29.3165 91.781 29.3696 91.7143 29.4262C91.5826 29.3915 91.4466 29.3759 91.3105 29.38C91.4943 29.2739 91.7087 29.2339 91.918 29.2674Z" fill="white"/>
<path opacity="0.999" d="M81.9126 32.4905C81.8552 32.4984 81.7971 32.5007 81.7393 32.4978C81.78 32.4278 81.817 32.3581 81.8533 32.2852C81.8798 32.3515 81.8997 32.4202 81.9126 32.4905Z" fill="white"/>
<path opacity="0.999" d="M82.0519 34.5405C81.8912 34.5144 81.7312 34.4799 81.5705 34.4412C81.543 34.436 81.5158 34.4294 81.489 34.4212C81.3023 34.3721 81.166 34.3014 81.166 34.0625C81.277 34.1626 81.3785 34.273 81.469 34.3922C81.5627 34.4213 81.6605 34.4353 81.7586 34.4332H81.9912C82.0146 34.4673 82.0354 34.5032 82.0534 34.5405H82.0519Z" fill="white"/>
<path opacity="0.999" d="M91.8948 22.4863C91.8405 22.5623 91.7789 22.633 91.7111 22.6971C91.6559 22.6651 91.606 22.6245 91.563 22.5772C91.6748 22.5467 91.7867 22.5154 91.8948 22.4863Z" fill="white"/>
<path opacity="0.999" d="M92.5 44.0254C92.4018 44.2934 92.2714 44.5484 92.1118 44.7847C92.1526 44.6157 92.1859 44.4499 92.2125 44.2802C92.3088 44.1968 92.4044 44.111 92.5 44.0254Z" fill="white"/>
<path opacity="0.999" d="M90.5671 54.4541C90.3989 54.5459 90.214 54.6027 90.0234 54.6209C90.0857 54.5666 90.1478 54.5092 90.2101 54.4541C90.3286 54.4541 90.4457 54.4519 90.5671 54.4541Z" fill="white"/>
<path opacity="0.999" d="M82.4217 53.4785V53.5309C82.4205 53.5467 82.418 53.5623 82.4143 53.5777C82.355 53.6298 82.298 53.6849 82.2388 53.7362C82.2973 53.6499 82.3565 53.5641 82.4217 53.4785Z" fill="white"/>
<path opacity="0.999" d="M82.629 61.1225H82.5098C82.5282 61.0981 82.5479 61.0749 82.569 61.0527C82.5908 61.0742 82.6107 61.0975 82.6283 61.1225H82.629Z" fill="white"/>
<path opacity="0.999" d="M93.251 61.1267H93.1162C93.1392 61.0977 93.1658 61.0695 93.1903 61.0449C93.2127 61.0705 93.2331 61.0978 93.251 61.1267Z" fill="white"/>
<path opacity="0.999" d="M102.428 61.1259H102.184C102.207 61.0685 102.227 61.0088 102.248 60.9492C102.315 60.9998 102.376 61.0593 102.427 61.1259H102.428Z" fill="white"/>
<path opacity="0.999" d="M90.5671 54.4541C90.3989 54.5459 90.214 54.6027 90.0234 54.6209C90.0857 54.5666 90.1478 54.5092 90.2101 54.4541C90.3286 54.4541 90.4457 54.4519 90.5671 54.4541Z" fill="white"/>
<path opacity="0.999" d="M40.5928 52.7604C40.588 52.7604 40.5859 52.7604 40.5805 52.7604C40.5793 52.7557 40.5793 52.7508 40.5805 52.7461C40.5858 52.7495 40.5906 52.7537 40.5948 52.7584L40.5928 52.7604Z" fill="white"/>
<path opacity="0.999" d="M59.7946 51.7285C59.7635 51.803 59.7354 51.8776 59.7065 51.952C59.6805 51.8999 59.6517 51.8508 59.625 51.7987C59.625 51.7987 59.625 51.7904 59.625 51.7881C59.6794 51.761 59.7372 51.7414 59.7969 51.73L59.7946 51.7285Z" fill="white"/>
<path opacity="0.999" d="M60.5275 60.8065H60.4534C60.4193 60.7775 60.3838 60.7469 60.3497 60.7149L60.3423 60.6738C60.4078 60.7116 60.4694 60.7562 60.526 60.8065H60.5275Z" fill="white"/>
<path opacity="0.999" d="M29.5298 52.8825C29.429 52.8647 29.3261 52.8463 29.2246 52.8255C29.2629 52.7846 29.3056 52.7481 29.352 52.7168C29.4183 52.7642 29.4783 52.8198 29.5305 52.8825H29.5298Z" fill="white"/>
<path opacity="0.999" d="M29.5298 52.8825C29.429 52.8647 29.3261 52.8463 29.2246 52.8255C29.2629 52.7846 29.3056 52.7481 29.352 52.7168C29.4183 52.7642 29.4783 52.8198 29.5305 52.8825H29.5298Z" fill="white"/>
<path opacity="0.999" d="M40.5928 52.7604C40.588 52.7604 40.5859 52.7604 40.5805 52.7604C40.5793 52.7557 40.5793 52.7508 40.5805 52.7461C40.5858 52.7495 40.5906 52.7537 40.5948 52.7584L40.5928 52.7604Z" fill="white"/>
<path opacity="0.999" d="M81.4645 34.3922C81.3885 34.3709 81.3199 34.329 81.2664 34.2708C81.2129 34.2125 81.1766 34.1403 81.1616 34.0625C81.2727 34.1626 81.374 34.273 81.4645 34.3922Z" fill="white"/>
<path opacity="0.999" d="M82.052 34.5428C81.8912 34.5175 81.7313 34.483 81.5706 34.4443C81.543 34.439 81.5158 34.4322 81.4891 34.4236H81.4846C81.4784 34.4134 81.4715 34.4036 81.4639 34.3945C81.5578 34.4239 81.6559 34.4379 81.7542 34.4356H81.9869C82.0114 34.4695 82.0331 34.5054 82.052 34.5428Z" fill="white"/>
<path opacity="0.999" d="M91.918 29.2674C91.8484 29.3165 91.781 29.3696 91.7143 29.4262C91.5826 29.3915 91.4466 29.3759 91.3105 29.38C91.4943 29.2739 91.7087 29.2339 91.918 29.2674Z" fill="white"/>
<path opacity="0.999" d="M82.4217 53.4785V53.5309C82.4205 53.5467 82.418 53.5623 82.4143 53.5777C82.355 53.6298 82.298 53.6849 82.2388 53.7362C82.2973 53.6499 82.3565 53.5641 82.4217 53.4785Z" fill="white"/>
<path opacity="0.999" d="M92.5 44.0254C92.4018 44.2934 92.2714 44.5484 92.1118 44.7847C92.1526 44.6157 92.1859 44.4499 92.2125 44.2802C92.3088 44.1968 92.4044 44.111 92.5 44.0254Z" fill="white"/>
<path opacity="0.999" d="M82.3639 0.0396603C61.6074 0.0605029 40.8501 0.0650186 20.0921 0.0531086C19.6913 0.0531086 19.2307 -0.154489 18.8862 0.251198C17.7707 3.14534 16.9558 6.1318 16.084 9.10559C15.6877 10.3383 15.2766 11.5619 14.8989 12.8028C12.9636 19.1082 11.0308 25.4145 9.10048 31.7219C9.02641 31.8231 8.90422 31.914 8.86792 32.0287C6.10255 41.0108 3.33993 49.9945 0.579992 58.9797C0.457773 59.3675 0.531066 59.873 0.00292969 60.0457V60.8228C3.19051 60.8228 6.37981 60.8183 9.57085 60.8094H41.6442C42.1124 60.8302 42.5804 60.8616 43.0515 60.8668C46.1487 60.8946 49.246 60.9179 52.3432 60.9373H52.3921C55.0834 60.8926 57.7727 60.8494 60.4601 60.8072C60.426 60.7789 60.3904 60.7476 60.3563 60.7163C60.3563 60.7029 60.3512 60.6871 60.3489 60.6752C60.4146 60.7128 60.4762 60.7574 60.5327 60.8079C61.9089 60.8079 63.4896 61.2396 64.6066 60.7007C65.7237 60.1618 65.6214 58.3657 66.0139 57.1129C70.6479 42.2844 75.2691 27.453 79.8774 12.6185C80.03 12.1294 80.2344 11.6564 80.4129 11.1748C81.39 7.91145 82.3069 4.63262 83.3624 1.3983C83.7291 0.252698 83.5069 0.0366828 82.3639 0.0396603ZM40.3471 0.299539V0.658279H40.342C40.2679 0.658279 40.1842 0.658279 40.1064 0.658279C40.1641 0.524385 40.2454 0.402178 40.3464 0.297358L40.3471 0.299539ZM31.2941 0.299539C31.3974 0.405971 31.4822 0.52919 31.5452 0.663731C31.4711 0.663731 31.397 0.663731 31.3229 0.663731H31.2918L31.2941 0.299539ZM23.7957 0.299539C23.8925 0.408944 23.9736 0.531667 24.0365 0.663731C23.9624 0.663731 23.8883 0.663731 23.8194 0.663731H23.7964L23.7957 0.299539ZM59.7948 51.7318C59.7637 51.8062 59.7357 51.8805 59.7068 51.955C58.8372 54.1137 58.7571 54.1136 56.229 54.1136H51.7765C52.5424 51.48 53.2772 48.9477 54.092 46.1391C54.092 46.1391 54.0921 46.1391 54.0869 46.1391C54.0459 46.1042 54.0006 46.0745 53.9521 46.0512C50.0395 49.2409 45.4811 51.5339 40.5953 52.7695C40.5902 52.7695 40.5879 52.7695 40.582 52.7695C38.4771 53.1593 36.3417 53.3585 34.2014 53.3648C32.6345 53.3325 31.0728 53.174 29.5311 52.8913C29.4304 52.8734 29.3275 52.855 29.226 52.8335C25.136 51.8711 21.5736 49.3585 19.2824 45.8204C19.0805 45.5112 18.8803 45.2001 18.6818 44.887C18.5833 44.7314 18.4847 44.5723 18.3855 44.4167C16.4529 40.3576 16.4499 36.099 17.0944 31.7764C17.1684 31.4824 17.247 31.1915 17.3299 30.9026C18.6844 26.2746 20.9876 21.9825 24.0913 18.3024C24.1653 18.1535 24.2542 18.0047 24.3424 17.8655C24.3475 17.9219 24.3475 17.9788 24.3424 18.0352C26.4655 15.7864 28.7939 13.7427 31.2971 11.9312C34.0013 10.2703 36.8623 8.88235 39.8383 7.7873C46.2086 5.93082 52.4573 5.7098 58.4475 9.0409C58.529 9.08481 58.6134 9.13175 58.6956 9.17865C61.6604 11.1769 63.9223 14.0641 65.1592 17.4293C65.4555 18.2534 65.4621 18.7214 64.4784 19.0177C63.48 19.3767 62.5044 19.7968 61.557 20.2756C61.4982 20.3358 61.4359 20.3925 61.3704 20.4454C61.3726 20.4082 61.3804 20.3716 61.3934 20.3367C60.4853 20.6717 59.566 20.9755 58.6846 21.3686C58.0742 21.6418 57.7957 21.5585 57.5283 20.9161C55.6446 16.3657 52.0351 14.3015 47.3233 13.8608C43.1007 13.6189 38.916 14.7781 35.4133 17.1604C29.5919 20.7252 25.6357 25.6525 24.4424 32.5328C24.1285 34.1419 24.1656 35.8001 24.551 37.3934C24.9364 38.9868 25.661 40.4772 26.6749 41.7619C27.6887 43.0467 28.9678 44.0953 30.4238 44.8354C31.8798 45.5755 33.4782 45.9896 35.1088 46.049C41.3057 46.6051 46.4055 44.1928 51.2565 40.0682H42.2138C42.2138 40.0682 42.2138 40.0679 42.2138 40.0627C42.9101 37.7358 43.5723 35.5183 44.2345 33.3023C44.2397 33.3023 44.2419 33.2972 44.2471 33.2943L44.2545 33.3023C51.1239 33.2819 57.9937 33.264 64.8636 33.2481C65.0575 33.2628 65.2503 33.2901 65.4407 33.3299C63.5504 39.4948 61.6711 45.6121 59.7934 51.7369L59.7948 51.7318Z" fill="white"/>
<path opacity="0.999" d="M24.3395 17.8594C24.3447 17.9156 24.3447 17.9722 24.3395 18.0284C24.258 18.1162 24.1713 18.2047 24.0884 18.2955C24.1625 18.1452 24.2513 17.9993 24.3395 17.8594Z" fill="white"/>
<path opacity="0.999" d="M29.5298 52.8825C29.429 52.8647 29.3261 52.8463 29.2246 52.8255C29.2629 52.7846 29.3056 52.7481 29.352 52.7168C29.4183 52.7642 29.4783 52.8198 29.5305 52.8825H29.5298Z" fill="white"/>
<path opacity="0.999" d="M40.5928 52.7604C40.588 52.7604 40.5859 52.7604 40.5805 52.7604C40.5793 52.7557 40.5793 52.7508 40.5805 52.7461C40.5858 52.7495 40.5906 52.7537 40.5948 52.7584L40.5928 52.7604Z" fill="white"/>
<path opacity="0.999" d="M59.7946 51.7285C59.7635 51.803 59.7354 51.8776 59.7065 51.952C59.6805 51.8999 59.6517 51.8508 59.625 51.7987C59.625 51.7987 59.625 51.7904 59.625 51.7881C59.6794 51.761 59.7372 51.7414 59.7969 51.73L59.7946 51.7285Z" fill="white"/>
<path opacity="0.999" d="M61.5548 20.2695C61.4958 20.3294 61.4335 20.3855 61.3682 20.4382C61.3704 20.401 61.3781 20.3644 61.3911 20.3295C61.4459 20.3109 61.4985 20.2904 61.5548 20.2695Z" fill="white"/>
<path opacity="0.999" d="M61.5548 20.2695C61.4958 20.3294 61.4335 20.3855 61.3682 20.4382C61.3704 20.401 61.3781 20.3644 61.3911 20.3295C61.4459 20.3109 61.4985 20.2904 61.5548 20.2695Z" fill="white"/>
<path opacity="0.999" d="M40.3458 0.299783V0.658524H40.3405C40.2665 0.658524 40.1828 0.658524 40.105 0.658524C40.1629 0.524339 40.2445 0.401898 40.3458 0.296875V0.299783Z" fill="white"/>
<path opacity="0.999" d="M24.0339 0.661703C23.9598 0.661703 23.8858 0.661703 23.8169 0.661703H23.7939V0.300781C23.8909 0.410065 23.9719 0.532448 24.0346 0.664611L24.0339 0.661703Z" fill="white"/>
<path opacity="0.999" d="M31.5429 0.661703C31.4688 0.661703 31.3947 0.661703 31.3207 0.661703H31.2896V0.300781C31.3934 0.406101 31.4791 0.528021 31.5429 0.661703Z" fill="white"/>
<path opacity="0.999" d="M24.3395 17.8594C24.3447 17.9156 24.3447 17.9722 24.3395 18.0284C24.258 18.1162 24.1713 18.2047 24.0884 18.2955C24.1625 18.1452 24.2513 17.9993 24.3395 17.8594Z" fill="white"/>
<path opacity="0.999" d="M31.5429 0.661703C31.4688 0.661703 31.3947 0.661703 31.3207 0.661703H31.2896V0.300781C31.3934 0.406101 31.4791 0.528021 31.5429 0.661703Z" fill="white"/>
<path opacity="0.999" d="M40.3458 0.299783V0.658524H40.3405C40.2665 0.658524 40.1828 0.658524 40.105 0.658524C40.1629 0.524339 40.2445 0.401898 40.3458 0.296875V0.299783Z" fill="white"/>
<path opacity="0.9" d="M135.897 37.229C135.717 42.3731 133.823 47.3077 130.52 51.2414C128.959 53.2858 126.729 54.7095 124.224 55.2609C123.002 55.5836 121.704 55.4476 120.575 54.8786C119.445 54.3096 118.56 53.3467 118.086 52.1697C116.686 49.1586 116.885 46.0224 117.45 42.8885C118.353 37.8625 120.366 33.3874 124.37 30.0749C127.79 27.2463 132.524 27.654 134.495 30.8727C135.582 32.8038 136.07 35.0173 135.897 37.229Z" fill="white"/>
<path opacity="0.999" d="M91.918 29.2674C91.8484 29.3165 91.781 29.3696 91.7143 29.4262C91.5826 29.3915 91.4466 29.3759 91.3105 29.38C91.4943 29.2739 91.7087 29.2339 91.918 29.2674Z" fill="white"/>
<path opacity="0.999" d="M92.5 44.0254C92.4018 44.2934 92.2714 44.5484 92.1118 44.7847C92.1526 44.6157 92.1859 44.4499 92.2125 44.2802C92.3088 44.1968 92.4044 44.111 92.5 44.0254Z" fill="white"/>
</g>
</g>
<defs>
<clipPath id="clip0_412_9394">
<rect width="159" height="72" fill="white"/>
</clipPath>
</defs>
</svg>
