<svg width="74" height="96" viewBox="0 0 74 96" fill="none" xmlns="http://www.w3.org/2000/svg">
<path d="M11.3528 83.7898C11.6622 83.0925 12.1026 82.5624 12.6738 82.1994C13.2331 81.8355 13.8895 81.6841 14.643 81.7453C15.7434 81.8346 16.5567 82.3461 17.0829 83.2797C17.6091 84.2133 17.8042 85.5174 17.6683 87.1919L17.1177 93.9736L4.55905 92.9541L5.08043 86.5313C5.21054 84.9285 5.60859 83.7328 6.27458 82.9441C6.92862 82.1544 7.75799 81.8004 8.76268 81.8819C9.36071 81.9305 9.88681 82.1237 10.341 82.4615C10.7841 82.7865 11.1214 83.2292 11.3528 83.7898ZM7.41006 89.646L9.8321 89.8426L10.0302 87.4026C10.1273 86.2065 9.76914 85.5755 8.95581 85.5095C8.15445 85.4444 7.70522 86.0099 7.60813 87.206L7.41006 89.646ZM15.0794 87.2707C15.1804 86.0268 14.8062 85.3704 13.957 85.3014C13.1078 85.2325 12.6327 85.82 12.5318 87.0639L12.29 90.0421L14.8376 90.2489L15.0794 87.2707Z" fill="#E35D14"/>
<path d="M18.3856 68.9598L21.0569 69.6295L18.5968 79.4418L6.37511 76.3776L8.7783 66.7923L11.4496 67.4621L9.9044 73.6253L11.9646 74.1418L13.326 68.7119L15.91 69.3597L14.5487 74.7897L16.7835 75.35L18.3856 68.9598Z" fill="#E35D14"/>
<path d="M15.3472 50.3607L26.8773 55.4417L25.4401 58.7031L20.9434 56.7215L18.9836 61.1688L23.4803 63.1504L22.0431 66.4118L10.513 61.3308L11.9502 58.0694L16.2822 59.9784L18.242 55.5311L13.91 53.6221L15.3472 50.3607Z" fill="#E35D14"/>
<path d="M31.2814 43.9545L28.2907 48.3639L29.7609 50.5573L27.7199 53.5665L20.4143 41.8907L22.3845 38.9858L35.9444 41.4405L33.863 44.5092L31.2814 43.9545ZM28.5204 43.3433L24.2742 42.4208L26.7017 46.0247L28.5204 43.3433Z" fill="#E35D14"/>
<path d="M36.8835 22.2734L45.8896 31.0853L43.8377 33.1824L35.1489 32.4625L39.9479 37.158L37.5057 39.654L28.4996 30.8421L30.5515 28.7449L39.2403 29.4649L34.4413 24.7694L36.8835 22.2734Z" fill="#E35D14"/>
<path d="M53.8636 25.3285C52.7905 26.0972 51.664 26.5646 50.4841 26.7308C49.3069 26.8803 48.1845 26.7248 47.1167 26.2645C46.0489 25.8042 45.1482 25.0619 44.4144 24.0376C43.6807 23.0132 43.2677 21.9215 43.1755 20.7624C43.0833 19.6033 43.3008 18.4954 43.8281 17.4387C44.3582 16.3653 45.1597 15.4442 46.2328 14.6756C47.1694 14.0047 48.132 13.5661 49.1208 13.3597C50.1095 13.1533 51.0763 13.1841 52.021 13.4521L51.3722 16.441C50.1358 16.1162 49.0445 16.2928 48.0982 16.9706C47.5421 17.3689 47.1319 17.8472 46.8676 18.4056C46.6131 18.9569 46.5246 19.5443 46.6022 20.1678C46.6825 20.7745 46.9288 21.3656 47.3411 21.9412C47.7534 22.5168 48.2373 22.9451 48.7929 23.2261C49.3512 23.4904 49.9324 23.5908 50.5363 23.5272C51.15 23.4566 51.7349 23.2222 52.2909 22.8239C53.2372 22.146 53.7555 21.1696 53.8459 19.8944L56.8846 20.2419C56.8343 21.2226 56.5524 22.1479 56.0388 23.0176C55.5252 23.8874 54.8001 24.6577 53.8636 25.3285Z" fill="#E35D14"/>
<path d="M68.3896 13.6515L69.6115 16.1196L60.5456 20.6078L54.9554 9.31584L63.8115 4.93148L65.0334 7.39958L59.339 10.2187L60.2814 12.1222L65.2982 9.6385L66.4802 12.026L61.4633 14.5096L62.4855 16.5744L68.3896 13.6515Z" fill="#E35D14"/>
</svg>
