<svg width="113" height="75" fill="none" xmlns="http://www.w3.org/2000/svg"><path d="M6.066 8.103l.277 2.758 5.534-.556.276 2.74-5.534.556.432 4.299-3.546.356L2.245 5.72l9.831-.99.276 2.74-6.286.633zm18.766 7.119l-5.317-.328-1.14 2.382-3.629-.224 6.33-12.233 3.502.216 4.792 12.92-3.7-.228-.838-2.505zm-.88-2.687l-1.368-4.124-1.865 3.924 3.233.2zm13.799 7.629c-1.283-.312-2.372-.86-3.268-1.646a6.34 6.34 0 01-1.845-2.855c-.348-1.11-.373-2.276-.076-3.5.297-1.225.854-2.25 1.672-3.077a6.21 6.21 0 012.944-1.675c1.16-.3 2.38-.293 3.663.018 1.12.272 2.08.715 2.882 1.33a5.99 5.99 0 011.823 2.257l-2.688 1.459c-.56-1.149-1.407-1.86-2.538-2.135-.665-.161-1.295-.16-1.89.005a3.184 3.184 0 00-1.509.949c-.407.457-.694 1.03-.86 1.717-.168.688-.176 1.334-.027 1.939.165.595.468 1.101.91 1.517.454.419 1.014.709 1.678.87 1.131.275 2.21.03 3.234-.734l1.72 2.53a5.992 5.992 0 01-2.654 1.17c-.994.179-2.051.132-3.17-.14zM56.09 23.6l-1.092 2.528-9.287-4.01 4.995-11.568 9.072 3.918-1.092 2.528-5.833-2.519-.842 1.95 5.14 2.22-1.057 2.445-5.14-2.22-.913 2.116L56.09 23.6zm14.46 4.224c.47.6.732 1.238.784 1.913.058.665-.117 1.315-.525 1.952-.596.929-1.43 1.407-2.501 1.432-1.072.026-2.315-.415-3.729-1.322l-5.727-3.674 6.803-10.605 5.424 3.479c1.354.868 2.222 1.781 2.605 2.74.39.948.312 1.847-.232 2.695a2.994 2.994 0 01-1.253 1.12c-.495.24-1.045.329-1.648.27zm-3.315-6.233l-1.312 2.045 2.06 1.322c1.01.648 1.736.629 2.177-.058.434-.677.146-1.34-.864-1.987l-2.06-1.322zm-1.508 7.886c1.05.674 1.805.652 2.265-.065.46-.717.165-1.413-.885-2.087l-2.515-1.613-1.38 2.151 2.515 1.614zM74.65 40.05c-.98-.903-1.67-1.924-2.072-3.063a6.438 6.438 0 01-.251-3.417c.234-1.139.775-2.166 1.622-3.084.846-.917 1.828-1.538 2.944-1.862a6.437 6.437 0 013.426-.023c1.167.31 2.24.917 3.219 1.82.979.904 1.665 1.921 2.058 3.052.402 1.139.486 2.277.251 3.416-.226 1.147-.762 2.18-1.608 3.096-.847.917-1.833 1.534-2.958 1.85-1.116.326-2.258.333-3.426.023-1.158-.302-2.227-.904-3.206-1.808zm2.002-2.169a3.37 3.37 0 001.575.841c.582.13 1.167.098 1.754-.095.595-.202 1.132-.563 1.613-1.084.48-.52.793-1.08.939-1.68a3.222 3.222 0 00-.033-1.77 3.375 3.375 0 00-.965-1.503 3.375 3.375 0 00-1.575-.84 3.221 3.221 0 00-1.766.108c-.586.193-1.12.55-1.6 1.07s-.797 1.085-.951 1.694c-.146.6-.131 1.186.044 1.756.176.57.498 1.072.965 1.503zm8.956 14.318c-.791-1.072-1.277-2.204-1.458-3.399a6.438 6.438 0 01.396-3.402c.444-1.075 1.168-1.983 2.172-2.724 1.004-.742 2.085-1.167 3.243-1.276a6.437 6.437 0 013.368.622c1.089.524 2.028 1.322 2.82 2.393.791 1.072 1.274 2.2 1.447 3.384.181 1.194.05 2.328-.395 3.403-.438 1.084-1.158 1.997-2.162 2.738-1.004.742-2.088 1.162-3.253 1.261-1.158.11-2.28-.098-3.369-.622-1.081-.514-2.017-1.307-2.809-2.378zm2.375-1.754c.378.511.84.886 1.388 1.122a3.252 3.252 0 001.741.236c.622-.086 1.218-.34 1.788-.76.57-.421.982-.913 1.238-1.475.266-.57.366-1.15.3-1.744a3.374 3.374 0 00-.664-1.657 3.375 3.375 0 00-1.388-1.123 3.222 3.222 0 00-1.756-.225c-.612.08-1.203.33-1.773.75-.57.421-.987.916-1.253 1.485a3.253 3.253 0 00-.286 1.733c.065.594.287 1.146.665 1.658zm9.848 12.475l-1.861-.576-2.833 1.376-1.542-3.173 11.333-5.506 1.542 3.173-4.712 2.289 6.843 2.098 1.715 3.53-7.268-2.192-3.947 7.941-1.81-3.724 2.54-5.236z"/></svg>