<svg width="82" height="116" fill="none" xmlns="http://www.w3.org/2000/svg"><path d="M76.525 2.252l.425 3.538-12.51 1.502-.425-3.539 12.51-1.501zm.871 21.341l-12.599-.195.046-2.934 6.799-5.457-6.713-.104.054-3.492 12.598.195-.045 2.934-6.8 5.457 6.714.104-.054 3.492zm-14.034 7.548c.18-1.004.478-1.956.895-2.857.417-.9.885-1.61 1.404-2.126l2.381 1.614a7.574 7.574 0 00-1.231 1.773 7.47 7.47 0 00-.723 2.102c-.241 1.346-.025 2.08.648 2.2.355.064.65-.085.885-.445.244-.346.537-.928.879-1.744.367-.898.72-1.64 1.056-2.225a4.079 4.079 0 011.404-1.413c.589-.358 1.314-.46 2.176-.305a3.573 3.573 0 011.927.984c.54.523.915 1.224 1.123 2.103.207.89.203 1.932-.01 3.125a10.507 10.507 0 01-.715 2.359c-.318.76-.709 1.409-1.171 1.948l-2.411-1.547c.849-1.067 1.373-2.156 1.571-3.266.125-.697.11-1.224-.046-1.58-.144-.356-.381-.563-.712-.622-.33-.06-.612.085-.845.434-.233.348-.513.926-.84 1.733-.37.91-.729 1.65-1.075 2.222a3.922 3.922 0 01-1.387 1.416c-.578.371-1.299.48-2.16.326a3.544 3.544 0 01-1.91-.981c-.528-.522-.902-1.228-1.12-2.12-.206-.891-.204-1.927.007-3.108zm7.101 13.36l1.223-3.672 2.681.893-3.565 10.708-2.681-.892 1.217-3.655-9.274-3.087 1.126-3.382 9.273 3.087zM56.189 59.333l2.487-4.712-1.703-2.018 1.697-3.216 8.547 10.8-1.638 3.105-13.748-.947 1.73-3.28 2.628.268zm2.811.303l4.322.45-2.81-3.315L59 59.636zm-8.326 15.11l-1.927 2.492-4.13-3.193a8.212 8.212 0 01.58-2.692 9.882 9.882 0 011.39-2.474c.807-1.045 1.752-1.816 2.834-2.314a6.306 6.306 0 013.37-.534c1.156.135 2.232.587 3.229 1.358.996.77 1.705 1.698 2.127 2.782a6.153 6.153 0 01.306 3.4c-.207 1.189-.721 2.316-1.543 3.379-.72.93-1.522 1.645-2.408 2.143a6.108 6.108 0 01-2.784.806l-.236-3.05c1.262-.101 2.256-.622 2.982-1.562.66-.855.932-1.745.813-2.67-.109-.919-.595-1.712-1.46-2.38-.55-.426-1.135-.689-1.755-.789a3.306 3.306 0 00-1.782.215c-.568.244-1.064.641-1.49 1.192a4.554 4.554 0 00-.85 1.777l2.734 2.114zm-11.178 7.125l1.433-1.313-2.262-2.469 2.628-2.407 8.512 9.29-4.246 3.89c-.84.77-1.7 1.298-2.58 1.583-.87.293-1.712.333-2.527.119-.806-.205-1.53-.657-2.17-1.356-.616-.673-.996-1.407-1.14-2.203-.144-.78-.054-1.578.27-2.396l-4.679-1.084 2.813-2.578 3.948.924zm1.442 4.904c.397.434.843.644 1.336.632.493-.013 1.01-.266 1.549-.76l1.46-1.338-2.493-2.72-1.46 1.337c-.54.495-.841.983-.905 1.464-.055.49.116.952.513 1.385zm-15.94 4.938l4.485-2.877-.488-2.595 3.06-1.963 2.121 13.608-2.954 1.896-11.5-7.593 3.121-2.002 2.155 1.526zm2.298 1.648l3.54 2.52-.813-4.27-2.727 1.75zM6.901 97.57l2.45 6.212 1.054-6.24 1.477-.573 4.905 3.734-2.351-6.058 3.07-1.192 4.56 11.747-2.736 1.061-6.759-5.177-1.396 8.342-2.735 1.062-4.593-11.733 3.054-1.186z" fill="#fff"/></svg>