<svg width="103" height="80" fill="none" xmlns="http://www.w3.org/2000/svg"><path d="M98.444 71.9l3.869.075-.055 2.825-11.284-.218.055-2.825 3.851.074.189-9.772 3.563.069-.189 9.772zm-20.038-9.113l.464-2.715 9.97 1.705-2.123 12.42-9.74-1.665.464-2.715 6.263 1.071.358-2.094-5.518-.943.449-2.626 5.518.944.388-2.272-6.493-1.11zm-6.466 8.502l-3.39-1.1 3.018-9.297-5.719-1.856.873-2.688 9.108 2.956-3.89 11.985zM54.648 53.623l1.221-2.468 9.066 4.488-5.59 11.292-8.856-4.384 1.222-2.468 5.694 2.819.942-1.904-5.017-2.483 1.183-2.388 5.016 2.484 1.023-2.065-5.904-2.923zm-12.307-3.629l-2.56-1.835 3.04-4.243c.885 0 1.789.16 2.71.48a9.88 9.88 0 012.524 1.3c1.073.768 1.878 1.684 2.415 2.748.53 1.073.75 2.19.657 3.348-.092 1.16-.505 2.251-1.239 3.276-.734 1.024-1.634 1.766-2.702 2.227a6.153 6.153 0 01-3.386.43c-1.197-.163-2.342-.636-3.434-1.419-.956-.685-1.7-1.46-2.23-2.328a6.107 6.107 0 01-.906-2.752l3.038-.348c.148 1.257.705 2.232 1.67 2.923.878.63 1.778.868 2.699.715.914-.142 1.689-.657 2.325-1.545.405-.566.646-1.16.724-1.784a3.307 3.307 0 00-.28-1.772c-.265-.559-.68-1.04-1.245-1.446a4.555 4.555 0 00-1.807-.785l-2.013 2.81zM35.14 39.421l1.37 1.38 2.376-2.359 2.511 2.53-8.941 8.877-4.059-4.088c-.803-.81-1.364-1.647-1.683-2.514-.328-.858-.401-1.698-.22-2.52.172-.814.595-1.555 1.268-2.223.647-.643 1.366-1.052 2.155-1.227.773-.175 1.575-.117 2.405.174l.896-4.719 2.688 2.708-.765 3.981zm-4.842 1.638c-.417.414-.61.867-.577 1.36.032.492.306.997.821 1.517l1.395 1.405 2.619-2.6-1.395-1.405c-.516-.52-1.015-.801-1.499-.845-.492-.036-.947.153-1.364.568zm-5.92-16.186l3.039 4.376 2.575-.583 2.074 2.987-13.522 2.618-2.002-2.883 7.167-11.77 2.115 3.046-1.446 2.209zm-1.563 2.356l-2.388 3.63 4.236-.968-1.848-2.662zM17.88 7.02L11.765 9.7l6.275.82.628 1.454-3.548 5.042 5.966-2.576 1.305 3.024-11.567 4.995-1.163-2.694 4.92-6.948-8.388-1.083L5.029 9.04l11.553-5.028 1.299 3.008z" fill="#fff"/></svg>