<svg width="113" height="75" viewBox="0 0 113 75" fill="none" xmlns="http://www.w3.org/2000/svg">
<path d="M6.06579 8.10308L6.34321 10.8612L11.8773 10.3045L12.1529 13.0447L6.61883 13.6013L7.05117 17.8996L3.50506 18.2563L2.24407 5.71958L12.0765 4.7306L12.3521 7.47078L6.06579 8.10308Z"/>
<path d="M24.8324 15.2224L19.5146 14.8937L18.3754 17.276L14.7463 17.0517L21.0751 4.81881L24.5784 5.03536L29.3704 17.9556L25.6695 17.7268L24.8324 15.2224ZM23.9525 12.535L22.5843 8.41077L20.7187 12.3351L23.9525 12.535Z"/>
<path d="M37.7512 20.1636C36.4684 19.8523 35.379 19.304 34.4829 18.5185C33.6014 17.7242 32.9865 16.7724 32.6383 15.663C32.2901 14.5536 32.2645 13.3867 32.5616 12.1622C32.8587 10.9377 33.4163 9.91229 34.2342 9.08586C35.0521 8.25943 36.0335 7.70108 37.1782 7.41083C38.3374 7.11175 39.5584 7.11784 40.8412 7.4291C41.9607 7.70075 42.9213 8.14376 43.7231 8.75814C44.5248 9.37252 45.1325 10.125 45.5461 11.0157L42.8582 12.475C42.2973 11.3263 41.4512 10.6148 40.32 10.3403C39.6553 10.179 39.0252 10.1805 38.4297 10.3447C37.8458 10.5117 37.343 10.8281 36.9213 11.2938C36.5141 11.7506 36.227 12.3231 36.0601 13.0111C35.8931 13.6991 35.8845 14.3453 36.0342 14.9497C36.1985 15.5452 36.5017 16.051 36.9441 16.467C37.3981 16.8859 37.9575 17.176 38.6222 17.3373C39.7534 17.6117 40.8315 17.3671 41.8565 16.6032L43.5767 19.1322C42.8008 19.7342 41.9159 20.1245 40.9217 20.3031C39.9275 20.4817 38.8707 20.4352 37.7512 20.1636Z"/>
<path d="M56.0896 23.5997L54.9979 26.1281L45.7106 22.1179L50.7055 10.5502L59.7779 14.4676L58.6861 16.996L52.8527 14.4772L52.0107 16.4271L57.1501 18.6463L56.094 21.092L50.9547 18.8729L50.0413 20.9881L56.0896 23.5997Z"/>
<path d="M70.5508 27.8237C71.0208 28.4245 71.2817 29.0624 71.3336 29.7372C71.3919 30.4019 71.217 31.0524 70.8088 31.6888C70.2128 32.618 69.379 33.0955 68.3076 33.121C67.2362 33.1466 65.9935 32.7059 64.5794 31.7989L58.8523 28.1253L65.6552 17.5196L71.0792 20.9988C72.4327 21.867 73.301 22.7803 73.6841 23.7389C74.0737 24.6873 73.9964 25.5858 73.4522 26.4343C73.1282 26.9393 72.7104 27.3128 72.1987 27.5549C71.7036 27.7933 71.1543 27.8829 70.5508 27.8237ZM67.2351 21.591L65.9231 23.6364L67.9836 24.9581C68.9937 25.606 69.719 25.5865 70.1596 24.8997C70.5936 24.2229 70.3057 23.5606 69.2956 22.9127L67.2351 21.591ZM65.7267 29.4768C66.7772 30.1506 67.5324 30.1289 67.9924 29.4118C68.4524 28.6946 68.1572 27.9991 67.1067 27.3253L64.5917 25.7121L63.2116 27.8635L65.7267 29.4768Z"/>
<path d="M74.6495 40.0502C73.6708 39.1467 72.9803 38.1256 72.5781 36.9867C72.1847 35.856 72.101 34.7172 72.3268 33.5702C72.5615 32.4314 73.1021 31.4035 73.9486 30.4864C74.7951 29.5694 75.7766 28.9484 76.8931 28.6236C78.0183 28.3068 79.1602 28.2994 80.3187 28.6012C81.486 28.9112 82.5591 29.5179 83.5378 30.4214C84.5166 31.3249 85.2026 32.342 85.596 33.4727C85.9982 34.6115 86.082 35.7503 85.8473 36.8892C85.6214 38.0361 85.0852 39.0681 84.2387 39.9852C83.3922 40.9022 82.4063 41.5191 81.2811 41.8358C80.1646 42.1607 79.0227 42.1682 77.8554 41.8582C76.6969 41.5563 75.6283 40.9537 74.6495 40.0502ZM76.6518 37.8811C77.1192 38.3125 77.6442 38.5929 78.2268 38.7225C78.8094 38.852 79.3941 38.8202 79.9808 38.6269C80.5757 38.4247 81.1132 38.0636 81.5935 37.5433C82.0737 37.0231 82.3867 36.4628 82.5326 35.8626C82.6865 35.2535 82.6757 34.6637 82.5 34.0933C82.3243 33.5228 82.0028 33.0219 81.5355 32.5905C81.0682 32.1591 80.5432 31.8787 79.9605 31.7491C79.3779 31.6195 78.7892 31.6558 78.1943 31.8579C77.6076 32.0513 77.0741 32.408 76.5939 32.9283C76.1137 33.4485 75.7966 34.0132 75.6426 34.6223C75.4968 35.2225 75.5117 35.8079 75.6873 36.3783C75.863 36.9488 76.1845 37.4497 76.6518 37.8811Z"/>
<path d="M85.6084 52.1987C84.817 51.1273 84.3308 49.9945 84.1499 48.8004C83.9762 47.6159 84.1081 46.4816 84.5456 45.3976C84.9903 44.3232 85.7145 43.4153 86.7184 42.6738C87.7222 41.9323 88.8029 41.507 89.9606 41.3978C91.1253 41.2983 92.2482 41.5057 93.3293 42.0201C94.4175 42.544 95.3573 43.3417 96.1487 44.4131C96.9401 45.4845 97.4227 46.6125 97.5964 47.797C97.7773 48.9911 97.6454 50.1254 97.2008 51.1998C96.7632 52.2838 96.0425 53.1966 95.0387 53.9381C94.0349 54.6796 92.9506 55.1 91.7858 55.1995C90.6282 55.3087 89.5053 55.1013 88.4171 54.5773C87.336 54.063 86.3997 53.2701 85.6084 52.1987ZM87.9828 50.4448C88.3607 50.9564 88.8236 51.3306 89.3715 51.5674C89.9194 51.8042 90.4996 51.8829 91.1122 51.8033C91.7344 51.7167 92.3303 51.463 92.8998 51.0424C93.4693 50.6217 93.8821 50.1303 94.1382 49.5682C94.404 48.9989 94.5042 48.4176 94.4389 47.8243C94.3737 47.231 94.1521 46.6786 93.7742 46.167C93.3964 45.6554 92.9335 45.2813 92.3856 45.0444C91.8377 44.8076 91.2526 44.7326 90.6304 44.8192C90.0178 44.8987 89.4268 45.1488 88.8573 45.5695C88.2878 45.9901 87.8702 46.4851 87.6044 47.0544C87.3483 47.6165 87.2529 48.1942 87.3181 48.7875C87.3834 49.3808 87.605 49.9333 87.9828 50.4448Z"/>
<path d="M97.831 62.9202L95.9699 62.3436L93.1366 63.7201L91.5948 60.5468L102.928 55.0405L104.47 58.2138L99.7584 60.5029L106.601 62.6014L108.316 66.1308L101.048 63.9389L97.1011 71.88L95.2919 68.1563L97.831 62.9202Z"/>
</svg>
