<svg width="74" height="96" fill="none" xmlns="http://www.w3.org/2000/svg"><path d="M11.353 83.79c.31-.698.75-1.228 1.32-1.59.56-.365 1.216-.516 1.97-.455 1.1.09 1.914.601 2.44 1.535.526.933.721 2.237.585 3.912l-.55 6.782-12.559-1.02.521-6.423c.13-1.603.529-2.798 1.195-3.587.654-.79 1.483-1.144 2.488-1.062a2.995 2.995 0 011.578.58c.443.325.78.767 1.012 1.328zM7.41 89.646l2.422.197.198-2.44c.097-1.197-.26-1.828-1.074-1.894-.802-.065-1.25.5-1.348 1.697l-.198 2.44zm7.67-2.375c.1-1.244-.274-1.9-1.123-1.97-.85-.069-1.324.519-1.425 1.763l-.242 2.978 2.548.207.241-2.978zm3.306-18.311l2.67.67-2.46 9.812-12.22-3.064 2.402-9.586 2.672.67-1.546 6.163 2.06.517 1.362-5.43 2.584.648-1.361 5.43 2.235.56 1.602-6.39zm-3.039-18.6l11.53 5.082-1.437 3.261-4.497-1.982-1.96 4.448 4.497 1.981-1.437 3.262-11.53-5.081 1.437-3.262 4.332 1.91 1.96-4.448-4.332-1.909 1.437-3.261zm15.934-6.405l-2.99 4.409 1.47 2.193-2.041 3.01-7.306-11.676 1.97-2.905 13.56 2.455-2.081 3.068-2.582-.554zm-2.76-.612l-4.247-.922 2.428 3.604 1.818-2.682zm8.362-21.07l9.007 8.812-2.052 2.097-8.69-.72 4.8 4.696-2.442 2.496-9.006-8.812 2.052-2.097 8.688.72-4.799-4.696 2.442-2.496zm16.981 3.055c-1.073.77-2.2 1.237-3.38 1.403a6.339 6.339 0 01-3.367-.466c-1.068-.46-1.969-1.203-2.703-2.227-.733-1.025-1.146-2.116-1.239-3.276a6.21 6.21 0 01.653-3.323c.53-1.074 1.332-1.995 2.405-2.763.936-.671 1.899-1.11 2.888-1.316a5.99 5.99 0 012.9.092l-.649 2.989c-1.236-.325-2.328-.148-3.274.53-.556.398-.966.876-1.23 1.435a3.185 3.185 0 00-.266 1.762c.08.607.327 1.198.74 1.773.411.576.895 1.004 1.45 1.285.56.264 1.14.365 1.744.301.614-.07 1.199-.305 1.755-.703.946-.678 1.465-1.654 1.555-2.93l3.039.348a5.99 5.99 0 01-.846 2.776c-.514.87-1.239 1.64-2.175 2.31zM68.39 13.652l1.222 2.468-9.066 4.488-5.59-11.292L63.81 4.93l1.224 2.47-5.694 2.819.942 1.903 5.017-2.483 1.182 2.387-5.017 2.484 1.023 2.064 5.904-2.923z" fill="#E35D14"/></svg>