<svg width="113" height="75" viewBox="0 0 113 75" fill="none" xmlns="http://www.w3.org/2000/svg">
<path d="M6.28039 8.25395L6.55781 11.012L12.0919 10.4554L12.3675 13.1956L6.83343 13.7522L7.26577 18.0505L3.71966 18.4072L2.45867 5.87046L12.2911 4.88148L12.5667 7.62166L6.28039 8.25395Z" fill="white"/>
<path d="M25.047 15.3733L19.7292 15.0446L18.59 17.4269L14.9609 17.2026L21.2897 4.96969L24.793 5.18623L29.585 18.1065L25.8841 17.8777L25.047 15.3733ZM24.1671 12.6859L22.7989 8.56165L20.9333 12.486L24.1671 12.6859Z" fill="white"/>
<path d="M37.9658 20.3144C36.683 20.0032 35.5936 19.4548 34.6975 18.6694C33.816 17.8751 33.2011 16.9233 32.8529 15.8139C32.5047 14.7045 32.4791 13.5376 32.7762 12.3131C33.0733 11.0886 33.6309 10.0632 34.4488 9.23674C35.2667 8.41031 36.2481 7.85196 37.3928 7.56171C38.552 7.26263 39.773 7.26871 41.0558 7.57998C42.1753 7.85162 43.1359 8.29464 43.9377 8.90902C44.7394 9.52339 45.3471 10.2759 45.7607 11.1666L43.0728 12.6259C42.5119 11.4772 41.6658 10.7657 40.5346 10.4912C39.8699 10.3299 39.2398 10.3313 38.6443 10.4955C38.0604 10.6626 37.5576 10.9789 37.1359 11.4446C36.7287 11.9015 36.4416 12.4739 36.2747 13.162C36.1077 13.85 36.0991 14.4962 36.2488 15.1006C36.4131 15.6961 36.7163 16.2018 37.1587 16.6179C37.6127 17.0368 38.1721 17.3268 38.8368 17.4881C39.968 17.7626 41.0461 17.5179 42.0711 16.7541L43.7913 19.283C43.0154 19.8851 42.1305 20.2754 41.1363 20.454C40.1421 20.6326 39.0853 20.5861 37.9658 20.3144Z" fill="white"/>
<path d="M57.4203 20.076C57.9814 20.5927 58.3422 21.1799 58.5027 21.8374C58.668 22.4839 58.6008 23.1541 58.3011 23.8482C57.8635 24.8617 57.1181 25.4679 56.065 25.6668C55.0119 25.8656 53.7142 25.632 52.1718 24.966L45.9252 22.2688L50.9201 10.7011L56.8362 13.2556C58.3124 13.8931 59.3172 14.6537 59.8505 15.5375C60.3886 16.4103 60.4579 17.3095 60.0583 18.2349C59.8204 18.7857 59.4687 19.222 59.0029 19.5438C58.553 19.8592 58.0255 20.0367 57.4203 20.076ZM53.1387 14.4628L52.1754 16.6937L54.4228 17.6641C55.5245 18.1398 56.2371 18.0031 56.5606 17.254C56.8793 16.5158 56.4878 15.9089 55.3861 15.4332L53.1387 14.4628ZM52.9278 22.4887C54.0735 22.9835 54.8153 22.8397 55.153 22.0575C55.4908 21.2753 55.0868 20.6369 53.941 20.1421L51.1978 18.9577L50.1846 21.3042L52.9278 22.4887Z" fill="white"/>
<path d="M69.0687 31.4198L67.5818 33.7379L59.0669 28.2762L65.8698 17.6705L74.1877 23.0059L72.7008 25.324L67.3525 21.8934L66.2057 23.6812L70.9177 26.7036L69.4793 28.946L64.7674 25.9236L63.5234 27.8629L69.0687 31.4198Z" fill="white"/>
<path d="M74.8641 40.2011C73.8854 39.2976 73.1949 38.2764 72.7927 37.1376C72.3993 36.0069 72.3156 34.8681 72.5414 33.7211C72.7761 32.5823 73.3167 31.5543 74.1632 30.6373C75.0097 29.7203 75.9912 29.0993 77.1077 28.7744C78.2329 28.4577 79.3748 28.4502 80.5333 28.7521C81.7006 29.0621 82.7737 29.6688 83.7524 30.5723C84.7312 31.4758 85.4172 32.4928 85.8106 33.6235C86.2128 34.7624 86.2966 35.9012 86.0619 37.04C85.836 38.187 85.2998 39.219 84.4533 40.136C83.6068 41.0531 82.6209 41.6699 81.4957 41.9867C80.3792 42.3116 79.2373 42.319 78.07 42.009C76.9115 41.7072 75.8429 41.1045 74.8641 40.2011ZM76.8664 38.0319C77.3338 38.4633 77.8588 38.7438 78.4414 38.8734C79.024 39.0029 79.6087 38.971 80.1954 38.7777C80.7903 38.5756 81.3278 38.2144 81.8081 37.6942C82.2883 37.174 82.6013 36.6137 82.7472 36.0134C82.9011 35.4043 82.8903 34.8146 82.7146 34.2441C82.5389 33.6737 82.2174 33.1728 81.7501 32.7414C81.2828 32.31 80.7578 32.0295 80.1751 31.9C79.5925 31.7704 79.0038 31.8067 78.4089 32.0088C77.8222 32.2021 77.2887 32.5589 76.8085 33.0791C76.3283 33.5994 76.0112 34.164 75.8572 34.7731C75.7114 35.3734 75.7263 35.9588 75.9019 36.5292C76.0776 37.0996 76.3991 37.6006 76.8664 38.0319Z" fill="white"/>
<path d="M85.823 52.3496C85.0316 51.2782 84.5454 50.1454 84.3645 48.9513C84.1908 47.7668 84.3227 46.6325 84.7602 45.5485C85.2049 44.4741 85.9291 43.5661 86.933 42.8247C87.9368 42.0832 89.0175 41.6579 90.1752 41.5487C91.3399 41.4492 92.4628 41.6566 93.5439 42.1709C94.6321 42.6949 95.5719 43.4926 96.3633 44.564C97.1547 45.6354 97.6373 46.7634 97.811 47.9479C97.9919 49.142 97.86 50.2763 97.4154 51.3507C96.9778 52.4347 96.2571 53.3475 95.2533 54.0889C94.2495 54.8304 93.1652 55.2509 92.0004 55.3504C90.8428 55.4596 89.7199 55.2522 88.6317 54.7282C87.5506 54.2139 86.6143 53.421 85.823 52.3496ZM88.1974 50.5957C88.5753 51.1073 89.0382 51.4815 89.5861 51.7183C90.134 51.9551 90.7142 52.0337 91.3268 51.9542C91.949 51.8675 92.5449 51.6139 93.1144 51.1932C93.6839 50.7726 94.0967 50.2812 94.3528 49.7191C94.6186 49.1498 94.7188 48.5685 94.6535 47.9752C94.5883 47.3819 94.3667 46.8295 93.9888 46.3179C93.611 45.8063 93.1481 45.4321 92.6002 45.1953C92.0523 44.9585 91.4672 44.8834 90.845 44.9701C90.2324 45.0496 89.6414 45.2997 89.0719 45.7204C88.5024 46.141 88.0848 46.636 87.819 47.2053C87.5629 47.7674 87.4675 48.3451 87.5327 48.9384C87.598 49.5317 87.8196 50.0841 88.1974 50.5957Z" fill="white"/>
<path d="M98.0456 63.0711L96.1845 62.4944L93.3512 63.871L91.8094 60.6977L103.143 55.1914L104.684 58.3647L99.973 60.6537L106.816 62.7522L108.531 66.2817L101.262 64.0898L97.3157 72.0309L95.5065 68.3071L98.0456 63.0711Z" fill="white"/>
</svg>
