<svg width="82" height="116" viewBox="0 0 82 116" fill="none" xmlns="http://www.w3.org/2000/svg">
<path d="M76.525 2.25153L76.9497 5.79012L64.4396 7.29192L64.0148 3.75332L76.525 2.25153Z" fill="white"/>
<path d="M77.396 23.5926L64.7975 23.398L64.8428 20.4644L71.6419 15.0067L64.9287 14.903L64.9826 11.4114L77.5811 11.606L77.5358 14.5396L70.7367 19.9973L77.4499 20.101L77.396 23.5926Z" fill="white"/>
<path d="M63.3622 31.141C63.5418 30.137 63.8401 29.1846 64.2572 28.284C64.6743 27.3834 65.1424 26.6747 65.6615 26.158L68.0424 27.7725C67.577 28.2622 67.1665 28.8531 66.811 29.5454C66.4556 30.2376 66.2145 30.9381 66.0877 31.6468C65.8469 32.9935 66.0631 33.727 66.7364 33.8474C67.0908 33.9108 67.3855 33.7624 67.6206 33.4022C67.8654 33.0559 68.1584 32.4744 68.4995 31.6577C68.8672 30.7604 69.2193 30.0188 69.5557 29.4329C69.904 28.8491 70.3722 28.3782 70.9604 28.0202C71.5487 27.6621 72.2739 27.5602 73.1362 27.7145C73.8922 27.8497 74.5345 28.1779 75.063 28.6991C75.6033 29.2224 75.9777 29.9233 76.1863 30.8018C76.3928 31.692 76.3893 32.7337 76.1759 33.9268C76.0301 34.7418 75.7919 35.5282 75.4614 36.2858C75.1426 37.0455 74.7522 37.6949 74.29 38.234L71.8787 36.6873C72.7279 35.6201 73.2518 34.5313 73.4504 33.421C73.575 32.724 73.5596 32.1971 73.404 31.8401C73.2602 31.4852 73.023 31.2782 72.6922 31.2191C72.3615 31.1599 72.0796 31.3045 71.8466 31.653C71.6136 32.0014 71.3335 32.5791 71.0063 33.3861C70.6365 34.2952 70.2785 35.0357 69.9324 35.6077C69.596 36.1936 69.1336 36.6656 68.5454 37.0236C67.9669 37.3955 67.2464 37.5044 66.3841 37.3501C65.6399 37.217 65.0036 36.8899 64.4751 36.3687C63.9466 35.8475 63.5733 35.1407 63.355 34.2483C63.1485 33.358 63.1509 32.3223 63.3622 31.141Z" fill="white"/>
<path d="M70.4633 44.5013L71.6856 40.8294L74.367 41.722L70.8022 52.4303L68.1209 51.5376L69.3376 47.8828L60.0639 44.7957L61.1896 41.4141L70.4633 44.5013Z" fill="white"/>
<path d="M56.1889 59.333L58.6757 54.621L56.9728 52.6028L58.67 49.3872L67.2171 60.1873L65.5788 63.2915L51.8311 62.3452L53.5618 59.0659L56.1889 59.333ZM59.0003 59.6363L63.3223 60.0856L60.5126 56.7709L59.0003 59.6363Z" fill="white"/>
<path d="M50.6738 74.7456L48.7472 77.2378L44.6173 74.0452C44.6494 73.16 44.8425 72.2627 45.1966 71.3534C45.5507 70.444 46.014 69.6191 46.5865 68.8786C47.3938 67.8342 48.3387 67.0631 49.4213 66.5653C50.5134 66.0747 51.6369 65.8967 52.7919 66.0312C53.9468 66.1656 55.0227 66.6182 56.0196 67.3888C57.0165 68.1594 57.7254 69.0866 58.1465 70.1705C58.5675 71.2543 58.6698 72.3876 58.4533 73.5701C58.2463 74.76 57.7319 75.8866 56.9099 76.95C56.1906 77.8804 55.3881 78.5948 54.5024 79.0931C53.6166 79.5914 52.6886 79.8599 51.7183 79.8986L51.482 76.8492C52.7436 76.7476 53.7377 76.2268 54.4643 75.2869C55.1248 74.4325 55.3958 73.5423 55.2773 72.6165C55.1683 71.698 54.6818 70.9048 53.8178 70.237C53.2672 69.8113 52.6818 69.5483 52.0616 69.4481C51.4508 69.3552 50.8569 69.4269 50.2798 69.6633C49.7122 69.9071 49.2156 70.3043 48.7899 70.8549C48.3716 71.3961 48.0881 71.9884 47.9395 72.6319L50.6738 74.7456Z" fill="white"/>
<path d="M39.4958 81.8713L40.929 80.5579L38.6671 78.0895L41.2946 75.6817L49.8073 84.9711L45.5607 88.8626C44.7203 89.6328 43.8607 90.1601 42.9819 90.4445C42.1113 90.7378 41.2687 90.7775 40.4542 90.5636C39.6478 90.3585 38.9244 89.9065 38.2839 89.2076C37.6677 88.5352 37.2878 87.801 37.1442 87.0048C36.9998 86.2256 37.0899 85.4269 37.4144 84.6087L32.7351 83.5255L35.5485 80.9474L39.4958 81.8713ZM40.938 86.7754C41.3353 87.2089 41.7805 87.4194 42.2736 87.407C42.7668 87.3945 43.2832 87.141 43.8229 86.6465L45.2826 85.3088L42.7896 82.5883L41.3299 83.926C40.7902 84.4205 40.4886 84.9085 40.4252 85.3898C40.3698 85.88 40.5407 86.3419 40.938 86.7754Z" fill="white"/>
<path d="M24.9983 91.7126L29.483 88.836L28.9946 86.2409L32.0551 84.2778L34.1763 97.8865L31.2219 99.7816L19.7222 92.1886L22.8433 90.1866L24.9983 91.7126ZM27.296 93.361L30.8365 95.8802L30.0231 91.6117L27.296 93.361Z" fill="white"/>
<path d="M6.90148 97.5694L9.35126 103.782L10.4049 97.5419L11.8816 96.9688L16.787 100.703L14.4359 94.6452L17.5067 93.4534L22.0656 105.2L19.3304 106.261L12.5713 101.084L11.1751 109.426L8.43989 110.488L3.84743 98.7547L6.90148 97.5694Z" fill="white"/>
</svg>
