<svg width="50" height="50" viewBox="0 0 50 50" fill="none" xmlns="http://www.w3.org/2000/svg">
<circle cx="25" cy="25" r="23.5" stroke="#707070" stroke-width="3"/>
<line x1="25.3804" y1="12.6941" x2="25.3804" y2="30.5896" stroke="#707070" stroke-width="3" stroke-linecap="round"/>
<path d="M23.9393 38.0008C24.5251 38.5866 25.4749 38.5866 26.0607 38.0008L35.6066 28.4549C36.1924 27.8691 36.1924 26.9194 35.6066 26.3336C35.0208 25.7478 34.0711 25.7478 33.4853 26.3336L25 34.8189L16.5147 26.3336C15.9289 25.7478 14.9792 25.7478 14.3934 26.3336C13.8076 26.9194 13.8076 27.8691 14.3934 28.4549L23.9393 38.0008ZM26.5 36.1939C26.5 35.3655 25.8284 34.6939 25 34.6939C24.1716 34.6939 23.5 35.3655 23.5 36.1939L26.5 36.1939ZM26.5 36.9402L26.5 36.1939L23.5 36.1939L23.5 36.9402L26.5 36.9402Z" fill="#707070"/>
</svg>
