<svg width="103" height="80" viewBox="0 0 103 80" fill="none" xmlns="http://www.w3.org/2000/svg">
<path d="M98.4435 71.9L102.313 71.9746L102.258 74.8001L90.9744 74.5823L91.0289 71.7568L94.8802 71.8312L95.0688 62.059L98.6322 62.1278L98.4435 71.9Z" fill="white"/>
<path d="M78.4055 62.7871L78.8696 60.0725L88.8409 61.7774L86.7174 74.1972L76.9767 72.5317L77.4409 69.8171L83.704 70.888L84.0619 68.7943L78.544 67.8509L78.993 65.225L84.5109 66.1685L84.8992 63.8974L78.4055 62.7871Z" fill="white"/>
<path d="M71.9405 71.2887L68.5506 70.1886L71.5677 60.8919L65.8493 59.036L66.7217 56.3481L75.83 59.3041L71.9405 71.2887Z" fill="white"/>
<path d="M54.6475 53.6232L55.8693 51.1551L64.9352 55.6433L59.3449 66.9352L50.4888 62.5509L51.7107 60.0828L57.405 62.9019L58.3474 60.9984L53.3305 58.5147L54.5125 56.1272L59.5294 58.6109L60.5516 56.5461L54.6475 53.6232Z" fill="white"/>
<path d="M42.3411 49.9937L39.7803 48.1594L42.8201 43.9158C43.7059 43.9155 44.6096 44.0758 45.5312 44.3965C46.4529 44.7171 47.2942 45.15 48.0551 45.6951C49.1282 46.4637 49.9333 47.3799 50.4703 48.4436C51.0004 49.517 51.2193 50.6333 51.1271 51.7924C51.0348 52.9515 50.6219 54.0432 49.8881 55.0675C49.1544 56.0919 48.2537 56.8342 47.1859 57.2945C46.1181 57.7548 44.9894 57.8984 43.7997 57.7252C42.603 57.5618 41.4584 57.0888 40.3658 56.3061C39.4098 55.6213 38.6666 54.8454 38.1362 53.9784C37.6059 53.1114 37.3037 52.1938 37.2297 51.2256L40.2684 50.8781C40.416 52.1352 40.9727 53.1096 41.9385 53.8014C42.8165 54.4304 43.7159 54.6687 44.6368 54.5165C45.5507 54.374 46.3256 53.8589 46.9615 52.9712C47.3668 52.4054 47.6082 51.8107 47.6858 51.1873C47.7563 50.5736 47.663 49.9827 47.4057 49.4146C47.1414 48.8562 46.7263 48.3744 46.1605 47.9691C45.6044 47.5708 45.0021 47.3092 44.3537 47.1841L42.3411 49.9937Z" fill="white"/>
<path d="M35.1409 39.4214L36.5105 40.801L38.8864 38.4423L41.3974 40.9715L32.4555 49.8486L28.3974 45.7609C27.5943 44.9519 27.033 44.1141 26.7137 43.2474C26.3859 42.3892 26.3126 41.5489 26.4938 40.7265C26.6665 39.9125 27.0892 39.1716 27.7619 38.5037C28.4092 37.8611 29.1277 37.4522 29.9174 37.2769C30.6902 37.1015 31.4919 37.1596 32.3224 37.4511L33.2178 32.7322L35.9063 35.4403L35.1409 39.4214ZM30.2983 41.0585C29.881 41.4727 29.6884 41.926 29.7206 42.4183C29.7527 42.9105 30.0267 43.4164 30.5424 43.9359L31.9373 45.341L34.556 42.7413L33.1611 41.3362C32.6453 40.8167 32.1457 40.5349 31.6622 40.4907C31.1702 40.4549 30.7155 40.6442 30.2983 41.0585Z" fill="white"/>
<path d="M24.378 24.8729L27.417 29.2493L29.9924 28.6662L32.0663 31.6527L18.5444 34.2709L16.5424 31.3878L23.7091 19.6178L25.8241 22.6635L24.378 24.8729ZM22.8149 27.2294L20.4271 30.8598L24.6629 29.8907L22.8149 27.2294Z" fill="white"/>
<path d="M17.8808 7.02003L11.7642 9.70036L18.0392 10.52L18.6671 11.9742L15.119 17.0158L21.0846 14.4399L22.3904 17.464L10.8227 22.4589L9.65965 19.7652L14.5805 12.8173L6.19179 11.734L5.02871 9.04034L16.5821 4.01243L17.8808 7.02003Z" fill="white"/>
</svg>
