<svg width="24" height="17" fill="none" xmlns="http://www.w3.org/2000/svg"><path d="M22.483 2.843l-5.602 5.706a.1.1 0 000 .146l3.92 4.175a.676.676 0 11-.958.958L15.938 9.67a.107.107 0 00-.15 0l-.953.969a4.192 4.192 0 01-2.989 1.26 4.277 4.277 0 01-3.05-1.296l-.918-.932a.107.107 0 00-.15 0l-3.906 4.157a.679.679 0 01-.958-.958l3.92-4.175a.11.11 0 000-.145L1.177 2.843A.103.103 0 001 2.917v11.418A1.671 1.671 0 002.666 16h18.328a1.671 1.671 0 001.666-1.666V2.916a.105.105 0 00-.124-.101.104.104 0 00-.053.028z" stroke="#E35D14"/><path d="M11.83 10.538a2.832 2.832 0 002.036-.856l8.17-8.315A1.636 1.636 0 0021.003 1H2.663c-.376 0-.74.13-1.031.367L9.8 9.682a2.831 2.831 0 002.03.856v0z" stroke="#E35D14"/></svg>