<svg width="24" height="17" viewBox="0 0 24 17" fill="none" xmlns="http://www.w3.org/2000/svg">
<path d="M22.4831 2.84289L16.8809 8.549C16.8711 8.55841 16.8633 8.56971 16.858 8.58221C16.8526 8.59471 16.8499 8.60815 16.8499 8.62174C16.8499 8.63533 16.8526 8.64879 16.858 8.66129C16.8633 8.67379 16.8711 8.68509 16.8809 8.6945L20.8011 12.8697C20.8642 12.9325 20.9143 13.0071 20.9485 13.0893C20.9827 13.1715 21.0003 13.2597 21.0003 13.3487C21.0003 13.4377 20.9827 13.5259 20.9485 13.6081C20.9143 13.6903 20.8642 13.7649 20.8011 13.8277C20.6739 13.9545 20.5017 14.0257 20.3221 14.0257C20.1425 14.0257 19.9703 13.9545 19.8431 13.8277L15.9381 9.67029C15.9181 9.65031 15.8909 9.63909 15.8626 9.63909C15.8343 9.63909 15.8072 9.65031 15.7871 9.67029L14.8346 10.6387C14.4451 11.0367 13.9802 11.3532 13.4671 11.5695C12.954 11.7859 12.4029 11.8978 11.8461 11.8988C11.2769 11.8967 10.7138 11.7809 10.19 11.5584C9.66608 11.3358 9.19191 11.0109 8.79525 10.6027L7.87816 9.67089C7.85811 9.65092 7.83096 9.6397 7.80266 9.6397C7.77435 9.6397 7.7472 9.65092 7.72715 9.67089L3.8222 13.8283C3.695 13.9551 3.52275 14.0263 3.34317 14.0263C3.1636 14.0263 2.99135 13.9551 2.86415 13.8283C2.80102 13.7656 2.75093 13.6909 2.71674 13.6087C2.68256 13.5265 2.66496 13.4383 2.66496 13.3493C2.66496 13.2603 2.68256 13.1721 2.71674 13.0899C2.75093 13.0077 2.80102 12.9331 2.86415 12.8703L6.78439 8.69512C6.80197 8.67496 6.81166 8.64911 6.81166 8.62236C6.81166 8.59561 6.80197 8.56976 6.78439 8.5496L1.17732 2.8435C1.16307 2.82843 1.14459 2.81803 1.12431 2.81367C1.10403 2.80931 1.08291 2.81119 1.06372 2.81906C1.04453 2.82693 1.02818 2.84044 1.01681 2.85778C1.00544 2.87513 0.999586 2.89551 1.00002 2.91625V14.334C1.00131 14.7754 1.17726 15.1984 1.48942 15.5106C1.80158 15.8228 2.2246 15.9987 2.66606 16H20.9943C21.4358 15.9987 21.8588 15.8228 22.171 15.5106C22.4831 15.1984 22.6591 14.7754 22.6604 14.334V2.91625C22.6603 2.89573 22.6542 2.87569 22.6428 2.85864C22.6313 2.8416 22.6151 2.82831 22.5962 2.82047C22.5772 2.81262 22.5563 2.81056 22.5362 2.81455C22.5161 2.81854 22.4976 2.8284 22.4831 2.84289Z" stroke="#E35D14"/>
<path d="M11.8304 10.5377C12.2098 10.5387 12.5856 10.4635 12.9353 10.3165C13.2851 10.1694 13.6017 9.95357 13.8664 9.68175L22.0352 1.36684C21.7438 1.12989 21.3799 1.00036 21.0043 1H2.66264C2.28697 0.999507 1.92273 1.12913 1.63184 1.36684L9.80062 9.68175C10.0646 9.95283 10.3802 10.1683 10.7288 10.3153C11.0775 10.4623 11.4521 10.5379 11.8304 10.5377V10.5377Z" stroke="#E35D14"/>
</svg>
