<svg width="18" height="32" viewBox="0 0 18 32" fill="none" xmlns="http://www.w3.org/2000/svg">
<path d="M1 0.5H0.5V1.5H1V0.5ZM17 1.5C17.2761 1.5 17.5 1.27614 17.5 1C17.5 0.723858 17.2761 0.5 17 0.5V1.5ZM1 1.5H17V0.5H1V1.5Z" fill="#7B7B7B"/>
<path d="M1 15.5H0.5V16.5H1V15.5ZM17 16.5C17.2761 16.5 17.5 16.2761 17.5 16C17.5 15.7239 17.2761 15.5 17 15.5V16.5ZM1 16.5H17V15.5H1V16.5Z" fill="#7B7B7B"/>
<path d="M1 30.5H0.5V31.5H1V30.5ZM17 31.5C17.2761 31.5 17.5 31.2761 17.5 31C17.5 30.7239 17.2761 30.5 17 30.5V31.5ZM1 31.5H17V30.5H1V31.5Z" fill="#7B7B7B"/>
</svg>
