<svg width="1098" height="694" viewBox="0 0 1098 694" fill="none" xmlns="http://www.w3.org/2000/svg">
<g opacity="0.300003">
<g opacity="0.300003">
<path opacity="0.300003" d="M520.656 606.741C403.181 606.741 303.824 529.223 270.929 422.557C267.673 425.061 264.238 427.34 260.662 429.401C247.026 437.265 231.212 441.784 214.329 441.784C204.688 441.784 195.39 440.319 186.648 437.599C148.768 425.82 121.258 390.493 121.258 348.741C121.258 297.352 162.929 255.681 214.317 255.681C220.754 255.681 227.038 256.336 233.105 257.581C245.877 260.199 257.68 265.451 267.953 272.723C268.414 273.049 268.884 273.367 269.34 273.701C300.522 164.281 401.229 84.1682 520.656 84.1682C629.606 84.1682 722.988 150.86 762.196 245.661C718.896 103.791 586.95 0.598856 430.912 0.598856C239.641 0.598856 84.5876 155.652 84.5876 346.923C84.5876 538.192 239.641 693.247 430.912 693.247C590.89 693.247 725.545 584.769 765.322 437.348C728.14 536.317 632.618 606.741 520.656 606.741Z" fill="#4A4B4B"/>
</g>
</g>
<path d="M474.034 205.851C548.929 205.851 609.635 266.576 609.635 341.471C609.635 377.707 595.392 410.607 572.244 434.928V440.459H566.675C542.431 463.169 509.852 477.092 474.015 477.092C469.697 477.092 465.417 476.883 461.211 476.485C442.194 474.705 424.333 468.965 408.422 460.157C418.99 463.112 430.109 464.704 441.626 464.704C447.725 464.704 453.729 464.267 459.582 463.396C477.69 460.744 494.529 454.153 509.19 444.512C511.273 443.148 513.318 441.709 515.307 440.212H498.923V433.601C482.595 443.735 463.333 449.607 442.705 449.607C428.973 449.607 415.866 446.992 403.818 442.259C376.583 442.233 352.661 428.723 339.025 408.364C331.881 397.697 327.561 385.152 327.065 371.679C327.046 370.825 327.027 369.955 327.027 369.101V255.208H351.803V255.212H351.806V286.939C370.595 256.462 404.273 236.137 442.705 236.137C465.359 236.137 486.327 243.203 503.602 255.212H523.982V273.699C535.158 286.824 543.227 302.697 547.015 320.161V277.923C529.228 248.545 499.53 227.197 464.601 220.605C457.158 219.204 449.486 218.465 441.645 218.465C435.129 218.465 428.727 218.978 422.475 219.962C417.438 220.739 412.513 221.837 407.721 223.201C415.941 218.599 424.654 214.772 433.822 211.912H433.841C442.251 209.297 451.002 207.499 460.037 206.589C462.271 206.343 464.526 206.155 466.798 206.04C469.203 205.907 471.61 205.851 474.034 205.851ZM721.407 342.721C721.407 226.743 627.383 132.738 511.405 132.738C395.427 132.738 301.402 226.743 301.402 342.721C301.402 458.699 395.427 552.724 511.405 552.724C592.095 552.724 662.14 507.208 697.295 440.459H674.529V440.455H674.526V385.291C656.074 457.264 590.766 510.447 513.072 510.447C495.078 510.447 477.785 507.587 461.551 502.321C466.382 502.757 471.269 503.003 476.231 503.003C564.574 503.003 636.173 431.404 636.173 343.061C636.173 254.739 564.574 183.121 476.231 183.121C473.371 183.121 470.53 183.216 467.707 183.367C482.122 179.295 497.351 177.116 513.072 177.116C575.292 177.116 629.578 211.247 658.199 261.8C670.038 267.739 680.054 276.528 687.234 287.212C694.416 297.896 698.765 310.473 699.266 323.988C699.285 324.84 699.303 325.712 699.303 326.564V436.576C713.434 408.333 721.407 376.455 721.407 342.721" fill="#E46639"/>
<path d="M523.982 433.09C530.706 427.029 536.768 420.268 542.014 412.88C543.776 410.417 545.424 407.897 546.996 405.322C546.996 405.302 547.014 405.302 547.014 405.285V365.584C543.226 383.048 535.157 398.92 523.982 412.046V433.09Z" fill="#E46639"/>
<path d="M21.8347 410.982V333.758H72.8827L72.4227 330.072C71.844 325.421 71.9067 320.713 72.6107 316.078L72.8827 314.286H21.8347V277.445L77.5987 277.942L82.2067 256.596L0.73468 256.098V432.102H82.3147L78.6533 410.982H21.8347Z" fill="black"/>
<path d="M276.608 311.316C277.233 312.358 277.839 313.419 278.408 314.48C283.881 324.688 286.988 336.356 286.988 348.744C286.988 362.666 283.067 375.679 276.287 386.74H276.268C272.119 384.582 269.088 384.316 266.816 385.111C266.341 385.282 265.887 385.51 265.452 385.775C265.035 386.039 264.637 386.343 264.277 386.703C264.088 386.872 263.917 387.043 263.747 387.234C263.577 387.404 263.425 387.594 263.273 387.783C263.14 387.972 263.008 388.162 262.895 388.37C261.417 390.756 261.549 393.844 264.732 398.39C264.903 398.655 265.073 398.902 265.263 399.148C265.452 399.412 265.641 399.659 265.868 399.924H265.849C265.623 400.151 265.413 400.34 265.205 400.548C252.099 413.428 234.141 421.403 214.329 421.403C206.184 421.403 198.343 420.059 191.031 417.596C190.463 417.387 189.895 417.199 189.345 416.99C179.325 413.334 170.347 407.52 162.941 400.114C149.796 386.968 141.669 368.804 141.669 348.744C141.669 328.686 149.796 310.502 162.941 297.356C170.347 289.97 179.325 284.154 189.345 280.499C189.895 280.29 190.463 280.082 191.031 279.892C198.343 277.43 206.184 276.086 214.329 276.086C226.357 276.086 237.703 279.022 247.704 284.211C249.692 285.254 251.643 286.371 253.519 287.583C257.307 290.007 260.831 292.772 264.088 295.842C264.524 296.258 264.959 296.675 265.395 297.091C269.695 301.335 273.464 306.126 276.608 311.316ZM214.329 255.686C188.625 255.686 165.365 266.103 148.527 282.942C131.688 299.782 121.271 323.04 121.271 348.744C121.271 374.448 131.688 397.707 148.527 414.528C159.049 425.05 172.08 433.066 186.647 437.598C195.391 440.318 204.688 441.784 214.329 441.784C231.211 441.784 247.025 437.264 260.663 429.402C264.237 427.34 267.671 425.062 270.925 422.559C274.373 419.907 277.649 417.028 280.699 413.922C291.951 422.578 302.255 426.763 305.209 423.468C308.259 420.059 299.811 407.992 292.177 399.678C295.796 394.184 298.845 388.275 301.213 382.043C298.807 369.768 297.539 357.079 297.539 344.103C297.539 333.364 298.391 322.851 300.077 312.586C293.485 296.996 282.783 283.587 269.335 273.699C268.881 273.364 268.413 273.048 267.953 272.723C257.68 265.451 245.876 260.199 233.105 257.582C227.041 256.339 220.763 255.686 214.329 255.686" fill="black"/>
<path d="M403.816 442.255H403.892C445.41 442.255 479.26 410.888 480.698 371.679C480.718 370.827 480.736 369.955 480.736 369.103V255.208H455.981V368.837C455.981 396.891 432.645 419.639 403.892 419.639C375.12 419.639 351.802 396.891 351.802 368.837V255.212V255.208H327.028V369.103C327.028 369.955 327.046 370.827 327.065 371.679C327.561 385.152 331.881 397.697 339.025 408.364C352.661 428.723 376.582 442.229 403.816 442.255Z" fill="black"/>
<path d="M523.982 440.193V433.091V412.047V273.699V255.212H503.601H498.924V433.603V440.213H515.308H523.982V440.193Z" fill="black"/>
<path d="M658.199 261.8C658.198 261.8 658.198 261.8 658.198 261.8C647.515 256.439 635.337 253.409 622.438 253.409C619.218 253.409 616.035 253.599 612.91 253.977C617.474 261.08 621.661 268.467 625.373 276.101C652.782 277.597 674.526 299.74 674.526 326.825V385.291V440.455H674.529H699.301V326.56C699.301 325.708 699.282 324.836 699.263 323.984C698.762 310.471 694.415 297.895 687.234 287.213C680.054 276.528 670.038 267.739 658.199 261.8Z" fill="black"/>
<path d="M594.766 285.007L582.568 265.156C578.836 267.467 575.332 270.062 572.074 272.942V254.435H547.015V277.923V320.162V365.584V405.284V439.418H547.488V440.459H566.676H572.244V434.927V326.83C572.244 309.479 581.167 294.174 594.766 285.007Z" fill="black"/>
<path d="M756.059 313.585C755.017 302.979 753.445 292.523 751.38 282.237C734.901 299.02 724.711 322.052 724.711 347.433C724.711 372.739 734.825 395.677 751.209 412.459C753.331 401.909 754.979 391.169 756.059 380.26C750.68 370.352 747.631 358.988 747.631 346.923C747.631 334.857 750.68 323.511 756.059 313.604V313.585Z" fill="black"/>
<path d="M910.734 347.433C910.734 296.084 869.082 254.432 817.713 254.432C799.189 254.432 781.932 259.85 767.424 269.206C769.3 277.256 770.872 285.42 772.158 293.679C784.396 283.184 800.324 276.839 817.713 276.839C856.429 276.839 887.796 308.225 887.796 346.923C887.796 385.639 856.429 417.005 817.713 417.005C800.42 417.005 784.565 410.736 772.349 400.336C771.041 408.917 769.413 417.384 767.5 425.737C781.989 435.056 799.226 440.455 817.713 440.455C869.082 440.455 910.734 398.803 910.734 347.433Z" fill="black"/>
<path d="M1067.22 439.89H1097.25L1004.95 310.619L1045.23 254.205H1015.2L989.935 289.586L964.672 254.205H934.635L974.916 310.619L961.905 328.842L908.612 254.205H878.577L946.887 349.875L882.616 439.89H912.651L961.905 370.909L1011.16 439.89H1041.19L976.923 349.875L989.935 331.653L1067.22 439.89Z" fill="black"/>
</svg>
