<svg width="184" height="123" viewBox="0 0 184 123" fill="none" xmlns="http://www.w3.org/2000/svg">
<g clip-path="url(#clip0_16_101)">
<path d="M92.0068 72.5803C92.24 72.4124 92.4383 72.2004 92.5905 71.9562C93.8849 70.2461 94.8813 68.3278 95.5373 66.2828C95.5476 67.2082 95.5658 68.1322 95.568 69.0576C95.568 70.137 95.5578 71.2164 95.5512 72.295C95.3629 72.478 95.1959 72.6819 95.0536 72.9029C94.1919 74.1495 93.1831 75.2866 92.0492 76.2892C91.9529 75.0544 91.9959 73.8166 92.0068 72.5803Z" fill="#E35D14"/>
<path d="M89.39 24.4388C94.1927 24.4321 98.9495 25.3777 103.388 27.2214C107.827 29.0651 111.86 31.7706 115.256 35.1831C118.653 38.5957 121.347 42.6481 123.183 47.1084C125.019 51.5687 125.962 56.3492 125.957 61.1762C125.966 66.0199 125.021 70.8175 123.175 75.2919C121.33 79.7664 118.621 83.829 115.204 87.2454C111.788 90.6617 107.732 93.364 103.271 95.1962C98.8093 97.0284 94.0311 97.9542 89.212 97.9202C84.4143 97.9074 79.6665 96.9429 75.2404 95.0823C70.8144 93.2216 66.7972 90.5013 63.4192 87.0772C60.0413 83.6531 57.3689 79.5926 55.5553 75.1285C53.7418 70.6644 52.8227 65.8844 52.8507 61.0625C52.8673 51.337 56.7256 42.0161 63.5773 35.1486C70.429 28.281 79.7135 24.4288 89.39 24.4388V24.4388ZM62.59 76.2649C63.4393 76.8419 64.3582 77.3079 65.3245 77.6516C66.4754 78.0461 67.6698 78.2987 68.8813 78.4039C69.6819 78.4976 70.4872 78.5453 71.2933 78.5469L72.7597 78.6899C74.0618 79.0389 75.3967 79.249 76.7426 79.3168C78.4663 79.4025 80.1937 79.2545 81.8781 78.8769C83.9854 78.3821 85.9973 77.542 87.8331 76.3903C87.8491 76.5663 87.879 76.7423 87.8768 76.9175C87.8768 77.2644 88.0548 77.3934 88.3744 77.381C88.5283 77.3751 88.683 77.3634 88.8377 77.3656C89.4732 77.3006 90.1137 77.3006 90.7492 77.3656C90.6653 77.4965 90.5495 77.6038 90.4129 77.6772C89.2075 78.5795 87.9098 79.35 86.5417 79.9753C83.4759 81.3831 80.1196 82.0335 76.7528 81.8723C74.5667 81.7616 72.409 81.326 70.3499 80.5795C70.1442 80.5062 69.937 80.3207 69.6809 80.482C70.6797 81.7924 75.8569 83.9746 79.2816 84.5019C82.3306 85.0245 85.4526 84.9323 88.4658 84.2304C91.4789 83.5286 94.3231 82.2312 96.8325 80.4138C101.783 76.9067 105.207 71.6249 106.4 65.6564C107.592 59.6878 106.461 53.4871 103.24 48.3313C100.016 43.1146 94.9098 39.3521 88.9898 37.8297C83.0698 36.3074 76.7935 37.1429 71.472 40.1618C71.8674 40.0701 72.2549 39.9865 72.6394 39.8912C76.7736 38.8577 81.1217 39.1004 85.1166 40.5878C89.1115 42.0752 92.5676 44.7382 95.0341 48.2293C95.1735 48.4251 95.2843 48.6495 95.5316 48.7383C95.5382 50.3566 95.5492 51.9757 95.547 53.5941C95.5836 53.9912 95.5713 54.3915 95.5105 54.7856C95.26 54.03 94.9662 53.2896 94.6306 52.5682C93.9328 51.0323 93.0019 49.6146 91.8713 48.3658C91.8575 47.7505 91.8509 47.1353 91.8283 46.5201C91.8115 46.0522 91.7553 45.9965 91.2832 45.9848C90.6062 45.9686 89.9277 45.9672 89.2499 45.9599C89.1996 45.6863 88.9676 45.5778 88.7742 45.44C86.6382 43.8441 84.1824 42.7342 81.5771 42.1871C78.9719 41.6399 76.2794 41.6687 73.6863 42.2714C71.9149 42.6573 70.2081 43.2979 68.6186 44.1736C66.1204 45.4039 64.0176 47.3168 62.5513 49.693C62.2288 50.2491 61.9492 50.8294 61.7152 51.4287L61.1805 52.1568L61.1571 51.1874C61.1753 48.6502 61.171 46.7929 61.1666 46.2744C61.1735 46.0926 61.1207 45.9135 61.0163 45.7648C60.9272 45.664 60.8172 45.5841 60.6941 45.5306C60.5709 45.4771 60.4376 45.4515 60.3035 45.4554C59.4229 45.4114 58.5401 45.4018 57.658 45.4062C57.4559 45.3942 57.2567 45.4591 57.0999 45.5878C56.9431 45.7166 56.8402 45.8999 56.8117 46.1014C56.7782 46.2972 56.7662 46.4961 56.7759 46.6946C56.7613 50.8824 56.8255 55.0731 57.0451 59.255C57.2122 62.4426 57.3005 64.1562 57.6208 66.6611C57.9812 69.4776 58.2592 70.3554 58.5496 71.0681C59.3681 73.1566 60.7716 74.9618 62.59 76.2649ZM118.684 63.5909C118.775 63.8176 118.801 64.0659 118.757 64.3065C118.718 67.5002 118.675 70.6942 118.626 73.8883C118.612 74.8416 118.572 75.7949 118.563 76.7482C118.558 77.1955 118.629 77.2695 119.046 77.2776C119.862 77.2922 120.679 77.2776 121.496 77.2893C121.792 77.2893 121.957 77.1793 121.952 76.8655C121.952 76.7547 121.952 76.6455 121.955 76.5326C121.99 73.6933 122.032 70.854 122.06 68.0147C122.082 65.6638 122.132 63.313 121.952 60.9642C121.825 58.7491 121.506 56.5494 120.996 54.3904C120.493 52.0993 119.329 50.0079 117.651 48.3775C116.764 47.5811 115.774 46.9105 114.707 46.3844C114.667 46.0973 114.547 45.8273 114.361 45.6057C108.491 36.5914 100.175 31.9732 89.4819 31.6542C87.4269 31.6517 85.3777 31.8712 83.3694 32.3091C83.2665 32.3281 83.1505 32.3509 83.1359 32.4953C90.5948 32.5049 97.7483 35.474 103.04 40.7569C108.333 46.0397 111.335 53.209 111.396 60.7054C111.551 67.9708 108.843 75.0035 103.862 80.2709C97.7336 86.8799 90.0371 89.7676 81.0763 89.4207C81.2815 89.5338 81.4995 89.6215 81.7257 89.6818C86.3494 90.9361 91.2078 91.0383 95.8797 89.9795C101.056 88.7982 105.818 86.2323 109.662 82.5534C113.507 78.8745 116.29 74.2195 117.717 69.081C118.199 67.2832 118.522 65.446 118.682 63.5909H118.684Z" fill="#E35D14"/>
<path opacity="0.106" d="M128.929 36.854C128.691 36.8643 128.652 36.656 128.564 36.516C126.852 33.714 124.823 31.1201 122.518 28.7857C120.836 27.0856 119.017 25.5268 117.081 24.125C114.454 22.2062 111.639 20.562 108.68 19.2179C105.525 17.7699 102.212 16.6993 98.8089 16.0281C96.4877 15.5931 94.1408 15.3109 91.783 15.1833C88.673 15.0515 85.5579 15.2504 82.4895 15.7765C80.1626 16.1325 77.872 16.697 75.6452 17.4631C74.1192 17.9674 72.6199 18.5499 71.1531 19.2083C68.6441 20.3461 66.2314 21.6873 63.939 23.2186C62.4555 24.2027 61.0415 25.2888 59.7073 26.4693C58.707 27.3023 57.7518 28.1886 56.8459 29.1245C55.3786 30.7089 54.0171 32.3891 52.7704 34.1541C51.8285 35.5187 50.9924 36.9405 50.1789 38.3836C48.8082 40.8845 47.6063 43.4752 46.5813 46.1381C46.3508 46.7152 46.2895 46.7394 45.7124 46.4497C44.354 45.7712 42.9315 45.2308 41.4662 44.8365C39.9334 44.4401 38.3501 44.2765 36.7691 44.3511C35.0106 44.3881 33.2706 44.7192 31.6204 45.3307C29.7828 46.0124 28.0657 46.9856 26.5344 48.2133C24.3875 49.9624 22.6919 52.2061 21.5915 54.7542C20.9541 56.2086 20.5191 57.7444 20.2986 59.3181C20.1298 60.2504 20.0477 61.1965 20.0535 62.1442C20.0925 63.6846 20.3331 65.2132 20.7692 66.6905C21.0897 67.8411 21.5151 68.9594 22.0402 70.0313C23.0399 71.983 24.3794 73.7388 25.9953 75.2157C27.4367 76.4886 29.0788 77.5115 30.8543 78.2426C32.0277 78.7341 33.2485 79.1027 34.4972 79.3426C35.4426 79.5355 36.4029 79.6457 37.3673 79.6718C39.8295 79.6754 42.2681 79.1907 44.5436 78.2456C45.2104 77.9589 45.8955 77.7154 46.5441 77.3825C46.9279 77.1853 47.0206 77.2249 47.1774 77.6362C48.0031 79.7836 48.9574 81.8788 50.0352 83.9102C51.1767 86.0768 52.5131 88.1339 54.0275 90.0558C55.4213 91.7996 56.9384 93.44 58.567 94.9644C59.7569 96.0774 61.0164 97.113 62.3375 98.0648C64.0002 99.2984 65.7421 100.42 67.5519 101.423C68.9636 102.196 70.4046 102.921 71.8864 103.556C74.1705 104.541 76.5286 105.343 78.9386 105.954C81.9617 106.703 85.0523 107.144 88.1635 107.269C92.7779 107.445 97.3921 106.913 101.847 105.692C104.274 105.023 106.642 104.157 108.928 103.099C112.711 101.372 116.247 99.1444 119.442 96.475C120.447 95.6787 121.402 94.8216 122.304 93.9085C124.627 91.5323 126.68 88.9043 128.426 86.0727C128.62 85.749 128.818 85.4286 129.018 85.1113C129.062 85.0438 129.129 84.9647 129.237 85.0285C129.277 85.0481 129.309 85.0816 129.326 85.1228C129.344 85.164 129.346 85.2101 129.333 85.2528C129.234 85.5227 129.104 85.7815 129.02 86.055C128.35 88.24 127.479 90.3576 126.418 92.3803C125.18 94.7095 123.748 96.9293 122.138 99.0158C120.982 100.534 119.722 101.961 118.428 103.356C116.684 105.182 114.814 106.881 112.832 108.441C110.473 110.346 107.971 112.063 105.349 113.58C102.429 115.283 99.3705 116.734 96.2065 117.918C93.7693 118.842 91.277 119.611 88.7442 120.222C85.5253 121.003 82.2426 121.49 78.9364 121.676C77.4604 121.75 75.9881 121.965 74.5085 121.891C72.1738 121.776 69.8392 121.664 67.5169 121.37C64.1332 120.948 60.7923 120.232 57.5317 119.229C54.947 118.428 52.4177 117.456 49.96 116.32C46.4174 114.689 43.0459 112.707 39.8961 110.401C38.3849 109.296 36.9279 108.126 35.5252 106.892C34.2091 105.78 32.9557 104.594 31.7707 103.342C30.4786 101.925 29.1967 100.501 28.0111 98.9857C26.9656 97.649 25.9522 96.288 25.0198 94.8742C23.8833 93.1641 22.8411 91.3925 21.8979 89.5675C20.834 87.5314 19.8826 85.4378 19.0481 83.2964C17.9362 80.4154 17.0516 77.4509 16.4026 74.4303C16.1502 73.2263 15.878 72.023 15.7 70.8094C15.5278 69.6361 15.4082 68.4519 15.2565 67.2772C15.0061 64.5473 14.9176 61.8048 14.9916 59.0644C15.0135 58.0085 15.1047 56.9552 15.2645 55.9113C15.3192 55.453 15.3462 54.9903 15.3856 54.5312C15.4972 53.2363 15.7066 51.9567 15.943 50.6837C16.2399 49.0815 16.5799 47.4844 17.0286 45.9174C17.8114 43.0436 18.7864 40.2263 19.947 37.4846C21.2433 34.5302 22.7591 31.678 24.4814 28.9522C25.7004 27.0635 27.02 25.2423 28.4343 23.4965C29.285 22.423 30.1955 21.406 31.1177 20.3933C31.7882 19.66 32.4492 18.9106 33.1803 18.2389C34.2513 17.2548 35.3187 16.2664 36.424 15.3182C37.9313 14.0255 39.5058 12.8251 41.1284 11.6936C42.7743 10.5471 44.483 9.49439 46.2465 8.54052C47.122 8.06682 47.988 7.58727 48.8817 7.15536C52.2173 5.54855 55.6875 4.24116 59.2521 3.24843C61.886 2.52476 64.568 1.99105 67.2776 1.65136C68.9826 1.43138 70.6971 1.29129 72.4175 1.21136C73.6527 1.15344 74.885 1.06471 76.1216 1.1197C80.7142 1.24501 85.2795 1.87323 89.7365 2.99323C93.1944 3.91034 96.5687 5.1207 99.823 6.61126C104.14 8.60177 108.233 11.0483 112.035 13.9096C116.178 16.9521 119.857 20.5854 122.958 24.6947C124.755 27.1421 126.266 29.7887 127.463 32.5826C127.985 33.7818 128.455 35.0007 128.873 36.2395C128.936 36.4287 129.093 36.6282 128.929 36.854Z" fill="white" stroke="white" stroke-width="3"/>
<path d="M4.04916 49.4775V55.9436H12.9632L12.9158 56.2582C12.793 57.0714 12.7819 57.8977 12.883 58.714L12.9632 59.3607H4.04916V72.9147H13.9715L14.6107 76.6214H0.364746V45.7312L14.5917 45.8185L13.7891 49.5648L4.04916 49.4775Z" fill="white"/>
<path d="M51.2564 70.9303C51.8932 69.9596 52.4222 68.9217 52.8338 67.8351C52.4064 65.6415 52.1914 63.4114 52.1918 61.1762C52.1898 59.3232 52.3381 57.4731 52.6353 55.6443C51.3936 52.6848 49.3111 50.1589 46.6486 48.3826C43.986 46.6064 40.8614 45.6585 37.6656 45.6577C33.3558 45.6581 29.2225 47.3791 26.175 50.442C23.1274 53.505 21.4152 57.6592 21.4148 61.9909C21.4154 66.3222 23.1278 70.4758 26.1754 73.5382C29.223 76.6005 33.3562 78.3207 37.6656 78.3203C39.8245 78.3237 41.9621 77.8927 43.9527 77.0529C45.9432 76.213 47.7463 74.9812 49.2559 73.4301C51.2206 74.9494 53.0198 75.6841 53.5364 75.1056C54.0653 74.5072 52.5901 72.3917 51.2564 70.9303ZM48.484 68.6571C47.3626 68.0705 46.7074 68.278 46.2952 68.7437C45.8618 69.232 45.8056 69.8773 46.6658 70.9706C45.4888 72.1668 44.0871 73.116 42.5421 73.7631C40.997 74.4103 39.3395 74.7425 37.6656 74.7404C35.9991 74.7413 34.3487 74.4122 32.8087 73.7719C31.2687 73.1316 29.8693 72.1926 28.6905 71.0087C27.5116 69.8247 26.5763 68.4189 25.9381 66.8716C25.2999 65.3243 24.9712 63.6659 24.9708 61.9909C24.9705 60.3156 25.2987 58.6566 25.9367 57.1088C26.5746 55.561 27.5098 54.1548 28.6888 52.9705C29.8678 51.7862 31.2674 50.847 32.8077 50.2066C34.348 49.5662 35.9988 49.2372 37.6656 49.2383C41.0307 49.2385 44.2579 50.5821 46.6374 52.9737C49.0168 55.3652 50.3537 58.6088 50.3539 61.9909C50.3558 64.345 49.7077 66.6534 48.4818 68.6593L48.484 68.6571Z" fill="white"/>
<path d="M83.5247 45.5785V65.5685C83.5247 65.7152 83.5246 65.8706 83.5181 66.021C83.2671 72.9028 77.356 78.4075 70.1053 78.4075C62.8547 78.4075 56.9406 72.9021 56.6889 66.021C56.6889 65.8743 56.6824 65.7181 56.6824 65.5685V45.5785H61.0088V65.5238C61.039 67.9183 62.0142 70.2027 63.7199 71.8746C65.4256 73.5466 67.7222 74.4693 70.1046 74.4397C72.487 74.4689 74.7834 73.5462 76.4892 71.8743C78.1949 70.2024 79.1703 67.9182 79.2011 65.5238V45.5785H83.5247Z" fill="white"/>
<path d="M91.7369 45.5771H87.3608V78.0439H91.7369V45.5771Z" fill="white"/>
<path d="M122.353 58.0978V78.0878H118.027V58.1425C117.999 55.8371 117.094 53.6298 115.498 51.9741C113.902 50.3184 111.735 49.3399 109.443 49.2398C108.795 47.9021 108.068 46.6044 107.266 45.3534C107.818 45.2865 108.374 45.2533 108.93 45.2537C116.184 45.2537 122.095 50.7591 122.346 57.6402C122.35 57.7957 122.353 57.9482 122.353 58.0978Z" fill="white"/>
<path d="M101.966 47.3201C101.318 47.7225 100.705 48.1796 100.133 48.6862V45.4385H95.7556V77.9053H95.838V78.0878H100.162V58.1426C100.167 56.6886 100.529 55.2584 101.215 53.9785C101.902 52.6987 102.892 51.6086 104.097 50.8046" fill="white"/>
<path d="M101.966 47.3201C101.318 47.7225 100.705 48.1796 100.133 48.6862V45.4385H95.7556V77.9053H95.838V78.0878H100.162V58.1426C100.167 56.6886 100.529 55.2584 101.215 53.9785C101.902 52.6987 102.892 51.6086 104.097 50.8046" stroke="black" stroke-miterlimit="10"/>
<path d="M143.032 45.4385C139.917 45.4334 136.868 46.3339 134.251 48.0314C134.578 49.4442 134.854 50.8758 135.077 52.3262C137.291 50.4161 140.113 49.3675 143.03 49.3711C144.637 49.371 146.229 49.6891 147.714 50.3071C149.198 50.9252 150.548 51.8313 151.684 52.9734C152.821 54.1156 153.722 55.4716 154.337 56.964C154.952 58.4563 155.269 60.0558 155.269 61.6711C155.269 63.2866 154.953 64.8864 154.338 66.3789C153.723 67.8715 152.822 69.2277 151.685 70.37C150.548 71.5123 149.199 72.4184 147.714 73.0364C146.229 73.6545 144.637 73.9723 143.03 73.972C140.127 73.9764 137.318 72.9388 135.108 71.0462C134.88 72.5523 134.598 74.0385 134.261 75.5045C136.876 77.1957 139.92 78.0927 143.029 78.0879C147.337 78.0875 151.469 76.3672 154.515 73.3055C157.562 70.2438 159.273 66.0913 159.274 61.7614C159.272 57.4325 157.561 53.2813 154.515 50.2204C151.47 47.1595 147.339 45.4395 143.032 45.4385ZM132.266 55.821C132.085 53.9753 131.812 52.1398 131.448 50.3214C128.461 53.3715 126.788 57.4807 126.792 61.7606C126.787 66.0273 128.449 70.1253 131.419 73.1734C131.79 71.3219 132.076 69.4337 132.266 67.522C131.297 65.726 130.791 63.7144 130.794 61.6711C130.791 59.6288 131.297 57.6182 132.266 55.8232L132.266 55.821Z" fill="white" stroke="black" stroke-miterlimit="10"/>
<path d="M163.061 62.6428L165.71 66.3591L155.84 78.2537H150.106L151.118 77.0371C153.166 75.9719 154.981 74.5062 156.457 72.7262C157.934 70.9462 159.041 68.8877 159.715 66.6715L163.061 62.6428Z" fill="white"/>
<path d="M180.68 78.2544H175.305L167.45 67.1906L167.463 67.184L162.502 60.2178L159.574 56.0953C158.483 52.8295 156.45 49.9641 153.733 47.8643L151.934 45.2611H157.26L165.354 56.6636L166.375 58.1031L166.584 58.3964L169.234 62.1134V62.12L180.68 78.2544Z" fill="white"/>
<path d="M169.865 61.3559L167.212 57.6389L177.486 45.2589H183.222L169.865 61.3559Z" fill="white"/>
<path d="M94.5581 84.3215H100.798C102.088 84.2905 103.37 84.534 104.56 85.0358C105.557 85.4593 106.406 86.1708 106.999 87.0801C107.58 88.02 107.875 89.1101 107.848 90.2164C107.88 91.6987 107.496 93.16 106.742 94.4342C106.007 95.6435 104.941 96.6151 103.671 97.2332C102.277 97.9068 100.745 98.2429 99.1984 98.215H91.7922L94.5581 84.3215ZM99.3567 94.5632C99.8775 94.5928 100.398 94.5058 100.881 94.3085C101.365 94.1112 101.798 93.8085 102.151 93.4223C102.835 92.6057 103.191 91.5611 103.148 90.4942C103.169 90.1476 103.114 89.8006 102.986 89.4781C102.858 89.1555 102.661 88.8655 102.408 88.6288C101.798 88.1533 101.035 87.92 100.265 87.9732H98.487L97.184 94.5625L99.3567 94.5632Z" fill="white"/>
<path d="M110.87 84.3215H115.53L112.765 98.215H108.108L110.87 84.3215Z" fill="white"/>
<path d="M125.622 90.8919H129.67L128.485 96.8865C127.713 97.4328 126.855 97.8451 125.947 98.1065C124.949 98.3973 123.915 98.5411 122.876 98.5333C121.593 98.5597 120.32 98.2913 119.156 97.7487C118.126 97.2762 117.258 96.5098 116.66 95.5449C116.061 94.58 115.758 93.4592 115.788 92.3225C115.762 90.8098 116.151 89.3192 116.914 88.0151C117.665 86.7573 118.752 85.7363 120.051 85.068C121.482 84.3395 123.069 83.9749 124.673 84.0063C127.542 84.0063 129.636 84.9126 130.953 86.7253L127.616 89.3256C127.248 88.8258 126.768 88.421 126.213 88.1449C125.66 87.9024 125.06 87.7839 124.456 87.7974C123.72 87.7803 122.992 87.9656 122.353 88.3334C121.756 88.6863 121.274 89.207 120.967 89.8315C120.635 90.5138 120.469 91.2655 120.483 92.0247C120.468 92.3933 120.532 92.7608 120.672 93.1019C120.812 93.443 121.024 93.7496 121.293 94.0003C121.915 94.5254 122.713 94.7916 123.524 94.7445C123.986 94.7462 124.445 94.6792 124.887 94.5457L125.622 90.8919Z" fill="white"/>
<path d="M132.967 84.3215H137.628L134.863 98.215H130.202L132.967 84.3215Z" fill="white"/>
<path d="M142.151 87.9543H138.102L138.832 84.3215H151.59L150.86 87.9543H146.811L144.777 98.2158H140.117L142.151 87.9543Z" fill="white"/>
<path d="M159.411 95.7937H154.139L152.756 98.2136H147.839L156.646 84.3201H161.228L164.506 98.2136H159.865L159.411 95.7937ZM158.76 92.4205L158.089 88.8678L156.055 92.4205H158.76Z" fill="white"/>
<path d="M168.021 84.3215H172.679L170.645 94.5832H176.885L176.155 98.215H165.254L168.021 84.3215Z" fill="white"/>
<path d="M178.438 97.7487C178.213 97.529 178.036 97.2646 177.919 96.9723C177.802 96.68 177.746 96.3661 177.757 96.051C177.743 95.6798 177.808 95.3099 177.947 94.966C178.087 94.622 178.298 94.3119 178.567 94.0565C179.105 93.5475 179.822 93.2729 180.561 93.2925C180.883 93.2784 181.204 93.3291 181.506 93.4416C181.808 93.554 182.084 93.726 182.319 93.9473C182.543 94.1693 182.718 94.4359 182.833 94.7298C182.949 95.0238 183.002 95.3387 182.99 95.6545C183.004 96.0257 182.939 96.3956 182.8 96.7396C182.66 97.0835 182.449 97.3936 182.181 97.649C181.649 98.1556 180.939 98.4302 180.206 98.4131C179.882 98.4265 179.559 98.3746 179.255 98.2605C178.952 98.1464 178.674 97.9724 178.438 97.7487Z" fill="#E35D14"/>
<path d="M93.5221 106.083C93.1122 106.092 92.7055 106.009 92.3315 105.84C92.0071 105.693 91.7322 105.454 91.5399 105.153C91.3489 104.842 91.2513 104.483 91.259 104.119C91.2524 103.671 91.3701 103.231 91.599 102.846C91.828 102.468 92.1561 102.16 92.5474 101.956C92.971 101.734 93.443 101.622 93.9205 101.63C94.3594 101.618 94.7934 101.724 95.1783 101.936C95.5224 102.132 95.7936 102.434 95.9509 102.799L94.6691 103.411C94.6108 103.238 94.4983 103.089 94.3485 102.986C94.1987 102.882 94.0196 102.831 93.8381 102.838C93.6954 102.835 93.5536 102.862 93.423 102.92C93.2923 102.978 93.1759 103.064 93.0822 103.172C92.8787 103.41 92.7726 103.717 92.7853 104.031C92.7798 104.142 92.7964 104.253 92.834 104.357C92.8715 104.462 92.9294 104.558 93.0041 104.639C93.0864 104.718 93.1841 104.779 93.291 104.818C93.3978 104.857 93.5116 104.873 93.625 104.866C93.8107 104.87 93.994 104.823 94.1554 104.731C94.3228 104.625 94.4592 104.477 94.5509 104.301L95.6504 104.969C95.4446 105.32 95.144 105.604 94.7836 105.789C94.3934 105.99 93.9602 106.09 93.5221 106.083ZM98.2222 106.083C97.8134 106.093 97.4077 106.01 97.0351 105.84C96.7144 105.692 96.4434 105.453 96.2552 105.153C96.0664 104.842 95.9702 104.483 95.9779 104.119C95.9714 103.671 96.0891 103.231 96.3179 102.846C96.5457 102.469 96.8713 102.161 97.2598 101.956C97.6763 101.734 98.1415 101.622 98.6125 101.629C99.0213 101.62 99.4269 101.703 99.7995 101.872C100.121 102.019 100.393 102.257 100.583 102.556C100.771 102.865 100.868 103.221 100.86 103.583C100.867 104.032 100.749 104.474 100.52 104.859C100.294 105.238 99.9703 105.547 99.5828 105.754C99.1652 105.977 98.6981 106.091 98.2251 106.083H98.2222ZM98.309 104.867C98.4488 104.871 98.5877 104.843 98.7152 104.785C98.8427 104.727 98.9555 104.641 99.0451 104.533C99.2423 104.289 99.3435 103.98 99.3297 103.666C99.3355 103.556 99.3196 103.446 99.2829 103.343C99.2462 103.239 99.1895 103.144 99.1159 103.062C99.0376 102.986 98.9444 102.927 98.8423 102.889C98.7402 102.852 98.6314 102.835 98.5227 102.842C98.3833 102.838 98.2447 102.865 98.1173 102.923C97.9899 102.98 97.8771 103.065 97.7873 103.173C97.5893 103.42 97.4881 103.731 97.5028 104.048C97.4967 104.157 97.5125 104.266 97.5492 104.37C97.5859 104.473 97.6428 104.567 97.7166 104.648C97.7952 104.723 97.8883 104.782 97.9902 104.819C98.0921 104.857 98.2006 104.873 98.309 104.867ZM107.44 101.63C107.84 101.61 108.232 101.747 108.534 102.012C108.676 102.152 108.786 102.321 108.857 102.508C108.928 102.695 108.958 102.894 108.946 103.094C108.945 103.273 108.927 103.451 108.89 103.627L108.423 106.012H106.917L107.36 103.785C107.381 103.686 107.392 103.584 107.392 103.483C107.404 103.327 107.354 103.172 107.253 103.053C107.2 103.002 107.137 102.963 107.068 102.938C107 102.913 106.926 102.902 106.853 102.907C106.373 102.907 106.07 103.217 105.943 103.837L105.506 106.008H104.006L104.456 103.781C104.478 103.685 104.489 103.587 104.488 103.488C104.499 103.331 104.449 103.176 104.349 103.055C104.297 103.003 104.234 102.964 104.165 102.939C104.096 102.913 104.023 102.903 103.949 102.908C103.463 102.908 103.157 103.224 103.032 103.855L102.603 106.011H101.102L101.956 101.701H103.38L103.294 102.141C103.463 101.975 103.664 101.845 103.884 101.757C104.104 101.67 104.339 101.628 104.575 101.632C104.842 101.628 105.105 101.689 105.343 101.811C105.566 101.927 105.748 102.108 105.865 102.332C106.059 102.109 106.298 101.932 106.566 101.811C106.841 101.689 107.139 101.627 107.44 101.63ZM112.804 101.63C113.116 101.629 113.423 101.71 113.695 101.865C113.975 102.025 114.207 102.26 114.363 102.544C114.537 102.863 114.624 103.223 114.616 103.586C114.623 104.032 114.515 104.471 114.304 104.863C114.106 105.231 113.813 105.54 113.457 105.758C113.106 105.974 112.702 106.087 112.29 106.084C112.039 106.11 111.786 106.069 111.556 105.966C111.325 105.863 111.126 105.702 110.977 105.497L110.565 107.558H109.062L110.225 101.705H111.65L111.563 102.11C111.898 101.794 112.344 101.621 112.804 101.63H112.804ZM112.075 104.867C112.215 104.871 112.354 104.843 112.481 104.785C112.609 104.727 112.721 104.641 112.811 104.533C113.008 104.289 113.109 103.98 113.096 103.666C113.101 103.556 113.085 103.446 113.047 103.342C113.009 103.238 112.952 103.143 112.877 103.062C112.797 102.986 112.703 102.928 112.601 102.89C112.498 102.852 112.388 102.836 112.279 102.842C112.139 102.838 112 102.866 111.873 102.924C111.745 102.982 111.633 103.068 111.543 103.176C111.345 103.423 111.244 103.734 111.258 104.051C111.253 104.16 111.269 104.27 111.306 104.373C111.344 104.477 111.402 104.571 111.477 104.651C111.557 104.726 111.652 104.784 111.755 104.821C111.858 104.858 111.967 104.873 112.076 104.867H112.075ZM120.259 101.701L119.403 106.011H117.979L118.066 105.606C117.73 105.921 117.285 106.092 116.825 106.083C116.513 106.084 116.206 106.003 115.935 105.849C115.654 105.688 115.423 105.453 115.267 105.169C115.092 104.847 115.005 104.485 115.014 104.119C115.008 103.676 115.115 103.239 115.326 102.85C115.524 102.482 115.816 102.173 116.172 101.956C116.523 101.739 116.928 101.626 117.34 101.629C117.59 101.603 117.844 101.644 118.074 101.747C118.304 101.85 118.504 102.011 118.653 102.216L118.756 101.703L120.259 101.701ZM117.345 104.867C117.485 104.871 117.624 104.843 117.752 104.785C117.879 104.727 117.992 104.641 118.082 104.533C118.279 104.289 118.38 103.98 118.366 103.666C118.372 103.556 118.355 103.446 118.318 103.342C118.28 103.238 118.222 103.143 118.147 103.062C118.068 102.986 117.974 102.928 117.871 102.89C117.768 102.852 117.659 102.836 117.55 102.842C117.41 102.838 117.271 102.866 117.143 102.924C117.016 102.982 116.903 103.068 116.814 103.176C116.615 103.423 116.514 103.734 116.529 104.051C116.523 104.16 116.539 104.27 116.577 104.373C116.615 104.477 116.673 104.571 116.748 104.651C116.828 104.726 116.922 104.783 117.025 104.82C117.127 104.857 117.236 104.873 117.345 104.867ZM123.904 101.63C124.314 101.609 124.716 101.744 125.032 102.008C125.177 102.146 125.29 102.315 125.363 102.503C125.436 102.69 125.468 102.892 125.455 103.093C125.454 103.272 125.436 103.451 125.399 103.626L124.928 106.011H123.422L123.865 103.769C123.886 103.675 123.897 103.579 123.896 103.483C123.896 103.101 123.699 102.91 123.303 102.91C123.185 102.906 123.066 102.925 122.955 102.967C122.844 103.008 122.741 103.072 122.655 103.153C122.466 103.354 122.342 103.607 122.299 103.88L121.871 106.011H120.368L121.222 101.701H122.647L122.56 102.146C122.739 101.975 122.952 101.842 123.185 101.757C123.416 101.672 123.661 101.629 123.907 101.63H123.904ZM131.168 101.703L128.423 106.203C128.24 106.512 128.022 106.799 127.773 107.057C127.586 107.248 127.361 107.398 127.112 107.497C126.851 107.589 126.575 107.634 126.297 107.628C126.068 107.628 125.84 107.593 125.621 107.525C125.427 107.471 125.245 107.379 125.087 107.254L125.76 106.189C125.943 106.351 126.18 106.438 126.424 106.435C126.547 106.439 126.668 106.407 126.772 106.343C126.886 106.264 126.982 106.162 127.057 106.045L126.081 101.701H127.576L128.114 104.349L129.697 101.701L131.168 101.703ZM135.409 102.657L135.053 103.802H136.027L135.829 104.829H134.721L134.349 106.014H133.249L133.621 104.829H132.673L132.297 106.011H131.202L131.575 104.826H130.583L130.789 103.8H131.904L132.26 102.654H131.287L131.493 101.628H132.592L132.964 100.443H134.064L133.692 101.628H134.64L135.012 100.443H136.112L135.74 101.628H136.729L136.531 102.654L135.409 102.657ZM134.31 102.657H133.361L133.005 103.802H133.954L134.31 102.657Z" fill="#E35D14"/>
</g>
<defs>
<clipPath id="clip0_16_101">
<rect width="184" height="123" fill="white"/>
</clipPath>
</defs>
</svg>
