<svg width="186" height="123" viewBox="0 0 186 123" fill="none" xmlns="http://www.w3.org/2000/svg">
<g clip-path="url(#clip0_351:3123)">
<path d="M93.0068 72.5801C93.24 72.4123 93.4383 72.2003 93.5905 71.9561C94.8849 70.246 95.8813 68.3277 96.5373 66.2827C96.5476 67.2081 96.5658 68.132 96.568 69.0575C96.568 70.1368 96.5578 71.2163 96.5512 72.2949C96.3629 72.4779 96.1959 72.6818 96.0536 72.9028C95.1919 74.1494 94.1831 75.2865 93.0492 76.2891C92.9529 75.0542 92.9959 73.8165 93.0068 72.5801Z" fill="#E35D14"/>
<path d="M90.39 24.439C95.1927 24.4323 99.9495 25.3779 104.388 27.2216C108.827 29.0653 112.86 31.7709 116.256 35.1834C119.653 38.5959 122.347 42.6483 124.183 47.1086C126.019 51.5689 126.962 56.3494 126.957 61.1764C126.966 66.0201 126.021 70.8177 124.175 75.2922C122.33 79.7666 119.621 83.8293 116.204 87.2456C112.788 90.6619 108.732 93.3642 104.271 95.1964C99.8093 97.0286 95.0311 97.9545 90.212 97.9205C85.4143 97.9076 80.6665 96.9432 76.2404 95.0825C71.8144 93.2218 67.7972 90.5015 64.4192 87.0774C61.0413 83.6533 58.3689 79.5929 56.5553 75.1287C54.7418 70.6646 53.8227 65.8846 53.8507 61.0628C53.8673 51.3373 57.7256 42.0164 64.5773 35.1488C71.429 28.2812 80.7135 24.4291 90.39 24.439V24.439ZM63.59 76.2652C64.4393 76.8422 65.3582 77.3081 66.3245 77.6518C67.4754 78.0463 68.6698 78.299 69.8813 78.4042C70.6819 78.4978 71.4872 78.5456 72.2933 78.5472L73.7597 78.6901C75.0618 79.0391 76.3967 79.2492 77.7426 79.3171C79.4663 79.4027 81.1937 79.2548 82.8781 78.8771C84.9854 78.3824 86.9973 77.5422 88.8331 76.3905C88.8491 76.5665 88.879 76.7425 88.8768 76.9178C88.8768 77.2646 89.0548 77.3937 89.3744 77.3812C89.5283 77.3753 89.683 77.3636 89.8377 77.3658C90.4732 77.3009 91.1137 77.3009 91.7492 77.3658C91.6653 77.4968 91.5495 77.604 91.4129 77.6775C90.2075 78.5798 88.9098 79.3502 87.5417 79.9756C84.4759 81.3834 81.1196 82.0338 77.7528 81.8726C75.5667 81.7619 73.409 81.3262 71.3499 80.5798C71.1442 80.5065 70.937 80.3209 70.6809 80.4823C71.6797 81.7926 76.8569 83.9749 80.2816 84.5021C83.3306 85.0248 86.4526 84.9325 89.4658 84.2307C92.4789 83.5288 95.3231 82.2314 97.8325 80.4141C102.783 76.9069 106.207 71.6252 107.4 65.6566C108.592 59.6881 107.461 53.4873 104.24 48.3315C101.016 43.1149 95.9098 39.3524 89.9898 37.83C84.0698 36.3076 77.7935 37.1431 72.472 40.162C72.8674 40.0703 73.2549 39.9868 73.6394 39.8915C77.7736 38.8579 82.1217 39.1007 86.1166 40.5881C90.1115 42.0755 93.5676 44.7384 96.0341 48.2296C96.1735 48.4254 96.2843 48.6498 96.5316 48.7385C96.5382 50.3569 96.5492 51.9759 96.547 53.5943C96.5836 53.9915 96.5713 54.3917 96.5105 54.7859C96.26 54.0303 95.9662 53.2899 95.6306 52.5684C94.9328 51.0325 94.0019 49.6148 92.8713 48.366C92.8575 47.7508 92.8509 47.1355 92.8283 46.5203C92.8115 46.0525 92.7553 45.9968 92.2832 45.985C91.6062 45.9689 90.9277 45.9674 90.2499 45.9601C90.1996 45.6866 89.9676 45.5781 89.7742 45.4402C87.6382 43.8444 85.1824 42.7344 82.5771 42.1873C79.9719 41.6402 77.2794 41.669 74.6863 42.2717C72.9149 42.6575 71.2081 43.2982 69.6186 44.1738C67.1204 45.4041 65.0176 47.317 63.5513 49.6932C63.2288 50.2494 62.9492 50.8297 62.7152 51.4289L62.1805 52.1571L62.1571 51.1876C62.1753 48.6505 62.171 46.7931 62.1666 46.2747C62.1735 46.0928 62.1207 45.9138 62.0163 45.765C61.9272 45.6642 61.8172 45.5843 61.6941 45.5308C61.5709 45.4774 61.4376 45.4517 61.3035 45.4556C60.4229 45.4116 59.5401 45.4021 58.658 45.4065C58.4559 45.3945 58.2567 45.4593 58.0999 45.5881C57.9431 45.7169 57.8402 45.9002 57.8117 46.1016C57.7782 46.2974 57.7662 46.4964 57.7759 46.6949C57.7613 50.8826 57.8255 55.0733 58.0451 59.2552C58.2122 62.4428 58.3005 64.1565 58.6208 66.6613C58.9812 69.4779 59.2592 70.3556 59.5496 71.0684C60.3681 73.1568 61.7716 74.962 63.59 76.2652ZM119.684 63.5911C119.775 63.8179 119.801 64.0661 119.757 64.3068C119.718 67.5005 119.675 70.6944 119.626 73.8886C119.612 74.8419 119.572 75.7951 119.563 76.7484C119.558 77.1957 119.629 77.2698 120.046 77.2778C120.862 77.2925 121.679 77.2778 122.496 77.2896C122.792 77.2896 122.957 77.1796 122.952 76.8657C122.952 76.755 122.952 76.6457 122.955 76.5328C122.99 73.6936 123.032 70.8543 123.06 68.015C123.082 65.6641 123.132 63.3132 122.952 60.9645C122.825 58.7493 122.506 56.5496 121.996 54.3906C121.493 52.0995 120.329 50.0082 118.651 48.3777C117.764 47.5814 116.774 46.9108 115.707 46.3847C115.667 46.0975 115.547 45.8276 115.361 45.6059C109.491 36.5917 101.175 31.9734 90.4819 31.6545C88.4269 31.6519 86.3777 31.8715 84.3694 32.3093C84.2665 32.3284 84.1505 32.3511 84.1359 32.4956C91.5948 32.5052 98.7483 35.4743 104.04 40.7571C109.333 46.04 112.335 53.2093 112.396 60.7057C112.551 67.9711 109.843 75.0037 104.862 80.2711C98.7336 86.8802 91.0371 89.7678 82.0763 89.421C82.2815 89.534 82.4995 89.6217 82.7257 89.682C87.3494 90.9363 92.2078 91.0385 96.8797 89.9798C102.056 88.7985 106.818 86.2326 110.662 82.5537C114.507 78.8748 117.29 74.2197 118.717 69.0812C119.199 67.2834 119.522 65.4462 119.682 63.5911H119.684Z" fill="#E35D14"/>
<path opacity="0.106" d="M129.929 36.8541C129.691 36.8644 129.652 36.6561 129.564 36.5161C127.852 33.7141 125.823 31.1202 123.518 28.7858C121.836 27.0857 120.017 25.5269 118.081 24.1251C115.454 22.2063 112.639 20.5621 109.68 19.218C106.525 17.77 103.212 16.6994 99.8089 16.0282C97.4877 15.5932 95.1408 15.311 92.783 15.1835C89.673 15.0517 86.5579 15.2505 83.4895 15.7767C81.1626 16.1326 78.872 16.6971 76.6452 17.4632C75.1192 17.9676 73.6199 18.5501 72.1531 19.2085C69.6441 20.3462 67.2314 21.6874 64.939 23.2188C63.4555 24.2028 62.0415 25.289 60.7073 26.4694C59.707 27.3024 58.7518 28.1887 57.8459 29.1246C56.3786 30.709 55.0171 32.3892 53.7704 34.1542C52.8285 35.5188 51.9924 36.9407 51.1789 38.3838C49.8082 40.8846 48.6063 43.4753 47.5813 46.1382C47.3508 46.7153 47.2895 46.7395 46.7124 46.4499C45.354 45.7713 43.9315 45.2309 42.4662 44.8366C40.9334 44.4402 39.3501 44.2766 37.7691 44.3512C36.0106 44.3882 34.2706 44.7193 32.6204 45.3309C30.7828 46.0125 29.0657 46.9857 27.5344 48.2134C25.3875 49.9625 23.6919 52.2063 22.5915 54.7543C21.9541 56.2087 21.5191 57.7445 21.2986 59.3182C21.1298 60.2506 21.0477 61.1967 21.0535 62.1443C21.0925 63.6848 21.3331 65.2134 21.7692 66.6907C22.0897 67.8412 22.5151 68.9595 23.0402 70.0315C24.0399 71.9831 25.3794 73.7389 26.9953 75.2158C28.4367 76.4887 30.0788 77.5116 31.8543 78.2428C33.0277 78.7343 34.2485 79.1029 35.4972 79.3427C36.4426 79.5356 37.4029 79.6458 38.3673 79.672C40.8295 79.6755 43.2681 79.1908 45.5436 78.2457C46.2104 77.959 46.8955 77.7156 47.5441 77.3826C47.9279 77.1854 48.0206 77.225 48.1774 77.6364C49.0031 79.7838 49.9574 81.8789 51.0352 83.9103C52.1767 86.0769 53.5131 88.1341 55.0275 90.056C56.4213 91.7997 57.9384 93.4401 59.567 94.9645C60.7569 96.0775 62.0164 97.1131 63.3375 98.0649C65.0002 99.2985 66.7421 100.42 68.5519 101.423C69.9636 102.196 71.4046 102.921 72.8864 103.556C75.1705 104.541 77.5286 105.343 79.9386 105.954C82.9617 106.703 86.0523 107.144 89.1635 107.269C93.7779 107.445 98.3921 106.913 102.847 105.692C105.274 105.024 107.642 104.157 109.928 103.1C113.711 101.372 117.247 99.1445 120.442 96.4751C121.447 95.6788 122.402 94.8217 123.304 93.9086C125.627 91.5324 127.68 88.9044 129.426 86.0728C129.62 85.7492 129.818 85.4287 130.018 85.1114C130.062 85.044 130.129 84.9648 130.237 85.0286C130.277 85.0483 130.309 85.0817 130.326 85.1229C130.344 85.1641 130.346 85.2102 130.333 85.2529C130.234 85.5228 130.104 85.7816 130.02 86.0551C129.35 88.2402 128.479 90.3578 127.418 92.3805C126.18 94.7097 124.748 96.9294 123.138 99.0159C121.982 100.534 120.722 101.962 119.428 103.356C117.684 105.182 115.814 106.881 113.832 108.442C111.473 110.346 108.971 112.063 106.349 113.58C103.429 115.283 100.37 116.734 97.2065 117.918C94.7693 118.842 92.277 119.611 89.7442 120.222C86.5253 121.003 83.2426 121.49 79.9364 121.677C78.4604 121.75 76.9881 121.965 75.5085 121.891C73.1738 121.776 70.8392 121.664 68.5169 121.37C65.1332 120.948 61.7923 120.232 58.5317 119.23C55.947 118.428 53.4177 117.456 50.96 116.32C47.4174 114.689 44.0459 112.707 40.8961 110.402C39.3849 109.296 37.9279 108.126 36.5252 106.892C35.2091 105.78 33.9557 104.595 32.7707 103.342C31.4786 101.926 30.1967 100.501 29.0111 98.9859C27.9656 97.6491 26.9522 96.2881 26.0198 94.8744C24.8833 93.1642 23.8411 91.3926 22.8979 89.5676C21.834 87.5315 20.8826 85.438 20.0481 83.2966C18.9362 80.4155 18.0516 77.451 17.4026 74.4304C17.1502 73.2264 16.878 72.0231 16.7 70.8095C16.5278 69.6363 16.4082 68.452 16.2565 67.2773C16.0061 64.5474 15.9176 61.805 15.9916 59.0645C16.0135 58.0086 16.1047 56.9553 16.2645 55.9114C16.3192 55.4531 16.3462 54.9904 16.3856 54.5314C16.4972 53.2364 16.7066 51.9568 16.943 50.6838C17.2399 49.0816 17.5799 47.4845 18.0286 45.9175C18.8114 43.0437 19.7864 40.2264 20.947 37.4847C22.2433 34.5303 23.7591 31.6781 25.4814 28.9523C26.7004 27.0636 28.02 25.2424 29.4343 23.4967C30.285 22.4231 31.1955 21.4061 32.1177 20.3934C32.7882 19.6601 33.4492 18.9107 34.1803 18.239C35.2513 17.255 36.3187 16.2665 37.424 15.3183C38.9313 14.0256 40.5058 12.8252 42.1284 11.6937C43.7743 10.5472 45.483 9.49451 47.2465 8.54064C48.122 8.06694 48.988 7.58739 49.8817 7.15548C53.2173 5.54868 56.6875 4.24128 60.2521 3.24856C62.886 2.52488 65.568 1.99118 68.2776 1.65148C69.9826 1.4315 71.6971 1.29141 73.4175 1.21149C74.6527 1.15356 75.885 1.06483 77.1216 1.11983C81.7142 1.24514 86.2795 1.87336 90.7365 2.99336C94.1944 3.91046 97.5687 5.12082 100.823 6.61139C105.14 8.60189 109.233 11.0485 113.035 13.9097C117.178 16.9523 120.857 20.5855 123.958 24.6949C125.755 27.1422 127.266 29.7888 128.463 32.5827C128.985 33.7819 129.455 35.0009 129.873 36.2396C129.936 36.4288 130.093 36.6283 129.929 36.8541Z" fill="white" stroke="white" stroke-width="3"/>
<path d="M5.04916 49.4778V55.9439H13.9632L13.9158 56.2585C13.793 57.0717 13.7819 57.898 13.883 58.7142L13.9632 59.3609H5.04916V72.9149H14.9715L15.6107 76.6217H1.36475V45.7314L15.5917 45.8187L14.7891 49.565L5.04916 49.4778Z" fill="white"/>
<path d="M52.2566 70.9303C52.8934 69.9596 53.4224 68.9217 53.834 67.8351C53.4067 65.6415 53.1917 63.4114 53.192 61.1762C53.19 59.3232 53.3384 57.4731 53.6356 55.6443C52.3938 52.6848 50.3114 50.1589 47.6488 48.3826C44.9862 46.6064 41.8616 45.6585 38.6659 45.6577C34.356 45.6581 30.2228 47.3791 27.1752 50.442C24.1277 53.505 22.4154 57.6592 22.415 61.9909C22.4156 66.3222 24.1281 70.4758 27.1757 73.5382C30.2233 76.6005 34.3564 78.3207 38.6659 78.3203C40.8247 78.3237 42.9624 77.8927 44.9529 77.0529C46.9435 76.213 48.7466 74.9812 50.2561 73.4301C52.2209 74.9494 54.0201 75.6841 54.5366 75.1056C55.0656 74.5072 53.5903 72.3917 52.2566 70.9303ZM49.4842 68.6571C48.3628 68.0705 47.7077 68.278 47.2954 68.7437C46.8621 69.232 46.8059 69.8773 47.6661 70.9706C46.4891 72.1668 45.0874 73.116 43.5423 73.7631C41.9973 74.4103 40.3397 74.7425 38.6659 74.7404C36.9993 74.7413 35.3489 74.4122 33.8089 73.7719C32.269 73.1316 30.8696 72.1926 29.6907 71.0087C28.5118 69.8247 27.5766 68.4189 26.9384 66.8716C26.3001 65.3243 25.9715 63.6659 25.9711 61.9909C25.9708 60.3156 26.299 58.6566 26.9369 57.1088C27.5749 55.561 28.5101 54.1548 29.6891 52.9705C30.868 51.7862 32.2677 50.847 33.808 50.2066C35.3483 49.5662 36.999 49.2372 38.6659 49.2383C42.031 49.2385 45.2581 50.5821 47.6376 52.9737C50.0171 55.3652 51.3539 58.6088 51.3541 61.9909C51.356 64.345 50.708 66.6534 49.482 68.6593L49.4842 68.6571Z" fill="white"/>
<path d="M84.5249 45.5786V65.5686C84.5249 65.7153 84.5249 65.8708 84.5183 66.0211C84.2673 72.9029 78.3562 78.4077 71.1056 78.4077C63.8549 78.4077 57.9409 72.9022 57.6892 66.0211C57.6892 65.8744 57.6826 65.7182 57.6826 65.5686V45.5786H62.0091V65.5239C62.0393 67.9184 63.0144 70.2028 64.7201 71.8748C66.4258 73.5467 68.7224 74.4694 71.1048 74.4399C73.4872 74.469 75.7837 73.5463 77.4894 71.8744C79.1951 70.2025 80.1706 67.9183 80.2014 65.5239V45.5786H84.5249Z" fill="white"/>
<path d="M92.7369 45.5771H88.3608V78.0439H92.7369V45.5771Z" fill="white"/>
<path d="M123.353 58.0981V78.0881H119.027V58.1428C118.999 55.8374 118.094 53.6301 116.498 51.9743C114.902 50.3186 112.735 49.3401 110.443 49.24C109.795 47.9024 109.068 46.6046 108.266 45.3536C108.818 45.2868 109.374 45.2535 109.93 45.2539C117.184 45.2539 123.095 50.7594 123.346 57.6405C123.35 57.7959 123.353 57.9485 123.353 58.0981Z" fill="white"/>
<path d="M102.966 47.3201C102.317 47.7225 101.704 48.1796 101.133 48.6862V45.4385H96.7554V77.9053H96.8378V78.0878H101.161V58.1426C101.167 56.6886 101.529 55.2584 102.215 53.9785C102.902 52.6987 103.891 51.6086 105.097 50.8046" fill="white"/>
<path d="M102.966 47.3201C102.317 47.7225 101.704 48.1796 101.133 48.6862V45.4385H96.7554V77.9053H96.8378V78.0878H101.161V58.1426C101.167 56.6886 101.529 55.2584 102.215 53.9785C102.902 52.6987 103.891 51.6086 105.097 50.8046" stroke="black" stroke-miterlimit="10"/>
<path d="M144.032 45.4385C140.917 45.4334 137.868 46.3339 135.251 48.0314C135.578 49.4442 135.854 50.8758 136.077 52.3262C138.291 50.4161 141.113 49.3675 144.03 49.3711C145.637 49.371 147.229 49.6891 148.714 50.3071C150.198 50.9252 151.548 51.8313 152.684 52.9734C153.821 54.1156 154.722 55.4716 155.337 56.964C155.952 58.4563 156.269 60.0558 156.269 61.6711C156.269 63.2866 155.953 64.8864 155.338 66.3789C154.723 67.8715 153.822 69.2277 152.685 70.37C151.548 71.5123 150.199 72.4184 148.714 73.0364C147.229 73.6545 145.637 73.9723 144.03 73.972C141.127 73.9764 138.318 72.9388 136.108 71.0462C135.88 72.5523 135.598 74.0385 135.261 75.5045C137.876 77.1957 140.92 78.0927 144.029 78.0879C148.337 78.0875 152.469 76.3672 155.515 73.3055C158.562 70.2438 160.273 66.0913 160.274 61.7614C160.272 57.4325 158.561 53.2813 155.515 50.2204C152.47 47.1595 148.339 45.4395 144.032 45.4385ZM133.266 55.821C133.085 53.9753 132.812 52.1398 132.448 50.3214C129.461 53.3715 127.788 57.4807 127.792 61.7606C127.787 66.0273 129.449 70.1253 132.419 73.1734C132.79 71.3219 133.076 69.4337 133.266 67.522C132.297 65.726 131.791 63.7144 131.794 61.6711C131.791 59.6288 132.297 57.6182 133.266 55.8232L133.266 55.821Z" fill="white" stroke="black" stroke-miterlimit="10"/>
<path d="M164.061 62.6431L166.71 66.3593L156.84 78.2539H151.106L152.118 77.0374C154.166 75.9722 155.981 74.5065 157.458 72.7265C158.934 70.9464 160.041 68.8879 160.715 66.6717L164.061 62.6431Z" fill="white"/>
<path d="M181.68 78.2545H176.305L168.45 67.1908L168.463 67.1841L163.502 60.218L160.574 56.0954C159.483 52.8297 157.45 49.9643 154.733 47.8644L152.934 45.2612H158.26L166.354 56.6638L167.375 58.1032L167.584 58.3965L170.234 62.1135V62.1201L181.68 78.2545Z" fill="white"/>
<path d="M170.865 61.3558L168.212 57.6388L178.486 45.2588H184.221L170.865 61.3558Z" fill="white"/>
<path d="M95.5584 84.3215H101.799C103.088 84.2905 104.37 84.534 105.56 85.0358C106.557 85.4593 107.406 86.1708 107.999 87.0801C108.58 88.02 108.875 89.1101 108.849 90.2164C108.88 91.6987 108.497 93.16 107.742 94.4342C107.007 95.6435 105.941 96.6151 104.672 97.2332C103.277 97.9068 101.745 98.2429 100.199 98.215H92.7925L95.5584 84.3215ZM100.357 94.5632C100.878 94.5928 101.398 94.5058 101.882 94.3085C102.365 94.1112 102.798 93.8085 103.151 93.4223C103.836 92.6057 104.191 91.5611 104.148 90.4942C104.17 90.1476 104.114 89.8006 103.986 89.4781C103.858 89.1555 103.661 88.8655 103.408 88.6288C102.798 88.1533 102.035 87.92 101.265 87.9732H99.4872L98.1842 94.5625L100.357 94.5632Z" fill="white"/>
<path d="M111.87 84.3213H116.53L113.765 98.2148H109.108L111.87 84.3213Z" fill="white"/>
<path d="M126.622 90.8919H130.671L129.486 96.8865C128.713 97.4328 127.855 97.8451 126.947 98.1065C125.95 98.3973 124.915 98.5411 123.877 98.5333C122.593 98.5597 121.321 98.2913 120.156 97.7487C119.127 97.2762 118.259 96.5098 117.66 95.5449C117.061 94.58 116.758 93.4592 116.789 92.3225C116.762 90.8098 117.151 89.3192 117.914 88.0151C118.666 86.7573 119.752 85.7363 121.052 85.068C122.482 84.3395 124.069 83.9749 125.673 84.0063C128.543 84.0063 130.636 84.9126 131.953 86.7253L128.616 89.3256C128.249 88.8258 127.768 88.421 127.214 88.1449C126.66 87.9024 126.06 87.7839 125.456 87.7974C124.72 87.7803 123.993 87.9656 123.353 88.3334C122.756 88.6863 122.274 89.207 121.967 89.8315C121.636 90.5138 121.47 91.2655 121.484 92.0247C121.468 92.3933 121.532 92.7608 121.672 93.1019C121.812 93.443 122.024 93.7496 122.293 94.0003C122.915 94.5254 123.713 94.7916 124.524 94.7445C124.986 94.7462 125.445 94.6792 125.887 94.5457L126.622 90.8919Z" fill="white"/>
<path d="M133.967 84.3213H138.628L135.863 98.2148H131.202L133.967 84.3213Z" fill="white"/>
<path d="M143.151 87.954H139.103L139.832 84.3213H152.59L151.86 87.954H147.812L145.777 98.2155H141.117L143.151 87.954Z" fill="white"/>
<path d="M160.412 95.794H155.139L153.756 98.2138H148.839L157.646 84.3203H162.228L165.506 98.2138H160.865L160.412 95.794ZM159.76 92.4208L159.089 88.8681L157.055 92.4208H159.76Z" fill="white"/>
<path d="M169.021 84.3213H173.679L171.645 94.5829H177.885L177.155 98.2148H166.254L169.021 84.3213Z" fill="white"/>
<path d="M179.438 97.7486C179.213 97.5289 179.037 97.2645 178.919 96.9722C178.802 96.6798 178.746 96.366 178.757 96.0509C178.743 95.6797 178.808 95.3098 178.947 94.9658C179.087 94.6219 179.298 94.3118 179.567 94.0564C180.105 93.5474 180.822 93.2728 181.561 93.2923C181.883 93.2783 182.204 93.329 182.506 93.4415C182.808 93.5539 183.084 93.7259 183.319 93.9472C183.543 94.1692 183.718 94.4358 183.834 94.7297C183.949 95.0236 184.003 95.3386 183.99 95.6544C184.004 96.0255 183.939 96.3955 183.8 96.7394C183.66 97.0834 183.449 97.3934 183.181 97.6489C182.649 98.1555 181.939 98.4301 181.206 98.4129C180.882 98.4264 180.559 98.3745 180.255 98.2604C179.952 98.1463 179.674 97.9723 179.438 97.7486V97.7486Z" fill="#E35D14"/>
<path d="M94.5224 106.083C94.1125 106.092 93.7057 106.009 93.3317 105.841C93.0073 105.693 92.7324 105.454 92.5401 105.153C92.3491 104.843 92.2516 104.483 92.2592 104.119C92.2526 103.671 92.3704 103.231 92.5992 102.847C92.8282 102.468 93.1563 102.16 93.5477 101.956C93.9712 101.734 94.4432 101.622 94.9207 101.63C95.3596 101.619 95.7937 101.724 96.1786 101.937C96.5226 102.132 96.7939 102.435 96.9512 102.799L95.6693 103.411C95.6111 103.238 95.4986 103.089 95.3488 102.986C95.1989 102.882 95.0198 102.831 94.8383 102.839C94.6956 102.835 94.5539 102.863 94.4232 102.92C94.2925 102.978 94.1762 103.064 94.0824 103.172C93.8789 103.41 93.7728 103.717 93.7855 104.031C93.7801 104.142 93.7966 104.253 93.8342 104.357C93.8718 104.462 93.9296 104.558 94.0044 104.639C94.0867 104.718 94.1844 104.779 94.2912 104.818C94.3981 104.857 94.5118 104.873 94.6253 104.866C94.8109 104.87 94.9942 104.823 95.1557 104.731C95.323 104.626 95.4595 104.477 95.5511 104.301L96.6506 104.969C96.4448 105.32 96.1442 105.604 95.7838 105.789C95.3937 105.99 94.9605 106.091 94.5224 106.083V106.083ZM99.2224 106.083C98.8136 106.093 98.408 106.01 98.0354 105.841C97.7146 105.692 97.4437 105.453 97.2554 105.153C97.0666 104.842 96.9704 104.483 96.9782 104.119C96.9716 103.671 97.0894 103.231 97.3182 102.847C97.5459 102.469 97.8715 102.161 98.2601 101.956C98.6765 101.734 99.1417 101.622 99.6127 101.629C100.021 101.62 100.427 101.703 100.8 101.872C101.121 102.019 101.393 102.257 101.583 102.556C101.772 102.865 101.868 103.221 101.861 103.583C101.867 104.032 101.749 104.474 101.521 104.859C101.295 105.238 100.971 105.547 100.583 105.754C100.165 105.977 99.6983 106.091 99.2253 106.083H99.2224ZM99.3092 104.867C99.449 104.871 99.5879 104.843 99.7155 104.785C99.843 104.727 99.9558 104.641 100.045 104.533C100.243 104.289 100.344 103.981 100.33 103.666C100.336 103.556 100.32 103.446 100.283 103.343C100.246 103.239 100.19 103.144 100.116 103.062C100.038 102.986 99.9447 102.927 99.8426 102.89C99.7404 102.852 99.6316 102.836 99.523 102.842C99.3835 102.838 99.2449 102.865 99.1175 102.923C98.9902 102.98 98.8774 103.066 98.7876 103.173C98.5895 103.42 98.4883 103.731 98.503 104.048C98.4969 104.157 98.5127 104.267 98.5494 104.37C98.5861 104.473 98.643 104.568 98.7168 104.648C98.7954 104.723 98.8886 104.782 98.9905 104.819C99.0924 104.857 99.2009 104.873 99.3092 104.867V104.867ZM108.44 101.63C108.84 101.61 109.233 101.747 109.534 102.012C109.676 102.152 109.786 102.322 109.857 102.508C109.928 102.695 109.958 102.894 109.946 103.094C109.945 103.273 109.927 103.451 109.89 103.627L109.424 106.012H107.918L108.36 103.785C108.381 103.686 108.392 103.585 108.392 103.483C108.404 103.327 108.354 103.173 108.253 103.053C108.2 103.003 108.137 102.963 108.069 102.938C108 102.913 107.927 102.902 107.853 102.907C107.373 102.907 107.07 103.217 106.944 103.837L106.506 106.008H105.006L105.457 103.782C105.478 103.685 105.489 103.587 105.488 103.488C105.499 103.331 105.45 103.176 105.349 103.055C105.297 103.004 105.234 102.964 105.165 102.939C105.096 102.914 105.023 102.903 104.95 102.908C104.463 102.908 104.157 103.224 104.032 103.855L103.603 106.011H102.102L102.956 101.701H104.381L104.294 102.141C104.463 101.975 104.664 101.845 104.884 101.758C105.104 101.67 105.339 101.628 105.576 101.632C105.842 101.628 106.106 101.689 106.343 101.811C106.566 101.927 106.749 102.108 106.866 102.332C107.059 102.109 107.298 101.932 107.566 101.811C107.841 101.689 108.139 101.628 108.44 101.63V101.63ZM113.805 101.63C114.117 101.629 114.424 101.71 114.695 101.865C114.976 102.025 115.207 102.26 115.363 102.544C115.537 102.863 115.625 103.223 115.616 103.586C115.623 104.032 115.515 104.472 115.304 104.863C115.106 105.231 114.814 105.54 114.458 105.758C114.106 105.974 113.702 106.087 113.29 106.084C113.04 106.11 112.786 106.069 112.556 105.966C112.326 105.864 112.126 105.702 111.977 105.497L111.565 107.558H110.062L111.225 101.705H112.65L112.563 102.11C112.899 101.794 113.344 101.622 113.804 101.63H113.805ZM113.075 104.867C113.215 104.871 113.354 104.843 113.481 104.785C113.609 104.727 113.722 104.641 113.811 104.533C114.008 104.289 114.11 103.981 114.096 103.666C114.101 103.556 114.085 103.446 114.047 103.342C114.01 103.238 113.952 103.143 113.877 103.062C113.797 102.986 113.704 102.928 113.601 102.89C113.498 102.852 113.389 102.836 113.279 102.842C113.14 102.838 113.001 102.866 112.873 102.924C112.746 102.982 112.633 103.068 112.543 103.176C112.345 103.423 112.244 103.734 112.259 104.051C112.253 104.16 112.269 104.27 112.307 104.374C112.344 104.477 112.402 104.571 112.478 104.651C112.558 104.726 112.652 104.784 112.755 104.821C112.858 104.858 112.967 104.874 113.077 104.867H113.075ZM121.259 101.701L120.403 106.011H118.979L119.066 105.606C118.73 105.921 118.285 106.092 117.825 106.083C117.513 106.084 117.207 106.004 116.935 105.849C116.654 105.688 116.423 105.453 116.267 105.169C116.092 104.847 116.005 104.485 116.014 104.119C116.008 103.676 116.115 103.239 116.326 102.85C116.524 102.482 116.816 102.173 117.172 101.956C117.524 101.74 117.928 101.626 118.34 101.629C118.591 101.603 118.844 101.644 119.074 101.747C119.305 101.85 119.504 102.011 119.653 102.216L119.756 101.703L121.259 101.701ZM118.346 104.867C118.485 104.871 118.624 104.843 118.752 104.785C118.879 104.727 118.992 104.641 119.082 104.533C119.279 104.289 119.38 103.981 119.366 103.666C119.372 103.556 119.355 103.446 119.318 103.342C119.28 103.238 119.222 103.143 119.147 103.062C119.068 102.986 118.974 102.928 118.871 102.89C118.769 102.852 118.659 102.836 118.55 102.842C118.41 102.838 118.271 102.866 118.144 102.924C118.016 102.982 117.903 103.068 117.814 103.176C117.616 103.423 117.515 103.734 117.529 104.051C117.523 104.16 117.54 104.27 117.577 104.374C117.615 104.477 117.673 104.571 117.748 104.651C117.828 104.726 117.922 104.783 118.025 104.821C118.128 104.858 118.237 104.873 118.346 104.867V104.867ZM124.905 101.63C125.314 101.609 125.716 101.744 126.032 102.008C126.177 102.146 126.29 102.315 126.364 102.503C126.437 102.691 126.468 102.892 126.455 103.093C126.455 103.272 126.436 103.451 126.4 103.626L125.928 106.011H124.422L124.865 103.769C124.887 103.675 124.897 103.579 124.897 103.483C124.897 103.101 124.699 102.91 124.303 102.91C124.185 102.906 124.066 102.925 123.955 102.967C123.844 103.008 123.742 103.072 123.655 103.153C123.466 103.354 123.342 103.608 123.299 103.881L122.871 106.011H121.368L122.223 101.701H123.647L123.56 102.146C123.74 101.975 123.952 101.842 124.185 101.757C124.416 101.672 124.661 101.629 124.907 101.63H124.905ZM132.168 101.703L129.423 106.203C129.241 106.512 129.023 106.799 128.774 107.057C128.586 107.248 128.361 107.398 128.113 107.497C127.851 107.589 127.575 107.634 127.298 107.628C127.068 107.628 126.84 107.593 126.621 107.525C126.427 107.471 126.246 107.379 126.087 107.254L126.76 106.189C126.944 106.351 127.18 106.439 127.425 106.435C127.547 106.439 127.668 106.407 127.773 106.344C127.886 106.264 127.983 106.162 128.057 106.045L127.081 101.701H128.577L129.114 104.349L130.697 101.701L132.168 101.703ZM136.41 102.657L136.053 103.802H137.027L136.829 104.829H135.722L135.349 106.014H134.249L134.621 104.829H133.673L133.297 106.011H132.203L132.575 104.826H131.583L131.789 103.8H132.905L133.261 102.654H132.287L132.493 101.628H133.593L133.965 100.443H135.064L134.692 101.628H135.641L136.013 100.443H137.112L136.74 101.628H137.729L137.532 102.654L136.41 102.657ZM135.31 102.657H134.362L134.006 103.802H134.954L135.31 102.657Z" fill="#E35D14"/>
</g>
<defs>
<clipPath id="clip0_351:3123">
<rect width="184" height="123" fill="white" transform="translate(1)"/>
</clipPath>
</defs>
</svg>
