<svg width="186" height="123" viewBox="0 0 186 123" fill="none" xmlns="http://www.w3.org/2000/svg">
<g clip-path="url(#clip0_183_1736)">
<path d="M92.2155 72.598C92.4501 72.4299 92.6496 72.2176 92.8029 71.973C94.1053 70.2601 95.1079 68.3388 95.7681 66.2905C95.7784 67.2174 95.7967 68.1428 95.799 69.0697C95.799 70.1508 95.7887 71.2319 95.7821 72.3123C95.5925 72.4955 95.4246 72.6998 95.2814 72.9212C94.4143 74.1698 93.3992 75.3086 92.2581 76.3128C92.1612 75.076 92.2045 73.8363 92.2155 72.598Z" fill="#E35D14"/>
<path d="M89.5821 24.3799C94.4148 24.3733 99.2014 25.3203 103.668 27.167C108.134 29.0136 112.192 31.7235 115.61 35.1414C119.028 38.5594 121.739 42.6183 123.586 47.0857C125.434 51.5531 126.383 56.3412 126.378 61.1759C126.387 66.0273 125.436 70.8325 123.579 75.3141C121.722 79.7957 118.996 83.8648 115.558 87.2866C112.12 90.7084 108.039 93.415 103.55 95.2501C99.0604 97.0852 94.2523 98.0125 89.403 97.9785C84.5754 97.9656 79.7978 96.9996 75.344 95.136C70.8903 93.2724 66.848 90.5477 63.4489 87.1182C60.0498 83.6886 57.3607 79.6217 55.5358 75.1504C53.7109 70.6792 52.786 65.8916 52.8143 61.0621C52.831 51.3211 56.7134 41.9853 63.6079 35.1068C70.5025 28.2283 79.8451 24.37 89.5821 24.3799ZM62.6145 76.2887C63.4691 76.8666 64.3937 77.3333 65.3661 77.6775C66.5242 78.0727 67.726 78.3257 68.9451 78.4311C69.7508 78.5249 70.5611 78.5727 71.3722 78.5743L72.8478 78.7175C74.158 79.067 75.5013 79.2775 76.8556 79.3455C78.5901 79.4312 80.3283 79.283 82.0233 78.9048C84.1437 78.4092 86.1682 77.5678 88.0155 76.4142C88.0316 76.5905 88.0617 76.7668 88.0595 76.9423C88.0595 77.2897 88.2386 77.419 88.5602 77.4065C88.7151 77.4006 88.8707 77.3889 89.0264 77.3911C89.6659 77.326 90.3103 77.326 90.9498 77.3911C90.8654 77.5222 90.7489 77.6296 90.6114 77.7032C89.3985 78.607 88.0927 79.3786 86.716 80.005C83.631 81.415 80.2537 82.0665 76.8659 81.905C74.6661 81.7942 72.4949 81.3578 70.4229 80.6102C70.2159 80.5367 70.0074 80.3509 69.7497 80.5125C70.7548 81.825 75.9643 84.0107 79.4104 84.5387C82.4785 85.0622 85.6201 84.9698 88.6521 84.2669C91.6841 83.5639 94.5461 82.2644 97.0712 80.4442C102.053 76.9315 105.499 71.6413 106.698 65.6632C107.898 59.6852 106.76 53.4745 103.519 48.3105C100.274 43.0855 95.1364 39.317 89.1794 37.7922C83.2224 36.2675 76.9068 37.1043 71.552 40.128C71.95 40.0362 72.3398 39.9525 72.7267 39.857C76.8868 38.8218 81.2621 39.065 85.282 40.5547C89.3019 42.0445 92.7796 44.7117 95.2615 48.2084C95.4018 48.4045 95.5133 48.6293 95.7622 48.7181C95.7688 50.3391 95.7799 51.9607 95.7777 53.5817C95.8145 53.9795 95.8021 54.3804 95.7409 54.7752C95.4889 54.0184 95.1933 53.2768 94.8555 52.5541C94.1533 51.0158 93.2167 49.5959 92.079 48.345C92.065 47.7288 92.0584 47.1126 92.0356 46.4964C92.0188 46.0278 91.9622 45.972 91.4872 45.9603C90.8059 45.9441 90.1232 45.9427 89.4412 45.9353C89.3905 45.6614 89.1571 45.5527 88.9625 45.4146C86.8131 43.8162 84.342 42.7045 81.7204 42.1565C79.0988 41.6085 76.3895 41.6373 73.7802 42.241C71.9977 42.6275 70.2802 43.2691 68.6808 44.1462C66.167 45.3784 64.051 47.2944 62.5756 49.6744C62.251 50.2314 61.9697 50.8126 61.7342 51.4128L61.1961 52.1421L61.1726 51.1712C61.1909 48.63 61.1865 46.7697 61.1821 46.2504C61.1891 46.0683 61.1359 45.8889 61.0309 45.74C60.9413 45.639 60.8306 45.5589 60.7067 45.5054C60.5827 45.4518 60.4486 45.4261 60.3136 45.43C59.4275 45.3859 58.5392 45.3764 57.6516 45.3808C57.4482 45.3688 57.2478 45.4337 57.09 45.5627C56.9323 45.6917 56.8287 45.8753 56.8 46.0771C56.7663 46.2732 56.7543 46.4725 56.764 46.6712C56.7493 50.8657 56.8139 55.063 57.0349 59.2516C57.203 62.4443 57.2919 64.1607 57.6142 66.6695C57.9768 69.4906 58.2566 70.3697 58.5487 71.0836C59.3724 73.1754 60.7847 74.9834 62.6145 76.2887ZM119.059 63.5944C119.151 63.8215 119.177 64.0702 119.132 64.3112C119.094 67.51 119.05 70.709 119.001 73.9083C118.987 74.8631 118.947 75.8179 118.937 76.7727C118.933 77.2207 119.004 77.2949 119.423 77.3029C120.245 77.3176 121.067 77.3029 121.889 77.3147C122.187 77.3147 122.353 77.2045 122.347 76.8902C122.347 76.7793 122.347 76.6699 122.351 76.5567C122.386 73.713 122.428 70.8691 122.456 68.0253C122.479 65.6707 122.529 63.3161 122.348 60.9636C122.221 58.7449 121.899 56.5417 121.386 54.3793C120.88 52.0845 119.709 49.9898 118.02 48.3568C117.128 47.5591 116.131 46.8875 115.057 46.3605C115.017 46.073 114.896 45.8026 114.709 45.5805C108.802 36.5519 100.435 31.9264 89.6746 31.6069C87.6068 31.6043 85.5447 31.8242 83.5239 32.2628C83.4204 32.2819 83.3036 32.3046 83.2889 32.4493C90.7945 32.459 97.9927 35.4328 103.318 40.724C108.643 46.0153 111.665 53.196 111.726 60.7044C111.882 67.9813 109.157 75.0252 104.145 80.301C97.9779 86.9206 90.2333 89.8128 81.2164 89.4654C81.4229 89.5787 81.6423 89.6665 81.8698 89.7269C86.5225 90.9832 91.4113 91.0856 96.1124 90.0251C101.321 88.8419 106.113 86.272 109.981 82.5872C113.85 78.9024 116.65 74.24 118.086 69.0933C118.572 67.2926 118.897 65.4525 119.058 63.5944H119.059Z" fill="#E35D14"/>
<path opacity="0.106" d="M129.369 36.8149C129.129 36.8252 129.09 36.6166 129.002 36.4763C127.278 33.6699 125.237 31.0719 122.918 28.7338C121.225 27.0309 119.395 25.4696 117.447 24.0656C114.803 22.1438 111.97 20.4969 108.992 19.1507C105.818 17.7004 102.484 16.6281 99.06 15.9558C96.7243 15.5201 94.3627 15.2375 91.9901 15.1097C88.8607 14.9777 85.7261 15.1768 82.6385 15.7038C80.297 16.0604 77.9922 16.6257 75.7514 17.3931C74.2159 17.8982 72.7072 18.4817 71.2312 19.1411C68.7065 20.2807 66.2787 21.624 63.9719 23.1578C62.4791 24.1435 61.0563 25.2313 59.7138 26.4136C58.7072 27.248 57.746 28.1357 56.8345 29.0731C55.358 30.66 53.988 32.3429 52.7335 34.1107C51.7857 35.4775 50.9444 36.9016 50.1258 38.347C48.7465 40.8518 47.5371 43.4466 46.5057 46.1138C46.2737 46.6918 46.212 46.716 45.6313 46.4259C44.2644 45.7463 42.8331 45.205 41.3586 44.8101C39.8161 44.4131 38.223 44.2492 36.632 44.3239C34.8626 44.361 33.1117 44.6926 31.4512 45.3052C29.602 45.9879 27.8742 46.9626 26.3334 48.1923C24.173 49.9442 22.4668 52.1915 21.3595 54.7436C20.7181 56.2004 20.2804 57.7386 20.0586 59.3148C19.8887 60.2486 19.8061 61.1963 19.8119 62.1454C19.8511 63.6883 20.0932 65.2193 20.5321 66.699C20.8546 67.8514 21.2827 68.9715 21.811 70.0451C22.817 71.9999 24.1649 73.7585 25.7908 75.2377C27.2413 76.5126 28.8936 77.5372 30.6803 78.2695C31.8611 78.7618 33.0895 79.131 34.3459 79.3712C35.2973 79.5644 36.2636 79.6748 37.2341 79.701C39.7116 79.7045 42.1655 79.2191 44.4552 78.2725C45.1262 77.9853 45.8156 77.7415 46.4682 77.408C46.8544 77.2104 46.9477 77.2501 47.1055 77.6621C47.9364 79.813 48.8967 81.9114 49.9812 83.9461C51.1298 86.1161 52.4745 88.1766 53.9985 90.1015C55.401 91.8481 56.9276 93.4911 58.5663 95.0179C59.7637 96.1327 61.031 97.1699 62.3605 98.1232C64.0335 99.3588 65.7863 100.482 67.6074 101.487C69.028 102.261 70.478 102.987 71.9691 103.623C74.2675 104.61 76.6403 105.413 79.0654 106.025C82.1074 106.775 85.2174 107.217 88.348 107.342C92.9913 107.519 97.6343 106.986 102.117 105.762C104.559 105.093 106.942 104.225 109.243 103.166C113.049 101.436 116.607 99.2046 119.822 96.5309C120.833 95.7333 121.795 94.8749 122.702 93.9603C125.039 91.5804 127.105 88.9481 128.862 86.112C129.058 85.7879 129.257 85.4669 129.458 85.1491C129.502 85.0815 129.57 85.0022 129.679 85.0661C129.719 85.0859 129.751 85.1194 129.768 85.1606C129.786 85.2019 129.788 85.2481 129.775 85.2909C129.676 85.5611 129.544 85.8204 129.46 86.0943C128.786 88.2828 127.909 90.4038 126.842 92.4297C125.596 94.7627 124.156 96.9859 122.535 99.0758C121.372 100.596 120.104 102.026 118.801 103.423C117.047 105.252 115.165 106.954 113.17 108.516C110.797 110.424 108.28 112.144 105.641 113.663C102.703 115.369 99.6251 116.823 96.4413 118.008C93.9889 118.933 91.481 119.704 88.9324 120.315C85.6933 121.098 82.3901 121.586 79.0632 121.772C77.578 121.846 76.0965 122.061 74.6076 121.988C72.2583 121.872 69.909 121.76 67.5722 121.466C64.1674 121.043 60.8055 120.325 57.5246 119.322C54.9237 118.519 52.3786 117.545 49.9055 116.407C46.3407 114.774 42.9482 112.788 39.7786 110.48C38.258 109.373 36.7919 108.201 35.3804 106.965C34.0561 105.85 32.7948 104.663 31.6024 103.409C30.3022 101.99 29.0123 100.563 27.8193 99.0457C26.7673 97.7068 25.7475 96.3436 24.8093 94.9276C23.6657 93.2147 22.6169 91.4403 21.6678 89.6124C20.5973 87.573 19.64 85.4762 18.8003 83.3314C17.6814 80.4457 16.7912 77.4765 16.1382 74.4511C15.8842 73.2451 15.6103 72.0399 15.4312 70.8244C15.2579 69.6493 15.1376 68.4631 14.9848 67.2865C14.7329 64.5523 14.6439 61.8055 14.7183 59.0607C14.7404 58.0031 14.8321 56.9481 14.9929 55.9026C15.048 55.4435 15.0752 54.9801 15.1148 54.5203C15.2271 53.2233 15.4378 51.9416 15.6757 50.6666C15.9745 49.0619 16.3166 47.4622 16.7681 45.8927C17.5558 43.0144 18.5369 40.1926 19.7047 37.4465C21.0092 34.4874 22.5344 31.6306 24.2675 28.9005C25.4942 27.0088 26.822 25.1847 28.2451 23.4362C29.1011 22.3609 30.0174 21.3422 30.9453 20.328C31.62 19.5935 32.2852 18.8429 33.0208 18.1702C34.0985 17.1845 35.1726 16.1945 36.2848 15.2448C37.8016 13.95 39.3859 12.7477 41.0186 11.6144C42.6749 10.4661 44.3943 9.4117 46.1687 8.4563C47.0497 7.98185 47.9212 7.50153 48.8205 7.06894C52.1769 5.45957 55.6689 4.15009 59.2557 3.15578C61.9061 2.43096 64.6049 1.8964 67.3314 1.55617C69.0471 1.33583 70.7724 1.19552 72.5035 1.11547C73.7464 1.05745 74.9864 0.968579 76.2308 1.02366C80.8521 1.14917 85.4459 1.77839 89.9308 2.90018C93.4104 3.81875 96.8058 5.03104 100.08 6.52397C104.424 8.51765 108.543 10.9681 112.369 13.834C116.538 16.8813 120.24 20.5204 123.36 24.6363C125.168 27.0875 126.689 29.7384 127.893 32.5367C128.419 33.7378 128.892 34.9587 129.312 36.1994C129.375 36.3889 129.534 36.5887 129.369 36.8149Z" fill="black"/>
<path d="M3.70752 49.4584V55.9348H12.6774L12.6297 56.2498C12.506 57.0643 12.4949 57.892 12.5966 58.7095L12.6774 59.3573H3.70752V72.9329H13.692L14.3351 76.6455H6.10352e-05V45.7061L14.316 45.7935L13.5084 49.5457L3.70752 49.4584Z" fill="black"/>
<path d="M51.2101 70.9457C51.8509 69.9735 52.3832 68.9339 52.7974 67.8456C52.3674 65.6484 52.151 63.4148 52.1513 61.176C52.1494 59.32 52.2986 57.467 52.5977 55.6353C51.3481 52.6711 49.2527 50.1412 46.5735 48.3621C43.8942 46.583 40.7501 45.6336 37.5343 45.6328C33.1975 45.6332 29.0384 47.3569 25.9718 50.4248C22.9052 53.4926 21.1822 57.6534 21.1818 61.992C21.1824 66.3302 22.9056 70.4905 25.9722 73.5577C29.0389 76.625 33.1979 78.3479 37.5343 78.3475C39.7067 78.3509 41.8577 77.9192 43.8607 77.078C45.8637 76.2368 47.6781 75.0031 49.1971 73.4494C51.1742 74.9712 52.9846 75.7071 53.5044 75.1276C54.0366 74.5283 52.5522 72.4094 51.2101 70.9457ZM48.4204 68.6689C47.292 68.0813 46.6327 68.2892 46.2179 68.7556C45.7818 69.2447 45.7253 69.891 46.5908 70.9861C45.4065 72.1841 43.996 73.1348 42.4413 73.783C40.8866 74.4312 39.2186 74.7639 37.5343 74.7619C35.8574 74.7627 34.1966 74.4331 32.647 73.7918C31.0974 73.1504 29.6893 72.21 28.503 71.0242C27.3168 69.8383 26.3757 68.4303 25.7334 66.8806C25.0912 65.3308 24.7605 63.6697 24.7601 61.992C24.7598 60.314 25.0901 58.6524 25.732 57.1022C26.374 55.5519 27.315 54.1434 28.5014 52.9572C29.6877 51.771 31.0961 50.8303 32.646 50.1889C34.196 49.5475 35.857 49.218 37.5343 49.2191C40.9205 49.2193 44.1679 50.5651 46.5622 52.9604C48.9566 55.3557 50.3018 58.6045 50.302 61.992C50.3039 64.3499 49.6518 66.662 48.4182 68.6711L48.4204 68.6689Z" fill="black"/>
<path d="M83.6803 45.5532V65.5751C83.6803 65.722 83.6802 65.8777 83.6736 66.0283C83.4211 72.9211 77.473 78.4346 70.177 78.4346C62.881 78.4346 56.9299 72.9204 56.6766 66.0283C56.6766 65.8814 56.67 65.7249 56.67 65.5751V45.5532H61.0236V65.5303C61.0539 67.9286 62.0352 70.2166 63.7516 71.8913C65.4679 73.5659 67.7789 74.4901 70.1762 74.4605C72.5735 74.4897 74.8843 73.5655 76.6007 71.8909C78.3171 70.2164 79.2987 67.9285 79.3297 65.5303V45.5532H83.6803Z" fill="black"/>
<path d="M91.9439 45.5518H87.5404V78.0703H91.9439V45.5518Z" fill="black"/>
<path d="M122.752 58.0927V78.1145H118.398V58.1374C118.371 55.8283 117.46 53.6175 115.854 51.9592C114.247 50.3008 112.067 49.3208 109.761 49.2205C109.108 47.8807 108.377 46.5809 107.57 45.3279C108.126 45.261 108.685 45.2276 109.245 45.228C116.544 45.228 122.492 50.7423 122.745 57.6343C122.748 57.79 122.752 57.9428 122.752 58.0927Z" fill="black"/>
<path d="M102.237 47.2977C101.584 47.7008 100.967 48.1585 100.392 48.666V45.4131H95.9876V77.9316H96.0705V78.1145H100.421V58.1375C100.427 56.6812 100.791 55.2487 101.482 53.9668C102.172 52.6848 103.168 51.593 104.381 50.7878" fill="black"/>
<path d="M143.56 45.4131C140.426 45.408 137.357 46.3099 134.724 48.0101C135.053 49.4252 135.33 50.8591 135.555 52.3118C137.783 50.3986 140.622 49.3483 143.558 49.3519C145.175 49.3519 146.776 49.6704 148.271 50.2895C149.765 50.9086 151.122 51.8161 152.266 52.9601C153.41 54.1041 154.317 55.4622 154.936 56.9569C155.555 58.4517 155.873 60.0537 155.873 61.6716C155.874 63.2897 155.555 64.892 154.937 66.3869C154.318 67.8819 153.411 69.2402 152.267 70.3843C151.123 71.5285 149.765 72.436 148.271 73.055C146.777 73.674 145.175 73.9924 143.558 73.992C140.636 73.9965 137.81 72.9573 135.586 71.0616C135.357 72.5702 135.073 74.0586 134.734 75.5271C137.365 77.2209 140.428 78.1193 143.557 78.1145C147.892 78.1141 152.05 76.3911 155.115 73.3245C158.18 70.2579 159.903 66.0988 159.903 61.762C159.902 57.4262 158.18 53.2684 155.115 50.2026C152.05 47.1368 147.894 45.4141 143.56 45.4131ZM132.726 55.8122C132.544 53.9635 132.27 52.125 131.904 50.3038C128.898 53.3587 127.214 57.4745 127.218 61.7612C127.213 66.0347 128.885 70.1392 131.874 73.1922C132.247 71.3377 132.535 69.4465 132.727 67.5318C131.751 65.7329 131.242 63.7182 131.245 61.6716C131.242 59.626 131.751 57.6122 132.727 55.8144L132.726 55.8122Z" fill="black"/>
<path d="M163.714 62.645L166.38 66.3672L156.448 78.2807H150.678L151.697 77.0623C153.757 75.9954 155.584 74.5274 157.069 72.7445C158.555 70.9616 159.669 68.8998 160.347 66.6801L163.714 62.645Z" fill="black"/>
<path d="M181.444 78.2812H176.035L168.131 67.1998L168.144 67.1932L163.152 60.2159L160.205 56.0868C159.108 52.8159 157.062 49.9459 154.328 47.8426L152.517 45.2354H157.877L166.021 56.656L167.049 58.0978L167.259 58.3915L169.926 62.1145V62.1211L181.444 78.2812Z" fill="black"/>
<path d="M170.561 61.3555L167.891 57.6326L178.23 45.2329H184.001L170.561 61.3555Z" fill="black"/>
<path d="M94.7828 84.3581H101.062C102.36 84.3271 103.65 84.5709 104.847 85.0735C105.85 85.4977 106.704 86.2103 107.302 87.1211C107.886 88.0626 108.183 89.1544 108.156 90.2624C108.188 91.747 107.802 93.2107 107.043 94.4869C106.303 95.6982 105.23 96.6714 103.953 97.2904C102.55 97.9651 101.009 98.3017 99.452 98.2737H91.9996L94.7828 84.3581ZM99.6114 94.6162C100.135 94.6458 100.659 94.5587 101.146 94.361C101.632 94.1634 102.068 93.8603 102.423 93.4735C103.112 92.6555 103.47 91.6093 103.427 90.5407C103.448 90.1935 103.392 89.846 103.263 89.5229C103.134 89.1999 102.936 88.9094 102.682 88.6723C102.068 88.1961 101.3 87.9623 100.525 88.0156H98.7362L97.4251 94.6155L99.6114 94.6162Z" fill="white" stroke="black"/>
<path d="M111.196 84.3584H115.886L113.104 98.274H108.418L111.196 84.3584Z" fill="white" stroke="black"/>
<path d="M126.041 90.939H130.115L128.922 96.9431C128.145 97.4903 127.282 97.9033 126.368 98.1651C125.364 98.4564 124.323 98.6004 123.278 98.5926C121.987 98.6191 120.706 98.3502 119.534 97.8067C118.498 97.3335 117.625 96.5659 117.022 95.5994C116.42 94.6329 116.115 93.5104 116.146 92.3718C116.119 90.8568 116.511 89.3638 117.279 88.0577C118.035 86.7979 119.128 85.7752 120.435 85.1059C121.875 84.3762 123.472 84.011 125.086 84.0424C127.973 84.0424 130.08 84.9502 131.405 86.7657L128.047 89.3702C127.677 88.8696 127.194 88.4642 126.636 88.1877C126.079 87.9448 125.475 87.8261 124.868 87.8396C124.127 87.8224 123.395 88.008 122.752 88.3765C122.151 88.7299 121.666 89.2515 121.357 89.8769C121.023 90.5603 120.856 91.3132 120.87 92.0736C120.855 92.4428 120.919 92.8109 121.06 93.1526C121.201 93.4942 121.414 93.8013 121.685 94.0523C122.311 94.5783 123.114 94.845 123.93 94.7977C124.395 94.7994 124.857 94.7324 125.302 94.5987L126.041 90.939Z" fill="white" stroke="black"/>
<path d="M133.432 84.3584H138.122L135.34 98.274H130.65L133.432 84.3584Z" fill="white" stroke="black"/>
<path d="M142.673 87.9969H138.599L139.333 84.3584H152.171L151.437 87.9969H147.363L145.316 98.2748H140.626L142.673 87.9969Z" fill="white" stroke="black"/>
<path d="M160.042 95.8484H154.736L153.345 98.2721H148.397L157.259 84.3564H161.87L165.168 98.2721H160.498L160.042 95.8484ZM159.386 92.4698L158.711 88.9114L156.664 92.4698H159.386Z" fill="white" stroke="black"/>
<path d="M168.705 84.3584H173.392L171.345 94.6364H177.625L176.89 98.274H165.921L168.705 84.3584Z" fill="white" stroke="black"/>
<path d="M179.188 97.807C178.961 97.5869 178.783 97.3221 178.665 97.0293C178.547 96.7365 178.491 96.4221 178.502 96.1066C178.488 95.7348 178.553 95.3643 178.694 95.0198C178.834 94.6753 179.047 94.3647 179.317 94.1089C179.859 93.5991 180.58 93.324 181.324 93.3436C181.647 93.3295 181.971 93.3803 182.274 93.493C182.578 93.6056 182.856 93.7778 183.092 93.9995C183.318 94.2219 183.494 94.4889 183.61 94.7833C183.727 95.0777 183.78 95.3931 183.768 95.7094C183.782 96.0812 183.717 96.4517 183.576 96.7962C183.436 97.1407 183.224 97.4513 182.954 97.7071C182.418 98.2145 181.704 98.4896 180.966 98.4724C180.64 98.4859 180.315 98.4339 180.01 98.3196C179.704 98.2053 179.425 98.0311 179.188 97.807Z" fill="#E35D14"/>
<path d="M93.7403 106.154C93.3278 106.163 92.9185 106.08 92.5422 105.911C92.2158 105.763 91.9391 105.524 91.7456 105.222C91.5534 104.912 91.4553 104.552 91.463 104.187C91.4564 103.738 91.5749 103.297 91.8051 102.912C92.0356 102.533 92.3657 102.224 92.7595 102.02C93.1857 101.798 93.6607 101.686 94.1412 101.694C94.5828 101.682 95.0196 101.788 95.4069 102.001C95.7531 102.197 96.026 102.5 96.1843 102.865L94.8944 103.478C94.8358 103.305 94.7226 103.155 94.5719 103.052C94.4211 102.948 94.2409 102.897 94.0582 102.904C93.9147 102.901 93.772 102.928 93.6405 102.986C93.509 103.044 93.392 103.13 93.2976 103.239C93.0929 103.477 92.9861 103.784 92.9988 104.099C92.9934 104.21 93.01 104.321 93.0478 104.425C93.0856 104.53 93.1438 104.626 93.2191 104.708C93.3019 104.787 93.4002 104.848 93.5077 104.887C93.6152 104.926 93.7297 104.942 93.8438 104.935C94.0307 104.939 94.2151 104.892 94.3776 104.8C94.5459 104.694 94.6833 104.546 94.7755 104.37L95.8819 105.039C95.6748 105.39 95.3723 105.674 95.0097 105.86C94.6171 106.06 94.1812 106.162 93.7403 106.154ZM98.4697 106.154C98.0584 106.164 97.6502 106.081 97.2753 105.911C96.9525 105.762 96.6799 105.523 96.4905 105.222C96.3005 104.911 96.2037 104.551 96.2115 104.187C96.2049 103.738 96.3234 103.297 96.5536 102.912C96.7828 102.534 97.1104 102.226 97.5014 102.02C97.9205 101.798 98.3886 101.686 98.8625 101.693C99.2738 101.684 99.682 101.767 100.057 101.936C100.38 102.084 100.654 102.322 100.845 102.622C101.035 102.931 101.132 103.287 101.124 103.65C101.131 104.099 101.012 104.542 100.782 104.928C100.555 105.307 100.229 105.617 99.8389 105.825C99.4187 106.048 98.9486 106.162 98.4727 106.154H98.4697ZM98.5571 104.936C98.6978 104.94 98.8376 104.912 98.9659 104.854C99.0942 104.796 99.2077 104.71 99.2979 104.602C99.4962 104.357 99.5981 104.048 99.5842 103.734C99.59 103.623 99.574 103.513 99.5371 103.409C99.5002 103.306 99.4431 103.21 99.3691 103.128C99.2903 103.052 99.1965 102.993 99.0938 102.955C98.991 102.918 98.8815 102.901 98.7722 102.908C98.6319 102.904 98.4924 102.931 98.3642 102.989C98.2361 103.046 98.1226 103.132 98.0322 103.239C97.8329 103.486 97.731 103.798 97.7459 104.115C97.7397 104.225 97.7556 104.335 97.7925 104.438C97.8295 104.541 97.8868 104.636 97.961 104.717C98.0401 104.792 98.1338 104.851 98.2364 104.888C98.3389 104.926 98.4481 104.942 98.5571 104.936ZM107.745 101.694C108.148 101.674 108.543 101.811 108.846 102.077C108.989 102.217 109.099 102.387 109.171 102.573C109.242 102.76 109.273 102.96 109.26 103.16C109.26 103.339 109.241 103.518 109.205 103.694L108.735 106.083H107.219L107.665 103.853C107.686 103.753 107.697 103.652 107.697 103.55C107.709 103.394 107.659 103.239 107.557 103.12C107.504 103.069 107.44 103.029 107.371 103.004C107.302 102.979 107.228 102.968 107.155 102.973C106.672 102.973 106.367 103.283 106.239 103.905L105.799 106.079H104.289L104.743 103.849C104.765 103.752 104.775 103.654 104.775 103.555C104.786 103.398 104.736 103.242 104.635 103.121C104.582 103.07 104.519 103.03 104.45 103.005C104.38 102.98 104.306 102.969 104.233 102.974C103.743 102.974 103.436 103.29 103.309 103.922L102.878 106.082H101.367L102.227 101.765H103.66L103.573 102.206C103.743 102.04 103.945 101.909 104.167 101.822C104.388 101.734 104.625 101.692 104.863 101.696C105.131 101.692 105.396 101.753 105.635 101.875C105.86 101.991 106.043 102.173 106.161 102.397C106.355 102.174 106.596 101.996 106.866 101.875C107.143 101.753 107.442 101.691 107.745 101.694ZM113.143 101.694C113.457 101.693 113.766 101.774 114.039 101.929C114.322 102.09 114.554 102.325 114.711 102.61C114.887 102.929 114.975 103.289 114.966 103.653C114.973 104.1 114.865 104.54 114.652 104.932C114.453 105.301 114.159 105.61 113.8 105.828C113.447 106.045 113.04 106.158 112.626 106.155C112.373 106.181 112.119 106.14 111.887 106.037C111.655 105.934 111.454 105.772 111.304 105.567L110.889 107.631H109.377L110.547 101.769H111.981L111.894 102.175C112.231 101.858 112.68 101.685 113.143 101.694H113.143ZM112.409 104.936C112.55 104.94 112.69 104.912 112.818 104.854C112.946 104.796 113.06 104.71 113.15 104.602C113.348 104.357 113.45 104.048 113.436 103.734C113.442 103.623 113.425 103.513 113.387 103.409C113.35 103.305 113.291 103.209 113.216 103.128C113.136 103.053 113.041 102.994 112.938 102.956C112.835 102.918 112.725 102.902 112.615 102.908C112.474 102.904 112.334 102.932 112.206 102.99C112.078 103.048 111.964 103.134 111.874 103.242C111.675 103.489 111.573 103.801 111.588 104.118C111.582 104.228 111.598 104.338 111.636 104.442C111.674 104.545 111.732 104.64 111.808 104.72C111.888 104.795 111.983 104.853 112.087 104.89C112.191 104.927 112.301 104.943 112.411 104.936H112.409ZM120.644 101.765L119.783 106.082H118.35L118.437 105.676C118.099 105.992 117.652 106.163 117.189 106.154C116.875 106.155 116.566 106.074 116.294 105.919C116.011 105.759 115.778 105.523 115.621 105.238C115.445 104.916 115.357 104.554 115.366 104.187C115.36 103.743 115.468 103.306 115.681 102.916C115.88 102.547 116.174 102.238 116.532 102.02C116.886 101.804 117.292 101.69 117.707 101.693C117.959 101.667 118.214 101.708 118.446 101.811C118.678 101.914 118.878 102.076 119.028 102.281L119.132 101.767L120.644 101.765ZM117.713 104.936C117.853 104.94 117.993 104.912 118.121 104.854C118.25 104.796 118.363 104.71 118.453 104.602C118.652 104.357 118.754 104.048 118.74 103.734C118.745 103.623 118.729 103.513 118.691 103.409C118.653 103.305 118.595 103.209 118.519 103.128C118.44 103.053 118.345 102.994 118.242 102.956C118.138 102.918 118.028 102.902 117.918 102.908C117.778 102.904 117.638 102.932 117.509 102.99C117.381 103.048 117.268 103.134 117.177 103.242C116.978 103.489 116.876 103.801 116.891 104.118C116.885 104.228 116.902 104.338 116.939 104.442C116.977 104.545 117.036 104.64 117.111 104.72C117.192 104.795 117.287 104.852 117.39 104.89C117.493 104.927 117.603 104.942 117.713 104.936ZM124.313 101.694C124.725 101.673 125.13 101.808 125.447 102.072C125.593 102.211 125.707 102.38 125.781 102.568C125.854 102.756 125.886 102.958 125.873 103.159C125.872 103.339 125.854 103.518 125.817 103.693L125.343 106.082H123.827L124.273 103.836C124.295 103.742 124.305 103.646 124.305 103.55C124.305 103.168 124.106 102.976 123.708 102.976C123.588 102.972 123.469 102.991 123.357 103.033C123.245 103.074 123.142 103.138 123.055 103.219C122.865 103.421 122.74 103.675 122.697 103.948L122.267 106.082H120.754L121.614 101.765H123.047L122.96 102.211C123.14 102.039 123.354 101.906 123.589 101.821C123.821 101.736 124.067 101.693 124.315 101.694H124.313ZM131.622 101.767L128.859 106.274C128.676 106.584 128.456 106.871 128.206 107.13C128.017 107.321 127.791 107.471 127.541 107.57C127.277 107.663 127 107.707 126.721 107.702C126.49 107.701 126.261 107.666 126.04 107.598C125.845 107.545 125.662 107.452 125.503 107.327L126.18 106.26C126.364 106.422 126.603 106.51 126.848 106.507C126.972 106.511 127.093 106.479 127.199 106.415C127.313 106.335 127.41 106.233 127.485 106.116L126.503 101.765H128.008L128.549 104.417L130.141 101.765L131.622 101.767ZM135.89 102.722L135.531 103.869H136.511L136.312 104.898H135.197L134.823 106.085H133.716L134.09 104.898H133.136L132.758 106.082H131.656L132.031 104.895H131.033L131.24 103.867H132.363L132.721 102.72H131.742L131.949 101.692H133.055L133.429 100.505H134.536L134.161 101.692H135.116L135.49 100.505H136.597L136.222 101.692H137.218L137.019 102.72L135.89 102.722ZM134.783 102.722H133.829L133.471 103.869H134.425L134.783 102.722Z" fill="#E35D14"/>
</g>
<defs>
<clipPath id="clip0_183_1736">
<rect width="184" height="121" fill="white" transform="translate(0 1)"/>
</clipPath>
</defs>
</svg>
