<svg width="1098" height="694" fill="none" xmlns="http://www.w3.org/2000/svg"><path opacity=".3" d="M520.656 606.741c-117.475 0-216.832-77.518-249.727-184.184a93.035 93.035 0 01-10.267 6.844c-13.636 7.864-29.45 12.383-46.333 12.383a93.03 93.03 0 01-27.681-4.185c-37.88-11.779-65.39-47.106-65.39-88.858 0-51.389 41.671-93.06 93.059-93.06 6.437 0 12.721.655 18.788 1.9 12.772 2.618 24.575 7.87 34.848 15.142.461.326.931.644 1.387.978 31.182-109.42 131.889-189.533 251.316-189.533 108.95 0 202.332 66.692 241.54 161.493C718.896 103.791 586.95.599 430.912.599 239.641.599 84.588 155.652 84.588 346.923c0 191.269 155.053 346.324 346.324 346.324 159.978 0 294.633-108.478 334.41-255.899-37.182 98.969-132.704 169.393-244.666 169.393z" fill="#4A4B4B"/><path d="M474.034 205.851c74.895 0 135.601 60.725 135.601 135.62 0 36.236-14.243 69.136-37.391 93.457v5.531h-5.569c-24.244 22.71-56.823 36.633-92.66 36.633-4.318 0-8.598-.209-12.804-.607-19.017-1.78-36.878-7.52-52.789-16.328a123.05 123.05 0 0033.204 4.547c6.099 0 12.103-.437 17.956-1.308a122.501 122.501 0 0049.608-18.884 114.456 114.456 0 006.117-4.3h-16.384v-6.611c-16.328 10.134-35.59 16.006-56.218 16.006a106.092 106.092 0 01-38.887-7.348c-27.235-.026-51.157-13.536-64.793-33.895-7.144-10.667-11.464-23.212-11.96-36.685a116.64 116.64 0 01-.038-2.578V255.208h24.776v.004h.003v31.727c18.789-30.477 52.467-50.802 90.899-50.802 22.654 0 43.622 7.066 60.897 19.075h20.38v18.487c11.176 13.125 19.245 28.998 23.033 46.462v-42.238c-17.787-29.378-47.485-50.726-82.414-57.318a124.002 124.002 0 00-22.956-2.14c-6.516 0-12.918.513-19.17 1.497a121.634 121.634 0 00-14.754 3.239c8.22-4.602 16.933-8.429 26.101-11.289h.019a133.001 133.001 0 0126.196-5.323c2.234-.246 4.489-.434 6.761-.549 2.405-.133 4.812-.189 7.236-.189zm247.373 136.87c0-115.978-94.024-209.983-210.002-209.983-115.978 0-210.003 94.005-210.003 209.983 0 115.978 94.025 210.003 210.003 210.003 80.69 0 150.735-45.516 185.89-112.265h-22.766v-.004h-.003v-55.164c-18.452 71.973-83.76 125.156-161.454 125.156-17.994 0-35.287-2.86-51.521-8.126 4.831.436 9.718.682 14.68.682 88.343 0 159.942-71.599 159.942-159.942 0-88.322-71.599-159.94-159.942-159.94-2.86 0-5.701.095-8.524.246 14.415-4.072 29.644-6.251 45.365-6.251 62.22 0 116.506 34.131 145.127 84.684 11.839 5.939 21.855 14.728 29.035 25.412 7.182 10.684 11.531 23.261 12.032 36.776.019.852.037 1.724.037 2.576v110.012c14.131-28.243 22.104-60.121 22.104-93.855" fill="#E46639"/><path d="M523.982 433.09c6.724-6.061 12.786-12.822 18.032-20.21a124.042 124.042 0 004.982-7.558c0-.02.018-.02.018-.037v-39.701c-3.788 17.464-11.857 33.336-23.032 46.462v21.044z" fill="#E46639"/><path d="M21.835 410.982v-77.224h51.048l-.46-3.686a51.136 51.136 0 01.188-13.994l.272-1.792H21.835v-36.841l55.764.497 4.608-21.346-81.472-.498v176.004h81.58l-3.662-21.12H21.835zm254.773-99.666a76.074 76.074 0 011.8 3.164c5.473 10.208 8.58 21.876 8.58 34.264 0 13.922-3.921 26.935-10.701 37.996h-.019c-4.149-2.158-7.18-2.424-9.452-1.629a7.538 7.538 0 00-1.364.664 6.773 6.773 0 00-1.175.928c-.189.169-.36.34-.53.531-.17.17-.322.36-.474.549a6 6 0 00-.378.587c-1.478 2.386-1.346 5.474 1.837 10.02.171.265.341.512.531.758.189.264.378.511.605.776h-.019c-.226.227-.436.416-.644.624-13.106 12.88-31.064 20.855-50.876 20.855a72.888 72.888 0 01-23.298-3.807c-.568-.209-1.136-.397-1.686-.606-10.02-3.656-18.998-9.47-26.404-16.876-13.145-13.146-21.272-31.31-21.272-51.37 0-20.058 8.127-38.242 21.272-51.388 7.406-7.386 16.384-13.202 26.404-16.857a44.65 44.65 0 011.686-.607 72.915 72.915 0 0123.298-3.806 72.252 72.252 0 0133.375 8.125 74.46 74.46 0 015.815 3.372 71.895 71.895 0 0110.569 8.259l1.307 1.249a73.505 73.505 0 0111.213 14.225zm-62.279-55.63c-25.704 0-48.964 10.417-65.802 27.256-16.839 16.84-27.256 40.098-27.256 65.802 0 25.704 10.417 48.963 27.256 65.784 10.522 10.522 23.553 18.538 38.12 23.07a93.048 93.048 0 0027.682 4.186c16.882 0 32.696-4.52 46.334-12.382a93.247 93.247 0 0010.262-6.843 94.042 94.042 0 009.774-8.637c11.252 8.656 21.556 12.841 24.51 9.546 3.05-3.409-5.398-15.476-13.032-23.79a90.54 90.54 0 009.036-17.635 197.132 197.132 0 01-3.674-37.94c0-10.739.852-21.252 2.538-31.517-6.592-15.59-17.294-28.999-30.742-38.887-.454-.335-.922-.651-1.382-.976-10.273-7.272-22.077-12.524-34.848-15.141a93.418 93.418 0 00-18.776-1.896m189.487 186.569h.076c41.518 0 75.368-31.367 76.806-70.576.02-.852.038-1.724.038-2.576V255.208h-24.755v113.629c0 28.054-23.336 50.802-52.089 50.802-28.772 0-52.09-22.748-52.09-50.802V255.208h-24.774v113.895c0 .852.018 1.724.037 2.576.496 13.473 4.816 26.018 11.96 36.685 13.636 20.359 37.557 33.865 64.791 33.891zm120.166-2.062V255.212h-25.058v185.001h25.058v-.02zM658.199 261.8h-.001c-10.683-5.361-22.861-8.391-35.76-8.391-3.22 0-6.403.19-9.528.568 4.564 7.103 8.751 14.49 12.463 22.124 27.409 1.496 49.153 23.639 49.153 50.724v113.63h24.775V326.56c0-.852-.019-1.724-.038-2.576-.501-13.513-4.848-26.089-12.029-36.771-7.18-10.685-17.196-19.474-29.035-25.413zm-63.433 23.207l-12.198-19.851a77.114 77.114 0 00-10.494 7.786v-18.507h-25.059v184.983h.473v1.041h24.756V326.83c0-17.351 8.923-32.656 22.522-41.823zm161.293 28.578a316.392 316.392 0 00-4.679-31.348c-16.479 16.783-26.669 39.815-26.669 65.196 0 25.306 10.114 48.244 26.498 65.026 2.122-10.55 3.77-21.29 4.85-32.199-5.379-9.908-8.428-21.272-8.428-33.337 0-12.066 3.049-23.412 8.428-33.319v-.019zm154.675 33.848c0-51.349-41.652-93.001-93.021-93.001-18.524 0-35.781 5.418-50.289 14.774a334.73 334.73 0 014.734 24.473c12.238-10.495 28.166-16.84 45.555-16.84 38.716 0 70.083 31.386 70.083 70.084 0 38.716-31.367 70.082-70.083 70.082-17.293 0-33.148-6.269-45.364-16.669a350.038 350.038 0 01-4.849 25.401c14.489 9.319 31.726 14.718 50.213 14.718 51.369 0 93.021-41.652 93.021-93.022z" fill="#000"/><path d="M1067.22 439.89h30.03l-92.3-129.271 40.28-56.414h-30.03l-25.265 35.381-25.263-35.381h-30.037l40.281 56.414-13.011 18.223-53.293-74.637h-30.035l68.31 95.67-64.271 90.015h30.035l49.254-68.981 49.255 68.981h30.03l-64.267-90.015 13.012-18.222 77.285 108.237z" fill="#000"/></svg>