<svg width="34" height="24" fill="none" xmlns="http://www.w3.org/2000/svg"><path d="M32.738 3.41l-8.276 8.43a.15.15 0 000 .215l5.791 6.168a.997.997 0 010 1.415 1.002 1.002 0 01-1.415 0l-5.77-6.142a.158.158 0 00-.222 0l-1.407 1.431a6.191 6.191 0 01-4.416 1.862 6.317 6.317 0 01-4.507-1.915l-1.354-1.377a.158.158 0 00-.224 0L5.17 19.64a1.002 1.002 0 01-1.633-1.09.998.998 0 01.218-.325l5.792-6.168a.164.164 0 000-.215L1.262 3.41A.152.152 0 001 3.518v16.868a2.468 2.468 0 002.461 2.462H30.54A2.469 2.469 0 0033 20.386V3.518a.154.154 0 00-.262-.108z" stroke="#fff"/><path d="M17.001 14.778a4.182 4.182 0 003.008-1.264L32.077 1.229a2.417 2.417 0 00-1.523-.541H3.457a2.401 2.401 0 00-1.523.541l12.068 12.285a4.18 4.18 0 002.999 1.264v0z" stroke="#fff"/></svg>