<svg width="34" height="24" viewBox="0 0 34 24" fill="none" xmlns="http://www.w3.org/2000/svg">
<path d="M32.7381 3.40984L24.4617 11.8398C24.4472 11.8537 24.4357 11.8704 24.4278 11.8888C24.4199 11.9073 24.4159 11.9272 24.4159 11.9473C24.4159 11.9673 24.4199 11.9872 24.4278 12.0057C24.4357 12.0241 24.4472 12.0408 24.4617 12.0547L30.2532 18.223C30.3465 18.3157 30.4205 18.426 30.471 18.5474C30.5215 18.6689 30.5475 18.7991 30.5475 18.9307C30.5475 19.0622 30.5215 19.1924 30.471 19.3139C30.4205 19.4353 30.3465 19.5456 30.2532 19.6383C30.0653 19.8256 29.8109 19.9307 29.5456 19.9307C29.2803 19.9307 29.0258 19.8256 28.8379 19.6383L23.0689 13.4963C23.0393 13.4668 22.9991 13.4502 22.9573 13.4502C22.9155 13.4502 22.8754 13.4668 22.8458 13.4963L21.4385 14.9271C20.8632 15.5151 20.1764 15.9825 19.4184 16.3021C18.6603 16.6218 17.8462 16.7871 17.0235 16.7886C16.1826 16.7855 15.3508 16.6145 14.5768 16.2857C13.8029 15.9569 13.1023 15.4768 12.5163 14.8738L11.1615 13.4972C11.1319 13.4677 11.0917 13.4511 11.0499 13.4511C11.0081 13.4511 10.968 13.4677 10.9384 13.4972L5.16938 19.6392C4.98146 19.8265 4.72699 19.9317 4.4617 19.9317C4.1964 19.9317 3.94193 19.8265 3.75401 19.6392C3.66075 19.5465 3.58674 19.4362 3.53624 19.3148C3.48573 19.1933 3.45973 19.0631 3.45973 18.9316C3.45973 18.8 3.48573 18.6698 3.53624 18.5483C3.58674 18.4269 3.66075 18.3166 3.75401 18.2239L9.54558 12.0557C9.57156 12.0259 9.58588 11.9877 9.58588 11.9482C9.58588 11.9086 9.57156 11.8705 9.54558 11.8407L1.26197 3.41075C1.24091 3.38849 1.21361 3.37312 1.18365 3.36667C1.15369 3.36023 1.12248 3.36301 1.09414 3.37464C1.06579 3.38627 1.04163 3.40622 1.02483 3.43185C1.00803 3.45748 0.999388 3.48759 1.00003 3.51822V20.3862C1.00194 21.0384 1.26187 21.6634 1.72304 22.1245C2.18422 22.5857 2.80916 22.8456 3.46136 22.8476H30.5387C31.1909 22.8456 31.8158 22.5857 32.277 22.1245C32.7382 21.6634 32.9981 21.0384 33 20.3862V3.51822C32.9999 3.48791 32.9909 3.4583 32.974 3.43312C32.9571 3.40794 32.9332 3.38831 32.9052 3.37672C32.8771 3.36513 32.8463 3.36209 32.8166 3.36798C32.7869 3.37388 32.7595 3.38844 32.7381 3.40984Z" stroke="white"/>
<path d="M17.001 14.778C17.5615 14.7796 18.1166 14.6684 18.6333 14.4512C19.15 14.234 19.6178 13.9151 20.0088 13.5135L32.077 1.22945C31.6466 0.879391 31.1089 0.688031 30.5541 0.687502H3.45694C2.90195 0.686772 2.36384 0.878277 1.93408 1.22945L14.0023 13.5135C14.3922 13.914 14.8585 14.2322 15.3736 14.4494C15.8886 14.6666 16.442 14.7784 17.001 14.778V14.778Z" stroke="white"/>
</svg>
