<svg width="73" height="73" fill="none" xmlns="http://www.w3.org/2000/svg"><g clip-path="url(#clip0_412_7863)"><path d="M33.768 23.448c-1.17 2.05-.98 5.885.28 7.186 1.32-2.436.995-4.748-.28-7.186zm0 0c-1.17 2.05-.98 5.885.28 7.186 1.32-2.436.995-4.748-.28-7.186zm0 0c-1.17 2.05-.98 5.885.28 7.186 1.32-2.436.995-4.748-.28-7.186zm14.644-.906c-.909.6-1.388.495-1.222-.73a3.258 3.258 0 00-.409-2.343c-.195-.29-.369-.724-.837-.632-.369.067-.459.443-.557.738-.639 1.894-1.336 3.765-.779 5.843a2.448 2.448 0 001.428 1.588c.156.073.726-.591 1.046-.971a9.164 9.164 0 001.678-3.243c-.116-.085-.23-.169-.347-.25zm0 0c.117.081.231.166.349.248v-.413l-.349.165zm0 0c.117.081.231.166.349.248v-.413l-.349.165zm0 0c-.909.6-1.388.495-1.222-.73a3.258 3.258 0 00-.409-2.343c-.195-.29-.369-.724-.837-.632-.369.067-.459.443-.557.738-.639 1.894-1.336 3.765-.779 5.843a2.448 2.448 0 001.428 1.588c.156.073.726-.591 1.046-.971a9.164 9.164 0 001.678-3.243c-.116-.085-.23-.169-.347-.25zm-14.644.906c-1.17 2.05-.98 5.885.28 7.186 1.32-2.436.995-4.748-.28-7.186zm0 0c-1.17 2.05-.98 5.885.28 7.186 1.32-2.436.995-4.748-.28-7.186zm3.044 28.785c-.703.026-1.408.007-2.113.007h-2.441a1.237 1.237 0 00-1.355 1.287c-.081.899.28 1.564 1.189 1.613 1.625.088 3.253.09 4.878.007a1.365 1.365 0 001.394-1.47 1.43 1.43 0 00-1.55-1.444h-.002zm11.6-29.691c-.908.6-1.387.495-1.22-.73a3.258 3.258 0 00-.41-2.343c-.195-.29-.369-.724-.837-.632-.37.067-.46.443-.557.738-.639 1.894-1.337 3.765-.78 5.843a2.448 2.448 0 001.429 1.588c.156.073.726-.591 1.046-.971a9.164 9.164 0 001.678-3.243c-.116-.085-.23-.169-.347-.25h-.001zm0 0c.118.081.232.166.35.248v-.413l-.35.165zm-11.6 29.691c-.703.026-1.408.007-2.113.007h-2.441a1.237 1.237 0 00-1.355 1.287c-.081.899.28 1.564 1.189 1.613 1.625.088 3.253.09 4.878.007a1.365 1.365 0 001.394-1.47 1.43 1.43 0 00-1.55-1.444h-.002zm-3.044-28.785c-1.17 2.05-.98 5.885.28 7.186 1.32-2.436.995-4.748-.28-7.186zm14.644-.906c.117.081.231.166.349.248v-.413l-.349.165zm0 0c-.909.6-1.388.495-1.222-.73a3.258 3.258 0 00-.409-2.343c-.195-.29-.369-.724-.837-.632-.369.067-.459.443-.557.738-.639 1.894-1.336 3.765-.779 5.843a2.448 2.448 0 001.428 1.588c.156.073.726-.591 1.046-.971a9.164 9.164 0 001.678-3.243c-.116-.085-.23-.169-.347-.25zm-14.644.906c-1.17 2.05-.98 5.885.28 7.186 1.32-2.436.995-4.748-.28-7.186zm3.044 28.785c-.703.026-1.408.007-2.113.007h-2.441a1.237 1.237 0 00-1.355 1.287c-.081.899.28 1.564 1.189 1.613 1.625.088 3.253.09 4.878.007a1.365 1.365 0 001.394-1.47 1.43 1.43 0 00-1.55-1.444h-.002zm11.6-29.691c-.908.6-1.387.495-1.22-.73a3.258 3.258 0 00-.41-2.343c-.195-.29-.369-.724-.837-.632-.37.067-.46.443-.557.738-.639 1.894-1.337 3.765-.78 5.843a2.448 2.448 0 001.429 1.588c.156.073.726-.591 1.046-.971a9.164 9.164 0 001.678-3.243c-.116-.085-.23-.169-.347-.25h-.001zm0 0c.118.081.232.166.35.248v-.413l-.35.165zm-11.6 29.691c-.703.026-1.408.007-2.113.007h-2.441a1.237 1.237 0 00-1.355 1.287c-.081.899.28 1.564 1.189 1.613 1.625.088 3.253.09 4.878.007a1.365 1.365 0 001.394-1.47 1.43 1.43 0 00-1.55-1.444h-.002zm-3.044-28.785c-1.17 2.05-.98 5.885.28 7.186 1.32-2.436.995-4.748-.28-7.186zm14.644-.906c.117.081.231.166.349.248v-.413l-.349.165zm0 0c-.909.6-1.388.495-1.222-.73a3.258 3.258 0 00-.409-2.343c-.195-.29-.369-.724-.837-.632-.369.067-.459.443-.557.738-.639 1.894-1.336 3.765-.779 5.843a2.448 2.448 0 001.428 1.588c.156.073.726-.591 1.046-.971a9.164 9.164 0 001.678-3.243c-.116-.085-.23-.169-.347-.25zm-14.644.906c-1.17 2.05-.98 5.885.28 7.186 1.32-2.436.995-4.748-.28-7.186zm3.044 28.785c-.703.026-1.408.007-2.113.007h-2.441a1.237 1.237 0 00-1.355 1.287c-.081.899.28 1.564 1.189 1.613 1.625.088 3.253.09 4.878.007a1.365 1.365 0 001.394-1.47 1.43 1.43 0 00-1.55-1.444h-.002zm11.6-29.691c-.908.6-1.387.495-1.22-.73a3.258 3.258 0 00-.41-2.343c-.195-.29-.369-.724-.837-.632-.37.067-.46.443-.557.738-.639 1.894-1.337 3.765-.78 5.843a2.448 2.448 0 001.429 1.588c.156.073.726-.591 1.046-.971a9.164 9.164 0 001.678-3.243c-.116-.085-.23-.169-.347-.25h-.001zm0 0c.118.081.232.166.35.248v-.413l-.35.165zm-11.6 29.691c-.703.026-1.408.007-2.113.007h-2.441a1.237 1.237 0 00-1.355 1.287c-.081.899.28 1.564 1.189 1.613 1.625.088 3.253.09 4.878.007a1.365 1.365 0 001.394-1.47 1.43 1.43 0 00-1.55-1.444h-.002zm-3.044-28.785c-1.17 2.05-.98 5.885.28 7.186 1.32-2.436.995-4.748-.28-7.186zm14.997-1.073l-.352.166c.117.081.232.166.348.248v-.414h.004zm-1.574-.564a3.258 3.258 0 00-.409-2.343c-.195-.29-.369-.724-.837-.632-.37.068-.46.443-.557.738-.639 1.894-1.337 3.765-.78 5.843a2.446 2.446 0 001.429 1.587c.156.074.726-.59 1.046-.97a9.16 9.16 0 001.678-3.243c-.118-.085-.232-.17-.349-.251-.908.6-1.387.495-1.222-.73l.001.001zM58.33 7.254a.603.603 0 00-.244.068c.022.111.034.225.035.339a.817.817 0 01-.006.127c0 .034-.007.065-.01.094-.006.05-.015.1-.027.148-.013.06-.029.118-.05.175a.947.947 0 01-.065.173l-.039.088a2.633 2.633 0 01-.221.378c-.398.583-.77 1.222-.03 1.855.034.025-.007.212-.034.221-.511.092-.369.482-.28.738.147.405.54.245.84.222.739-.049 1.643-.77 2.073.433.394 1.102-.068 1.871-.925 2.673-1.793 1.678-.04 3.402.221 5.078a1.701 1.701 0 002.288 1.46c.926-.242.724.323.591.798-.433 1.58-2.43 3.187-3.946 3.2-1.516.014-2.9-1.26-3.337-3.248a17.143 17.143 0 01-.498-4.503c.02-.463.336-1.428-.852-.809-.493.258-.639-.277-.694-.629a2.127 2.127 0 01.295-1.867 3.675 3.675 0 00.9-3.295c-.264-2.17.989-3.52 2.412-4.813-.1-.16-.213-.313-.336-.457A36.234 36.234 0 0036.87.005c-.127-.007-.254-.007-.382-.007A36.504 36.504 0 00.244 32.261c-.03.214-.053.43-.074.647a31.53 31.53 0 00-.114 1.51 35.326 35.326 0 00-.004 4.11 30.39 30.39 0 00.114 1.522c.04.425.088.846.148 1.269a36.177 36.177 0 008.951 19.449c.118.14.245.272.37.409a28.469 28.469 0 00.794.84l.428.431c.144.144.295.295.443.436.163.153.322.307.485.457.162.15.329.303.495.45.166.145.319.283.482.423a.47.47 0 00.088.074c.148.127.295.25.443.375.18.148.359.295.545.443.107.085.215.17.323.25.163.132.33.255.495.379.231.176.47.348.708.517.237.168.479.336.723.502.221.152.453.302.681.45.698.45 1.413.875 2.148 1.277.107.062.215.12.325.179.186.103.37.199.56.295.272.143.548.28.825.41.17.08.34.162.508.24.045.026.092.047.14.066.173.08.349.16.525.234.036.02.073.037.11.053.193.081.386.166.577.244.271.114.546.225.825.332.209.082.42.16.632.239.244.088.489.176.738.26.25.085.495.167.743.248a36.509 36.509 0 0011.067 1.707c.531 0 1.062-.01 1.587-.039 0 .007 0 0 0 0 .189 0 .375-.012.56-.026a36.47 36.47 0 0029.755-18.702h-6.275c-2.548 0-5.1.012-7.648-.01-.42 0-1.11.245-1.094-.541.016-.714.664-.59 1.121-.597 4.122-.01 8.248.121 12.357-.11.626-.036 1.212 1.159 1.743.893a36.512 36.512 0 00-10.28-46.615l.012.013zm-8.948 8.968c.079-.074.365.068.558.111.075.023.149.049.221.078.07.03.138.064.202.103.125.072.239.16.34.264.204.216.355.477.442.762.228.71.095 1.66 1.226 1.754.088.01.26.322.221.4-.6 1.108.456 1.66.802 2.437.443.984.886 1.975 1.407 2.917.652 1.173.074 2.113-1.226 2.51-1.9.576-3.086-.11-4.038-1.89-.622 1.225-1.495 2.076-1.795 3.366-.316 1.36-2.688 2.985-3.936 2.946-1.022-.03-2.682-1.776-3.067-3.226C39.715 24.868 42.074 19 45.5 16.966a4.036 4.036 0 011.63-.68c.941-.069 2.066-.118 1.765 1.442a3.008 3.008 0 00.574 1.92c.27-.975.31-1.999.114-2.991-.083-.148-.438-.21-.203-.435zm-.492 39.234c-.042-.487-.05-.976-.023-1.463.016-1.164-.505-1.78-1.714-1.76-1.084.051-2.17.047-3.252-.013-1.519-.124-2.017.557-2.014 1.998 0 .687.54 1.981-.665 1.949-.954-.03-.472-1.252-.485-1.926-.05-2.383.804-3.194 3.19-3.205h2.604c2.923 0 4.165 1.584 3.591 4.5-.108.554-.397.773-.864.756-.573-.022-.329-.54-.369-.836zM10.764 21.948c2.76-5.59 7.225-9.385 12.786-11.966.183-.085.362-.17.546-.245a12.152 12.152 0 01.99-.417c.074-.03.144-.058.222-.085.153-.062.306-.12.46-.175.123-.046.248-.092.375-.134.127-.042.25-.092.375-.134h.006c.104-.039.21-.073.316-.107a19.51 19.51 0 011.1-.336 31.99 31.99 0 012.058-.522 33.097 33.097 0 011.525-.287c.115-.019.232-.039.346-.055.385-.062.772-.115 1.159-.16l.528-.059c.18-.019.361-.035.545-.052.184-.017.355-.03.531-.04.176-.009.346-.022.522-.033a.773.773 0 01.088-.007c.14-.01.28-.013.424-.019a.056.056 0 01.034 0c.175-.007.352-.013.527-.016.176-.003.36-.01.538-.01a33.754 33.754 0 013.053.199c.156.016.313.036.472.055.017 0 .036 0 .053.007a.012.012 0 01.01 0c.058.006.117.016.179.023a23.695 23.695 0 011.01.156.353.353 0 01.08.013.435.435 0 01.066.01 6.6 6.6 0 01.332.058h.007c.166.03.332.065.502.102a34.321 34.321 0 011.541.366c.16.043.339.095.509.148.035.007.07.017.104.03.147.042.3.088.443.136.088.027.175.056.264.085a22.084 22.084 0 011.479.537c.23.095.459.187.687.287.228.1.456.202.684.31.43.202 1.255.29.938 1.006-.307.691-.876.056-1.238-.107a26.146 26.146 0 00-8.459-2.272 30.183 30.183 0 00-8.475.517 30.683 30.683 0 00-7.302 2.214c-5.315 2.448-9.535 6.124-12.145 11.472-.196.4-.339 1.154-.949.798-.534-.31-.051-.89.148-1.298l.006.008zm24.287 9.725c.351.264.651.007.86-.4.34-.665 1.101-.969 1.44-1.706a1.168 1.168 0 011.489-.629c.505.28.414 1.05.182 1.483-1.101 2.083-2.417 4.009-4.724 4.927-2.125.848-3.888.074-4.68-2.092a23.984 23.984 0 01-.697-2.985c.136-3.116 1.01-5.87 3.33-8.03 1.085-1.007 2.32-1.655 3.832-1.043 1.199.486 2.092 2.376 1.886 4.032a8.905 8.905 0 01-2.649 5.58c-.221.206-.796.47-.275.86l.006.003zm-2.868 19.37c.813-.033 1.624-.006 2.437-.006.76 0 1.518-.016 2.274 0a2.464 2.464 0 012.597 2.658 2.377 2.377 0 01-2.463 2.607 90.033 90.033 0 01-4.873 0 2.635 2.635 0 01.03-5.263l-.002.005zm-22.12-23.456c1.796 2.32 2.871 5.094 4.677 7.417.486.623.182 1.46.104 2.2a44.142 44.142 0 00-.341 4.513c1.127-3.089.896-6.478 1.977-9.63-.36.525-.72 1.05-1.07 1.554-.609-.17-.458-.645-.408-.951.459-2.773.32-5.611.922-8.369a4.833 4.833 0 013.698-3.438c.909-.13.974.57 1.128 1.079a38.582 38.582 0 002.99 7.319c1.118 2.072 2.441 3.996 4.7 4.996.84.375.75.97.476 1.613-.56 1.313-1.388 2.34-2.965 2.408a5.142 5.142 0 01-4.387-1.993c-1.384-1.652-2.177-3.637-3.08-5.566-.143.013-.29.03-.436.042-.154 1.235-.323 2.467-.46 3.706-.228 2.099-.38 4.208-.664 6.296-.235 1.704-1.078 2.14-2.606 1.343-1.772-.921-2.907-2.523-4.005-4.116-.672-.978-1.193-2.06-1.809-3.08-.228-.378-.286-1.082-.942-.886-.502.153-.359.738-.369 1.147a41.362 41.362 0 01-.75 7.906c-.215.968-.212 2.402-1.867 2.33-2.177-4.015-.329-8.088-.163-12.14.053-1.294.189-2.583.264-3.877.013-.261.013-.66-.14-.77-1.862-1.349-.074-1.718.651-2.128 1.93-1.099 3.527-.678 4.879 1.069l-.004.006zm-5.621 18.9a1.577 1.577 0 01-1.739.83c-.775-.25-.228-.892-.166-1.363.056-.414.176-.818.28-1.287.112.026.22.068.32.124.098.057.192.122.28.192l.176.14c.083.072.171.137.263.196a.847.847 0 00.701.137c-.027.353.06.783-.116 1.033v-.002zm57.833 4.468a1.968 1.968 0 01-2.105 1.313c-1.838-.095-3.686-.016-5.536-.03-1.06-.01-2.194-.101-2.215 1.42-.02 1.625 1.19 1.526 2.301 1.526 1.682 0 3.363-.01 5.044.007.359 0 .802-.148 1.034.258.283.502-.157.788-.415 1.114a31.406 31.406 0 01-14.777 10.12 26.217 26.217 0 01-7.175 1.414 29.532 29.532 0 01-7.166-.546 30.58 30.58 0 01-12.376-5.217 28.053 28.053 0 01-7.647-8.32c-.568-.981-1.255-1.577-2.418-1.415-.714.103-1.203-.188-1.3-.854-.103-.694.489-.72.993-.726.942-.007.724-.57.517-1.108-.345-.906-.703-1.808-1.06-2.714-.123-.313-.234-.643.18-.818.414-.176.558.14.678.453.05.096.09.196.12.3.508 3.53 2.666 4.24 5.931 3.98 3.882-.314 7.807-.066 11.715-.082.86 0 1.762.01 1.893 1.056.134 1.066-.788 1.268-1.597 1.466l-5.758 1.408c.01.074.02.147.034.221 2.007 0 4.012-.016 6.019.01.477.01 1.28-.27 1.247.567-.034.762-.812.545-1.31.55-2.17.02-4.34.01-6.51.007-.769 0-1.615.049-1.738-1.007-.13-1.14.72-1.248 1.558-1.434a50.74 50.74 0 005.718-1.574H11.276c5.27 8.568 12.731 13.59 22.572 14.535 10.07.968 18.515-2.6 25.57-10.52-2.14 0-3.848.02-5.55 0a2.504 2.504 0 01-2.657-2.62 2.567 2.567 0 012.662-2.65c2.06-.025 4.122-.042 6.184.014a1.454 1.454 0 001.59-.984 29.526 29.526 0 001.63-21.645 6.952 6.952 0 00-.235-.78c-.154-.364-.332-.774.147-.967.541-.215.591.326.717.645a23.21 23.21 0 011.45 6.133 30.69 30.69 0 01-3.09 17.497l.009-.003zM48.758 22.792v-.414l-.352.166c.118.08.231.166.349.248h.003zm-1.57-.978a3.258 3.258 0 00-.41-2.343c-.195-.29-.369-.724-.837-.632-.369.068-.459.443-.557.738-.639 1.894-1.336 3.765-.779 5.844a2.447 2.447 0 001.428 1.587c.156.074.726-.59 1.046-.971a9.16 9.16 0 001.678-3.242c-.117-.085-.231-.171-.349-.252-.907.6-1.386.495-1.22-.73v.001zm-15.1 33.328c1.624.089 3.252.09 4.877.007a1.366 1.366 0 001.395-1.47 1.426 1.426 0 00-1.55-1.444c-.704.026-1.408.007-2.114.007h-2.44A1.238 1.238 0 0030.9 53.53c-.08.9.28 1.564 1.19 1.612l-.004.001zm1.958-24.51c1.32-2.437.994-4.75-.28-7.186-1.17 2.051-.982 5.887.28 7.188v-.003zM48.41 22.54c-.909.6-1.388.495-1.222-.73a3.258 3.258 0 00-.409-2.344c-.195-.29-.369-.723-.837-.632-.369.068-.46.443-.557.739-.639 1.893-1.337 3.765-.78 5.843a2.447 2.447 0 001.429 1.587c.156.074.726-.59 1.046-.97a9.167 9.167 0 001.678-3.243c-.116-.083-.23-.168-.347-.249l-.001-.001zm0 0c.117.081.23.166.348.248v-.414l-.348.166zm-14.644.906c-1.17 2.05-.98 5.885.28 7.185 1.32-2.436.994-4.746-.28-7.184v-.001zM36.81 52.23c-.704.026-1.408.007-2.114.007h-2.44a1.236 1.236 0 00-1.355 1.287c-.082.899.28 1.564 1.189 1.613 1.624.088 3.253.09 4.878.006a1.366 1.366 0 001.394-1.47 1.427 1.427 0 00-1.55-1.441l-.002-.002zm11.6-29.691c.118.081.232.166.35.248v-.414l-.35.166zm0 0c-.908.6-1.387.495-1.221-.73a3.258 3.258 0 00-.41-2.344c-.195-.29-.368-.723-.836-.632-.37.068-.46.443-.558.739-.638 1.893-1.336 3.765-.778 5.842a2.447 2.447 0 001.427 1.588c.157.073.727-.59 1.046-.971a9.168 9.168 0 001.678-3.243c-.116-.083-.23-.167-.347-.25zM36.81 52.23c-.704.026-1.408.007-2.114.007h-2.44a1.236 1.236 0 00-1.355 1.287c-.082.899.28 1.564 1.189 1.613 1.624.088 3.253.09 4.878.006a1.366 1.366 0 001.394-1.47 1.427 1.427 0 00-1.55-1.441l-.002-.002zm-3.044-28.785c-1.17 2.05-.98 5.885.28 7.185 1.32-2.436.994-4.746-.28-7.184v-.001zm14.644-.906c-.909.6-1.388.495-1.222-.73a3.258 3.258 0 00-.409-2.344c-.195-.29-.369-.723-.837-.632-.369.068-.46.443-.557.739-.639 1.893-1.337 3.765-.78 5.842a2.446 2.446 0 001.429 1.588c.156.073.726-.59 1.046-.971a9.167 9.167 0 001.678-3.243c-.116-.083-.23-.167-.347-.25h-.001zm0 0c.117.081.23.166.348.248v-.414l-.348.166zm-14.644.906c-1.17 2.05-.98 5.885.28 7.185 1.32-2.436.994-4.746-.28-7.184v-.001zM36.81 52.23c-.704.026-1.408.007-2.114.007h-2.44a1.236 1.236 0 00-1.355 1.287c-.082.899.28 1.564 1.189 1.613 1.624.088 3.253.09 4.878.006a1.366 1.366 0 001.394-1.47 1.427 1.427 0 00-1.55-1.441l-.002-.002zm11.6-29.691c.118.081.232.166.35.248v-.414l-.35.166zm0 0c-.908.6-1.387.495-1.221-.73a3.258 3.258 0 00-.41-2.344c-.195-.29-.368-.723-.836-.632-.37.068-.46.443-.558.739-.638 1.893-1.336 3.765-.778 5.842a2.447 2.447 0 001.427 1.588c.157.073.727-.59 1.046-.971a9.168 9.168 0 001.678-3.243c-.116-.083-.23-.167-.347-.25zM36.81 52.23c-.704.026-1.408.007-2.114.007h-2.44a1.236 1.236 0 00-1.355 1.287c-.082.899.28 1.564 1.189 1.613 1.624.088 3.253.09 4.878.006a1.366 1.366 0 001.394-1.47 1.427 1.427 0 00-1.55-1.441l-.002-.002zm-3.044-28.785c-1.17 2.05-.98 5.885.28 7.185 1.32-2.436.994-4.746-.28-7.184v-.001zm14.644-.906c-.909.6-1.388.495-1.222-.73a3.258 3.258 0 00-.409-2.344c-.195-.29-.369-.723-.837-.632-.369.068-.46.443-.557.739-.639 1.893-1.337 3.765-.78 5.842a2.446 2.446 0 001.429 1.588c.156.073.726-.59 1.046-.971a9.167 9.167 0 001.678-3.243c-.116-.083-.23-.167-.347-.25h-.001zm0 0c.117.081.23.166.348.248v-.414l-.348.166zm-14.644.906c-1.17 2.05-.98 5.885.28 7.185 1.32-2.436.994-4.746-.28-7.184v-.001zm14.644-.906c.117.081.23.166.348.248v-.414l-.348.166zm0 0c-.909.6-1.388.495-1.222-.73a3.258 3.258 0 00-.409-2.344c-.195-.29-.369-.723-.837-.632-.369.068-.46.443-.557.739-.639 1.893-1.337 3.765-.78 5.842a2.446 2.446 0 001.429 1.588c.156.073.726-.59 1.046-.971a9.167 9.167 0 001.678-3.243c-.116-.083-.23-.167-.347-.25h-.001zm-14.644.906c-1.17 2.05-.98 5.885.28 7.185 1.32-2.436.994-4.746-.28-7.184v-.001zm0 0c-1.17 2.05-.98 5.885.28 7.185 1.32-2.436.994-4.746-.28-7.184v-.001zm14.644-.906c-.909.6-1.388.495-1.222-.73a3.258 3.258 0 00-.409-2.344c-.195-.29-.369-.723-.837-.632-.369.068-.46.443-.557.739-.639 1.893-1.337 3.765-.78 5.842a2.446 2.446 0 001.429 1.588c.156.073.726-.59 1.046-.971a9.167 9.167 0 001.678-3.243c-.116-.083-.23-.167-.347-.25h-.001zm0 0c.117.081.23.166.348.248v-.414l-.348.166zm0 0c.117.081.23.166.348.248v-.414l-.348.166zm0 0c-.909.6-1.388.495-1.222-.73a3.258 3.258 0 00-.409-2.344c-.195-.29-.369-.723-.837-.632-.369.068-.46.443-.557.739-.639 1.893-1.337 3.765-.78 5.842a2.446 2.446 0 001.429 1.588c.156.073.726-.59 1.046-.971a9.167 9.167 0 001.678-3.243c-.116-.083-.23-.167-.347-.25h-.001zm-14.644.906c-1.17 2.05-.98 5.885.28 7.185 1.32-2.436.994-4.746-.28-7.184v-.001z" fill="#fff"/></g><defs><clipPath id="clip0_412_7863"><path fill="#fff" d="M0 0h73v73H0z"/></clipPath></defs></svg>