<svg width="73" height="73" viewBox="0 0 73 73" fill="none" xmlns="http://www.w3.org/2000/svg">
<g clip-path="url(#clip0_412_7863)">
<path d="M33.7684 23.4479C32.5984 25.4981 32.7874 29.3334 34.0489 30.6335C35.3681 28.198 35.0426 25.8857 33.7684 23.4479ZM33.7684 23.4479C32.5984 25.4981 32.7874 29.3334 34.0489 30.6335C35.3681 28.198 35.0426 25.8857 33.7684 23.4479ZM33.7684 23.4479C32.5984 25.4981 32.7874 29.3334 34.0489 30.6335C35.3681 28.198 35.0426 25.8857 33.7684 23.4479ZM48.4121 22.542C47.5033 23.1415 47.0243 23.0374 47.1904 21.8119C47.3543 21.0072 47.2081 20.1702 46.7814 19.4686C46.5858 19.1784 46.4123 18.7451 45.9443 18.8366C45.5752 18.9045 45.4852 19.2796 45.387 19.5749C44.7484 21.4686 44.0508 23.3401 44.6081 25.4184C44.7107 25.7736 44.8924 26.101 45.1397 26.376C45.387 26.6509 45.6934 26.8662 46.0358 27.0056C46.1923 27.0795 46.7622 26.415 47.0818 26.0348C47.8529 25.0775 48.4236 23.9748 48.7598 22.7923C48.6439 22.7074 48.5302 22.6232 48.4129 22.5413L48.4121 22.542ZM48.4121 22.542C48.5294 22.6232 48.6431 22.7081 48.7605 22.7901C48.7605 22.6535 48.7605 22.5176 48.7605 22.3766L48.4121 22.542ZM48.4121 22.542C48.5294 22.6232 48.6431 22.7081 48.7605 22.7901C48.7605 22.6535 48.7605 22.5176 48.7605 22.3766L48.4121 22.542ZM48.4121 22.542C47.5033 23.1415 47.0243 23.0374 47.1904 21.8119C47.3543 21.0072 47.2081 20.1702 46.7814 19.4686C46.5858 19.1784 46.4123 18.7451 45.9443 18.8366C45.5752 18.9045 45.4852 19.2796 45.387 19.5749C44.7484 21.4686 44.0508 23.3401 44.6081 25.4184C44.7107 25.7736 44.8924 26.101 45.1397 26.376C45.387 26.6509 45.6934 26.8662 46.0358 27.0056C46.1923 27.0795 46.7622 26.415 47.0818 26.0348C47.8529 25.0775 48.4236 23.9748 48.7598 22.7923C48.6439 22.7074 48.5302 22.6232 48.4129 22.5413L48.4121 22.542ZM33.7684 23.4479C32.5984 25.4981 32.7874 29.3334 34.0489 30.6335C35.3681 28.198 35.0426 25.8857 33.7684 23.4479ZM33.7684 23.4479C32.5984 25.4981 32.7874 29.3334 34.0489 30.6335C35.3681 28.198 35.0426 25.8857 33.7684 23.4479ZM36.812 52.2333C36.1085 52.2591 35.4043 52.2399 34.6986 52.2399C33.8865 52.2399 33.0686 52.2399 32.258 52.2399C32.0817 52.2228 31.9037 52.2438 31.7361 52.3015C31.5686 52.3591 31.4153 52.4521 31.2868 52.5741C31.1583 52.6961 31.0575 52.8443 30.9912 53.0087C30.925 53.173 30.8948 53.3497 30.9027 53.5268C30.8215 54.426 31.1832 55.0912 32.092 55.1399C33.7167 55.2284 35.345 55.2306 36.9699 55.1465C37.1608 55.151 37.3504 55.1154 37.5266 55.0421C37.7029 54.9688 37.8619 54.8594 37.9933 54.7209C38.1246 54.5824 38.2255 54.418 38.2895 54.2381C38.3534 54.0582 38.3789 53.867 38.3644 53.6766C38.3674 53.477 38.3285 53.279 38.2503 53.0953C38.172 52.9117 38.0561 52.7465 37.91 52.6105C37.7639 52.4745 37.5909 52.3706 37.4021 52.3057C37.2134 52.2407 37.0131 52.216 36.8142 52.2333H36.812ZM48.4129 22.542C47.5041 23.1415 47.025 23.0374 47.1911 21.8119C47.355 21.0072 47.2089 20.1702 46.7821 19.4686C46.5865 19.1784 46.4131 18.7451 45.945 18.8366C45.5759 18.9045 45.4859 19.2796 45.3877 19.5749C44.7492 21.4686 44.0515 23.3401 44.6089 25.4184C44.7114 25.7736 44.8932 26.101 45.1404 26.376C45.3877 26.6509 45.6942 26.8662 46.0366 27.0056C46.1931 27.0795 46.763 26.415 47.0826 26.0348C47.8537 25.0775 48.4243 23.9748 48.7605 22.7923C48.6446 22.7074 48.531 22.6232 48.4136 22.5413L48.4129 22.542ZM48.4129 22.542C48.5302 22.6232 48.6439 22.7081 48.7612 22.7901C48.7612 22.6535 48.7612 22.5176 48.7612 22.3766L48.4129 22.542ZM36.812 52.2333C36.1085 52.2591 35.4043 52.2399 34.6986 52.2399C33.8865 52.2399 33.0686 52.2399 32.258 52.2399C32.0817 52.2228 31.9037 52.2438 31.7361 52.3015C31.5686 52.3591 31.4153 52.4521 31.2868 52.5741C31.1583 52.6961 31.0575 52.8443 30.9912 53.0087C30.925 53.173 30.8948 53.3497 30.9027 53.5268C30.8215 54.426 31.1832 55.0912 32.092 55.1399C33.7167 55.2284 35.345 55.2306 36.9699 55.1465C37.1608 55.151 37.3504 55.1154 37.5266 55.0421C37.7029 54.9688 37.8619 54.8594 37.9933 54.7209C38.1246 54.5824 38.2255 54.418 38.2895 54.2381C38.3534 54.0582 38.3789 53.867 38.3644 53.6766C38.3674 53.477 38.3285 53.279 38.2503 53.0953C38.172 52.9117 38.0561 52.7465 37.91 52.6105C37.7639 52.4745 37.5909 52.3706 37.4021 52.3057C37.2134 52.2407 37.0131 52.216 36.8142 52.2333H36.812ZM33.7684 23.4479C32.5984 25.4981 32.7874 29.3334 34.0489 30.6335C35.3681 28.198 35.0426 25.8857 33.7684 23.4479ZM48.4121 22.542C48.5294 22.6232 48.6431 22.7081 48.7605 22.7901C48.7605 22.6535 48.7605 22.5176 48.7605 22.3766L48.4121 22.542ZM48.4121 22.542C47.5033 23.1415 47.0243 23.0374 47.1904 21.8119C47.3543 21.0072 47.2081 20.1702 46.7814 19.4686C46.5858 19.1784 46.4123 18.7451 45.9443 18.8366C45.5752 18.9045 45.4852 19.2796 45.387 19.5749C44.7484 21.4686 44.0508 23.3401 44.6081 25.4184C44.7107 25.7736 44.8924 26.101 45.1397 26.376C45.387 26.6509 45.6934 26.8662 46.0358 27.0056C46.1923 27.0795 46.7622 26.415 47.0818 26.0348C47.8529 25.0775 48.4236 23.9748 48.7598 22.7923C48.6439 22.7074 48.5302 22.6232 48.4129 22.5413L48.4121 22.542ZM33.7684 23.4479C32.5984 25.4981 32.7874 29.3334 34.0489 30.6335C35.3681 28.198 35.0426 25.8857 33.7684 23.4479ZM36.812 52.2333C36.1085 52.2591 35.4043 52.2399 34.6986 52.2399C33.8865 52.2399 33.0686 52.2399 32.258 52.2399C32.0817 52.2228 31.9037 52.2438 31.7361 52.3015C31.5686 52.3591 31.4153 52.4521 31.2868 52.5741C31.1583 52.6961 31.0575 52.8443 30.9912 53.0087C30.925 53.173 30.8948 53.3497 30.9027 53.5268C30.8215 54.426 31.1832 55.0912 32.092 55.1399C33.7167 55.2284 35.345 55.2306 36.9699 55.1465C37.1608 55.151 37.3504 55.1154 37.5266 55.0421C37.7029 54.9688 37.8619 54.8594 37.9933 54.7209C38.1246 54.5824 38.2255 54.418 38.2895 54.2381C38.3534 54.0582 38.3789 53.867 38.3644 53.6766C38.3674 53.477 38.3285 53.279 38.2503 53.0953C38.172 52.9117 38.0561 52.7465 37.91 52.6105C37.7639 52.4745 37.5909 52.3706 37.4021 52.3057C37.2134 52.2407 37.0131 52.216 36.8142 52.2333H36.812ZM48.4129 22.542C47.5041 23.1415 47.025 23.0374 47.1911 21.8119C47.355 21.0072 47.2089 20.1702 46.7821 19.4686C46.5865 19.1784 46.4131 18.7451 45.945 18.8366C45.5759 18.9045 45.4859 19.2796 45.3877 19.5749C44.7492 21.4686 44.0515 23.3401 44.6089 25.4184C44.7114 25.7736 44.8932 26.101 45.1404 26.376C45.3877 26.6509 45.6942 26.8662 46.0366 27.0056C46.1931 27.0795 46.763 26.415 47.0826 26.0348C47.8537 25.0775 48.4243 23.9748 48.7605 22.7923C48.6446 22.7074 48.531 22.6232 48.4136 22.5413L48.4129 22.542ZM48.4129 22.542C48.5302 22.6232 48.6439 22.7081 48.7612 22.7901C48.7612 22.6535 48.7612 22.5176 48.7612 22.3766L48.4129 22.542ZM36.812 52.2333C36.1085 52.2591 35.4043 52.2399 34.6986 52.2399C33.8865 52.2399 33.0686 52.2399 32.258 52.2399C32.0817 52.2228 31.9037 52.2438 31.7361 52.3015C31.5686 52.3591 31.4153 52.4521 31.2868 52.5741C31.1583 52.6961 31.0575 52.8443 30.9912 53.0087C30.925 53.173 30.8948 53.3497 30.9027 53.5268C30.8215 54.426 31.1832 55.0912 32.092 55.1399C33.7167 55.2284 35.345 55.2306 36.9699 55.1465C37.1608 55.151 37.3504 55.1154 37.5266 55.0421C37.7029 54.9688 37.8619 54.8594 37.9933 54.7209C38.1246 54.5824 38.2255 54.418 38.2895 54.2381C38.3534 54.0582 38.3789 53.867 38.3644 53.6766C38.3674 53.477 38.3285 53.279 38.2503 53.0953C38.172 52.9117 38.0561 52.7465 37.91 52.6105C37.7639 52.4745 37.5909 52.3706 37.4021 52.3057C37.2134 52.2407 37.0131 52.216 36.8142 52.2333H36.812ZM33.7684 23.4479C32.5984 25.4981 32.7874 29.3334 34.0489 30.6335C35.3681 28.198 35.0426 25.8857 33.7684 23.4479ZM48.4121 22.542C48.5294 22.6232 48.6431 22.7081 48.7605 22.7901C48.7605 22.6535 48.7605 22.5176 48.7605 22.3766L48.4121 22.542ZM48.4121 22.542C47.5033 23.1415 47.0243 23.0374 47.1904 21.8119C47.3543 21.0072 47.2081 20.1702 46.7814 19.4686C46.5858 19.1784 46.4123 18.7451 45.9443 18.8366C45.5752 18.9045 45.4852 19.2796 45.387 19.5749C44.7484 21.4686 44.0508 23.3401 44.6081 25.4184C44.7107 25.7736 44.8924 26.101 45.1397 26.376C45.387 26.6509 45.6934 26.8662 46.0358 27.0056C46.1923 27.0795 46.7622 26.415 47.0818 26.0348C47.8529 25.0775 48.4236 23.9748 48.7598 22.7923C48.6439 22.7074 48.5302 22.6232 48.4129 22.5413L48.4121 22.542ZM33.7684 23.4479C32.5984 25.4981 32.7874 29.3334 34.0489 30.6335C35.3681 28.198 35.0426 25.8857 33.7684 23.4479ZM36.812 52.2333C36.1085 52.2591 35.4043 52.2399 34.6986 52.2399C33.8865 52.2399 33.0686 52.2399 32.258 52.2399C32.0817 52.2228 31.9037 52.2438 31.7361 52.3015C31.5686 52.3591 31.4153 52.4521 31.2868 52.5741C31.1583 52.6961 31.0575 52.8443 30.9912 53.0087C30.925 53.173 30.8948 53.3497 30.9027 53.5268C30.8215 54.426 31.1832 55.0912 32.092 55.1399C33.7167 55.2284 35.345 55.2306 36.9699 55.1465C37.1608 55.151 37.3504 55.1154 37.5266 55.0421C37.7029 54.9688 37.8619 54.8594 37.9933 54.7209C38.1246 54.5824 38.2255 54.418 38.2895 54.2381C38.3534 54.0582 38.3789 53.867 38.3644 53.6766C38.3674 53.477 38.3285 53.279 38.2503 53.0953C38.172 52.9117 38.0561 52.7465 37.91 52.6105C37.7639 52.4745 37.5909 52.3706 37.4021 52.3057C37.2134 52.2407 37.0131 52.216 36.8142 52.2333H36.812ZM48.4129 22.542C47.5041 23.1415 47.025 23.0374 47.1911 21.8119C47.355 21.0072 47.2089 20.1702 46.7821 19.4686C46.5865 19.1784 46.4131 18.7451 45.945 18.8366C45.5759 18.9045 45.4859 19.2796 45.3877 19.5749C44.7492 21.4686 44.0515 23.3401 44.6089 25.4184C44.7114 25.7736 44.8932 26.101 45.1404 26.376C45.3877 26.6509 45.6942 26.8662 46.0366 27.0056C46.1931 27.0795 46.763 26.415 47.0826 26.0348C47.8537 25.0775 48.4243 23.9748 48.7605 22.7923C48.6446 22.7074 48.531 22.6232 48.4136 22.5413L48.4129 22.542ZM48.4129 22.542C48.5302 22.6232 48.6439 22.7081 48.7612 22.7901C48.7612 22.6535 48.7612 22.5176 48.7612 22.3766L48.4129 22.542ZM36.812 52.2333C36.1085 52.2591 35.4043 52.2399 34.6986 52.2399C33.8865 52.2399 33.0686 52.2399 32.258 52.2399C32.0817 52.2228 31.9037 52.2438 31.7361 52.3015C31.5686 52.3591 31.4153 52.4521 31.2868 52.5741C31.1583 52.6961 31.0575 52.8443 30.9912 53.0087C30.925 53.173 30.8948 53.3497 30.9027 53.5268C30.8215 54.426 31.1832 55.0912 32.092 55.1399C33.7167 55.2284 35.345 55.2306 36.9699 55.1465C37.1608 55.151 37.3504 55.1154 37.5266 55.0421C37.7029 54.9688 37.8619 54.8594 37.9933 54.7209C38.1246 54.5824 38.2255 54.418 38.2895 54.2381C38.3534 54.0582 38.3789 53.867 38.3644 53.6766C38.3674 53.477 38.3285 53.279 38.2503 53.0953C38.172 52.9117 38.0561 52.7465 37.91 52.6105C37.7639 52.4745 37.5909 52.3706 37.4021 52.3057C37.2134 52.2407 37.0131 52.216 36.8142 52.2333H36.812ZM33.7684 23.4479C32.5984 25.4981 32.7874 29.3334 34.0489 30.6335C35.3681 28.198 35.0426 25.8857 33.7684 23.4479ZM48.7649 22.3752L48.4129 22.5413C48.5302 22.6225 48.6446 22.7074 48.7612 22.7893C48.7612 22.652 48.7612 22.5155 48.7612 22.3752H48.7649ZM47.1911 21.8111C47.355 21.0064 47.2089 20.1695 46.7821 19.4678C46.5865 19.1777 46.4131 18.7443 45.945 18.8359C45.5759 18.9038 45.4859 19.2789 45.3877 19.5742C44.7492 21.4678 44.0515 23.3394 44.6089 25.4169C44.7114 25.7722 44.8932 26.0996 45.1404 26.3745C45.3877 26.6494 45.6942 26.8647 46.0366 27.0042C46.1931 27.078 46.763 26.4135 47.0826 26.0333C47.8538 25.076 48.4244 23.9733 48.7605 22.7908C48.6431 22.7059 48.5294 22.6203 48.4121 22.5398C47.5041 23.14 47.025 23.0352 47.1896 21.8104L47.1911 21.8111ZM58.3291 7.25383C58.2438 7.25889 58.1604 7.28203 58.0847 7.32173C58.1074 7.43329 58.1192 7.54676 58.1201 7.66059C58.1212 7.70303 58.1191 7.74548 58.1136 7.78757C58.1136 7.82153 58.1069 7.85253 58.1032 7.88206C58.0976 7.93181 58.0887 7.98114 58.0766 8.02973C58.0643 8.08931 58.048 8.14804 58.0279 8.20547C58.0109 8.2648 57.9889 8.32256 57.9622 8.37818L57.9231 8.46605C57.8599 8.59799 57.7858 8.72445 57.7016 8.84407C57.3044 9.42731 56.9324 10.0659 57.6721 10.6986C57.7061 10.7244 57.6654 10.9105 57.6381 10.9201C57.1266 11.0117 57.269 11.4022 57.3576 11.6584C57.5053 12.063 57.8987 11.9027 58.1985 11.8799C58.9367 11.8311 59.841 11.1106 60.2706 12.3132C60.6648 13.4147 60.2026 14.184 59.3456 14.9858C57.5532 16.6639 59.3065 18.3878 59.5671 20.0644C59.5881 20.3266 59.6695 20.5803 59.8051 20.8057C59.9406 21.0311 60.1265 21.222 60.3483 21.3634C60.57 21.5049 60.8215 21.5929 61.083 21.6208C61.3446 21.6486 61.6089 21.6155 61.8555 21.5239C62.7812 21.2825 62.5789 21.8466 62.446 22.322C62.0127 23.9027 60.0151 25.5092 58.4996 25.5225C56.9841 25.5358 55.5992 24.2615 55.1629 22.274C54.7983 20.8015 54.6308 19.2872 54.6647 17.7706C54.6846 17.3077 55.0005 16.3435 53.8128 16.9621C53.3204 17.2198 53.1743 16.6853 53.1189 16.3331C53.0208 16.0202 52.9963 15.6889 53.0475 15.3649C53.0988 15.041 53.2242 14.7334 53.4141 14.466C53.8196 14.0307 54.1134 13.5034 54.2702 12.9295C54.4269 12.3556 54.4419 11.7521 54.314 11.1711C54.0504 9.00056 55.3025 7.65172 56.7257 6.35752C56.6254 6.19722 56.5131 6.04471 56.3898 5.90128C50.582 2.10786 43.8076 0.0612925 36.8711 0.00467081C36.7441 -0.00197367 36.6171 -0.00195312 36.4894 -0.00195312C27.5449 0.00116346 18.9129 3.28822 12.2314 9.23542C5.55002 15.1826 1.28423 23.376 0.243696 32.2607C0.214168 32.4755 0.191301 32.6911 0.169894 32.9082C0.144056 33.1717 0.121142 33.4331 0.101949 33.6966C0.0827555 33.9373 0.0679828 34.1758 0.0561716 34.4172C0.013848 35.1013 -0.00681007 35.7921 -0.0058258 36.4895C-0.0058258 37.1742 0.0135984 37.8531 0.052477 38.5264C0.0620736 38.7708 0.0790609 39.0152 0.0982541 39.2596C0.117447 39.5231 0.140362 39.7874 0.166199 40.048C0.205324 40.4748 0.254009 40.8956 0.313803 41.3186C1.26701 48.5565 4.38759 55.3365 9.26531 60.7678C9.38268 60.908 9.50965 61.0402 9.63441 61.1768C9.75916 61.3134 9.89197 61.4573 10.0219 61.5939C10.1518 61.7305 10.2921 61.8774 10.4294 62.0177C10.5667 62.1579 10.7129 62.3041 10.8569 62.4481C11.0008 62.592 11.1521 62.7434 11.2998 62.8844C11.4629 63.0372 11.6224 63.1908 11.7848 63.3406C11.9472 63.4905 12.114 63.6441 12.2801 63.7903C12.4462 63.9364 12.599 64.0737 12.7621 64.214C12.7883 64.2421 12.8178 64.267 12.85 64.2879C12.9976 64.4148 13.1452 64.5389 13.2929 64.6629C13.4723 64.8106 13.6517 64.9582 13.8384 65.1059C13.9455 65.1908 14.0532 65.2764 14.161 65.3569C14.3242 65.4876 14.4903 65.6108 14.6564 65.7349C14.8874 65.9106 15.1259 66.0833 15.3636 66.2517C15.6013 66.42 15.8427 66.5876 16.087 66.7537C16.3085 66.9065 16.5402 67.0564 16.7683 67.2033C17.4657 67.6532 18.1815 68.0789 18.9158 68.4805C19.0229 68.5425 19.1306 68.6009 19.2413 68.6599C19.4273 68.7626 19.6104 68.8585 19.8016 68.9552C20.0725 69.0984 20.3486 69.2358 20.6261 69.3642C20.7967 69.4454 20.9651 69.5274 21.1341 69.6057C21.1793 69.6306 21.2261 69.6522 21.2743 69.6706C21.4471 69.7518 21.6228 69.8301 21.7992 69.9054C21.8352 69.9248 21.8721 69.9423 21.9099 69.9578C22.1018 70.039 22.2945 70.1239 22.4864 70.2022C22.7571 70.3164 23.032 70.4271 23.311 70.5344C23.52 70.6156 23.7318 70.6946 23.9429 70.7729C24.1873 70.8607 24.4316 70.9486 24.6811 71.0335C24.9306 71.1184 25.1764 71.1996 25.4245 71.2808C29.0035 72.4157 32.7363 72.9916 36.4909 72.9884C37.0224 72.9884 37.5532 72.9788 38.078 72.9493C38.078 72.956 38.078 72.9493 38.078 72.9493C38.267 72.9493 38.453 72.9367 38.6383 72.9234C44.7715 72.5645 50.7148 70.662 55.9164 67.3924C61.1181 64.1228 65.4097 59.5921 68.393 54.2207H62.1183C59.57 54.2207 57.0188 54.2333 54.4705 54.2111C54.0505 54.2111 53.3595 54.4555 53.3757 53.67C53.392 52.956 54.0401 53.0793 54.4971 53.0734C58.6192 53.0638 62.745 53.1945 66.8538 52.9627C67.4798 52.9272 68.0659 54.1218 68.5974 53.856C72.7636 46.1457 74.0175 37.1938 72.1299 28.6354C70.2424 20.0771 65.3394 12.4833 58.3165 7.24125L58.3291 7.25383ZM49.3813 16.2224C49.4596 16.1485 49.746 16.2903 49.9387 16.3331C50.0137 16.3555 50.0877 16.3816 50.1601 16.4114C50.2301 16.4403 50.2978 16.4746 50.3624 16.514C50.4867 16.5862 50.6007 16.6749 50.7013 16.7776C50.9059 16.9941 51.0575 17.2551 51.1442 17.5402C51.3723 18.2504 51.2387 19.1991 52.3696 19.2936C52.4575 19.3032 52.6301 19.6162 52.591 19.6945C51.9916 20.8019 53.0473 21.3534 53.3928 22.1308C53.8357 23.115 54.2786 24.1057 54.8005 25.0477C55.4523 26.2209 54.8743 27.1614 53.5736 27.5579C51.6735 28.1345 50.4879 27.4471 49.5364 25.6679C48.9141 26.8934 48.0408 27.7439 47.7411 29.0344C47.4251 30.3936 45.0533 32.0193 43.805 31.9802C42.7826 31.9506 41.1231 30.2038 40.7377 28.7539C39.7153 24.8683 42.0739 18.9998 45.5013 16.9665C45.9874 16.6219 46.5438 16.3892 47.1306 16.2851C48.0725 16.2172 49.1975 16.1678 48.8963 17.7285C48.8626 18.4151 49.0651 19.0925 49.47 19.648C49.7404 18.6733 49.7796 17.649 49.5843 16.6565C49.5009 16.5088 49.1458 16.4475 49.3806 16.2224H49.3813ZM48.8889 55.4559C48.8469 54.9692 48.8393 54.4803 48.866 53.9926C48.8823 52.8291 48.3612 52.2134 47.152 52.2333C46.0683 52.2843 44.9827 52.2799 43.8995 52.22C42.381 52.096 41.8827 52.7774 41.8857 54.2178C41.8857 54.9051 42.4267 56.1993 41.2213 56.1668C40.2668 56.1373 40.7488 54.9154 40.7356 54.2407C40.6868 51.8582 41.5402 51.0469 43.9261 51.0365H46.5297C49.453 51.0365 50.6946 52.6201 50.121 55.5363C50.0133 56.09 49.7239 56.3086 49.2573 56.2923C48.6837 56.2702 48.9281 55.7526 48.8882 55.4559H48.8889ZM10.7638 21.9485C13.5247 16.3582 17.9893 12.5627 23.5502 9.98172C23.7325 9.89682 23.9119 9.81118 24.0957 9.73735C24.1082 9.73056 24.1213 9.72514 24.1349 9.72113C24.2522 9.66871 24.3696 9.61701 24.4899 9.56828C24.6868 9.48018 24.8857 9.3975 25.0864 9.32022C25.1603 9.29069 25.2296 9.26191 25.3078 9.23533C25.4609 9.17331 25.6142 9.11476 25.7678 9.05964C25.8911 9.01386 26.0158 8.96807 26.1427 8.92599C26.2697 8.88391 26.3938 8.83446 26.5178 8.79238C26.5178 8.79238 26.5178 8.79238 26.5245 8.79238C26.6285 8.75325 26.7334 8.71854 26.8404 8.68532C27.036 8.62035 27.2345 8.55466 27.4309 8.49633C27.6014 8.44392 27.7668 8.39444 27.9396 8.34867C28.1286 8.2933 28.3175 8.24162 28.5095 8.1892C29.0048 8.05557 29.5001 7.93524 29.9984 7.82745C30.2752 7.76913 30.5491 7.71304 30.8296 7.66136C31.0282 7.62223 31.2334 7.58749 31.4394 7.55353C31.4636 7.54714 31.4883 7.54274 31.5132 7.54028C31.514 7.53989 31.5149 7.53965 31.5158 7.53965C31.5167 7.53965 31.5175 7.53989 31.5183 7.54028C31.5191 7.53989 31.52 7.53965 31.5209 7.53965C31.5218 7.53965 31.5227 7.53989 31.5235 7.54028C31.638 7.52108 31.7546 7.50114 31.869 7.4849C32.2536 7.42288 32.6411 7.37043 33.028 7.32466L33.5558 7.26635C33.7351 7.24716 33.9175 7.23093 34.1013 7.21395C34.2851 7.19697 34.4564 7.18439 34.6321 7.17479C34.8078 7.16519 34.9776 7.15193 35.154 7.14086C35.1831 7.13698 35.2125 7.13473 35.2418 7.13419C35.3821 7.12459 35.5216 7.1209 35.6656 7.11499C35.6766 7.11149 35.6885 7.11149 35.6995 7.11499C35.8752 7.10835 36.0516 7.10173 36.2273 7.09877C36.403 7.09582 36.5861 7.08917 36.7647 7.08917C37.7618 7.10886 38.7512 7.17185 39.7331 7.27816C39.7616 7.27829 39.7901 7.28151 39.8179 7.28776C39.9744 7.304 40.1309 7.32394 40.2904 7.34314C40.3066 7.34314 40.3259 7.34316 40.3428 7.34981C40.3444 7.34913 40.346 7.34877 40.3476 7.34877C40.3493 7.34877 40.3509 7.34913 40.3524 7.34981C40.4107 7.35645 40.4698 7.36601 40.5318 7.37265C40.7533 7.40218 40.9748 7.43491 41.1962 7.47084C41.3106 7.48708 41.4272 7.50704 41.5416 7.52919C41.5691 7.53043 41.5964 7.5349 41.6229 7.54249C41.6425 7.54436 41.662 7.54756 41.6812 7.55208C41.6834 7.5514 41.6856 7.5514 41.6878 7.55208C41.7985 7.56833 41.9093 7.58775 42.02 7.61039H42.0267C42.1928 7.63992 42.3588 7.67536 42.5286 7.71227C42.581 7.72187 42.6327 7.73148 42.6888 7.74625C42.8682 7.78538 43.0402 7.82448 43.2196 7.86656C43.3399 7.89314 43.461 7.92195 43.585 7.95443C43.7481 7.99356 43.9105 8.03566 44.07 8.07848C44.2294 8.1213 44.4088 8.17295 44.5786 8.2261C44.6141 8.23285 44.6489 8.24277 44.6827 8.25566C44.8303 8.29774 44.9824 8.34352 45.1257 8.39224C45.2135 8.41882 45.3013 8.44761 45.3899 8.47714C45.4356 8.49338 45.4777 8.50667 45.5198 8.51922C45.7413 8.59305 45.9561 8.66685 46.1746 8.74732C46.4064 8.83222 46.6375 8.92008 46.8685 9.01458C47.0996 9.10908 47.3277 9.20062 47.5558 9.30103C47.7839 9.40143 48.012 9.50332 48.2401 9.61037C48.6705 9.81266 49.4951 9.90052 49.1784 10.6174C48.8713 11.3084 48.3021 10.6728 47.9404 10.5096C45.2685 9.28212 42.4087 8.5141 39.4814 8.23791C36.646 8.00995 33.7927 8.18394 31.006 8.75471C28.4893 9.18624 26.0362 9.93027 23.7038 10.9695C18.3887 13.4169 14.1691 17.0928 11.5588 22.4409C11.3632 22.8418 11.22 23.5948 10.6102 23.239C10.0758 22.9281 10.5586 22.3486 10.7579 21.9411L10.7638 21.9485ZM35.0506 31.673C35.402 31.9366 35.7025 31.6797 35.9107 31.2721C36.2517 30.6077 37.012 30.3043 37.3508 29.5675C37.4699 29.2907 37.6913 29.0707 37.9688 28.9534C38.2463 28.8362 38.5585 28.8308 38.8399 28.9384C39.3448 29.2182 39.254 29.9876 39.0222 30.4209C37.9208 32.5036 36.6045 34.4297 34.2976 35.3482C32.1731 36.1957 30.4103 35.422 29.6182 33.2559C29.3222 32.2768 29.0893 31.2799 28.9206 30.2711C29.0572 27.1555 29.9312 24.4018 32.2507 22.2408C33.3358 21.2338 34.5709 20.5856 36.0827 21.1984C37.2815 21.6842 38.1747 23.5742 37.9695 25.2301C37.7802 27.3464 36.8405 29.3252 35.3201 30.8092C35.0986 31.0159 34.5243 31.2803 35.0455 31.6708L35.0506 31.673ZM32.1834 51.0439C32.9955 51.0099 33.8075 51.0373 34.6195 51.0373C35.3791 51.0373 36.1381 51.021 36.894 51.0373C37.2455 51.0172 37.5972 51.0726 37.9255 51.1999C38.2538 51.3272 38.551 51.5234 38.7971 51.7752C39.0431 52.0271 39.2325 52.3288 39.3521 52.6599C39.4718 52.9911 39.5191 53.3441 39.4909 53.6951C39.524 54.0334 39.4842 54.3749 39.3741 54.6965C39.2641 55.0182 39.0863 55.3124 38.8528 55.5595C38.6194 55.8066 38.3356 56.0007 38.0207 56.1288C37.7059 56.2569 37.3671 56.3159 37.0275 56.3019C35.4035 56.3477 33.7794 56.344 32.1554 56.3019C31.4805 56.2644 30.8458 55.9688 30.3826 55.4764C29.9195 54.984 29.6632 54.3324 29.667 53.6563C29.6708 52.9803 29.9343 52.3315 30.403 51.8443C30.8717 51.3571 31.5096 51.0687 32.185 51.0387L32.1834 51.0439ZM10.0633 27.5867C11.8586 29.9071 12.9341 32.6808 14.7397 35.0041C15.2255 35.6265 14.9221 36.4644 14.8439 37.2034C14.6531 38.7012 14.5392 40.2078 14.5028 41.7173C15.6301 38.6283 15.399 35.2389 16.4797 32.0872C16.1209 32.6121 15.76 33.1363 15.4108 33.6413C14.801 33.4707 14.9517 32.996 15.0019 32.6897C15.461 29.9167 15.3214 27.0787 15.9238 24.3213C16.1633 23.4628 16.6355 22.6873 17.2882 22.0805C17.9409 21.4738 18.7487 21.0594 19.6222 20.8831C20.5309 20.7532 20.596 21.4531 20.7495 21.9618C21.4933 24.4975 22.4956 26.9502 23.7407 29.281C24.8583 31.3534 26.1812 33.2766 28.4393 34.2769C29.2802 34.652 29.1894 35.2478 28.9162 35.8901C28.3552 37.2034 27.5276 38.2297 25.9508 38.2983C25.1125 38.3495 24.2745 38.1946 23.5098 37.8471C22.7452 37.4996 22.0773 36.9702 21.5645 36.305C20.1796 34.6527 19.3874 32.6682 18.4846 30.7391C18.3407 30.7524 18.1946 30.7686 18.0477 30.7812C17.8941 32.0163 17.725 33.2478 17.5885 34.4866C17.3603 36.5855 17.2076 38.6948 16.9241 40.7826C16.6894 42.4873 15.8456 42.9236 14.3176 42.1255C12.5459 41.2049 11.4112 39.6029 10.3128 38.0097C9.64101 37.0322 9.11988 35.9499 8.50422 34.9296C8.27611 34.5516 8.21779 33.848 7.56227 34.0436C7.06029 34.1965 7.2035 34.7819 7.19317 35.1909C7.19733 37.8443 6.94617 40.4919 6.44316 43.0971C6.22835 44.065 6.23126 45.4987 4.57621 45.4271C2.39926 41.4124 4.24701 37.3386 4.41311 33.2877C4.46552 31.9927 4.60204 30.7037 4.6766 29.4095C4.68989 29.1488 4.68993 28.7509 4.53638 28.6402C2.67538 27.2913 4.46251 26.9222 5.18817 26.5125C7.11856 25.4132 8.71456 25.834 10.0669 27.5808L10.0633 27.5867ZM4.44186 46.4865C4.28485 46.7979 4.02905 47.0484 3.71447 47.1989C3.39989 47.3493 3.04431 47.3911 2.70341 47.3178C1.92756 47.0668 2.47532 46.4245 2.53733 45.9542C2.59269 45.5401 2.71295 45.1362 2.81704 44.6674C2.92905 44.693 3.03681 44.7348 3.13676 44.7915C3.23495 44.8483 3.32873 44.9125 3.41728 44.9834C3.47559 45.0292 3.53459 45.0779 3.59291 45.1237C3.67618 45.1948 3.76427 45.2602 3.85648 45.3193C3.95627 45.3917 4.07061 45.4415 4.19161 45.4651C4.31262 45.4887 4.43735 45.4855 4.55702 45.4559C4.52971 45.8088 4.61609 46.2392 4.44113 46.4895L4.44186 46.4865ZM62.2748 50.9546C62.1281 51.3819 61.8388 51.7457 61.4556 51.9849C61.0723 52.224 60.6185 52.324 60.1702 52.268C58.3321 52.1735 56.4844 52.2517 54.6337 52.2384C53.5744 52.2288 52.4405 52.1366 52.4191 53.6589C52.3999 55.2831 53.6083 55.1842 54.72 55.1842C56.4016 55.1842 58.0833 55.1746 59.7642 55.1908C60.1229 55.1908 60.5659 55.0432 60.7977 55.4485C61.0811 55.9505 60.6411 56.2369 60.3835 56.5633C56.5441 61.2991 51.4096 64.815 45.6062 66.6821C43.2923 67.4865 40.8769 67.9627 38.4308 68.0966C36.029 68.2071 33.6227 68.0239 31.2652 67.551C26.8043 66.7505 22.577 64.9684 18.8892 62.3336C15.8021 60.1079 13.2 57.2773 11.2415 54.014C10.6745 53.0328 9.98651 52.437 8.82384 52.5994C8.11 52.7021 7.62133 52.4105 7.52388 51.7453C7.42127 51.0513 8.01253 51.0247 8.51746 51.0188C9.45941 51.0122 9.24095 50.4489 9.03426 49.9114C8.68878 49.0055 8.33071 48.1026 7.9749 47.1968C7.85088 46.8837 7.74018 46.5545 8.15431 46.3788C8.56844 46.2031 8.71163 46.519 8.83195 46.832C8.88235 46.9275 8.92265 47.028 8.95226 47.1318C9.46014 50.6615 11.6179 51.3717 14.883 51.1111C18.7645 50.7981 22.6902 51.0461 26.5975 51.0299C27.4575 51.0299 28.3603 51.0395 28.491 52.0863C28.6246 53.1517 27.7026 53.354 26.8943 53.5519L21.1363 54.9597C21.1459 55.0336 21.1555 55.1074 21.1702 55.1812C23.1774 55.1812 25.1816 55.165 27.1888 55.1908C27.6656 55.2004 28.4696 54.9206 28.4364 55.7578C28.4024 56.5204 27.6243 56.3034 27.1268 56.3085C24.9565 56.3277 22.7862 56.3182 20.6166 56.3152C19.8474 56.3152 19.0007 56.3639 18.8781 55.3082C18.7482 54.1676 19.5986 54.0605 20.4357 53.8744C22.3711 53.4617 24.2806 52.9362 26.1545 52.3005H11.2762C16.5454 60.8682 24.0071 65.8899 33.8481 66.8349C43.9171 67.8028 52.363 64.2347 59.4179 56.3152C57.2772 56.3152 55.5697 56.3344 53.8681 56.3152C53.5166 56.3373 53.1643 56.285 52.8344 56.1617C52.5045 56.0384 52.2043 55.8468 51.9535 55.5995C51.7026 55.3522 51.5068 55.0547 51.3788 54.7265C51.2508 54.3984 51.1935 54.0469 51.2106 53.6951C51.1991 53.3429 51.2602 52.9922 51.3901 52.6647C51.52 52.3372 51.7159 52.0399 51.9656 51.7914C52.2152 51.5428 52.5134 51.3483 52.8414 51.22C53.1695 51.0917 53.5206 51.0322 53.8726 51.0454C55.9322 51.0196 57.9947 51.0033 60.0572 51.0587C60.3956 51.1078 60.7406 51.0361 61.0314 50.8561C61.3222 50.6761 61.5403 50.3994 61.6473 50.0746C64.9189 43.3283 65.5013 35.5899 63.2765 28.4298C63.2135 28.1658 63.1351 27.9057 63.0417 27.6509C62.8882 27.2855 62.7096 26.8757 63.1894 26.683C63.7305 26.4682 63.78 27.0086 63.9055 27.3283C64.6653 29.2971 65.1531 31.3604 65.3553 33.4611C66.0732 39.4706 64.9984 45.5582 62.2659 50.9583L62.2748 50.9546ZM48.7583 22.7916C48.7583 22.655 48.7583 22.5191 48.7583 22.3781L48.4062 22.5443C48.5236 22.6247 48.6372 22.7096 48.7546 22.7916H48.7583ZM47.1874 21.8141C47.3513 21.0094 47.2052 20.1724 46.7784 19.4708C46.5828 19.1807 46.4094 18.7473 45.9414 18.8388C45.5723 18.9067 45.4822 19.2818 45.384 19.5771C44.7455 21.4708 44.0478 23.3423 44.6052 25.4206C44.7077 25.7759 44.8895 26.1032 45.1367 26.3782C45.384 26.6531 45.6905 26.8684 46.0329 27.0078C46.1894 27.0817 46.7593 26.4172 47.0789 26.037C47.8501 25.0797 48.4207 23.977 48.7568 22.7945C48.6395 22.7096 48.5257 22.624 48.4084 22.5435C47.5011 23.143 47.0221 23.0381 47.1874 21.8133V21.8141ZM32.0875 55.1421C33.7122 55.2306 35.3405 55.2328 36.9655 55.1487C37.1563 55.1532 37.346 55.1176 37.5222 55.0443C37.6985 54.971 37.8574 54.8616 37.9887 54.7231C38.1201 54.5846 38.2211 54.4202 38.285 54.2403C38.349 54.0604 38.3745 53.8692 38.36 53.6788C38.3634 53.4791 38.3247 53.2809 38.2466 53.0971C38.1684 52.9133 38.0525 52.748 37.9063 52.6119C37.7601 52.4758 37.587 52.372 37.3981 52.3071C37.2092 52.2423 37.0087 52.2179 36.8098 52.2355C36.1063 52.2613 35.402 52.2421 34.6963 52.2421C33.8843 52.2421 33.0671 52.2421 32.2558 52.2421C32.0794 52.225 31.9015 52.2461 31.7339 52.3037C31.5664 52.3614 31.4132 52.4543 31.2846 52.5763C31.1561 52.6983 31.0554 52.8465 30.9891 53.0109C30.9228 53.1753 30.8926 53.3519 30.9005 53.529C30.8215 54.4289 31.1817 55.0934 32.0904 55.1406L32.0875 55.1421ZM34.046 30.6313C35.3659 28.195 35.0396 25.8827 33.7654 23.4457C32.5954 25.4973 32.7844 29.3327 34.046 30.6335V30.6313ZM48.4099 22.5398C47.5012 23.1393 47.0221 23.0352 47.1881 21.8097C47.352 21.005 47.206 20.168 46.7792 19.4664C46.5836 19.1762 46.4101 18.7429 45.9421 18.8344C45.573 18.9023 45.4829 19.2774 45.3847 19.5727C44.7462 21.4664 44.0485 23.3379 44.6059 25.4161C44.7084 25.7714 44.8903 26.0988 45.1376 26.3738C45.3848 26.6487 45.6912 26.864 46.0336 27.0034C46.1901 27.0773 46.76 26.4128 47.0797 26.0326C47.8507 25.0752 48.4213 23.9725 48.7575 22.7901C48.6417 22.7066 48.528 22.6225 48.4106 22.5413L48.4099 22.5398ZM48.4099 22.5398C48.5273 22.621 48.6409 22.7059 48.7583 22.7879C48.7583 22.6513 48.7583 22.5155 48.7583 22.3737L48.4099 22.5398ZM33.7662 23.4457C32.5961 25.4958 32.7851 29.3312 34.0467 30.6313C35.3659 28.195 35.0403 25.8849 33.7662 23.4471V23.4457ZM36.8098 52.2311C36.1063 52.2569 35.402 52.2377 34.6963 52.2377C33.8843 52.2377 33.0663 52.2377 32.2558 52.2377C32.0794 52.2206 31.9015 52.2416 31.7339 52.2993C31.5664 52.3569 31.4132 52.4499 31.2846 52.5719C31.1561 52.6939 31.0554 52.8421 30.9891 53.0065C30.9228 53.1708 30.8926 53.3475 30.9005 53.5245C30.8193 54.4237 31.181 55.0889 32.0897 55.1376C33.7145 55.2263 35.3428 55.2285 36.9678 55.1443C37.1586 55.1488 37.3482 55.1132 37.5245 55.0399C37.7007 54.9666 37.8596 54.8572 37.991 54.7187C38.1224 54.5802 38.2233 54.4157 38.2872 54.2359C38.3511 54.056 38.3767 53.8647 38.3622 53.6744C38.365 53.4749 38.326 53.2771 38.2476 53.0936C38.1693 52.9101 38.0533 52.7451 37.9072 52.6093C37.7611 52.4734 37.5881 52.3697 37.3995 52.3048C37.2109 52.2399 37.0107 52.2153 36.812 52.2325L36.8098 52.2311ZM48.4106 22.5398C48.528 22.621 48.6417 22.7059 48.7591 22.7879C48.7591 22.6513 48.7591 22.5154 48.7591 22.3744L48.4106 22.5398ZM48.4106 22.5398C47.5019 23.1393 47.0228 23.0352 47.1889 21.8097C47.3527 21.005 47.2067 20.168 46.7799 19.4664C46.5843 19.1762 46.4108 18.7429 45.9428 18.8344C45.5737 18.9023 45.4836 19.2774 45.3854 19.5727C44.7469 21.4664 44.0494 23.3379 44.6067 25.4154C44.7093 25.7707 44.891 26.0981 45.1383 26.373C45.3855 26.6479 45.6919 26.8632 46.0343 27.0027C46.1908 27.0765 46.7607 26.4121 47.0804 26.0319C47.8514 25.0745 48.422 23.9718 48.7583 22.7893C48.6424 22.7059 48.5287 22.6217 48.4113 22.5398H48.4106ZM36.8098 52.2311C36.1063 52.2569 35.402 52.2377 34.6963 52.2377C33.8843 52.2377 33.0663 52.2377 32.2558 52.2377C32.0794 52.2206 31.9015 52.2416 31.7339 52.2993C31.5664 52.3569 31.4132 52.4499 31.2846 52.5719C31.1561 52.6939 31.0554 52.8421 30.9891 53.0065C30.9228 53.1708 30.8926 53.3475 30.9005 53.5245C30.8193 54.4237 31.181 55.0889 32.0897 55.1376C33.7145 55.2263 35.3428 55.2285 36.9678 55.1443C37.1586 55.1488 37.3482 55.1132 37.5245 55.0399C37.7007 54.9666 37.8596 54.8572 37.991 54.7187C38.1224 54.5802 38.2233 54.4157 38.2872 54.2359C38.3511 54.056 38.3767 53.8647 38.3622 53.6744C38.365 53.4749 38.326 53.2771 38.2476 53.0936C38.1693 52.9101 38.0533 52.7451 37.9072 52.6093C37.7611 52.4734 37.5881 52.3697 37.3995 52.3048C37.2109 52.2399 37.0107 52.2153 36.812 52.2325L36.8098 52.2311ZM33.7662 23.4457C32.5961 25.4958 32.7851 29.3312 34.0467 30.6313C35.3659 28.195 35.0403 25.8849 33.7662 23.4471V23.4457ZM48.4099 22.5398C47.5012 23.1393 47.0221 23.0352 47.1881 21.8097C47.352 21.005 47.206 20.168 46.7792 19.4664C46.5836 19.1762 46.4101 18.7429 45.9421 18.8344C45.573 18.9023 45.4829 19.2774 45.3847 19.5727C44.7462 21.4664 44.0485 23.3379 44.6059 25.4154C44.7084 25.7707 44.8903 26.0981 45.1376 26.373C45.3848 26.6479 45.6912 26.8632 46.0336 27.0027C46.1901 27.0765 46.76 26.4121 47.0797 26.0319C47.8507 25.0745 48.4213 23.9718 48.7575 22.7893C48.6417 22.7059 48.528 22.6217 48.4106 22.5398H48.4099ZM48.4099 22.5398C48.5273 22.621 48.6409 22.7059 48.7583 22.7879C48.7583 22.6513 48.7583 22.5154 48.7583 22.3744L48.4099 22.5398ZM33.7662 23.4457C32.5961 25.4958 32.7851 29.3312 34.0467 30.6313C35.3659 28.195 35.0403 25.8849 33.7662 23.4471V23.4457ZM36.8098 52.2311C36.1063 52.2569 35.402 52.2377 34.6963 52.2377C33.8843 52.2377 33.0663 52.2377 32.2558 52.2377C32.0794 52.2206 31.9015 52.2416 31.7339 52.2993C31.5664 52.3569 31.4132 52.4499 31.2846 52.5719C31.1561 52.6939 31.0554 52.8421 30.9891 53.0065C30.9228 53.1708 30.8926 53.3475 30.9005 53.5245C30.8193 54.4237 31.181 55.0889 32.0897 55.1376C33.7145 55.2263 35.3428 55.2285 36.9678 55.1443C37.1586 55.1488 37.3482 55.1132 37.5245 55.0399C37.7007 54.9666 37.8596 54.8572 37.991 54.7187C38.1224 54.5802 38.2233 54.4157 38.2872 54.2359C38.3511 54.056 38.3767 53.8647 38.3622 53.6744C38.365 53.4749 38.326 53.2771 38.2476 53.0936C38.1693 52.9101 38.0533 52.7451 37.9072 52.6093C37.7611 52.4734 37.5881 52.3697 37.3995 52.3048C37.2109 52.2399 37.0107 52.2153 36.812 52.2325L36.8098 52.2311ZM48.4106 22.5398C48.528 22.621 48.6417 22.7059 48.7591 22.7879C48.7591 22.6513 48.7591 22.5154 48.7591 22.3744L48.4106 22.5398ZM48.4106 22.5398C47.5019 23.1393 47.0228 23.0352 47.1889 21.8097C47.3527 21.005 47.2067 20.168 46.7799 19.4664C46.5843 19.1762 46.4108 18.7429 45.9428 18.8344C45.5737 18.9023 45.4836 19.2774 45.3854 19.5727C44.7469 21.4664 44.0494 23.3379 44.6067 25.4154C44.7093 25.7707 44.891 26.0981 45.1383 26.373C45.3855 26.6479 45.6919 26.8632 46.0343 27.0027C46.1908 27.0765 46.7607 26.4121 47.0804 26.0319C47.8514 25.0745 48.422 23.9718 48.7583 22.7893C48.6424 22.7059 48.5287 22.6217 48.4113 22.5398H48.4106ZM36.8098 52.2311C36.1063 52.2569 35.402 52.2377 34.6963 52.2377C33.8843 52.2377 33.0663 52.2377 32.2558 52.2377C32.0794 52.2206 31.9015 52.2416 31.7339 52.2993C31.5664 52.3569 31.4132 52.4499 31.2846 52.5719C31.1561 52.6939 31.0554 52.8421 30.9891 53.0065C30.9228 53.1708 30.8926 53.3475 30.9005 53.5245C30.8193 54.4237 31.181 55.0889 32.0897 55.1376C33.7145 55.2263 35.3428 55.2285 36.9678 55.1443C37.1586 55.1488 37.3482 55.1132 37.5245 55.0399C37.7007 54.9666 37.8596 54.8572 37.991 54.7187C38.1224 54.5802 38.2233 54.4157 38.2872 54.2359C38.3511 54.056 38.3767 53.8647 38.3622 53.6744C38.365 53.4749 38.326 53.2771 38.2476 53.0936C38.1693 52.9101 38.0533 52.7451 37.9072 52.6093C37.7611 52.4734 37.5881 52.3697 37.3995 52.3048C37.2109 52.2399 37.0107 52.2153 36.812 52.2325L36.8098 52.2311ZM33.7662 23.4457C32.5961 25.4958 32.7851 29.3312 34.0467 30.6313C35.3659 28.195 35.0403 25.8849 33.7662 23.4471V23.4457ZM48.4099 22.5398C47.5012 23.1393 47.0221 23.0352 47.1881 21.8097C47.352 21.005 47.206 20.168 46.7792 19.4664C46.5836 19.1762 46.4101 18.7429 45.9421 18.8344C45.573 18.9023 45.4829 19.2774 45.3847 19.5727C44.7462 21.4664 44.0485 23.3379 44.6059 25.4154C44.7084 25.7707 44.8903 26.0981 45.1376 26.373C45.3848 26.6479 45.6912 26.8632 46.0336 27.0027C46.1901 27.0765 46.76 26.4121 47.0797 26.0319C47.8507 25.0745 48.4213 23.9718 48.7575 22.7893C48.6417 22.7059 48.528 22.6217 48.4106 22.5398H48.4099ZM48.4099 22.5398C48.5273 22.621 48.6409 22.7059 48.7583 22.7879C48.7583 22.6513 48.7583 22.5154 48.7583 22.3744L48.4099 22.5398ZM33.7662 23.4457C32.5961 25.4958 32.7851 29.3312 34.0467 30.6313C35.3659 28.195 35.0403 25.8849 33.7662 23.4471V23.4457ZM48.4099 22.5398C48.5273 22.621 48.6409 22.7059 48.7583 22.7879C48.7583 22.6513 48.7583 22.5154 48.7583 22.3744L48.4099 22.5398ZM48.4099 22.5398C47.5012 23.1393 47.0221 23.0352 47.1881 21.8097C47.352 21.005 47.206 20.168 46.7792 19.4664C46.5836 19.1762 46.4101 18.7429 45.9421 18.8344C45.573 18.9023 45.4829 19.2774 45.3847 19.5727C44.7462 21.4664 44.0485 23.3379 44.6059 25.4154C44.7084 25.7707 44.8903 26.0981 45.1376 26.373C45.3848 26.6479 45.6912 26.8632 46.0336 27.0027C46.1901 27.0765 46.76 26.4121 47.0797 26.0319C47.8507 25.0745 48.4213 23.9718 48.7575 22.7893C48.6417 22.7059 48.528 22.6217 48.4106 22.5398H48.4099ZM33.7662 23.4457C32.5961 25.4958 32.7851 29.3312 34.0467 30.6313C35.3659 28.195 35.0403 25.8849 33.7662 23.4471V23.4457ZM33.7662 23.4457C32.5961 25.4958 32.7851 29.3312 34.0467 30.6313C35.3659 28.195 35.0403 25.8849 33.7662 23.4471V23.4457ZM48.4099 22.5398C47.5012 23.1393 47.0221 23.0352 47.1881 21.8097C47.352 21.005 47.206 20.168 46.7792 19.4664C46.5836 19.1762 46.4101 18.7429 45.9421 18.8344C45.573 18.9023 45.4829 19.2774 45.3847 19.5727C44.7462 21.4664 44.0485 23.3379 44.6059 25.4154C44.7084 25.7707 44.8903 26.0981 45.1376 26.373C45.3848 26.6479 45.6912 26.8632 46.0336 27.0027C46.1901 27.0765 46.76 26.4121 47.0797 26.0319C47.8507 25.0745 48.4213 23.9718 48.7575 22.7893C48.6417 22.7059 48.528 22.6217 48.4106 22.5398H48.4099ZM48.4099 22.5398C48.5273 22.621 48.6409 22.7059 48.7583 22.7879C48.7583 22.6513 48.7583 22.5154 48.7583 22.3744L48.4099 22.5398ZM48.4099 22.5398C48.5273 22.621 48.6409 22.7059 48.7583 22.7879C48.7583 22.6513 48.7583 22.5154 48.7583 22.3744L48.4099 22.5398ZM48.4099 22.5398C47.5012 23.1393 47.0221 23.0352 47.1881 21.8097C47.352 21.005 47.206 20.168 46.7792 19.4664C46.5836 19.1762 46.4101 18.7429 45.9421 18.8344C45.573 18.9023 45.4829 19.2774 45.3847 19.5727C44.7462 21.4664 44.0485 23.3379 44.6059 25.4154C44.7084 25.7707 44.8903 26.0981 45.1376 26.373C45.3848 26.6479 45.6912 26.8632 46.0336 27.0027C46.1901 27.0765 46.76 26.4121 47.0797 26.0319C47.8507 25.0745 48.4213 23.9718 48.7575 22.7893C48.6417 22.7059 48.528 22.6217 48.4106 22.5398H48.4099ZM33.7662 23.4457C32.5961 25.4958 32.7851 29.3312 34.0467 30.6313C35.3659 28.195 35.0403 25.8849 33.7662 23.4471V23.4457Z" fill="white"/>
</g>
<defs>
<clipPath id="clip0_412_7863">
<rect width="73" height="73" fill="white"/>
</clipPath>
</defs>
</svg>
