<svg width="137" height="25" viewBox="0 0 137 25" fill="none" xmlns="http://www.w3.org/2000/svg">
<g clip-path="url(#clip0_412_7835)">
<path d="M137 25H0V0H137V25ZM74.3323 12.8718L74.5144 12.8378C74.5568 13.36 74.552 13.8848 74.5001 14.4062C74.2378 15.4622 73.6497 16.411 72.8174 17.1205C71.9851 17.8301 70.9501 18.2652 69.8564 18.3653C68.8039 18.4259 67.7489 18.4321 66.6957 18.3839L66.629 18.57C67.2544 18.9749 67.6222 19.8455 68.5891 19.6319C69.5639 19.4467 70.5196 19.1735 71.4443 18.8161C72.244 18.5084 72.9612 18.0221 73.54 17.3951C74.1189 16.7681 74.5438 16.0172 74.7817 15.201C74.9371 14.6605 74.9828 14.0948 74.916 13.5367C74.8493 12.9786 74.6716 12.4391 74.393 11.9494C74.7196 12.3181 74.9804 12.7391 75.1645 13.1944C75.3978 13.9129 75.4541 14.6762 75.3286 15.4206C75.2031 16.1649 74.8995 16.8687 74.4432 17.4732C73.5362 18.7176 72.2959 19.6862 70.8623 20.2696C70.6488 20.3742 70.4421 20.4921 70.1725 20.6322C71.5386 21.2374 72.6868 21.2722 73.6275 20.0701C73.9459 19.6645 74.3518 19.3286 74.6836 18.9296C75.676 17.8005 76.1995 16.341 76.1486 14.8451C76.1534 14.1068 75.9566 13.3808 75.579 12.7441C75.2014 12.1074 74.6571 11.5835 74.0035 11.2279C74.5995 11.3829 75.1449 11.6876 75.5872 12.1123C76.0295 12.5371 76.3537 13.0677 76.5284 13.6528C76.7974 14.3708 76.9162 15.1354 76.8776 15.9002C76.8389 16.6651 76.6437 17.4142 76.3037 18.1021C75.8648 19.0253 75.3075 19.8936 74.8057 20.7775C76.1868 20.7034 76.8317 20.2526 77.2189 19.0186C77.4155 18.4161 77.5711 17.8011 77.6848 17.178C78.2023 14.1429 76.4812 10.7184 72.9662 10.8748C73.0816 10.8255 73.1999 10.7832 73.3205 10.7481C74.0477 10.5977 74.8035 10.6625 75.4939 10.9342C76.1843 11.206 76.7787 11.6727 77.2032 12.2764C78.0914 13.3426 78.6565 14.6361 78.8332 16.007C79.0099 17.378 78.7909 18.7705 78.2016 20.0234C78.1334 20.1836 78.0998 20.3571 78.0114 20.653C78.8929 20.653 79.6674 20.6263 80.4388 20.6618C80.6824 20.6839 80.9276 20.6466 81.1532 20.5531C81.3788 20.4597 81.5779 20.313 81.7331 20.1258C84.6736 16.9371 87.6403 13.7662 90.5981 10.5909C90.8175 10.3558 91.0332 10.117 91.3531 9.76847C91.3524 9.99585 91.3401 10.223 91.3163 10.4492C90.803 13.3126 90.2862 16.1757 89.7659 19.0386C89.4731 20.6537 89.4701 20.6159 91.1344 20.67C91.4445 20.6949 91.7556 20.6345 92.0332 20.4952C92.3108 20.3559 92.5441 20.1434 92.7072 19.881C95.0583 16.7561 97.4543 13.6646 99.8368 10.5642C100.001 10.3506 100.184 10.1519 100.465 9.81816C100.441 10.1674 100.445 10.3306 100.417 10.4856C99.8421 13.6483 99.2736 16.8117 98.6751 19.97C98.5815 20.4668 98.6699 20.6841 99.2062 20.6618C99.7035 20.6411 100.202 20.6411 100.699 20.6618C101.106 20.6796 101.291 20.5343 101.35 20.1175C101.481 19.2277 101.664 18.3379 101.85 17.3271C103.191 20.9756 105.117 21.6607 109.067 20.1939C109.382 20.3798 109.718 20.5291 110.068 20.6389C110.465 20.7085 110.871 20.7059 111.266 20.6314C111.396 20.5976 111.516 20.5353 111.617 20.4491C111.719 20.363 111.799 20.2553 111.853 20.1339C112.064 19.3427 112.196 18.5292 112.344 17.7216C112.803 15.23 113.264 12.7384 113.7 10.2423C113.736 10.0347 113.61 9.60898 113.528 9.60082C112.897 9.519 112.258 9.51184 111.626 9.57937C111.418 9.60829 111.266 10.0384 111.065 10.3209C110.399 9.82856 109.611 9.52221 108.785 9.4339C107.959 9.34559 107.123 9.47857 106.366 9.81889C104.795 10.4625 103.486 11.6099 102.651 13.0773C102.619 12.972 102.604 12.9475 102.607 12.9289C103.038 10.599 103.469 8.26932 103.902 5.93985C104.264 3.98512 104.264 4.00585 102.278 3.97544C102.025 3.95482 101.77 4.00186 101.542 4.11168C101.313 4.22149 101.118 4.39009 100.977 4.59986C98.7553 7.49785 96.5001 10.3706 94.2539 13.25C93.9977 13.5793 93.7296 13.8974 93.4682 14.2215C93.5382 13.3267 93.6633 12.4369 93.8427 11.5571C94.2494 9.29386 94.6441 7.02912 95.0508 4.76515C95.1384 4.27721 95.1167 3.9235 94.4516 3.9806C93.9781 4.02075 93.502 4.02075 93.0285 3.9806C92.7852 3.95445 92.5392 3.99257 92.3156 4.09104C92.0919 4.1895 91.8986 4.34479 91.7552 4.5412C88.1102 8.74334 84.4511 12.9351 80.7781 17.1165C80.6794 17.2181 80.5744 17.3135 80.4635 17.402C80.098 16.2044 79.8074 15.0186 79.3768 13.887C78.1784 10.7384 75.2573 9.49634 72.2075 10.8526C72.7371 10.2446 73.4838 9.86304 74.2911 9.78775C75.2878 9.67356 76.2971 9.83287 77.2085 10.2482C78.12 10.6636 78.8986 11.3191 79.4592 12.1429C80.0437 12.9843 80.5823 13.8561 81.0725 14.7547C81.3593 14.3422 81.4838 13.8401 81.4226 13.343C81.3613 12.8459 81.1185 12.3882 80.7399 12.0561C80.2121 11.4848 79.6436 10.9515 79.0389 10.4603C77.1036 8.9127 73.2665 8.26385 71.3903 11.5222C71.4381 11.3052 71.4999 11.0914 71.5753 10.8822C71.9073 10.2018 72.4189 9.62294 73.056 9.20678C73.6931 8.79063 74.432 8.55268 75.1944 8.51818C77.2331 8.27569 78.9393 9.10403 80.5504 10.2052C80.7451 10.338 80.9444 10.4618 81.1998 10.6294C80.993 9.08031 80.3759 8.03393 78.7813 7.84705C78.5724 7.80506 78.3659 7.7521 78.1626 7.68837C76.5475 7.23345 74.8172 7.4172 73.3362 8.20081C72.576 8.56077 71.9495 9.14832 71.5452 9.88026C71.1408 10.6122 70.9793 11.4515 71.0833 12.2794C70.5155 10.6761 71.1709 8.952 72.7475 7.77219C74.1121 6.81035 75.779 6.36326 77.4473 6.51159C77.923 6.53013 78.4001 6.51159 78.9379 6.51159C78.108 5.51346 77.2264 4.93054 75.9419 5.41329C75.3427 5.63575 74.7106 5.75737 74.1166 5.98502C70.9402 7.20117 69.6729 10.2074 71.0608 13.0802C70.692 12.6514 70.3968 12.1657 70.1867 11.6424C69.9724 10.9303 69.9276 10.1787 70.0558 9.44666C70.1841 8.71459 70.4819 8.02195 70.9259 7.42296C71.8231 6.2021 73.0405 5.24738 74.4462 4.66214C74.6574 4.55832 74.8626 4.43968 75.1607 4.28322C73.7654 3.80046 72.594 3.70031 71.6607 4.91053C71.3169 5.35546 70.8638 5.72027 70.5238 6.17114C70.0321 6.77667 69.6674 7.4733 69.4509 8.22009C69.2345 8.96689 69.1706 9.74892 69.2632 10.5204C69.3277 11.1847 69.5579 11.8226 69.9331 12.377C70.3083 12.9314 70.8168 13.3848 71.4128 13.6965C70.7826 13.5351 70.2072 13.2104 69.7458 12.7558C69.2844 12.3012 68.9537 11.7331 68.7876 11.1099C68.303 9.68927 68.4023 8.13691 69.064 6.78813C69.4579 5.94424 69.9628 5.15083 70.487 4.2098C69.7223 4.52941 68.852 4.49597 68.5187 5.28647C67.9278 6.59978 67.6561 8.03202 67.7255 9.46812C67.7256 10.0996 67.8568 10.7243 68.1109 11.3035C68.3649 11.8827 68.7365 12.4041 69.2026 12.8353C69.6686 13.2664 70.2192 13.598 70.8201 13.8097C71.421 14.0214 72.0594 14.1086 72.6958 14.0658C72.1252 14.2825 71.5082 14.3516 70.9032 14.2666C70.2981 14.1816 69.7249 13.9453 69.2377 13.5801C68.4897 13.0537 67.8769 12.3609 67.4485 11.5574C67.0201 10.7538 66.7882 9.86195 66.7713 8.9535C66.7181 8.12519 66.7623 7.29096 66.7623 6.34177C65.7976 7.27464 64.9715 8.10816 65.5767 9.5008C65.8178 10.057 65.9018 10.6828 66.1542 11.2337C67.053 13.1914 68.4618 14.5804 70.723 14.7614C71.4803 14.7382 72.2324 14.6276 72.9639 14.4321C72.5303 14.7295 72.0535 14.9598 71.5499 15.115C70.4998 15.3125 69.4142 15.1978 68.4299 14.7855C67.4456 14.3731 66.6065 13.6814 66.0186 12.7977C65.4643 11.9575 65.0449 11.0321 64.5588 10.1474C64.4592 9.96423 64.3626 9.65206 64.2367 9.63649C63.5858 9.53992 62.9259 9.51746 62.2699 9.56968C62.0302 9.59638 61.834 10.0065 61.6003 10.2616C60.8916 9.77171 60.0617 9.48182 59.1994 9.42304C58.337 9.36426 57.4748 9.53874 56.705 9.92788C55.1125 10.6563 53.8181 11.8999 53.0349 13.454C53.1173 12.7792 53.2596 12.1384 53.3637 11.4925C53.7262 9.27233 54.1127 9.52896 51.6321 9.50894C51.1932 9.50523 51.0119 9.68767 50.934 10.1148C50.3398 13.393 49.7314 16.6684 49.1087 19.9411C48.9979 20.5218 49.1836 20.673 49.7581 20.6671C51.6807 20.6463 51.6785 20.667 52.0006 18.7961C52.1144 18.1369 52.256 17.4843 52.3855 16.8281C52.8746 20.5447 55.8189 21.8321 59.6762 20.1851C59.9844 20.3726 60.3134 20.5243 60.6566 20.6374C61.0342 20.6638 61.413 20.671 61.7913 20.659C61.8774 20.6796 61.9671 20.6805 62.0536 20.6617C62.1401 20.6428 62.2212 20.6046 62.2905 20.5501C62.3599 20.4955 62.4157 20.4259 62.4538 20.3467C62.4919 20.2676 62.5112 20.1808 62.5103 20.0931C62.6788 19.0512 62.8848 18.0168 63.0788 16.9786C63.3642 15.4451 63.6518 13.9115 63.9491 12.3209C64.7625 13.0625 65.4726 13.7855 66.2575 14.4173C66.895 14.9657 67.6471 15.3676 68.4598 15.5945C69.2726 15.8214 70.126 15.8676 70.9589 15.7298C71.5989 15.6405 72.2069 15.3969 72.7293 15.0202C73.2518 14.6435 73.6727 14.1453 73.9549 13.5697C73.8576 14.0677 73.6437 14.5362 73.3303 14.9375C73.0169 15.3388 72.6129 15.6617 72.1506 15.8803C71.3627 16.2965 70.4862 16.5216 69.5934 16.537C68.7005 16.5523 67.8167 16.3575 67.0148 15.9686C66.1444 15.5867 65.3333 15.0713 64.3798 14.5537C64.7026 15.3954 64.6547 16.4261 65.5138 16.7094C66.7754 17.1651 68.0999 17.4271 69.4415 17.4865C71.8038 17.5169 74.5473 15.8588 74.3323 12.8718ZM38.9367 13.8359C38.8701 13.5111 38.8162 13.2182 38.7495 12.9282C38.5595 11.9742 38.0447 11.1135 37.291 10.49C36.5373 9.86649 35.5904 9.51782 34.6084 9.50224C32.1869 9.42364 30.3519 10.5567 28.8771 12.3654C28.7333 12.5418 28.5985 12.7258 28.3528 13.0439C28.8187 10.4959 29.2516 8.12148 29.6868 5.74777C30.0059 3.9977 30.0044 4.02737 28.1753 3.98214C27.8873 3.95837 27.598 4.01237 27.3385 4.13838C27.0789 4.26439 26.8587 4.45766 26.7013 4.69771C24.4424 7.62685 22.1415 10.5241 19.8526 13.4303C19.6346 13.7069 19.4032 13.9738 19.1785 14.2459C19.6039 11.2656 20.1462 8.36169 20.6405 5.44886C20.8952 3.95018 21.23 3.98803 19.4654 3.99916C19.3235 4.01007 19.1811 4.01007 19.0392 3.99916C18.7842 3.96084 18.5234 3.99515 18.2873 4.0981C18.0512 4.20104 17.8496 4.36842 17.706 4.58058C15.8021 6.79857 13.8607 8.98615 11.9388 11.1849C9.39228 14.0927 6.84572 17.003 4.29917 19.9159C4.18292 20.1016 4.09555 20.3036 4.04002 20.515C4.22762 20.5864 4.42287 20.6362 4.62196 20.6634C5.2616 20.6804 5.90348 20.6344 6.54087 20.6737C6.76188 20.6896 6.98333 20.6491 7.18398 20.556C7.38463 20.4629 7.55778 20.3204 7.68684 20.1421C10.6618 16.7611 13.6457 13.3878 16.6387 10.0221C16.761 9.85478 16.8668 9.67615 16.9548 9.48885L17.1428 9.64907C17.1406 9.81098 17.1294 9.9726 17.1091 10.1333C16.5848 13.0424 16.0687 15.9545 15.5167 18.8577C15.1722 20.67 15.1467 20.6374 16.9885 20.6782C17.2419 20.6998 17.4963 20.6513 17.7236 20.5384C17.9509 20.4254 18.1421 20.2523 18.276 20.0382C20.3567 17.2122 22.4703 14.4083 24.575 11.6008C25.0783 10.9334 25.6011 10.2719 26.1149 9.60824C26.0232 10.9425 25.8503 12.2701 25.5973 13.5838C25.2093 15.7096 24.8049 17.8294 24.384 19.9433C24.2701 20.5084 24.4035 20.7412 25.0049 20.6752C25.3348 20.6329 25.6689 20.6329 25.9988 20.6752C26.7695 20.7924 27.0226 20.4342 27.1125 19.7253C27.2354 18.7554 27.4638 17.7973 27.6473 16.8369C27.7152 17.5442 27.9492 18.226 28.3306 18.8278C28.7121 19.4296 29.2304 19.9347 29.8441 20.3029C32.6401 21.9677 36.5033 20.2807 37.8447 17.5311C37.8736 17.4313 37.8766 17.3259 37.8535 17.2246C37.8303 17.1234 37.7817 17.0296 37.7122 16.9519C37.2986 16.8455 36.868 16.821 36.4449 16.8798C36.0217 16.9386 35.6145 17.0794 35.2465 17.2944C34.6007 17.9627 33.7305 18.3742 32.7996 18.4513C32.4929 18.4859 32.1823 18.4577 31.8871 18.3686C31.5918 18.2795 31.3182 18.1313 31.0831 17.9333C30.848 17.7352 30.6565 17.4915 30.5204 17.2172C30.3844 16.9429 30.3066 16.6439 30.292 16.3386H38.5308C38.4766 17.2019 38.6802 18.062 39.1162 18.8115C39.5523 19.561 40.2015 20.1669 40.983 20.5536C42.7139 21.4434 44.3849 20.8814 45.9607 20.2014C46.145 20.4228 46.3946 20.5818 46.6745 20.656C47.0191 20.716 47.3861 20.6367 47.7373 20.6715C48.2983 20.7271 48.5058 20.5113 48.6069 19.95C49.3237 15.979 50.0974 12.0153 50.8202 8.04729C51.1834 6.05177 51.4006 6.27499 49.287 6.25052C49.1945 6.23555 49.0999 6.24056 49.0095 6.26519C48.9192 6.28981 48.8353 6.33346 48.7636 6.39319C48.6919 6.45291 48.6341 6.52734 48.5941 6.61125C48.5541 6.69516 48.533 6.78661 48.532 6.87938C48.3186 8.01989 48.0534 9.14922 47.804 10.3075C44.4426 8.16963 40.5149 10.3691 38.9383 13.841L38.9367 13.8359ZM130.771 9.52822C130.927 8.67692 131.076 7.91751 131.203 7.1552C131.259 6.81631 131.512 6.38995 130.903 6.26166C129.964 6.0644 128.751 6.26906 128.626 6.65244C128.597 6.76613 128.574 6.88159 128.559 6.99805C128.438 7.6432 128.277 8.28386 128.206 8.93494C128.152 9.42808 127.917 9.55339 127.465 9.54153C126.549 9.51706 125.63 9.55263 124.714 9.51555C124.492 9.49838 124.269 9.54026 124.068 9.63685C123.868 9.73344 123.697 9.8813 123.573 10.0651C122.956 10.8541 122.294 11.609 121.531 12.5219C121.551 12.1808 121.544 12.0458 121.568 11.9146C121.867 10.3009 122.171 8.68781 122.478 7.07518C122.61 6.37144 122.515 6.25946 121.768 6.25279C121.389 6.24834 121.007 6.28163 120.632 6.24455C120.114 6.19338 119.908 6.44113 119.829 6.90608C119.683 7.75813 119.513 8.60645 119.385 9.29757L116.935 9.94127C116.758 9.82337 116.561 9.59046 116.332 9.56153C115.839 9.49479 115.338 9.49604 114.846 9.56525C114.722 9.60032 114.609 9.66428 114.516 9.75163C114.422 9.83898 114.351 9.94718 114.309 10.0673C113.669 13.3828 113.065 16.705 112.449 20.0257C112.374 20.4313 112.486 20.6671 112.945 20.659C113.394 20.6832 113.845 20.6755 114.293 20.636C114.414 20.6049 114.526 20.5467 114.621 20.466C114.716 20.3852 114.791 20.2841 114.84 20.1702C115.031 19.5199 115.139 18.8443 115.276 18.1784C115.56 16.8006 115.815 15.4154 116.135 14.0457C116.227 13.4329 116.552 12.8777 117.042 12.4931C117.533 12.1085 118.153 11.9233 118.776 11.9753C118.379 14.3067 117.963 16.6338 117.593 18.9682C117.3 20.8058 117.001 20.624 119.026 20.6804C119.775 20.7012 120.011 20.4217 120.115 19.7587C120.293 18.6115 120.539 17.474 120.785 16.1866C121.002 16.5025 121.139 16.6849 121.259 16.877C121.942 17.9752 122.599 19.0905 123.319 20.1635C123.416 20.2948 123.539 20.4052 123.681 20.4877C123.823 20.5702 123.98 20.6232 124.143 20.6434C125.443 20.6945 126.748 20.6478 128.05 20.6745C128.562 20.6849 128.738 20.4832 128.826 19.999C129.264 17.5518 129.763 15.1165 130.18 12.6664C130.282 12.0732 130.499 11.9197 131.087 11.9197C133.072 11.9197 132.612 12.2594 133.038 10.2194C133.139 9.73364 132.937 9.51341 132.439 9.52379C131.896 9.53194 131.356 9.52379 130.775 9.52379L130.771 9.52822ZM52.4432 9.25974C53.9 9.23526 53.7322 9.4748 54.0116 7.93459C54.0618 7.65799 54.1165 7.38217 54.1696 7.10632C54.3194 6.33732 54.2528 6.26243 53.4461 6.25279C51.6807 6.23276 51.6808 6.23275 51.3385 7.94871C51.0756 9.25904 51.0756 9.25899 52.4432 9.25974Z" fill="white"/>
<path d="M57.3987 18.3854C57.0721 18.4112 56.7438 18.3665 56.4363 18.2544C56.1289 18.1423 55.8497 17.9656 55.618 17.7362C55.3863 17.5068 55.2077 17.2304 55.0945 16.926C54.9813 16.6216 54.9362 16.2965 54.9623 15.9731C54.9872 15.1145 55.2815 14.2849 55.8042 13.5994C56.327 12.9138 57.0523 12.4064 57.8795 12.1475C58.2966 12 58.7455 11.9638 59.1811 12.0426C59.6167 12.1213 60.0237 12.3122 60.3612 12.5961C60.6987 12.88 60.9548 13.2467 61.1037 13.6596C61.2526 14.0726 61.2891 14.517 61.2096 14.9483C61.0714 15.8682 60.6168 16.7127 59.9224 17.3391C59.2281 17.9655 58.3366 18.3353 57.3987 18.3861V18.3854Z" fill="white"/>
<path d="M106.797 18.4023C106.494 18.4237 106.19 18.3847 105.903 18.2876C105.616 18.1905 105.351 18.0374 105.125 17.8372C104.899 17.637 104.715 17.3937 104.586 17.1221C104.456 16.8504 104.383 16.5557 104.37 16.2555C104.335 15.2796 104.649 14.3227 105.258 13.5547C105.868 12.7867 106.732 12.2573 107.698 12.0605C108.109 11.9837 108.533 12.0102 108.931 12.1378C109.329 12.2654 109.689 12.49 109.976 12.7909C110.264 13.0917 110.471 13.4592 110.577 13.8597C110.684 14.2602 110.688 14.6808 110.588 15.0831C110.404 15.968 109.935 16.7701 109.252 17.3686C108.568 17.9672 107.707 18.3299 106.797 18.4023Z" fill="white"/>
<path d="M43.4069 18.4026C43.0922 18.4263 42.7761 18.3837 42.4792 18.278C42.1823 18.1722 41.9114 18.0055 41.6841 17.7888C41.4568 17.5721 41.2783 17.3103 41.1604 17.0205C41.0424 16.7308 40.9877 16.4196 40.9996 16.1074C40.9202 14.1379 42.6916 12.1223 44.5678 12.0489C44.9348 12.0163 45.3046 12.0649 45.6504 12.191C45.9961 12.3171 46.3094 12.5176 46.5673 12.7781C46.8253 13.0387 47.0217 13.3527 47.1422 13.6975C47.2627 14.0423 47.3043 14.4093 47.2641 14.772C47.1625 15.7325 46.7183 16.6257 46.0114 17.2911C45.3044 17.9566 44.3809 18.3507 43.4069 18.4026Z" fill="white"/>
<path d="M36.1551 13.7349H31.1631C31.4519 13.2086 31.8849 12.7739 32.4123 12.4804C32.9396 12.187 33.5399 12.0468 34.1441 12.0761C34.6175 12.0932 35.0717 12.2653 35.4357 12.5655C35.7996 12.8657 36.0526 13.277 36.1551 13.7349Z" fill="white"/>
<path d="M127.598 11.9895C127.126 14.5234 126.662 17.0054 126.168 19.652C125.115 17.9464 124.139 16.3736 123.181 14.7926C123.146 14.7251 123.128 14.6503 123.128 14.5746C123.128 14.4988 123.146 14.4241 123.181 14.3566C124.229 13.07 125.3 11.7982 126.448 10.4219C126.374 11.842 126.374 11.842 127.598 11.9895Z" fill="white"/>
</g>
<defs>
<clipPath id="clip0_412_7835">
<rect width="137" height="25" fill="white"/>
</clipPath>
</defs>
</svg>
