<svg width="137" height="25" fill="none" xmlns="http://www.w3.org/2000/svg"><g clip-path="url(#clip0_412_7835)" fill="#fff"><path d="M137 25H0V0h137v25zM74.332 12.872l.182-.034a8.713 8.713 0 01-.014 1.568 5.222 5.222 0 01-1.683 2.714 5.31 5.31 0 01-2.96 1.245c-1.053.06-2.108.067-3.161.019l-.067.186c.625.405.993 1.276 1.96 1.062.975-.185 1.93-.459 2.855-.816a5.577 5.577 0 002.096-1.42 5.506 5.506 0 001.242-2.195 4.211 4.211 0 00-.389-3.252c.327.37.587.79.772 1.245a4.685 4.685 0 01-.722 4.28 8.3 8.3 0 01-3.58 2.796c-.214.104-.42.222-.69.362 1.366.605 2.514.64 3.454-.562.319-.405.725-.741 1.057-1.14a5.883 5.883 0 001.465-4.085 4.066 4.066 0 00-.57-2.1 4.12 4.12 0 00-1.575-1.517c.596.155 1.14.46 1.583.884.442.425.767.956.941 1.54a5.6 5.6 0 01-.224 4.45c-.44.923-.996 1.792-1.498 2.675 1.38-.074 2.026-.524 2.413-1.758.197-.603.352-1.218.466-1.841.517-3.035-1.204-6.46-4.719-6.303a3 3 0 01.355-.127 3.823 3.823 0 012.173.186c.69.272 1.285.739 1.71 1.342a7.255 7.255 0 01.998 7.747c-.069.16-.102.334-.19.63.88 0 1.655-.027 2.427.009a1.51 1.51 0 001.294-.536c2.94-3.189 5.907-6.36 8.865-9.535.22-.235.435-.474.755-.823 0 .228-.013.455-.037.681a3594.07 3594.07 0 01-1.55 8.59c-.293 1.615-.296 1.577 1.368 1.631a1.688 1.688 0 001.573-.789c2.351-3.125 4.747-6.216 7.13-9.317.164-.213.347-.412.628-.746-.024.35-.02.513-.048.668-.575 3.162-1.143 6.326-1.742 9.484-.093.497-.005.714.531.692.498-.02.996-.02 1.493 0 .407.018.592-.128.651-.544.131-.89.314-1.78.5-2.79 1.341 3.648 3.267 4.333 7.217 2.866.315.186.651.335 1.001.445.397.07.803.067 1.198-.008a.882.882 0 00.587-.497c.211-.791.343-1.605.491-2.412.459-2.492.92-4.984 1.356-7.48.036-.207-.09-.633-.172-.641a8.103 8.103 0 00-1.902-.022c-.208.03-.36.46-.561.742a4.688 4.688 0 00-4.699-.502 7.576 7.576 0 00-3.715 3.258c-.032-.105-.047-.13-.044-.148.431-2.33.862-4.66 1.295-6.99.362-1.954.362-1.933-1.624-1.964a1.431 1.431 0 00-1.301.625c-2.222 2.898-4.477 5.77-6.723 8.65-.256.33-.524.647-.786.972.07-.895.195-1.785.375-2.665.406-2.263.801-4.528 1.208-6.792.087-.488.066-.841-.6-.784a8.44 8.44 0 01-1.422 0 1.399 1.399 0 00-1.274.56 2674.082 2674.082 0 01-10.977 12.575 3.364 3.364 0 01-.315.286c-.365-1.198-.656-2.383-1.086-3.515-1.199-3.149-4.12-4.39-7.17-3.034a3.15 3.15 0 012.084-1.065 5.522 5.522 0 012.918.46 5.46 5.46 0 012.25 1.895 28.504 28.504 0 011.614 2.612 2.036 2.036 0 00-.333-2.699 16.352 16.352 0 00-1.701-1.596c-1.935-1.547-5.773-2.196-7.649 1.062.048-.217.11-.43.185-.64a4.2 4.2 0 011.481-1.675 4.263 4.263 0 012.138-.689c2.04-.242 3.745.586 5.356 1.687.195.133.394.257.65.424-.207-1.549-.824-2.595-2.419-2.782a6.062 6.062 0 01-.618-.159 6.537 6.537 0 00-4.827.513 4 4 0 00-1.79 1.68 3.943 3.943 0 00-.463 2.398c-.567-1.603.088-3.327 1.665-4.507a7.073 7.073 0 014.7-1.26c.475.018.952 0 1.49 0-.83-.999-1.712-1.581-2.996-1.099-.6.223-1.231.344-1.825.572-3.177 1.216-4.444 4.222-3.056 7.095a5.144 5.144 0 01-.874-1.438 4.765 4.765 0 01.739-4.219 8.35 8.35 0 013.52-2.76c.211-.105.417-.223.715-.38-1.396-.483-2.567-.583-3.5.628-.344.444-.797.81-1.137 1.26a5.786 5.786 0 00-1.26 4.35c.064.664.294 1.302.67 1.856a4.055 4.055 0 001.479 1.32 3.673 3.673 0 01-1.667-.941 3.62 3.62 0 01-.958-1.646 5.658 5.658 0 01.276-4.322c.394-.844.899-1.637 1.423-2.578-.765.32-1.635.286-1.968 1.076a9.117 9.117 0 00-.794 4.182 4.602 4.602 0 001.478 3.367 4.697 4.697 0 003.493 1.23 3.629 3.629 0 01-3.458-.485 5.826 5.826 0 01-1.79-2.023 5.762 5.762 0 01-.677-2.604c-.053-.828-.009-1.662-.009-2.611-.964.933-1.79 1.766-1.185 3.159.24.556.325 1.182.577 1.733.899 1.957 2.308 3.346 4.569 3.527a9.848 9.848 0 002.24-.329c-.433.297-.91.528-1.413.683a5.464 5.464 0 01-3.12-.33 5.402 5.402 0 01-2.411-1.987c-.555-.84-.974-1.766-1.46-2.65-.1-.184-.196-.496-.322-.512a8.699 8.699 0 00-1.967-.066c-.24.026-.436.437-.67.692a4.806 4.806 0 00-4.895-.334 7.685 7.685 0 00-3.67 3.526c.082-.675.225-1.316.329-1.962.362-2.22.749-1.963-1.732-1.983-.439-.004-.62.179-.698.606-.594 3.278-1.203 6.553-1.825 9.826-.111.58.075.732.65.726 1.922-.02 1.92 0 2.242-1.87.113-.66.255-1.313.385-1.969.489 3.717 3.433 5.004 7.29 3.357.308.188.637.34.98.452.378.027.757.034 1.135.022a.59.59 0 00.5-.109.577.577 0 00.22-.457c.168-1.042.374-2.076.568-3.114.285-1.534.573-3.067.87-4.658.814.742 1.524 1.465 2.308 2.096.638.549 1.39.95 2.203 1.178a5.785 5.785 0 002.499.135 3.963 3.963 0 001.77-.71 3.912 3.912 0 001.226-1.45 3.228 3.228 0 01-.625 1.367 3.27 3.27 0 01-1.18.943 5.686 5.686 0 01-5.135.089c-.87-.382-1.682-.898-2.635-1.415.323.841.275 1.872 1.134 2.155 1.261.456 2.586.718 3.928.777 2.362.03 5.105-1.627 4.89-4.614zm-35.395.964c-.067-.325-.12-.618-.188-.908a4.24 4.24 0 00-1.458-2.438 4.317 4.317 0 00-2.683-.988c-2.421-.078-4.256 1.055-5.73 2.863-.145.177-.28.36-.525.679.466-2.548.899-4.923 1.334-7.296.319-1.75.317-1.72-1.512-1.766a1.613 1.613 0 00-1.474.716c-2.259 2.929-4.56 5.826-6.848 8.732-.218.277-.45.544-.675.816.426-2.98.968-5.884 1.462-8.797.255-1.499.59-1.461-1.175-1.45a2.754 2.754 0 01-.426 0 1.372 1.372 0 00-1.333.582c-1.904 2.218-3.845 4.405-5.767 6.604a17029.75 17029.75 0 00-7.64 8.73 2.166 2.166 0 00-.259.6c.188.071.383.121.582.148.64.017 1.281-.029 1.919.01a1.306 1.306 0 001.146-.53c2.975-3.382 5.959-6.755 8.952-10.12.122-.168.228-.347.316-.534l.188.16a4.333 4.333 0 01-.034.484c-.524 2.91-1.04 5.822-1.592 8.725-.345 1.812-.37 1.78 1.471 1.82a1.388 1.388 0 001.288-.64c2.08-2.826 4.194-5.63 6.299-8.437.503-.668 1.026-1.33 1.54-1.993a32.98 32.98 0 01-.518 3.976 404.432 404.432 0 01-1.213 6.36c-.114.564.02.797.62.731.33-.042.665-.042.995 0 .77.117 1.024-.24 1.114-.95.122-.97.35-1.928.534-2.888a4.572 4.572 0 002.197 3.466c2.796 1.665 6.66-.022 8-2.772a.612.612 0 00-.132-.58 3.277 3.277 0 00-2.466.343 3.844 3.844 0 01-2.446 1.157 2.276 2.276 0 01-1.717-.518 2.237 2.237 0 01-.791-1.594h8.239c-.054.863.15 1.723.585 2.473a4.433 4.433 0 001.867 1.742c1.73.89 3.402.327 4.978-.353.184.222.434.38.714.455.344.06.711-.02 1.062.016.561.055.769-.16.87-.722.717-3.971 1.49-7.935 2.213-11.903.363-1.995.58-1.772-1.533-1.796a.657.657 0 00-.693.36.639.639 0 00-.062.268c-.213 1.14-.479 2.27-.728 3.428-3.361-2.137-7.29.062-8.866 3.534l-.001-.005zm91.834-4.308c.156-.851.305-1.61.432-2.373.056-.339.309-.765-.3-.893-.939-.198-2.152.007-2.277.39-.029.114-.052.23-.067.346-.121.645-.282 1.286-.353 1.937-.054.493-.289.618-.741.607-.916-.025-1.835.01-2.751-.026a1.267 1.267 0 00-1.141.55c-.617.788-1.279 1.543-2.042 2.456.02-.341.013-.476.037-.607.299-1.614.603-3.227.91-4.84.132-.704.037-.816-.71-.822-.379-.005-.761.029-1.136-.008-.518-.052-.724.196-.803.661-.146.852-.316 1.7-.444 2.392l-2.45.643c-.177-.118-.374-.35-.603-.38a5.44 5.44 0 00-1.486.004.8.8 0 00-.537.502c-.64 3.316-1.244 6.638-1.86 9.959-.075.405.037.641.496.633.449.024.9.017 1.348-.023a.823.823 0 00.547-.466c.191-.65.299-1.326.436-1.992.284-1.377.539-2.763.859-4.132a2.435 2.435 0 01.907-1.553 2.479 2.479 0 011.734-.518c-.397 2.332-.813 4.659-1.183 6.993-.293 1.838-.592 1.656 1.433 1.712.749.021.985-.258 1.089-.921.178-1.148.424-2.285.67-3.572.217.316.354.498.474.69.683 1.098 1.34 2.213 2.06 3.287a1.198 1.198 0 00.824.48c1.3.05 2.605.004 3.907.03.512.01.688-.19.776-.675.438-2.447.937-4.882 1.354-7.333.102-.593.319-.746.907-.746 1.985 0 1.525.34 1.951-1.7.101-.486-.101-.707-.599-.696-.543.008-1.083 0-1.664 0l-.004.004zM52.443 9.26c1.457-.025 1.29.215 1.569-1.325.05-.277.105-.553.158-.829.15-.769.083-.844-.724-.853-1.765-.02-1.765-.02-2.107 1.696-.263 1.31-.263 1.31 1.104 1.31z"/><path d="M57.399 18.385a2.285 2.285 0 01-1.781-.649 2.238 2.238 0 01-.656-1.763 4.11 4.11 0 01.842-2.374 4.178 4.178 0 012.075-1.451 2.546 2.546 0 012.482.448 2.475 2.475 0 01.848 2.352 4.026 4.026 0 01-1.287 2.391 4.099 4.099 0 01-2.523 1.047zm49.398.017a2.287 2.287 0 01-1.672-.565 2.242 2.242 0 01-.755-1.581 4.108 4.108 0 01.888-2.701 4.18 4.18 0 012.44-1.495 2.522 2.522 0 012.278.73 2.454 2.454 0 01.612 2.293 4.168 4.168 0 01-1.336 2.286 4.238 4.238 0 01-2.455 1.033zm-63.39.001a2.26 2.26 0 01-1.723-.614A2.215 2.215 0 0141 16.107c-.08-1.97 1.692-3.985 3.568-4.058a2.512 2.512 0 012 .73 2.461 2.461 0 01.696 1.993 4.044 4.044 0 01-1.253 2.52 4.12 4.12 0 01-2.604 1.11zm-7.252-4.668h-4.992a3.197 3.197 0 011.25-1.255 3.24 3.24 0 011.731-.404c.474.017.928.19 1.292.49s.617.711.72 1.169zm91.443-1.745l-1.43 7.662c-1.053-1.706-2.029-3.278-2.987-4.86a.473.473 0 010-.435c1.048-1.287 2.119-2.559 3.267-3.935-.074 1.42-.074 1.42 1.15 1.567z"/></g><defs><clipPath id="clip0_412_7835"><path fill="#fff" d="M0 0h137v25H0z"/></clipPath></defs></svg>