<svg width="32" height="32" viewBox="0 0 32 32" fill="none" xmlns="http://www.w3.org/2000/svg">
<g clip-path="url(#clip0_358_9789)">
<path d="M15.9999 14.2889C15.6614 14.2889 15.3305 14.3892 15.049 14.5773C14.7676 14.7654 14.5482 15.0327 14.4187 15.3454C14.2891 15.6581 14.2552 16.0023 14.3213 16.3343C14.3873 16.6663 14.5503 16.9712 14.7897 17.2106C15.029 17.45 15.334 17.613 15.666 17.679C15.998 17.7451 16.3421 17.7112 16.6549 17.5816C16.9676 17.4521 17.2349 17.2327 17.423 16.9512C17.611 16.6698 17.7114 16.3389 17.7114 16.0004C17.7073 15.5477 17.5257 15.1148 17.2056 14.7947C16.8855 14.4746 16.4525 14.293 15.9999 14.2889V14.2889ZM15.9999 0.439453C12.9222 0.439453 9.91369 1.35209 7.35471 3.06194C4.79573 4.7718 2.80125 7.20208 1.62348 10.0455C0.445707 12.8889 0.137549 16.0176 0.737971 19.0362C1.33839 22.0547 2.82043 24.8274 4.99666 27.0036C7.17289 29.1798 9.94559 30.6619 12.9641 31.2623C15.9826 31.8627 19.1114 31.5546 21.9548 30.3768C24.7982 29.199 27.2285 27.2045 28.9383 24.6456C30.6482 22.0866 31.5608 19.078 31.5608 16.0004C31.5488 11.8771 29.9055 7.92608 26.9898 5.01045C24.0742 2.09482 20.1232 0.4515 15.9999 0.439453V0.439453ZM19.4247 19.4243L6.66334 25.3369L12.576 12.5773L25.3364 6.66382L19.4247 19.4243Z" stroke="white"/>
</g>
<defs>
<clipPath id="clip0_358_9789">
<rect width="32" height="32" fill="white"/>
</clipPath>
</defs>
</svg>
