<svg width="117" height="89" viewBox="0 0 117 89" fill="none" xmlns="http://www.w3.org/2000/svg">
<path d="M95.0039 45.629H92.5013C91.9574 27.7338 77.4676 13.2917 59.5407 12.8025L59.5414 10.2854C59.5414 9.76885 59.1229 9.3501 58.6051 9.3501C58.088 9.3501 57.6688 9.7682 57.6688 10.2854V12.8032C39.6726 13.2937 25.1395 27.8463 24.7033 45.8384H21.9971C21.48 45.8384 21.0608 46.2565 21.0608 46.7737C21.0608 47.2903 21.4793 47.7091 21.9971 47.7091H24.7093C25.2532 65.6042 39.7443 80.0463 57.6698 80.5355L57.6692 83.2216C57.6692 83.7382 58.0877 84.1569 58.6055 84.1569C59.1226 84.1569 59.5417 83.7388 59.5417 83.2216V80.5349C77.538 80.0437 92.0711 65.4904 92.5073 47.498H95.0041C95.5212 47.498 95.9403 47.0799 95.9403 46.5627C95.9403 46.0461 95.5218 45.628 95.0041 45.628L95.0039 45.629ZM90.6294 45.629H84.1122C83.5762 32.3548 72.8418 21.6658 59.5422 21.1849V14.674C76.4353 15.1619 90.0876 28.7662 90.6308 45.6303L90.6294 45.629ZM80.1262 47.499H82.2462C81.8173 59.8391 71.88 69.8024 59.5416 70.285V68.3393C59.5416 67.8227 59.123 67.404 58.6053 67.404C58.0882 67.404 57.669 67.8221 57.669 68.3393V70.285C45.4004 69.8049 35.5025 59.9531 34.9694 47.7094H36.8948C37.412 47.7094 37.8311 47.2913 37.8311 46.774C37.8311 46.2574 37.4126 45.8387 36.8948 45.8387H34.9642C35.3931 33.4986 45.3309 23.5369 57.6689 23.0543V25.169C57.6689 25.6856 58.0874 26.1043 58.6051 26.1043C59.1222 26.1043 59.5414 25.6862 59.5414 25.169V23.0543C71.81 23.5344 81.7062 33.3855 82.2394 45.6283H80.1254C79.6082 45.6283 79.1891 46.0464 79.1891 46.5636C79.1891 47.0809 79.6076 47.499 80.1254 47.499H80.1262ZM57.6689 14.6742V21.185C44.2981 21.6697 33.5234 32.4685 33.0922 45.8395H26.575C27.0105 28.8794 40.7051 15.1638 57.6702 14.6745L57.6689 14.6742ZM26.5803 47.7094H33.0976C33.6336 60.9836 44.3687 71.6726 57.6692 72.1551V78.666C40.7761 78.1788 27.1239 64.5745 26.5807 47.7097L26.5803 47.7094ZM59.5426 78.6657V72.1548C72.9126 71.6708 83.688 60.8707 84.1192 47.4986H90.6365C90.201 64.4604 76.5064 78.1761 59.5429 78.6653L59.5426 78.6657Z" fill="#E35D14"/>
<path d="M72.3159 48.0454V32.1707C72.3159 30.765 71.1636 29.6222 69.7474 29.6222L47.1647 29.6216C45.7479 29.6216 44.5956 30.765 44.5956 32.17V48.0506L42.8509 58.8383C42.7667 59.3608 42.9156 59.8911 43.2597 60.2948C43.6063 60.7018 44.1123 60.9347 44.6484 60.9347H72.3523C72.891 60.9347 73.3989 60.6992 73.7456 60.2889C74.0904 59.8826 74.2366 59.3484 74.1478 58.824L72.3159 48.0454ZM46.4656 47.1909V35.8449H70.4439V47.1909H46.4656ZM46.3272 49.0609H51.1292L50.7544 52.8532H45.714L46.3272 49.0609ZM53.0095 49.0609H57.6098V52.8532H52.6346L53.0095 49.0609ZM57.6098 54.7239V59.1033L52.0157 59.1176L52.4499 54.724L57.6098 54.7239ZM59.4817 54.7239H64.6409L65.0711 59.0836L59.4817 59.0979L59.4817 54.7239ZM59.4817 52.8539V49.0616H64.0819L64.4561 52.8539H59.4817ZM65.963 49.0609H70.5927L71.2586 52.8532H66.3371L65.963 49.0609ZM47.1627 31.4914H69.7471C70.131 31.4914 70.4437 31.7953 70.4437 32.1697V33.9739L46.4654 33.9746V32.1704C46.4654 31.796 46.7781 31.4914 47.1633 31.4914L47.1627 31.4914ZM45.4104 54.7232H50.5682L50.1341 59.1215L44.6974 59.1352L45.4104 54.7232ZM66.9518 59.0784L66.5215 54.7232H71.5868L72.3494 59.0647L66.9518 59.0784Z" fill="black"/>
</svg>
