<svg width="107" height="89" viewBox="0 0 107 89" fill="none" xmlns="http://www.w3.org/2000/svg">
<path d="M53.2479 42.5983C48.7313 42.5983 45.0557 38.9233 45.0557 34.4061C45.0557 29.8894 48.7307 26.2138 53.2479 26.2138C57.7646 26.2138 61.4402 29.8888 61.4402 34.4061C61.4402 38.9233 57.7646 42.5983 53.2479 42.5983ZM53.2479 29.4914C50.5375 29.4914 48.3325 31.6962 48.3325 34.4068C48.3325 37.1175 50.5373 39.3222 53.2479 39.3222C55.9585 39.3222 58.1633 37.1175 58.1633 34.4068C58.1633 31.6962 55.9585 29.4914 53.2479 29.4914Z" fill="#E35D14"/>
<path d="M71.2548 60.9232C71.0498 60.9232 70.8418 60.8846 70.6451 60.8049C70.0145 60.5523 69.6051 59.9379 69.6164 59.2592C69.6164 59.2253 69.6259 59.0512 69.6294 59.0173C69.6324 49.9486 62.2823 42.5987 53.2489 42.5987C44.2155 42.5987 36.8653 49.9488 36.8653 58.9824L36.8795 59.2593C36.8908 59.938 36.4814 60.5519 35.8508 60.805C35.2251 61.0611 34.5036 60.8977 34.0395 60.3985C29.5229 55.523 27.0347 49.2034 27.0347 42.5985C27.0347 28.1443 38.7944 16.3838 53.2493 16.3838C67.7036 16.3838 79.464 28.1435 79.464 42.5985C79.464 49.2015 76.9758 55.523 72.4574 60.3985C72.1406 60.739 71.702 60.9233 71.2557 60.9233L71.2548 60.9232ZM53.2479 19.6607C40.5997 19.6607 30.3102 29.9501 30.3102 42.5983C30.3102 47.0383 31.5969 51.3325 33.9889 55.0206C35.8252 46.0719 43.7631 39.3216 53.2479 39.3216C62.7309 39.3216 70.6691 46.0702 72.5069 55.0191C74.8989 51.3316 76.1856 47.0366 76.1856 42.5985C76.1856 29.9503 65.8961 19.6608 53.2479 19.6608V19.6607Z" fill="black"/>
<path d="M53.2479 68.813C45.9983 68.813 38.9969 65.7459 34.0376 60.3984C33.7624 60.1025 33.6073 59.715 33.6008 59.3103C33.5913 59.1647 33.5865 59.075 33.5865 58.9823C33.5865 48.1407 42.4057 39.3216 53.2471 39.3216C64.0886 39.3216 72.9078 48.1408 72.9078 58.9823C72.9078 59.0239 72.8983 59.2253 72.8947 59.2669C72.8662 59.6348 72.7057 60.1263 72.4549 60.3978C67.498 65.7458 60.4967 68.8128 53.2477 68.8128L53.2479 68.813ZM36.8673 58.6192C41.2276 63.0847 47.0194 65.5361 53.2479 65.5361C59.4748 65.5361 65.2673 63.0847 69.6239 58.6228C69.4171 49.7347 62.1502 42.5983 53.2479 42.5983C44.3342 42.5983 37.0621 49.7517 36.8673 58.6183V58.6192Z" fill="#E35D14"/>
<path d="M53.2479 78.6426C33.3728 78.6426 17.2037 62.4735 17.2037 42.5983C17.2037 22.7232 33.3728 6.55408 53.2479 6.55408C73.1231 6.55408 89.2921 22.7232 89.2921 42.5983C89.2921 62.4735 73.1231 78.6426 53.2479 78.6426ZM53.2479 9.8311C35.1786 9.8311 20.4807 24.5301 20.4807 42.5983C20.4807 60.6665 35.1797 75.3655 53.2479 75.3655C71.3161 75.3655 86.0151 60.6665 86.0151 42.5983C86.0151 24.5301 71.3161 9.8311 53.2479 9.8311ZM53.2479 68.813C45.9983 68.813 38.997 65.7459 34.0376 60.3985C29.521 55.5229 27.0328 49.2033 27.0328 42.5985C27.0328 28.1443 38.7925 16.3838 53.2475 16.3838C67.7017 16.3838 79.4621 28.1435 79.4621 42.5985C79.4621 49.2015 76.9739 55.5229 72.4555 60.3985C67.4986 65.7458 60.4972 68.813 53.2482 68.813H53.2479ZM53.2479 19.6607C40.5997 19.6607 30.3103 29.9501 30.3103 42.5983C30.3103 48.3742 32.4876 53.9039 36.4415 58.171C40.8463 62.92 46.8142 65.536 53.2481 65.536C59.6819 65.536 65.6496 62.92 70.0531 58.171C74.0086 53.9041 76.186 48.3731 76.186 42.5983C76.186 29.9501 65.8966 19.6607 53.2484 19.6607H53.2479Z" fill="black"/>
<path d="M53.2479 13.1069C52.3422 13.1069 51.6094 12.3741 51.6094 11.4684V4.91525C51.6094 4.00956 52.3421 3.27673 53.2479 3.27673C54.1537 3.27673 54.8864 4.00948 54.8864 4.91525V11.469C54.8864 12.3741 54.1537 13.1069 53.2479 13.1069Z" fill="#E35D14"/>
<path d="M53.2479 81.9196C52.3422 81.9196 51.6094 81.1868 51.6094 80.2811V73.7273C51.6094 72.8217 52.3421 72.0888 53.2479 72.0888C54.1537 72.0888 54.8864 72.8216 54.8864 73.7273V80.2811C54.8864 81.1868 54.1537 81.9196 53.2479 81.9196Z" fill="#E35D14"/>
<path d="M90.9307 44.2368H84.3769C83.4712 44.2368 82.7384 43.5041 82.7384 42.5983C82.7384 41.6925 83.4712 40.9598 84.3769 40.9598H90.9307C91.8363 40.9598 92.5692 41.6925 92.5692 42.5983C92.5692 43.5041 91.8364 44.2368 90.9307 44.2368Z" fill="#E35D14"/>
<path d="M22.1177 44.2368H15.5645C14.6589 44.2368 13.926 43.5041 13.926 42.5983C13.926 41.6925 14.6588 40.9598 15.5645 40.9598H22.1183C23.024 40.9598 23.7568 41.6925 23.7568 42.5983C23.7562 43.504 23.0234 44.2368 22.1178 44.2368H22.1177Z" fill="#E35D14"/>
</svg>
