<svg width="106" height="89" viewBox="0 0 106 89" fill="none" xmlns="http://www.w3.org/2000/svg">
<path d="M86.9123 63.3559H18.6825C15.995 63.3559 13.8087 61.1698 13.8087 58.4822V47.1109H91.7863V58.4822C91.7863 61.1697 89.6002 63.3559 86.9126 63.3559H86.9123ZM17.0578 50.3601V58.483C17.0578 59.3792 17.7867 60.1076 18.6825 60.1076H86.9123C87.8079 60.1076 88.5369 59.3793 88.5369 58.483V50.3601H17.0578Z" fill="black"/>
<path d="M91.7846 16.2463H13.807V8.12181C13.807 5.43431 15.9931 3.24808 18.6808 3.24808H86.9106C89.5981 3.24808 91.7843 5.43416 91.7843 8.12181L91.7846 16.2463ZM17.0563 12.9972H88.5354V8.12181C88.5354 7.22556 87.8065 6.49718 86.9107 6.49718H18.6809C17.7853 6.49718 17.0563 7.22549 17.0563 8.12181V12.9972Z" fill="black"/>
<path d="M64.1675 71.4791H41.4242V60.1078H64.1675V71.4791ZM44.6734 68.23H60.9182V63.3563H44.6734V68.23Z" fill="black"/>
<path d="M69.0428 81.2268H36.5518C35.6544 81.2268 34.9272 80.5003 34.9272 79.6022V75.5411C34.9272 74.524 35.4133 73.5517 36.227 72.9424L42.0754 68.5561C42.3571 68.3452 42.6988 68.2309 43.05 68.2309H62.544C62.8952 68.2309 63.2376 68.3452 63.5186 68.5561L69.367 72.9424C70.1801 73.5499 70.6669 74.5229 70.6669 75.5411V79.6022C70.668 80.4996 69.9403 81.2268 69.0434 81.2268H69.0428ZM38.1764 77.9777H67.4182V75.5412L62.0019 71.4801L43.5924 71.4795L38.1761 75.5406L38.1764 77.9777Z" fill="black"/>
<path d="M56.0459 56.8589H49.5476C48.6502 56.8589 47.923 56.1324 47.923 55.2343C47.923 54.3363 48.6501 53.6097 49.5476 53.6097H56.0459C56.9433 53.6097 57.6705 54.3363 57.6705 55.2343C57.6705 56.1324 56.9434 56.8589 56.0459 56.8589Z" fill="black"/>
<path d="M91.7846 50.3605H13.807V12.9971H91.7846V50.3605ZM17.0563 47.1114H88.5354V16.245L17.0563 16.2456V47.1114Z" fill="#E35D14"/>
<path d="M52.6822 32.4911C49.099 32.4911 46.184 29.5767 46.184 25.9929C46.184 22.409 49.099 19.4947 52.6822 19.4947C56.2654 19.4947 59.1804 22.409 59.1804 25.9929C59.1798 29.5767 56.2648 32.4911 52.6822 32.4911ZM52.6822 22.7438C50.8903 22.7438 49.4331 24.2016 49.4331 25.9929C49.4331 27.7842 50.8903 29.242 52.6822 29.242C54.4741 29.242 55.9313 27.7842 55.9313 25.9929C55.9307 24.2016 54.4741 22.7438 52.6822 22.7438Z" fill="#E35D14"/>
<path d="M61.2819 43.8621H44.0823C42.8142 43.8621 41.5957 43.2594 40.822 42.2488C40.066 41.2618 39.8161 40.0167 40.1361 38.8347C41.6646 33.1856 46.8235 29.2417 52.6818 29.2417C58.5395 29.2417 63.6989 33.1856 65.2275 38.8335C65.548 40.0167 65.2982 41.2606 64.5422 42.2494C63.7691 43.2594 62.5499 43.8621 61.2819 43.8621H61.2819ZM52.6818 32.4908C48.2883 32.4908 44.4188 35.4477 43.2727 39.6838C43.2031 39.9407 43.3045 40.147 43.4017 40.2743C43.5643 40.487 43.8189 40.6137 44.0823 40.6137H61.2819C61.5453 40.6137 61.7999 40.487 61.9619 40.2743C62.0597 40.1476 62.1611 39.9413 62.091 39.6838C60.9443 35.4477 57.0753 32.4908 52.6818 32.4908H52.6818Z" fill="#E35D14"/>
</svg>
