<svg width="111" height="89" viewBox="0 0 111 89" fill="none" xmlns="http://www.w3.org/2000/svg">
<path d="M57.1325 61.3957H36.6673V47.7525H57.1325V61.3957ZM40.0784 57.9848H53.7217V51.1628H40.0784V57.9848Z" fill="black"/>
<path d="M58.8382 61.3957H34.9618C34.0197 61.3957 33.2562 60.6324 33.2562 59.6901C33.2562 58.7479 34.0196 57.9846 34.9618 57.9846H58.8382C59.7803 57.9846 60.5438 58.7479 60.5438 59.6901C60.5438 60.6324 59.7798 61.3957 58.8382 61.3957Z" fill="black"/>
<path d="M79.3034 42.6361H14.4965V8.52784C14.4965 5.70644 16.7915 3.41129 19.613 3.41129H74.1881C77.0095 3.41129 79.3046 5.70628 79.3046 8.52784L79.3034 42.6361ZM17.9076 39.2251H75.8922V8.528C75.8922 7.58772 75.127 6.82243 74.1867 6.82243H19.6132C18.6729 6.82243 17.9076 7.58764 17.9076 8.528V39.2251Z" fill="#E35D14"/>
<path d="M92.9464 85.2721H67.3644C65.4832 85.2721 63.9534 83.7423 63.9534 81.8611L63.954 42.6362C63.954 40.755 65.4839 39.2252 67.365 39.2252H92.947C94.8282 39.2252 96.358 40.755 96.358 42.6362V81.8611C96.3573 83.7423 94.8275 85.2721 92.9464 85.2721H92.9464ZM67.3644 42.636V81.861H92.9464V42.636H67.3644Z" fill="black"/>
<path d="M67.3644 51.1639H19.6116C16.7902 51.1639 14.4951 48.8689 14.4951 46.0473V39.2254H67.3646L67.3644 51.1639ZM17.9077 42.6364V46.0473C17.9077 46.9876 18.6729 47.7529 19.6132 47.7529H63.9549V42.6364H17.9077Z" fill="black"/>
<path d="M82.7129 57.9846C82.455 57.9846 82.1939 57.9264 81.9508 57.8046L78.5398 56.099C77.6973 55.6777 77.3558 54.6533 77.7771 53.8108C78.1983 52.9689 79.2221 52.625 80.0653 53.0481L82.2032 54.117L86.466 48.4339C87.0314 47.6816 88.0997 47.5276 88.8531 48.093C89.6066 48.6578 89.7594 49.7267 89.194 50.4802L84.0774 57.3021C83.7471 57.7438 83.2361 57.9845 82.7128 57.9845L82.7129 57.9846Z" fill="#E35D14"/>
<path d="M82.7129 68.218C82.455 68.218 82.1939 68.1599 81.9508 68.038L78.5398 66.3325C77.6973 65.9112 77.3558 64.8868 77.7771 64.0443C78.1983 63.2023 79.2221 62.8602 80.0653 63.2815L82.2032 64.3505L86.466 58.6673C87.0314 57.9163 88.0997 57.761 88.8531 58.3264C89.6066 58.8912 89.7594 59.9601 89.194 60.7136L84.0774 67.5356C83.7471 67.9773 83.2361 68.2179 82.7128 68.2179L82.7129 68.218Z" fill="#E35D14"/>
<path d="M82.7129 78.4499C82.455 78.4499 82.1939 78.3917 81.9508 78.2699L78.5398 76.5643C77.6973 76.143 77.3558 75.1186 77.7771 74.2761C78.1983 73.4342 79.2221 73.0908 80.0653 73.5134L82.2032 74.5823L86.466 68.8991C87.0314 68.1469 88.0997 67.9923 88.8531 68.5583C89.6066 69.1231 89.7594 70.192 89.194 70.9455L84.0774 77.7674C83.7471 78.2091 83.2361 78.4497 82.7128 78.4497L82.7129 78.4499Z" fill="#E35D14"/>
</svg>
