<svg width="112" height="89" viewBox="0 0 112 89" fill="none" xmlns="http://www.w3.org/2000/svg">
<path d="M67.3135 8.91569H44.5999C43.2005 8.91569 42.0618 10.0407 42.0618 11.4246V27.3371L40.3068 38.1473C40.2243 38.6573 40.3699 39.176 40.7068 39.5703C41.0468 39.9677 41.543 40.1959 42.0699 40.1959H69.9339C70.4627 40.1959 70.9608 39.9658 71.3008 39.5653C71.6383 39.1679 71.782 38.6461 71.6945 38.1343L69.8539 27.3345L69.8533 11.4244C69.8533 10.0406 68.7145 8.91553 67.3145 8.91553L67.3135 8.91569ZM43.7199 28.3014H48.638L48.2523 32.1904H43.0887L43.7199 28.3014ZM50.4386 28.3014H55.1524V32.1904H50.053L50.4386 28.3014ZM55.1524 33.9734V38.4239L49.4349 38.4282L49.8762 33.9739L55.1524 33.9734ZM56.9442 33.9734H62.2199L62.6605 38.4183L56.9442 38.4227L56.9442 33.9734ZM56.9442 32.1904V28.3014H61.6573L62.043 32.1904H56.9442ZM63.458 28.3014H68.1999L68.8662 32.1904H63.843L63.458 28.3014ZM43.8532 11.4249C43.8532 11.025 44.1875 10.6991 44.5994 10.6991H67.313C67.7249 10.6991 68.0593 11.025 68.0593 11.4249V26.5178H43.8529L43.8532 11.4249ZM42.7994 33.9726H48.0758L47.6339 38.428L42.0752 38.4317L42.7994 33.9726ZM64.4602 38.4162L64.0196 33.9726H69.1708L69.9314 38.4126L64.4602 38.4162Z" fill="black"/>
<path d="M90.944 78.46H88.2233L88.224 21.094C88.224 20.6014 87.8227 20.2021 87.3277 20.2021H77.0746C76.5796 20.2021 76.1783 20.6014 76.1783 21.094V78.46H70.8502L70.8508 47.0998C70.8508 46.6072 70.4495 46.208 69.9545 46.208L59.7014 46.2086C59.2064 46.2086 58.8051 46.6079 58.8051 47.1004V78.4606H53.1946L53.1952 53.5247C53.1952 53.0321 52.794 52.6328 52.299 52.6328H42.0458C41.5508 52.6328 41.1496 53.0321 41.1496 53.5247V78.4606H35.7352L35.7358 47.1004C35.7358 46.6079 35.3346 46.2086 34.8395 46.2086L24.5864 46.2092C24.0914 46.2092 23.6902 46.6085 23.6902 47.1011V78.4612H21.0564C20.5614 78.4612 20.1602 78.8605 20.1602 79.3531C20.1602 79.8456 20.5614 80.2449 21.0564 80.2449H90.9444C91.4394 80.2449 91.8407 79.8456 91.8407 79.3531C91.84 78.8605 91.4388 78.4612 90.9438 78.4612L90.944 78.46ZM77.9708 21.9856H86.4321V78.46H77.9708V21.9856ZM60.598 47.9914H69.0593V78.46H60.598V47.9914ZM42.942 54.4153H51.4033V78.4597H42.942V54.4153ZM25.4828 47.9914H33.9441L33.9447 78.46H25.4835L25.4828 47.9914Z" fill="#E35D14"/>
</svg>
