<svg width="113" height="89" viewBox="0 0 113 89" fill="none" xmlns="http://www.w3.org/2000/svg">
<path d="M39.9212 80.7498C40.2775 81.1681 40.7984 81.4085 41.3495 81.4085H71.6512C72.2055 81.4085 72.7277 81.1662 73.0846 80.7435C73.4383 80.3245 73.5884 79.7749 73.4963 79.2367L71.4943 67.4209V50.0166C71.4943 48.5427 70.2874 47.3439 68.8043 47.3439L44.1009 47.3433C42.6177 47.3433 41.4108 48.5427 41.4108 50.016V67.4235L39.5014 79.2515C39.415 79.789 39.5676 80.3354 39.9208 80.7506L39.9212 80.7498ZM43.0856 68.4007H48.5715L48.1383 72.7947H42.3762L43.0856 68.4007ZM50.3876 68.4007H55.6479V72.7947H49.9543L50.3876 68.4007ZM55.6479 74.6036V79.5679L49.288 79.5553L49.776 74.6036L55.6479 74.6036ZM57.4558 74.6036H63.3271L63.8183 79.5837L57.4558 79.5711V74.6036ZM57.4558 72.7947V68.4007H62.7161L63.1493 72.7947H57.4558ZM64.5328 68.4007H69.8222L70.5397 72.7947H64.9661L64.5328 68.4007ZM69.6859 66.5918H43.2197V53.9222H69.6859V66.5918ZM41.2874 79.5396L42.0845 74.6036H47.9601L47.4721 79.5516L41.2874 79.5396ZM65.6357 79.5876L65.1444 74.6038H70.8354L71.6514 79.5997L65.6357 79.5876ZM44.1011 49.1531H68.8029C69.2891 49.1531 69.6851 49.5405 69.6851 50.0169V52.1135H43.2189V50.0169C43.2189 49.5399 43.6149 49.1531 44.101 49.1531H44.1011Z" fill="black"/>
<path d="M87.4684 42.9365C84.6057 42.9365 82.2762 45.278 82.2762 48.1564C82.2762 51.0341 84.6057 53.3762 87.4684 53.3762C90.3312 53.3756 92.6606 51.0341 92.6606 48.1564C92.6606 45.2786 90.3312 42.9365 87.4684 42.9365ZM87.4684 51.5668C85.602 51.5668 84.0841 50.0367 84.0841 48.1565C84.0841 46.2756 85.6019 44.7462 87.4684 44.7462C89.3349 44.7456 90.8528 46.2757 90.8528 48.1565C90.8528 50.0368 89.335 51.5668 87.4684 51.5668Z" fill="#E35D14"/>
<path d="M75.8569 70.9872C76.8343 71.9658 78.1352 72.504 79.5199 72.504H79.535C80.9242 72.5003 82.2313 71.9557 83.2157 70.9702C85.25 68.9346 85.2575 65.631 83.2328 63.6056C81.2086 61.5809 77.9069 61.5878 75.8726 63.6226C73.8396 65.6575 73.8326 68.9619 75.8569 70.9872L75.8569 70.9872ZM77.1521 64.9016C77.8199 64.2341 78.6958 63.8997 79.5698 63.8997C80.4356 63.8997 81.2989 64.2277 81.9559 64.8846C83.2751 66.2046 83.2675 68.3611 81.9389 69.6906C81.2944 70.3354 80.4393 70.6919 79.5313 70.6944H79.5219C78.6189 70.6944 77.7726 70.3443 77.1365 69.7076C75.816 68.3877 75.8236 66.2316 77.1522 64.9016H77.1521Z" fill="#E35D14"/>
<path d="M29.7657 63.6054C27.7409 65.6307 27.7492 68.9344 29.7827 70.9699C30.7671 71.9554 32.0742 72.4999 33.4635 72.5037H33.4786C34.864 72.5037 36.1643 71.9655 37.1416 70.9869C39.1664 68.9616 39.1588 65.6573 37.1246 63.6224C35.0922 61.5875 31.7905 61.5799 29.7657 63.6054L29.7657 63.6054ZM35.864 69.7079C35.2278 70.3445 34.3815 70.6947 33.4786 70.6947H33.4691C32.5605 70.6922 31.7054 70.3357 31.0616 69.6909C29.7323 68.3608 29.7248 66.2049 31.0446 64.8849C31.7016 64.2274 32.5649 63.9 33.4306 63.9C34.3046 63.9 35.1805 64.2344 35.8484 64.9019C37.1764 66.2313 37.1839 68.3873 35.8641 69.7079H35.864Z" fill="#E35D14"/>
<path d="M79.5697 23.2354H79.5545C78.1654 23.2392 76.8582 23.7837 75.8738 24.7692C73.8401 26.8041 73.8321 30.1078 75.8568 32.1331C76.8348 33.1117 78.135 33.6506 79.5204 33.6499H79.5355C80.9247 33.6462 82.2319 33.1016 83.2163 32.1167C85.2506 30.0812 85.258 26.7775 83.2333 24.7522C82.2559 23.7736 80.9551 23.2354 79.5697 23.2354V23.2354ZM81.9382 30.837C81.2937 31.4819 80.4386 31.8384 79.5306 31.8402H79.5212C78.6182 31.8402 77.7713 31.4901 77.1351 30.8534C75.8159 29.5335 75.8235 27.3769 77.1521 26.0474C77.7966 25.4026 78.6516 25.0461 79.5597 25.0436H79.5691C80.4721 25.0436 81.3184 25.3938 81.9552 26.0304C83.275 27.351 83.2668 29.5075 81.9382 30.837V30.837Z" fill="#E35D14"/>
<path d="M33.4463 23.2354H33.4312C32.0458 23.2354 30.7449 23.7736 29.7669 24.7522C27.7428 26.7775 27.7504 30.0812 29.784 32.1167C30.7683 33.1023 32.0754 33.6468 33.4647 33.6499H33.4798C34.8652 33.6499 36.1655 33.1117 37.1435 32.1331C39.1683 30.1078 39.16 26.8041 37.1264 24.7692C36.1427 23.7837 34.8356 23.2391 33.4463 23.2354V23.2354ZM35.8652 30.8541C35.2289 31.4908 34.3821 31.841 33.4791 31.841H33.4697C32.5616 31.8391 31.7065 31.4826 31.0621 30.8377C29.7335 29.5077 29.7253 27.3517 31.0451 26.0317C31.6813 25.3951 32.5282 25.0449 33.4312 25.0449H33.4406C34.3493 25.0475 35.2044 25.4039 35.8482 26.0488C37.1774 27.3776 37.185 29.5341 35.8652 30.8541V30.8541Z" fill="#E35D14"/>
<path d="M20.34 48.1573C20.34 51.0351 22.6694 53.3772 25.5322 53.3772C28.3949 53.3772 30.7243 51.0357 30.7243 48.1573C30.7243 45.2796 28.3949 42.9375 25.5322 42.9375C22.6694 42.9375 20.34 45.2796 20.34 48.1573ZM28.9165 48.1573C28.9165 50.0383 27.3987 51.5676 25.5322 51.5676C23.6662 51.5676 22.1478 50.0375 22.1478 48.1573C22.1478 46.2764 23.6656 44.7471 25.5322 44.7471C27.3986 44.7464 28.9165 46.2765 28.9165 48.1573Z" fill="#E35D14"/>
<path d="M83.5167 34.0998C83.0803 34.3434 82.9246 34.8942 83.1674 35.3308C84.0949 36.9934 84.8396 38.76 85.3813 40.5817C85.498 40.9741 85.858 41.2284 86.2471 41.2284C86.3329 41.2284 86.4192 41.2158 86.505 41.1905C86.9836 41.0479 87.256 40.5444 87.1135 40.0656C86.534 38.1172 85.737 36.2274 84.7457 34.4489C84.5036 34.0135 83.9531 33.8589 83.5167 34.0999L83.5167 34.0998Z" fill="#E35D14"/>
<path d="M84.1463 61.7689C84.4679 61.7689 84.7781 61.5973 84.9421 61.2951C85.9088 59.5088 86.6807 57.6097 87.2368 55.6487C87.373 55.1679 87.0943 54.6681 86.6138 54.5319C86.1333 54.3962 85.6339 54.6751 85.4977 55.1552C84.9774 56.9882 84.2554 58.7644 83.3518 60.4339C83.114 60.873 83.2774 61.422 83.7162 61.6598C83.8537 61.7336 84.0006 61.769 84.1463 61.769L84.1463 61.7689Z" fill="#E35D14"/>
<path d="M29.0442 62.1288C29.193 62.1288 29.3443 62.0922 29.4837 62.0146C29.9201 61.7711 30.0758 61.2202 29.8331 60.7836C28.9055 59.121 28.1608 57.3544 27.6191 55.5328C27.4759 55.0532 26.9708 54.7807 26.4947 54.9239C26.0161 55.0665 25.7437 55.57 25.8862 56.0489C26.4657 57.9972 27.2628 59.887 28.2541 61.6656C28.4193 61.9615 28.727 62.1287 29.0442 62.1287V62.1288Z" fill="#E35D14"/>
<path d="M25.764 40.4653C25.6278 40.9461 25.9065 41.4458 26.387 41.5821C26.4697 41.6055 26.5529 41.6168 26.6342 41.6168C27.0283 41.6168 27.3903 41.3569 27.5032 40.9588C28.0234 39.1258 28.7454 37.3497 29.649 35.6801C29.8868 35.241 29.7234 34.6921 29.2846 34.4542C28.8457 34.217 28.2977 34.3798 28.0593 34.8189C27.092 36.6052 26.3203 38.5049 25.764 40.4653L25.764 40.4653Z" fill="#E35D14"/>
<path d="M56.5 40.2521C65.0986 40.2521 72.0943 33.2523 72.0943 24.6485C72.0943 16.0447 65.0986 9.04492 56.5 9.04492C47.9013 9.04492 40.9056 16.0447 40.9056 24.6485C40.9056 33.2523 47.9013 40.2521 56.5 40.2521ZM56.5 10.8546C64.1017 10.8546 70.2863 17.043 70.2863 24.6492C70.2863 32.2553 64.1017 38.443 56.5 38.443C48.8983 38.443 42.7136 32.2547 42.7136 24.6492C42.7136 17.043 48.8983 10.8546 56.5 10.8546Z" fill="#E35D14"/>
<path d="M56.4209 25.5536H56.5779C58.2104 25.5536 59.5378 26.8792 59.5378 28.5077C59.5378 30.1369 58.2098 31.4625 56.5779 31.4625C54.9459 31.4625 53.6179 30.1375 53.6179 28.5077C53.6179 28.008 53.2131 27.6029 52.7137 27.6029C52.2142 27.6029 51.8094 28.008 51.8094 28.5077C51.8094 30.7975 53.4363 32.713 55.5947 33.1674V34.045C55.5947 34.5448 55.9996 34.9498 56.499 34.9498C56.9984 34.9498 57.4033 34.5448 57.4033 34.045L57.4039 33.1882C59.6393 32.7951 61.3463 30.8518 61.3463 28.5077C61.3463 25.881 59.2074 23.744 56.5785 23.744H56.4215C54.789 23.744 53.4615 22.4184 53.4615 20.7893C53.4615 19.1601 54.7895 17.8351 56.4215 17.8351C58.0534 17.8351 59.3814 19.1608 59.3814 20.7899C59.3814 21.2896 59.7863 21.6947 60.2857 21.6947C60.7851 21.6947 61.19 21.2896 61.19 20.7899C61.19 18.5001 59.5631 16.5846 57.4046 16.1303V15.252C57.4046 14.7522 56.9998 14.3472 56.5004 14.3472C56.0009 14.3472 55.5961 14.7522 55.5961 15.252V16.1094C53.3606 16.5025 51.6537 18.4452 51.6537 20.7893C51.6531 23.4166 53.792 25.5536 56.4208 25.5536H56.4209Z" fill="#E35D14"/>
</svg>
