<svg width="116" height="89" viewBox="0 0 116 89" fill="none" xmlns="http://www.w3.org/2000/svg">
<path d="M81.9526 57.5115C78.972 57.5115 76.232 58.5403 74.0495 60.2496L71.1121 57.3819C73.6411 54.3607 75.1698 50.4739 75.1698 46.2336C75.1698 41.5393 73.2936 37.281 70.2619 34.1488L72.9929 31.3515C75.3052 33.578 78.4405 34.9557 81.8965 34.9557C88.9845 34.9557 94.7508 29.1894 94.7508 22.1008C94.7502 15.0128 88.9838 9.24646 81.8958 9.24646C74.8079 9.24646 69.0415 15.0128 69.0415 22.1014C69.0415 25.0672 70.0613 27.7943 71.7545 29.9717L68.9106 32.8846C65.8952 30.3646 62.0188 28.843 57.792 28.843C53.0963 28.843 48.8369 30.7245 45.7067 33.7637L42.8816 31.0051C45.1081 28.6927 46.4859 25.5574 46.4859 22.1014C46.4859 15.0128 40.7189 9.24646 33.6316 9.24646C26.543 9.24646 20.7761 15.0128 20.7761 22.1014C20.7761 29.1894 26.5425 34.9564 33.6311 34.9564C36.5975 34.9564 39.3244 33.9366 41.5021 32.2421L44.4445 35.1156C41.9315 38.1323 40.4146 42.008 40.4146 46.2335C40.4146 50.913 42.2806 55.1591 45.2954 58.2879L42.5347 61.115C40.2224 58.8885 37.0871 57.5107 33.6311 57.5107C26.5425 57.5107 20.7761 63.277 20.7761 70.3657C20.7761 77.4543 26.5431 83.2206 33.6316 83.2206C40.7196 83.2206 46.4859 77.4543 46.4859 70.3657C46.4859 67.3999 45.4661 64.6728 43.773 62.4954L46.6439 59.5554C49.6638 62.0908 53.5506 63.6241 57.7922 63.6241C62.4737 63.6241 66.7203 61.7537 69.848 58.7305L72.6763 61.4918C70.4659 63.8015 69.0992 66.9246 69.0992 70.3657C69.0985 77.4543 74.8655 83.2206 81.9528 83.2206C89.0414 83.2206 94.8083 77.4543 94.8083 70.3657C94.8083 63.2777 89.0413 57.5114 81.9528 57.5114L81.9526 57.5115ZM75.3014 30.8908C75.4098 28.0682 77.25 25.6462 79.9719 24.8193C80.3279 24.7109 80.5852 24.3988 80.6227 24.0285C80.6607 23.6577 80.4717 23.301 80.1447 23.1223C78.8605 22.4231 78.0634 21.0822 78.0634 19.6226C78.0634 17.427 79.8493 15.641 82.0456 15.641C84.2405 15.641 86.0271 17.427 86.0271 19.6226C86.0271 21.1254 85.1919 22.4851 83.8464 23.17C83.5142 23.3396 83.3162 23.6918 83.3446 24.064C83.3723 24.4362 83.6219 24.7542 83.976 24.8715C86.6057 25.7423 88.3839 28.1429 88.4917 30.8907C86.6515 32.2755 84.3722 33.1069 81.8967 33.1069C79.4212 33.1063 77.1417 32.2749 75.3016 30.8907L75.3014 30.8908ZM81.896 11.0961C87.9642 11.0961 92.901 16.0336 92.901 22.1018C92.901 24.8811 91.8574 27.416 90.1514 29.3548C89.6451 27.0181 88.1861 24.9965 86.1059 23.8071C87.225 22.7274 87.8765 21.2316 87.8765 19.623C87.8765 16.4076 85.2603 13.7922 82.0458 13.7922C78.8304 13.7922 76.2144 16.4084 76.2144 19.623C76.2144 21.1684 76.8245 22.6229 77.8733 23.6968C75.6875 24.8668 74.1575 26.9335 73.6395 29.3535C71.9348 27.4147 70.891 24.8804 70.891 22.1018C70.891 16.0336 75.8278 11.0961 81.896 11.0961ZM22.626 22.1018C22.626 16.0336 27.5641 11.0961 33.6322 11.0961C39.7004 11.0961 44.6372 16.0336 44.6372 22.1018C44.6372 24.8811 43.5936 27.416 41.8876 29.3548C41.3813 27.0181 39.9224 24.9965 37.8422 23.8071C38.9612 22.7274 39.6127 21.2316 39.6127 19.623C39.6127 16.4076 36.9966 13.7922 33.7814 13.7922C30.5666 13.7922 27.9506 16.4084 27.9506 19.623C27.9506 21.1684 28.5608 22.6229 29.6096 23.6968C27.4237 24.8668 25.8937 26.9335 25.3757 29.3535C23.6697 27.4147 22.6261 24.8804 22.6261 22.1018H22.626ZM27.0372 30.8911C27.1455 28.0686 28.9858 25.6459 31.7076 24.8196C32.0636 24.7113 32.321 24.3991 32.3584 24.0289C32.3965 23.658 32.2075 23.3013 31.8805 23.1226C30.5963 22.4234 29.7991 21.0826 29.7991 19.6229C29.7991 17.4273 31.5851 15.6413 33.7807 15.6413C35.9769 15.6413 37.7629 17.4273 37.7629 19.6229C37.7629 21.1258 36.9276 22.4854 35.5821 23.1704C35.25 23.34 35.052 23.6922 35.0803 24.0643C35.1081 24.4365 35.3577 24.7545 35.7118 24.8719C38.3415 25.7426 40.1197 28.1432 40.2275 30.891C38.3872 32.2758 36.1079 33.1073 33.6324 33.1073C31.1569 33.1066 28.8781 32.2758 27.0373 30.891L27.0372 30.8911ZM27.0372 79.1559C27.1455 76.3333 28.9858 73.9113 31.7076 73.0844C32.0636 72.976 32.321 72.6638 32.3584 72.2936C32.3965 71.9227 32.2075 71.5661 31.8805 71.3874C30.5963 70.6882 29.7991 69.3473 29.7991 67.8876C29.7991 65.692 31.5851 63.9061 33.7807 63.9061C35.9769 63.9061 37.7629 65.692 37.7629 67.8876C37.7629 69.3905 36.9276 70.7502 35.5821 71.4351C35.25 71.6047 35.052 71.9569 35.0803 72.3291C35.1081 72.7012 35.3577 73.0192 35.7118 73.1366C38.3415 74.0074 40.1197 76.408 40.2268 79.1558C38.3866 80.5399 36.1072 81.3713 33.6322 81.3713C31.1568 81.3713 28.8779 80.5399 27.0372 79.1558V79.1559ZM41.8878 77.6188C41.3815 75.282 39.9225 73.26 37.8423 72.0711C38.9614 70.9914 39.6129 69.4956 39.6129 67.8869C39.6129 64.6716 36.9967 62.0562 33.7815 62.0562C30.5668 62.0562 27.9508 64.6724 27.9508 67.8869C27.9508 69.4324 28.5609 70.8869 29.6097 71.9615C27.4239 73.1315 25.8939 75.1982 25.3759 77.6182C23.6705 75.6793 22.627 73.1451 22.627 70.3657C22.627 64.2976 27.5644 59.3601 33.6326 59.3601C39.7008 59.3601 44.6375 64.2976 44.6375 70.3657C44.6369 73.1451 43.5933 75.68 41.8879 77.6188H41.8878ZM57.7929 61.775C49.2305 61.775 42.2651 54.8031 42.2651 46.2337C42.2651 37.6643 49.2305 30.6924 57.7929 30.6924C66.3552 30.6924 73.3206 37.6643 73.3206 46.2337C73.3206 54.8031 66.3552 61.775 57.7929 61.775ZM75.3584 79.1556C75.4667 76.3337 77.307 73.911 80.0288 73.0848C80.3849 72.9764 80.6422 72.6642 80.6796 72.294C80.7177 71.9231 80.5287 71.5664 80.2017 71.3878C78.9175 70.6886 78.1203 69.3477 78.1203 67.888C78.1203 65.6924 79.9063 63.9065 82.1026 63.9065C84.2975 63.9065 86.0841 65.6924 86.0841 67.888C86.0841 69.3909 85.2488 70.7506 83.9034 71.4355C83.5712 71.6051 83.3732 71.9573 83.4015 72.3295C83.4293 72.7016 83.6789 73.0196 84.033 73.137C86.6627 74.0078 88.4409 76.4084 88.548 79.1561C86.7073 80.5403 84.4285 81.3717 81.953 81.3717C79.4781 81.3717 77.1987 80.5403 75.3584 79.1555V79.1556ZM90.209 77.6199C89.7027 75.2831 88.2437 73.261 86.1636 72.0715C87.2826 70.9917 87.9341 69.4959 87.9341 67.8873C87.9341 64.6719 85.318 62.0566 82.1034 62.0566C78.888 62.0566 76.272 64.6727 76.272 67.8873C76.272 69.4327 76.8822 70.8872 77.931 71.9618C75.7451 73.1319 74.2157 75.1979 73.6971 77.6179C71.9924 75.679 70.9487 73.1448 70.9487 70.3661C70.9487 64.2979 75.8854 59.3605 81.9536 59.3605C88.0211 59.3611 92.9593 64.2979 92.9593 70.3661C92.9593 73.1461 91.915 75.681 90.209 77.6199Z" fill="#E35D14"/>
<path d="M57.8583 45.3091H57.7267C56.4444 45.3091 55.4008 44.27 55.4008 42.9923C55.4008 41.7145 56.4444 40.6748 57.7267 40.6748C59.0089 40.6748 60.0526 41.7146 60.0526 42.9923C60.0526 43.5032 60.466 43.9172 60.9775 43.9172C61.4884 43.9172 61.9024 43.5032 61.9024 42.9923C61.9024 41.0128 60.5092 39.3583 58.6516 38.9366V38.34C58.6516 37.8291 58.2381 37.415 57.7266 37.415C57.2158 37.415 56.8017 37.8291 56.8017 38.34V38.9366C54.9441 39.3584 53.5508 41.0128 53.5508 42.9923C53.5508 45.2898 55.4239 47.159 57.7265 47.159H57.8581C59.1404 47.159 60.184 48.1981 60.184 49.4758C60.184 50.7535 59.1404 51.7932 57.8581 51.7932C56.5758 51.7932 55.5322 50.7535 55.5322 49.4758C55.5322 48.9649 55.1188 48.5508 54.6073 48.5508C54.0964 48.5508 53.6823 48.9649 53.6823 49.4758C53.6823 51.4069 55.0117 53.0207 56.8016 53.4908V54.1281C56.8016 54.639 57.2151 55.0531 57.7266 55.0531C58.2374 55.0531 58.6515 54.639 58.6515 54.1281V53.5624C60.5755 53.1916 62.0338 51.5022 62.0338 49.4757C62.0338 47.1782 60.1607 45.309 57.8581 45.309L57.8583 45.3091Z" fill="black"/>
<path d="M57.7922 33.6301C50.8474 33.6301 45.1973 39.2842 45.1973 46.2341C45.1973 53.1834 50.8475 58.8381 57.7922 58.8381C64.7368 58.8381 70.3871 53.1834 70.3871 46.2341C70.3871 39.2849 64.7368 33.6301 57.7922 33.6301ZM57.7922 56.9881C51.8665 56.9881 47.0465 52.1634 47.0465 46.2339C47.0465 40.3038 51.8665 35.4798 57.7922 35.4798C63.7179 35.4798 68.5379 40.3038 68.5379 46.2339C68.5379 52.1641 63.7179 56.9881 57.7922 56.9881Z" fill="black"/>
<path d="M37.2182 44.0195C37.1214 43.7209 36.8802 43.4919 36.577 43.4113L32.2484 42.2561L29.8096 38.5124C29.4684 37.9887 28.6015 37.9887 28.2603 38.5124L25.8215 42.2561L21.4922 43.4113C21.189 43.4919 20.9478 43.7209 20.851 44.0195C20.7543 44.3181 20.8149 44.6445 21.0129 44.8883L23.8322 48.3559L23.5974 52.8115C23.5813 53.1237 23.7238 53.4236 23.9773 53.6074C24.2295 53.7919 24.5578 53.8332 24.8513 53.7235L29.0348 52.1233L33.2196 53.7235C33.3273 53.7648 33.4389 53.7848 33.5499 53.7848C33.7421 53.7848 33.9336 53.7242 34.0942 53.6081C34.3471 53.4236 34.4896 53.1243 34.4735 52.8115L34.2381 48.3559L37.0573 44.8883C37.2541 44.6445 37.3147 44.3175 37.218 44.0195H37.2182ZM32.578 47.4651C32.4335 47.6431 32.3606 47.8682 32.3722 48.0972L32.5509 51.488L29.3652 50.2695C29.2588 50.2289 29.1465 50.2083 29.0349 50.2083C28.9227 50.2083 28.8111 50.2289 28.7047 50.2695L25.519 51.488L25.6977 48.0965C25.7093 47.8682 25.6364 47.6424 25.4919 47.4651L23.348 44.8296L26.6395 43.9517C26.8601 43.8924 27.051 43.7544 27.1762 43.5628L29.0344 40.7111L30.8927 43.5628C31.0172 43.7544 31.2088 43.8924 31.4293 43.9517L34.7209 44.8296L32.578 47.4651Z" fill="black"/>
<path d="M94.7346 44.0195C94.6378 43.7209 94.3966 43.4919 94.0935 43.4113L89.7642 42.2561L87.3253 38.5124C86.9841 37.9887 86.1173 37.9887 85.7761 38.5124L83.3367 42.2561L79.0074 43.4113C78.7043 43.4919 78.4631 43.7209 78.3663 44.0195C78.2696 44.3181 78.3302 44.6445 78.5282 44.8883L81.3475 48.3559L81.112 52.8108C81.0959 53.123 81.2385 53.4229 81.4913 53.6074C81.6519 53.7241 81.8435 53.7841 82.0357 53.7841C82.1466 53.7841 82.2589 53.7641 82.3659 53.7228L86.5507 52.1226L90.7342 53.7235C91.0283 53.8357 91.3567 53.7919 91.6082 53.6074C91.8617 53.4229 92.0049 53.1236 91.9881 52.8115L91.7533 48.3558L94.5726 44.8883C94.7706 44.6445 94.8312 44.3175 94.7345 44.0195L94.7346 44.0195ZM90.0939 47.4651C89.9494 47.6431 89.8765 47.8682 89.8881 48.0965L90.0668 51.4879L86.8811 50.2695C86.6683 50.1883 86.4335 50.1883 86.22 50.2695L83.0343 51.4879L83.213 48.0972C83.2246 47.8682 83.1517 47.6431 83.0072 47.4651L80.8645 44.8296L84.156 43.9517C84.3766 43.8924 84.5675 43.7544 84.6926 43.5628L86.5509 40.7112L88.4091 43.5628C88.5336 43.7544 88.7252 43.8924 88.9458 43.9517L92.2373 44.8296L90.0939 47.4651Z" fill="black"/>
<path d="M65.9756 15.1738C65.8788 14.8752 65.6376 14.6462 65.3345 14.5656L61.0065 13.4104L58.5665 9.66674C58.2253 9.14299 57.3584 9.14299 57.0172 9.66674L54.5772 13.4104L50.2492 14.5656C49.9461 14.6462 49.7048 14.8752 49.6081 15.1738C49.5114 15.4724 49.572 15.7988 49.77 16.0426L52.5893 19.5101L52.3545 23.9658C52.3384 24.2779 52.4809 24.5779 52.7344 24.7617C52.9866 24.9462 53.3142 24.9881 53.6084 24.8778L57.7919 23.2769L61.9754 24.8771C62.0831 24.9184 62.1947 24.9384 62.3056 24.9384C62.4978 24.9384 62.6894 24.8784 62.8494 24.7617C63.1029 24.5772 63.246 24.2779 63.2293 23.9658L62.9945 19.5101L65.8137 16.0426C66.0118 15.7988 66.0724 15.4724 65.9756 15.1738L65.9756 15.1738ZM61.3354 18.6194C61.1909 18.7974 61.118 19.0225 61.1296 19.2508L61.3083 22.6422L58.1226 21.4232C58.0155 21.3825 57.9039 21.3625 57.7917 21.3625C57.6795 21.3625 57.5679 21.3832 57.4615 21.4238L54.2758 22.6429L54.4545 19.2515C54.4661 19.0231 54.3932 18.7974 54.2487 18.62L52.1059 15.9845L55.3974 15.1067C55.618 15.0473 55.809 14.9093 55.9341 14.7177L57.7917 11.8649L59.65 14.7171C59.7744 14.9086 59.966 15.0467 60.1866 15.106L63.4781 15.9839L61.3354 18.6194Z" fill="black"/>
<path d="M65.9756 73.4556C65.8789 73.157 65.6376 72.928 65.3345 72.8474L61.0065 71.6922L58.5665 67.9486C58.2253 67.4248 57.3584 67.4248 57.0172 67.9486L54.5772 71.6922L50.2492 72.8474C49.9461 72.928 49.7048 73.157 49.6081 73.4556C49.5114 73.7543 49.572 74.0807 49.77 74.3245L52.5893 77.792L52.3545 82.2476C52.3384 82.5598 52.4809 82.8597 52.7344 83.0435C52.9866 83.2274 53.3142 83.2699 53.6084 83.1596L57.7919 81.5594L61.9754 83.1596C62.0831 83.2003 62.1947 83.2209 62.3063 83.2209C62.4985 83.2209 62.69 83.1609 62.85 83.0442C63.1035 82.8597 63.2467 82.5604 63.2299 82.2482L62.9951 77.7926L65.8144 74.3251C66.0118 74.0813 66.0724 73.7543 65.9757 73.4556L65.9756 73.4556ZM61.3354 76.9019C61.1909 77.0799 61.118 77.305 61.1296 77.5333L61.3083 80.9247L58.1226 79.7057C58.0155 79.665 57.904 79.6444 57.7917 79.6444C57.6795 79.6444 57.5679 79.665 57.4615 79.7057L54.2758 80.9247L54.4545 77.5333C54.4661 77.305 54.3932 77.0792 54.2487 76.9019L52.1059 74.2664L55.3974 73.3885C55.618 73.3292 55.809 73.1912 55.9341 72.9996L57.7917 70.1475L59.65 72.9996C59.7745 73.1912 59.966 73.3292 60.1866 73.3885L63.4781 74.2664L61.3354 76.9019Z" fill="black"/>
</svg>
