<svg width="112" height="89" viewBox="0 0 112 89" fill="none" xmlns="http://www.w3.org/2000/svg">
<path d="M29.7999 52.6099V75.1978C29.7999 77.8223 31.9348 79.9572 34.5593 79.9572H76.494C79.1185 79.9572 81.2533 77.8223 81.2533 75.1978V52.6099C86.7211 52.253 91.0633 47.7036 91.0633 42.1474C91.0633 36.5912 86.7211 32.0412 81.2533 31.6843V13.6431C81.2533 11.0187 79.1185 8.88379 76.494 8.88379H34.5593C31.9348 8.88379 29.7999 11.0187 29.7999 13.6431V31.6843C24.3322 32.0412 19.9899 36.5912 19.9899 42.1474C19.9899 47.7036 24.3322 52.253 29.7999 52.6099ZM31.5766 18.7312H79.4764V31.7054C74.1978 32.252 70.0673 36.7257 70.0673 42.1468C70.0673 47.5674 74.1976 52.041 79.4764 52.5875V63.6147H31.5766V52.5882C36.8552 52.0416 40.9857 47.5678 40.9857 42.1474C40.9857 36.727 36.8554 32.2526 31.5766 31.706V18.7312ZM76.4938 78.1804H34.5591C32.9145 78.1804 31.5764 76.8424 31.5764 75.1977V65.392H79.4762V75.1977C79.4762 76.8423 78.1383 78.1804 76.4935 78.1804H76.4938ZM89.2865 42.1488C89.2865 46.9577 85.3743 50.87 80.5653 50.87C75.7563 50.87 71.8441 46.9579 71.8441 42.1488C71.8441 37.3398 75.7563 33.4276 80.5653 33.4276C85.3742 33.427 89.2865 37.3398 89.2865 42.1488ZM34.5602 10.6609H76.4949C78.1396 10.6609 79.4776 11.9989 79.4776 13.6436V16.9553H31.5779V13.6436C31.5779 11.9989 32.9158 10.6609 34.5606 10.6609H34.5602ZM30.4888 33.4265C35.2976 33.4265 39.21 37.3387 39.21 42.1477C39.21 46.9567 35.2978 50.8689 30.4888 50.8689C25.6798 50.8689 21.7676 46.9567 21.7676 42.1484C21.7676 37.3395 25.6798 33.4265 30.4888 33.4265Z" fill="#E35D14"/>
<path d="M30.4361 43.0357H30.5384C31.4425 43.0357 32.1781 43.7688 32.1781 44.6699C32.1781 45.5716 31.4425 46.3047 30.5384 46.3047C29.6342 46.3047 28.8992 45.5716 28.8992 44.6699C28.8992 44.1791 28.502 43.7812 28.0106 43.7812C27.5197 43.7812 27.1219 44.1791 27.1219 44.6699C27.1219 46.2235 28.1729 47.523 29.5982 47.9332V48.2902C29.5982 48.781 29.9954 49.1788 30.4869 49.1788C30.9777 49.1788 31.3755 48.781 31.3755 48.2902V47.9654C32.8535 47.5899 33.9548 46.2606 33.9548 44.6699C33.9548 42.7892 32.4216 41.259 30.5384 41.259H30.4361C29.532 41.259 28.7963 40.5259 28.7963 39.6242C28.7963 38.7225 29.5319 37.9893 30.4361 37.9893C31.3403 37.9893 32.0752 38.7225 32.0752 39.6242C32.0752 40.115 32.4725 40.5129 32.9639 40.5129C33.4547 40.5129 33.8526 40.115 33.8526 39.6242C33.8526 38.0706 32.8015 36.7711 31.3763 36.3609V36.0039C31.3763 35.5131 30.979 35.1152 30.4876 35.1152C29.9968 35.1152 29.5989 35.5131 29.5989 36.0039V36.3286C28.1209 36.7042 27.0197 38.0334 27.0197 39.6242C27.0197 41.5055 28.5528 43.0357 30.4361 43.0357Z" fill="black"/>
<path d="M79.6764 36.0045V36.3292C78.1984 36.7048 77.0972 38.034 77.0972 39.6248C77.0972 41.5055 78.6303 43.0363 80.5136 43.0363H80.6158C81.52 43.0363 82.2556 43.7694 82.2556 44.6705C82.2556 45.5722 81.52 46.3053 80.6158 46.3053C79.7117 46.3053 78.9767 45.5722 78.9767 44.6705C78.9767 44.1797 78.5795 43.7818 78.0881 43.7818C77.5972 43.7818 77.1994 44.1797 77.1994 44.6705C77.1994 46.2241 78.2504 47.5236 79.6757 47.9338V48.2908C79.6757 48.7816 80.0729 49.1794 80.5643 49.1794C81.0552 49.1794 81.453 48.7816 81.453 48.2908V47.966C82.931 47.5905 84.0322 46.2612 84.0322 44.6705C84.0322 42.7898 82.4991 41.2596 80.6158 41.2596H80.5136C79.6094 41.2596 78.8738 40.5265 78.8738 39.6248C78.8738 38.7231 79.6094 37.99 80.5136 37.99C81.4177 37.99 82.1527 38.7231 82.1527 39.6248C82.1527 40.1156 82.5499 40.5135 83.0414 40.5135C83.5322 40.5135 83.93 40.1156 83.93 39.6248C83.93 38.0712 82.879 36.7717 81.4537 36.3615V36.0045C81.4537 35.5137 81.0565 35.1158 80.5651 35.1158C80.0743 35.1165 79.6764 35.5143 79.6764 36.0045Z" fill="black"/>
<path d="M55.5259 67.8049C53.2521 67.8049 51.4023 69.6547 51.4023 71.9284C51.4023 74.2028 53.2521 76.0519 55.5259 76.0519C57.7996 76.0519 59.6494 74.2021 59.6494 71.9284C59.6494 69.6547 57.7996 67.8049 55.5259 67.8049ZM55.5259 74.2753C54.2313 74.2753 53.179 73.2224 53.179 71.9284C53.179 70.6345 54.2313 69.5816 55.5259 69.5816C56.8204 69.5816 57.8727 70.6345 57.8727 71.9284C57.8727 73.2224 56.8204 74.2753 55.5259 74.2753Z" fill="black"/>
<path d="M55.5258 33.3932C58.7992 33.3932 61.4627 30.7297 61.4627 27.4564C61.4627 24.1824 58.7992 21.5189 55.5258 21.5189C52.2525 21.5189 49.589 24.1824 49.589 27.4557C49.589 30.7297 52.2525 33.3932 55.5258 33.3932ZM55.5258 23.2957C57.82 23.2957 59.686 25.1617 59.686 27.4559C59.686 29.7501 57.82 31.6161 55.5258 31.6161C53.2317 31.6161 51.3657 29.7501 51.3657 27.4559C51.3657 25.1624 53.2317 23.2957 55.5258 23.2957Z" fill="black"/>
<path d="M47.3889 52.3164V59.2721C47.3889 59.7629 47.7862 60.1608 48.2776 60.1608H62.7751C63.2659 60.1608 63.6637 59.7629 63.6637 59.2721V52.3164C65.521 51.9087 66.9166 50.2504 66.9166 48.2722V42.064C66.9166 38.4727 63.9947 35.5508 60.4034 35.5508L50.6499 35.5502C47.0587 35.5502 44.1367 38.4715 44.1367 42.0634V48.2716C44.1367 50.2504 45.5317 51.9087 47.389 52.3164L47.3889 52.3164ZM45.9134 42.0633C45.9134 39.4519 48.0385 37.327 50.6498 37.327H60.4033C63.0147 37.327 65.1396 39.452 65.1396 42.0633V48.2716C65.1396 49.5749 64.0793 50.6351 62.7755 50.6351C62.2847 50.6351 61.8868 51.033 61.8868 51.5238V58.3839H49.166V51.5238C49.166 51.033 48.7688 50.6351 48.2773 50.6351C46.9735 50.6351 45.9132 49.5748 45.9132 48.2716L45.9134 42.0633Z" fill="black"/>
</svg>
