<svg width="114" height="89" viewBox="0 0 114 89" fill="none" xmlns="http://www.w3.org/2000/svg">
<path d="M56.0358 10.023V18.2212C56.0358 18.7246 56.4432 19.1326 56.9472 19.1326C57.4506 19.1326 57.8587 18.7246 57.8587 18.2212V10.023C57.8587 9.51961 57.4512 9.11157 56.9472 9.11157C56.4438 9.11157 56.0358 9.51961 56.0358 10.023Z" fill="#E35D14"/>
<path d="M40.0354 14.2894C39.7824 13.8534 39.225 13.7047 38.7903 13.9557C38.3543 14.2074 38.2049 14.7648 38.4566 15.2008L42.556 22.3008C42.7251 22.5932 43.0314 22.7565 43.346 22.7565C43.5011 22.7565 43.6574 22.7171 43.8004 22.6345C44.2364 22.3828 44.3858 21.8254 44.1341 21.3894L40.0354 14.2894Z" fill="#E35D14"/>
<path d="M33.7679 31.0344L26.6692 26.9351C26.2332 26.6827 25.6765 26.8321 25.4242 27.2687C25.1725 27.7041 25.3218 28.2615 25.7578 28.5138L32.8565 32.6132C32.9995 32.6958 33.1565 32.7352 33.311 32.7352C33.6262 32.7352 33.9319 32.5719 34.101 32.2795C34.3533 31.8441 34.204 31.2861 33.7679 31.0344H33.7679Z" fill="#E35D14"/>
<path d="M20.5042 45.5575C20.5042 46.0609 20.9115 46.4689 21.4156 46.4689H29.6132C30.1165 46.4689 30.5246 46.0609 30.5246 45.5575C30.5246 45.0542 30.1172 44.6461 29.6132 44.6461H21.4156C20.9115 44.6461 20.5042 45.0542 20.5042 45.5575Z" fill="#E35D14"/>
<path d="M32.7803 58.3706L25.6803 62.47C25.2443 62.7216 25.0949 63.279 25.3466 63.715C25.5157 64.0074 25.822 64.1707 26.1366 64.1707C26.2917 64.1707 26.4481 64.1313 26.5911 64.0487L33.6911 59.9493C34.1271 59.6977 34.2764 59.1403 34.0247 58.7043C33.7724 58.2676 33.215 58.1183 32.7803 58.3706H32.7803Z" fill="#E35D14"/>
<path d="M38.6605 77.0834C38.8035 77.1661 38.9605 77.2055 39.1149 77.2055C39.4302 77.2055 39.7359 77.0421 39.9049 76.7498L44.0032 69.6498C44.2549 69.2138 44.1055 68.657 43.6695 68.4047C43.2341 68.1537 42.6767 68.3018 42.4244 68.7384L38.3262 75.8384C38.0751 76.2744 38.2245 76.8318 38.6605 77.0834H38.6605Z" fill="#E35D14"/>
<path d="M56.947 82.0036C57.4504 82.0036 57.8584 81.5956 57.8584 81.0922V72.894C57.8584 72.3906 57.451 71.9825 56.947 71.9825C56.4436 71.9825 56.0356 72.3906 56.0356 72.894V81.0922C56.0356 81.5956 56.4436 82.0036 56.947 82.0036Z" fill="#E35D14"/>
<path d="M74.6494 77.2803C74.8044 77.2803 74.9608 77.2409 75.1038 77.1583C75.5398 76.9066 75.6892 76.3492 75.4375 75.9132L71.3381 68.8132C71.0851 68.3772 70.5265 68.2279 70.093 68.4796C69.657 68.7313 69.5077 69.2886 69.7593 69.7246L73.8587 76.8246C74.0278 77.1176 74.3341 77.2803 74.6494 77.2803H74.6494Z" fill="#E35D14"/>
<path d="M80.126 60.0807L87.2247 64.18C87.3677 64.2626 87.5247 64.302 87.6791 64.302C87.9944 64.302 88.3001 64.1387 88.4691 63.8463C88.7208 63.411 88.5715 62.8536 88.1355 62.6013L81.0368 58.5019C80.6008 58.2502 80.044 58.399 79.7917 58.8356C79.5407 59.271 79.69 59.829 80.126 60.0807H80.126Z" fill="#E35D14"/>
<path d="M83.3704 45.5575C83.3704 46.0609 83.7778 46.4689 84.2818 46.4689H92.4794C92.9828 46.4689 93.3908 46.0609 93.3908 45.5575C93.3908 45.0542 92.9834 44.6461 92.4794 44.6461H84.2818C83.7784 44.6461 83.3704 45.0542 83.3704 45.5575Z" fill="#E35D14"/>
<path d="M87.3013 27.0677L80.2013 31.1671C79.7653 31.4188 79.616 31.9762 79.8677 32.4122C80.0367 32.7046 80.3431 32.8679 80.6577 32.8679C80.8128 32.8679 80.9691 32.8285 81.1121 32.7459L88.2121 28.6465C88.6481 28.3948 88.7975 27.8374 88.5458 27.4014C88.2941 26.9654 87.7355 26.8154 87.3014 27.0677H87.3013Z" fill="#E35D14"/>
<path d="M75.2335 14.032C74.7981 13.781 74.2407 13.9291 73.9884 14.3657L69.8902 21.4657C69.6385 21.9017 69.7878 22.4585 70.2238 22.7108C70.3669 22.7934 70.5238 22.8328 70.6783 22.8328C70.9935 22.8328 71.2992 22.6694 71.4683 22.3771L75.5665 15.2771C75.8189 14.8411 75.6695 14.2837 75.2335 14.032H75.2335Z" fill="#E35D14"/>
<path d="M41.7389 29.6547V47.1895L39.8144 59.1044C39.7273 59.6453 39.8817 60.1951 40.2377 60.6133C40.5961 61.0353 41.1211 61.2768 41.6766 61.2768H72.2181C72.7767 61.2768 73.3036 61.0327 73.6621 60.6075C74.0186 60.1855 74.1699 59.6326 74.0784 59.0892L72.0592 47.1843L72.0598 29.6561C72.0598 28.1714 70.8434 26.9638 69.3485 26.9638L44.4497 26.9631C42.9548 26.9631 41.7384 28.1714 41.7384 29.6561L41.7389 29.6547ZM43.4263 48.1739H48.955L48.5184 52.6H42.7106L43.4263 48.1739ZM50.7861 48.1739H56.0887V52.6H50.3496L50.7861 48.1739ZM56.0887 54.4221V59.4227L49.6784 59.41L50.1703 54.4221L56.0887 54.4221ZM57.9108 54.4221H63.8286L64.3231 59.4386L57.9108 59.4259L57.9108 54.4221ZM57.9108 52.6V48.1739H63.2127L63.6494 52.6H57.9108ZM65.0438 48.1739H70.3737L71.097 52.6H65.4799L65.0438 48.1739ZM70.2371 46.3517H43.5615V33.5894H70.2371V46.3517ZM41.6139 59.3942L42.4173 54.4221H48.3394L47.8481 59.4063L41.6139 59.3942ZM66.1548 59.4425L65.6597 54.4222H71.395L72.2175 59.4547L66.1548 59.4425ZM70.2371 29.656V31.7679H43.5615V29.656C43.5615 29.1762 43.96 28.7859 44.4506 28.7859H69.3495C69.8395 28.7859 70.238 29.1761 70.238 29.656H70.2371Z" fill="black"/>
</svg>
