<svg width="103" height="89" viewBox="0 0 103 89" fill="none" xmlns="http://www.w3.org/2000/svg">
<path d="M48.6382 44.2161L45.6322 44.5391C45.8684 46.0545 46.7249 49.0724 50.464 49.5321V50.8981H52.1285V49.4823C56.3885 48.7121 56.8979 45.6071 56.8979 44.2159C56.8979 42.974 56.6989 40.3162 52.1285 39.223V34.7143C52.8736 35.0374 53.3333 35.6458 53.5071 36.5527L56.4257 36.1679C56.2267 35.0128 55.4073 32.5536 52.1281 32.1561V31.0137H50.4636V32.1561C46.7497 32.529 46.1042 35.5469 46.1042 36.8134C46.1042 38.0554 46.4518 40.8252 50.4636 41.9431V46.7748C49.1604 46.0166 48.7625 44.8244 48.6383 44.2161L48.6382 44.2161ZM52.0913 42.03C52.762 42.229 53.2338 42.5017 53.5323 42.862C53.8302 43.2222 53.9669 43.6442 53.9669 44.1411C53.9669 44.6997 53.793 45.1846 53.4454 45.594C53.0977 46.004 52.6506 46.2648 52.0913 46.3643L52.0913 42.03ZM49.0482 36.4777C49.0482 36.0432 49.2094 35.0619 50.4766 34.5399V38.3779C49.1974 37.7449 49.0482 36.8632 49.0482 36.4779V36.4777Z" fill="#E35D14"/>
<path d="M32.5655 14.6806L30.5905 16.6556C29.8952 17.1651 29.6716 19.2635 31.7581 19.4872H44.5882C45.5071 19.4872 46.2401 18.7422 46.2401 17.8353V5.00567C46.0291 2.94374 43.9049 3.16726 43.4085 3.83804L41.322 5.92457C33.5592 -0.658069 21.8708 -0.28582 14.5561 7.04244C13.4011 8.19748 12.3826 9.52639 11.513 10.9918C11.1281 11.638 11.2396 12.47 11.7737 13.004C12.3078 13.538 13.1397 13.6375 13.7859 13.2647C19.76 9.72521 27.262 10.3583 32.5652 14.6805L32.5655 14.6806ZM40.2043 9.37765C40.8504 10.0238 41.8934 10.0238 42.5515 9.37765L42.9243 9.00483V16.1712H35.7579L36.1307 15.7984C36.7769 15.1523 36.7769 14.1093 36.1307 13.4512C31.3979 8.71896 24.7529 6.80619 18.4434 8.01106C24.9145 2.99354 34.2673 3.45259 40.2045 9.37767L40.2043 9.37765Z" fill="#E35D14"/>
<path d="M90.7054 68.9692C90.1713 68.4351 89.3393 68.3356 88.6932 68.7085C82.6945 72.2485 75.2048 71.6149 69.9007 67.2927L71.8757 65.3177C72.3474 64.846 72.4967 64.1375 72.2359 63.5165C71.9752 62.8955 71.3788 62.4981 70.708 62.4981H57.8905C56.9716 62.4981 56.2386 63.2432 56.2386 64.15V76.98C56.2386 77.6508 57.1203 79.4891 59.0702 78.1477L61.1567 76.0611C64.8328 79.1786 69.3787 80.731 73.9372 80.731C85.0039 80.731 90.108 72.4593 90.9775 70.9937C91.3377 70.335 91.2382 69.503 90.7041 68.969L90.7054 68.9692ZM62.2634 72.5955C61.9403 72.2724 61.5183 72.1358 61.0958 72.1112C60.1889 72.0614 59.5434 72.9803 59.5434 72.9803V65.8139H66.7098L66.325 66.1988C65.6788 66.8449 65.6788 67.8878 66.325 68.546C71.0572 73.2782 77.7022 75.1909 84.0108 73.9861C77.5523 78.9796 68.1869 78.5205 62.2629 72.5955L62.2634 72.5955Z" fill="#E35D14"/>
<path d="M86.0358 54.2022V27.7101C86.0358 24.9654 83.8125 22.7422 81.0679 22.7422H21.451C18.7064 22.7422 16.4831 24.9654 16.4831 27.7101V54.2022C16.4831 56.9469 18.7064 59.1701 21.451 59.1701H81.0679C83.8125 59.1707 86.0358 56.9475 86.0358 54.2022ZM62.8592 40.9627C62.8592 49.1847 57.6551 55.8673 51.271 55.8673C44.8749 55.8673 39.6828 49.1853 39.6828 40.9627C39.6828 32.7402 44.8869 26.0582 51.271 26.0582C57.6551 26.0576 62.8592 32.7398 62.8592 40.9627ZM21.4507 55.8673C20.5318 55.8673 19.7988 55.1223 19.7988 54.2154V27.7101C19.7988 26.7912 20.5439 26.0582 21.4507 26.0582H42.7141C38.8761 29.362 36.3552 34.8021 36.3552 40.9627C36.3552 47.1234 38.8763 52.5635 42.7141 55.8673H21.4507ZM66.163 40.9627C66.163 34.8021 63.6419 29.362 59.804 26.0582H81.0674C81.9863 26.0582 82.7193 26.8032 82.7193 27.7101V54.2022C82.7193 55.1211 81.9743 55.8541 81.0674 55.8541L59.804 55.8536C63.6414 52.5623 66.163 47.1222 66.163 40.9622V40.9627Z" fill="black"/>
</svg>
