<svg width="106" height="89" viewBox="0 0 106 89" fill="none" xmlns="http://www.w3.org/2000/svg">
<path d="M76.8442 25.3643C76.0648 25.8884 75.8601 26.9485 76.3842 27.7278C80.0644 33.2091 82.0061 39.6111 82.0061 46.2552C82.0061 64.6681 67.0311 79.643 48.6183 79.643C30.2054 79.643 15.2305 64.668 15.2305 46.2552C15.2305 27.8423 30.2055 12.8674 48.6183 12.8674C55.2626 12.8674 61.6898 14.8097 67.1848 18.4893C67.9642 19.0134 69.0249 18.8087 69.5484 18.0163C70.0725 17.2369 69.8678 16.1763 69.0754 15.6528C63.0187 11.6022 55.9403 9.45563 48.619 9.45563C28.3297 9.46857 11.8202 25.9771 11.8202 46.2559C11.8202 66.5467 28.3282 83.0546 48.6069 83.0546C68.8977 83.0546 85.3936 66.5467 85.3936 46.2559C85.3936 38.9345 83.247 31.8684 79.1964 25.825C78.6858 25.0456 77.6251 24.8409 76.8458 25.365L76.8442 25.3643Z" fill="black"/>
<path d="M62.559 24.9667C63.019 24.149 62.7249 23.1136 61.9072 22.6414C57.8696 20.3671 53.27 19.166 48.6057 19.166C33.6817 19.166 21.5308 31.3174 21.5308 46.2545C21.5308 61.1916 33.6822 73.343 48.6193 73.343C63.569 73.343 75.7199 61.1916 75.7199 46.2545C75.7199 41.5908 74.5187 36.9907 72.2315 32.966C71.7715 32.1483 70.7238 31.8542 69.9062 32.3271C69.0886 32.7871 68.8074 33.8349 69.2674 34.6524C71.2609 38.166 72.3086 42.1786 72.3086 46.2545C72.3086 59.3131 61.6777 69.9306 48.6069 69.9306C35.5483 69.9306 24.9308 59.3126 24.9308 46.2545C24.9308 33.1964 35.5488 22.5784 48.6069 22.5784C52.6828 22.5784 56.7077 23.6261 60.2343 25.6067C61.052 26.079 62.0997 25.7849 62.5596 24.9672L62.559 24.9667Z" fill="#E35D14"/>
<path d="M48.6051 32.2629C50.177 32.2629 51.7229 32.5182 53.1923 33.0423C54.0741 33.3617 55.0577 32.8888 55.3648 31.9947C55.6713 31.1129 55.2112 30.1293 54.3171 29.8222C52.49 29.1834 50.5606 28.851 48.6057 28.851C39.0225 28.851 31.2289 36.6583 31.2289 46.2534C31.2289 55.8496 39.0233 63.6559 48.6057 63.6559C58.2019 63.6559 66.0082 55.8486 66.0082 46.2534C66.0082 44.2988 65.6758 42.3816 65.037 40.5544C64.7305 39.6603 63.7464 39.2003 62.8645 39.5068C61.9704 39.8132 61.5104 40.7844 61.8169 41.6792C62.328 43.1487 62.5963 44.6817 62.5963 46.2534C62.5963 53.9713 56.3226 60.245 48.6048 60.245C40.8999 60.245 34.6262 53.9713 34.6262 46.2534C34.6262 38.5362 40.9005 32.2625 48.6048 32.2625L48.6051 32.2629Z" fill="black"/>
<path d="M93.5193 9.74905C93.3404 9.14844 92.8422 8.70138 92.2286 8.57372L87.2838 7.58957L86.2997 2.64473C86.172 2.03118 85.7249 1.53293 85.1243 1.3541C84.5237 1.17528 83.8719 1.34116 83.4249 1.77588L72.3851 12.8156C71.9763 13.2245 71.8104 13.7998 71.9251 14.3493L72.9599 19.5111L52.7082 39.7628C51.5199 39.0086 50.1269 38.5616 48.6193 38.5616C47.1116 38.5616 45.6421 39.0086 44.428 39.8263C42.2303 41.2446 40.9268 43.647 40.9268 46.2536C40.9268 50.4955 44.3768 53.9455 48.6187 53.9455C51.2124 53.9455 53.6148 52.6549 55.0584 50.4702C55.876 49.2178 56.3107 47.7613 56.3107 46.2536C56.3107 44.7458 55.8637 43.3529 55.1095 42.1776L75.3612 21.926C75.3612 21.926 80.7408 22.9866 80.8424 22.9866C81.2895 22.9866 81.7242 22.8078 82.0436 22.4884L93.0834 11.4486C93.5446 11.0015 93.7105 10.3497 93.5193 9.74917L93.5193 9.74905ZM52.9 46.2541C52.9 47.0977 52.6571 47.9153 52.21 48.6053C51.4053 49.8195 50.0635 50.5476 48.6193 50.5476C46.2558 50.5476 44.3262 48.6183 44.3262 46.2546C44.3262 44.811 45.0545 43.4692 46.2938 42.6768C46.9839 42.2168 47.7763 41.9738 48.6068 41.9738C49.1692 41.9738 49.6927 42.0885 50.1787 42.2803L48.2621 44.1969C47.5974 44.8616 47.5974 45.9346 48.2621 46.6116C48.5944 46.944 49.4886 47.557 50.6768 46.6116L52.5934 44.6951C52.7846 45.1804 52.8999 45.7045 52.8999 46.254L52.9 46.2541ZM80.2943 19.4336L76.2566 18.6289L75.4519 14.5912L83.5909 6.43921L84.1786 9.36522C84.3192 10.0423 84.8433 10.5664 85.5204 10.707L88.4464 11.2947L80.2943 19.4336Z" fill="#E35D14"/>
</svg>
