<svg width="106" height="89" viewBox="0 0 106 89" fill="none" xmlns="http://www.w3.org/2000/svg">
<path d="M52.5295 37.0574C57.1904 37.0574 60.9724 33.2625 60.9724 28.6145C60.9724 23.9666 57.1775 20.1717 52.5295 20.1717C47.8816 20.1717 44.0867 23.9666 44.0867 28.6145C44.0867 33.2625 47.8686 37.0574 52.5295 37.0574ZM52.5295 23.5586C55.3184 23.5586 57.585 25.8252 57.585 28.6141C57.585 31.403 55.3184 33.6695 52.5295 33.6695C49.7406 33.6695 47.4741 31.403 47.4741 28.6141C47.4741 25.8258 49.7406 23.5586 52.5295 23.5586Z" fill="#E35D14"/>
<path d="M91.586 72.5868H86.4924L86.4918 35.2368C86.4918 32.4227 84.2123 30.1432 81.3983 30.1432H72.7644C71.8222 30.1432 71.0707 30.9071 71.0707 31.837C71.0707 32.7791 71.8346 33.5307 72.7644 33.5307H81.3983C82.3404 33.5307 83.0919 34.2946 83.0919 35.2244V72.5863H21.9671V35.2364C21.9671 34.2942 22.731 33.5427 23.6608 33.5427H32.3076C33.2497 33.5427 34.0013 32.7788 34.0013 31.849C34.0013 30.9068 33.2374 30.1553 32.3076 30.1553H23.6608C20.8467 30.1553 18.5673 32.4347 18.5673 35.2488V72.5868H13.4737C12.5433 72.5868 11.7794 73.3507 11.7794 74.2805C11.7794 78.9666 15.5872 82.7744 20.2733 82.7744H84.799C89.4851 82.7744 93.2929 78.9666 93.2929 74.2805C93.2806 73.3507 92.5167 72.5868 91.5869 72.5868H91.586ZM84.7858 79.3741H20.2735C18.058 79.3741 16.1732 77.9606 15.4727 75.9738L89.5873 75.9743C88.8867 77.9606 87.0018 79.3741 84.7864 79.3741L84.7858 79.3741Z" fill="black"/>
<path d="M32.1165 48.8104C32.1165 51.332 32.5879 53.8278 33.53 56.222C33.7845 56.8716 34.4089 57.3043 35.1089 57.3043C35.8095 57.3043 36.4333 56.871 36.6878 56.222C37.5408 54.0188 38.8652 52.0326 40.5337 50.3641C41.3744 52.4401 42.3418 54.4902 43.5136 56.4637C43.8191 56.9731 44.3796 57.2915 44.9781 57.2915H60.0811C60.6797 57.2915 61.2402 56.9731 61.5456 56.4637C62.6918 54.5279 63.672 52.5034 64.5128 50.4274C66.1555 52.083 67.4547 54.0442 68.2948 56.2214C68.5492 56.871 69.1736 57.3037 69.8736 57.3037C70.5742 57.3037 71.198 56.8704 71.4525 56.2214C72.3823 53.8271 72.866 51.3314 72.866 48.8098C72.866 43.7925 71.0192 39.0297 67.6829 35.2859C67.6958 34.8526 67.721 34.4329 67.721 33.9996C67.721 21.8 62.7418 10.3388 53.7004 1.72998C53.0379 1.1062 52.0067 1.1062 51.3571 1.72998C41.8702 10.7714 37.0563 22.9714 37.3618 35.1838C33.9889 38.954 32.1171 43.7549 32.1171 48.8104L32.1165 48.8104ZM35.6441 50.9626C35.0837 46.6582 36.3066 42.851 37.8092 40.2784C37.8345 40.4567 38.1528 43.3217 39.2989 46.9003C37.8978 48.0846 36.6755 49.46 35.6441 50.9625L35.6441 50.9626ZM69.326 50.9626C68.32 49.4852 67.1228 48.1486 65.7603 46.9642C66.7025 43.87 67.0847 41.4504 67.2377 40.4186C68.6893 42.9531 69.8612 46.5059 69.326 50.9626H69.326ZM52.5301 5.36102C55.3061 8.21382 57.6237 11.3843 59.4574 14.7718H45.6789C47.487 11.3967 49.754 8.22613 52.53 5.36102H52.5301ZM44.0362 18.1587H61.0873C63.2014 23.125 64.3218 28.4863 64.3218 34.0136C64.3218 34.6122 64.8184 43.4754 59.0882 53.9058H45.9588C41.1069 44.7882 40.9415 37.6306 40.9034 37.1729C40.4062 30.704 41.4762 24.1964 44.0358 18.1602L44.0362 18.1587Z" fill="#E35D14"/>
<path d="M50.8351 60.7046V65.7982C50.8351 66.7403 51.5989 67.4919 52.5287 67.4919C53.4585 67.4919 54.2224 66.728 54.2224 65.7982V60.7046C54.2224 59.7625 53.4585 59.0109 52.5287 59.0109C51.5989 59.0109 50.8351 59.7625 50.8351 60.7046Z" fill="#E35D14"/>
<path d="M44.0362 64.092V69.1855C44.0362 70.1276 44.8001 70.8792 45.7299 70.8792C46.6597 70.8792 47.4365 70.1282 47.4365 69.1855V64.092C47.4365 63.1621 46.672 62.3983 45.7428 62.3983C44.813 62.3983 44.0362 63.1622 44.0362 64.092Z" fill="#E35D14"/>
<path d="M57.6234 64.092V69.1855C57.6234 70.1276 58.3873 70.8792 59.3171 70.8792C60.2592 70.8792 61.0108 70.1153 61.0108 69.1855V64.092C61.0108 63.1498 60.2469 62.3983 59.3171 62.3983C58.3878 62.3983 57.6234 63.1622 57.6234 64.092Z" fill="#E35D14"/>
</svg>
