<svg width="31" height="31" viewBox="0 0 31 31" fill="none" xmlns="http://www.w3.org/2000/svg">
<g clip-path="url(#clip0_358_9785)">
<path d="M28.8999 21.3636C26.8814 21.364 24.8749 21.0536 22.9509 20.4432C22.6614 20.3413 22.3483 20.3267 22.0505 20.4011C21.7527 20.4756 21.4834 20.6359 21.2759 20.8621L17.5918 24.5462C12.8281 22.1266 8.95721 18.2548 6.53864 13.4905L10.2244 9.80558C10.4335 9.58668 10.5821 9.31715 10.6555 9.02348C10.729 8.72981 10.7248 8.42209 10.6434 8.13053C9.97059 6.19026 9.63068 4.15019 9.63805 2.09659C9.63558 1.65334 9.45806 1.22902 9.14415 0.91607C8.83025 0.60312 8.40539 0.426895 7.96214 0.425781H2.09817C1.65463 0.427574 1.22979 0.604681 0.91631 0.918476C0.602834 1.23227 0.426157 1.65729 0.424815 2.10084C0.421685 5.84112 1.15608 9.54531 2.58598 13.0015C4.01588 16.4577 6.11321 19.598 8.75799 22.2427C11.4028 24.8875 14.5431 26.9849 17.9993 28.4148C21.4554 29.8447 25.1596 30.5791 28.8999 30.5759C29.3437 30.5746 29.769 30.3977 30.0829 30.0838C30.3967 29.77 30.5736 29.3447 30.575 28.9009V23.0369C30.5732 22.5934 30.3961 22.1685 30.0823 21.855C29.7685 21.5416 29.3434 21.3649 28.8999 21.3636Z" stroke="white"/>
</g>
<defs>
<clipPath id="clip0_358_9785">
<rect width="31" height="31" fill="white"/>
</clipPath>
</defs>
</svg>
