<svg width="31" height="31" fill="none" xmlns="http://www.w3.org/2000/svg"><g clip-path="url(#clip0_358_9785)"><path d="M28.9 21.364a19.66 19.66 0 01-5.95-.92 1.568 1.568 0 00-1.674.418l-3.684 3.684A25.188 25.188 0 016.539 13.491l3.685-3.685a1.745 1.745 0 00.42-1.675 18.218 18.218 0 01-1.006-6.034A1.68 1.68 0 007.962.426H2.098A1.68 1.68 0 00.425 2.1 28.451 28.451 0 0028.9 30.576a1.68 1.68 0 001.675-1.675v-5.864a1.68 1.68 0 00-1.675-1.673z" stroke="#fff"/></g><defs><clipPath id="clip0_358_9785"><path fill="#fff" d="M0 0h31v31H0z"/></clipPath></defs></svg>