<svg width="108" height="89" viewBox="0 0 108 89" fill="none" xmlns="http://www.w3.org/2000/svg">
<path d="M79.9552 58.1059V58.6297C77.6882 59.1536 75.9951 61.07 75.9951 63.364C75.9951 66.0592 78.324 68.2516 81.1871 68.2516C82.692 68.2516 83.9154 69.3391 83.9154 70.6762C83.9154 72.0132 82.692 73.1007 81.1871 73.1007C79.6822 73.1007 78.4587 72.0132 78.4587 70.6762C78.4587 69.9959 77.9078 69.4443 77.2269 69.4443C76.546 69.4443 75.9951 69.9959 75.9951 70.6762C75.9951 72.9697 77.6882 74.886 79.9552 75.4104V75.9337C79.9552 76.614 80.5062 77.1655 81.1871 77.1655C81.868 77.1655 82.4189 76.614 82.4189 75.9337V75.4104C84.6859 74.8865 86.3791 72.9701 86.3791 70.6762C86.3791 67.9809 84.0502 65.7879 81.1871 65.7879C79.6822 65.7879 78.4587 64.7005 78.4587 63.364C78.4587 62.0269 79.6821 60.9394 81.1871 60.9394C82.692 60.9394 83.9154 62.0269 83.9154 63.364C83.9154 64.0443 84.4664 64.5958 85.1473 64.5958C85.8281 64.5958 86.3791 64.0443 86.3791 63.364C86.3791 61.0705 84.6859 59.1542 82.4189 58.6297V58.1059C82.4189 57.4256 81.868 56.874 81.1871 56.874C80.5062 56.874 79.9552 57.4256 79.9552 58.1059Z" fill="black"/>
<path d="M37.1614 83.7648C50.3494 83.7648 61.079 73.0349 61.079 59.8472V43.7579C61.079 30.9884 51.0119 20.5533 38.4009 19.9035C38.4851 11.6331 45.2325 4.92838 53.5215 4.92838C61.2807 4.92838 66.7 11.1495 66.7 20.049L66.6097 33.0313C66.6097 37.3897 70.156 40.9353 74.5144 40.9353C77.5146 40.9353 79.9554 43.3762 79.9554 46.3757V53.727C73.1659 54.3514 67.8296 60.072 67.8296 67.021C67.8296 74.3861 73.8215 80.3781 81.1873 80.3781C88.5518 80.3781 94.5437 74.3861 94.5437 67.021C94.5437 60.072 89.208 54.3514 82.4191 53.727V46.3757C82.4191 42.0174 78.8728 38.4717 74.5144 38.4717C71.5143 38.4717 69.0734 36.0308 69.0734 33.0398L69.1636 20.0575C69.1636 9.69928 62.7315 2.46533 53.5209 2.46533C43.8725 2.46533 36.0211 10.2744 35.9365 19.9035C23.3174 20.5465 13.2415 30.9846 13.2415 43.7595V59.8488C13.2415 73.0368 23.9707 83.7664 37.1606 83.7664L37.1614 83.7648ZM92.0796 67.0196C92.0796 73.026 87.1932 77.913 81.1868 77.913C75.1804 77.913 70.2928 73.026 70.2928 67.0196C70.2928 61.0132 75.1804 56.1268 81.1868 56.1268C87.1932 56.1268 92.0796 61.0132 92.0796 67.0196ZM58.6138 43.7564V48.0678H38.3917V45.4489C41.1068 44.8787 43.153 42.4681 43.153 39.5857V31.9908C43.153 29.1085 41.1068 26.6978 38.3917 26.1276V22.3647C49.6472 23.0083 58.6138 32.3421 58.6138 43.757V43.7564ZM37.1537 28.462C37.1561 28.462 37.1573 28.4632 37.1597 28.4632C37.1621 28.4632 37.1633 28.462 37.1657 28.462C39.1091 28.465 40.6892 30.0462 40.6892 31.9908V39.5857C40.6892 41.5262 39.1157 43.1038 37.1777 43.1134C37.1711 43.1134 37.1663 43.1098 37.1597 43.1098C37.153 43.1098 37.1482 43.1134 37.1416 43.1134C35.2036 43.1038 33.6301 41.526 33.6301 39.5857V31.9908C33.6301 30.0462 35.2102 28.4655 37.1536 28.462H37.1537ZM35.9278 22.3647V26.1276C33.2127 26.6978 31.1665 29.1085 31.1665 31.9908V39.5857C31.1665 42.4681 33.2127 44.8788 35.9278 45.4489V48.0678H15.7042V43.7564C15.7042 32.3421 24.6717 23.0077 35.9278 22.3641V22.3647ZM15.7042 50.5321H58.6121V59.8466C58.6121 71.6765 48.9884 81.3005 37.1581 81.3005C25.3282 81.3005 15.7027 71.6762 15.7027 59.8466L15.7042 50.5321Z" fill="#E35D14"/>
</svg>
