<svg width="113" height="89" viewBox="0 0 113 89" fill="none" xmlns="http://www.w3.org/2000/svg">
<path d="M47.0513 28.5732H25.2808C18.287 28.5732 12.586 34.2742 12.586 41.2812V63.0517C12.586 69.27 17.0216 74.4536 22.9675 75.5423V84.8219C22.9675 85.5704 23.4304 86.2369 24.1238 86.5089C24.3418 86.5903 25.1987 86.8897 26.1102 86.046L35.6616 75.746H47.0635C54.0704 75.746 59.7583 70.045 59.7583 63.0512V41.2807C59.7595 34.2744 54.0579 28.5735 47.051 28.5735L47.0513 28.5732ZM56.1268 63.0507C56.1268 68.0576 52.0583 72.1262 47.0513 72.1262H34.8603C34.3566 72.1262 33.8668 72.3304 33.5266 72.7112L26.5874 80.1949V73.9227C26.5874 72.9568 25.8257 72.1538 24.8592 72.1131C20.0152 71.8951 16.2191 67.9224 16.2191 63.0646V41.2941C16.2191 36.2871 20.2876 32.2186 25.2945 32.2186H47.0651C52.072 32.2186 56.1405 36.2871 56.1405 41.2941L56.1411 63.0501L56.1268 63.0507Z" fill="black"/>
<path d="M86.9715 3.18419H54.3157C47.3087 3.18419 41.6209 8.88516 41.6209 15.879V23.1309C41.6209 24.1376 42.4371 24.9406 43.4306 24.9406C44.4372 24.9406 45.2402 24.1244 45.2402 23.1309V15.879C45.2402 10.8714 49.3087 6.80353 54.3157 6.80353H86.9715C91.9784 6.80353 96.0469 10.872 96.0469 15.879V48.5347C96.0469 53.1746 92.4276 57.1341 87.8015 57.5557C86.8625 57.6371 86.1552 58.4264 86.1552 59.3653V68.7539L75.5557 58.1406C75.2156 57.8005 74.7527 57.6101 74.2766 57.6101H65.2012C64.1945 57.6101 63.3915 58.4263 63.3915 59.4197C63.3915 60.4264 64.2077 61.2294 65.2012 61.2294H73.5149L86.6858 74.4141C87.5427 75.2303 88.4409 74.9039 88.659 74.8087C89.3393 74.5231 89.7746 73.8697 89.7746 73.1349V60.9031C95.4349 59.597 99.6663 54.4535 99.6663 48.5346V15.8788C99.6663 8.87126 93.9653 3.18408 86.9715 3.18408L86.9715 3.18419Z" fill="black"/>
<path d="M43.432 50.262C44.5614 48.7517 45.2417 46.9151 45.2417 44.9011C45.2417 39.8942 41.1732 35.8257 36.1662 35.8257C31.1593 35.8257 27.0908 39.8942 27.0908 44.9011C27.0908 46.9151 27.7711 48.7517 28.9005 50.2482C23.4582 52.9693 19.8388 58.6164 19.8388 64.8479C19.8388 65.8545 20.655 66.6575 21.6485 66.6575H50.6849C51.6916 66.6575 52.4946 65.8413 52.4946 64.8479C52.494 58.6302 48.8884 52.9831 43.4323 50.262H43.432ZM36.1662 39.459C39.173 39.459 41.6085 41.8945 41.6085 44.9013C41.6085 47.908 39.173 50.3436 36.1662 50.3436C33.1595 50.3436 30.7239 47.908 30.7239 44.9013C30.7233 41.9077 33.1726 39.459 36.1662 39.459ZM23.6075 63.0384C24.2877 58.4392 27.4718 54.4798 31.9074 52.9018C34.5333 54.3031 37.8263 54.3031 40.4522 52.9018C44.874 54.4804 48.0719 58.4399 48.7521 63.0384H23.6075Z" fill="#E35D14"/>
<path d="M88.7819 19.4985H52.494C51.4873 19.4985 50.6843 20.3147 50.6843 21.3082C50.6843 22.3148 51.5005 23.1179 52.494 23.1179H88.7819C89.7885 23.1179 90.5916 22.3017 90.5916 21.3082C90.5916 20.3153 89.7754 19.4985 88.7819 19.4985Z" fill="#E35D14"/>
<path d="M88.7819 30.3818H65.1881C64.1815 30.3818 63.3784 31.198 63.3784 32.1915C63.3784 33.1981 64.1946 34.0012 65.1881 34.0012H88.7819C89.7886 34.0012 90.5916 33.185 90.5916 32.1915C90.5916 31.1986 89.7754 30.3818 88.7819 30.3818Z" fill="#E35D14"/>
<path d="M65.1881 44.8864H88.7819C89.7886 44.8864 90.5916 44.0702 90.5916 43.0768C90.5916 42.0701 89.7754 41.2671 88.7819 41.2671H65.1881C64.1815 41.2671 63.3784 42.0833 63.3784 43.0768C63.3784 44.0702 64.1953 44.8864 65.1881 44.8864Z" fill="#E35D14"/>
</svg>
