<svg width="109" height="89" viewBox="0 0 109 89" fill="none" xmlns="http://www.w3.org/2000/svg">
<path d="M62.7271 70.2538H45.9988C45.0742 70.2538 44.326 69.5057 44.326 68.581V60.9083C44.326 59.1749 43.442 57.5877 41.9609 56.6612C34.1019 51.7479 29.8749 42.6032 31.1896 33.369C32.6627 23.0273 41.2862 14.6852 51.6953 13.5296C58.4627 12.7894 64.9512 14.8462 69.9768 19.3481C74.9363 23.7882 77.7799 30.1491 77.7799 36.8002C77.7799 44.9219 73.6632 52.3449 66.7702 56.6582C65.2849 57.5877 64.3984 59.1774 64.3984 60.909V68.5799C64.3984 69.5045 63.6497 70.2527 62.7256 70.2527L62.7271 70.2538ZM47.6723 66.9083H61.0537V60.9102C61.0537 58.0173 62.5268 55.3677 64.9968 53.8242C70.9077 50.1257 74.4358 43.7616 74.4358 36.8008C74.4358 31.1 71.9968 25.6455 67.7467 21.8395C63.439 17.9813 57.8741 16.2103 52.0653 16.8558C43.1494 17.8442 35.7642 24.9873 34.5029 33.8388C33.3562 41.8889 36.8946 49.5466 43.7355 53.8242C46.2006 55.3665 47.672 58.0144 47.672 60.9073L47.6723 66.9083Z" fill="black"/>
<path d="M61.0559 76.9437H47.6745C45.83 76.9437 44.329 75.4427 44.329 73.5982V70.2527C44.329 68.4083 45.83 66.9072 47.6745 66.9072H61.0559C62.9003 66.9072 64.4014 68.4083 64.4014 70.2527V73.5982C64.4014 75.4427 62.9003 76.9437 61.0559 76.9437ZM47.6745 70.2533V73.5988H61.0577L61.0559 70.2533H47.6745Z" fill="black"/>
<path d="M57.7102 83.6352H51.0192C49.1747 83.6352 47.6737 82.1341 47.6737 80.2897V76.9441C47.6737 75.0997 49.1748 73.5986 51.0192 73.5986H57.7102C59.5547 73.5986 61.0557 75.0997 61.0557 76.9441V80.2897C61.0551 82.1341 59.554 83.6352 57.7102 83.6352ZM51.0192 76.9441V80.2897H57.7114L57.7096 76.9441H51.0192Z" fill="#E35D14"/>
<path d="M54.3629 10.0364C53.4383 10.0364 52.6901 9.28827 52.6901 8.36354V5.01804C52.6901 4.09339 53.4382 3.34521 54.3629 3.34521C55.2877 3.34521 56.0358 4.09331 56.0358 5.01804V8.36354C56.0358 9.28759 55.2877 10.0364 54.3629 10.0364Z" fill="#E35D14"/>
<path d="M79.2022 20.3255C78.7745 20.3255 78.3461 20.1623 78.0197 19.8353C77.3662 19.1836 77.3662 18.1232 78.0197 17.4702L80.3848 15.1034C81.0382 14.4499 82.0969 14.4499 82.7499 15.1034C83.4033 15.755 83.4033 16.8155 82.7499 17.4685L80.3848 19.8353C80.0584 20.1623 79.6306 20.3255 79.2023 20.3255H79.2022Z" fill="#E35D14"/>
<path d="M92.8349 45.163H89.4894C88.5647 45.163 87.8165 44.4149 87.8165 43.4902C87.8165 42.5655 88.5646 41.8174 89.4894 41.8174H92.8349C93.7595 41.8174 94.5077 42.5655 94.5077 43.4902C94.5077 44.4149 93.7596 45.163 92.8349 45.163Z" fill="#E35D14"/>
<path d="M19.2367 45.163H15.8912C14.9666 45.163 14.2184 44.4149 14.2184 43.4902C14.2184 42.5655 14.9665 41.8174 15.8912 41.8174H19.2367C20.1614 41.8174 20.9095 42.5655 20.9095 43.4902C20.9095 44.4149 20.1608 45.163 19.2367 45.163Z" fill="#E35D14"/>
<path d="M29.5253 20.3255C29.0976 20.3255 28.6692 20.1623 28.3428 19.8353L25.9777 17.4685C25.3242 16.815 25.3242 15.7551 25.9777 15.1034C26.6311 14.4499 27.6898 14.4499 28.3428 15.1034L30.7079 17.4702C31.3613 18.1236 31.3613 19.1835 30.7079 19.8353C30.3815 20.1623 29.9537 20.3255 29.5254 20.3255H29.5253Z" fill="#E35D14"/>
<path d="M53.678 48.0645V45.7862C50.8258 45.4944 48.2659 44.3616 46.0004 42.3831L48.2786 39.6681C50.026 41.1867 51.8244 42.0937 53.6786 42.3831V36.328C51.3269 35.7668 49.6049 35.0302 48.5129 34.1134C47.4208 33.1991 46.8747 31.84 46.8747 30.0398C46.8747 28.2414 47.502 26.7683 48.7615 25.6258C50.0211 24.4803 51.6592 23.8554 53.6784 23.7517V22.1924H55.6747V23.7851C57.9632 23.9501 60.1268 24.7322 62.1667 26.1241L60.1372 28.9963C58.763 28.0182 57.2777 27.4139 55.6748 27.1852V33.0522H55.7689C58.1611 33.6135 59.9189 34.3755 61.0413 35.3305C62.1662 36.2879 62.7279 37.6773 62.7279 39.4981C62.7279 41.319 62.083 42.8 60.7925 43.9455C59.5019 45.0886 57.7983 45.7129 55.6747 45.8173V48.0653L53.678 48.0645ZM51.4761 27.9191C50.9452 28.3863 50.6813 28.9706 50.6813 29.6665C50.6813 30.3649 50.8894 30.9133 51.3062 31.3199C51.72 31.7264 52.5124 32.1172 53.6785 32.4909V27.091C52.7405 27.1753 52.0069 27.452 51.476 27.9192L51.4761 27.9191ZM58.0464 41.6039C58.6283 41.1264 58.9201 40.5221 58.9201 39.7928C58.9201 39.0665 58.6914 38.4871 58.2345 38.0606C57.7746 37.6365 56.9216 37.2355 55.6742 36.8593V42.4776C56.6722 42.3733 57.4622 42.0839 58.0464 41.6039L58.0464 41.6039Z" fill="#E35D14"/>
</svg>
