<svg width="107" height="89" viewBox="0 0 107 89" fill="none" xmlns="http://www.w3.org/2000/svg">
<path d="M85.7984 1.28857H20.5156C15.7735 1.28857 11.9202 5.14185 11.9202 9.88391V75.1805C11.9202 79.9101 15.7735 83.7633 20.5156 83.7633H85.8121C90.5541 83.7633 94.4074 79.9101 94.4074 75.168L94.408 9.88513C94.395 5.14307 90.5417 1.28979 85.7996 1.28979L85.7984 1.28857ZM20.5156 4.7295H85.8121C88.6598 4.7295 90.9665 7.03621 90.9665 9.88391V56.2748L15.3621 56.2754V9.8845C15.3621 7.0362 17.6688 4.72964 20.5165 4.72964L20.5156 4.7295ZM85.7984 80.3218H20.5156C17.6679 80.3218 15.3612 78.0151 15.3612 75.1674V59.7033H90.9656V75.1674C90.9525 78.0151 88.646 80.3218 85.7983 80.3218H85.7984Z" fill="black"/>
<path d="M53.157 52.8349C65.4762 52.8349 75.489 42.8092 75.489 30.5029C75.489 18.1837 65.4633 8.1709 53.157 8.1709C40.8507 8.1709 30.825 18.1966 30.825 30.5029C30.825 42.8092 40.8382 52.8349 53.157 52.8349ZM53.157 11.5972C63.582 11.5972 72.0612 20.0769 72.0612 30.5014C72.0612 40.9264 63.5815 49.4056 53.157 49.4056C42.7325 49.4056 34.2528 40.9259 34.2528 30.5014C34.2528 20.0764 42.7325 11.5972 53.157 11.5972Z" fill="#E35D14"/>
<path d="M48.1693 40.4647C48.6588 40.7097 50.1668 41.2508 51.7646 40.1556L62.409 32.2692C63.3369 31.5864 63.8525 30.4906 63.8009 29.3313C63.7362 28.1715 63.118 27.1403 62.1255 26.5477L51.481 20.2336C50.3983 19.6023 49.1098 19.5893 48.0277 20.2081C46.9449 20.8268 46.2882 21.9475 46.2882 23.1976V37.3857C46.2882 38.6992 47.0096 39.8845 48.1695 40.4647L48.1693 40.4647ZM49.7155 23.2099L60.3599 29.5116L49.7155 37.398V23.2099Z" fill="#E35D14"/>
<path d="M85.7984 68.2993H42.8476V64.8583C42.8476 63.918 42.0746 63.145 41.1336 63.145H34.2653C33.3113 63.145 32.5383 63.918 32.5383 64.859V68.2993H22.229C21.2757 68.2993 20.5151 69.0723 20.5151 70.0132C20.5151 70.9666 21.2881 71.7271 22.229 71.7271H32.5383V75.1681C32.5383 76.1214 33.3113 76.882 34.2522 76.882H41.1206C42.074 76.882 42.8345 76.109 42.8345 75.1681V71.7271H85.7854C86.7387 71.7271 87.4993 70.9541 87.4993 70.0132C87.5248 69.0729 86.7518 68.2993 85.7984 68.2993ZM39.406 73.4541H35.9651V66.5858H39.406V73.4541Z" fill="#E35D14"/>
</svg>
