<svg width="112" height="89" viewBox="0 0 112 89" fill="none" xmlns="http://www.w3.org/2000/svg">
<path d="M45.4362 65.1404C37.5327 65.1404 29.63 62.1321 23.6129 56.1149C11.5805 44.0807 11.5805 24.5016 23.6129 12.4683C29.4415 6.63908 37.1926 3.42871 45.4378 3.42871C53.6807 3.42871 61.4323 6.63972 67.2611 12.469C79.2934 24.502 79.2934 44.0807 67.2611 56.1156C61.2446 62.1321 53.3411 65.1404 45.4362 65.1404ZM45.4381 6.85895C38.1093 6.85895 31.2208 9.713 26.038 14.8943C15.3421 25.5902 15.3421 42.9937 26.038 53.6912C36.7376 64.3889 54.139 64.3872 64.835 53.6912C75.5309 42.994 75.5309 25.5902 64.835 14.8943C59.6524 9.713 52.7641 6.85895 45.4365 6.85895H45.4381Z" fill="black"/>
<path d="M38.5773 48.0089H28.2894L28.2901 24.0044H38.5779L38.5773 48.0089ZM31.7194 44.5796H35.1486L35.148 27.434H31.7187L31.7194 44.5796Z" fill="#E35D14"/>
<path d="M52.2935 48.0089H42.0056V30.8633H52.2935V48.0089ZM45.4349 44.5796H48.8642V34.2918H45.4349V44.5796Z" fill="#E35D14"/>
<path d="M45.4362 48.0089H35.1483V17.1455H45.4362V48.0089ZM38.5776 44.5796H42.0069V20.5751H38.5776V44.5796Z" fill="#E35D14"/>
<path d="M59.1523 48.0089H48.8645L48.8651 17.1455H59.153L59.1523 48.0089ZM52.2944 44.5796H55.7237L55.7231 20.5751H52.2938L52.2944 44.5796Z" fill="#E35D14"/>
<path d="M70.8959 67.0269L61.1976 57.3267L68.4711 50.0532L78.1694 59.7515L70.8959 67.0269ZM66.0468 57.3273L70.8959 62.1765L73.3203 59.7522L68.4711 54.903L66.0468 57.3273Z" fill="black"/>
<path d="M87.8809 86.7299C86.5076 86.7299 85.2153 86.1951 84.2438 85.223L67.3545 65.7417L76.8855 56.2095L96.2808 73.016C98.3736 75.1057 98.3736 78.3683 96.3709 80.3734L96.3691 80.374L91.518 85.2232C90.5491 86.1946 89.2561 86.7301 87.8816 86.7301L87.8809 86.7299ZM72.036 65.9081L86.7527 82.8865C87.2365 83.3561 88.4475 83.4425 89.0917 82.7976L93.944 77.9485C94.6119 77.2793 94.6119 76.1903 93.9421 75.5217L77.0528 60.8897L72.036 65.9081Z" fill="#E35D14"/>
</svg>
