<svg width="108" height="89" viewBox="0 0 108 89" fill="none" xmlns="http://www.w3.org/2000/svg">
<path d="M62.5508 65.1183C70.5719 65.1183 78.5937 62.0664 84.7044 55.9628C96.9297 43.747 96.9393 23.8631 84.7235 11.6371V11.6365C72.5102 -0.587729 52.6239 -0.598433 40.3964 11.6174C29.2093 22.7962 28.2583 40.3925 37.5375 52.6705L33.3799 56.8281L31.7121 55.161C31.2343 54.6831 30.4601 54.6831 29.9823 55.161L15.4704 69.6724C12.3832 72.7596 12.3832 77.7832 15.4704 80.8704C16.9662 82.3661 18.9553 83.1899 21.0699 83.1899C23.1845 83.1899 25.1737 82.3661 26.6682 80.8704L41.1813 66.3585C41.4107 66.1291 41.5397 65.8179 41.5397 65.4935C41.5397 65.1692 41.4107 64.858 41.1813 64.6286L39.5135 62.9608L43.6706 58.8038C49.2349 63.0098 55.8905 65.1196 62.5502 65.1196L62.5508 65.1183ZM42.1267 13.3484C47.7597 7.72015 55.1537 4.90732 62.5493 4.90732C69.9528 4.90732 77.3587 7.72734 82.9932 13.3657C94.2545 24.6376 94.2461 42.9697 82.9741 54.2323C71.7034 65.4942 53.3702 65.4864 42.1075 54.215C30.8463 42.943 30.8547 24.611 42.1267 13.3484V13.3484ZM24.9384 79.1396C23.9049 80.173 22.5311 80.7422 21.0699 80.7422C19.6088 80.7422 18.2337 80.1729 17.2002 79.1396C15.0678 77.0065 15.0678 73.5348 17.2002 71.4015L25.4855 63.1162L33.2241 70.8548L24.9384 79.1396ZM34.9534 69.1251L27.2149 61.3866L30.8468 57.7547L38.5859 65.4928L34.9534 69.1251ZM37.7837 61.23L35.11 58.5569L39.0944 54.5725C39.5078 55.0385 39.9319 55.4972 40.3781 55.9435C40.8303 56.3956 41.2962 56.8263 41.7681 57.2457L37.7837 61.23Z" fill="black"/>
<path d="M62.5508 39.7045C64.6773 39.7045 66.4371 37.9495 66.553 35.7561L67.8182 21.9687V21.961C67.952 20.3923 67.4299 18.8392 66.3834 17.7001C65.3774 16.6052 64.0166 16.002 62.5496 16.002C61.0838 16.002 59.723 16.6047 58.7171 17.6997C57.6718 18.8394 57.1485 20.3925 57.2823 21.9689L58.5439 35.7097C58.6634 37.9496 60.4232 39.7047 62.5509 39.7047L62.5508 39.7045ZM60.5198 19.3553C61.0562 18.7711 61.7778 18.4491 62.5508 18.4491C63.3237 18.4491 64.0441 18.7711 64.5805 19.3547C65.1635 19.9903 65.455 20.8624 65.3809 21.7489L64.1122 35.5798C64.062 36.5212 63.3762 37.2584 62.5495 37.2584C61.7239 37.2584 61.0382 36.5213 60.9845 35.5333L59.7193 21.7538C59.644 20.8655 59.9355 19.9916 60.5198 19.3553L60.5198 19.3553Z" fill="#E35D14"/>
<path d="M62.5492 42.457C60.0345 42.457 57.9891 44.503 57.9891 47.0178C57.9891 49.5332 60.0345 51.5791 62.5492 51.5791C65.064 51.5791 67.1106 49.5332 67.1106 47.0178C67.1106 44.503 65.064 42.457 62.5492 42.457ZM62.5492 49.1324C61.3844 49.1324 60.4359 48.1838 60.4359 47.0178C60.4359 45.8523 61.3845 44.9038 62.5492 44.9038C63.7153 44.9038 64.6638 45.8524 64.6638 47.0178C64.6638 48.1838 63.7152 49.1324 62.5492 49.1324Z" fill="#E35D14"/>
</svg>
