<svg width="110" height="89" viewBox="0 0 110 89" fill="none" xmlns="http://www.w3.org/2000/svg">
<path d="M98.5413 29.3794C98.5413 22.9927 95.9868 17.1528 91.6072 12.5914C82.4832 3.46745 68.0667 3.28476 58.76 12.044C58.76 12.044 58.5774 12.044 58.5774 12.2267L55.2926 15.5114L51.2778 11.6792C41.9711 2.37255 27.0069 2.37255 17.7002 11.6792C13.3212 15.8761 10.9487 21.8981 10.9487 28.2842C10.9487 34.6703 13.5033 40.5108 17.8829 45.0722L20.4375 47.6268C19.1599 48.9044 18.4304 50.7288 18.4304 52.5538C18.4304 54.561 19.1605 56.386 20.6202 57.6636C22.0798 59.1233 23.9049 59.8534 25.7299 59.8534H26.0947C25.912 61.8605 26.6421 63.8683 28.2845 65.5106C29.7442 66.9703 31.5692 67.7004 33.3943 67.7004H33.759V68.2479C33.759 70.255 34.4892 72.08 35.9488 73.3576C37.4085 74.8173 39.2335 75.5474 41.0586 75.5474H41.4233C41.2406 77.5546 41.9708 79.5623 43.6131 81.2047C45.0728 82.6643 46.8979 83.3945 48.7229 83.3945C50.73 83.3945 52.3724 82.6643 53.8327 81.3873L60.4021 74.8179C60.7668 74.4532 61.1322 74.0878 61.3143 73.723C62.774 75.0006 64.4163 75.7301 66.2414 75.7301C68.0664 75.7301 69.8908 75 71.3511 73.5403C72.8108 72.0807 73.5409 70.2556 73.5409 68.4306V67.8831H74.0884C76.0955 67.8831 77.9205 67.153 79.1981 65.6933C80.6578 64.2336 81.3879 62.4086 81.3879 60.5836V60.0361H81.9354C83.7604 60.0361 85.5849 59.306 87.0452 57.8463C88.5048 56.3866 89.235 54.5616 89.235 52.7365C89.235 51.6416 88.8702 50.5467 88.5048 49.4518L91.6068 46.3498C96.1685 41.6054 98.541 35.7662 98.541 29.3788L98.5413 29.3794ZM25.7302 56.2046C24.818 56.2046 23.9052 55.8398 23.1757 55.1097C22.4455 54.3795 22.0808 53.4673 22.0808 52.5551C22.0808 51.6429 22.4455 50.73 23.1757 50.0005L29.7451 43.4311C30.4752 42.701 31.2048 42.3362 32.2997 42.3362C33.2119 42.3362 34.1247 42.701 34.8542 43.4311C36.3139 44.8908 36.3139 47.0806 34.8542 48.5409L28.2848 55.1103C27.5553 55.8398 26.6425 56.2046 25.7302 56.2046V56.2046ZM33.5773 63.8689C32.665 63.8689 31.7522 63.5041 31.0227 62.774C29.563 61.3143 29.563 59.1245 31.0227 57.6642L37.5921 51.0948C38.3223 50.3647 39.0518 49.9999 40.1467 49.9999C41.0589 49.9999 41.9717 50.3647 42.7012 51.0948C43.4314 51.825 43.7962 52.7372 43.7962 53.6494C43.7962 54.5616 43.4314 55.4744 42.7012 56.2039L36.1318 62.7734C35.4017 63.5041 34.4895 63.8689 33.5773 63.8689V63.8689ZM41.2416 71.7159C40.3294 71.7159 39.4165 71.3511 38.687 70.621C37.9569 69.8909 37.5921 68.9786 37.5921 68.0664C37.5921 67.1542 37.9569 66.2414 38.687 65.5119L45.2564 58.9425C45.9866 58.2123 46.7161 57.8475 47.811 57.8475C48.7232 57.8475 49.6361 58.2123 50.3656 58.9425C51.8252 60.4021 51.8252 62.5919 50.3656 64.0522L43.7962 70.621C43.066 71.3511 42.1538 71.7159 41.2416 71.7159ZM51.4605 78.468C50.1829 79.7456 47.811 79.7456 46.3507 78.468C44.8911 77.0084 44.8911 74.8186 46.3507 73.3583L52.9201 66.7888C53.6503 66.0587 54.3798 65.6939 55.4747 65.6939C56.3869 65.6939 57.2997 66.0587 58.0293 66.7888C58.7594 67.519 59.1242 68.4312 59.1242 69.3434C59.1242 70.2556 58.7594 71.1684 58.0293 71.898L51.4605 78.468ZM84.672 55.109C83.2124 56.5687 80.8399 56.5687 79.5623 55.109L66.0587 41.6054C65.3285 40.8753 64.2336 40.8753 63.5041 41.6054C62.774 42.3356 62.774 43.4305 63.5041 44.16L77.0077 57.6636C77.7378 58.3937 78.1026 59.306 78.1026 60.2182C78.1026 61.1304 77.7378 62.0432 77.0077 62.7727C75.548 64.2324 73.1755 64.2324 71.8979 62.7727L56.934 47.8088C56.2039 47.0787 55.109 47.0787 54.3795 47.8088C53.6493 48.539 53.6493 49.6339 54.3795 50.3634L69.3434 65.3273C70.0735 66.0574 70.4383 66.9697 70.4383 67.8819C70.4383 68.7941 70.0735 69.7069 69.3434 70.4364C67.8837 71.8961 65.6939 71.8961 64.2336 70.4364L62.956 69.1588C62.956 67.1517 62.2259 65.3267 60.7662 64.0491C59.3065 62.5894 57.4815 61.8593 55.6565 61.8593H55.2917C55.4744 59.8522 54.7442 57.8444 53.1019 56.2021C51.6422 54.7424 49.8172 54.0123 47.9921 54.0123H47.6274V53.4648C47.6274 51.4577 46.8972 49.6326 45.4376 48.355C43.9779 46.8954 42.1529 46.1652 40.3278 46.1652H39.963C40.1457 44.1581 39.4156 42.1504 37.7732 40.508C36.3136 39.0484 34.4885 38.3182 32.6635 38.3182C30.6564 38.3182 29.014 39.0484 27.5537 40.3253L23.3568 44.5223L20.8022 41.9677C16.6059 38.6855 14.5982 33.5764 14.5982 28.2839C14.5982 22.9921 16.6053 17.8823 20.4375 14.0502C28.2845 6.20315 41.0576 6.20315 48.905 14.0502L52.9198 17.8823L43.2484 27.5538C41.606 29.1961 40.5111 31.5686 40.5111 33.9405C40.5111 36.313 41.4233 38.6849 43.2484 40.3272C45.0734 42.1523 47.4453 43.0645 49.6351 43.0645C51.8249 43.0645 54.3795 42.1523 56.0218 40.3272L65.6933 30.6558L84.6711 49.6336C85.4012 50.3637 85.766 51.2759 85.766 52.1881C85.7666 53.1016 85.4018 54.3792 84.6717 55.1087L84.672 55.109ZM86.3144 46.3498L66.9721 27.0076C66.4247 26.4601 65.6945 26.2774 64.965 26.6428C64.7823 26.6428 64.6003 26.8255 64.4176 27.0076L53.4685 37.9566C51.2787 40.1464 47.8113 40.1464 45.8042 37.9566C44.7093 36.8617 44.1618 35.5841 44.1618 34.1244C44.1618 32.6648 44.7093 31.2045 45.8042 30.2923L60.7681 15.3284C68.4318 7.2993 81.2053 7.2993 89.0526 15.1457C92.8847 18.9779 94.8919 23.9049 94.8919 29.3794C94.8919 34.6713 92.8847 39.781 89.0526 43.6132L86.3144 46.3498Z" fill="#E35D14"/>
</svg>
