<svg width="115" height="89" viewBox="0 0 115 89" fill="none" xmlns="http://www.w3.org/2000/svg">
<path d="M100.084 64.7238V11.0467C100.084 10.3266 99.501 9.74268 98.7802 9.74268H15.3223C14.6016 9.74268 14.0183 10.3266 14.0183 11.0467V64.7238C14.0183 65.444 14.6016 66.0278 15.3223 66.0278H27.6572V80.2359C27.6572 80.7402 27.9475 81.1993 28.4034 81.4151C28.5817 81.4985 28.7714 81.5399 28.9612 81.5399C29.2579 81.5399 29.5508 81.4387 29.7889 81.2432L48.3045 66.0278H98.7802C99.501 66.0278 100.084 65.4439 100.084 64.7238L100.084 64.7238ZM97.4762 63.4198H47.8383C47.5365 63.4198 47.2436 63.5248 47.0106 63.7165L30.2652 77.4763V64.7239C30.2652 64.0037 29.682 63.4198 28.9612 63.4198H16.6264V12.3508H97.4762L97.4762 63.4198Z" fill="black"/>
<path d="M34.4378 57.6398H46.2899C47.1381 57.6398 47.8283 56.9496 47.8283 56.1014V55.3577C48.8388 55.3717 49.8117 55.6774 50.6439 56.2517C51.9339 57.1425 53.4443 57.6131 55.0119 57.6131L70.1114 57.6137C73.9216 57.6137 77.069 54.7364 77.5057 51.0414C78.9931 50.3416 80.0316 48.8395 80.0316 47.0892C80.0316 46.0564 79.6572 45.1185 79.0568 44.369C80.101 43.5553 80.7854 42.3003 80.7854 40.8771C80.7854 39.7476 80.3486 38.7274 79.6527 37.9431C80.5931 37.128 81.2019 35.9393 81.2019 34.5989V34.2118C81.2019 31.7616 79.2088 29.7679 76.7587 29.7679H66.3227C66.9506 24.7442 66.529 21.416 65.0416 19.6177C64.2737 18.6887 63.2231 18.1755 62.0057 18.1328C60.8073 18.0927 59.6395 18.5423 58.7482 19.4031C57.8148 20.3041 57.2799 21.5667 57.2799 22.867V23.3655C57.2799 26.8892 56.1007 30.1913 53.9587 32.6637C51.8237 35.1285 49.3437 36.167 47.8283 36.5982V35.9328C47.8283 35.0847 47.1381 34.3944 46.2899 34.3944H34.4378C33.5897 34.3944 32.8994 35.0847 32.8994 35.9328V56.1012C32.8994 56.9487 33.5897 57.6389 34.4378 57.6389V57.6398ZM55.9298 34.371C58.4818 31.4249 59.8877 27.5159 59.8877 23.365V22.8665C59.8877 22.2692 60.1322 21.6904 60.5601 21.2784C60.9371 20.9123 61.3891 20.713 61.9163 20.7391C62.3926 20.7557 62.7365 20.9219 63.0319 21.2791C63.6585 22.0361 64.5563 24.2889 63.5337 30.8715C63.4751 31.2478 63.5846 31.6305 63.8316 31.9196C64.08 32.2093 64.4416 32.3755 64.8224 32.3755H76.7587C77.7711 32.3755 78.5938 33.1988 78.5938 34.2112V34.5984C78.5938 35.6101 77.7711 36.4335 76.7587 36.4335H69.3968C68.676 36.4335 68.0927 37.0173 68.0927 37.7375C68.0927 38.4576 68.676 39.0415 69.3968 39.0415H76.3422C77.3546 39.0415 78.1773 39.8648 78.1773 40.8766C78.1773 41.8884 77.3546 42.7117 76.3422 42.7117H69.8641C69.1433 42.7117 68.5601 43.2956 68.5601 44.0157C68.5601 44.7359 69.1433 45.3198 69.8641 45.3198H75.6545C76.63 45.3198 77.4234 46.1138 77.4234 47.0892C77.4234 48.0646 76.63 48.8586 75.6545 48.8586H69.8641C69.1433 48.8586 68.5601 49.4425 68.5601 50.1626C68.5601 50.8828 69.1433 51.4666 69.8641 51.4666H74.7759C74.2054 53.5055 72.3295 55.0056 70.1112 55.0056H55.0117C53.9751 55.0056 52.9779 54.6949 52.126 54.1065C50.8545 53.2298 49.3696 52.7643 47.8281 52.7503V39.2924C49.6034 38.8963 53.0175 37.7337 55.9299 34.3711L55.9298 34.371ZM35.5071 37.0021H45.2198V55.0319H35.5071V37.0021Z" fill="#E35D14"/>
<path d="M42.0827 48.8584C41.3619 48.8584 40.7786 49.4423 40.7786 50.1624V51.6021C40.7786 52.3222 41.3619 52.9061 42.0827 52.9061C42.8034 52.9061 43.3867 52.3222 43.3867 51.6021V50.1624C43.3867 49.4423 42.8034 48.8584 42.0827 48.8584Z" fill="black"/>
</svg>
