<svg width="104" height="89" viewBox="0 0 104 89" fill="none" xmlns="http://www.w3.org/2000/svg">
<path d="M91.4142 10.3488H71.9244H71.5796C70.7174 8.96919 69.5099 7.76163 68.475 6.72674C68.475 6.72674 68.3023 6.72674 68.3023 6.55407C63.9901 2.58721 58.1261 0 51.7442 0C45.3622 0 39.4982 2.58721 35.186 6.55407C35.186 6.55407 35.0134 6.55407 35.0134 6.72674C33.8058 7.76163 32.7709 8.96919 31.9087 10.3488H12.0744C11.0395 10.3488 10.3494 11.039 10.3494 12.0738V67.2672C10.3494 68.302 11.0395 68.9922 12.0744 68.9922H37.4291L34.6692 79.341H29.3221C28.2872 79.341 27.5971 80.0311 27.5971 81.066C27.5971 82.1009 28.2872 82.791 29.3221 82.791H74.1665C75.2014 82.791 75.8915 82.1009 75.8915 81.066C75.8915 80.0311 75.2014 79.341 74.1665 79.341H68.8195L66.0596 68.9922H91.4142C92.4491 68.9922 93.1392 68.302 93.1392 67.2672V12.0738C93.1392 11.039 92.4491 10.3488 91.4142 10.3488ZM72.2689 22.4227H63.2997C63.127 19.1454 62.7822 16.0407 62.0921 13.2814C63.8171 12.4192 65.3694 11.3843 66.7491 10.1768C70.027 13.4535 71.9241 17.7657 72.2689 22.4227ZM51.7442 32.4262C49.3296 32.4262 46.9145 32.7709 44.5 33.6337C43.9825 31.2192 43.6378 28.632 43.4651 25.8721H59.8503C59.6776 28.8041 59.3328 31.3913 58.8154 33.6337C56.5735 32.9436 54.1584 32.4262 51.7439 32.4262H51.7442ZM58.1261 36.9111C56.5738 41.7407 54.1593 44.6727 51.7442 44.6727C49.3296 44.6727 47.0872 41.7407 45.3622 36.9111C47.432 36.2209 49.5017 35.8762 51.7442 35.8762C53.9866 35.8762 56.0564 36.2209 58.1261 36.9111ZM44.6727 43.4651C42.6029 42.775 40.7058 41.7401 39.1535 40.3605C40.1884 39.4983 41.2233 38.9808 42.2581 38.2907C42.9477 40.1878 43.6378 41.9128 44.6727 43.4651ZM43.6378 22.423C43.8105 19.491 44.1552 16.9038 44.6727 14.6613C46.9151 15.3515 49.5023 15.8689 51.9168 15.8689C54.3314 15.8689 56.7465 15.5241 59.161 14.6613C59.6785 17.0759 60.0232 19.6631 60.1959 22.423H43.6378ZM61.2308 38.2907C62.2657 38.8081 63.4732 39.4983 64.3354 40.3605C62.6104 41.7401 60.7134 42.775 58.8163 43.4651C59.8506 41.9128 60.5407 40.1878 61.2308 38.2907ZM62.2657 34.8413C62.9558 32.0814 63.3006 28.9767 63.4732 25.7H72.4424C72.0977 30.357 70.0279 34.4965 67.0953 37.7738C65.5424 36.7384 63.9901 35.7035 62.2657 34.8413ZM64.5075 7.93431C63.4727 8.62443 62.4378 9.31395 61.4029 10.0041C60.7128 8.10698 59.8506 6.38198 58.9884 4.82965C60.8854 5.5192 62.7831 6.55407 64.5075 7.93431ZM51.7442 3.44942C53.9866 3.44942 56.4011 6.38139 58.1261 11.211C56.0564 11.9012 53.9866 12.2459 51.7442 12.2459C49.5017 12.2459 47.432 11.9012 45.3622 11.211C47.0872 6.38198 49.5017 3.44942 51.7442 3.44942ZM44.6727 4.65698C43.8105 6.03662 42.9477 7.76163 42.2581 9.8314C41.2233 9.31395 40.0157 8.62383 39.1535 7.76163C40.7052 6.55407 42.6029 5.51918 44.6727 4.65698ZM36.5657 10.1762C38.118 11.3837 39.6703 12.4186 41.2227 13.2808C40.5325 16.0407 40.1878 19.1454 40.0151 22.4221H31.0459C31.5639 17.7657 33.461 13.4535 36.5657 10.1762ZM40.1878 25.8724C40.3605 29.1497 40.7052 32.2544 41.3953 35.0137C39.6703 35.8759 38.118 36.9108 36.7384 38.1183C33.8064 34.841 31.7366 30.7015 31.3913 26.0445L40.1878 26.0451V25.8724ZM38.2907 79.3419L41.0506 68.993H62.6101L65.37 79.3419H38.2907ZM89.6904 65.543H13.798V54.6768H89.6889L89.6904 65.543ZM89.6904 51.2273H13.798V13.7985H30.0116C28.4593 16.9032 27.5971 20.3526 27.5971 24.1474C27.5971 30.8741 30.5291 37.0834 35.014 41.5674V41.7401L35.1866 41.9128C39.4988 45.8797 45.1907 48.4669 51.5718 48.4669C57.9538 48.4669 63.6456 46.0523 67.957 41.9128C67.957 41.9128 68.1296 41.9128 68.1296 41.7401V41.5674C72.9587 37.0831 75.8907 30.8738 75.8907 24.1474C75.8907 20.5253 75.0285 17.0759 73.4761 13.7985H89.6898L89.6904 51.2273Z" fill="#E35D14"/>
<path d="M53.4695 58.1265H50.0195C48.9846 58.1265 48.2945 58.8166 48.2945 59.8515C48.2945 60.8864 48.9846 61.5765 50.0195 61.5765L53.4695 61.5759C54.5044 61.5759 55.1945 60.8858 55.1945 59.8509C55.1939 58.816 54.5044 58.1265 53.4695 58.1265V58.1265Z" fill="black"/>
</svg>
