<svg width="110" height="89" viewBox="0 0 110 89" fill="none" xmlns="http://www.w3.org/2000/svg">
<path d="M27.3882 62.6133H24.244C23.5523 62.6133 22.9927 63.1729 22.9927 63.8646C22.9927 64.5562 23.5523 65.1159 24.244 65.1159H27.3882C28.0799 65.1159 28.6396 64.5562 28.6396 63.8646C28.6396 63.1729 28.0799 62.6133 27.3882 62.6133Z" fill="black"/>
<path d="M13.5238 9.47193V68.6405C13.5238 69.9859 14.6175 71.0796 15.9629 71.0796H45.6129C45.3257 73.5102 44.0695 75.9926 41.8503 78.4738C41.5204 78.8429 41.4385 79.3696 41.6402 79.8192C41.8418 80.2702 42.289 80.5598 42.7827 80.5598H66.7064C67.1988 80.5598 67.6461 80.2702 67.8477 79.8205C68.0493 79.372 67.9687 78.8453 67.6412 78.4775C65.4343 75.9938 64.1793 73.5107 63.8824 71.0796H93.5261C94.8715 71.0796 95.9652 69.9859 95.9652 68.6404V9.47185C95.9652 8.12643 94.8716 7.03271 93.5261 7.03271H15.9616C14.6162 7.03271 13.5225 8.1264 13.5225 9.47185L13.5238 9.47193ZM64.1177 78.0567H45.3792C46.9984 75.7532 47.9222 73.4168 48.1373 71.0792H61.3568C61.5792 73.4168 62.5043 75.7521 64.1172 78.0567H64.1177ZM62.6819 68.6016C62.6391 68.5973 62.6 68.5759 62.556 68.5759H46.9341C46.8681 68.5759 46.8076 68.604 46.7428 68.6144L16.0261 68.64V59.1513H93.5171L93.5269 68.5765L62.6819 68.6016ZM93.4643 9.47052L93.515 56.6483H16.0271V9.53465L93.4643 9.47052Z" fill="black"/>
<path d="M33.3852 47.3749C33.6296 47.7097 34.0109 47.8869 34.3958 47.8869C34.5577 47.8869 34.7172 47.8436 34.8717 47.7794H74.6214C74.7754 47.8436 74.9349 47.8869 75.0974 47.8869C75.4823 47.8869 75.8636 47.7097 76.108 47.3749C76.2717 47.1507 76.3286 46.8904 76.3273 46.6326C76.3304 46.5965 76.3481 46.5647 76.3481 46.5281V19.5496C76.3481 19.4867 76.3212 19.4323 76.312 19.3712C76.2992 19.2845 76.2919 19.1995 76.2607 19.1158C76.2283 19.0279 76.1758 18.9539 76.1251 18.8763C76.0939 18.8281 76.0799 18.7737 76.0414 18.7291C76.0316 18.7187 76.0182 18.715 76.0084 18.7046C75.9448 18.6362 75.8672 18.5886 75.7903 18.5354C75.731 18.4951 75.6778 18.4456 75.6137 18.4163C75.5489 18.3869 75.4768 18.379 75.406 18.3607C75.3167 18.3381 75.2306 18.3099 75.139 18.3069C75.1243 18.3063 75.1121 18.2983 75.0968 18.2983H34.393C34.3789 18.2983 34.3673 18.3057 34.3539 18.3063C34.2573 18.3093 34.1675 18.3381 34.074 18.3625C34.008 18.3802 33.9396 18.3875 33.8779 18.415C33.8125 18.445 33.7575 18.4951 33.6977 18.5366C33.6219 18.5892 33.5443 18.6362 33.482 18.7034C33.4722 18.7138 33.4588 18.7175 33.449 18.7291C33.4099 18.7737 33.3964 18.8287 33.3653 18.8763C33.3146 18.9539 33.2626 19.0273 33.2296 19.1152C33.1985 19.1989 33.1905 19.2839 33.1783 19.3706C33.1692 19.4311 33.1423 19.4855 33.1423 19.5484V46.5269C33.1423 46.569 33.1618 46.6051 33.1661 46.6466C33.1679 46.9002 33.2241 47.1556 33.3848 47.3749L33.3852 47.3749ZM73.845 44.1678L60.1808 34.1604L73.845 22.2943V44.1678ZM52.1816 36.6544C52.9123 37.2898 53.8275 37.6063 54.7454 37.6063C55.6606 37.6063 56.5771 37.2886 57.3079 36.6544L58.2427 35.8424L71.1243 45.2767H38.3679L51.2483 35.843L52.1816 36.6544ZM55.6679 34.7652C55.1485 35.2161 54.3384 35.2137 53.8214 34.7652L37.742 20.8016H71.7481L55.6679 34.7652ZM49.3099 34.1609L35.6438 44.169L35.6444 22.2928L49.3099 34.1609Z" fill="#E35D14"/>
</svg>
