<svg width="109" height="89" viewBox="0 0 109 89" fill="none" xmlns="http://www.w3.org/2000/svg">
<path d="M92.8365 83.635H15.8927C14.968 83.635 14.2198 82.8869 14.2198 81.9621L14.2192 18.3994C14.2192 17.4747 14.9673 16.7266 15.8921 16.7266H92.8359C93.7605 16.7266 94.5087 17.4747 94.5087 18.3994V81.9621C94.5093 82.8868 93.7606 83.635 92.8365 83.635H92.8365ZM17.5639 80.2895H91.1637V20.0724H17.5639V80.2895Z" fill="black"/>
<path d="M30.3998 83.6289H14.2167V74.1549L38.4175 49.9556L39.1262 52.8357C39.6686 55.0363 40.8281 57.0731 42.4815 58.7277C44.1166 60.3628 46.1522 61.5242 48.3668 62.0847L51.2203 62.8086L30.3998 83.6289ZM17.562 80.2841H29.0146L44.8964 64.4023C43.1289 63.6032 41.5066 62.4844 40.1166 61.0944C38.7151 59.691 37.5945 58.0675 36.8008 56.3049L17.5625 75.5416L17.562 80.2841Z" fill="#E35D14"/>
<path d="M92.8364 20.0722H15.8926C14.9679 20.0722 14.2197 19.3241 14.2197 18.3994L14.2191 5.01804C14.2191 4.09339 14.9672 3.34521 15.8919 3.34521H92.8358C93.7605 3.34521 94.5086 4.09331 94.5086 5.01804V18.3994C94.5092 19.3241 93.7605 20.0722 92.8364 20.0722H92.8364ZM17.5638 16.7267H91.1636V6.69087H17.5638V16.7267Z" fill="black"/>
<path d="M35.9635 13.3813H34.2906C33.366 13.3813 32.6178 12.6332 32.6178 11.7085C32.6178 10.7838 33.3659 10.0356 34.2906 10.0356H35.9635C36.8881 10.0356 37.6363 10.7837 37.6363 11.7085C37.6363 12.6331 36.8882 13.3813 35.9635 13.3813Z" fill="#E35D14"/>
<path d="M46.0004 13.3813H44.3276C43.403 13.3813 42.6548 12.6332 42.6548 11.7085C42.6548 10.7838 43.4029 10.0356 44.3276 10.0356H46.0004C46.9251 10.0356 47.6733 10.7837 47.6733 11.7085C47.6733 12.6331 46.9252 13.3813 46.0004 13.3813Z" fill="#E35D14"/>
<path d="M56.0358 13.3813H54.363C53.4384 13.3813 52.6902 12.6332 52.6902 11.7085C52.6902 10.7838 53.4383 10.0356 54.363 10.0356H56.0358C56.9605 10.0356 57.7087 10.7837 57.7087 11.7085C57.7087 12.6331 56.9606 13.3813 56.0358 13.3813Z" fill="#E35D14"/>
<path d="M25.928 13.3813H24.2552C23.3306 13.3813 22.5824 12.6332 22.5824 11.7085C22.5824 10.7838 23.3305 10.0356 24.2552 10.0356H25.928C26.8527 10.0356 27.6009 10.7837 27.6009 11.7085C27.6009 12.6331 26.8528 13.3813 25.928 13.3813Z" fill="#E35D14"/>
<path d="M51.5718 65.849C50.987 65.849 50.3778 65.8096 49.7571 65.7332C49.117 65.6694 48.3816 65.5354 47.5516 65.3297C44.7466 64.6174 42.1771 63.1539 40.1162 61.0923C38.0302 59.0046 36.565 56.4272 35.8788 53.6356C35.6907 52.9773 35.5487 52.211 35.4687 51.4107C35.3528 50.4533 35.3267 49.4965 35.3983 48.6009C35.627 44.7099 37.3028 40.9968 40.1156 38.1858C44.8202 33.4994 51.7903 32.1403 57.8768 34.734C58.3882 34.9512 58.7571 35.4087 58.8633 35.9542C58.9695 36.4996 58.7978 37.0614 58.404 37.4552L49.4232 46.4378C49.0507 46.8104 48.8469 47.3018 48.8469 47.823C48.8469 48.3442 49.0513 48.8356 49.4232 49.2082L51.9861 51.7873C52.739 52.5336 53.989 52.5336 54.7583 51.7776L63.7342 42.8017C64.1262 42.4079 64.6898 42.2301 65.2353 42.3424C65.7807 42.4486 66.2382 42.8174 66.4554 43.3289C69.0492 49.4284 67.695 56.4003 63.0037 61.0916C63.0019 61.0935 63.0019 61.0947 63.0006 61.0947C60.1927 63.8844 56.4862 65.559 52.5606 65.809C52.2421 65.8363 51.912 65.8491 51.5723 65.8491L51.5718 65.849ZM51.5458 36.785C48.2197 36.785 44.9548 38.0883 42.48 40.5535C40.2504 42.785 38.9191 45.7253 38.736 48.8336C38.6801 49.541 38.7002 50.2727 38.7948 51.0421C38.8585 51.684 38.9647 52.2574 39.1115 52.7816C39.6685 55.0356 40.8286 57.073 42.4813 58.7275C44.1164 60.3626 46.152 61.5239 48.3666 62.0845C49.0328 62.2513 49.6116 62.3575 50.1292 62.4097C50.9264 62.508 51.6563 62.5292 52.3213 62.4734C55.4641 62.2744 58.4081 60.9426 60.6407 58.7262C63.7363 55.6289 65.0006 51.2793 64.1513 47.1183L57.1175 54.1503C55.048 56.1968 51.6879 56.1956 49.6244 54.1582L47.053 51.5705C46.0532 50.5706 45.501 49.2394 45.501 47.8233C45.501 46.4084 46.0531 45.0772 47.0578 44.0726L54.0887 37.0407C53.2465 36.8702 52.3935 36.7852 51.5459 36.7852L51.5458 36.785ZM61.8219 59.911H61.8383H61.8219Z" fill="#E35D14"/>
</svg>
