<svg width="108" height="89" viewBox="0 0 108 89" fill="none" xmlns="http://www.w3.org/2000/svg">
<path d="M33.8185 24.7453H23.9202C23.0089 24.7453 22.2704 24.0069 22.2704 23.0955V13.1972C22.2704 12.2858 23.0088 11.5474 23.9202 11.5474H33.8185C34.7298 11.5474 35.4683 12.2858 35.4683 13.1972V23.0955C35.4683 24.0062 34.7293 24.7453 33.8185 24.7453ZM25.5698 21.4458H32.1687V14.8469H25.5698V21.4458Z" fill="#E35D14"/>
<path d="M33.8185 44.5412H23.9202C23.0089 44.5412 22.2704 43.8028 22.2704 42.8914V32.9931C22.2704 32.0817 23.0088 31.3433 23.9202 31.3433H33.8185C34.7298 31.3433 35.4683 32.0817 35.4683 32.9931V42.8914C35.4683 43.8027 34.7293 44.5412 33.8185 44.5412ZM25.5698 41.2417H32.1687V34.6429H25.5698V41.2417Z" fill="#E35D14"/>
<path d="M33.8185 64.3371H23.9202C23.0089 64.3371 22.2704 63.5987 22.2704 62.6873V52.789C22.2704 51.8776 23.0088 51.1392 23.9202 51.1392H33.8185C34.7298 51.1392 35.4683 51.8776 35.4683 52.789V62.6873C35.4683 63.5986 34.7293 64.3371 33.8185 64.3371ZM25.5698 61.0376H32.1687V54.4388H25.5698V61.0376Z" fill="#E35D14"/>
<path d="M55.2643 16.4964H42.0672C41.1558 16.4964 40.4174 15.758 40.4174 14.8466C40.4174 13.9352 41.1558 13.1968 42.0672 13.1968H55.2643C56.1756 13.1968 56.9141 13.9352 56.9141 14.8466C56.9141 15.758 56.1751 16.4964 55.2643 16.4964Z" fill="black"/>
<path d="M48.6651 23.0955H42.0662C41.1549 23.0955 40.4164 22.3571 40.4164 21.4457C40.4164 20.5343 41.1548 19.7959 42.0662 19.7959H48.6651C49.5764 19.7959 50.3149 20.5343 50.3149 21.4457C50.3149 22.3571 49.5765 23.0955 48.6651 23.0955Z" fill="black"/>
<path d="M48.6651 42.8914H42.0662C41.1549 42.8914 40.4164 42.153 40.4164 41.2416C40.4164 40.3302 41.1548 39.5918 42.0662 39.5918H48.6651C49.5764 39.5918 50.3149 40.3302 50.3149 41.2416C50.3149 42.153 49.5765 42.8914 48.6651 42.8914Z" fill="black"/>
<path d="M55.2643 36.2923H42.0672C41.1558 36.2923 40.4174 35.5539 40.4174 34.6425C40.4174 33.7311 41.1558 32.9927 42.0672 32.9927H55.2643C56.1756 32.9927 56.9141 33.7311 56.9141 34.6425C56.9141 35.5538 56.1751 36.2923 55.2643 36.2923Z" fill="black"/>
<path d="M51.9647 56.0881H42.0664C41.155 56.0881 40.4166 55.3497 40.4166 54.4384C40.4166 53.527 41.155 52.7886 42.0664 52.7886H51.9647C52.876 52.7886 53.6145 53.527 53.6145 54.4384C53.6145 55.3497 52.8761 56.0881 51.9647 56.0881Z" fill="black"/>
<path d="M48.6651 62.6873H42.0662C41.1549 62.6873 40.4164 61.9489 40.4164 61.0375C40.4164 60.1262 41.1548 59.3877 42.0662 59.3877H48.6651C49.5764 59.3877 50.3149 60.1261 50.3149 61.0375C50.3149 61.9488 49.5765 62.6873 48.6651 62.6873Z" fill="black"/>
<path d="M58.5638 72.5862H18.9719C16.2427 72.5862 14.0226 70.3663 14.0226 67.637V8.24903C14.0226 5.5199 16.2426 3.2998 18.9719 3.2998H60.2136C62.9428 3.2998 65.1629 5.51975 65.1629 8.24903V53.2591L64.668 53.7438C61.7958 56.5617 60.2137 60.3242 60.2137 64.338C60.2137 66.3379 60.6045 68.2778 61.3752 70.104L62.1082 71.8418L60.2885 72.3372C59.6716 72.5054 59.1073 72.5868 58.5639 72.5868L58.5638 72.5862ZM18.9719 6.59909C18.0623 6.59909 17.3221 7.33927 17.3221 8.24888V67.6369C17.3221 68.5464 18.0623 69.2866 18.9719 69.2866H57.5972C57.1425 67.686 56.9139 66.029 56.9139 64.3374C56.9139 59.6665 58.666 55.2738 61.8631 51.8918V8.24811C61.8631 7.33858 61.123 6.59832 60.2133 6.59832L18.9719 6.59909Z" fill="black"/>
<path d="M73.4105 70.9365C72.9736 70.9365 72.5542 70.7635 72.2442 70.453L67.295 65.5038C66.6505 64.8593 66.6505 63.8152 67.295 63.1712C67.9394 62.5268 68.9835 62.5268 69.6275 63.1712L73.2992 66.8429L80.3918 58.3328C80.9752 57.6327 82.0134 57.5375 82.7147 58.1215C83.4148 58.705 83.5087 59.7444 82.9259 60.4444L74.6772 70.3427C74.381 70.6987 73.9484 70.9136 73.4853 70.9345C73.4607 70.9351 73.4356 70.9363 73.4105 70.9363L73.4105 70.9365Z" fill="black"/>
<path d="M75.0603 82.4833C65.0543 82.4833 56.9141 74.343 56.9141 64.3371C56.9141 54.3313 65.0544 46.1909 75.0603 46.1909C85.0661 46.1909 93.2065 54.3313 93.2065 64.3371C93.2065 74.343 85.0661 82.4833 75.0603 82.4833ZM75.0603 49.4905C66.8739 49.4905 60.2133 56.151 60.2133 64.3374C60.2133 72.5239 66.8738 79.1843 75.0603 79.1843C83.2467 79.1843 89.9072 72.5239 89.9072 64.3374C89.9072 56.151 83.2467 49.4905 75.0603 49.4905Z" fill="#E35D14"/>
</svg>
