<svg width="110" height="89" viewBox="0 0 110 89" fill="none" xmlns="http://www.w3.org/2000/svg">
<path d="M84.7479 79.299C84.4904 79.299 84.2316 79.2399 83.9942 79.1206C83.4139 78.829 83.0547 78.2286 83.07 77.5796L83.0833 77.3281C83.0894 70.7434 77.8174 65.472 71.3391 65.472C64.8608 65.472 59.5894 70.7428 59.5894 77.2217L59.6089 77.5791C59.6235 78.2281 59.2649 78.8285 58.6846 79.1201C58.1093 79.4093 57.4091 79.3442 56.8976 78.9429C51.1408 74.4471 47.8391 67.6985 47.8391 60.4275C47.8391 59.4972 47.8933 58.5668 48.0017 57.6615C48.0839 56.9771 48.5752 56.4115 49.2407 56.2362C57.9856 53.9365 64.8461 47.0754 67.1482 38.3302C67.3236 37.6641 67.8874 37.1727 68.5711 37.0912C69.4741 36.9816 70.4068 36.9268 71.3396 36.9268C84.2979 36.9268 94.8397 47.4685 94.8397 60.4268C94.8397 67.6966 91.5384 74.4456 85.7812 78.9422C85.4816 79.1773 85.1157 79.2978 84.7485 79.2978L84.7479 79.299ZM71.3392 62.1147C78.5962 62.1147 84.6744 67.2583 86.1204 74.0915C89.5591 70.3928 91.4819 65.5609 91.4819 60.4276C91.4819 49.3208 82.4464 40.2849 71.3392 40.2849C70.913 40.2849 70.4886 40.2983 70.0685 40.3245C67.2983 49.3149 60.2252 56.3866 51.2351 59.1579C51.2096 59.5792 51.1962 60.0036 51.1962 60.4279C51.1962 65.5613 53.1189 70.3931 56.5583 74.0918C58.0037 67.2586 64.082 62.115 71.3388 62.115L71.3392 62.1147Z" fill="black"/>
<path d="M42.8042 60.4281C27.0694 60.4281 14.2681 47.6275 14.2681 31.8935C14.2681 16.1588 27.0686 3.35742 42.8042 3.35742C58.5389 3.35742 71.3403 16.158 71.3403 31.8935C71.3403 34.3886 71.0224 36.8448 70.3929 39.1931C67.7857 49.0986 60.0095 56.8762 50.0975 59.4838C47.7546 60.1103 45.2991 60.4282 42.8046 60.4282L42.8042 60.4281ZM42.8042 6.71479C28.9199 6.71479 17.6254 18.0097 17.6254 31.8935C17.6254 45.7772 28.9197 57.0723 42.8042 57.0723C45.0058 57.0723 47.1697 56.7922 49.2368 56.2393C57.9873 53.9378 64.8469 47.0767 67.149 38.3318C67.7025 36.2586 67.9825 34.0953 67.9825 31.8931C67.9825 18.0094 56.6883 6.71436 42.8038 6.71436L42.8042 6.71479Z" fill="#E35D14"/>
<path d="M42.8026 48.6868C33.5474 48.6868 26.0173 41.1571 26.0173 31.9015C26.0173 22.6457 33.5476 15.1162 42.8026 15.1162C52.0579 15.1162 59.5879 22.646 59.5879 31.9015C59.5879 41.1574 52.0577 48.6868 42.8026 48.6868ZM42.8026 18.4736C35.3983 18.4736 29.3744 24.4975 29.3744 31.9018C29.3744 39.3061 35.3983 45.3301 42.8026 45.3301C50.2069 45.3301 56.2309 39.3061 56.2309 31.9018C56.2309 24.4975 50.2069 18.4736 42.8026 18.4736Z" fill="black"/>
<path d="M42.2508 42.2854V40.4564C39.9621 40.2232 37.9086 39.3124 36.0874 37.7262L37.9163 35.5466C39.3198 36.7655 40.7645 37.4918 42.2508 37.7262V32.8657C40.3628 32.4151 38.9819 31.8221 38.1051 31.0866C37.2283 30.3517 36.7888 29.2619 36.7888 27.8176C36.7888 26.3734 37.2941 25.1916 38.3048 24.2723C39.3149 23.3535 40.6313 22.853 42.2507 22.7696V21.5166H43.8545V22.794C45.6913 22.9285 47.4285 23.5544 49.0657 24.6736L47.4364 26.9787C46.3344 26.1939 45.1399 25.7098 43.8546 25.5247V30.2343H43.9301C45.8504 30.686 47.2618 31.2955 48.1635 32.0632C49.0658 32.8316 49.5163 33.947 49.5163 35.4076C49.5163 36.8695 48.9982 38.0599 47.9625 38.9773C46.9269 39.8967 45.5575 40.3972 43.8547 40.4812V42.2846L42.2508 42.2854ZM40.4846 26.1142C40.0596 26.4892 39.8465 26.9574 39.8465 27.517C39.8465 28.0765 40.0127 28.5191 40.347 28.8443C40.6812 29.1706 41.3156 29.4836 42.2515 29.7843V25.4498C41.4996 25.5162 40.9108 25.7378 40.4846 26.1141L40.4846 26.1142ZM45.7585 37.0992C46.2255 36.7156 46.4599 36.2316 46.4599 35.6465C46.4599 35.0626 46.2754 34.5986 45.9083 34.2558C45.5411 33.9131 44.8561 33.5922 43.8539 33.2914V37.8C44.6558 37.7178 45.2908 37.4834 45.7585 37.0992L45.7585 37.0992Z" fill="#E35D14"/>
<path d="M41.1239 5.04395H44.4811V10.0798H41.1239V5.04395Z" fill="black"/>
<path d="M41.1239 53.7227H44.4811V58.7586H41.1239V53.7227Z" fill="black"/>
<path d="M57.0457 15.284L60.6076 11.7222L62.981 14.0956L59.4191 17.6574L57.0457 15.284Z" fill="black"/>
<path d="M22.6241 49.7042L26.1847 46.1436L28.5581 48.5169L24.9975 52.0776L22.6241 49.7042Z" fill="black"/>
<path d="M64.6255 30.2227H69.6615V33.5799H64.6255V30.2227Z" fill="black"/>
<path d="M15.9452 30.2227H20.9811V33.5799H15.9452V30.2227Z" fill="black"/>
<path d="M57.0473 48.5184L59.4207 46.145L62.9813 49.7056L60.6079 52.079L57.0473 48.5184Z" fill="black"/>
<path d="M22.6241 14.097L24.9975 11.7236L28.5581 15.2843L26.1847 17.6576L22.6241 14.097Z" fill="black"/>
<path d="M71.3387 65.4718C67.6356 65.4718 64.6243 62.4599 64.6243 58.7574C64.6243 55.0549 67.6356 52.043 71.3387 52.043C75.0418 52.043 78.0532 55.0549 78.0532 58.7574C78.0532 62.4599 75.0418 65.4718 71.3387 65.4718ZM71.3387 55.4008C69.4878 55.4008 67.9815 56.9065 67.9815 58.758C67.9815 60.6096 69.4878 62.1152 71.3387 62.1152C73.1896 62.1152 74.6959 60.6095 74.6959 58.758C74.6959 56.9065 73.1896 55.4008 71.3387 55.4008Z" fill="#E35D14"/>
<path d="M71.3387 83.928C66.0673 83.928 61.0722 82.2043 56.8973 78.9434C56.5004 78.6347 56.2647 78.1641 56.2513 77.6618C56.2386 77.4474 56.2319 77.336 56.2319 77.2222C56.2319 68.8925 63.0085 62.1152 71.3388 62.1152C79.6691 62.1152 86.4457 68.8923 86.4457 77.2222C86.4457 77.336 86.439 77.4474 86.4311 77.5589C86.4195 78.0612 86.1772 78.6341 85.7802 78.9434C81.6053 82.2044 76.6109 83.928 71.3389 83.928H71.3387ZM59.5969 76.774C63.0424 79.2606 67.0865 80.5708 71.3387 80.5708C75.5873 80.5708 79.6265 79.263 83.0708 76.7801C82.7938 70.4535 77.6368 65.4718 71.3387 65.4718C65.0097 65.4718 59.835 70.5021 59.5969 76.774ZM84.7476 77.6204H84.7641H84.7476Z" fill="#E35D14"/>
</svg>
