<svg width="109" height="89" viewBox="0 0 109 89" fill="none" xmlns="http://www.w3.org/2000/svg">
<path d="M69.4402 51.8546H39.2874C36.7373 51.8546 34.359 50.7127 32.7632 48.7239C31.1675 46.735 30.5692 44.1655 31.1214 41.6761L34.0191 32.3434C35.3588 25.2271 41.5644 20.0723 48.8155 20.0723H59.9119C67.163 20.0723 73.3686 25.2259 74.7064 32.3422L77.5703 41.5415C78.1582 44.1656 77.5606 46.7351 75.9642 48.7239C74.3686 50.7128 71.9901 51.8546 69.4401 51.8546H69.4402ZM48.8149 23.4181C43.1481 23.4181 38.3014 27.4661 37.2918 33.0427L37.2426 33.2411L34.3516 42.5356C34.0561 43.8953 34.4135 45.4376 35.3727 46.631C36.3301 47.8244 37.756 48.5088 39.2867 48.5088H69.4396C70.9703 48.5088 72.3961 47.8244 73.3535 46.631C74.3122 45.4375 74.6702 43.8959 74.3383 42.402L71.432 33.0419C70.4242 27.4661 65.5788 23.418 59.9108 23.418L48.8149 23.4181Z" fill="#E35D14"/>
<path d="M54.363 23.4182C48.8283 23.4182 44.3265 18.9163 44.3265 13.3817C44.3265 7.84709 48.8283 3.34521 54.363 3.34521C59.8976 3.34521 64.3994 7.84709 64.3994 13.3817C64.3994 18.9163 59.8976 23.4182 54.363 23.4182ZM54.363 6.69149C50.6728 6.69149 47.672 9.69295 47.672 13.3825C47.672 17.072 50.6728 20.0735 54.363 20.0735C58.0531 20.0735 61.0539 17.072 61.0539 13.3825C61.0539 9.69295 58.0531 6.69149 54.363 6.69149Z" fill="#E35D14"/>
<path d="M37.4903 83.6353H17.7083C16.7182 83.6353 15.7808 83.2008 15.137 82.4442C14.5096 81.7059 14.2384 80.7388 14.3919 79.7929C15.4543 73.2967 21.0084 68.5811 27.5992 68.5811C34.1919 68.5811 39.7477 73.2971 40.8058 79.7935C40.9593 80.7394 40.6881 81.7065 40.0607 82.4449C39.4176 83.2009 38.4802 83.6353 37.49 83.6353L37.4903 83.6353ZM27.5993 71.9259C22.6545 71.9259 18.4893 75.4608 17.6956 80.3322L37.49 80.2897C36.7091 75.4613 32.5439 71.9259 27.599 71.9259L27.5993 71.9259Z" fill="black"/>
<path d="M91.0177 83.6354H71.2357C70.2455 83.6354 69.3082 83.201 68.6644 82.4444C68.037 81.706 67.7658 80.7389 67.9193 79.793C68.9811 73.2968 74.5351 68.5806 81.1259 68.5806C87.7186 68.5806 93.2745 73.2966 94.3326 79.793C94.4861 80.7389 94.2149 81.706 93.5875 82.4444C92.945 83.201 92.0069 83.6354 91.0174 83.6354H91.0177ZM81.1267 71.9261C76.1818 71.9261 72.0167 75.4609 71.223 80.3323L91.0173 80.2898C90.2365 75.4615 86.0706 71.926 81.1264 71.926L81.1267 71.9261Z" fill="black"/>
<path d="M84.4708 53.5274C84.1213 53.5274 83.77 53.4182 83.4697 53.1925C82.7295 52.6385 82.5796 51.5901 83.1348 50.8511L87.8174 44.6054V30.1088H81.1264C80.2018 30.1088 79.4536 29.3601 79.4536 28.436C79.4536 27.5119 80.2017 26.7632 81.1264 26.7632H89.4903C90.4149 26.7632 91.1631 27.5119 91.1631 28.436V45.1627C91.1631 45.5243 91.0454 45.8769 90.8282 46.1663L85.8099 52.8573C85.4816 53.2971 84.9805 53.5271 84.4708 53.5271L84.4708 53.5274Z" fill="black"/>
<path d="M24.2552 53.5276C23.7456 53.5276 23.2438 53.2971 22.9156 52.8578L17.8972 46.1668C17.6806 45.8774 17.5629 45.5255 17.5629 45.1632V28.4365C17.5629 27.5125 18.311 26.7637 19.2358 26.7637H27.5996C28.5242 26.7637 29.2724 27.5124 29.2724 28.4365C29.2724 29.3606 28.5243 30.1093 27.5996 30.1093H20.9086V44.6059L25.5919 50.8516C26.147 51.5906 25.9972 52.6397 25.257 53.193C24.956 53.4187 24.6047 53.5279 24.2553 53.5279L24.2552 53.5276Z" fill="black"/>
<path d="M27.5994 71.9269C23.9092 71.9269 20.9084 68.9261 20.9084 65.2359C20.9084 61.5458 23.9092 58.5449 27.5994 58.5449C31.2895 58.5449 34.2904 61.5458 34.2904 65.2359C34.2904 68.9267 31.2895 71.9269 27.5994 71.9269ZM27.5994 61.891C25.7549 61.891 24.2539 63.3921 24.2539 65.2365C24.2539 67.081 25.7549 68.582 27.5994 68.582C29.4438 68.582 30.9449 67.081 30.9449 65.2365C30.9449 63.3921 29.4438 61.891 27.5994 61.891Z" fill="#E35D14"/>
<path d="M81.1267 71.9269C77.4365 71.9269 74.4357 68.9261 74.4357 65.2359C74.4357 61.5458 77.4365 58.5449 81.1267 58.5449C84.8168 58.5449 87.8177 61.5458 87.8177 65.2359C87.8171 68.9267 84.8168 71.9269 81.1267 71.9269ZM81.1267 61.891C79.2822 61.891 77.7812 63.3921 77.7812 65.2365C77.7812 67.081 79.2822 68.582 81.1267 68.582C82.9711 68.582 84.4722 67.081 84.4722 65.2365C84.4722 63.3921 82.9705 61.891 81.1267 61.891Z" fill="#E35D14"/>
</svg>
