<svg width="112" height="89" viewBox="0 0 112 89" fill="none" xmlns="http://www.w3.org/2000/svg">
<path d="M91.5683 85.5767H19.6833C16.8519 85.5767 14.5485 83.2736 14.5485 80.4419V17.1152H96.7034V80.4435C96.7034 83.2743 94.4002 85.5777 91.5686 85.5777L91.5683 85.5767ZM17.9717 20.5368V80.4418C17.9717 81.3854 18.7396 82.1534 19.6833 82.1534H91.5683C92.5119 82.1534 93.28 81.3855 93.28 80.4418V20.5368H17.9717Z" fill="black"/>
<path d="M55.625 78.7313C40.5255 78.7313 28.2401 66.4466 28.2401 51.3463C28.2401 49.8955 28.3754 48.3906 28.6548 46.7442C30.5961 35.3057 39.5847 26.3171 51.0208 24.3766C52.6677 24.0973 54.1733 23.9619 55.6241 23.9619C70.7249 23.9619 83.0091 36.2466 83.0091 51.3469C83.0091 52.2924 82.243 53.0586 81.2974 53.0586C80.3519 53.0586 79.5858 52.2925 79.5858 51.3469C79.5858 38.1341 68.8357 27.3852 55.6241 27.3852C54.367 27.3852 53.0484 27.5044 51.5932 27.7515C41.5901 29.4489 33.7265 37.312 32.0275 47.3172C31.7811 48.7712 31.6613 50.0904 31.6613 51.3469C31.6613 64.5343 42.3684 75.2688 55.5466 75.3085L59.7843 74.9242C59.847 74.9199 59.9097 74.9224 59.9699 74.9174C66.53 73.723 72.3123 69.8466 75.9454 64.0488C76.447 63.2473 77.5024 63.0058 78.3045 63.5061C79.106 64.0084 79.3481 65.065 78.8471 65.8653C73.8005 73.9222 65.119 78.7317 55.6245 78.7317L55.625 78.7313Z" fill="#E35D14"/>
<path d="M81.2983 56.7931C80.7595 56.7931 80.2523 56.5398 79.9294 56.109L74.7946 49.2626C74.2272 48.5065 74.3799 47.4331 75.1367 46.867C75.8953 46.2995 76.9675 46.4547 77.5324 47.209L81.2982 52.2302L85.064 47.209C85.6296 46.4553 86.7029 46.2995 87.4597 46.867C88.2158 47.4338 88.3692 48.5065 87.8017 49.2626L82.6669 56.109C82.3441 56.5398 81.8369 56.7931 81.298 56.7931H81.2983Z" fill="#E35D14"/>
<path d="M43.645 65.038C43.2073 65.038 42.769 64.871 42.435 64.5363C41.7664 63.8677 41.7664 62.7845 42.435 62.1163L53.9133 50.6369V34.2307C53.9133 33.2852 54.6793 32.519 55.6249 32.519C56.5704 32.519 57.3366 33.2851 57.3366 34.2307V51.3457C57.3366 51.7996 57.1559 52.2348 56.835 52.5557L44.8551 64.5362C44.5211 64.8715 44.0834 65.0385 43.6451 65.0385L43.645 65.038Z" fill="#E35D14"/>
<path d="M96.7017 20.5382H14.5468V8.55767C14.5468 5.7262 16.8499 3.42285 19.6816 3.42285H91.5665C94.398 3.42285 96.7014 5.72604 96.7014 8.55767L96.7017 20.5382ZM17.9701 17.1157H93.2784V8.55767C93.2784 7.61404 92.5104 6.84601 91.5667 6.84601H19.6817C18.7381 6.84601 17.9701 7.61396 17.9701 8.55767V17.1157Z" fill="black"/>
<path d="M23.1066 10.2686H26.5298V13.6917H23.1066V10.2686Z" fill="#E35D14"/>
<path d="M31.6633 10.2686H35.0865V13.6917H31.6633V10.2686Z" fill="#E35D14"/>
</svg>
