<svg width="109" height="89" viewBox="0 0 109 89" fill="none" xmlns="http://www.w3.org/2000/svg">
<path d="M62.626 29.0375L70.7671 20.8965L73.1198 23.2493L64.9788 31.3903L62.626 29.0375Z" fill="black"/>
<path d="M34.7239 22.9314L37.0767 20.5786L45.5332 29.0352L43.1804 31.3879L34.7239 22.9314Z" fill="black"/>
<path d="M35.9662 59.0272L43.1819 51.8115L45.5346 54.1643L38.319 61.3799L35.9662 59.0272Z" fill="black"/>
<path d="M62.6275 54.1663L64.9803 51.8135L72.0687 58.9018L69.7159 61.2546L62.6275 54.1663Z" fill="black"/>
<path d="M54.0799 58.2392C44.9044 58.2392 37.4403 50.7743 37.4403 41.5996C37.4403 32.4247 44.9047 24.96 54.0799 24.96C63.2551 24.96 70.7195 32.4248 70.7195 41.5996C70.7195 50.7744 63.2551 58.2392 54.0799 58.2392ZM54.0799 28.2882C46.7398 28.2882 40.7682 34.2598 40.7682 41.5999C40.7682 48.9399 46.7398 54.9116 54.0799 54.9116C61.4199 54.9116 67.3915 48.9399 67.3915 41.5999C67.3915 34.2598 61.4199 28.2882 54.0799 28.2882Z" fill="#E35D14"/>
<path d="M30.7838 28.2882C30.3867 28.2882 29.9931 28.1452 29.6829 27.8723L24.4976 23.2961H19.1361C16.3833 23.2961 14.1439 21.0569 14.1439 18.3039V8.32032C14.1439 5.5675 16.3831 3.32812 19.1361 3.32812H35.7757C38.5285 3.32812 40.7679 5.56734 40.7679 8.32032V18.3045C40.7679 21.0574 38.5287 23.2967 35.7757 23.2967H32.4476V26.6248C32.4476 27.2797 32.0643 27.873 31.468 28.141C31.2483 28.2394 31.0153 28.2882 30.7836 28.2882L30.7838 28.2882ZM19.1361 6.65626C18.2187 6.65626 17.472 7.40167 17.472 8.32038V18.3046C17.472 19.2226 18.2186 19.9687 19.1361 19.9687H25.1266C25.5322 19.9687 25.9239 20.1166 26.2275 20.3846L29.1198 22.9371V21.6322C29.1198 20.7124 29.8647 19.9681 30.784 19.9681H35.7761C36.6936 19.9681 37.4403 19.2221 37.4403 18.304V8.32039C37.4403 7.40236 36.6937 6.65628 35.7761 6.65628L19.1361 6.65626Z" fill="#E35D14"/>
<path d="M77.3759 28.2882C77.1441 28.2882 76.9112 28.2393 76.6921 28.1404C76.0951 27.8718 75.7119 27.2791 75.7119 26.6242V23.2961H72.3838C69.631 23.2961 67.3916 21.0569 67.3916 18.3039V8.32031C67.3916 5.56749 69.6308 3.32812 72.3838 3.32812H89.0234C91.7762 3.32812 94.0156 5.56734 94.0156 8.32031V18.3045C94.0156 21.0574 91.7764 23.2967 89.0234 23.2967H83.6619L78.4766 27.873C78.1663 28.1452 77.7728 28.2882 77.3757 28.2882L77.3759 28.2882ZM72.3837 6.65628C71.4663 6.65628 70.7196 7.40229 70.7196 8.3204V18.3046C70.7196 19.2226 71.4662 19.9687 72.3837 19.9687H77.3759C78.2951 19.9687 79.04 20.7129 79.04 21.6329V22.9378L81.9324 20.3841C82.2366 20.1161 82.6277 19.9683 83.0333 19.9683H89.0238C89.9412 19.9683 90.6879 19.2222 90.6879 18.3041V8.32054C90.6879 7.40251 89.9413 6.65642 89.0238 6.65642L72.3837 6.65628Z" fill="#E35D14"/>
<path d="M30.7838 83.1995C30.3867 83.1995 29.9931 83.0565 29.6829 82.7836L24.4976 78.2074H19.1361C16.3833 78.2074 14.1439 75.9682 14.1439 73.2152V63.231C14.1439 60.4781 16.3831 58.2388 19.1361 58.2388H35.7757C38.5285 58.2388 40.7679 60.478 40.7679 63.231V73.2152C40.7679 75.968 38.5287 78.2074 35.7757 78.2074H32.4476V81.5355C32.4476 82.1904 32.0643 82.7837 31.468 83.0517C31.2483 83.1506 31.0153 83.1995 30.7836 83.1995L30.7838 83.1995ZM19.1361 61.5675C18.2187 61.5675 17.472 62.3135 17.472 63.2316V73.2159C17.472 74.1339 18.2186 74.88 19.1361 74.88H25.1266C25.5322 74.88 25.9239 75.0279 26.2275 75.2959L29.1198 77.8484V76.5435C29.1198 75.6237 29.8647 74.8794 30.784 74.8794H35.7761C36.6936 74.8794 37.4403 74.1334 37.4403 73.2153V63.231C37.4403 62.313 36.6937 61.5669 35.7761 61.5669L19.1361 61.5675Z" fill="#E35D14"/>
<path d="M77.3759 83.1995C77.1441 83.1995 76.9112 83.1506 76.6921 83.0517C76.0951 82.7837 75.7119 82.1904 75.7119 81.5355V78.2074H72.3838C69.631 78.2074 67.3916 75.9682 67.3916 73.2152V63.231C67.3916 60.4781 69.6308 58.2388 72.3838 58.2388H89.0234C91.7762 58.2388 94.0156 60.478 94.0156 63.231V73.2152C94.0156 75.968 91.7764 78.2074 89.0234 78.2074H83.6619L78.4766 82.7836C78.1664 83.0565 77.7728 83.1995 77.3757 83.1995L77.3759 83.1995ZM72.3837 61.5675C71.4663 61.5675 70.7196 62.3136 70.7196 63.2317V73.2159C70.7196 74.1339 71.4662 74.88 72.3837 74.88H77.3759C78.2952 74.88 79.04 75.6242 79.04 76.5441V77.8491L81.9324 75.296C82.2366 75.028 82.6277 74.8802 83.0333 74.8802H89.0238C89.9412 74.8802 90.6879 74.1342 90.6879 73.216V63.2318C90.6879 62.3138 89.9413 61.5677 89.0238 61.5677L72.3837 61.5675Z" fill="#E35D14"/>
<path d="M32.4479 14.9757H22.4637C21.5451 14.9757 20.8002 14.2315 20.8002 13.3116C20.8002 12.3917 21.545 11.6475 22.4643 11.6475H32.4485C33.3678 11.6475 34.1127 12.3917 34.1127 13.3116C34.112 14.2314 33.3672 14.9757 32.4481 14.9757H32.4479Z" fill="black"/>
<path d="M85.6965 14.9757H75.7123C74.793 14.9757 74.0482 14.2315 74.0482 13.3116C74.0482 12.3917 74.793 11.6475 75.7123 11.6475H85.6965C86.6157 11.6475 87.3606 12.3917 87.3606 13.3116C87.36 14.2314 86.6152 14.9757 85.6965 14.9757Z" fill="black"/>
<path d="M32.4479 69.8883H22.4637C21.5445 69.8883 20.7996 69.1441 20.7996 68.2242C20.7996 67.3043 21.5444 66.5601 22.4637 66.5601H32.4479C33.3672 66.5601 34.112 67.3043 34.112 68.2242C34.112 69.144 33.3672 69.8883 32.4479 69.8883Z" fill="black"/>
<path d="M85.6965 69.8883H75.7123C74.793 69.8883 74.0482 69.1441 74.0482 68.2242C74.0482 67.3043 74.793 66.5601 75.7123 66.5601H85.6965C86.6157 66.5601 87.3606 67.3043 87.3606 68.2242C87.36 69.144 86.6152 69.8883 85.6965 69.8883Z" fill="black"/>
<path d="M51.8595 48.2561C51.5499 48.2561 51.2372 48.1698 50.9608 47.9912L46.5239 45.1393C45.7502 44.6438 45.5268 43.6135 46.0236 42.8397C46.5191 42.0677 47.55 41.839 48.3232 42.3405L51.5626 44.4223L59.4916 35.5027C60.1024 34.8152 61.1526 34.75 61.8413 35.3645C62.5282 35.9741 62.5897 37.0267 61.9795 37.7123L53.1046 47.6965C52.7786 48.0641 52.3217 48.256 51.8594 48.256L51.8595 48.2561Z" fill="#E35D14"/>
</svg>
