<svg width="107" height="89" viewBox="0 0 107 89" fill="none" xmlns="http://www.w3.org/2000/svg">
<path d="M41.8498 77.1374H28.7204V55.8018H41.8498V77.1374ZM32.0029 73.8549H38.5679V59.0842H32.0029V73.8549Z" fill="#E35D14"/>
<path d="M59.9027 77.1373H46.7734V36.1074H59.9027V77.1373ZM50.0559 73.8548H56.6209V39.3902H50.0559V73.8548Z" fill="#E35D14"/>
<path d="M77.9557 77.1372H64.8264V21.3369H77.9557V77.1372ZM68.1089 73.8547H74.6739V24.6182H68.1089V73.8547Z" fill="#E35D14"/>
<path d="M91.0863 77.1357H18.8744V4.92383H22.1569V73.8531H91.0862L91.0863 77.1357Z" fill="black"/>
<path d="M15.5918 11.4903C15.1721 11.4903 14.7518 11.3302 14.4315 11.0093C13.7904 10.3682 13.7904 9.32946 14.4315 8.68878L19.3553 3.76391C19.9709 3.14836 21.0608 3.14836 21.6759 3.76391L26.5997 8.68771C27.2408 9.32885 27.2408 10.3676 26.5997 11.0083C25.9585 11.6494 24.9198 11.6494 24.2791 11.0083L20.5157 7.24543L16.7522 11.0101C16.4319 11.3304 16.0122 11.4905 15.592 11.4905L15.5918 11.4903Z" fill="black"/>
<path d="M86.1623 82.0595C85.7426 82.0595 85.3224 81.8994 85.0021 81.5785C84.361 80.9374 84.361 79.8986 85.0021 79.258L88.7655 75.4945L85.0021 71.7311C84.361 71.09 84.361 70.0512 85.0021 69.4105C85.6432 68.7694 86.682 68.7694 87.3226 69.4105L92.2464 74.3343C92.8876 74.9755 92.8876 76.0142 92.2464 76.6549L87.3226 81.5787C87.0024 81.8995 86.5827 82.0597 86.1624 82.0597L86.1623 82.0595Z" fill="black"/>
<path d="M35.2845 29.542C34.8648 29.542 34.4446 29.3818 34.1243 29.061C33.4831 28.4198 33.4831 27.3811 34.1243 26.7404L45.6124 15.2522C45.9488 14.9159 46.3976 14.7409 46.89 14.776C47.3644 14.8099 47.8002 15.0469 48.0853 15.4284L51.8744 20.4784L68.5893 3.76503C69.2304 3.1239 70.2692 3.1239 70.9099 3.76503C71.551 4.40617 71.551 5.44491 70.9099 6.08558L52.8569 24.137C52.5205 24.4734 52.0717 24.6502 51.5794 24.6133C51.1049 24.5793 50.6692 24.3424 50.384 23.9608L46.5949 18.9108L36.445 29.0608C36.1241 29.3817 35.7044 29.5418 35.2841 29.5418L35.2845 29.542Z" fill="#E35D14"/>
<path d="M69.7507 12.8501C68.8434 12.8501 68.1094 12.1161 68.1094 11.2087V6.56535L63.466 6.56714C62.5605 6.56714 61.8246 5.83313 61.8246 4.92582C61.8246 4.02037 62.5587 3.2845 63.466 3.2845L69.7505 3.28271C70.1851 3.28271 70.603 3.45594 70.9108 3.76371C71.2185 4.07148 71.3918 4.48819 71.3918 4.92396V11.2085C71.3918 12.1152 70.6578 12.8498 69.7504 12.8498L69.7507 12.8501Z" fill="#E35D14"/>
</svg>
