<svg width="111" height="89" viewBox="0 0 111 89" fill="none" xmlns="http://www.w3.org/2000/svg">
<path d="M68.5834 84.577C55.5341 84.577 41.4888 81.8036 41.4888 75.7166V66.7568H44.8756V75.7166C44.8756 77.6464 53.8766 81.1906 68.5833 81.1906C83.29 81.1906 92.2909 77.6464 92.2909 75.7166V66.7568H95.6778V75.7166C95.6772 81.8036 81.6328 84.577 68.5831 84.577H68.5834Z" fill="black"/>
<path d="M68.5834 73.826C55.5341 73.826 41.4888 71.0527 41.4888 64.9656V56.0059H44.8756V64.9656C44.8756 66.8955 53.8766 70.4396 68.5833 70.4396C83.29 70.4396 92.2909 66.8955 92.2909 64.9656V56.0059H95.6778V64.9656C95.6772 71.0527 81.6328 73.826 68.5831 73.826H68.5834Z" fill="black"/>
<path d="M68.5834 63.0735C55.5341 63.0735 41.4888 60.3002 41.4888 54.2132V45.2534H44.8756V54.2132C44.8756 56.143 53.8766 59.6871 68.5833 59.6871C83.29 59.6871 92.2909 56.143 92.2909 54.2132V45.2534H95.6778V54.2132C95.6772 60.3002 81.6328 63.0735 68.5831 63.0735H68.5834Z" fill="black"/>
<path d="M68.5834 52.3228C55.5341 52.3228 41.4888 49.5495 41.4888 43.4607V34.501H44.8756V43.4607C44.8756 45.3906 53.8766 48.936 68.5833 48.936C83.29 48.936 92.2909 45.3906 92.2909 43.4607V34.501H95.6778V43.4607C95.6772 49.5497 81.6328 52.3228 68.5831 52.3228H68.5834Z" fill="black"/>
<path d="M68.5835 41.1289C55.5341 41.1289 41.4888 38.3556 41.4888 32.2686C41.4888 26.1815 55.5338 23.4082 68.5835 23.4082C81.6331 23.4082 95.6781 26.1815 95.6781 32.2686C95.6775 38.3556 81.6331 41.1289 68.5835 41.1289ZM68.5835 26.7946C53.8769 26.7946 44.8758 30.3387 44.8758 32.2686C44.8758 34.1984 53.8768 37.7425 68.5835 37.7425C83.2901 37.7425 92.2911 34.1984 92.2911 32.2686C92.2911 30.3387 83.2895 26.7946 68.5835 26.7946Z" fill="#E35D14"/>
<path d="M16.0892 23.8006C15.5296 23.8006 14.9817 23.5229 14.6586 23.0168C14.1568 22.2281 14.389 21.1814 15.1777 20.6784L33.8047 8.8249C34.3987 8.44591 35.1647 8.47417 35.7304 8.89923L48.2158 18.2626L65.8161 3.86192C66.5403 3.27348 67.6073 3.37544 68.1993 4.10147C68.7914 4.82443 68.6845 5.89074 67.961 6.48465L49.3339 21.725C48.7289 22.2177 47.8677 22.2342 47.2455 21.768L34.6354 12.3106L16.9958 23.5358C16.7138 23.7145 16.3987 23.8005 16.0879 23.8005L16.0892 23.8006Z" fill="#E35D14"/>
<path d="M66.8899 13.6409C65.9544 13.6409 65.1964 12.8836 65.1964 11.9474V6.86701H60.116C59.1805 6.86701 58.4225 6.10966 58.4225 5.1735C58.4225 4.23733 59.1805 3.47998 60.116 3.47998H66.8897C67.8252 3.47998 68.5833 4.23733 68.5833 5.1735V11.9472C68.5833 12.8827 67.8247 13.6408 66.8897 13.6408L66.8899 13.6409Z" fill="#E35D14"/>
</svg>
