<svg width="87" height="68" viewBox="0 0 87 68" fill="none" xmlns="http://www.w3.org/2000/svg">
<path d="M70.4968 12.0431L65.5443 7.0901C65.4148 6.96066 65.2397 6.888 65.0563 6.888C64.8735 6.888 64.6978 6.96066 64.5684 7.0901L60.5191 11.1394L57.3845 8.00539C57.1863 7.80761 56.8913 7.74843 56.6329 7.85574C56.375 7.96257 56.207 8.21425 56.207 8.49286V20.7107C56.207 21.0918 56.516 21.4007 56.8971 21.4007L69.1149 21.4012C69.394 21.4012 69.6457 21.2333 69.752 20.9754C69.8589 20.7174 69.7997 20.421 69.6024 20.2237L66.4476 17.0685L70.4965 13.0192C70.7664 12.7492 70.7664 12.3128 70.497 12.0433L70.4968 12.0431ZM64.9851 16.5799C64.7156 16.8494 64.7156 17.2859 64.9851 17.5553L67.4504 20.0206L57.5877 20.0201L57.5872 10.1582L60.0322 12.6028C60.3017 12.8723 60.7381 12.8723 61.0076 12.6028L65.0569 8.55347L69.0341 12.5311L64.9851 16.5799Z" fill="#E35D14"/>
<path d="M19.763 17.0887L16.629 20.2232C16.4317 20.4205 16.3725 20.7174 16.4793 20.9749C16.5862 21.2328 16.8378 21.4007 17.1165 21.4007H29.3343C29.7154 21.4007 30.0243 21.0918 30.0243 20.7107L30.0248 8.49286C30.0248 8.21376 29.8569 7.96209 29.5989 7.85574C29.341 7.74891 29.0446 7.8081 28.8473 8.00539L25.6921 11.1601L21.6427 7.11129C21.3733 6.84181 20.9368 6.84181 20.6673 7.11129L15.7143 12.0638C15.5849 12.1933 15.5122 12.3684 15.5122 12.5518C15.5122 12.7346 15.5849 12.9103 15.7143 13.0397L19.763 17.0887ZM21.1547 8.57428L25.204 12.6231C25.4735 12.8926 25.9099 12.8926 26.1794 12.6231L28.6447 10.1579L28.6442 20.0206L18.7818 20.0211L21.2264 17.576C21.4959 17.3065 21.4959 16.8701 21.2264 16.6006L17.1771 12.5513L21.1547 8.57428Z" fill="#E35D14"/>
<path d="M15.7347 56.9426L20.6873 61.8957C20.8167 62.0251 20.9919 62.0978 21.1752 62.0978C21.3581 62.0978 21.5337 62.0251 21.6631 61.8957L25.7125 57.8463L28.847 60.9804C29.0443 61.1777 29.3398 61.2364 29.5986 61.13C29.8566 61.0232 30.0245 60.7715 30.0245 60.4929L30.024 48.2751C30.024 47.8939 29.7151 47.585 29.334 47.585L17.1161 47.5845C16.8371 47.5845 16.5854 47.7525 16.479 48.0104C16.3722 48.2683 16.4314 48.5647 16.6287 48.762L19.7834 51.9173L15.7346 55.9666C15.4651 56.2365 15.4651 56.673 15.7346 56.9425L15.7347 56.9426ZM21.2464 52.4058C21.5159 52.1364 21.5159 51.6999 21.2464 51.4304L18.7812 48.9652L28.6439 48.9657V58.828L26.1988 56.3835C25.9294 56.114 25.4929 56.114 25.2234 56.3835L21.1741 60.4328L17.197 56.4551L21.2464 52.4058Z" fill="#E35D14"/>
<path d="M66.4686 51.8968L69.6026 48.7622C69.7999 48.5649 69.8591 48.268 69.7523 48.0106C69.6454 47.7526 69.3938 47.5847 69.1151 47.5847H56.8973C56.5162 47.5847 56.2073 47.8936 56.2073 48.2748L56.2068 60.4926C56.2068 60.7717 56.3747 61.0234 56.6326 61.1297C56.8911 61.2361 57.187 61.1778 57.3843 60.9801L60.5395 57.8253L64.5888 61.8742C64.7236 62.0089 64.9002 62.0763 65.0768 62.0763C65.2534 62.0763 65.43 62.0089 65.5647 61.8742L70.5178 56.9216C70.6472 56.7922 70.7199 56.617 70.7199 56.4337C70.7199 56.2508 70.6472 56.0752 70.5178 55.9457L66.4686 51.8968ZM65.0769 60.4112L61.0276 56.3623C60.8928 56.2276 60.7163 56.1602 60.5397 56.1602C60.3631 56.1602 60.1864 56.2276 60.0517 56.3623L57.5865 58.8276L57.587 48.9649H67.4493L65.0047 51.4099C64.7353 51.6794 64.7353 52.1158 65.0047 52.3853L69.0541 56.4346L65.0769 60.4112Z" fill="#E35D14"/>
<path d="M54.5575 35.7259V22.4523C54.5575 21.3282 53.6365 20.4139 52.5047 20.4139L33.6532 20.4135C32.5214 20.4135 31.6004 21.3282 31.6004 22.4519V35.7279L30.1433 44.7486C30.0774 45.1581 30.1938 45.5748 30.4633 45.8915C30.7352 46.211 31.1327 46.3938 31.5532 46.3938H54.6769C55.0999 46.3938 55.4988 46.209 55.7707 45.8866C56.0407 45.5671 56.1552 45.1485 56.0849 44.7375L54.5575 35.7259ZM32.9798 35.0936V25.4309H53.1766V35.0936H32.9798ZM32.8778 36.4732H37.0643L36.7337 39.8243H32.3365L32.8778 36.4732ZM38.4506 36.4732H42.4648V39.8243H38.12L38.4506 36.4732ZM42.4643 41.2039V44.9899L37.611 44.9803L37.9834 41.2038L42.4643 41.2039ZM43.8439 41.2039H48.3244L48.6993 45.002L43.8439 44.9924V41.2039ZM43.8439 39.8243V36.4732H47.8581L48.1887 39.8243H43.8439ZM49.2445 36.4732H53.2809L53.8285 39.8243H49.5752L49.2445 36.4732ZM33.6525 21.794H52.5028C52.8738 21.794 53.176 22.0895 53.176 22.4528V24.0518H32.9793V22.4528C32.9793 22.0895 33.2815 21.794 33.6525 21.794H33.6525ZM31.5049 44.9683L32.1131 41.2037H36.5969L36.2245 44.9774L31.5049 44.9683ZM50.0854 45.0048L49.7105 41.2038H54.0534L54.6761 45.0141L50.0854 45.0048Z" fill="#E35D14"/>
</svg>
