<svg width="85" height="68" viewBox="0 0 85 68" fill="none" xmlns="http://www.w3.org/2000/svg">
<path d="M42.3935 18.6335C33.987 18.6335 27.1479 25.4726 27.1479 33.879C27.1479 42.2855 33.987 49.1246 42.3935 49.1246C50.8 49.1246 57.6391 42.2855 57.6391 33.879C57.6391 25.4726 50.8 18.6335 42.3935 18.6335ZM42.3935 47.7694C34.7343 47.7694 28.5031 41.5381 28.5031 33.879C28.5031 26.22 34.7344 19.9886 42.3935 19.9886C50.0527 19.9886 56.2839 26.22 56.2839 33.879C56.2839 41.5381 50.0526 47.7694 42.3935 47.7694Z" fill="#E35D14" stroke="#E35D14" stroke-width="0.5"/>
<path d="M49.9049 33.3067L38.8706 26.3414C38.6617 26.2096 38.3975 26.202 38.182 26.3211C37.9655 26.4402 37.8313 26.668 37.8313 26.9147V40.8451C37.8313 41.0918 37.9655 41.3196 38.182 41.4387C38.2841 41.4949 38.3966 41.5228 38.5091 41.5228C38.6348 41.5228 38.7605 41.4878 38.8711 41.4184L49.9053 34.4536C50.1015 34.3283 50.2206 34.1119 50.2206 33.8798C50.2206 33.6477 50.1015 33.4313 49.9049 33.3069V33.3067ZM39.1858 39.6161V28.1432L48.2737 33.8796L39.1858 39.6161Z" fill="#E35D14" stroke="#E35D14" stroke-width="0.5"/>
<path d="M68.7743 33.2015H67.0236C66.6686 20.1254 56.1027 9.55996 43.0264 9.20423V7.45353C43.0264 7.07919 42.7234 6.77576 42.3486 6.77576C41.9742 6.77576 41.6708 7.07872 41.6708 7.45353V9.20423C28.5947 9.55918 18.0293 20.1251 17.6736 33.2015H15.9229C15.5486 33.2015 15.2451 33.5044 15.2451 33.8792C15.2451 34.2536 15.5481 34.557 15.9229 34.557H17.6736C18.0285 47.6331 28.5945 58.1985 41.6708 58.5542V60.3049C41.6708 60.6793 41.9738 60.9827 42.3486 60.9827C42.7229 60.9827 43.0264 60.6797 43.0264 60.3049V58.5542C56.1024 58.1993 66.6679 47.6333 67.0236 34.557H68.7743C69.1486 34.557 69.4521 34.254 69.4521 33.8792C69.4521 33.5049 69.1491 33.2015 68.7743 33.2015ZM43.0262 57.1987V55.3431C43.0262 54.9687 42.7233 54.6653 42.3485 54.6653C41.9741 54.6653 41.6707 54.9683 41.6707 55.3431V57.1987C29.3412 56.8442 19.3831 46.8862 19.0286 34.5566H20.8842C21.2586 34.5566 21.562 34.2536 21.562 33.8788C21.562 33.5045 21.259 33.2011 20.8842 33.2011H19.0286C19.3831 20.8715 29.3412 10.9135 41.6707 10.559V12.4146C41.6707 12.7889 41.9737 13.0924 42.3485 13.0924C42.7228 13.0924 43.0262 12.7894 43.0262 12.4146V10.559C55.3558 10.9135 65.3138 20.8715 65.6683 33.2011H63.8127C63.4384 33.2011 63.1349 33.504 63.1349 33.8788C63.1349 34.2532 63.4379 34.5566 63.8127 34.5566H65.6683C65.3138 46.8862 55.3558 56.8442 43.0262 57.1987Z" fill="#E35D14" stroke="#E35D14" stroke-width="0.5"/>
</svg>
