<svg width="86" height="68" viewBox="0 0 86 68" fill="none" xmlns="http://www.w3.org/2000/svg">
<path d="M69.3917 60.1623H66.4169V31.8697C66.4169 31.492 66.1107 31.1859 65.733 31.1859H55.3608C54.9831 31.1859 54.6769 31.4915 54.6769 31.8697V60.1623H48.5986L48.599 37.3195C48.599 36.9418 48.2929 36.6356 47.9152 36.6356H37.5429C37.1652 36.6356 36.8591 36.9413 36.8591 37.3195V60.1623H30.9943L30.9948 50.3137C30.9948 49.936 30.6887 49.6298 30.311 49.6298H19.9387C19.561 49.6298 19.2549 49.9355 19.2549 50.3137V60.1623H16.0664C15.6887 60.1623 15.3826 60.468 15.3826 60.8462C15.3826 61.2239 15.6887 61.5301 16.0664 61.5301H69.3921C69.7698 61.5301 70.0759 61.2244 70.0759 60.8462C70.0755 60.468 69.7693 60.1623 69.3916 60.1623H69.3917ZM56.0444 32.5522H65.0494V60.1623H56.0444V32.5522ZM38.2264 38.0029H47.2315L47.232 60.1621H38.2269L38.2264 38.0029ZM20.6222 50.9974H29.6272V60.1621H20.6222V50.9974Z" fill="#E35D14" stroke="#E35D14" stroke-width="0.5"/>
<path d="M56.1946 26.3235H64.4362C64.8139 26.3235 65.12 26.0178 65.12 25.6396V18.3695H69.391C69.6604 18.3695 69.9046 18.2112 70.0147 17.9656C70.1249 17.72 70.0806 17.4319 69.9012 17.2312L60.8428 7.06583C60.5829 6.77493 60.0817 6.77493 59.8218 7.06583L50.7639 17.2312C50.5846 17.4319 50.5402 17.72 50.6504 17.9656C50.7606 18.2112 51.0047 18.3695 51.2742 18.3695H55.5108V25.6401C55.5108 26.0178 55.817 26.3235 56.1947 26.3235L56.1946 26.3235ZM52.7993 17.0019L60.3326 8.54764L67.8665 17.0019H64.4367C64.059 17.0019 63.7528 17.3075 63.7528 17.6857V24.9564H56.8785V17.6857C56.8785 17.308 56.5723 17.0019 56.1946 17.0019H52.7993Z" fill="#E35D14" stroke="#E35D14" stroke-width="0.5"/>
<path d="M38.5916 34.3052H46.8332C47.2109 34.3052 47.517 33.9995 47.517 33.6214V26.3517H51.788C52.0574 26.3517 52.3015 26.1934 52.4117 25.9478C52.5219 25.7022 52.4775 25.4142 52.2982 25.2134L43.2398 15.0481C42.9799 14.7572 42.4787 14.7572 42.2188 15.0481L33.1604 25.2134C32.9811 25.4142 32.9367 25.7022 33.0469 25.9478C33.1575 26.1934 33.4017 26.3517 33.6711 26.3517H37.9078V33.6218C37.9078 33.9995 38.2139 34.3052 38.5916 34.3052L38.5916 34.3052ZM35.1957 24.9845L42.7296 16.5302L50.2634 24.9845H46.8336C46.4559 24.9845 46.1498 25.2901 46.1498 25.6683V32.9385L39.2751 32.938V25.6678C39.2751 25.2901 38.9689 24.984 38.5912 24.984L35.1957 24.9845Z" fill="#E35D14" stroke="#E35D14" stroke-width="0.5"/>
<path d="M20.3376 27.2415V34.5122H16.0666C15.7972 34.5122 15.553 34.6705 15.4429 34.9161C15.3327 35.1617 15.3771 35.4497 15.5564 35.6505L24.6148 45.8158C24.7445 45.9613 24.9305 46.0447 25.1251 46.0447C25.3201 46.0447 25.5056 45.9613 25.6353 45.8158L34.6932 35.6505C34.8726 35.4497 34.9169 35.1617 34.8067 34.9161C34.6966 34.6705 34.4524 34.5122 34.183 34.5122H29.9463L29.9468 27.2415C29.9468 26.8638 29.6407 26.5577 29.263 26.5577H21.0214C20.6437 26.5577 20.3375 26.8634 20.3375 27.2415H20.3376ZM21.7048 35.1955V27.9248H28.5791V35.1955C28.5791 35.5732 28.8853 35.8793 29.263 35.8793H32.6584L25.125 44.3335L17.5912 35.8793H21.021C21.3987 35.8793 21.7048 35.5736 21.7048 35.1955H21.7048Z" fill="#E35D14" stroke="#E35D14" stroke-width="0.5"/>
</svg>
