<svg width="83" height="68" viewBox="0 0 83 68" fill="none" xmlns="http://www.w3.org/2000/svg">
<path d="M15.4822 59.2941H66.8705C67.2344 59.2941 67.5295 58.9991 67.5295 58.6351L67.529 7.24684C67.529 6.88286 67.234 6.58783 66.87 6.58783H15.4818C15.1178 6.58783 14.8228 6.88286 14.8228 7.24684V58.6351C14.8228 58.9986 15.1178 59.2936 15.4818 59.2936L15.4822 59.2941ZM16.1408 57.9766V19.106H66.2114V57.9766H16.1408ZM66.2114 7.90597V17.7883H16.1408V7.90597H66.2114Z" fill="#E35D14" stroke="#E35D14" stroke-width="0.5"/>
<path d="M57.9834 15.4764C58.1121 15.6051 58.2808 15.6695 58.4494 15.6695C58.6181 15.6695 58.7868 15.6051 58.9154 15.4764L60.7122 13.6796L62.5091 15.4764C62.6378 15.6051 62.8064 15.6695 62.9751 15.6695C63.1437 15.6695 63.3124 15.6051 63.441 15.4764C63.6984 15.2191 63.6984 14.8023 63.441 14.5449L61.6442 12.7481L63.441 10.9513C63.6984 10.6939 63.6984 10.2771 63.441 10.0197C63.1837 9.76238 62.7669 9.76238 62.5095 10.0197L60.7127 11.8166L58.9159 10.0197C58.6585 9.76238 58.2417 9.76238 57.9843 10.0197C57.727 10.2771 57.727 10.6939 57.9843 10.9513L59.7812 12.7481L57.9843 14.5449C57.7261 14.8023 57.7261 15.2191 57.9834 15.4764H57.9834Z" fill="#E35D14" stroke="#E35D14" stroke-width="0.5"/>
<path d="M41.2317 25.5106C34.1673 25.5106 28.4199 31.2574 28.4199 38.3211C28.4199 45.3849 34.1667 51.1329 41.2317 51.1329C48.2956 51.1329 54.0423 45.3861 54.0423 38.3211C54.0423 31.2568 48.295 25.5106 41.2317 25.5106ZM41.2317 49.8153C34.8939 49.8153 29.7382 44.659 29.7382 38.3217C29.7382 31.9844 34.8944 26.8282 41.2317 26.8282C47.569 26.8282 52.7252 31.9844 52.7252 38.3217C52.7247 44.659 47.569 49.8153 41.2317 49.8153Z" fill="#E35D14" stroke="#E35D14" stroke-width="0.5"/>
<path d="M41.2964 37.6623H41.1663C39.7669 37.6623 38.6287 36.5268 38.6287 35.1306C38.6287 33.7349 39.767 32.5993 41.1663 32.5993C42.5652 32.5993 43.7039 33.7348 43.7039 35.1306C43.7039 35.4945 43.999 35.7896 44.363 35.7896C44.7269 35.7896 45.022 35.4945 45.022 35.1306C45.022 33.2551 43.6714 31.6913 41.8906 31.3521L41.8901 30.5524C41.8901 30.1885 41.5951 29.8934 41.2311 29.8934C40.8671 29.8934 40.5721 30.1885 40.5721 30.5524V31.3319C38.7278 31.6186 37.3105 33.2101 37.3105 35.1306C37.3105 37.2533 39.0398 38.9799 41.1662 38.9799H41.2963C42.6952 38.9799 43.8339 40.1154 43.8339 41.5116C43.8339 42.9077 42.6956 44.0434 41.2963 44.0434C39.8969 44.0434 38.7586 42.9078 38.7586 41.5116C38.7586 41.1477 38.4636 40.8526 38.0996 40.8526C37.7356 40.8526 37.4406 41.1477 37.4406 41.5116C37.4406 43.387 38.7912 44.9514 40.5725 45.2906V46.0898C40.5725 46.4537 40.8675 46.7488 41.2315 46.7488C41.5955 46.7488 41.8905 46.4537 41.8905 46.0898V45.3103C43.7347 45.0236 45.152 43.4316 45.152 41.5116C45.1516 39.3894 43.4222 37.6623 41.2964 37.6623L41.2964 37.6623Z" fill="#E35D14" stroke="#E35D14" stroke-width="0.5"/>
</svg>
