<svg width="57" height="57" viewBox="0 0 57 57" fill="none" xmlns="http://www.w3.org/2000/svg">
<path d="M37.3004 0.961513H19.6515C18.5637 0.961513 17.6795 1.83997 17.6795 2.91996V15.3451L16.3158 23.7868C16.2518 24.1845 16.3654 24.5895 16.6281 24.8969C16.8918 25.2067 17.2773 25.3844 17.6857 25.3844H39.3351C39.7459 25.3844 40.1334 25.2047 40.3971 24.893C40.6588 24.5822 40.7705 24.1753 40.703 23.7751L39.2734 15.3406L39.2724 2.91988C39.2724 1.83989 38.3882 0.961426 37.3004 0.961426L37.3004 0.961513ZM19.0721 14.7045V5.75868H37.8809V14.705L19.0721 14.7045ZM18.9687 16.0972H22.7899L22.4903 19.1332H18.4783L18.9687 16.0972ZM24.1889 16.0972H27.8509V19.1332H23.8893L24.1889 16.0972ZM27.8509 20.5254V24.0003L23.4091 24.0037L23.7519 20.5258L27.8509 20.5254ZM29.243 20.5254H33.3426L33.6849 23.996L29.2432 23.9994L29.243 20.5254ZM29.243 19.1332V16.0972H32.9055L33.2051 19.1332H29.243ZM34.305 16.0972H37.9893L38.507 19.1332H34.6046L34.305 16.0972ZM19.6521 2.35296H37.301C37.6205 2.35296 37.8808 2.60742 37.8808 2.91918V4.36583L19.072 4.36631V2.91967C19.072 2.60743 19.3323 2.35297 19.6518 2.35297L19.6521 2.35296ZM18.2535 20.5253H22.3534L22.0101 24.0041L17.6907 24.007L18.2535 20.5253ZM35.0845 23.9949L34.7421 20.5253H38.7444L39.3354 23.992L35.0845 23.9949Z" fill="#E35D14"/>
<path d="M56.323 6.33568C56.2502 6.11133 56.0686 5.93846 55.8404 5.87824L51.7754 4.7934L49.4843 1.27816C49.2274 0.883844 48.5747 0.883844 48.3178 1.27816L46.0267 4.7934L41.9628 5.87824C41.7345 5.93894 41.5529 6.11133 41.4801 6.33568C41.4072 6.56003 41.4529 6.80623 41.602 6.98978L44.2495 10.2462L44.0285 14.4306C44.0164 14.6656 44.1237 14.8915 44.3146 15.0303C44.5035 15.1683 44.7516 15.2018 44.9726 15.1173L48.9015 13.6143L52.8305 15.1173C52.9116 15.1483 52.9956 15.1634 53.0791 15.1634C53.2238 15.1634 53.3681 15.1177 53.4885 15.0303C53.6793 14.8915 53.7871 14.6661 53.7745 14.4306L53.5536 10.2462L56.2016 6.98978C56.3502 6.80622 56.3958 6.56003 56.323 6.33568L56.323 6.33568ZM52.3037 9.57556C52.1949 9.70958 52.1401 9.87858 52.1488 10.0514L52.3275 13.4342L49.1498 12.2187C48.9895 12.1575 48.8128 12.1575 48.652 12.2187L45.4743 13.4342L45.6535 10.0514C45.6622 9.87858 45.6073 9.70958 45.4986 9.57556L43.3605 6.94507L46.6441 6.06855C46.8102 6.02436 46.9539 5.92044 47.0482 5.77621L48.9012 2.93153L50.7552 5.77621C50.8489 5.92044 50.9932 6.02436 51.1592 6.06855L54.4429 6.94555L52.3037 9.57556Z" fill="#E35D14"/>
<path d="M15.5403 6.33556C15.4675 6.11121 15.2859 5.93834 15.0576 5.87812L10.9937 4.79328L8.70254 1.27804C8.57385 1.08041 8.35436 0.961426 8.11933 0.961426C7.88431 0.961426 7.66432 1.0804 7.53613 1.27756L5.24501 4.7928L1.18005 5.87812C0.951825 5.93882 0.770201 6.11121 0.697365 6.33556C0.624524 6.55991 0.670171 6.80612 0.819251 6.98967L3.46727 10.2461L3.24633 14.4305C3.23419 14.6655 3.34151 14.8913 3.53235 15.0302C3.72222 15.1681 3.96891 15.2016 4.19035 15.1171L8.11931 13.6142L12.0483 15.1171C12.1294 15.1482 12.2134 15.1633 12.2969 15.1633C12.4416 15.1633 12.5858 15.1176 12.7063 15.0302C12.8971 14.8913 13.0049 14.666 12.9923 14.4305L12.7713 10.2461L15.4189 6.98967C15.5675 6.80611 15.6131 6.55992 15.5403 6.33556L15.5403 6.33556ZM11.522 9.57545C11.4132 9.70947 11.3583 9.87846 11.3671 10.0513L11.5458 13.4341L8.36804 12.2186C8.28792 12.188 8.20342 12.1725 8.11941 12.1725C8.03492 12.1725 7.9509 12.188 7.87078 12.2186L4.69306 13.4341L4.87176 10.0513C4.8805 9.87846 4.82562 9.70947 4.71685 9.57545L2.57777 6.94545L5.86141 6.06893C6.02748 6.02474 6.17123 5.92083 6.26543 5.7766L8.11946 2.93191L9.97249 5.7766C10.0662 5.92083 10.2104 6.02474 10.3765 6.06893L13.6602 6.94545L11.522 9.57545Z" fill="#E35D14"/>
<path d="M35.9688 34.1819C35.8959 33.9575 35.7143 33.7846 35.4861 33.7244L31.4211 32.6396L29.13 29.1243C28.8731 28.73 28.2205 28.73 27.9636 29.1243L25.6725 32.6396L21.6085 33.7244C21.3803 33.7851 21.1987 33.9575 21.1258 34.1819C21.053 34.4062 21.0986 34.6524 21.2477 34.836L23.8952 38.0924L23.6743 42.2768C23.6622 42.5118 23.7695 42.7376 23.9603 42.8765C24.1502 43.0144 24.3969 43.0484 24.6183 42.9635L28.5473 41.4605L32.4762 42.9635C32.5573 42.9945 32.6413 43.0096 32.7249 43.0096C32.8696 43.0096 33.0138 42.9639 33.1342 42.8765C33.3251 42.7376 33.4329 42.5123 33.4203 42.2768L33.1993 38.0924L35.8473 34.836C35.9959 34.6524 36.0416 34.4062 35.9687 34.1819H35.9688ZM31.9499 37.4218C31.8412 37.5558 31.7863 37.7248 31.795 37.8976L31.9737 41.2804L28.796 40.0649C28.7159 40.0343 28.6314 40.0188 28.5474 40.0188C28.4629 40.0188 28.3789 40.0343 28.2988 40.0649L25.121 41.2804L25.2997 37.8976C25.3085 37.7248 25.2536 37.5558 25.1448 37.4218L23.0067 34.7918L26.2904 33.9152C26.4565 33.8711 26.6002 33.7671 26.6944 33.6229L28.5474 30.7782L30.4015 33.6229C30.4952 33.7671 30.6394 33.871 30.8055 33.9152L34.0891 34.7918L31.9499 37.4218Z" fill="#E35D14"/>
<path d="M55.6603 55.2622H53.5465L53.547 18.5746C53.547 18.19 53.2357 17.8782 52.8506 17.8782L44.8843 17.8787C44.4997 17.8787 44.1879 18.19 44.1879 18.5751V55.2615H33.193V46.4206C33.193 46.036 32.8817 45.7243 32.4966 45.7243L24.5303 45.7247C24.1457 45.7247 23.8339 46.036 23.8339 46.4211L23.8344 55.2615H12.7651V18.5738C12.7651 18.1892 12.4538 17.8774 12.0687 17.8774L4.10239 17.8779C3.71779 17.8779 3.40603 18.1892 3.40603 18.5743L3.40652 55.2607H1.36018C0.975574 55.2607 0.663818 55.572 0.663818 55.9571C0.663818 56.3417 0.975089 56.6534 1.36018 56.6534H55.6607C56.0453 56.6534 56.3571 56.3422 56.3571 55.9571C56.3566 55.572 56.0453 55.2607 55.6602 55.2607L55.6603 55.2622ZM45.5807 19.2707H52.1548V55.2622H45.5807V19.2707ZM25.2267 47.1172H31.8008V55.2617H25.2267V47.1172ZM4.79932 19.2707H11.3734V55.2622H4.79932V19.2707Z" fill="#E35D14"/>
</svg>
