<svg width="85" height="68" viewBox="0 0 85 68" fill="none" xmlns="http://www.w3.org/2000/svg">
<path d="M45.4431 66.1987H39.0737C37.3726 66.1987 35.9879 64.8141 35.9879 63.1129V58.3787C33.6539 57.7985 31.412 56.8886 29.2889 55.6622L25.979 58.959C25.3988 59.5393 24.6207 59.8689 23.79 59.8689C22.9593 59.8689 22.1944 59.5524 21.601 58.959L17.1042 54.4622C15.9042 53.2622 15.9042 51.2973 17.1042 50.0973L20.2559 46.9456C18.924 44.8225 17.9086 42.5147 17.2361 40.0752H12.9767C11.2756 40.0752 9.89087 38.6906 9.89087 36.9894V30.62C9.89087 28.9189 11.2755 27.5342 12.9767 27.5342H16.946C17.5262 24.9628 18.4757 22.4968 19.7944 20.2154L17.1174 17.5385C16.5372 16.9582 16.2075 16.167 16.2075 15.3362C16.2075 14.5054 16.5372 13.7406 17.1174 13.1603L21.6011 8.6635C22.1813 8.08327 22.9594 7.75359 23.7901 7.75359C24.6208 7.75359 25.3857 8.07008 25.9791 8.6635L28.5242 11.2086C30.832 9.75801 33.3506 8.68978 36.0013 8.03052V4.536C36.0013 2.83491 37.3859 1.4502 39.0871 1.4502H45.4564C47.1575 1.4502 48.5422 2.83479 48.5422 4.536V8.04378C51.1928 8.70314 53.6984 9.77127 56.0193 11.2218L58.5644 8.67676C59.1446 8.09653 59.9094 7.76685 60.7403 7.76685C61.5711 7.76685 62.3491 8.08334 62.9162 8.67676L67.413 13.1736C67.9932 13.7406 68.3097 14.5186 68.3229 15.3494C68.3229 16.1802 68.0064 16.9583 67.413 17.5517L64.7229 20.2287C66.0548 22.5232 67.0174 24.9892 67.5844 27.5475H71.5537C73.2548 27.5475 74.6395 28.9321 74.6395 30.6333V37.0026C74.6395 38.7037 73.2549 40.0884 71.5537 40.0884H67.2679C66.5954 42.528 65.5931 44.8226 64.2481 46.9457L67.3998 50.0975C68.5998 51.2975 68.5998 53.2623 67.3998 54.4623L62.903 58.9592C62.3228 59.5394 61.558 59.8691 60.7271 59.8691C59.8963 59.8691 59.1183 59.5526 58.5513 58.9592L55.2545 55.6624C53.1577 56.8888 50.9027 57.7987 48.5422 58.3789V63.1131C48.529 64.8141 47.1444 66.1989 45.4433 66.1989L45.4431 66.1987ZM29.1568 53.8816C29.3019 53.8816 29.4469 53.9211 29.5656 54.0003C31.8865 55.4113 34.3656 56.4135 36.9504 56.9806C37.3064 57.0597 37.5701 57.3762 37.5701 57.7586V63.1125C37.5701 63.9433 38.2427 64.6159 39.0735 64.6159H45.4428C46.2736 64.6159 46.9462 63.9433 46.9462 63.1125V57.7586C46.9462 57.3894 47.2099 57.0597 47.566 56.9806C50.177 56.4003 52.6562 55.3981 54.9376 54.0003C55.2541 53.8025 55.6497 53.8552 55.9134 54.1189L59.6585 57.8509C59.9354 58.141 60.3179 58.286 60.7135 58.286C61.1091 58.286 61.4915 58.1278 61.7684 57.8509L66.2784 53.3541C66.8586 52.7606 66.8586 51.8112 66.2784 51.2177L62.6651 47.6044C62.4013 47.3407 62.3618 46.9187 62.5728 46.6022C64.1025 44.3209 65.2102 41.7889 65.8827 39.0988C65.975 38.7428 66.2915 38.4922 66.6476 38.4922H71.54C72.3707 38.4922 73.0433 37.8197 73.0433 36.9889V30.6196C73.0433 29.7888 72.3708 29.1162 71.54 29.1162H66.9245C66.5421 29.1162 66.2256 28.8525 66.1465 28.4832C65.5926 25.6744 64.5509 22.9843 63.0344 20.505C62.8498 20.1885 62.8893 19.7929 63.1531 19.5292L66.2784 16.4171C66.5685 16.127 66.7136 15.7577 66.7136 15.3489C66.7136 14.9533 66.5554 14.5709 66.2784 14.294L61.7685 9.78404C61.4916 9.49393 61.1091 9.34886 60.7135 9.34886C60.3179 9.34886 59.9355 9.5071 59.6586 9.78404L56.6651 12.7907C56.4014 13.0545 55.9794 13.094 55.6629 12.8962C53.1838 11.2478 50.454 10.0874 47.5528 9.44126C47.1968 9.36214 46.933 9.04566 46.933 8.66323V4.53573C46.933 3.70495 46.2605 3.03237 45.4297 3.03237H39.0603C38.2295 3.03237 37.557 3.70491 37.557 4.53573V8.67649C37.557 9.04573 37.2932 9.37541 36.9372 9.45453C34.0361 10.1007 31.3063 11.2611 28.8404 12.9095C28.5239 13.1205 28.1151 13.0809 27.8381 12.804L24.8447 9.81056C24.5546 9.52045 24.1853 9.37539 23.7765 9.37539C23.3678 9.37539 22.9985 9.53363 22.7084 9.81056L18.2116 14.3205C17.9215 14.5974 17.7764 14.9799 17.7764 15.3755C17.7764 15.7843 17.9347 16.1667 18.2116 16.4436L21.3237 19.5557C21.5874 19.8195 21.627 20.2151 21.4424 20.5316C19.939 22.9975 18.8973 25.6745 18.3434 28.5097C18.2643 28.879 17.9478 29.1427 17.5654 29.1427H12.9499C12.1192 29.1427 11.4466 29.8153 11.4466 30.6461V37.0154C11.4466 37.8462 12.1191 38.5188 12.9499 38.5188H17.8292C18.1852 38.5188 18.5017 38.7693 18.594 39.1122C19.2666 41.8023 20.3875 44.3342 21.904 46.6288C22.115 46.9453 22.0754 47.3541 21.7985 47.6179L18.1985 51.2179C17.605 51.8113 17.605 52.7608 18.1985 53.3542L22.6953 57.851C22.9854 58.1411 23.3546 58.2862 23.7634 58.2862C24.1722 58.2862 24.5414 58.1279 24.8316 57.851L28.5766 54.1191C28.7612 53.9608 28.9591 53.8817 29.1569 53.8817L29.1568 53.8816Z" fill="#E35D14"/>
<path d="M42.265 49.2663C33.7462 49.2663 26.8228 42.3431 26.8228 33.8241C26.8228 25.3051 33.7591 18.3818 42.265 18.3818C50.7838 18.3818 57.7073 25.3182 57.7073 33.8241C57.7073 42.33 50.784 49.2663 42.265 49.2663ZM42.265 19.9516C34.6165 19.9516 28.4058 26.1759 28.4058 33.8108C28.4058 41.4457 34.6301 47.67 42.265 47.67C49.8999 47.67 56.1242 41.4457 56.1242 33.8108C56.1242 26.1759 49.8999 19.9516 42.265 19.9516Z" fill="#E35D14"/>
<path d="M37.0286 35.1829C37.0286 35.6972 36.8967 36.1324 36.6594 36.5017C36.4088 36.8709 36.0396 37.1479 35.5517 37.3325C35.0637 37.5171 34.4703 37.6094 33.7714 37.6094C33.0988 37.6094 32.5318 37.5039 32.057 37.3061C31.5823 37.0951 31.2262 36.8446 31.0021 36.5413C30.7779 36.2379 30.6592 35.9215 30.6592 35.6182C30.6592 35.4072 30.7383 35.2357 30.8834 35.0907C31.0284 34.9456 31.213 34.8665 31.4372 34.8665C31.635 34.8665 31.7801 34.9192 31.8856 35.0116C31.9911 35.1039 32.0966 35.2357 32.1889 35.4072C32.3735 35.7368 32.6109 35.9874 32.8746 36.1456C33.1384 36.3039 33.5076 36.3962 33.956 36.3962C34.3252 36.3962 34.6285 36.3171 34.8791 36.1456C35.1164 35.9742 35.2351 35.7896 35.2351 35.5786C35.2351 35.2489 35.1164 35.0115 34.8659 34.8665C34.6153 34.7214 34.2065 34.5764 33.6395 34.4313C33.0065 34.2731 32.479 34.1016 32.0701 33.9302C31.6613 33.7588 31.3449 33.5214 31.1075 33.2313C30.8701 32.9412 30.7514 32.5983 30.7514 32.1763C30.7514 31.8071 30.8569 31.451 31.0811 31.1214C31.3053 30.7917 31.635 30.528 32.057 30.3301C32.4921 30.1323 33.0196 30.04 33.6263 30.04C34.1142 30.04 34.5362 30.0928 34.9318 30.1851C35.3142 30.2906 35.6439 30.4225 35.8944 30.5939C36.145 30.7653 36.3428 30.9499 36.4747 31.1609C36.6066 31.3587 36.6725 31.5697 36.6725 31.7543C36.6725 31.9653 36.5934 32.1368 36.4615 32.2686C36.3164 32.4137 36.1186 32.4796 35.8549 32.4796C35.6703 32.4796 35.4988 32.4269 35.367 32.3214C35.2351 32.2027 35.0769 32.0445 34.9054 31.8335C34.7604 31.6489 34.6021 31.5038 34.4043 31.3983C34.2197 31.2928 33.9559 31.24 33.6263 31.24C33.2966 31.24 33.0065 31.3192 32.7823 31.451C32.5581 31.5961 32.4526 31.7807 32.4526 31.9917C32.4526 32.1895 32.5317 32.3478 32.69 32.4796C32.8614 32.5983 33.0724 32.7038 33.3625 32.7829C33.6395 32.8621 34.0219 32.9675 34.5098 33.0862C35.09 33.2313 35.5516 33.3895 35.9208 33.5873C36.29 33.7851 36.567 34.0093 36.7516 34.2731C36.9362 34.5368 37.0285 34.8401 37.0285 35.183L37.0286 35.1829Z" fill="#E35D14"/>
<path d="M33.759 37.6748C33.0864 37.6748 32.493 37.5693 32.0182 37.3715C31.5303 37.1605 31.1742 36.8968 30.9369 36.5803C30.6995 36.2506 30.5808 35.9342 30.5808 35.6177C30.5808 35.3935 30.6599 35.2089 30.8182 35.0506C30.9764 34.8924 31.1742 34.8133 31.4248 34.8133C31.6358 34.8133 31.794 34.866 31.9127 34.9715C32.0182 35.0638 32.1237 35.2089 32.2292 35.3803C32.4138 35.6968 32.638 35.9473 32.8886 36.1056C33.1523 36.2638 33.5083 36.3429 33.9435 36.3429C34.2996 36.3429 34.5897 36.2638 34.827 36.1056C35.0512 35.9473 35.1567 35.7759 35.1567 35.5913C35.1567 35.288 35.0512 35.0638 34.8139 34.9319C34.5765 34.7869 34.1809 34.655 33.6007 34.5099C32.9545 34.3517 32.4271 34.1803 32.0314 34.0088C31.6226 33.8374 31.2929 33.5869 31.0424 33.2967C30.7918 33.0066 30.6731 32.6374 30.6731 32.2022C30.6731 31.8198 30.7918 31.4506 31.016 31.1077C31.2402 30.7648 31.583 30.4879 32.0182 30.2901C32.4666 30.0923 33.0073 29.9868 33.6138 29.9868C34.1017 29.9868 34.5369 30.0396 34.9326 30.1451C35.3283 30.2506 35.6447 30.3824 35.9216 30.5539C36.1853 30.7385 36.3832 30.9231 36.5282 31.1341C36.6733 31.3451 36.7392 31.5561 36.7392 31.7671C36.7392 31.9912 36.6601 32.189 36.5018 32.3341C36.3436 32.4792 36.1326 32.5583 35.8425 32.5583C35.6447 32.5583 35.46 32.5055 35.315 32.3869C35.1699 32.2682 35.0249 32.1099 34.8403 31.8858C34.7084 31.7143 34.5501 31.5693 34.3655 31.4638C34.1809 31.3583 33.9303 31.3055 33.6139 31.3055C33.2974 31.3055 33.0204 31.3715 32.8094 31.5033C32.6116 31.6352 32.5061 31.7934 32.5061 31.9912C32.5061 32.1627 32.5721 32.3077 32.7171 32.4264C32.8754 32.5451 33.0864 32.6374 33.3633 32.7165C33.627 32.7957 34.0227 32.9011 34.4974 33.0198C35.0776 33.1649 35.5523 33.3363 35.9348 33.5341C36.3172 33.7319 36.5941 33.9693 36.7919 34.2462C36.9897 34.5231 37.0952 34.8396 37.0952 35.1957C37.0952 35.71 36.9634 36.1715 36.7128 36.554C36.4491 36.9364 36.0798 37.2133 35.5787 37.4111C35.0776 37.5826 34.4842 37.6749 33.7589 37.6749L33.759 37.6748ZM31.4116 34.9451C31.2006 34.9451 31.0424 35.011 30.8973 35.1429C30.7655 35.2748 30.6995 35.433 30.6995 35.6176C30.6995 35.9077 30.805 36.1978 31.0292 36.5011C31.2534 36.7913 31.5963 37.0418 32.0578 37.2528C32.5193 37.4506 33.0996 37.5561 33.7457 37.5561C34.4578 37.5561 35.0248 37.4638 35.4996 37.2792C35.9876 37.0946 36.3304 36.8308 36.581 36.4748C36.8183 36.1187 36.9502 35.6835 36.9502 35.1957C36.9502 34.866 36.8579 34.5759 36.6733 34.3253C36.5019 34.0748 36.2249 33.8506 35.8689 33.6528C35.4996 33.455 35.0249 33.2967 34.471 33.1517C33.9699 33.033 33.6007 32.9275 33.3237 32.8484C33.0336 32.7561 32.8094 32.6638 32.638 32.5319C32.4534 32.3868 32.3743 32.2154 32.3743 31.9912C32.3743 31.7538 32.493 31.556 32.7303 31.3978C32.9677 31.2527 33.2578 31.1736 33.6007 31.1736C33.9304 31.1736 34.2073 31.2264 34.4051 31.3451C34.6029 31.4637 34.7743 31.622 34.9194 31.7934C35.0908 32.0044 35.2359 32.1627 35.3677 32.2813C35.4864 32.3737 35.6447 32.4264 35.8161 32.4264C36.0667 32.4264 36.2513 32.3605 36.3832 32.2418C36.515 32.1231 36.581 31.9649 36.581 31.7671C36.581 31.5824 36.515 31.3978 36.3963 31.2C36.2645 31.0022 36.0799 30.8308 35.8293 30.6593C35.5787 30.4879 35.2623 30.3692 34.8798 30.2637C34.4974 30.1714 34.0754 30.1187 33.6007 30.1187C33.0073 30.1187 32.4798 30.211 32.0578 30.4088C31.6358 30.6066 31.3194 30.8572 31.1084 31.1868C30.8974 31.5033 30.7787 31.8462 30.7787 32.2154C30.7787 32.611 30.8974 32.9539 31.1216 33.2308C31.3589 33.5077 31.6754 33.7451 32.071 33.9033C32.4666 34.0748 32.9941 34.2462 33.6271 34.4044C34.2205 34.5495 34.6293 34.6946 34.8666 34.8396C35.1304 34.9979 35.2622 35.2616 35.2622 35.6177C35.2622 35.855 35.1303 36.066 34.8798 36.2374C34.6161 36.4089 34.3128 36.5012 33.9171 36.5012C33.4556 36.5012 33.0732 36.4089 32.7962 36.2506C32.5193 36.0792 32.2819 35.8286 32.0841 35.4858C31.9918 35.3275 31.8995 35.1957 31.794 35.1033C31.7149 34.9847 31.583 34.9451 31.4116 34.9451L31.4116 34.9451Z" fill="#E35D14"/>
<path d="M43.7938 34.2867H40.1541C40.1541 34.7087 40.2464 35.078 40.4178 35.4076C40.5761 35.7373 40.8002 35.9747 41.0772 36.1329C41.3541 36.2912 41.6574 36.3835 41.9871 36.3835C42.2113 36.3835 42.4223 36.3571 42.5937 36.3043C42.7783 36.2516 42.9629 36.1725 43.1344 36.0538C43.3058 35.9351 43.464 35.8296 43.6091 35.6978C43.7541 35.5791 43.9388 35.3944 44.1761 35.1835C44.2684 35.1043 44.4135 35.0648 44.5849 35.0648C44.7695 35.0648 44.9278 35.1175 45.0465 35.223C45.1651 35.3285 45.2311 35.4736 45.2311 35.6714C45.2311 35.8428 45.1652 36.0406 45.0333 36.2648C44.9014 36.489 44.7036 36.7132 44.4399 36.911C44.1761 37.122 43.8464 37.2934 43.4376 37.4253C43.0289 37.5571 42.5805 37.6231 42.0531 37.6231C40.8662 37.6231 39.93 37.2934 39.2573 36.6077C38.598 35.9219 38.2683 34.9988 38.2683 33.8252C38.2683 33.2713 38.3474 32.7702 38.5057 32.2955C38.6771 31.8207 38.9145 31.4251 39.2178 31.0823C39.5343 30.7394 39.9167 30.4889 40.3782 30.3043C40.8398 30.1197 41.3409 30.0405 41.908 30.0405C42.6333 30.0405 43.253 30.1856 43.7805 30.5021C44.308 30.8186 44.6904 31.201 44.9542 31.6889C45.2179 32.1768 45.3366 32.6779 45.3366 33.179C45.3366 33.6406 45.2047 33.9439 44.9278 34.0889C44.6641 34.2208 44.2816 34.2867 43.7937 34.2867L43.7938 34.2867ZM40.1541 33.2318H43.53C43.4904 32.5988 43.3058 32.1109 43.0157 31.8076C42.7124 31.4911 42.3299 31.3329 41.842 31.3329C41.3805 31.3329 40.998 31.4911 40.6948 31.8208C40.4046 32.1241 40.22 32.5989 40.1541 33.2318V33.2318Z" fill="#E35D14"/>
<path d="M42.0406 37.6748C40.8275 37.6748 39.8779 37.3187 39.2054 36.633C38.5328 35.9341 38.1899 34.9846 38.1899 33.811C38.1899 33.2572 38.2691 32.7297 38.4405 32.255C38.6119 31.7671 38.8493 31.3583 39.1658 31.0154C39.4823 30.6726 39.8779 30.4088 40.3526 30.2242C40.8142 30.0396 41.3417 29.9473 41.9087 29.9473C42.6472 29.9473 43.2933 30.1055 43.8076 30.422C44.3483 30.7385 44.7439 31.1473 45.0076 31.6352C45.2714 32.1363 45.4032 32.6374 45.4032 33.1516C45.4032 33.6396 45.2582 33.9692 44.9681 34.1143C44.6911 34.2594 44.3087 34.3253 43.8076 34.3253H40.2207C40.2339 34.7209 40.313 35.0506 40.4713 35.3539C40.6295 35.6572 40.8405 35.8946 41.1042 36.0528C41.368 36.211 41.6581 36.2902 41.9746 36.2902C42.1856 36.2902 42.3834 36.2638 42.568 36.211C42.7395 36.1583 42.9109 36.0792 43.0823 35.9737C43.2538 35.855 43.412 35.7495 43.5439 35.6176C43.6889 35.4858 43.8867 35.3143 44.1109 35.1033C44.2164 35.011 44.3746 34.9583 44.5593 34.9583C44.7703 34.9583 44.9417 35.011 45.0736 35.1297C45.2054 35.2484 45.2714 35.4198 45.2714 35.6176C45.2714 35.8023 45.2054 36.0001 45.0604 36.2374C44.9285 36.4616 44.7307 36.6858 44.4538 36.91C44.1768 37.121 43.8208 37.3056 43.4252 37.4374C43.0296 37.6089 42.568 37.6748 42.0406 37.6748L42.0406 37.6748ZM41.8956 30.0922C41.3417 30.0922 40.8406 30.1845 40.3922 30.3559C39.9438 30.5274 39.5614 30.7911 39.2581 31.1076C38.9548 31.4373 38.7174 31.8197 38.5592 32.2944C38.401 32.756 38.3218 33.2571 38.3218 33.7978C38.3218 34.9451 38.6515 35.8682 39.2977 36.5276C39.9439 37.1869 40.867 37.5298 42.0406 37.5298C42.5549 37.5298 43.0033 37.4638 43.4121 37.332C43.7945 37.2001 44.1242 37.0287 44.4011 36.8309C44.6648 36.6199 44.8626 36.4089 44.9813 36.1979C45.1132 35.9869 45.1791 35.8023 45.1791 35.644C45.1791 35.4726 45.1264 35.3407 45.0209 35.2484C44.9154 35.1561 44.7703 35.1034 44.5989 35.1034C44.4406 35.1034 44.3088 35.1429 44.2297 35.2089C44.0055 35.4199 43.8077 35.6045 43.6626 35.7232C43.5176 35.855 43.3593 35.9737 43.1747 36.0924C42.9901 36.2111 42.8054 36.2902 42.6208 36.3429C42.4362 36.3957 42.2252 36.4221 41.9878 36.4221C41.645 36.4221 41.3285 36.3298 41.0516 36.1715C40.7614 36.0001 40.5241 35.7495 40.3658 35.4199C40.1944 35.0902 40.1021 34.7078 40.1021 34.2726V34.2066H43.8076C44.2955 34.2066 44.6516 34.1407 44.9021 34.0088C45.1527 33.877 45.2714 33.6 45.2714 33.1649C45.2714 32.6769 45.1395 32.1758 44.889 31.7011C44.6384 31.2395 44.256 30.8439 43.7417 30.5406C43.2274 30.2505 42.6208 30.0922 41.8955 30.0922L41.8956 30.0922ZM43.6099 33.2966H40.089L40.1022 33.2175C40.1681 32.5713 40.3527 32.0834 40.6692 31.7537C40.9725 31.424 41.3813 31.2526 41.8561 31.2526C42.3572 31.2526 42.7791 31.424 43.0825 31.7537C43.3858 32.0834 43.5704 32.5713 43.61 33.2175L43.6099 33.2966ZM40.234 33.1648H43.4649C43.4121 32.5845 43.2539 32.1362 42.977 31.846C42.6868 31.5427 42.3176 31.3844 41.8429 31.3844C41.3945 31.3844 41.0385 31.5427 40.7483 31.846C40.4714 32.1493 40.3 32.5845 40.234 33.1648H40.234Z" fill="#E35D14"/>
<path d="M53.8694 33.8384C53.8694 34.3922 53.7771 34.9065 53.6057 35.3681C53.4343 35.8297 53.1837 36.2385 52.854 36.5681C52.5244 36.8978 52.1287 37.1616 51.6804 37.3462C51.232 37.5308 50.7177 37.6099 50.1506 37.6099C49.5835 37.6099 49.0825 37.5176 48.6341 37.3462C48.1858 37.1616 47.7901 36.8978 47.4605 36.555C47.1308 36.2253 46.8802 35.8165 46.7088 35.3549C46.5374 34.8934 46.4583 34.3791 46.4583 33.8252C46.4583 33.2581 46.5374 32.7438 46.722 32.2691C46.8934 31.8076 47.144 31.3988 47.4605 31.0691C47.7901 30.7394 48.1726 30.4757 48.6341 30.3043C49.0957 30.1197 49.5968 30.0405 50.1506 30.0405C50.7177 30.0405 51.232 30.1328 51.6804 30.3175C52.1419 30.5021 52.5375 30.7658 52.8672 31.0955C53.1969 31.4252 53.4474 31.834 53.6189 32.2955C53.7903 32.7571 53.8694 33.2714 53.8694 33.8384V33.8384ZM51.9969 33.8384C51.9969 33.0735 51.8255 32.4933 51.4958 32.0581C51.1661 31.6361 50.7178 31.4251 50.1507 31.4251C49.7815 31.4251 49.465 31.5174 49.1881 31.7152C48.9112 31.8998 48.7002 32.1767 48.5419 32.546C48.3969 32.9152 48.3177 33.3372 48.3177 33.8383C48.3177 34.3263 48.3969 34.7483 48.5419 35.1043C48.687 35.4735 48.898 35.7505 49.1749 35.9483C49.4518 36.1329 49.7683 36.2384 50.1507 36.2384C50.7178 36.2384 51.1662 36.0274 51.4958 35.6054C51.8387 35.1702 51.9969 34.5768 51.9969 33.8384Z" fill="#E35D14"/>
<path d="M50.1499 37.6749C49.5829 37.6749 49.0686 37.5826 48.607 37.398C48.1455 37.2002 47.7367 36.9364 47.407 36.5936C47.0773 36.2639 46.8268 35.8551 46.6422 35.3672C46.4707 34.9056 46.3916 34.3781 46.3916 33.8111C46.3916 33.2309 46.4707 32.7166 46.6553 32.2418C46.84 31.767 47.0905 31.3583 47.407 31.0154C47.7367 30.6725 48.1455 30.4088 48.607 30.2374C49.0686 30.0528 49.5961 29.9604 50.1499 29.9604C50.7302 29.9604 51.2445 30.0528 51.706 30.2374C52.1675 30.422 52.5632 30.6857 52.906 31.0286C53.2489 31.3715 53.4994 31.7935 53.6709 32.255C53.8423 32.7166 53.9346 33.244 53.9346 33.8111C53.9346 34.3517 53.8423 34.8792 53.6709 35.3671C53.4994 35.8418 53.2357 36.2506 52.906 36.5935C52.5763 36.9364 52.1675 37.2001 51.706 37.3847C51.2576 37.5825 50.7301 37.6748 50.1499 37.6748V37.6749ZM50.1499 30.1056C49.6093 30.1056 49.1082 30.1979 48.6598 30.3693C48.2115 30.5408 47.8291 30.7913 47.5126 31.121C47.2093 31.4375 46.9587 31.8331 46.7873 32.2946C46.6159 32.7562 46.5367 33.2573 46.5367 33.8244C46.5367 34.3783 46.6159 34.8794 46.7873 35.3278C46.9587 35.7893 47.2093 36.1849 47.5258 36.5014C47.8422 36.8311 48.2247 37.0816 48.673 37.2663C49.1082 37.4377 49.6093 37.53 50.1631 37.53C50.7169 37.53 51.2313 37.4377 51.6796 37.2663C52.128 37.0948 52.5104 36.8311 52.8269 36.5146C53.1434 36.1849 53.394 35.7893 53.5654 35.3278C53.7368 34.853 53.8159 34.3519 53.8159 33.8113C53.8159 33.2574 53.7368 32.7563 53.5654 32.2948C53.4071 31.8464 53.1566 31.4508 52.8401 31.1211C52.5104 30.7914 52.1148 30.5277 51.6796 30.3563C51.2181 30.198 50.717 30.1057 50.1499 30.1057L50.1499 30.1056ZM50.1499 36.2903C49.7675 36.2903 49.4247 36.1848 49.1477 35.987C48.8576 35.776 48.6334 35.4859 48.4884 35.1167C48.3301 34.7606 48.2642 34.3255 48.2642 33.8243C48.2642 33.3232 48.3433 32.8749 48.4884 32.5056C48.6466 32.1231 48.8708 31.833 49.1609 31.6352C49.4378 31.4374 49.7807 31.3451 50.1499 31.3451C50.7302 31.3451 51.2049 31.5693 51.5478 32.0044C51.8907 32.4396 52.0621 33.0594 52.0621 33.8243C52.0621 34.5892 51.8907 35.1957 51.5478 35.6177C51.2049 36.0661 50.7302 36.2903 50.1499 36.2903L50.1499 36.2903ZM50.1499 31.4903C49.8071 31.4903 49.4906 31.5826 49.2268 31.7672C48.9631 31.9387 48.7521 32.2156 48.6071 32.5716C48.462 32.9277 48.3829 33.3497 48.3829 33.8376C48.3829 34.3123 48.462 34.7343 48.6071 35.0772C48.7521 35.4332 48.9499 35.6969 49.2137 35.8947C49.4774 36.0794 49.7939 36.1717 50.1499 36.1717C50.7038 36.1717 51.1258 35.9739 51.4423 35.5519C51.7588 35.1431 51.9302 34.5629 51.9302 33.8375C51.9302 33.0991 51.772 32.5188 51.4423 32.0968C51.1258 31.688 50.7038 31.4902 50.1499 31.4902V31.4903Z" fill="#E35D14"/>
</svg>
