<svg width="87" height="68" viewBox="0 0 87 68" fill="none" xmlns="http://www.w3.org/2000/svg">
<path d="M52.1928 6.93604C41.7686 6.93604 33.289 15.4162 33.289 25.8398C33.289 30.8049 35.2157 35.3263 38.3577 38.7028L34.3152 42.7448L31.3918 39.821C31.2617 39.6909 31.0856 39.6178 30.9012 39.6178C30.7169 39.6178 30.5408 39.6909 30.4106 39.821L17.2243 53.0073C15.0707 55.1609 15.0707 58.6633 17.2243 60.8169C18.3008 61.8935 19.7151 62.432 21.1288 62.432C22.5431 62.432 23.9573 61.8934 25.0338 60.8169L38.2189 47.6306C38.4898 47.3597 38.4898 46.9208 38.2189 46.6499L35.2951 43.7261L39.3381 39.6842C42.7138 42.8208 47.2318 44.7442 52.1924 44.7442C62.6161 44.7437 71.0962 36.264 71.0962 25.8404C71.0962 15.4167 62.616 6.93665 52.1924 6.93665L52.1928 6.93604ZM24.0527 59.8361C22.44 61.4483 19.8162 61.4478 18.205 59.8361C16.5928 58.2239 16.5928 55.6006 18.205 53.9884L30.9008 41.2926L36.748 47.1403L24.0527 59.8361ZM52.1928 43.3563C42.5341 43.3563 34.6763 35.4984 34.6763 25.8398C34.6763 16.1814 42.5342 8.32328 52.1928 8.32328C61.8512 8.32328 69.7093 16.1817 69.7093 25.8398C69.7093 35.4985 61.8509 43.3563 52.1928 43.3563Z" fill="#E35D14"/>
<path d="M52.0923 12.4492C44.7091 12.4492 38.7017 18.456 38.7017 25.8399C38.7017 33.2237 44.7085 39.2306 52.0923 39.2306C59.4761 39.2306 65.483 33.2238 65.483 25.8399C65.4825 18.4556 59.4757 12.4492 52.0923 12.4492ZM52.0923 37.8433C45.4739 37.8433 40.0894 32.4582 40.0894 25.8399C40.0894 19.2216 45.474 13.8365 52.0923 13.8365C58.7108 13.8365 64.0958 19.2216 64.0958 25.8399C64.0958 32.4582 58.7106 37.8433 52.0923 37.8433Z" fill="#E35D14"/>
<path d="M52.1605 25.146H52.0245C50.5653 25.146 49.379 23.9621 49.379 22.5063C49.379 21.0504 50.5658 19.8661 52.0245 19.8661C53.4837 19.8661 54.6711 21.051 54.6711 22.5063C54.6711 22.8895 54.9812 23.2001 55.3649 23.2001C55.7481 23.2001 56.0587 22.89 56.0587 22.5063C56.0587 20.5453 54.6478 18.9095 52.7865 18.5529V17.7226C52.7865 17.3394 52.4764 17.0288 52.0927 17.0288C51.7095 17.0288 51.3989 17.3389 51.3989 17.7226V18.5321C49.4717 18.834 47.9917 20.4984 47.9917 22.5063C47.9917 24.7267 49.8007 26.5333 52.0249 26.5333H52.1608C53.6201 26.5333 54.8064 27.7172 54.8064 29.173C54.8064 30.6288 53.6196 31.8128 52.1608 31.8128C50.7016 31.8128 49.5143 30.6288 49.5143 29.173C49.5143 28.7898 49.2042 28.4792 48.8205 28.4792C48.4373 28.4792 48.1266 28.7894 48.1266 29.173C48.1266 31.133 49.5376 32.7689 51.3983 33.1255V33.9562C51.3983 34.3394 51.7085 34.65 52.0921 34.65C52.4754 34.65 52.786 34.3399 52.786 33.9562L52.7855 33.1463C54.7127 32.8448 56.1932 31.1804 56.1932 29.173C56.1937 26.9522 54.3842 25.146 52.1604 25.146H52.1605Z" fill="#E35D14"/>
</svg>
