<svg width="87" height="68" viewBox="0 0 87 68" fill="none" xmlns="http://www.w3.org/2000/svg">
<path d="M43.1159 32.2334C38.7283 32.2334 35.1592 35.8025 35.1592 40.1896C35.1592 44.5772 38.7283 48.1464 43.1159 48.1464C47.5035 48.1464 51.0727 44.5772 51.0727 40.1896C51.0727 35.803 47.5035 32.2334 43.1159 32.2334ZM43.1159 46.7672C39.4895 46.7672 36.5388 43.8164 36.5388 40.19C36.5388 36.5632 39.4895 33.6134 43.1159 33.6134C46.7423 33.6134 49.6931 36.5636 49.6931 40.19C49.6931 43.8164 46.7423 46.7672 43.1159 46.7672Z" fill="#E35D14"/>
<path d="M43.1554 39.4991H43.0775C42.4038 39.4991 41.8562 38.9529 41.8562 38.2812C41.8562 37.6094 42.4038 37.0633 43.0775 37.0633C43.7512 37.0633 44.2997 37.6094 44.2997 38.2812C44.2997 38.6623 44.6082 38.9712 44.9898 38.9712C45.3709 38.9712 45.6798 38.6628 45.6798 38.2812C45.6798 37.1032 44.8854 36.1173 43.807 35.8001V35.5441C43.807 35.1629 43.4986 34.854 43.1169 34.854C42.7358 34.854 42.4269 35.1625 42.4269 35.5441V35.776C41.3086 36.0666 40.4766 37.0748 40.4766 38.2811C40.4766 39.7132 41.6435 40.8787 43.0775 40.8787H43.1554C43.8291 40.8787 44.3767 41.4249 44.3767 42.0966C44.3767 42.7684 43.8291 43.3145 43.1554 43.3145C42.4817 43.3145 41.9331 42.7684 41.9331 42.0966C41.9331 41.7155 41.6247 41.4066 41.2431 41.4066C40.862 41.4066 40.553 41.715 40.553 42.0966C40.553 43.2746 41.3475 44.2605 42.4259 44.5777V44.8342C42.4259 45.2153 42.7343 45.5243 43.1159 45.5243C43.497 45.5243 43.806 45.2158 43.806 44.8342V44.6018C44.9243 44.3112 45.7563 43.303 45.7563 42.0967C45.7568 40.6646 44.5899 39.4991 43.1554 39.4991Z" fill="#E35D14"/>
<path d="M26.6211 33.1694C22.7503 33.1694 19.6013 36.3184 19.6013 40.1892C19.6013 44.06 22.7503 47.2095 26.6211 47.2095C30.4919 47.2095 33.6413 44.06 33.6413 40.1892C33.6418 36.3184 30.4924 33.1694 26.6211 33.1694ZM26.6211 45.8307C23.5116 45.8307 20.9809 43.3006 20.9809 40.1901C20.9809 37.0805 23.5111 34.5499 26.6211 34.5499C29.7316 34.5499 32.2618 37.08 32.2618 40.1901C32.2622 43.3001 29.7316 45.8307 26.6211 45.8307Z" fill="#E35D14"/>
<path d="M26.5877 39.4991C26.0501 39.4991 25.6127 39.0631 25.6127 38.527C25.6127 37.991 26.0501 37.555 26.5877 37.555C27.1252 37.555 27.5631 37.991 27.5631 38.527C27.5631 38.9081 27.8715 39.2171 28.2531 39.2171C28.6342 39.2171 28.9432 38.9086 28.9432 38.527C28.9432 37.4838 28.255 36.6075 27.3114 36.3005V36.1422C27.3114 35.7611 27.003 35.4521 26.6214 35.4521C26.2402 35.4521 25.9313 35.7606 25.9313 36.1422V36.2798C24.9535 36.5657 24.2332 37.4593 24.2332 38.527C24.2332 39.8238 25.2894 40.8787 26.6555 40.8787C27.193 40.8787 27.6305 41.3147 27.6305 41.8507C27.6305 42.3868 27.193 42.8228 26.6555 42.8228C26.118 42.8228 25.6801 42.3868 25.6801 41.8507C25.6801 41.4696 25.3717 41.1607 24.9901 41.1607C24.609 41.1607 24.3 41.4691 24.3 41.8507C24.3 42.8935 24.9877 43.7698 25.9308 44.0767V44.2355C25.9308 44.6167 26.2392 44.9256 26.6208 44.9256C27.002 44.9256 27.3109 44.6171 27.3109 44.2355V44.0984C28.2887 43.8126 29.01 42.919 29.01 41.8507C29.0105 40.5539 27.9543 39.499 26.5877 39.499V39.4991Z" fill="#E35D14"/>
<path d="M59.6108 33.1694C55.74 33.1694 52.5906 36.3184 52.5906 40.1892C52.5906 44.06 55.74 47.2095 59.6108 47.2095C63.4817 47.2095 66.6306 44.06 66.6306 40.1892C66.6306 36.3184 63.4817 33.1694 59.6108 33.1694ZM59.6108 45.8307C56.5003 45.8307 53.9702 43.3006 53.9702 40.1901C53.9702 37.0805 56.5003 34.5499 59.6108 34.5499C62.7204 34.5499 65.251 37.08 65.251 40.1901C65.2505 43.3001 62.7204 45.8307 59.6108 45.8307Z" fill="#E35D14"/>
<path d="M59.5764 39.499C59.0389 39.499 58.6015 39.0631 58.6015 38.527C58.6015 37.9909 59.0389 37.555 59.5764 37.555C60.1139 37.555 60.5518 37.991 60.5518 38.527C60.5518 38.9081 60.8603 39.2171 61.2419 39.2171C61.623 39.2171 61.9319 38.9086 61.9319 38.527C61.9319 37.4843 61.2443 36.608 60.3012 36.301V36.1422C60.3012 35.7611 59.9927 35.4521 59.6111 35.4521C59.23 35.4521 58.9211 35.7606 58.9211 36.1422V36.2793C57.9433 36.5652 57.2219 37.4588 57.2219 38.527C57.2219 39.8238 58.2782 40.8787 59.6443 40.8787C60.1818 40.8787 60.6192 41.3147 60.6192 41.8507C60.6192 42.3868 60.1818 42.8228 59.6443 42.8228C59.1068 42.8228 58.6689 42.3868 58.6689 41.8507C58.6689 41.4696 58.3604 41.1607 57.9788 41.1607C57.5977 41.1607 57.2888 41.4691 57.2888 41.8507C57.2888 42.894 57.9769 43.7703 58.9205 44.0772V44.2356C58.9205 44.6167 59.229 44.9256 59.6106 44.9256C59.9917 44.9256 60.3006 44.6172 60.3006 44.2356V44.0979C61.2785 43.8121 61.9988 42.9185 61.9988 41.8507C61.9993 40.5539 60.9426 39.4991 59.5764 39.4991V39.499Z" fill="#E35D14"/>
<path d="M70.0202 6.89844H16.2115C15.8304 6.89844 15.5215 7.20689 15.5215 7.58849V61.3972C15.5215 61.7783 15.8299 62.0872 16.2115 62.0872H70.0202C70.4014 62.0872 70.7103 61.7788 70.7103 61.3972L70.7098 7.58849C70.7098 7.20689 70.4014 6.89844 70.0198 6.89844H70.0202ZM69.3307 8.27802V18.6259H16.9017V8.27802H69.3307ZM16.9017 60.707V20.0056H69.3307V60.707H16.9017Z" fill="#E35D14"/>
<path d="M60.7145 16.2054C60.8492 16.3401 61.0258 16.4075 61.2024 16.4075C61.379 16.4075 61.5556 16.3401 61.6903 16.2054L63.5718 14.3239L65.4532 16.2054C65.588 16.3401 65.7646 16.4075 65.9412 16.4075C66.1178 16.4075 66.2944 16.3401 66.4291 16.2054C66.6986 15.9359 66.6986 15.4995 66.4291 15.23L64.5477 13.3485L66.4291 11.4671C66.6986 11.1976 66.6986 10.7611 66.4291 10.4917C66.1596 10.2222 65.7232 10.2222 65.4537 10.4917L63.5723 12.3731L61.6908 10.4917C61.4213 10.2222 60.9849 10.2222 60.7154 10.4917C60.4459 10.7611 60.4459 11.1976 60.7154 11.4671L62.5968 13.3485L60.7154 15.23C60.445 15.4995 60.445 15.9359 60.7144 16.2054H60.7145Z" fill="#E35D14"/>
</svg>
