<svg width="93" height="68" viewBox="0 0 93 68" fill="none" xmlns="http://www.w3.org/2000/svg">
<path d="M46.0374 23.1812C41.6237 23.1812 37.8565 25.9609 36.3674 29.8582C36.3654 29.8623 36.3644 29.8669 36.3628 29.8715C35.9281 31.0132 35.6794 32.2469 35.6794 33.5396C35.6794 34.8329 35.9281 36.0661 36.3628 37.2083C36.3644 37.2124 36.3659 37.217 36.3674 37.2212C37.8564 41.1179 41.6237 43.8982 46.0374 43.8982C51.7489 43.8982 56.3953 39.2513 56.3953 33.5397C56.3953 27.8282 51.7489 23.1813 46.0374 23.1813V23.1812ZM53.8987 29.4126H50.2568C49.9937 27.8409 49.5775 26.4068 49.0416 25.1886C51.138 25.9455 52.871 27.4622 53.8987 29.4126H53.8987ZM37.153 33.5396C37.153 32.6157 37.2953 31.7243 37.5584 30.8857H41.6216C41.5322 31.7469 41.4808 32.6316 41.4808 33.5308C41.4808 34.4356 41.5327 35.3265 41.6232 36.1928H37.559C37.2954 35.3548 37.1531 34.4633 37.1531 33.5394L37.153 33.5396ZM42.9539 33.5308C42.9539 32.6286 43.0028 31.7413 43.0963 30.8858H48.9798C49.0734 31.7413 49.1222 32.6286 49.1222 33.5308C49.1222 34.4393 49.0723 35.3322 48.9778 36.1929H43.0983C43.0032 35.3322 42.9539 34.4392 42.9539 33.5308H42.9539ZM50.4545 30.8858H54.5178C54.7808 31.7243 54.9231 32.6152 54.9231 33.5397C54.9231 34.4635 54.7808 35.355 54.5178 36.1935H50.4536C50.544 35.3267 50.5959 34.4363 50.5959 33.5315C50.5954 32.6323 50.544 31.7476 50.4546 30.8859L50.4545 30.8858ZM47.1631 24.7339C47.885 25.9449 48.4343 27.5665 48.7641 29.4131H43.3121C43.6415 27.5665 44.1912 25.9455 44.9132 24.7339C45.2821 24.6866 45.6561 24.6542 46.0379 24.6542C46.4197 24.6542 46.7937 24.6866 47.1631 24.7339H47.1631ZM43.0331 25.1886C42.4972 26.4068 42.081 27.8409 41.818 29.4126H38.176C39.2041 27.4622 40.9372 25.9455 43.0331 25.1886H43.0331ZM38.1766 37.6665H41.8205C42.0851 39.2408 42.5044 40.6758 43.0429 41.8941C40.9424 41.1383 39.2057 39.62 38.1766 37.6665ZM44.924 42.3473C44.199 41.1383 43.6471 39.5152 43.3157 37.6665H48.7606C48.4292 39.5152 47.8773 41.1378 47.1523 42.3473C46.7859 42.393 46.416 42.4249 46.0378 42.4249C45.6597 42.4249 45.2897 42.393 44.9239 42.3473H44.924ZM49.0329 41.8941C49.5713 40.6758 49.9901 39.2402 50.2552 37.6664H53.8991C52.87 39.62 51.1333 41.1383 49.0329 41.8941Z" fill="#E35D14"/>
<path d="M64.2945 29.425L60.8484 29.0201C60.5587 28.069 60.1753 27.1457 59.7052 26.2645L61.8565 23.5382C62.5583 22.6493 62.4838 21.3735 61.6823 20.5714L59.0053 17.894C58.2027 17.0919 56.9269 17.0169 56.038 17.7198L53.3127 19.8711C52.4305 19.4004 51.5067 19.0171 50.5566 18.7274L50.1507 15.2813C50.0182 14.1555 49.0635 13.3066 47.93 13.3066H44.1432C43.0098 13.3066 42.0546 14.1555 41.9225 15.2813L41.5166 18.7274C40.5666 19.0171 39.6428 19.4004 38.7605 19.8711L36.0353 17.7198C35.1453 17.0169 33.8695 17.092 33.0685 17.894L30.3911 20.5714C29.59 21.3735 29.5155 22.6488 30.2174 23.5382L32.3687 26.2645C31.8985 27.1457 31.5152 28.0696 31.2254 29.0201L27.7793 29.425C26.6536 29.558 25.8042 30.5127 25.8042 31.6462V35.433C25.8042 36.5664 26.6535 37.5211 27.7793 37.6542L31.2254 38.0591C31.5152 39.0102 31.8985 39.9335 32.3687 40.8146L30.2174 43.541C29.5155 44.4299 29.59 45.7056 30.3916 46.5077L33.069 49.1852C33.8711 49.9857 35.1458 50.0627 36.0358 49.3593L38.7611 47.2081C39.6433 47.6787 40.567 48.062 41.5171 48.3518L41.923 51.7979C42.0556 52.9237 43.0102 53.7725 44.1437 53.7725H47.9305C49.064 53.7725 50.0192 52.9237 50.1512 51.7979L50.5571 48.3518C51.5072 48.062 52.431 47.6787 53.3132 47.2081L56.0385 49.3593C56.9289 50.0627 58.2037 49.9867 59.0053 49.1852L61.6827 46.5077C62.4837 45.7057 62.5582 44.4304 61.8563 43.541L59.7051 40.8146C60.1752 39.9334 60.5585 39.0096 60.8483 38.0591L64.2944 37.6542C65.4202 37.5211 66.2695 36.5665 66.2695 35.433V31.6462C66.2695 30.5127 65.4207 29.5581 64.2944 29.425H64.2945ZM64.7965 35.433C64.7965 35.8199 64.5067 36.1456 64.1224 36.1914L60.1898 36.6538C59.8907 36.6892 59.6425 36.9025 59.5645 37.1938C59.2521 38.3524 58.7881 39.4709 58.1844 40.5191C58.0338 40.7802 58.058 41.107 58.2445 41.3428L60.699 44.4533C60.9389 44.7575 60.9132 45.1927 60.6399 45.4661L57.9625 48.1435C57.6891 48.4173 57.2534 48.442 56.9503 48.2025L53.8401 45.7476C53.6037 45.5605 53.2775 45.5359 53.0159 45.688C51.9667 46.2917 50.8477 46.7562 49.6901 47.0675C49.3993 47.1461 49.185 47.3933 49.1501 47.6928L48.6871 51.6255C48.6419 52.0098 48.3161 52.2996 47.9292 52.2996H44.1425C43.7556 52.2996 43.4298 52.0098 43.3846 51.6255L42.9217 47.6928C42.8862 47.3938 42.6725 47.1461 42.3816 47.0675C41.224 46.7561 40.1049 46.2911 39.0558 45.688C38.9412 45.6217 38.8148 45.5893 38.6884 45.5893C38.526 45.5893 38.3652 45.6428 38.2321 45.7476L35.122 48.2025C34.8183 48.442 34.3836 48.4178 34.1098 48.1435L31.4327 45.466C31.1589 45.1927 31.1337 44.7575 31.3737 44.4533L33.8281 41.3428C34.0146 41.1069 34.0383 40.7802 33.8882 40.5191C33.2845 39.471 32.8205 38.3524 32.5081 37.1938C32.43 36.9025 32.1824 36.6887 31.8828 36.6538L27.9506 36.1914C27.5663 36.1461 27.2765 35.8204 27.2765 35.433V31.6462C27.2765 31.2593 27.5663 30.9335 27.9506 30.8878L31.8832 30.4254C32.1823 30.3899 32.4304 30.1767 32.5085 29.8854C32.8209 28.7267 33.2849 27.6082 33.8886 26.56C34.0392 26.299 34.015 25.9722 33.8285 25.7364L31.3735 22.6258C31.1336 22.3217 31.1593 21.8865 31.4326 21.6131L34.11 18.9357C34.3828 18.6618 34.818 18.6367 35.1222 18.8766L38.2324 21.3316C38.4692 21.5186 38.7955 21.5423 39.0565 21.3912C40.1057 20.7875 41.2248 20.323 42.3824 20.0116C42.6732 19.933 42.8875 19.6859 42.9224 19.3863L43.3854 15.4537C43.4306 15.0694 43.7563 14.7796 44.1432 14.7796H47.93C48.3169 14.7796 48.6427 15.0694 48.6879 15.4537L49.1508 19.3863C49.1863 19.6854 49.4 19.933 49.6908 20.0116C50.8484 20.323 51.9676 20.788 53.0167 21.3912C53.2772 21.5417 53.603 21.5176 53.8409 21.3316L56.951 18.8766C57.2552 18.6372 57.6899 18.6624 57.9632 18.9357L60.6402 21.6131C60.9141 21.8865 60.9393 22.3217 60.6993 22.6258L58.2449 25.7364C58.0584 25.9722 58.0347 26.299 58.1848 26.56C58.7885 27.6082 59.2525 28.7268 59.5648 29.8854C59.6429 30.1767 59.8906 30.3904 60.1901 30.4254L64.1224 30.8878C64.5067 30.933 64.7965 31.2588 64.7965 31.6462L64.7965 35.433Z" fill="#E35D14"/>
<path d="M74.7649 32.8026H72.8617C72.4759 18.5876 60.9896 7.10191 46.7743 6.71519V4.812C46.7743 4.40506 46.4444 4.0752 46.0375 4.0752C45.6305 4.0752 45.3007 4.40455 45.3007 4.812V6.71519C31.0856 7.10106 19.6 18.5873 19.2132 32.8026H17.3101C16.9031 32.8026 16.5732 33.132 16.5732 33.5394C16.5732 33.9464 16.9031 34.2763 17.3101 34.2763H19.2132C19.5991 48.4913 31.0854 59.977 45.3007 60.3637V62.2669C45.3007 62.6738 45.6305 63.0037 46.0375 63.0037C46.4444 63.0037 46.7743 62.6743 46.7743 62.2669V60.3637C60.9893 59.9778 72.475 48.4916 72.8617 34.2763H74.7649C75.1719 34.2763 75.5017 33.9469 75.5017 33.5394C75.5017 33.1325 75.1719 32.8026 74.7649 32.8026ZM46.7742 58.8901V56.8728C46.7742 56.4659 46.4443 56.136 46.0374 56.136C45.6304 56.136 45.3005 56.4654 45.3005 56.8728V58.8901C31.8971 58.5047 21.0717 47.6793 20.6863 34.2758H22.7035C23.1105 34.2758 23.4403 33.9465 23.4403 33.539C23.4403 33.1321 23.1105 32.8022 22.7035 32.8022H20.6863C21.0717 19.3987 31.8971 8.57337 45.3005 8.18797V10.2052C45.3005 10.6121 45.6304 10.942 46.0374 10.942C46.4443 10.942 46.7742 10.6127 46.7742 10.2052V8.18797C60.1776 8.57333 71.003 19.3987 71.3884 32.8022H69.3712C68.9642 32.8022 68.6344 33.1316 68.6344 33.539C68.6344 33.946 68.9642 34.2758 69.3712 34.2758H71.3884C71.0031 47.6793 60.1776 58.5047 46.7742 58.8901Z" fill="#E35D14"/>
</svg>
