<svg width="60" height="60" viewBox="0 0 60 60" fill="none" xmlns="http://www.w3.org/2000/svg">
<path d="M54.5628 26.7198C54.2045 12.1293 42.1802 0.337402 27.5266 0.337402C12.6098 0.337402 0.474609 12.4732 0.474609 27.3894C0.474609 42.3061 12.6104 54.4426 27.5266 54.4426C31.2668 54.4426 34.8884 53.6923 38.2918 52.2147H43.2021L51.4548 58.8718C51.5879 58.9793 51.7512 59.0345 51.9154 59.0345C52.0229 59.0345 52.1309 59.011 52.2312 58.9634C52.4861 58.8421 52.6489 58.5852 52.6494 58.3027L52.6652 52.2148L54.0691 52.2153C56.9014 52.2148 59.2061 49.9101 59.2061 47.0767V31.8311C59.2061 29.1651 57.1645 26.9685 54.5626 26.7187L54.5628 26.7198ZM51.5769 18.6876C49.9765 19.4645 45.3714 21.1427 41.1602 17.3011C39.6908 15.9608 38.1483 15.7872 36.7874 15.6352C34.9182 15.4258 33.5682 15.2738 32.4473 12.4139C30.7374 8.05023 36.8851 4.73382 38.1196 4.12012C44.3298 6.96629 49.2231 12.2244 51.5768 18.6871L51.5769 18.6876ZM19.5763 3.0764C20.4996 3.81391 23.5453 6.43788 23.9803 9.29991C24.1523 10.4305 23.8928 11.4428 23.1865 12.3937C19.4626 17.4099 18.7124 18.825 18.4795 23.7931C18.306 27.499 17.853 37.2044 4.47723 37.2031C4.28837 37.2031 4.09184 37.1975 3.89735 37.1934C2.63934 34.1722 1.94173 30.8619 1.94173 27.3909C1.94122 16.0581 9.34954 6.42881 19.5759 3.07729L19.5763 3.0764ZM27.5267 52.9758C17.4652 52.9758 8.7448 47.1357 4.56915 38.6683C19.2488 38.6258 19.7729 27.5581 19.9458 23.8616C20.1623 19.2442 20.757 18.1279 24.3648 13.2683C25.3029 12.0046 25.6617 10.5952 25.4313 9.07914C25.0086 6.29847 22.6815 3.84694 21.2658 2.58337C23.27 2.07668 25.3669 1.80492 27.5266 1.80492C30.6328 1.80492 33.613 2.36739 36.3732 3.39145C33.9319 4.80963 29.2397 8.24946 31.0811 12.9483C32.525 16.6327 34.7027 16.8768 36.624 17.0923C37.8738 17.2326 39.054 17.3646 40.1712 18.3841C42.4119 20.4283 44.891 21.2067 47.2192 21.2067C48.9665 21.2067 50.6274 20.7666 52.041 20.0956C52.6695 22.1965 53.0328 24.4086 53.0942 26.6942H32.9301C30.0968 26.6942 27.7921 28.9989 27.7921 31.8317V47.0773C27.7921 49.9106 30.0968 52.2153 32.9301 52.2153H33.7254C31.7126 52.7169 29.6402 52.9758 27.5269 52.9758L27.5267 52.9758ZM57.7389 47.0772C57.7389 49.1009 56.093 50.7474 54.0692 50.7474L51.9334 50.7469H51.9329C51.5286 50.7469 51.2 51.0745 51.199 51.4788L51.1852 56.7698L43.9212 50.9107C43.7907 50.8052 43.628 50.7479 43.4606 50.7479H32.9298C30.9062 50.7479 29.2596 49.1015 29.2596 47.0777V31.8321C29.2596 29.8085 30.906 28.162 32.9298 28.162H54.0688C56.0924 28.162 57.7389 29.8078 57.7389 31.8316L57.7389 47.0772Z" fill="#E35D14"/>
</svg>
