<svg width="157" height="40" viewBox="0 0 157 40" fill="none" xmlns="http://www.w3.org/2000/svg">
<g clip-path="url(#clip0_412_6731)">
<path d="M135.679 26.1563C134.898 24.8665 134.166 23.5477 133.351 22.2765C132.95 21.6472 133.024 21.3144 133.688 20.934C135.525 19.8789 135.743 18.1203 135.452 16.2918C135.326 15.4961 134.952 14.7591 134.382 14.1839C133.813 13.6087 133.075 13.224 132.274 13.0837C129.844 12.4544 127.383 12.7962 124.932 12.9351C124.134 12.9805 124.056 13.5451 124.056 14.1632C124.058 16.1564 124.058 18.1495 124.056 20.1427H124.085C124.085 22.1361 124.134 24.1317 124.066 26.1221C124.031 27.2254 124.678 27.2016 125.445 27.183C126.213 27.1645 127.002 27.3004 126.902 26.0775C126.81 24.9319 126.889 23.7743 126.881 22.6212C126.881 22.1948 126.895 21.899 127.49 21.8351C129.437 21.6197 129.919 21.8114 130.916 23.4541C131.397 24.1486 131.824 24.8783 132.193 25.6369C132.766 27.0248 133.77 27.3183 135.163 27.2091C136.161 27.1288 136.063 26.7878 135.679 26.1563ZM130.73 19.4814C130.195 19.5365 129.657 19.5596 129.119 19.5505C126.889 19.5156 126.889 19.5082 126.889 17.2845C126.889 15.1922 126.889 15.1849 128.991 15.1603C129.62 15.1365 130.249 15.1635 130.873 15.2413C131.414 15.303 131.91 15.5671 132.26 15.9794C132.61 16.3917 132.787 16.9209 132.755 17.4583C132.716 18.7013 132.088 19.3447 130.727 19.4814H130.73Z" fill="white"/>
<path d="M66.8379 26.2936C66.0269 24.9697 65.2676 23.613 64.4543 22.2868C64.1044 21.7199 63.9752 21.3595 64.7262 20.9494C66.5871 19.9315 66.8192 18.17 66.5413 16.3289C66.4274 15.5304 66.0625 14.7876 65.4983 14.2056C64.9342 13.6236 64.1993 13.2319 63.3978 13.0858C60.9684 12.4513 58.5037 12.7983 56.0503 12.9209C55.2731 12.961 55.1589 13.4751 55.1642 14.1252C55.186 16.1208 55.1724 18.1165 55.1724 20.1099C55.1724 22.1508 55.2025 24.1895 55.1589 26.2282C55.1349 27.2944 55.8348 27.1993 56.5107 27.1688C57.1708 27.1398 58.0374 27.4326 57.9893 26.2282C57.9405 25.1227 58.0434 24.0082 57.9601 22.9057C57.8925 21.9889 58.2642 21.8766 59.097 21.8179C60.5644 21.7169 61.5346 22.1419 62.0918 23.5476C62.3779 24.2801 63.0155 24.885 63.2784 25.6183C63.8303 27.1659 64.9695 27.3211 66.3626 27.1904C67.0895 27.1242 67.2149 26.9162 66.8379 26.2936ZM61.847 19.4798C61.3153 19.5356 60.7807 19.5541 60.5141 19.5675C57.9743 19.5192 57.9743 19.5192 57.9743 17.2204C57.9743 15.2003 57.9743 15.1899 59.9809 15.1632C60.6489 15.1331 61.3183 15.1579 61.9822 15.2375C62.5221 15.2942 63.0182 15.5577 63.3644 15.9716C63.7106 16.3855 63.8795 16.9169 63.8348 17.4523C63.8131 18.6826 63.1777 19.3372 61.847 19.4813V19.4798Z" fill="white"/>
<path d="M94.8555 18.2013C94.8555 19.5773 94.8961 20.9503 94.8465 22.3293C94.8587 23.4263 94.4863 24.4936 93.7926 25.3496C93.099 26.2055 92.1271 26.7973 91.0422 27.0241C89.6466 27.3861 88.1842 27.4149 86.7752 27.1081C85.6294 26.9211 84.5905 26.3307 83.8499 25.4457C83.1094 24.5607 82.7172 23.4407 82.7455 22.2921C82.6787 19.4971 82.7628 16.6983 82.6952 13.9032C82.6689 12.8133 83.2599 12.7888 84.0469 12.8311C84.7979 12.8713 85.5654 12.7004 85.5354 13.9322C85.4693 16.549 85.4467 19.1732 85.5759 21.7862C85.705 24.3992 87.2994 25.4513 89.8707 24.8547C90.4497 24.7505 90.9738 24.4495 91.3525 24.0038C91.7312 23.558 91.9406 22.9955 91.9448 22.4133C92.1168 19.7108 92.1494 17.0013 92.0424 14.2955C92.0379 13.2658 92.2129 12.8096 93.4197 12.7977C94.6618 12.7895 94.9614 13.2153 94.8833 14.3401C94.7954 15.621 94.863 16.913 94.863 18.2036L94.8555 18.2013Z" fill="white"/>
<path d="M110.733 20.0407C110.733 18.6648 110.681 17.2918 110.744 15.9158C110.845 13.7389 111.721 12.8488 113.907 12.7908C115.789 12.741 117.67 12.8384 119.552 12.8651C120.471 12.88 120.746 13.3473 120.711 14.227C120.675 15.1639 120.11 15.1528 119.44 15.1476C117.915 15.1372 116.389 15.1966 114.866 15.1386C113.864 15.1 113.482 15.5384 113.491 16.4574C113.515 16.8561 113.512 17.2559 113.485 17.6543C113.384 18.4946 113.762 18.7153 114.565 18.6885C116.178 18.6358 117.794 18.7153 119.407 18.6558C120.284 18.6232 120.458 18.9931 120.443 19.7576C120.431 20.4739 120.368 20.9375 119.449 20.907C117.791 20.8528 116.13 20.9219 114.471 20.878C113.696 20.8572 113.479 21.1478 113.48 21.8855C113.486 25.5707 113.501 24.7935 116.4 24.8693C117.431 24.896 118.463 24.8782 119.495 24.8745C120.1 24.8745 120.681 24.8344 120.688 25.7185C120.693 26.4288 120.724 27.0313 119.747 27.1131C117.515 27.3369 115.267 27.3494 113.033 27.1502C111.636 27.0016 110.811 25.9035 110.747 24.2965C110.692 22.8804 110.736 21.4576 110.736 20.0385L110.733 20.0407Z" fill="white"/>
<path d="M69.8019 20.0149C69.8019 18.5082 69.7268 16.9963 69.8206 15.4947C69.9243 13.78 70.8247 12.9367 72.5504 12.8015C74.5204 12.6947 76.4953 12.714 78.4627 12.8594C79.2662 12.8995 79.7679 13.1336 79.7461 14.1284C79.7214 15.254 79.0365 15.1537 78.3035 15.1507C76.8241 15.1448 75.3433 15.1909 73.8654 15.1388C72.8733 15.1032 72.4543 15.5029 72.5076 16.4613C72.5438 16.8593 72.5423 17.2598 72.5031 17.6575C72.3874 18.5075 72.7719 18.717 73.5717 18.691C75.184 18.6382 76.8008 18.7036 78.4132 18.6568C79.2655 18.6323 79.4795 19.0038 79.4848 19.7713C79.49 20.5216 79.3406 20.9333 78.4582 20.9043C76.8459 20.8545 75.2291 20.9192 73.6167 20.8753C72.8365 20.8545 72.4903 21.0603 72.4903 21.9066C72.4903 25.4854 72.5512 24.8101 75.3185 24.8673C76.4832 24.8918 77.6464 24.8911 78.8149 24.8725C79.4367 24.8621 79.7401 25.1154 79.7093 25.7351C79.683 26.2826 79.8895 26.9416 79.0004 27.0486C76.6031 27.3896 74.1693 27.3964 71.7701 27.0687C70.4545 26.8607 69.8642 25.7923 69.8177 24.5322C69.7568 23.0314 69.8019 21.5239 69.8019 20.0149Z" fill="white"/>
<path d="M144.168 12.7212C145.198 12.7596 146.224 12.8763 147.236 13.0704C147.466 13.0792 147.691 13.1441 147.89 13.2594C148.089 13.3747 148.256 13.5368 148.376 13.7314C148.497 13.926 148.567 14.1469 148.58 14.3747C148.594 14.6025 148.55 14.83 148.453 15.037C148.295 15.6485 147.861 15.4665 147.5 15.4419C146.299 15.3676 145.097 15.231 143.889 15.1678C143.352 15.1404 142.814 15.1794 142.287 15.2837C141.994 15.3133 141.716 15.429 141.489 15.6159C141.263 15.8029 141.098 16.0525 141.016 16.3328C140.862 17.0015 141.355 17.4257 141.85 17.7162C143.247 18.4099 144.69 19.0108 146.168 19.5149C148.448 20.486 149.257 22.0068 148.714 24.2528C148.482 25.0678 147.997 25.7901 147.328 26.3179C146.659 26.8457 145.84 27.1522 144.985 27.1942C143.154 27.35 141.31 27.2618 139.503 26.932C138.394 26.7529 138.48 25.9966 138.527 25.2388C138.585 24.2826 139.255 24.6087 139.816 24.6444C141.2 24.735 142.585 24.8197 143.971 24.8465C144.374 24.92 144.789 24.8406 145.135 24.6242C145.481 24.4078 145.731 24.0704 145.837 23.6793C146.116 22.6874 145.536 22.2149 144.808 21.7683C143.664 21.1672 142.464 20.6775 141.224 20.3062C138.795 19.3923 137.859 18.0401 138.197 15.8246C138.443 14.2287 140.114 12.9916 142.292 12.8096C142.915 12.765 143.539 12.7509 144.168 12.7212Z" fill="white"/>
<path d="M101.314 21.0921C101.314 19.4063 101.287 17.719 101.328 16.0332C101.343 15.3935 101.14 15.1685 100.495 15.2078C99.736 15.2539 98.9647 15.158 98.2093 15.2338C97.2187 15.3326 96.8876 14.9968 96.8658 13.9886C96.8441 12.9544 97.3164 12.8251 98.159 12.8325C101.299 12.8593 104.44 12.8831 107.579 12.8259C108.602 12.808 108.591 13.3378 108.624 14.0659C108.66 14.8891 108.473 15.2687 107.526 15.2435C106.468 15.2145 105.06 14.7509 104.427 15.4404C103.757 16.1685 104.237 17.5556 104.223 18.653C104.194 21.0929 104.171 23.535 104.243 25.9742C104.274 27.0589 103.773 27.2373 102.858 27.1882C102.032 27.1481 101.224 27.3205 101.303 26.0143C101.401 24.3798 101.327 22.7319 101.327 21.0899L101.314 21.0921Z" fill="white"/>
<path opacity="0.66" d="M42.3099 15.4136C41.9211 15.6683 41.4647 15.8032 40.9983 15.8014C40.532 15.7995 40.0766 15.661 39.6899 15.4032C38.9074 14.8928 38.9794 14.1082 39.0605 13.3912C39.0794 13.1593 39.1475 12.9338 39.2604 12.7297C39.3732 12.5255 39.5283 12.3471 39.7155 12.2062C39.9027 12.0653 40.1178 11.965 40.3468 11.9119C40.5758 11.8588 40.8136 11.854 41.0446 11.8979C41.2896 11.8789 41.536 11.9116 41.7672 11.9939C41.9985 12.0763 42.2095 12.2063 42.3862 12.3754C42.5629 12.5445 42.7012 12.7488 42.792 12.9748C42.8828 13.2007 42.9241 13.4432 42.913 13.6862C42.9623 14.2153 42.8492 14.7469 42.5886 15.2115C42.5566 15.2036 42.5232 15.2027 42.4909 15.209C42.4585 15.2152 42.428 15.2284 42.4013 15.2476C42.3747 15.2668 42.3526 15.2915 42.3367 15.3201C42.3208 15.3486 42.3114 15.3803 42.3092 15.4129L42.3099 15.4136Z" fill="white"/>
<path opacity="0.66" d="M42.8589 27.1683C42.637 27.3869 42.3999 27.5897 42.1492 27.7752C41.7963 28.0543 41.3546 28.2001 40.903 28.1865C40.4515 28.1729 40.0196 28.0008 39.6846 27.701C39.3237 27.4131 39.0758 27.0097 38.9836 26.5603C38.8914 26.1109 38.9607 25.6437 39.1796 25.2395C39.3984 24.8353 39.753 24.5194 40.1822 24.3463C40.6115 24.1732 41.0883 24.1538 41.5304 24.2915C41.9579 24.3609 42.3411 24.5929 42.598 24.9381C42.8549 25.2832 42.9653 25.714 42.9054 26.1385C42.8882 26.403 42.9054 26.669 42.9054 26.9342C42.8753 26.9644 42.8549 27.0027 42.8466 27.0443C42.8383 27.0859 42.8426 27.129 42.8589 27.1683Z" fill="white"/>
<path opacity="0.66" d="M4.12577 8.33997C5.34909 7.08881 6.36213 6.88077 7.13563 7.72107C7.2996 7.88423 7.42732 8.07946 7.51065 8.29426C7.59398 8.50907 7.63107 8.73873 7.61955 8.96853C7.60803 9.19833 7.54814 9.42319 7.44373 9.62879C7.33932 9.83438 7.19269 10.0161 7.0132 10.1624C6.85119 10.3266 6.65494 10.4539 6.43811 10.5354C6.22127 10.6169 5.98908 10.6506 5.75773 10.6342C5.52638 10.6178 5.3014 10.5517 5.09853 10.4404C4.89566 10.3292 4.71979 10.1755 4.58311 9.99007C4.41114 9.79244 4.25791 9.57921 4.0957 9.37266C4.10622 9.02793 4.11626 8.68372 4.12577 8.33997Z" fill="white"/>
<path opacity="0.66" d="M4.63936 29.8576C5.58032 29.3137 6.51154 29.1889 7.28428 30.1006C7.53054 30.3955 7.66243 30.7677 7.65623 31.1503C7.65004 31.5328 7.50614 31.9005 7.25045 32.1875C6.54755 33.1653 5.3603 32.9565 4.12647 31.6845C4.05467 31.0332 4.23797 30.3793 4.63863 29.8576H4.63936Z" fill="white"/>
<path d="M155.158 15.2233C155.213 15.0981 155.234 14.9604 155.218 14.8245C155.202 14.6887 155.15 14.5595 155.067 14.4503C154.983 14.3411 154.872 14.2559 154.744 14.2035C154.616 14.151 154.477 14.1333 154.34 14.152C153.849 14.1572 153.047 13.7441 152.958 14.6527C152.815 15.5188 152.889 16.4063 153.174 17.2375C153.661 16.0867 153.661 16.0867 155.291 17.051C155.113 16.7827 155.008 16.4741 154.985 16.1543C154.961 15.8344 155.021 15.514 155.158 15.2233ZM154.585 15.0792C154.539 15.3987 154.299 15.4656 154.016 15.4656C153.716 15.4656 153.521 15.3593 153.542 15.0198C153.569 14.6602 153.825 14.6483 154.097 14.6557C154.369 14.6787 154.64 14.7107 154.586 15.0814L154.585 15.0792Z" fill="white"/>
<path d="M154.029 12.7479C153.637 12.7243 153.245 12.7803 152.875 12.9123C152.506 13.0443 152.168 13.2497 151.882 13.5157C151.596 13.7817 151.368 14.1028 151.212 14.4592C151.056 14.8156 150.975 15.1999 150.974 15.5883C150.968 15.9768 151.039 16.3628 151.184 16.7239C151.329 17.0849 151.545 17.4139 151.82 17.6917C152.094 17.9696 152.422 18.1908 152.783 18.3426C153.145 18.4943 153.533 18.5736 153.926 18.5758C154.72 18.5926 155.489 18.2982 156.065 17.7567C156.641 17.2152 156.977 16.4705 157 15.6849C157.004 15.2978 156.931 14.9138 156.783 14.5554C156.635 14.197 156.416 13.8714 156.14 13.5978C155.863 13.3243 155.533 13.1082 155.171 12.9624C154.809 12.8166 154.42 12.7439 154.029 12.7487V12.7479ZM153.934 18.136C153.277 18.1351 152.646 17.8792 152.177 17.4233C151.709 16.9674 151.439 16.3478 151.427 15.6975C151.416 15.0247 151.674 14.375 152.146 13.8899C152.617 13.4047 153.263 13.1235 153.943 13.1075C154.281 13.1003 154.617 13.161 154.931 13.2861C155.245 13.4111 155.53 13.5978 155.768 13.835C156.007 14.0721 156.195 14.3547 156.32 14.6657C156.445 14.9766 156.505 15.3095 156.496 15.644C156.506 15.9773 156.446 16.3089 156.321 16.6183C156.195 16.9276 156.006 17.208 155.766 17.4419C155.526 17.6758 155.24 17.8581 154.925 17.9776C154.61 18.097 154.274 18.1509 153.938 18.136H153.934Z" fill="white"/>
<path opacity="0.66" d="M34.7327 3.53198C36.1377 4.31359 36.5162 5.31512 35.6496 6.09152C34.985 6.68589 34.1874 6.89391 33.5386 6.07664C33.3904 5.94017 33.2746 5.77285 33.1998 5.58671C33.1249 5.40057 33.0928 5.20026 33.1057 5.00033C33.1186 4.8004 33.1763 4.60585 33.2746 4.43067C33.3728 4.2555 33.5092 4.10411 33.6738 3.98745C33.878 3.82103 34.1101 3.68506 34.3279 3.53498L34.7327 3.53198Z" fill="white"/>
<path opacity="0.66" d="M10.822 4.03655C11.2538 4.83896 11.395 5.59308 10.5509 6.2573C10.3009 6.47911 9.97462 6.59816 9.63886 6.59015C9.30309 6.58214 8.98309 6.44769 8.74411 6.21422C8.03445 5.68225 8.28377 4.97494 8.36863 4.29512C8.50049 4.10286 8.67312 3.94136 8.87451 3.82183C9.0759 3.7023 9.30119 3.6276 9.53472 3.60299C9.76825 3.57838 10.0044 3.60443 10.2267 3.67931C10.449 3.75419 10.6522 3.87608 10.822 4.03655Z" fill="white"/>
<path opacity="0.66" d="M12.7114 37.0557C12.8276 36.7923 13.0252 36.5721 13.2757 36.4268C13.5262 36.2814 13.8169 36.2183 14.106 36.2466C14.3527 36.2578 14.5884 36.3511 14.7749 36.5112C14.9615 36.6714 15.088 36.8891 15.134 37.1292C15.1983 37.3645 15.1883 37.6136 15.1052 37.843C15.0221 38.0724 14.8699 38.2711 14.6692 38.4124C14.4943 38.5527 14.2768 38.631 14.0516 38.6347C13.8265 38.6383 13.6065 38.5671 13.4271 38.4324C13.1832 38.2428 12.9538 38.0357 12.7407 37.8128C12.7312 37.5617 12.7214 37.3093 12.7114 37.0557Z" fill="white"/>
<path opacity="0.66" d="M12.7671 1.98303C13.0607 1.78539 13.371 1.61313 13.6945 1.46816C13.9281 1.38155 14.1855 1.38138 14.4193 1.46766C14.653 1.55394 14.8474 1.72089 14.9666 1.93773C15.1017 2.11657 15.1813 2.33036 15.1958 2.55314C15.2104 2.77591 15.1591 2.99804 15.0485 3.19258C14.9317 3.40969 14.7446 3.58164 14.5171 3.6807C14.2896 3.77976 14.035 3.80015 13.7944 3.73865C13.4211 3.60211 13.0676 3.41754 12.743 3.18963C12.7506 2.78744 12.7585 2.38522 12.7671 1.98303Z" fill="white"/>
<path opacity="0.66" d="M19.2058 0.833645C19.2246 1.46963 19.2381 2.11899 18.4721 2.3716C17.7602 2.60563 17.4208 2.06995 17.0453 1.62863C17.4658 0.117428 17.9292 -0.0519744 19.2058 0.833645Z" fill="white"/>
<path opacity="0.66" d="M43.4311 21.6382C42.2295 22.5937 40.9642 22.509 40.0585 21.4153C39.6861 20.9406 39.5178 20.3399 39.59 19.7432C39.6623 19.1466 39.9693 18.6022 40.4445 18.228C41.4027 17.4338 42.6463 17.6009 43.591 18.6544C43.7352 18.8164 43.8583 18.9955 43.992 19.1664C43.6661 19.9584 43.8914 20.8729 43.4311 21.6382Z" fill="white"/>
<path opacity="0.66" d="M0.84931 18.3647C1.2439 17.9632 1.77963 17.7274 2.34528 17.7064C2.91092 17.6853 3.46301 17.8806 3.88694 18.2517C4.29062 18.5459 4.57685 18.9712 4.69547 19.4531C4.8141 19.9351 4.75757 20.4429 4.53578 20.8878C4.43361 21.1577 4.2781 21.4047 4.0783 21.6144C3.87851 21.8241 3.63847 21.9923 3.37221 22.1091C3.10595 22.2259 2.81878 22.2891 2.52756 22.2948C2.23634 22.3006 1.9469 22.2489 1.67613 22.1426C0.211752 21.1374 -0.00678757 19.8662 0.84931 18.3647Z" fill="white"/>
<path opacity="0.66" d="M3.2846 24.2483C3.55144 24.2271 3.81984 24.2612 4.07255 24.3486C4.32526 24.436 4.5567 24.5748 4.75201 24.7559C4.94733 24.937 5.1022 25.1566 5.20669 25.4004C5.31119 25.6443 5.36299 25.907 5.35878 26.1719C5.34052 26.7086 5.11424 27.2178 4.72685 27.594C4.33945 27.9703 3.82064 28.1846 3.27786 28.1927C3.02042 28.1923 2.7657 28.1405 2.52901 28.0403C2.29231 27.9402 2.0785 27.7937 1.90042 27.6097C1.72235 27.4258 1.58367 27.2082 1.49272 26.9699C1.40177 26.7316 1.36044 26.4776 1.37117 26.2231C1.35164 24.8494 1.93812 24.2483 3.2846 24.2483Z" fill="white"/>
<path opacity="0.66" d="M3.38749 11.9498C3.64432 11.9178 3.90512 11.9448 4.14968 12.0288C4.39424 12.1127 4.61594 12.2513 4.79756 12.4338C4.97918 12.6163 5.11583 12.8378 5.19688 13.081C5.27792 13.3242 5.30122 13.5827 5.2649 13.8362C5.28326 14.1011 5.24309 14.3668 5.14719 14.6147C5.05129 14.8627 4.90194 15.0871 4.70956 15.2722C4.51717 15.4573 4.28638 15.5987 4.03317 15.6866C3.77995 15.7746 3.51041 15.8069 3.24329 15.7814C2.98584 15.8049 2.72632 15.7707 2.48403 15.6815C2.24175 15.5922 2.0229 15.45 1.84376 15.2656C1.66462 15.0811 1.52978 14.8591 1.44926 14.6161C1.36873 14.373 1.34459 14.1151 1.37863 13.8615C1.37187 12.5761 2.04026 11.9409 3.38749 11.9498Z" fill="white"/>
<path opacity="0.66" d="M37.1598 12.7338C37.1742 12.984 37.137 13.2346 37.0504 13.4702C36.9639 13.7058 36.8298 13.9215 36.6564 14.1043C36.483 14.287 36.2738 14.433 36.0416 14.5333C35.8094 14.6336 35.5591 14.6862 35.3057 14.6878C35.0715 14.6791 34.8416 14.6232 34.6301 14.5235C34.4185 14.4238 34.2298 14.2823 34.0755 14.1078C33.9212 13.9333 33.8046 13.7294 33.7328 13.5088C33.661 13.2881 33.6356 13.0552 33.6581 12.8244C33.6411 12.5927 33.6764 12.3601 33.7612 12.1435C33.8461 11.9269 33.9786 11.7316 34.149 11.5718C34.3194 11.4119 34.5235 11.2915 34.7467 11.2192C34.9698 11.1468 35.2064 11.1244 35.4394 11.1535C35.8779 11.1425 36.3034 11.3017 36.6249 11.597C36.9464 11.8923 37.1384 12.3003 37.1598 12.7338Z" fill="white"/>
<path opacity="0.66" d="M10.6245 27.0604C10.6477 28.0886 9.77513 29.0909 8.8169 28.9327C8.3722 28.8964 7.95604 28.7012 7.64609 28.3836C7.33614 28.066 7.15356 27.6477 7.13246 27.2067C7.12462 26.743 7.29425 26.2934 7.60731 25.9481C7.92038 25.6028 8.35375 25.3874 8.82062 25.3449C9.05418 25.3348 9.28742 25.3718 9.50613 25.4535C9.72483 25.5352 9.92449 25.6601 10.093 25.8204C10.2615 25.9807 10.3954 26.1732 10.4864 26.3862C10.5775 26.5993 10.624 26.8283 10.6229 27.0596L10.6245 27.0604Z" fill="white"/>
<path opacity="0.66" d="M38.1286 32.788C37.9203 32.7711 37.7175 32.7128 37.5324 32.6167C37.3473 32.5206 37.1837 32.3885 37.0512 32.2285C36.9188 32.0685 36.8202 31.8837 36.7615 31.6853C36.7027 31.4868 36.685 31.2786 36.7093 31.0732C36.7012 30.8413 36.7439 30.6106 36.8345 30.3967C36.9252 30.1828 37.0616 29.9908 37.2343 29.834C37.4071 29.6772 37.6121 29.5593 37.8353 29.4884C38.0585 29.4174 38.2946 29.3951 38.5274 29.4231C38.7515 29.4345 38.9712 29.4898 39.1735 29.5859C39.3759 29.682 39.5569 29.817 39.7061 29.9829C39.8553 30.1488 39.9698 30.3423 40.0428 30.5523C40.1158 30.7623 40.1459 30.9846 40.1314 31.2062C40.0715 31.676 39.8287 32.1041 39.4547 32.3995C39.0806 32.6949 38.6049 32.8343 38.1286 32.788Z" fill="white"/>
<path opacity="0.66" d="M38.5115 7.22389C38.9433 7.25638 39.3476 7.44582 39.6466 7.75572C39.9455 8.06562 40.118 8.47403 40.1306 8.90224C40.1177 9.36673 39.9187 9.80714 39.5777 10.1266C39.2366 10.4461 38.7813 10.6185 38.3118 10.6059C38.0878 10.6073 37.8661 10.5617 37.6612 10.4722C37.4563 10.3826 37.273 10.2511 37.1232 10.0863C36.9734 9.92159 36.8606 9.7273 36.7922 9.51628C36.7238 9.30527 36.7015 9.08235 36.7265 8.86215C36.7283 8.63672 36.7767 8.41404 36.8688 8.20783C36.9609 8.00163 37.0947 7.81625 37.2619 7.66312C37.4291 7.51 37.6262 7.39234 37.8412 7.31744C38.0561 7.24254 38.2842 7.21198 38.5115 7.22761V7.22389Z" fill="white"/>
<path opacity="0.66" d="M14.3591 29.0888C13.9613 29.0868 13.5793 28.9352 13.2906 28.6645C13.0018 28.3939 12.828 28.0247 12.8046 27.6318C12.7945 27.4023 12.832 27.1731 12.9145 26.9583C12.9971 26.7434 13.123 26.5475 13.2846 26.3825C13.4463 26.2175 13.6403 26.0869 13.8547 25.9985C14.0691 25.9102 14.2995 25.866 14.5318 25.8688C14.7538 25.864 14.9744 25.9043 15.18 25.9872C15.3856 26.0701 15.5719 26.1937 15.7273 26.3506C15.8828 26.5075 16.0041 26.6941 16.0838 26.8992C16.1635 27.1042 16.1999 27.3232 16.1907 27.5427C16.1759 27.7646 16.1163 27.9813 16.0154 28.18C15.9145 28.3786 15.7743 28.5553 15.6032 28.6995C15.4321 28.8436 15.2335 28.9523 15.0191 29.0192C14.8048 29.0861 14.5791 29.1097 14.3553 29.0888H14.3591Z" fill="white"/>
<path opacity="0.66" d="M30.8457 9.48326C30.9276 7.97726 31.5111 7.46538 32.4978 7.44458C32.9636 7.47408 33.3991 7.68296 33.711 8.02643C34.023 8.3699 34.1865 8.82059 34.1665 9.28192C34.1101 9.70481 33.8889 10.0892 33.5501 10.3529C33.2112 10.6167 32.7816 10.7389 32.3529 10.6936C31.9984 10.6977 31.6536 10.5789 31.3783 10.3578C31.103 10.1368 30.9146 9.82735 30.8457 9.48326Z" fill="white"/>
<path opacity="0.66" d="M29.7072 10.9565C29.9293 10.9532 30.1497 10.9957 30.3543 11.0813C30.5589 11.1668 30.7433 11.2936 30.8957 11.4535C31.0482 11.6134 31.1653 11.8029 31.2396 12.01C31.314 12.2171 31.3441 12.4372 31.3278 12.6564C31.3381 12.8677 31.3017 13.0786 31.2213 13.2745C31.1408 13.4705 31.0182 13.6467 30.8618 13.791C30.7055 13.9353 30.5193 14.0441 30.3161 14.1099C30.113 14.1757 29.8977 14.1969 29.6854 14.172C29.473 14.1859 29.2599 14.1557 29.06 14.0833C28.8601 14.0109 28.6777 13.8979 28.5245 13.7516C28.3713 13.6053 28.2507 13.4289 28.1705 13.2338C28.0903 13.0386 28.0523 12.829 28.0588 12.6185C28.0483 12.4001 28.0835 12.1819 28.1621 11.9776C28.2408 11.7734 28.3614 11.5873 28.5161 11.4313C28.6709 11.2753 28.8566 11.1525 29.0615 11.0708C29.2665 10.9891 29.4863 10.9502 29.7072 10.9565Z" fill="white"/>
<path opacity="0.66" d="M13.4549 30.8526C13.3798 31.9671 12.8151 32.5615 11.763 32.5726C11.5487 32.5865 11.334 32.555 11.133 32.4801C10.9321 32.4053 10.7496 32.2888 10.5978 32.1386C10.446 31.9883 10.3284 31.8077 10.2528 31.6089C10.1773 31.4101 10.1455 31.1975 10.1597 30.9856C10.1453 30.7745 10.1748 30.5629 10.2463 30.3636C10.3179 30.1642 10.4299 29.9815 10.5756 29.8267C10.7212 29.6718 10.8974 29.5482 11.0932 29.4633C11.2891 29.3785 11.5004 29.3341 11.7142 29.3332C11.9302 29.3161 12.1474 29.3423 12.353 29.4101C12.5585 29.4779 12.7482 29.5859 12.9106 29.7278C13.0731 29.8697 13.205 30.0424 13.2985 30.2358C13.392 30.4292 13.4452 30.6392 13.4549 30.8533V30.8526Z" fill="white"/>
<path opacity="0.66" d="M26.3339 8.779C27.1675 8.68167 27.5542 9.41426 27.6023 10.1424C27.6318 10.3413 27.6148 10.5442 27.5526 10.7356C27.4904 10.9269 27.3846 11.1016 27.2435 11.2462C27.1023 11.3908 26.9295 11.5015 26.7384 11.5696C26.5472 11.6378 26.3428 11.6617 26.1409 11.6395C25.9395 11.6567 25.7368 11.6312 25.5463 11.5646C25.3557 11.4981 25.1817 11.3921 25.0359 11.2537C24.8901 11.1153 24.7758 10.9476 24.7007 10.762C24.6257 10.5764 24.5916 10.377 24.6007 10.1773C24.5549 9.18616 25.2382 8.81764 26.3339 8.779Z" fill="white"/>
<path opacity="0.66" d="M18.2159 31.2573C18.0011 31.286 17.7825 31.2661 17.5766 31.1991C17.3707 31.1321 17.1829 31.0196 17.0273 30.8703C16.8716 30.721 16.7523 30.5388 16.6783 30.3372C16.6042 30.1357 16.5774 29.9201 16.5998 29.7068C16.603 29.5085 16.6488 29.3132 16.7343 29.1339C16.8197 28.9545 16.9428 28.7952 17.0954 28.6666C17.248 28.538 17.4265 28.4431 17.619 28.3881C17.8116 28.3331 18.0138 28.3195 18.2121 28.3479C18.401 28.339 18.5896 28.3696 18.7658 28.4376C18.9419 28.5057 19.1016 28.6096 19.2344 28.7428C19.3671 28.876 19.4701 29.0354 19.5364 29.2106C19.6028 29.3858 19.6311 29.5728 19.6195 29.7595C19.5932 30.5887 19.2342 31.3078 18.2159 31.2573Z" fill="white"/>
<path opacity="0.66" d="M33.1654 35.0511C33.1384 33.9991 33.7039 33.4419 34.608 33.4523C34.8003 33.4438 34.9923 33.4757 35.1712 33.5459C35.3502 33.616 35.5121 33.7228 35.6464 33.8593C35.7807 33.9958 35.8842 34.1588 35.9503 34.3377C36.0163 34.5166 36.0433 34.7073 36.0296 34.8973C36.0505 35.0976 36.0264 35.3 35.9591 35.4901C35.8917 35.6801 35.7827 35.8531 35.6399 35.9966C35.4972 36.1401 35.3241 36.2507 35.1331 36.3204C34.9421 36.39 34.738 36.417 34.5352 36.3996C34.3501 36.4236 34.162 36.4054 33.9852 36.3462C33.8084 36.2871 33.6476 36.1886 33.5153 36.0584C33.383 35.9281 33.2827 35.7696 33.222 35.595C33.1614 35.4204 33.142 35.2343 33.1654 35.0511Z" fill="white"/>
<path opacity="0.66" d="M11.145 35.0482C11.1463 35.2316 11.1107 35.4134 11.0401 35.5829C10.9696 35.7525 10.8656 35.9065 10.7342 36.0359C10.6028 36.1652 10.4467 36.2674 10.275 36.3363C10.1032 36.4053 9.91928 36.4397 9.73393 36.4376C8.83278 36.4688 8.30262 35.9116 8.31538 34.9085C8.29185 34.7216 8.30912 34.5317 8.36603 34.3519C8.42293 34.172 8.51815 34.0063 8.64526 33.866C8.77237 33.7257 8.92841 33.6139 9.10288 33.5383C9.27734 33.4627 9.46617 33.4251 9.65661 33.4278C9.86664 33.4222 10.0754 33.4614 10.2687 33.543C10.462 33.6245 10.6352 33.7464 10.7765 33.9002C10.9178 34.054 11.0238 34.2363 11.0874 34.4344C11.151 34.6325 11.1707 34.8419 11.145 35.0482Z" fill="white"/>
<path opacity="0.66" d="M30.7375 15.9418C30.7457 15.7729 30.7892 15.6075 30.8654 15.4562C30.9416 15.3048 31.0488 15.1707 31.1801 15.0625C31.3115 14.9543 31.4641 14.8743 31.6284 14.8276C31.7927 14.7808 31.9649 14.7684 32.1343 14.791C32.3141 14.7811 32.4939 14.8094 32.6617 14.874C32.8295 14.9385 32.9814 15.0379 33.1072 15.1653C33.2329 15.2928 33.3297 15.4454 33.3909 15.6129C33.4521 15.7804 33.4764 15.959 33.462 16.1365C33.4814 16.3245 33.4584 16.5145 33.3947 16.6927C33.331 16.8709 33.2282 17.0329 33.0936 17.167C32.959 17.3012 32.796 17.4041 32.6164 17.4685C32.4367 17.5329 32.2449 17.557 32.0547 17.5392C31.0725 17.5363 30.7826 16.8966 30.7375 15.9418Z" fill="white"/>
<path opacity="0.66" d="M15.2565 31.9781C15.4419 31.9468 15.632 31.9572 15.8127 32.0086C15.9935 32.0599 16.1602 32.1508 16.3005 32.2747C16.4408 32.3985 16.5512 32.5521 16.6233 32.7239C16.6954 32.8957 16.7275 33.0814 16.7172 33.2671C16.7371 33.4558 16.7148 33.6464 16.6518 33.8256C16.5888 34.0047 16.4866 34.1679 16.3526 34.3035C16.2186 34.4391 16.056 34.5439 15.8765 34.6103C15.6969 34.6767 15.5047 34.7031 15.3136 34.6877C15.1332 34.694 14.9534 34.6642 14.7849 34.5999C14.6165 34.5356 14.463 34.4383 14.3336 34.3138C14.2042 34.1892 14.1017 34.0401 14.0321 33.8753C13.9625 33.7105 13.9274 33.5334 13.9288 33.3548C13.8477 32.412 14.5431 32.091 15.2565 31.9781Z" fill="white"/>
<path opacity="0.66" d="M38.5161 17.3774C38.3524 18.1411 37.9469 18.7029 37.1118 18.7073C36.9214 18.7285 36.7286 18.7086 36.5467 18.6492C36.3648 18.5897 36.198 18.492 36.0578 18.3628C35.9177 18.2335 35.8074 18.0758 35.7346 17.9005C35.6619 17.7251 35.6282 17.5363 35.6361 17.3469C35.6129 16.4078 36.2993 16.0311 37.1156 16.0059C37.9874 15.9791 38.2788 16.6701 38.5161 17.3774Z" fill="white"/>
<path opacity="0.66" d="M13.515 23.9881C13.358 24.711 12.9653 25.3827 12.0424 25.2586C11.8497 25.2493 11.6614 25.199 11.4901 25.1113C11.3189 25.0235 11.1687 24.9003 11.0499 24.75C10.931 24.5997 10.8463 24.4259 10.8014 24.2403C10.7565 24.0548 10.7526 23.8618 10.7898 23.6746C10.7959 23.4955 10.8413 23.3199 10.9228 23.16C11.0043 23 11.12 22.8595 11.2619 22.7482C11.4038 22.6369 11.5684 22.5574 11.7444 22.5153C11.9204 22.4732 12.1035 22.4695 12.2812 22.5044C12.4681 22.5005 12.6535 22.5385 12.8233 22.6157C12.9932 22.6929 13.1432 22.8072 13.2619 22.9501C13.3807 23.0929 13.4652 23.2605 13.509 23.4403C13.5529 23.6201 13.5549 23.8074 13.515 23.9881Z" fill="white"/>
<path opacity="0.66" d="M28.7025 5.21558C29.7035 5.34857 30.2164 5.85679 30.2044 6.7216C30.1955 6.89849 30.1515 7.0719 30.0748 7.23194C29.9981 7.39199 29.8903 7.53551 29.7576 7.65435C29.6248 7.77319 29.4697 7.865 29.3011 7.92453C29.1325 7.98407 28.9537 8.01018 28.7749 8.00135C28.5962 7.99252 28.4209 7.94896 28.2591 7.87311C28.0973 7.79726 27.9522 7.69058 27.8321 7.55926C27.712 7.42793 27.6192 7.2745 27.559 7.10769C27.4989 6.94089 27.4725 6.764 27.4814 6.5871C27.4783 6.2498 27.6013 5.92326 27.8266 5.67014C28.052 5.41701 28.3639 5.25512 28.7025 5.21558Z" fill="white"/>
<path opacity="0.66" d="M8.61051 22.5818C8.51739 23.5558 8.06607 24.1086 7.23325 24.0291C6.45601 23.9548 5.72682 23.5513 5.81543 22.6107C5.82554 22.4219 5.87491 22.2372 5.96055 22.0682C6.04618 21.8991 6.16621 21.7494 6.31307 21.6283C6.45992 21.5073 6.63046 21.4176 6.814 21.3648C6.99754 21.3121 7.19011 21.2974 7.37965 21.3217C7.54703 21.315 7.71398 21.3435 7.86944 21.4052C8.02491 21.467 8.16537 21.5606 8.28164 21.6799C8.39791 21.7992 8.48737 21.9415 8.54404 22.0975C8.60072 22.2534 8.62336 22.4195 8.61051 22.5848V22.5818Z" fill="white"/>
<path opacity="0.66" d="M23.4712 30.3889C23.4745 30.7306 23.3437 31.0603 23.1062 31.3084C22.8688 31.5566 22.5434 31.704 22.1983 31.7196C22.0206 31.7503 21.8382 31.7414 21.6644 31.6935C21.4906 31.6457 21.3297 31.56 21.1936 31.4429C21.0575 31.3257 20.9495 31.1799 20.8775 31.0162C20.8055 30.8525 20.7713 30.675 20.7775 30.4966C20.7588 30.3191 20.7783 30.1397 20.8348 29.9702C20.8913 29.8007 20.9835 29.6449 21.1053 29.5132C21.227 29.3815 21.3756 29.2769 21.5413 29.2061C21.7069 29.1354 21.8858 29.1002 22.0662 29.1028C22.9523 29.0256 23.27 29.6875 23.4712 30.3889Z" fill="white"/>
<path opacity="0.66" d="M23.5088 9.60006C23.5185 9.77769 23.4898 9.95532 23.4247 10.1211C23.3596 10.287 23.2596 10.4372 23.1313 10.5618C23.0031 10.6865 22.8494 10.7827 22.6807 10.8442C22.5119 10.9056 22.332 10.9308 22.1526 10.9181C21.8943 10.9106 21.6439 10.8282 21.4326 10.6811C21.2213 10.534 21.0583 10.3287 20.964 10.0907C20.8697 9.85266 20.8481 9.5925 20.9021 9.34248C20.956 9.09247 21.0831 8.86364 21.2674 8.6845C21.4517 8.50535 21.6853 8.38377 21.9389 8.33487C22.1925 8.28597 22.4551 8.3119 22.6939 8.40946C22.9328 8.50702 23.1373 8.67189 23.2822 8.88357C23.4271 9.09525 23.5059 9.34442 23.5088 9.60006Z" fill="white"/>
<path opacity="0.66" d="M20.6874 12.487C21.4527 12.519 21.9641 12.8169 21.9641 13.6632C21.9896 13.8387 21.9735 14.0177 21.9171 14.186C21.8608 14.3544 21.7658 14.5075 21.6395 14.6333C21.5132 14.7591 21.3591 14.8542 21.1893 14.9111C21.0195 14.968 20.8387 14.9851 20.6611 14.9611C20.4932 14.9735 20.3246 14.9487 20.1675 14.8887C20.0104 14.8286 19.8688 14.7347 19.7529 14.6138C19.637 14.4929 19.5498 14.348 19.4975 14.1896C19.4452 14.0313 19.4292 13.8633 19.4506 13.6981C19.4286 13.5328 19.4457 13.3647 19.5003 13.207C19.5549 13.0493 19.6456 12.9062 19.7653 12.789C19.8851 12.6717 20.0307 12.5835 20.1906 12.5311C20.3506 12.4787 20.5206 12.4636 20.6874 12.487Z" fill="white"/>
<path opacity="0.66" d="M22.9163 27.5263C22.7623 27.4338 22.6289 27.3112 22.5245 27.1659C22.42 27.0206 22.3466 26.8558 22.3088 26.6815C22.271 26.5072 22.2695 26.3271 22.3045 26.1522C22.3395 25.9773 22.4102 25.8113 22.5123 25.6644C22.9726 24.8828 23.8145 25.1555 24.5452 25.362C24.7471 25.6674 24.8527 26.0253 24.8484 26.3902C24.8441 26.7551 24.7302 27.1105 24.5211 27.4111C24.2951 27.5851 24.022 27.6889 23.7364 27.7094C23.4507 27.7299 23.1654 27.6662 22.9163 27.5263Z" fill="white"/>
<path opacity="0.66" d="M25.601 24.2721L25.6888 23.8263C25.9236 23.6994 26.17 23.5949 26.4247 23.5143C26.5951 23.4533 26.7773 23.4315 26.9574 23.4505C27.1376 23.4695 27.3111 23.5288 27.4646 23.624C27.6182 23.7191 27.7478 23.8476 27.8437 23.9997C27.9396 24.1517 27.9994 24.3234 28.0183 24.5017C28.0639 24.6639 28.0703 24.8344 28.0369 24.9995C28.0034 25.1646 27.9312 25.3196 27.826 25.452C27.7207 25.5843 27.5855 25.6902 27.4311 25.7612C27.2768 25.8322 27.1077 25.8662 26.9376 25.8605C26.0658 25.9489 25.5521 25.6176 25.6227 24.6681C25.6241 24.5358 25.6168 24.4035 25.601 24.2721Z" fill="white"/>
<path opacity="0.66" d="M18.7125 15.4462C18.8131 16.308 18.2214 16.5339 17.565 16.5918C17.4088 16.6244 17.2472 16.6218 17.0922 16.5841C16.9372 16.5465 16.7927 16.4748 16.6695 16.3744C16.5463 16.274 16.4475 16.1474 16.3805 16.0041C16.3135 15.8608 16.28 15.7044 16.2824 15.5465C16.264 15.379 16.2807 15.2096 16.3314 15.0488C16.3821 14.888 16.4656 14.7392 16.5769 14.6117C16.6882 14.4843 16.8249 14.3808 16.9783 14.3079C17.1318 14.2349 17.2988 14.1939 17.4689 14.1876C18.2672 14.1504 18.6449 14.6928 18.7125 15.4462Z" fill="white"/>
<path opacity="0.66" d="M30.2442 38.6365C29.7125 38.3883 29.0892 38.2257 29.1267 37.4091C29.1086 37.2432 29.1301 37.0753 29.1895 36.919C29.2489 36.7628 29.3446 36.6226 29.4688 36.5095C29.5929 36.3965 29.7422 36.3139 29.9045 36.2683C30.0668 36.2227 30.2377 36.2155 30.4034 36.2472C30.5612 36.2374 30.7192 36.2625 30.866 36.3208C31.0127 36.3791 31.1445 36.469 31.2517 36.584C31.3589 36.699 31.4387 36.8362 31.4856 36.9856C31.5324 37.135 31.5449 37.2929 31.5223 37.4478C31.4889 37.7647 31.3414 38.0591 31.1067 38.2774C30.8721 38.4956 30.5659 38.6231 30.2442 38.6365Z" fill="white"/>
<path opacity="0.66" d="M19.3703 33.328C20.2294 33.308 20.4449 33.941 20.4622 34.5532C20.4768 34.7081 20.4558 34.8641 20.4007 35.0098C20.3455 35.1554 20.2577 35.2869 20.1439 35.3941C20.0301 35.5014 19.8931 35.5818 19.7434 35.6291C19.5937 35.6765 19.435 35.6897 19.2794 35.6677C18.6103 35.6276 18.0681 35.2962 18.0929 34.5153C18.0825 34.3501 18.1092 34.1846 18.1708 34.0306C18.2325 33.8767 18.3277 33.7381 18.4497 33.6248C18.5716 33.5114 18.7174 33.426 18.8765 33.3747C19.0356 33.3234 19.2042 33.3075 19.3703 33.328Z" fill="white"/>
<path opacity="0.66" d="M31.5352 2.64952C31.5306 2.80785 31.4935 2.96361 31.4259 3.10721C31.3583 3.25081 31.2618 3.3792 31.1422 3.48454C31.0226 3.58989 30.8826 3.66997 30.7306 3.7198C30.5786 3.76964 30.418 3.78819 30.2585 3.77436C30.1 3.78455 29.9412 3.75965 29.7936 3.70144C29.6461 3.64323 29.5136 3.55319 29.4057 3.43788C29.2977 3.32257 29.2172 3.18489 29.1698 3.03488C29.1225 2.88487 29.1096 2.72632 29.1321 2.57075C29.1299 2.41469 29.1608 2.25993 29.2229 2.11646C29.285 1.97299 29.3768 1.84401 29.4925 1.7379C29.6082 1.63179 29.7451 1.55089 29.8944 1.50046C30.0437 1.45003 30.202 1.43118 30.3591 1.44514C31.0838 1.45257 31.4263 1.99125 31.5352 2.64952Z" fill="white"/>
<path opacity="0.66" d="M24.0735 4.59532C24.8245 4.35534 25.583 4.19039 26.0711 5.01954C26.1724 5.21695 26.2128 5.43946 26.1873 5.65939C26.1618 5.87933 26.0715 6.08703 25.9277 6.25662C25.5109 6.8822 24.9289 6.68308 24.3672 6.63404C23.3751 6.08053 23.5824 5.35686 24.0735 4.59532Z" fill="white"/>
<path opacity="0.66" d="M25.6401 13.9597C25.6934 14.6967 25.2061 15.0593 24.5272 15.115C23.7499 15.1789 23.4435 14.6514 23.397 13.9552C23.3761 13.8123 23.3876 13.6665 23.4305 13.5285C23.4734 13.3905 23.5467 13.2636 23.6452 13.157C23.7437 13.0504 23.8649 12.9667 24 12.9121C24.1351 12.8574 24.2808 12.833 24.4266 12.8408C24.585 12.8129 24.7477 12.8219 24.902 12.867C25.0563 12.9121 25.1979 12.992 25.3156 13.1006C25.4333 13.2091 25.5239 13.3432 25.5802 13.4923C25.6365 13.6414 25.657 13.8014 25.6401 13.9597Z" fill="white"/>
<path opacity="0.66" d="M38.272 21.5394C38.1706 22.0982 38.0122 22.642 37.2492 22.6821C37.0939 22.7131 36.9336 22.7096 36.7798 22.672C36.626 22.6344 36.4825 22.5636 36.3596 22.4647C36.2367 22.3657 36.1375 22.2411 36.069 22.0998C36.0005 21.9585 35.9645 21.8039 35.9635 21.6472C35.9414 21.4917 35.9555 21.3333 36.0047 21.184C36.0539 21.0347 36.1369 20.8985 36.2474 20.7858C36.3578 20.6731 36.4928 20.5868 36.6421 20.5335C36.7914 20.4803 36.951 20.4615 37.1087 20.4785C37.8282 20.454 38.1609 20.8544 38.272 21.5394Z" fill="white"/>
<path opacity="0.66" d="M7.03047 19.5134C6.2795 19.5795 6.00466 19.0877 6.0347 18.4613C6.02035 18.3065 6.04102 18.1505 6.0952 18.0045C6.14938 17.8586 6.2357 17.7264 6.34793 17.6176C6.46017 17.5087 6.59551 17.4259 6.74409 17.3753C6.89266 17.3246 7.05075 17.3073 7.20693 17.3246C8.03299 17.3395 8.30036 17.8714 8.31463 18.5208C8.32965 19.3091 7.77467 19.552 7.03047 19.5134Z" fill="white"/>
<path opacity="0.66" d="M21.0066 26.1942C20.8759 26.8198 20.5245 27.3086 19.7795 27.2566C19.6336 27.264 19.4876 27.2415 19.3509 27.1905C19.2142 27.1396 19.0896 27.0612 18.9849 26.9603C18.8802 26.8595 18.7976 26.7383 18.7425 26.6044C18.6873 26.4705 18.6607 26.3268 18.6643 26.1823C18.6571 26.0262 18.6846 25.8704 18.7447 25.7258C18.8048 25.5813 18.8962 25.4515 19.0124 25.3457C19.1286 25.2398 19.2669 25.1604 19.4175 25.1131C19.568 25.0657 19.7272 25.0515 19.8839 25.0716C20.0327 25.0707 20.1802 25.0991 20.3178 25.1553C20.4554 25.2114 20.5802 25.2941 20.6851 25.3986C20.79 25.5031 20.8728 25.6271 20.9286 25.7636C20.9844 25.9001 21.0122 26.0462 21.0103 26.1935L21.0066 26.1942Z" fill="white"/>
<path opacity="0.66" d="M33.731 20.2674C33.7278 20.4129 33.6934 20.5562 33.6298 20.6875C33.5662 20.8188 33.4751 20.9352 33.3624 21.0289C33.2497 21.1226 33.1182 21.1914 32.9765 21.2308C32.8348 21.2701 32.6862 21.279 32.5407 21.257C31.9655 21.202 31.5254 20.9205 31.5645 20.2317C31.5532 20.075 31.5789 19.9179 31.6397 19.7728C31.7004 19.6276 31.7945 19.4985 31.9144 19.3955C32.0344 19.2926 32.1768 19.2187 32.3307 19.1797C32.4845 19.1407 32.6454 19.1376 32.8006 19.1707C33.4719 19.2146 33.6987 19.6663 33.731 20.2674Z" fill="white"/>
<path opacity="0.66" d="M11.6248 20.8632C10.9895 20.829 10.5465 20.6135 10.5299 19.8587C10.5107 19.7154 10.5243 19.5697 10.5696 19.4323C10.6149 19.2949 10.6908 19.1693 10.7917 19.0647C10.8926 18.9602 11.016 18.8794 11.1526 18.8283C11.2893 18.7772 11.4358 18.7571 11.5813 18.7695C11.7258 18.7531 11.8722 18.7676 12.0106 18.8123C12.1489 18.8569 12.2758 18.9306 12.3827 19.0282C12.4897 19.1258 12.5741 19.2451 12.6302 19.3779C12.6862 19.5107 12.7127 19.6539 12.7077 19.7978C12.7506 20.5801 12.2496 20.7525 11.6248 20.8632Z" fill="white"/>
<path opacity="0.66" d="M26.0396 0.294922C26.7057 0.369219 27.1345 0.723635 27.1383 1.37373C27.1399 1.50541 27.1149 1.63606 27.0647 1.75805C27.0146 1.88004 26.9404 1.99092 26.8464 2.08414C26.7524 2.17736 26.6405 2.25104 26.5173 2.3009C26.3941 2.35077 26.2621 2.3758 26.129 2.3745C25.999 2.41095 25.8619 2.41489 25.7301 2.38598C25.5982 2.35706 25.4756 2.29621 25.3734 2.20885C25.2711 2.12149 25.1925 2.01036 25.1444 1.88548C25.0963 1.76059 25.0803 1.62587 25.0979 1.49336C25.0768 1.35301 25.0846 1.20985 25.121 1.07258C25.1573 0.935318 25.2215 0.80678 25.3095 0.694749C25.3976 0.582718 25.5076 0.489529 25.6331 0.420806C25.7586 0.352083 25.8969 0.309249 26.0396 0.294922Z" fill="white"/>
<path opacity="0.66" d="M37.0246 25.6406C37.0599 26.2528 36.589 26.5716 35.9425 26.5463C35.4333 26.5262 34.816 26.4341 34.816 25.6896C34.7963 25.5461 34.809 25.4 34.853 25.2618C34.897 25.1237 34.9713 24.9968 35.0705 24.8903C35.1698 24.7839 35.2917 24.7005 35.4273 24.646C35.563 24.5915 35.7091 24.5673 35.8553 24.5752C36.4711 24.5648 37.0208 24.7156 37.0246 25.6406Z" fill="white"/>
<path opacity="0.66" d="M19.1675 39.1702C18.7229 39.4213 18.3414 39.9473 17.7406 39.593C17.5767 39.5146 17.4406 39.389 17.3503 39.2326C17.2599 39.0763 17.2195 38.8965 17.2345 38.717C17.2931 38.1457 17.4778 37.6137 18.1635 37.6375C19.1795 37.6731 19.1818 38.4384 19.163 39.1777L19.1675 39.1702Z" fill="white"/>
<path opacity="0.66" d="M26.4451 39.7125C26.02 39.6516 25.5139 39.7526 25.2541 39.3024C25.1189 39.1011 25.0567 38.8604 25.0777 38.6197C25.0987 38.3789 25.2016 38.1523 25.3697 37.9769C25.4302 37.8848 25.5089 37.8058 25.601 37.7445C25.6931 37.6831 25.7967 37.6408 25.9057 37.62C26.0147 37.5992 26.1268 37.6004 26.2354 37.6234C26.3439 37.6464 26.4466 37.6908 26.5374 37.754C26.7559 37.8682 26.9239 38.0585 27.0089 38.2881C27.0939 38.5176 27.09 38.7702 26.9978 38.997C26.8466 39.2605 26.6591 39.5018 26.4406 39.714L26.4451 39.7125Z" fill="white"/>
<path opacity="0.66" d="M18.0801 11.5094C17.9492 11.5032 17.8209 11.4715 17.7026 11.416C17.5842 11.3606 17.4781 11.2825 17.3903 11.1863C17.3026 11.0901 17.235 10.9777 17.1913 10.8555C17.1477 10.7333 17.129 10.6038 17.1361 10.4744C17.1557 9.80575 17.6896 9.55908 18.2573 9.58285C18.3822 9.57862 18.5066 9.60089 18.6221 9.64815C18.7375 9.69542 18.8415 9.76659 18.9268 9.85689C19.0122 9.94719 19.077 10.0545 19.117 10.1717C19.157 10.2888 19.1711 10.4131 19.1585 10.5361C19.1664 10.6745 19.1429 10.8129 19.0898 10.9411C19.0367 11.0694 18.9554 11.1843 18.8517 11.2775C18.748 11.3707 18.6246 11.4398 18.4904 11.4798C18.3563 11.5198 18.2148 11.5296 18.0764 11.5086L18.0801 11.5094Z" fill="white"/>
<path opacity="0.66" d="M7.85119 15.5153C6.81861 15.1378 7.12877 14.2522 7.50651 13.825C7.61976 13.6849 7.7691 13.5775 7.93878 13.5141C8.10846 13.4507 8.29222 13.4337 8.47083 13.4649C8.64944 13.4961 8.8163 13.5743 8.95384 13.6912C9.09138 13.8082 9.19454 13.9596 9.2525 14.1296C9.49807 15.2976 8.85522 15.5858 7.85119 15.5153Z" fill="white"/>
<path opacity="0.66" d="M26.1762 30.4402C25.5469 30.3518 25.0497 30.1653 25.1008 29.4743C25.1063 29.2307 25.2066 28.9985 25.3807 28.826C25.5549 28.6536 25.7894 28.5543 26.0357 28.5486C26.6718 28.5159 27.003 28.9483 27.0383 29.539C27.0736 30.1297 26.6831 30.3867 26.1762 30.4402Z" fill="white"/>
<path opacity="0.66" d="M13.4737 16.0949C13.4634 16.3389 13.3558 16.5689 13.1745 16.7347C12.9933 16.9005 12.7531 16.9886 12.5065 16.9798C12.3833 16.99 12.2593 16.9726 12.1439 16.9288C12.0284 16.885 11.9245 16.816 11.8397 16.727C11.755 16.6379 11.6916 16.5311 11.6544 16.4144C11.6172 16.2978 11.6071 16.1744 11.6248 16.0533C11.6196 15.9313 11.6409 15.8095 11.687 15.6962C11.7332 15.5829 11.8032 15.4807 11.8925 15.3963C11.9818 15.3119 12.0882 15.2474 12.2047 15.2069C12.3212 15.1665 12.445 15.1511 12.568 15.1617C13.1921 15.1439 13.4009 15.5503 13.4737 16.0949Z" fill="white"/>
<path opacity="0.66" d="M21.2102 4.53216C21.333 4.52068 21.4569 4.53676 21.5726 4.57923C21.6883 4.6217 21.7928 4.68946 21.8783 4.77744C21.9638 4.86542 22.0282 4.97138 22.0666 5.08739C22.105 5.2034 22.1164 5.3265 22.1 5.44749C22.1149 5.56862 22.1011 5.69148 22.0597 5.80642C22.0183 5.92136 21.9505 6.02521 21.8616 6.10975C21.7726 6.19428 21.665 6.25718 21.5473 6.29349C21.4295 6.32981 21.3049 6.33853 21.1831 6.31898C20.9349 6.31468 20.6984 6.21347 20.5252 6.03742C20.3521 5.86137 20.2563 5.62475 20.2587 5.37911C20.2632 4.79514 20.6544 4.54851 21.2102 4.53216Z" fill="white"/>
<path opacity="0.66" d="M31.7047 23.1308C32.2919 23.1516 32.6487 23.4652 32.6201 24.0372C32.5916 24.6093 32.2011 24.8694 31.6108 24.8463C31.4984 24.8561 31.3852 24.8417 31.2791 24.8038C31.1729 24.766 31.0763 24.7057 30.9961 24.6273C30.9158 24.5488 30.8538 24.4539 30.8143 24.3494C30.7749 24.2448 30.7589 24.133 30.7675 24.0216C30.7549 23.8984 30.7708 23.7739 30.814 23.6575C30.8572 23.5412 30.9265 23.4361 31.0168 23.3502C31.1071 23.2643 31.216 23.1999 31.3351 23.1618C31.4543 23.1236 31.5807 23.1128 31.7047 23.1301V23.1308Z" fill="white"/>
<path opacity="0.66" d="M14.7188 11.8904C15.3474 11.9268 15.7416 12.1734 15.695 12.7886C15.6994 12.9002 15.6809 13.0116 15.6408 13.116C15.6006 13.2204 15.5396 13.3157 15.4614 13.3962C15.3831 13.4768 15.2893 13.5408 15.1854 13.5846C15.0816 13.6285 14.9699 13.6511 14.857 13.6512C14.734 13.6718 14.608 13.6654 14.4878 13.6325C14.3677 13.5996 14.2562 13.541 14.1614 13.4609C14.0666 13.3808 13.9907 13.281 13.9391 13.1687C13.8875 13.0564 13.8614 12.9343 13.8627 12.8109C13.8056 12.2002 14.2314 11.9632 14.7188 11.8904Z" fill="white"/>
<path opacity="0.66" d="M33.9982 27.842C34.5029 27.8866 34.9535 28.085 34.9122 28.6898C34.9197 28.811 34.9015 28.9324 34.8586 29.0462C34.8158 29.16 34.7493 29.2635 34.6635 29.3503C34.5776 29.4371 34.4743 29.505 34.3602 29.5498C34.2461 29.5946 34.1239 29.6152 34.0012 29.6103C33.8903 29.6178 33.779 29.6023 33.6745 29.5648C33.57 29.5272 33.4746 29.4685 33.3944 29.3923C33.3142 29.3161 33.251 29.2242 33.2089 29.1224C33.1667 29.0206 33.1465 28.9112 33.1496 28.8012C33.0971 28.2113 33.4019 27.9178 33.9982 27.842Z" fill="white"/>
<path opacity="0.66" d="M10.2671 12.1944C9.71213 12.1201 9.35842 11.886 9.40498 11.2567C9.44253 10.7448 9.63028 10.4179 10.2025 10.4068C10.3243 10.387 10.449 10.3951 10.5671 10.4306C10.6852 10.4661 10.7935 10.5279 10.8837 10.6113C10.9738 10.6947 11.0433 10.7975 11.0869 10.9117C11.1306 11.026 11.1471 11.1486 11.1352 11.2701C11.1758 11.9113 10.8063 12.1179 10.2671 12.1944Z" fill="white"/>
<path opacity="0.66" d="M24.0419 34.499C24.0006 35.1618 23.7063 35.4605 23.1032 35.4798C22.9803 35.4984 22.8546 35.4893 22.7357 35.4531C22.6168 35.417 22.5077 35.3548 22.4165 35.271C22.3253 35.1873 22.2544 35.0843 22.2091 34.9697C22.1638 34.855 22.1452 34.7318 22.1548 34.6091C22.1445 34.4974 22.1593 34.3849 22.198 34.2795C22.2368 34.1741 22.2986 34.0785 22.379 33.9994C22.4594 33.9204 22.5564 33.8598 22.6632 33.8221C22.7699 33.7844 22.8838 33.7705 22.9966 33.7814C23.2311 33.7422 23.4717 33.7954 23.6671 33.9295C23.8625 34.0636 23.997 34.268 24.0419 34.499Z" fill="white"/>
<path opacity="0.66" d="M22.0932 0C22.769 0.10996 23.0341 0.445758 22.9778 1.03419C22.9828 1.14649 22.9628 1.25849 22.9192 1.36232C22.8757 1.46615 22.8097 1.55927 22.7259 1.63513C22.642 1.71099 22.5424 1.76777 22.434 1.80142C22.3256 1.83507 22.211 1.84478 22.0984 1.8299C21.9741 1.82305 21.8528 1.78969 21.7428 1.73208C21.6328 1.67447 21.5367 1.59401 21.461 1.49619C21.3854 1.39836 21.3321 1.28547 21.3047 1.16533C21.2773 1.04519 21.2765 0.92062 21.3024 0.800153C21.3407 0.217664 21.7154 0.0809837 22.0932 0Z" fill="white"/>
<path opacity="0.66" d="M30.293 27.1836C30.218 27.8314 29.9303 28.1918 29.3371 28.1413C29.2246 28.1483 29.112 28.1301 29.0077 28.0878C28.9034 28.0456 28.8102 27.9805 28.735 27.8975C28.6598 27.8144 28.6046 27.7156 28.5736 27.6084C28.5426 27.5013 28.5367 27.3885 28.5561 27.2787C28.6056 26.7088 28.867 26.3767 29.4797 26.3916C30.0572 26.4057 30.1842 26.8225 30.293 27.1836Z" fill="white"/>
<path opacity="0.66" d="M0.847754 18.3655C0.811708 18.9108 1.04827 19.4985 0.622474 19.9844C0.312327 20.3373 0.585674 20.5461 0.806457 20.7333C1.20762 21.1268 1.50537 21.6115 1.67379 22.1449C-0.175075 21.5194 -0.555795 19.7793 0.847754 18.3655Z" fill="white"/>
<path opacity="0.66" d="M22.9786 39.11C22.9965 39.2318 22.9849 39.356 22.9449 39.4725C22.9048 39.5889 22.8375 39.6944 22.7483 39.7802C22.6591 39.8659 22.5507 39.9295 22.4318 39.9658C22.313 40.0021 22.1872 40.0101 22.0647 39.989C21.5435 39.9748 21.2927 39.6175 21.3137 39.0922C21.2991 38.8685 21.3735 38.648 21.5209 38.4778C21.6684 38.3076 21.8773 38.2012 22.103 38.1813C22.2262 38.1711 22.3502 38.1885 22.4657 38.2325C22.5811 38.2764 22.685 38.3457 22.7695 38.4351C22.854 38.5245 22.9168 38.6316 22.9534 38.7485C22.9901 38.8654 22.9995 38.9891 22.9809 39.11H22.9786Z" fill="white"/>
<path opacity="0.66" d="M15.8662 17.5928C16.4534 17.6871 16.7673 17.9791 16.735 18.4903C16.7339 18.6018 16.7081 18.7118 16.6594 18.8124C16.6107 18.913 16.5403 19.0018 16.4532 19.0726C16.3661 19.1435 16.2644 19.1945 16.1552 19.2223C16.046 19.25 15.932 19.2538 15.8211 19.2333C15.7203 19.2328 15.6206 19.2115 15.5285 19.1708C15.4364 19.1301 15.354 19.0708 15.2863 18.9968C15.2187 18.9227 15.1674 18.8355 15.1358 18.7408C15.1041 18.646 15.0928 18.5458 15.1025 18.4465C15.0912 17.9093 15.4629 17.6953 15.8662 17.5928Z" fill="white"/>
<path opacity="0.66" d="M29.2597 21.7861C29.0622 22.1769 28.9128 22.6561 28.3473 22.558C28.226 22.5508 28.1074 22.5188 27.9992 22.464C27.891 22.4091 27.7954 22.3327 27.7186 22.2395C27.6417 22.1463 27.5853 22.0383 27.5527 21.9224C27.5202 21.8065 27.5123 21.6852 27.5295 21.5661C27.5663 20.9718 28.0259 21.0312 28.3916 21.0075C28.5022 20.9928 28.6146 21.0021 28.7211 21.0349C28.8275 21.0676 28.9255 21.123 29.0082 21.1971C29.0908 21.2711 29.1561 21.3621 29.1996 21.4637C29.243 21.5653 29.2635 21.6751 29.2597 21.7853V21.7861Z" fill="white"/>
<path opacity="0.66" d="M27.3297 15.2412C27.5426 15.2666 27.7381 15.3704 27.8772 15.5319C28.0164 15.6934 28.089 15.9007 28.0806 16.1127C28.0881 16.6202 27.7494 16.8847 27.2245 16.8735C27.114 16.8776 27.0038 16.858 26.9017 16.8159C26.7996 16.7739 26.7079 16.7104 26.6329 16.6299C26.558 16.5494 26.5015 16.4537 26.4676 16.3496C26.4336 16.2454 26.4228 16.1352 26.436 16.0265C26.424 15.505 26.7717 15.2657 27.3297 15.2412Z" fill="white"/>
<path opacity="0.66" d="M16.2028 23.9956C16.2779 23.4629 16.5399 23.1598 17.0851 23.1969C17.1975 23.1929 17.3093 23.2132 17.4129 23.2564C17.5165 23.2996 17.6093 23.3646 17.6848 23.447C17.7603 23.5294 17.8167 23.6271 17.8501 23.7332C17.8835 23.8394 17.8931 23.9515 17.8782 24.0617C17.8654 24.5929 17.5733 24.8389 17.0221 24.8352C16.4183 24.83 16.3462 24.3812 16.2028 23.9956Z" fill="white"/>
<path opacity="0.66" d="M27.2088 33.916C27.2114 34.1121 27.1355 34.3014 26.9976 34.4424C26.8598 34.5834 26.6711 34.6646 26.4729 34.6685C25.9645 34.7154 25.6281 34.5066 25.6213 33.9353C25.6153 33.4211 25.9022 33.2539 26.3723 33.2569C26.4716 33.2425 26.5729 33.2485 26.6698 33.2743C26.7667 33.3001 26.8573 33.3453 26.9359 33.407C27.0145 33.4687 27.0796 33.5457 27.1271 33.6333C27.1745 33.7208 27.2034 33.817 27.2118 33.916H27.2088Z" fill="white"/>
<path opacity="0.66" d="M18.6622 6.18526C18.6118 6.74621 18.1786 6.75809 17.7791 6.74843C17.6776 6.75986 17.5748 6.74754 17.4791 6.71247C17.3833 6.6774 17.2972 6.62058 17.2277 6.54655C17.1582 6.47252 17.1073 6.38338 17.079 6.2863C17.0507 6.18922 17.0458 6.08691 17.0649 5.98764C17.1294 5.44082 17.5493 5.27661 18.0411 5.34571C18.1426 5.34856 18.2421 5.37432 18.332 5.42098C18.4219 5.46764 18.4998 5.53396 18.5598 5.61493C18.6199 5.69591 18.6604 5.7894 18.6784 5.88824C18.6964 5.98708 18.6914 6.08865 18.6637 6.18526H18.6622Z" fill="white"/>
<path opacity="0.66" d="M11.8607 9.02625C11.8344 8.49057 12.077 8.24091 12.5486 8.21268C13.0202 8.18444 13.3153 8.37465 13.3348 8.86649C13.3498 8.97541 13.3413 9.08621 13.3098 9.19163C13.2784 9.29705 13.2247 9.39469 13.1523 9.47809C13.08 9.56149 12.9905 9.62877 12.89 9.67549C12.7894 9.72221 12.6799 9.7473 12.5689 9.74913C12.0927 9.78182 11.9561 9.36133 11.8607 9.02625Z" fill="white"/>
<path opacity="0.66" d="M31.4607 31.8021C31.2031 31.8274 30.926 31.6074 30.9148 31.1252C30.905 30.6795 31.104 30.3682 31.6079 30.3622C31.7068 30.3471 31.8078 30.3535 31.9038 30.3809C31.9999 30.4083 32.0888 30.4561 32.1644 30.521C32.2399 30.5858 32.3003 30.666 32.3412 30.7563C32.3822 30.8466 32.4029 30.9446 32.4017 31.0435C32.4332 31.5213 32.1666 31.762 31.4607 31.8021Z" fill="white"/>
<path opacity="0.66" d="M43.4288 21.6374C43.6383 20.8201 42.8821 19.7837 43.9891 19.1633C44.1167 19.3621 44.2034 19.5838 44.2443 19.8158C44.2852 20.0478 44.2795 20.2855 44.2275 20.5153C44.1755 20.7451 44.0781 20.9625 43.9411 21.155C43.804 21.3476 43.63 21.5115 43.4288 21.6374Z" fill="white"/>
<path opacity="0.66" d="M29.2079 33.4338C28.7649 33.3818 28.4397 33.2606 28.5035 32.7896C28.5076 32.7011 28.5308 32.6146 28.5716 32.5357C28.6123 32.4569 28.6696 32.3876 28.7397 32.3326C28.8098 32.2775 28.891 32.238 28.9779 32.2166C29.0647 32.1952 29.1552 32.1925 29.2432 32.2086C29.6405 32.2383 29.9191 32.4078 29.898 32.8602C29.8695 33.3298 29.5091 33.3751 29.2079 33.4338Z" fill="white"/>
<path opacity="0.66" d="M15.7078 7.1623C15.7318 7.70615 15.4074 7.82206 15.0319 7.81017C14.6564 7.79829 14.3403 7.68609 14.3808 7.20316C14.3789 7.11615 14.3957 7.02975 14.43 6.94962C14.4643 6.86949 14.5154 6.79743 14.5799 6.73826C14.6444 6.67908 14.7208 6.63412 14.8042 6.60629C14.8875 6.57847 14.9759 6.56845 15.0635 6.57686C15.4404 6.58504 15.7258 6.7871 15.7078 7.1623Z" fill="white"/>
<path opacity="0.66" d="M16.5189 21.3405C16.4979 21.7305 16.3514 22.0284 15.9054 22.021C15.5194 22.0143 15.3849 21.7379 15.3797 21.4066C15.3692 21.0106 15.5156 20.7297 15.9804 20.746C16.3702 20.7594 16.5054 20.9935 16.5189 21.3405Z" fill="white"/>
<path opacity="0.66" d="M28.411 18.1789C28.5557 18.2114 28.6851 18.291 28.7785 18.405C28.872 18.519 28.924 18.6608 28.9262 18.8075C28.9313 18.8749 28.9229 18.9426 28.9015 19.0068C28.8801 19.071 28.8461 19.1304 28.8015 19.1815C28.7568 19.2327 28.7024 19.2746 28.6413 19.3049C28.5802 19.3352 28.5137 19.3532 28.4456 19.358C28.0153 19.381 27.8058 19.0973 27.7983 18.6849C27.7938 18.4071 27.835 18.1381 28.411 18.1789Z" fill="white"/>
<path opacity="0.66" d="M19.1622 39.1774C19.2937 39.1812 19.4251 39.1833 19.5557 39.1915C19.8156 39.2064 20.1084 39.1915 20.1888 39.5132C20.1992 39.5738 20.1944 39.6361 20.1749 39.6945C20.1554 39.7529 20.1218 39.8057 20.0769 39.8483C19.9511 39.8867 19.8164 39.8859 19.6911 39.846C19.5658 39.8062 19.4558 39.7291 19.3762 39.6254C19.2782 39.4877 19.2074 39.3329 19.1675 39.1692L19.1622 39.1774Z" fill="white"/>
<path d="M155.158 15.2233C155.213 15.0981 155.234 14.9604 155.218 14.8245C155.202 14.6887 155.15 14.5595 155.067 14.4503C154.983 14.3411 154.872 14.2559 154.744 14.2035C154.616 14.151 154.477 14.1333 154.34 14.152C153.849 14.1572 153.047 13.7441 152.958 14.6527C152.815 15.5188 152.889 16.4063 153.174 17.2375C153.661 16.0867 153.661 16.0867 155.291 17.051C155.113 16.7827 155.008 16.4741 154.985 16.1543C154.961 15.8344 155.021 15.514 155.158 15.2233ZM154.585 15.0792C154.539 15.3987 154.299 15.4656 154.016 15.4656C153.716 15.4656 153.521 15.3593 153.542 15.0198C153.569 14.6602 153.825 14.6483 154.097 14.6557C154.369 14.6787 154.64 14.7107 154.586 15.0814L154.585 15.0792Z" fill="white"/>
<path d="M155.158 15.2233C155.213 15.0981 155.234 14.9604 155.218 14.8245C155.202 14.6887 155.15 14.5595 155.067 14.4503C154.983 14.3411 154.872 14.2559 154.744 14.2035C154.616 14.151 154.477 14.1333 154.34 14.152C153.849 14.1572 153.047 13.7441 152.958 14.6527C152.815 15.5188 152.889 16.4063 153.174 17.2375C153.661 16.0867 153.661 16.0867 155.291 17.051C155.113 16.7827 155.008 16.4741 154.985 16.1543C154.961 15.8344 155.021 15.514 155.158 15.2233ZM154.585 15.0792C154.539 15.3987 154.299 15.4656 154.016 15.4656C153.716 15.4656 153.521 15.3593 153.542 15.0198C153.569 14.6602 153.825 14.6483 154.097 14.6557C154.369 14.6787 154.64 14.7107 154.586 15.0814L154.585 15.0792Z" fill="white"/>
</g>
<defs>
<clipPath id="clip0_412_6731">
<rect width="157" height="40" fill="white"/>
</clipPath>
</defs>
</svg>
