<svg width="157" height="40" fill="none" xmlns="http://www.w3.org/2000/svg"><g clip-path="url(#clip0_412_6731)" fill="#fff"><path d="M135.679 26.156c-.781-1.29-1.513-2.608-2.328-3.88-.401-.629-.327-.962.337-1.342 1.837-1.055 2.055-2.814 1.764-4.642a3.85 3.85 0 00-1.07-2.108 3.916 3.916 0 00-2.108-1.1c-2.43-.63-4.891-.288-7.342-.149-.798.045-.876.61-.876 1.228.002 1.993.002 3.986 0 5.98h.029c0 1.993.049 3.989-.019 5.98-.035 1.102.612 1.079 1.379 1.06.768-.018 1.557.117 1.457-1.105-.092-1.146-.013-2.304-.021-3.457 0-.426.014-.722.609-.786 1.947-.215 2.429-.024 3.426 1.62.481.694.908 1.423 1.277 2.182.573 1.388 1.577 1.681 2.97 1.572.998-.08.9-.421.516-1.053zm-4.949-6.675a13.54 13.54 0 01-1.611.07c-2.23-.035-2.23-.043-2.23-2.266 0-2.093 0-2.1 2.102-2.125.629-.024 1.258.004 1.882.081a2.136 2.136 0 011.387.738c.35.413.527.942.495 1.48-.039 1.242-.667 1.886-2.028 2.022h.003zm-63.892 6.813c-.811-1.324-1.57-2.681-2.384-4.007-.35-.567-.479-.927.272-1.338 1.861-1.018 2.093-2.779 1.815-4.62a3.827 3.827 0 00-1.043-2.123 3.898 3.898 0 00-2.1-1.12c-2.43-.635-4.894-.288-7.348-.165-.777.04-.891.554-.886 1.204.022 1.996.008 3.991.008 5.985 0 2.04.03 4.08-.013 6.118-.024 1.066.676.971 1.352.94.66-.028 1.526.265 1.478-.94-.048-1.105.054-2.22-.029-3.322-.068-.917.304-1.03 1.137-1.088 1.467-.101 2.438.324 2.995 1.73.286.732.924 1.337 1.186 2.07.552 1.548 1.691 1.703 3.085 1.572.727-.066.852-.274.475-.896zm-4.991-6.814c-.532.056-1.066.074-1.333.087-2.54-.048-2.54-.048-2.54-2.347 0-2.02 0-2.03 2.007-2.057.668-.03 1.337-.005 2.001.075.54.056 1.036.32 1.382.734.347.414.516.945.47 1.48-.02 1.23-.656 1.885-1.987 2.03v-.002zm33.009-1.279c0 1.376.04 2.75-.01 4.128a4.713 4.713 0 01-1.053 3.02 4.804 4.804 0 01-2.75 1.675 9.202 9.202 0 01-4.268.084 4.827 4.827 0 01-2.925-1.662 4.732 4.732 0 01-1.104-3.154c-.067-2.795.017-5.594-.05-8.389-.027-1.09.564-1.114 1.35-1.072.752.04 1.52-.13 1.49 1.101-.067 2.617-.09 5.241.04 7.854.129 2.613 1.723 3.665 4.295 3.069a2.533 2.533 0 001.482-.851 2.484 2.484 0 00.592-1.59 78.79 78.79 0 00.097-8.119c-.004-1.03.17-1.485 1.378-1.497 1.242-.008 1.541.417 1.463 1.542-.088 1.281-.02 2.573-.02 3.864l-.007-.003zm15.877 1.839c0-1.375-.052-2.748.011-4.124.101-2.177.977-3.067 3.163-3.125 1.882-.05 3.763.047 5.645.074.919.015 1.194.482 1.159 1.362-.036.937-.601.926-1.271.92-1.525-.01-3.051.05-4.574-.008-1.002-.039-1.384.4-1.375 1.318.024.4.021.799-.006 1.197-.101.84.277 1.061 1.08 1.035 1.613-.053 3.229.026 4.842-.033.877-.033 1.051.337 1.036 1.102-.012.716-.075 1.18-.994 1.149-1.658-.054-3.319.015-4.978-.029-.775-.02-.992.27-.991 1.008.006 3.685.021 2.908 2.92 2.983 1.031.027 2.063.01 3.095.006.605 0 1.186-.04 1.193.843.005.71.036 1.313-.941 1.395-2.232.224-4.48.236-6.714.037-1.397-.148-2.222-1.246-2.286-2.853-.055-1.417-.011-2.84-.011-4.259l-.003.003zm-40.931-.025c0-1.507-.075-3.019.019-4.52.103-1.715 1.004-2.558 2.73-2.693a46.25 46.25 0 015.912.057c.803.04 1.305.275 1.283 1.27-.025 1.125-.71 1.025-1.442 1.022-1.48-.006-2.96.04-4.439-.012-.992-.036-1.41.364-1.357 1.322a6.34 6.34 0 01-.005 1.197c-.116.85.269 1.059 1.069 1.033 1.612-.053 3.229.013 4.841-.034.853-.025 1.067.347 1.072 1.114.005.75-.144 1.162-1.027 1.133-1.612-.05-3.229.015-4.841-.029-.78-.02-1.127.185-1.127 1.032 0 3.578.061 2.903 2.829 2.96 1.164.025 2.327.024 3.496.005.622-.01.925.243.894.863-.026.548.18 1.207-.709 1.314a26.185 26.185 0 01-7.23.02c-1.316-.208-1.906-1.277-1.952-2.537-.061-1.5-.016-3.008-.016-4.517zm74.366-7.294a20.27 20.27 0 013.068.35 1.388 1.388 0 011.344 1.304c.014.227-.03.455-.127.662-.158.611-.592.43-.953.405-1.201-.074-2.403-.211-3.611-.274a6.536 6.536 0 00-1.602.116c-.293.03-.571.145-.798.332a1.465 1.465 0 00-.473.717c-.154.669.339 1.093.834 1.383a35.415 35.415 0 004.318 1.799c2.28.971 3.089 2.492 2.546 4.738a4.041 4.041 0 01-1.386 2.065 4.107 4.107 0 01-2.343.876 20.742 20.742 0 01-5.482-.262c-1.109-.18-1.023-.935-.976-1.693.058-.956.728-.63 1.289-.595 1.384.091 2.769.176 4.155.203a1.64 1.64 0 001.164-.223c.346-.216.596-.554.702-.945.279-.992-.301-1.464-1.029-1.91a20.101 20.101 0 00-3.584-1.463c-2.429-.914-3.365-2.266-3.027-4.481.246-1.596 1.917-2.833 4.095-3.015.623-.045 1.247-.06 1.876-.089zm-42.854 8.371c0-1.686-.027-3.373.014-5.059.015-.64-.188-.865-.833-.825-.759.046-1.53-.05-2.286.026-.99.099-1.321-.237-1.343-1.245-.022-1.035.45-1.164 1.293-1.157 3.14.027 6.281.051 9.42-.006 1.023-.018 1.012.512 1.045 1.24.036.823-.151 1.203-1.098 1.177-1.058-.029-2.466-.492-3.099.197-.67.729-.19 2.116-.204 3.213-.029 2.44-.052 4.882.02 7.321.031 1.085-.47 1.263-1.385 1.214-.826-.04-1.634.133-1.555-1.174.098-1.634.024-3.282.024-4.924l-.013.002z"/><path opacity=".66" d="M42.31 15.414a2.377 2.377 0 01-2.62-.01c-.783-.511-.71-1.296-.63-2.013a1.642 1.642 0 01.655-1.185 1.681 1.681 0 011.33-.308 1.752 1.752 0 011.341.477 1.714 1.714 0 01.527 1.311 2.62 2.62 0 01-.324 1.525.227.227 0 00-.252.11.221.221 0 00-.028.092zm.549 11.754a6.633 6.633 0 01-.71.607 1.916 1.916 0 01-2.464-.074 1.95 1.95 0 01-.505-2.462c.218-.404.573-.72 1.002-.893a2.01 2.01 0 011.348-.055c.428.07.811.302 1.068.647.257.345.367.776.307 1.2-.017.265 0 .531 0 .796a.216.216 0 00-.046.234zM4.126 8.34c1.223-1.251 2.236-1.46 3.01-.619A1.651 1.651 0 017.62 8.97a1.64 1.64 0 01-.607 1.193 1.597 1.597 0 01-1.255.472 1.607 1.607 0 01-1.175-.644c-.172-.198-.325-.41-.487-.617l.03-1.033zm.514 21.518c.94-.544 1.872-.67 2.644.243a1.597 1.597 0 01-.034 2.087c-.702.977-1.89.768-3.124-.504a2.541 2.541 0 01.513-1.826z"/><path d="M155.158 15.223a.769.769 0 00-.818-1.071c-.491.005-1.293-.408-1.382.5a5.303 5.303 0 00.216 2.586c.487-1.151.487-1.151 2.117-.187a1.863 1.863 0 01-.133-1.828zm-.573-.144c-.046.32-.286.387-.569.387-.3 0-.495-.107-.474-.446.027-.36.283-.372.555-.364.272.023.543.055.489.425l-.001-.002z"/><path d="M154.029 12.748a2.912 2.912 0 00-2.147.768 2.849 2.849 0 00-.908 2.072 2.926 2.926 0 00.846 2.104 2.968 2.968 0 002.106.884 3.03 3.03 0 002.139-.82 2.962 2.962 0 00.935-2.071 2.88 2.88 0 00-.86-2.087 2.946 2.946 0 00-2.111-.85zm-.095 5.388a2.526 2.526 0 01-1.757-.713 2.474 2.474 0 01-.75-1.725 2.532 2.532 0 01.719-1.808 2.59 2.59 0 011.797-.783 2.524 2.524 0 011.825.728 2.466 2.466 0 01.728 1.809 2.408 2.408 0 01-.73 1.798 2.476 2.476 0 01-1.828.694h-.004z"/><path opacity=".66" d="M34.733 3.532c1.405.782 1.783 1.783.917 2.56-.665.594-1.463.802-2.111-.015A1.351 1.351 0 0133.106 5a1.34 1.34 0 01.568-1.013c.204-.166.436-.302.654-.452l.405-.003zm-23.911.505c.432.802.573 1.556-.271 2.22a1.327 1.327 0 01-1.807-.043c-.71-.532-.46-1.24-.375-1.919a1.609 1.609 0 011.166-.692 1.632 1.632 0 011.287.434zm1.889 33.019a1.37 1.37 0 011.395-.81c.247.012.482.105.669.265.186.16.313.378.359.618a1.18 1.18 0 01-.465 1.283 1.014 1.014 0 01-1.242.02 6.292 6.292 0 01-.686-.62l-.03-.756zm.056-35.073c.294-.198.604-.37.928-.515a1.042 1.042 0 011.272.47 1.144 1.144 0 01.082 1.255 1.118 1.118 0 01-1.254.546 4.549 4.549 0 01-1.052-.55l.024-1.206zM19.206.834c.019.636.032 1.285-.734 1.538-.712.234-1.051-.302-1.427-.743.42-1.512.884-1.681 2.16-.795zm24.225 20.804c-1.201.956-2.467.871-3.372-.223a2.267 2.267 0 01.386-3.187c.958-.794 2.201-.627 3.146.426.144.162.267.341.401.512-.326.792-.1 1.707-.56 2.472zM.85 18.365a2.216 2.216 0 013.038-.113c.403.294.689.72.807 1.201.12.482.063.99-.16 1.435a2.164 2.164 0 01-1.163 1.221 2.21 2.21 0 01-1.696.034C.212 21.137-.007 19.866.85 18.365zm2.435 5.883a1.94 1.94 0 011.467.508 1.9 1.9 0 01.607 1.416 2.081 2.081 0 01-.632 1.422c-.388.376-.906.59-1.45.599A1.929 1.929 0 011.9 27.61a1.887 1.887 0 01-.529-1.387c-.02-1.374.567-1.975 1.914-1.975zm.102-12.298a1.7 1.7 0 011.41.484 1.663 1.663 0 01.468 1.402 1.81 1.81 0 01-.555 1.436 1.85 1.85 0 01-1.467.51 1.74 1.74 0 01-1.4-.516 1.7 1.7 0 01-.464-1.405c-.007-1.285.661-1.92 2.008-1.911zm33.773.784a1.83 1.83 0 01-.504 1.37 1.87 1.87 0 01-1.35.584 1.736 1.736 0 01-1.23-.58 1.698 1.698 0 01-.418-1.284 1.555 1.555 0 01.491-1.252 1.589 1.589 0 011.29-.418 1.69 1.69 0 011.186.443c.321.295.513.703.535 1.137zM10.624 27.06c.024 1.029-.849 2.03-1.807 1.873a1.846 1.846 0 01-1.17-.55 1.809 1.809 0 01-.515-1.176 1.828 1.828 0 01.475-1.259 1.87 1.87 0 011.214-.603 1.744 1.744 0 011.272.475 1.707 1.707 0 01.53 1.24h.002zm27.505 5.728a1.57 1.57 0 01-1.078-.56 1.536 1.536 0 01-.342-1.155 1.591 1.591 0 01.525-1.239 1.627 1.627 0 011.293-.41 1.708 1.708 0 011.18.559 1.673 1.673 0 01.424 1.223c-.06.47-.302.898-.676 1.194-.374.295-.85.434-1.326.388zm.382-25.564a1.76 1.76 0 011.136.532c.299.31.471.718.484 1.146a1.744 1.744 0 01-.553 1.225c-.341.32-.797.491-1.266.479a1.6 1.6 0 01-1.189-.52 1.564 1.564 0 01-.396-1.224 1.636 1.636 0 01.535-1.199 1.672 1.672 0 011.25-.435v-.004zM14.36 29.089a1.574 1.574 0 01-1.07-.424 1.54 1.54 0 01-.485-1.033 1.673 1.673 0 01.48-1.25 1.711 1.711 0 011.247-.513 1.639 1.639 0 011.195.482 1.605 1.605 0 01.464 1.192 1.65 1.65 0 01-.588 1.157 1.686 1.686 0 01-1.248.389h.004zM30.846 9.483c.082-1.506.665-2.018 1.652-2.038.466.03.901.238 1.213.581.312.344.476.795.456 1.256a1.63 1.63 0 01-.617 1.07 1.665 1.665 0 01-1.197.342 1.53 1.53 0 01-.975-.336 1.5 1.5 0 01-.532-.875zm-1.139 1.474a1.615 1.615 0 011.189.496 1.579 1.579 0 01.432 1.203 1.443 1.443 0 01-.466 1.135 1.473 1.473 0 01-1.177.381 1.542 1.542 0 01-1.16-.42 1.51 1.51 0 01-.466-1.134 1.574 1.574 0 01.457-1.187 1.607 1.607 0 011.191-.474zM13.455 30.853c-.075 1.114-.64 1.709-1.692 1.72a1.522 1.522 0 01-1.165-.434 1.492 1.492 0 01-.438-1.153 1.532 1.532 0 01.416-1.16 1.564 1.564 0 011.138-.493 1.63 1.63 0 011.197.395 1.598 1.598 0 01.544 1.125zM26.334 8.779c.834-.097 1.22.635 1.268 1.363a1.301 1.301 0 01-.358 1.104 1.33 1.33 0 01-1.103.393 1.433 1.433 0 01-1.105-.385 1.405 1.405 0 01-.435-1.077c-.046-.99.637-1.36 1.733-1.398zm-8.118 22.478a1.447 1.447 0 01-1.189-.387 1.413 1.413 0 01-.427-1.163 1.383 1.383 0 01.495-1.04 1.416 1.416 0 011.117-.32 1.36 1.36 0 011.022.396 1.33 1.33 0 01.385 1.017c-.026.829-.385 1.548-1.403 1.497zm14.949 3.794c-.027-1.052.539-1.61 1.443-1.599a1.376 1.376 0 011.038.407 1.348 1.348 0 01.384 1.038 1.355 1.355 0 01-.39 1.1 1.384 1.384 0 01-1.105.403 1.233 1.233 0 01-1.02-.342 1.207 1.207 0 01-.35-1.007zm-22.02-.003a1.365 1.365 0 01-.41.988 1.396 1.396 0 01-1.001.402c-.901.03-1.431-.526-1.419-1.53a1.305 1.305 0 01.33-1.042 1.332 1.332 0 011.012-.438 1.473 1.473 0 011.12.472 1.44 1.44 0 01.368 1.148zm19.593-19.106a1.21 1.21 0 01.442-.88 1.237 1.237 0 01.954-.271 1.273 1.273 0 01.973.374 1.248 1.248 0 01.355.972 1.266 1.266 0 01-.368 1.03 1.294 1.294 0 01-1.04.372c-.982-.003-1.271-.642-1.317-1.597zM15.257 31.978a1.264 1.264 0 011.043.297 1.239 1.239 0 01.417.992 1.279 1.279 0 01-.364 1.036 1.307 1.307 0 01-1.04.385 1.35 1.35 0 01-.98-.374 1.324 1.324 0 01-.404-.96c-.081-.942.614-1.263 1.328-1.376zm23.259-14.601c-.164.764-.57 1.326-1.404 1.33a1.342 1.342 0 01-1.054-.344 1.316 1.316 0 01-.422-1.016c-.023-.94.663-1.316 1.48-1.341.871-.027 1.163.664 1.4 1.371zm-25.001 6.611c-.157.723-.55 1.395-1.473 1.27a1.355 1.355 0 01-.992-.508 1.323 1.323 0 01-.26-1.075 1.225 1.225 0 01.472-.927 1.255 1.255 0 011.02-.244 1.247 1.247 0 01.98.446 1.217 1.217 0 01.253 1.038zM28.703 5.216c1 .133 1.513.64 1.501 1.506a1.336 1.336 0 01-.446.932 1.367 1.367 0 01-.983.347 1.375 1.375 0 01-.943-.442 1.347 1.347 0 01-.35-.972 1.36 1.36 0 01.345-.917c.225-.253.537-.415.875-.454zM8.61 22.582c-.093.974-.544 1.527-1.377 1.447-.777-.074-1.506-.478-1.418-1.418a1.361 1.361 0 01.498-.983 1.394 1.394 0 011.067-.306 1.198 1.198 0 01.902.358 1.172 1.172 0 01.329.905v-.003zm14.861 7.807c.003.342-.127.671-.365.92a1.34 1.34 0 01-.908.41 1.225 1.225 0 01-1.004-.276 1.202 1.202 0 01-.416-.946 1.25 1.25 0 01.327-.984 1.276 1.276 0 01.961-.41c.886-.077 1.204.584 1.405 1.286zM23.509 9.6a1.24 1.24 0 01-.378.962 1.27 1.27 0 01-.978.356 1.328 1.328 0 01-.72-.237 1.29 1.29 0 01-.165-1.997 1.323 1.323 0 011.426-.275c.239.098.443.263.588.475.145.211.224.46.227.716zm-2.822 2.887c.766.032 1.277.33 1.277 1.176a1.133 1.133 0 01-.324.97 1.16 1.16 0 01-.979.328 1.147 1.147 0 01-.908-.347 1.12 1.12 0 01-.302-.916 1.07 1.07 0 01.314-.909 1.095 1.095 0 01.922-.302zm2.229 15.039a1.318 1.318 0 01-.607-.845 1.296 1.296 0 01.203-1.017c.46-.781 1.302-.509 2.033-.302a1.825 1.825 0 01-.024 2.05 1.458 1.458 0 01-1.605.114zm2.685-3.254l.088-.446c.235-.127.481-.231.736-.312a1.206 1.206 0 011.419.486c.096.152.155.323.174.502a1.061 1.061 0 01-.192.95 1.082 1.082 0 01-.888.408c-.872.089-1.386-.242-1.315-1.192a3.047 3.047 0 00-.022-.396zm-6.889-8.826c.101.862-.49 1.088-1.147 1.146a1.073 1.073 0 01-.896-.218 1.054 1.054 0 01-.387-.827 1.214 1.214 0 01.295-.935 1.24 1.24 0 01.892-.424c.798-.038 1.176.505 1.243 1.258zm11.532 23.19c-.532-.248-1.155-.41-1.117-1.227a1.057 1.057 0 01.342-.9 1.082 1.082 0 01.934-.262 1.073 1.073 0 01.849.337 1.05 1.05 0 01.27.864 1.32 1.32 0 01-.415.83 1.35 1.35 0 01-.863.358zM19.37 33.328c.86-.02 1.075.613 1.092 1.225a1.02 1.02 0 01-.318.841 1.041 1.041 0 01-.865.274c-.669-.04-1.21-.372-1.186-1.153a1.116 1.116 0 01.357-.89 1.14 1.14 0 01.92-.297zM31.535 2.65a1.153 1.153 0 01-.393.835 1.178 1.178 0 01-.883.29 1.079 1.079 0 01-.853-.337 1.054 1.054 0 01-.274-.867 1.104 1.104 0 01.36-.833 1.13 1.13 0 01.867-.293c.725.008 1.067.546 1.176 1.205zm-7.462 1.945c.752-.24 1.51-.405 1.998.425a1.119 1.119 0 01-.143 1.237c-.417.625-1 .426-1.56.377-.993-.553-.786-1.277-.294-2.039zm1.567 9.365c.053.737-.434 1.1-1.113 1.155-.777.064-1.084-.464-1.13-1.16a.966.966 0 01.248-.798.986.986 0 01.782-.316 1.047 1.047 0 01.889.26 1.026 1.026 0 01.324.859zm12.632 7.58c-.101.558-.26 1.102-1.023 1.142a1.084 1.084 0 01-.89-.217 1.066 1.066 0 01-.395-.818 1.02 1.02 0 01.283-.861 1.044 1.044 0 01.862-.308c.72-.024 1.052.376 1.163 1.061zM7.03 19.513c-.75.066-1.025-.425-.995-1.052a1.037 1.037 0 01.313-.843 1.06 1.06 0 01.859-.293c.826.015 1.093.546 1.108 1.196.015.788-.54 1.031-1.285.992zm13.977 6.681c-.131.626-.483 1.115-1.228 1.063a1.071 1.071 0 01-.794-.297 1.048 1.048 0 01-.32-.778 1.062 1.062 0 01.347-.836 1.083 1.083 0 01.872-.274 1.13 1.13 0 01.801.327 1.106 1.106 0 01.325.794l-.003.001zm12.724-5.927a1.015 1.015 0 01-.369.762 1.039 1.039 0 01-.821.228c-.575-.055-1.016-.337-.976-1.025a1 1 0 01.35-.837 1.027 1.027 0 01.886-.224c.67.044.898.495.93 1.096zm-22.106.596c-.636-.034-1.079-.25-1.095-1.004a.956.956 0 01.262-.794.978.978 0 01.79-.296 1.022 1.022 0 01.8.26 1 1 0 01.326.769c.043.782-.458.955-1.083 1.065zM26.04.295c.666.074 1.095.429 1.098 1.079a.978.978 0 01-.292.71 1 1 0 01-.717.29.824.824 0 01-.756-.165.806.806 0 01-.275-.716 1.039 1.039 0 01.212-.798 1.058 1.058 0 01.73-.4zM37.025 25.64c.035.613-.436.932-1.082.906-.51-.02-1.127-.112-1.127-.856a.974.974 0 01.255-.8.996.996 0 01.784-.315c.616-.01 1.166.14 1.17 1.066zM19.168 39.17c-.445.251-.827.777-1.427.423a.897.897 0 01-.506-.876c.058-.571.243-1.103.928-1.08 1.017.036 1.019.801 1 1.54l.005-.007zm7.277.542c-.425-.06-.931.04-1.19-.41a1.059 1.059 0 01.115-1.325.82.82 0 01.536-.357.836.836 0 01.631.134.992.992 0 01.472.534.979.979 0 01-.011.709 3.264 3.264 0 01-.557.717l.004-.002zM18.08 11.51a1 1 0 01-.69-.324.982.982 0 01-.254-.712c.02-.668.554-.915 1.121-.891a.884.884 0 01.67.274.864.864 0 01.232.68.921.921 0 01-.307.74.944.944 0 01-.776.232h.004zM7.851 15.515c-1.032-.377-.722-1.263-.344-1.69a1.01 1.01 0 01.964-.36 1.016 1.016 0 01.781.665c.246 1.168-.397 1.456-1.4 1.385zM26.176 30.44c-.63-.088-1.126-.275-1.075-.966a.943.943 0 01.28-.648.963.963 0 01.655-.277c.636-.033.967.4 1.002.99.036.59-.355.848-.862.901zM13.474 16.095a.92.92 0 01-.3.64.94.94 0 01-.667.245.83.83 0 01-.667-.253.812.812 0 01-.215-.674.851.851 0 01.268-.657.87.87 0 01.675-.234c.624-.018.833.388.906.933zM21.21 4.532a.828.828 0 01.668.245.81.81 0 01.222.67.778.778 0 01-.238.663.798.798 0 01-.679.209.946.946 0 01-.658-.282.926.926 0 01-.266-.658c.004-.584.395-.83.951-.847zM31.705 23.13c.587.022.944.335.915.907-.028.572-.419.832-1.01.81a.784.784 0 01-.796-.498.763.763 0 01-.047-.327.81.81 0 01.25-.672.828.828 0 01.688-.22zM14.719 11.89c.628.037 1.023.283.976.899a.823.823 0 01-.234.607.839.839 0 01-.604.255.86.86 0 01-.696-.19.844.844 0 01-.298-.65c-.057-.61.368-.848.856-.92zm19.279 15.952c.505.045.956.243.914.848a.86.86 0 01-.248.66.878.878 0 01-.663.26.806.806 0 01-.607-.218.788.788 0 01-.244-.59c-.053-.59.252-.884.848-.96zM10.267 12.194c-.555-.074-.909-.308-.862-.937.038-.512.225-.84.798-.85a.813.813 0 01.68.204.797.797 0 01.252.66c.04.64-.329.847-.868.923zm13.775 22.305c-.041.663-.336.962-.939.98a.834.834 0 01-.687-.208.816.816 0 01-.261-.662.755.755 0 01.224-.61.772.772 0 01.618-.218.918.918 0 01.67.148.9.9 0 01.375.57zM22.093 0c.676.11.941.446.885 1.034a.76.76 0 01-.252.601.78.78 0 01-.628.195.87.87 0 01-.637-.334.85.85 0 01-.159-.696c.039-.582.413-.719.791-.8zm8.2 27.184c-.075.647-.363 1.008-.956.957a.752.752 0 01-.602-.243.735.735 0 01-.179-.62c.05-.57.311-.901.924-.886.577.014.704.43.813.792z"/><path opacity=".66" d="M.848 18.366c-.036.545.2 1.133-.226 1.618-.31.353-.036.562.184.75.402.393.7.877.868 1.41-1.85-.625-2.23-2.365-.826-3.778zM22.979 39.11a.77.77 0 01-.23.67.79.79 0 01-.684.209c-.521-.014-.772-.371-.751-.897a.853.853 0 01.207-.614.871.871 0 01.582-.297.827.827 0 01.666.254.807.807 0 01.212.675h-.002zm-7.113-21.517c.587.094.901.386.869.897a.756.756 0 01-.282.583.774.774 0 01-.632.16.733.733 0 01-.535-.236.717.717 0 01-.184-.55c-.01-.538.36-.752.764-.854zm13.394 4.193c-.198.39-.347.87-.913.772a.887.887 0 01-.628-.319.867.867 0 01-.19-.673c.037-.594.497-.535.863-.558a.773.773 0 01.808.456.753.753 0 01.06.321v.001zm-1.93-6.545c.213.026.408.13.547.29a.84.84 0 01.204.582c.007.507-.332.772-.857.76a.772.772 0 01-.591-.243.755.755 0 01-.197-.604c-.012-.521.336-.76.894-.785zm-11.127 8.755c.075-.533.337-.836.882-.8a.78.78 0 01.6.251.763.763 0 01.193.615c-.013.53-.305.777-.856.773-.604-.005-.676-.454-.82-.84zm11.006 9.92a.739.739 0 01-.211.526.754.754 0 01-.525.227c-.508.046-.845-.162-.852-.734-.006-.514.281-.681.751-.678a.743.743 0 01.755.376.722.722 0 01.085.283h-.003zM18.662 6.185c-.05.561-.483.573-.883.563a.658.658 0 01-.551-.201.643.643 0 01-.163-.56c.064-.546.484-.71.976-.641a.673.673 0 01.519.269.656.656 0 01.104.57h-.002zM11.86 9.026c-.026-.535.217-.785.689-.813.471-.029.766.162.786.653a.769.769 0 01-.183.612.785.785 0 01-.583.271c-.476.033-.613-.388-.708-.723zm19.6 22.776c-.257.025-.534-.195-.545-.677-.01-.445.189-.757.693-.763a.696.696 0 01.733.394c.041.09.062.189.06.288.032.477-.234.718-.94.758zm11.969-10.165c.21-.817-.547-1.853.56-2.474a1.78 1.78 0 01-.56 2.474zM29.208 33.434c-.443-.052-.768-.173-.704-.644a.614.614 0 01.236-.457.628.628 0 01.503-.124c.398.03.676.199.655.651-.029.47-.389.515-.69.574zm-13.5-26.272c.024.544-.3.66-.676.648-.376-.012-.692-.124-.651-.607a.61.61 0 01.199-.465.624.624 0 01.483-.161c.377.008.663.21.645.585zm.811 14.178c-.021.39-.168.688-.614.681-.386-.007-.52-.283-.525-.614-.01-.396.136-.677.6-.661.39.013.525.248.539.595zm11.892-3.161a.663.663 0 01.367.226.65.65 0 01.148.402.509.509 0 01-.285.498.523.523 0 01-.195.053c-.43.023-.64-.26-.648-.673-.004-.278.037-.547.613-.506zm-9.249 20.998c.132.004.263.006.394.014.26.015.552 0 .633.322a.373.373 0 01-.112.335.648.648 0 01-.7-.223 1.33 1.33 0 01-.21-.456l-.005.008z"/><path d="M155.158 15.223a.769.769 0 00-.818-1.071c-.491.005-1.293-.408-1.382.5a5.303 5.303 0 00.216 2.586c.487-1.151.487-1.151 2.117-.187a1.863 1.863 0 01-.133-1.828zm-.573-.144c-.046.32-.286.387-.569.387-.3 0-.495-.107-.474-.446.027-.36.283-.372.555-.364.272.023.543.055.489.425l-.001-.002z"/><path d="M155.158 15.223a.769.769 0 00-.818-1.071c-.491.005-1.293-.408-1.382.5a5.303 5.303 0 00.216 2.586c.487-1.151.487-1.151 2.117-.187a1.863 1.863 0 01-.133-1.828zm-.573-.144c-.046.32-.286.387-.569.387-.3 0-.495-.107-.474-.446.027-.36.283-.372.555-.364.272.023.543.055.489.425l-.001-.002z"/></g><defs><clipPath id="clip0_412_6731"><path fill="#fff" d="M0 0h157v40H0z"/></clipPath></defs></svg>