<svg width="120" height="81" viewBox="0 0 120 81" fill="none" xmlns="http://www.w3.org/2000/svg">
<g clip-path="url(#clip0_412_7845)">
<path opacity="0.664" d="M2.01807 60.1647V53.8379L113.122 60.0263V60.1647H2.01807Z" fill="white"/>
<path opacity="0.664" d="M2.23193 52.8851L3.31422 46.6875C40.4291 48.7599 77.4791 50.8263 114.464 52.8865L2.23193 52.8851Z" fill="white"/>
<path opacity="0.664" d="M113.006 45.8209H3.31396C3.88251 43.8593 4.33994 42.0338 4.98231 40.276C5.1079 39.9322 5.95958 39.6569 6.46266 39.679C11.798 39.9148 17.1303 40.2045 22.4625 40.5042C28.4517 40.8404 34.44 41.204 40.4246 41.5516C48.1467 41.9999 55.8696 42.4451 63.5933 42.8872C70.8415 43.299 78.0903 43.7047 85.3395 44.1043C91.6866 44.4592 98.0337 44.8114 104.381 45.1607C107.248 45.3129 110.119 45.4368 112.986 45.573L113.006 45.8209Z" fill="white"/>
<path opacity="0.664" d="M112.251 38.4913H5.54395L8.03504 32.5234L112.252 38.3437L112.251 38.4913Z" fill="white"/>
<path opacity="0.664" d="M112.054 31.4013H8.62744C9.95176 29.2838 11.0538 27.4659 12.2335 25.7005C12.3803 25.565 12.5541 25.462 12.7435 25.3983C12.9329 25.3346 13.1337 25.3116 13.3326 25.3308C21.4147 25.8541 29.4946 26.4208 37.5775 26.9486C40.8715 27.1631 44.1732 27.2856 47.468 27.4902C54.6483 27.9374 61.8262 28.4318 69.0072 28.8684C75.657 29.2723 82.3067 29.6245 88.9595 30.0033C95.4289 30.3714 101.898 30.7251 108.361 31.1321C109.591 31.2081 110.809 31.507 112.031 31.6987L112.054 31.4013Z" fill="white"/>
<path opacity="0.664" d="M13.1597 24.1891C14.8105 22.2388 16.1089 20.1205 17.9622 18.7514C18.9714 18.0052 20.9306 18.4122 22.4444 18.5019C27.7721 18.8168 33.0937 19.207 38.4153 19.5904C44.6899 20.043 50.9606 20.551 57.2382 20.9739C63.4031 21.3885 69.5718 21.6973 75.733 22.1027C81.837 22.5043 87.9357 22.9767 94.0375 23.4011C96.7828 23.592 99.5311 23.7426 102.276 24.1899L13.1597 24.1891Z" fill="white"/>
<path opacity="0.664" d="M100.182 17.0476H20.0599L19.8384 16.6331C21.4473 15.21 23.0632 13.7983 24.6577 12.3622C26.5917 10.6196 28.824 11.759 30.8637 11.8503C36.6078 12.1067 42.3396 12.6604 48.0745 13.1076C55.0653 13.653 62.0545 14.2189 69.0421 14.7589C74.0654 15.1468 79.0887 15.5089 84.112 15.8778C89.8591 16.2992 95.597 16.7145 100.182 17.0476Z" fill="white"/>
<path d="M15.9307 80.6219V63.5703C20.2393 63.7726 24.4626 63.8746 28.6639 64.2229C29.404 64.2525 30.1065 64.5566 30.6343 65.076C31.162 65.5955 31.4772 66.2928 31.518 67.0319C31.6573 68.7912 30.5164 69.7892 29.0825 70.4616C28.1238 70.8437 27.1457 71.1752 26.1523 71.4549C27.2543 71.731 28.0291 71.887 28.7758 72.1182C30.8992 72.7754 32.1855 74.1521 32.1406 75.8453C32.1284 76.7291 31.8151 77.5824 31.2524 78.2643C30.6896 78.9463 29.9111 79.4163 29.0452 79.5966C27.3321 80.1197 25.5662 80.4513 23.7799 80.5854C21.2264 80.7436 18.6501 80.6219 15.9307 80.6219ZM21.03 75.9099L20.7568 75.9738C21.0247 77.0538 21.0392 78.8474 21.6199 79.055C22.6268 79.4156 23.9862 78.7941 25.1971 78.5811C25.2549 78.5659 25.3093 78.5402 25.3577 78.5051C25.9767 78.084 26.4383 77.4695 26.6702 76.758C26.9022 76.0464 26.8913 75.2782 26.6393 74.5735C26.0792 73.0895 23.9047 71.9873 21.9708 72.3844C20.2255 72.7464 21.3474 74.2502 21.0392 75.1987C21.001 75.4345 20.9982 75.6747 21.0308 75.9114L21.03 75.9099ZM21.0521 71.2344C22.2398 71.1043 23.4167 70.8895 24.5737 70.5916C24.9498 70.4466 25.2928 70.2274 25.5821 69.9468C25.8715 69.6663 26.1012 69.3302 26.2575 68.9589C26.4139 68.5876 26.4936 68.1885 26.492 67.7857C26.4904 67.3828 26.4074 66.9845 26.2481 66.6144C25.7009 65.4887 22.4738 64.4086 21.4913 65.0543C21.3759 65.1361 21.2788 65.241 21.2061 65.3622C21.1334 65.4834 21.0867 65.6185 21.0689 65.7587C21.0331 67.4701 21.0506 69.1814 21.0506 71.2351L21.0521 71.2344Z" fill="white"/>
<path d="M78.8289 63.7795C79.8235 63.6043 80.8451 63.6603 81.8146 63.9433C82.784 64.2262 83.6752 64.7284 84.4191 65.411C88.418 68.7304 92.5706 71.8633 96.9234 75.2762V63.9248H99.4129V80.5184C98.6745 80.726 97.8948 80.7388 97.15 80.5555C96.4051 80.3722 95.7205 79.999 95.1629 79.4726C91.1557 76.224 87.0708 73.0727 83.0126 69.8888C82.5925 69.5594 82.1511 69.2583 81.4357 68.738V80.4652H78.8281L78.8289 63.7795Z" fill="white"/>
<path opacity="0.664" d="M90.6779 9.78404H28.8909L28.7798 9.33832C32.3509 7.64822 35.1616 4.55174 39.8919 5.15491C48.1422 6.21141 56.4565 6.77659 64.748 7.5007C71.4944 8.09018 78.2469 8.5975 84.9933 9.1672C86.9463 9.33378 88.8916 9.5878 90.6779 9.78404Z" fill="white"/>
<path d="M77.7363 80.6616C75.867 80.6616 74.363 80.7476 72.8789 80.6145C72.5848 80.5715 72.3051 80.4594 72.0628 80.2875C71.8204 80.1157 71.6222 79.8888 71.4845 79.6256C70.5765 75.8925 68.189 74.7577 64.6201 75.4377C64.0841 75.5156 63.5396 75.5156 63.0036 75.4377C61.916 75.3236 61.148 75.6111 60.8184 76.7695C60.6089 77.3305 60.3557 77.8743 60.0611 78.3957C58.9355 80.8077 58.9355 80.8076 55.9512 80.3421C58.7749 75.4247 61.5833 70.5606 64.3606 65.6797C65.07 64.4345 65.5578 62.9285 67.4812 63.5157C67.9212 63.616 68.3139 63.8631 68.5946 64.2163C71.6154 69.5847 74.5891 74.979 77.7363 80.6616ZM62.4677 73.8016H68.5626L65.5944 68.2239L62.4677 73.8016Z" fill="white"/>
<path d="M13.4002 64.4437L12.5295 66.3034C10.6526 65.6805 9.01243 64.9008 7.29309 64.6422C6.96659 64.5624 6.62725 64.5497 6.29568 64.6048C5.96411 64.6598 5.64717 64.7816 5.36405 64.9626C5.08092 65.1436 4.83753 65.3802 4.64856 65.658C4.45959 65.9358 4.32898 66.249 4.26467 66.5787C3.93663 68.2665 5.18556 68.8963 6.45432 69.4113C8.17593 70.108 9.94401 70.7043 11.6359 71.4649C13.3104 72.2255 14.5593 73.4609 14.5776 75.4309C14.5755 76.2818 14.3273 77.1139 13.8627 77.827C13.3982 78.5401 12.7372 79.1037 11.9594 79.45C8.11964 81.4915 4.16725 81.3294 0.000976562 80.025L1.10152 76.5087C2.49586 78.5958 4.12994 79.7793 6.41553 79.5633C7.24682 79.5018 8.06162 79.2996 8.82519 78.9655C10.7021 78.0877 10.8802 76.0659 9.09918 75.0421C7.66608 74.2938 6.16792 73.6772 4.62315 73.1999C1.49045 72.1 -0.00513456 70.5484 0.073259 68.3464C0.157741 65.9641 1.90445 64.2322 5.09652 63.4982C7.8865 62.7894 10.8395 63.1246 13.3994 64.4406L13.4002 64.4437Z" fill="white"/>
<path d="M120 64.0302C118.526 65.9135 117.204 67.8181 115.657 69.5204C113.602 71.7817 112.572 74.2674 113.016 77.3479C113.1 78.4307 113.108 79.518 113.04 80.6019H108.017C108.017 79.0046 107.916 77.4544 108.043 75.921C108.107 75.1227 108.009 74.3196 107.754 73.5603C107.499 72.801 107.093 72.1011 106.561 71.5026C104.634 69.0907 102.84 66.5722 100.776 63.8126C102.86 63.8126 104.582 63.7366 106.291 63.8621C106.747 63.8956 107.256 64.4638 107.573 64.9065C108.993 66.8841 110.353 68.9081 111.948 71.2257C113.32 69.4549 114.587 67.6046 115.741 65.6846C116.711 63.853 117.957 63.4171 120 64.0302Z" fill="white"/>
<path d="M52.7213 80.6028H47.7482V65.5425H41.6084V63.8105H58.7637C58.7957 64.3879 58.8276 64.9409 58.8611 65.5364H52.7213V80.6028Z" fill="white"/>
<path d="M39.8171 80.6028H34.9316V63.9277H39.8171V80.6028Z" fill="white"/>
<path opacity="0.664" d="M43.2529 2.77836C49.5503 0.408262 55.9413 -0.677149 62.639 0.443245C67.5938 1.27156 72.598 1.8025 77.5794 2.47033C77.8164 2.4925 78.0365 2.60234 78.1967 2.77836H43.2529Z" fill="white"/>
</g>
<defs>
<clipPath id="clip0_412_7845">
<rect width="120" height="81" fill="white"/>
</clipPath>
</defs>
</svg>
