<svg width="120" height="81" fill="none" xmlns="http://www.w3.org/2000/svg"><g clip-path="url(#clip0_412_7845)" fill="#fff"><path opacity=".664" d="M2.018 60.165v-6.327l111.104 6.188v.139H2.018zm.214-7.28l1.082-6.197c37.115 2.072 74.165 4.138 111.15 6.198H2.232zm110.774-7.065H3.314c.569-1.96 1.026-3.786 1.668-5.544.126-.344.978-.62 1.48-.597 5.336.236 10.668.526 16 .825 5.99.336 11.978.7 17.963 1.048a12922.168 12922.168 0 0044.915 2.553c6.347.354 12.694.706 19.041 1.056 2.867.152 5.738.276 8.605.412l.02.248zm-.755-7.329H5.544l2.491-5.968 104.217 5.82-.001.148zm-.197-7.09H8.627c1.325-2.117 2.427-3.935 3.606-5.7a1.419 1.419 0 011.1-.37c8.082.523 16.162 1.09 24.245 1.618 3.293.214 6.595.337 9.89.541 7.18.447 14.358.942 21.54 1.378 6.649.404 13.299.757 19.952 1.135 6.469.368 12.938.722 19.401 1.13 1.23.075 2.448.374 3.67.566l.023-.298zM13.16 24.19c1.65-1.951 2.949-4.07 4.802-5.439 1.01-.746 2.969-.339 4.482-.25 5.328.316 10.65.706 15.971 1.09 6.275.452 12.546.96 18.823 1.383 6.165.415 12.334.723 18.495 1.129 6.104.401 12.203.874 18.304 1.298 2.746.191 5.494.342 8.239.789H13.16zm87.022-7.142H20.06l-.222-.415c1.61-1.423 3.225-2.835 4.82-4.27 1.934-1.743 4.166-.604 6.206-.513 5.744.257 11.476.81 17.21 1.258 6.991.545 13.98 1.11 20.968 1.65 5.023.389 10.047.75 15.07 1.12 5.747.421 11.485.837 16.07 1.17z"/><path d="M15.93 80.622V63.57c4.31.203 8.533.305 12.734.653a2.979 2.979 0 012.854 2.809c.14 1.76-1.002 2.757-2.436 3.43-.958.382-1.936.713-2.93.993 1.102.276 1.877.432 2.624.663 2.123.657 3.41 2.034 3.365 3.727a3.885 3.885 0 01-3.096 3.752 24.244 24.244 0 01-5.265.988c-2.554.159-5.13.037-7.85.037zm5.1-4.712l-.273.064c.268 1.08.282 2.873.863 3.081 1.007.36 2.366-.26 3.577-.474a.482.482 0 00.16-.076 3.38 3.38 0 001.282-3.931c-.56-1.484-2.734-2.587-4.668-2.19-1.745.362-.624 1.866-.932 2.815a2.405 2.405 0 00-.008.712l-.001-.001zm.022-4.676a25.073 25.073 0 003.522-.642 2.996 2.996 0 001.674-3.978c-.547-1.125-3.774-2.205-4.757-1.56a1.021 1.021 0 00-.422.705c-.036 1.711-.018 3.422-.018 5.476h.001zm57.777-7.454a6.58 6.58 0 015.59 1.631c3.999 3.32 8.152 6.452 12.504 9.865V63.925h2.49v16.593a4.44 4.44 0 01-4.25-1.045c-4.007-3.249-8.092-6.4-12.15-9.584-.42-.33-.862-.63-1.577-1.151v11.727h-2.608V63.78z"/><path opacity=".664" d="M90.678 9.784H28.89l-.111-.446c3.57-1.69 6.382-4.786 11.112-4.183C48.142 6.21 56.456 6.777 64.748 7.5c6.746.59 13.499 1.096 20.245 1.666 1.953.167 3.899.42 5.685.617z"/><path d="M77.736 80.662c-1.869 0-3.373.086-4.857-.047a1.88 1.88 0 01-1.395-.99c-.907-3.733-3.295-4.867-6.864-4.187a5.62 5.62 0 01-1.616 0c-1.088-.114-1.856.173-2.186 1.331-.21.561-.462 1.105-.757 1.627-1.126 2.412-1.126 2.412-4.11 1.946 2.824-4.917 5.632-9.781 8.41-14.662.709-1.246 1.197-2.752 3.12-2.164.44.1.833.347 1.114.7 3.02 5.369 5.994 10.763 9.141 16.446zm-15.268-6.86h6.095l-2.969-5.578-3.126 5.578zM13.4 64.444l-.87 1.86c-1.877-.624-3.518-1.403-5.237-1.662a2.485 2.485 0 00-3.028 1.937c-.328 1.688.92 2.317 2.19 2.832 1.72.697 3.489 1.293 5.18 2.054 1.675.76 2.924 1.996 2.943 3.966a4.41 4.41 0 01-2.619 4.019c-3.84 2.041-7.792 1.88-11.958.575l1.1-3.516c1.395 2.087 3.029 3.27 5.315 3.054a7.367 7.367 0 002.41-.597c1.876-.878 2.054-2.9.273-3.924A26.699 26.699 0 004.623 73.2C1.49 72.1-.005 70.548.073 68.346c.085-2.382 1.831-4.114 5.024-4.848a11.804 11.804 0 018.302.943l.001.003zM120 64.03c-1.474 1.883-2.796 3.788-4.343 5.49-2.055 2.262-3.085 4.747-2.641 7.828a23.25 23.25 0 01.024 3.254h-5.023c0-1.597-.101-3.148.026-4.681a5.927 5.927 0 00-1.482-4.418c-1.927-2.412-3.721-4.93-5.785-7.69 2.084 0 3.806-.076 5.515.05.456.033.965.6 1.282 1.043 1.42 1.978 2.78 4.002 4.375 6.32a56.946 56.946 0 003.793-5.541c.97-1.832 2.216-2.268 4.259-1.655zM52.721 80.603h-4.973v-15.06h-6.14V63.81h17.156l.097 1.726h-6.14v15.067zm-12.904 0h-4.885V63.928h4.885v16.675z"/><path opacity=".664" d="M43.253 2.778C49.55.408 55.94-.677 62.639.443c4.955.829 9.959 1.36 14.94 2.027a.955.955 0 01.618.308H43.253z"/></g><defs><clipPath id="clip0_412_7845"><path fill="#fff" d="M0 0h120v81H0z"/></clipPath></defs></svg>