<svg width="203" height="204" fill="none" xmlns="http://www.w3.org/2000/svg"><path d="M187.693 78.98a2.579 2.579 0 01-.029-1.357c.111-.443.326-.828.645-1.156a2.74 2.74 0 011.206-.697 2.621 2.621 0 011.375-.033c.443.111.822.328 1.138.65.327.319.556.71.687 1.171.131.462.141.914.029 1.357-.1.44-.309.824-.628 1.151a2.52 2.52 0 01-1.183.71 2.613 2.613 0 01-1.397.021 2.498 2.498 0 01-1.156-.645 2.59 2.59 0 01-.687-1.171zm-61.747 109.293c.464-.125.916-.13 1.358-.013.442.116.825.336 1.148.658.327.334.555.739.683 1.214.129.475.135.933.019 1.375a2.376 2.376 0 01-.664 1.131 2.592 2.592 0 01-1.178.674c-.464.125-.916.13-1.358.013a2.373 2.373 0 01-1.144-.641 2.513 2.513 0 01-.695-1.192 2.61 2.61 0 01-.006-1.397c.116-.442.336-.824.659-1.148a2.583 2.583 0 011.178-.674zM15.632 117.296a2.59 2.59 0 01-.131 1.352 2.504 2.504 0 01-.777 1.071 2.72 2.72 0 01-1.28.55 2.624 2.624 0 01-1.369-.128 2.375 2.375 0 01-1.054-.78 2.59 2.59 0 01-.544-1.244 2.588 2.588 0 01.131-1.352 2.37 2.37 0 01.76-1.068 2.51 2.51 0 011.259-.565c.486-.078.949-.03 1.39.143.426.163.784.422 1.07.777.288.355.47.77.545 1.244zm73.725-101.76c-.47.093-.922.067-1.355-.08a2.503 2.503 0 01-1.1-.735 2.719 2.719 0 01-.6-1.258 2.62 2.62 0 01.077-1.373c.146-.433.393-.794.739-1.083.344-.3.751-.498 1.222-.591.47-.094.923-.067 1.356.08.43.134.796.373 1.097.717.312.342.516.754.612 1.237a2.61 2.61 0 01-.09 1.394c-.146.433-.392.8-.736 1.1-.343.301-.75.498-1.222.592z" fill="#fff"/><path d="M102.36 86.99c9.113 0 16.5 7.387 16.5 16.499 0 9.113-7.387 16.5-16.5 16.5-9.112 0-16.5-7.387-16.5-16.5 0-9.112 7.388-16.5 16.5-16.5z" fill="#5A5A5A"/></svg>