<svg width="204" height="203" fill="none" xmlns="http://www.w3.org/2000/svg"><path d="M78.992 15.168c-.462.13-.915.14-1.358.029a2.502 2.502 0 01-1.156-.646 2.72 2.72 0 01-.697-1.206 2.62 2.62 0 01-.033-1.374 2.37 2.37 0 01.65-1.139c.319-.327.71-.556 1.171-.687.462-.13.914-.14 1.358-.029.44.1.823.31 1.15.628.34.316.576.71.71 1.184.134.473.14.939.021 1.397a2.502 2.502 0 01-.645 1.155c-.32.328-.71.557-1.171.688zm109.293 61.746a2.576 2.576 0 01-.014-1.358 2.49 2.49 0 01.659-1.148 2.717 2.717 0 011.213-.683 2.62 2.62 0 011.375-.019c.442.117.819.338 1.131.664.324.322.548.715.674 1.178.125.464.13.916.013 1.358-.104.439-.318.82-.641 1.144a2.515 2.515 0 01-1.191.696 2.62 2.62 0 01-1.397.005 2.506 2.506 0 01-1.149-.658 2.586 2.586 0 01-.673-1.18zm-70.977 110.314a2.589 2.589 0 011.351.131c.427.163.784.422 1.071.778.29.367.473.793.55 1.279.078.486.035.942-.128 1.369a2.378 2.378 0 01-.78 1.054c-.355.287-.77.469-1.244.544a2.578 2.578 0 01-1.351-.131 2.373 2.373 0 01-1.069-.759 2.521 2.521 0 01-.565-1.259 2.627 2.627 0 01.143-1.39c.163-.427.422-.784.778-1.072.355-.287.77-.468 1.244-.544zM15.547 113.503c.094.471.067.923-.08 1.356a2.5 2.5 0 01-.735 1.1 2.724 2.724 0 01-1.257.599c-.483.096-.94.07-1.373-.076a2.38 2.38 0 01-1.083-.739 2.588 2.588 0 01-.592-1.223 2.585 2.585 0 01.08-1.355c.134-.43.374-.796.718-1.097a2.526 2.526 0 011.236-.613 2.631 2.631 0 011.394.09c.433.147.8.392 1.1.736.301.344.499.752.592 1.222z" fill="#000"/><path d="M87 100.5c0-9.113 7.387-16.5 16.5-16.5s16.5 7.387 16.5 16.5-7.387 16.5-16.5 16.5S87 109.613 87 100.5z" fill="#5A5A5A"/></svg>