<svg width="203" height="204" viewBox="0 0 203 204" fill="none" xmlns="http://www.w3.org/2000/svg">
<path d="M187.693 78.9806C187.562 78.5188 187.552 78.0663 187.664 77.6231C187.775 77.18 187.99 76.7948 188.309 76.4675C188.64 76.1369 189.042 75.9046 189.515 75.7705C189.988 75.6364 190.447 75.6251 190.89 75.7366C191.333 75.848 191.712 76.0648 192.028 76.387C192.355 76.7058 192.584 77.0962 192.715 77.558C192.846 78.0199 192.856 78.4724 192.744 78.9155C192.644 79.3554 192.435 79.739 192.116 80.0662C191.8 80.4051 191.406 80.6415 190.933 80.7756C190.459 80.9097 189.994 80.9169 189.536 80.7971C189.092 80.6857 188.707 80.4705 188.38 80.1517C188.053 79.8328 187.824 79.4424 187.693 78.9806Z" fill="white"/>
<path d="M125.946 188.273C126.41 188.148 126.862 188.143 127.304 188.26C127.746 188.376 128.129 188.596 128.452 188.918C128.779 189.252 129.007 189.657 129.135 190.132C129.264 190.607 129.27 191.065 129.154 191.507C129.037 191.949 128.816 192.326 128.49 192.638C128.168 192.961 127.775 193.186 127.312 193.312C126.848 193.437 126.396 193.442 125.954 193.325C125.515 193.22 125.134 193.007 124.81 192.684C124.475 192.365 124.243 191.967 124.115 191.492C123.986 191.018 123.984 190.552 124.109 190.095C124.225 189.653 124.445 189.271 124.768 188.947C125.09 188.623 125.483 188.399 125.946 188.273Z" fill="white"/>
<path d="M15.6322 117.296C15.7076 117.77 15.6639 118.221 15.501 118.648C15.3381 119.074 15.079 119.432 14.7238 119.719C14.3567 120.008 13.9302 120.192 13.4443 120.269C12.9584 120.346 12.502 120.304 12.0751 120.141C11.6482 119.978 11.297 119.718 11.0214 119.361C10.734 119.005 10.5525 118.591 10.4771 118.117C10.4016 117.643 10.4454 117.192 10.6083 116.765C10.7593 116.34 11.0125 115.984 11.3677 115.697C11.7211 115.397 12.1407 115.209 12.6266 115.132C13.1125 115.054 13.5757 115.102 14.0164 115.275C14.4433 115.438 14.8005 115.697 15.0879 116.052C15.3753 116.407 15.5567 116.822 15.6322 117.296Z" fill="white"/>
<path d="M89.3573 15.5357C88.8865 15.6292 88.4347 15.6027 88.0018 15.4563C87.569 15.3098 87.2022 15.0646 86.9014 14.7206C86.5982 14.3648 86.3987 13.9457 86.3029 13.4631C86.207 12.9805 86.2323 12.5228 86.3788 12.09C86.5252 11.6572 86.7716 11.2962 87.1179 11.0072C87.4619 10.7064 87.8693 10.5093 88.3401 10.4157C88.8109 10.3222 89.2627 10.3487 89.6956 10.4951C90.1261 10.6298 90.4917 10.8692 90.7925 11.2131C91.1051 11.5548 91.3093 11.9669 91.4052 12.4495C91.501 12.932 91.471 13.3968 91.3151 13.8437C91.1686 14.2766 90.9234 14.6434 90.5794 14.9442C90.2355 15.245 89.8281 15.4421 89.3573 15.5357Z" fill="white"/>
<path d="M102.36 86.9893C111.473 86.9893 118.86 94.3766 118.86 103.489C118.86 112.602 111.473 119.989 102.36 119.989C93.2477 119.989 85.8604 112.602 85.8604 103.489C85.8604 94.3766 93.2477 86.9893 102.36 86.9893Z" fill="#5A5A5A"/>
</svg>
