<svg width="204" height="203" viewBox="0 0 204 203" fill="none" xmlns="http://www.w3.org/2000/svg">
<path d="M78.9916 15.1676C78.5297 15.2984 78.0773 15.3081 77.6341 15.1966C77.191 15.0852 76.8057 14.87 76.4785 14.5511C76.1479 14.2207 75.9156 13.8188 75.7815 13.3454C75.6474 12.872 75.6361 12.4138 75.7476 11.9706C75.859 11.5275 76.0758 11.148 76.398 10.8323C76.7168 10.505 77.1072 10.276 77.569 10.1452C78.0309 10.0143 78.4833 10.0047 78.9265 10.1161C79.3664 10.216 79.7499 10.4254 80.0772 10.7443C80.4161 11.0599 80.6525 11.4544 80.7866 11.9278C80.9207 12.4011 80.9279 12.8668 80.8081 13.3248C80.6967 13.7679 80.4815 14.1531 80.1626 14.4804C79.8438 14.8077 79.4534 15.0368 78.9916 15.1676Z" fill="black"/>
<path d="M188.285 76.9138C188.159 76.4505 188.154 75.9979 188.271 75.5561C188.387 75.1142 188.607 74.7315 188.93 74.4078C189.264 74.081 189.668 73.8533 190.143 73.7246C190.618 73.5959 191.076 73.5898 191.518 73.7063C191.96 73.8228 192.337 74.0439 192.649 74.3696C192.973 74.6922 193.197 75.0851 193.323 75.5484C193.448 76.0117 193.453 76.4643 193.336 76.9061C193.232 77.3448 193.018 77.726 192.695 78.0497C192.376 78.3849 191.979 78.6168 191.504 78.7455C191.029 78.8742 190.563 78.8761 190.107 78.7512C189.665 78.6347 189.282 78.4152 188.958 78.0926C188.635 77.77 188.41 77.3771 188.285 76.9138Z" fill="black"/>
<path d="M117.308 187.228C117.782 187.153 118.232 187.196 118.659 187.359C119.086 187.522 119.443 187.781 119.73 188.137C120.02 188.504 120.203 188.93 120.28 189.416C120.358 189.902 120.315 190.358 120.152 190.785C119.989 191.212 119.729 191.563 119.372 191.839C119.017 192.126 118.602 192.308 118.128 192.383C117.654 192.459 117.204 192.415 116.777 192.252C116.352 192.101 115.995 191.848 115.708 191.493C115.409 191.139 115.22 190.72 115.143 190.234C115.066 189.748 115.114 189.285 115.286 188.844C115.449 188.417 115.708 188.06 116.064 187.772C116.419 187.485 116.834 187.304 117.308 187.228Z" fill="black"/>
<path d="M15.5471 113.503C15.6407 113.974 15.6142 114.426 15.4677 114.859C15.3213 115.292 15.0761 115.658 14.7321 115.959C14.3763 116.262 13.9572 116.462 13.4746 116.558C12.992 116.654 12.5343 116.628 12.1015 116.482C11.6686 116.335 11.3077 116.089 11.0187 115.743C10.7179 115.399 10.5207 114.991 10.4272 114.52C10.3337 114.05 10.3601 113.598 10.5066 113.165C10.6413 112.735 10.8806 112.369 11.2246 112.068C11.5663 111.756 11.9784 111.551 12.4609 111.455C12.9435 111.36 13.4083 111.39 13.8552 111.545C14.288 111.692 14.6549 111.937 14.9556 112.281C15.2564 112.625 15.4536 113.033 15.5471 113.503Z" fill="black"/>
<path d="M87 100.5C87 91.3873 94.3873 84 103.5 84C112.613 84 120 91.3873 120 100.5C120 109.613 112.613 117 103.5 117C94.3873 117 87 109.613 87 100.5Z" fill="#5A5A5A"/>
</svg>
