<svg width="40" height="128" viewBox="0 0 40 128" fill="none" xmlns="http://www.w3.org/2000/svg">
<line x1="5.5" y1="126.5" x2="30.5" y2="126.5" stroke="white" stroke-width="3" stroke-linecap="round"/>
<line x1="5.5" y1="117.5" x2="30.5" y2="117.5" stroke="#7B7B7B" stroke-width="3" stroke-linecap="round"/>
<line x1="1.5" y1="108.5" x2="38.5" y2="108.5" stroke="white" stroke-width="3" stroke-linecap="round"/>
<line x1="2.5" y1="99.5" x2="34.5" y2="99.5" stroke="#7B7B7B" stroke-width="3" stroke-linecap="round"/>
<line x1="4.5" y1="90.5" x2="31.5" y2="90.5" stroke="#7B7B7B" stroke-width="3" stroke-linecap="round"/>
<path d="M24.18 69.402C24.18 70.374 24.042 71.316 23.766 72.228C23.49 73.128 23.124 73.842 22.668 74.37L20.85 73.56C21.258 73.044 21.594 72.414 21.858 71.67C22.11 70.914 22.236 70.158 22.236 69.402C22.236 68.466 22.086 67.77 21.786 67.314C21.486 66.846 21.09 66.612 20.598 66.612C20.238 66.612 19.944 66.744 19.716 67.008C19.476 67.26 19.29 67.584 19.158 67.98C19.026 68.376 18.876 68.916 18.708 69.6C18.48 70.56 18.252 71.34 18.024 71.94C17.796 72.528 17.442 73.038 16.962 73.47C16.47 73.89 15.81 74.1 14.982 74.1C14.286 74.1 13.656 73.914 13.092 73.542C12.516 73.158 12.06 72.588 11.724 71.832C11.388 71.064 11.22 70.128 11.22 69.024C11.22 68.256 11.316 67.5 11.508 66.756C11.7 66.012 11.976 65.37 12.336 64.83L14.154 65.568C13.83 66.12 13.584 66.696 13.416 67.296C13.248 67.896 13.164 68.478 13.164 69.042C13.164 69.966 13.32 70.656 13.632 71.112C13.944 71.556 14.358 71.778 14.874 71.778C15.234 71.778 15.528 71.652 15.756 71.4C15.984 71.136 16.164 70.806 16.296 70.41C16.428 70.014 16.578 69.474 16.746 68.79C16.962 67.854 17.19 67.086 17.43 66.486C17.658 65.886 18.012 65.376 18.492 64.956C18.972 64.524 19.62 64.308 20.436 64.308C21.132 64.308 21.762 64.5 22.326 64.884C22.89 65.256 23.34 65.826 23.676 66.594C24.012 67.362 24.18 68.298 24.18 69.402ZM24.126 57.8837C24.126 58.8557 23.916 59.7317 23.496 60.5117C23.076 61.2917 22.494 61.9037 21.75 62.3477C20.994 62.7797 20.142 62.9957 19.194 62.9957C18.246 62.9957 17.4 62.7797 16.656 62.3477C15.912 61.9037 15.33 61.2917 14.91 60.5117C14.49 59.7317 14.28 58.8557 14.28 57.8837C14.28 56.8997 14.49 56.0177 14.91 55.2377C15.33 54.4577 15.912 53.8517 16.656 53.4197C17.4 52.9757 18.246 52.7537 19.194 52.7537C20.142 52.7537 20.994 52.9757 21.75 53.4197C22.494 53.8517 23.076 54.4577 23.496 55.2377C23.916 56.0177 24.126 56.8997 24.126 57.8837ZM22.2 57.8837C22.2 57.0557 21.924 56.3717 21.372 55.8317C20.82 55.2917 20.094 55.0217 19.194 55.0217C18.294 55.0217 17.568 55.2917 17.016 55.8317C16.464 56.3717 16.188 57.0557 16.188 57.8837C16.188 58.7117 16.464 59.3957 17.016 59.9357C17.568 60.4637 18.294 60.7277 19.194 60.7277C20.094 60.7277 20.82 60.4637 21.372 59.9357C21.924 59.3957 22.2 58.7117 22.2 57.8837ZM14.388 41.2961L24 41.2961L24 43.4381L22.776 43.4381C23.208 43.7981 23.544 44.2481 23.784 44.7881C24.012 45.3281 24.126 45.9101 24.126 46.5341C24.126 47.8181 23.772 48.8321 23.064 49.5761C22.344 50.3081 21.282 50.6741 19.878 50.6741L14.388 50.6741L14.388 48.4241L19.572 48.4241C20.436 48.4241 21.084 48.2321 21.516 47.8481C21.936 47.4521 22.146 46.8941 22.146 46.1741C22.146 45.3701 21.9 44.7341 21.408 44.2661C20.904 43.7861 20.184 43.5461 19.248 43.5461L14.388 43.5461L14.388 41.2961ZM14.28 32.8962C14.28 31.6842 14.634 30.7122 15.342 29.9802C16.05 29.2482 17.1 28.8822 18.492 28.8822L24 28.8822L24 31.1322L18.78 31.1322C17.94 31.1322 17.31 31.3302 16.89 31.7262C16.458 32.1222 16.242 32.6862 16.242 33.4182C16.242 34.2462 16.494 34.9002 16.998 35.3802C17.49 35.8602 18.204 36.1002 19.14 36.1002L24 36.1002L24 38.3502L14.388 38.3502L14.388 36.2082L15.63 36.2082C15.186 35.8362 14.85 35.3682 14.622 34.8042C14.394 34.2402 14.28 33.6042 14.28 32.8962ZM10.644 16.526L24 16.526L24 18.686L22.758 18.686C23.214 19.058 23.556 19.52 23.784 20.072C24.012 20.612 24.126 21.212 24.126 21.872C24.126 22.796 23.922 23.63 23.514 24.374C23.106 25.106 22.53 25.682 21.786 26.102C21.03 26.522 20.166 26.732 19.194 26.732C18.222 26.732 17.364 26.522 16.62 26.102C15.876 25.682 15.3 25.106 14.892 24.374C14.484 23.63 14.28 22.796 14.28 21.872C14.28 21.236 14.388 20.654 14.604 20.126C14.82 19.598 15.144 19.148 15.576 18.776L10.644 18.776L10.644 16.526ZM22.2 21.602C22.2 21.062 22.08 20.576 21.84 20.144C21.588 19.712 21.234 19.37 20.778 19.118C20.322 18.866 19.794 18.74 19.194 18.74C18.594 18.74 18.066 18.866 17.61 19.118C17.154 19.37 16.806 19.712 16.566 20.144C16.314 20.576 16.188 21.062 16.188 21.602C16.188 22.142 16.314 22.628 16.566 23.06C16.806 23.492 17.154 23.834 17.61 24.086C18.066 24.338 18.594 24.464 19.194 24.464C19.794 24.464 20.322 24.338 20.778 24.086C21.234 23.834 21.588 23.492 21.84 23.06C22.08 22.628 22.2 22.142 22.2 21.602Z" fill="#7B7B7B"/>
<path d="M24.126 12.8626C24.126 13.2706 23.988 13.6186 23.712 13.9066C23.424 14.1946 23.064 14.3386 22.632 14.3386C22.188 14.3386 21.828 14.2006 21.552 13.9246C21.276 13.6366 21.138 13.2826 21.138 12.8626C21.138 12.4426 21.276 12.0946 21.552 11.8186C21.828 11.5306 22.188 11.3866 22.632 11.3866C23.064 11.3866 23.424 11.5306 23.712 11.8186C23.988 12.1066 24.126 12.4546 24.126 12.8626Z" fill="#E35D14"/>
</svg>
