<svg width="40" height="128" fill="none" xmlns="http://www.w3.org/2000/svg"><path stroke="#fff" stroke-width="3" stroke-linecap="round" d="M5.5 126.5h25"/><path stroke="#7B7B7B" stroke-width="3" stroke-linecap="round" d="M5.5 117.5h25"/><path stroke="#fff" stroke-width="3" stroke-linecap="round" d="M1.5 108.5h37"/><path stroke="#7B7B7B" stroke-width="3" stroke-linecap="round" d="M2.5 99.5h32m-30-9h27"/><path d="M24.18 69.402c0 .972-.138 1.914-.414 2.826-.276.9-.642 1.614-1.098 2.142l-1.818-.81c.408-.516.744-1.146 1.008-1.89a7.135 7.135 0 00.378-2.268c0-.936-.15-1.632-.45-2.088-.3-.468-.696-.702-1.188-.702-.36 0-.654.132-.882.396-.24.252-.426.576-.558.972a21.87 21.87 0 00-.45 1.62c-.228.96-.456 1.74-.684 2.34a3.962 3.962 0 01-1.062 1.53c-.492.42-1.152.63-1.98.63a3.358 3.358 0 01-1.89-.558c-.576-.384-1.032-.954-1.368-1.71-.336-.768-.504-1.704-.504-2.808 0-.768.096-1.524.288-2.268.192-.744.468-1.386.828-1.926l1.818.738a7.28 7.28 0 00-.738 1.728 6.464 6.464 0 00-.252 1.746c0 .924.156 1.614.468 2.07.312.444.726.666 1.242.666.36 0 .654-.126.882-.378.228-.264.408-.594.54-.99.132-.396.282-.936.45-1.62.216-.936.444-1.704.684-2.304.228-.6.582-1.11 1.062-1.53.48-.432 1.128-.648 1.944-.648.696 0 1.326.192 1.89.576.564.372 1.014.942 1.35 1.71.336.768.504 1.704.504 2.808zm-.054-11.518c0 .972-.21 1.848-.63 2.628a4.676 4.676 0 01-1.746 1.836c-.756.432-1.608.648-2.556.648s-1.794-.216-2.538-.648a4.676 4.676 0 01-1.746-1.836c-.42-.78-.63-1.656-.63-2.628 0-.984.21-1.866.63-2.646a4.55 4.55 0 011.746-1.818c.744-.444 1.59-.666 2.538-.666.948 0 1.8.222 2.556.666a4.55 4.55 0 011.746 1.818c.42.78.63 1.662.63 2.646zm-1.926 0c0-.828-.276-1.512-.828-2.052-.552-.54-1.278-.81-2.178-.81-.9 0-1.626.27-2.178.81s-.828 1.224-.828 2.052c0 .828.276 1.512.828 2.052.552.528 1.278.792 2.178.792.9 0 1.626-.264 2.178-.792.552-.54.828-1.224.828-2.052zm-7.812-16.588H24v2.142h-1.224c.432.36.768.81 1.008 1.35.228.54.342 1.122.342 1.746 0 1.284-.354 2.298-1.062 3.042-.72.732-1.782 1.098-3.186 1.098h-5.49v-2.25h5.184c.864 0 1.512-.192 1.944-.576.42-.396.63-.954.63-1.674 0-.804-.246-1.44-.738-1.908-.504-.48-1.224-.72-2.16-.72h-4.86v-2.25zm-.108-8.4c0-1.212.354-2.184 1.062-2.916.708-.732 1.758-1.098 3.15-1.098H24v2.25h-5.22c-.84 0-1.47.198-1.89.594-.432.396-.648.96-.648 1.692 0 .828.252 1.482.756 1.962.492.48 1.206.72 2.142.72H24v2.25h-9.612v-2.142h1.242a3.518 3.518 0 01-1.008-1.404c-.228-.564-.342-1.2-.342-1.908zm-3.636-16.37H24v2.16h-1.242c.456.372.798.834 1.026 1.386.228.54.342 1.14.342 1.8 0 .924-.204 1.758-.612 2.502a4.43 4.43 0 01-1.728 1.728c-.756.42-1.62.63-2.592.63s-1.83-.21-2.574-.63a4.43 4.43 0 01-1.728-1.728c-.408-.744-.612-1.578-.612-2.502 0-.636.108-1.218.324-1.746.216-.528.54-.978.972-1.35h-4.932v-2.25zM22.2 21.602c0-.54-.12-1.026-.36-1.458a2.73 2.73 0 00-1.062-1.026c-.456-.252-.984-.378-1.584-.378-.6 0-1.128.126-1.584.378a2.605 2.605 0 00-1.044 1.026 2.84 2.84 0 00-.378 1.458c0 .54.126 1.026.378 1.458.24.432.588.774 1.044 1.026.456.252.984.378 1.584.378.6 0 1.128-.126 1.584-.378a2.73 2.73 0 001.062-1.026c.24-.432.36-.918.36-1.458z" fill="#7B7B7B"/><path d="M24.126 12.863c0 .408-.138.756-.414 1.044a1.465 1.465 0 01-1.08.432c-.444 0-.804-.138-1.08-.414a1.476 1.476 0 01-.414-1.062c0-.42.138-.768.414-1.044.276-.288.636-.432 1.08-.432.432 0 .792.144 1.08.432.276.288.414.636.414 1.044z" fill="#E35D14"/></svg>