<svg width="341" height="341" fill="none" xmlns="http://www.w3.org/2000/svg"><g filter="url(#filter0_ii_453_125)"><path d="M170.5 341c94.165 0 170.5-76.335 170.5-170.5S264.665 0 170.5 0 0 76.335 0 170.5 76.335 341 170.5 341z" fill="#FF7E1B"/></g><path d="M110.101 169.596c-.79.91-1.33 1.99-2 3-3.9 5.88-8.062 12.904-8.101 19.904-.05 9.07-.12 17.59 1.5 26.5.5 2.73 1.71 6.84 2.5 9.5 5 17 23.101 22.096 23.101 22.096l-3-21c.89 2.85 1.99 5.65 3.32 8.32 1.05 2.11 1.93 4.32 3.35 6.23 2.88 3.88 7.01 7.41 11.33 9.45 5.64 2.65 11.9 4.75 18 6 8.7 1.78 17.54 1.57 26.4.46 8.1-1.02 16.08-3.65 23.26-7.51 4.57-2.45 8.85-5.43 12.72-8.88 6.82-6.08 12.21-13.75 15.15-22.44.54-1.61 1-3.24 1.37-4.9 2.11-9.49 1.23-19.21.53-28.8-.01-.09-.01-.18-.02-.27-.64-8.58-1.67-17.22-3.39-25.65 0 0-6 20-10 20s2-18-1-31-27.39-76.45-87-69c-8 1 29 35 21 59-1.87 5.6-3.89 8.38-5.67 7.95-5.62-1.37-7.33-27.95-8.06-28.93-.03-.04-.1-.02-.1-.02-.94.34-2.17 1.01-3.17 3.01-3.65 7.31-6.61 14.9-10.57 22-3.77 6.76-8.64 12-14.43 17-2.68 2.27-4.72 5.33-7.02 7.98z" fill="url(#paint0_linear_453_125)" stroke="#000" stroke-miterlimit="10"/><defs><linearGradient id="paint0_linear_453_125" x1="161" y1="89" x2="170.153" y2="260.912" gradientUnits="userSpaceOnUse"><stop stop-color="#311907"/><stop offset="1"/></linearGradient><filter id="filter0_ii_453_125" x="0" y="0" width="341" height="341" filterUnits="userSpaceOnUse" color-interpolation-filters="sRGB"><feFlood flood-opacity="0" result="BackgroundImageFix"/><feBlend in="SourceGraphic" in2="BackgroundImageFix" result="shape"/><feColorMatrix in="SourceAlpha" values="0 0 0 0 0 0 0 0 0 0 0 0 0 0 0 0 0 0 127 0" result="hardAlpha"/><feOffset/><feGaussianBlur stdDeviation="75"/><feComposite in2="hardAlpha" operator="arithmetic" k2="-1" k3="1"/><feColorMatrix values="0 0 0 0 0.945098 0 0 0 0 0.443137 0 0 0 0 0.054902 0 0 0 0.63 0"/><feBlend in2="shape" result="effect1_innerShadow_453_125"/><feColorMatrix in="SourceAlpha" values="0 0 0 0 0 0 0 0 0 0 0 0 0 0 0 0 0 0 127 0" result="hardAlpha"/><feOffset/><feGaussianBlur stdDeviation="10"/><feComposite in2="hardAlpha" operator="arithmetic" k2="-1" k3="1"/><feColorMatrix values="0 0 0 0 0.625 0 0 0 0 0.321035 0 0 0 0 0.0859375 0 0 0 1 0"/><feBlend in2="effect1_innerShadow_453_125" result="effect2_innerShadow_453_125"/></filter></defs></svg>