<svg width="341" height="341" viewBox="0 0 341 341" fill="none" xmlns="http://www.w3.org/2000/svg">
<g filter="url(#filter0_ii_453_125)">
<path d="M170.5 341C264.665 341 341 264.665 341 170.5C341 76.3354 264.665 0 170.5 0C76.3354 0 0 76.3354 0 170.5C0 264.665 76.3354 341 170.5 341Z" fill="#FF7E1B"/>
</g>
<path d="M110.101 169.596C109.311 170.506 108.771 171.586 108.101 172.596C104.201 178.476 100.039 185.5 99.9999 192.5C99.9499 201.57 99.8799 210.09 101.5 219C102 221.73 103.21 225.84 104 228.5C109 245.5 127.101 250.596 127.101 250.596L124.101 229.596C124.991 232.446 126.091 235.246 127.421 237.916C128.471 240.026 129.351 242.236 130.771 244.146C133.651 248.026 137.781 251.556 142.101 253.596C147.741 256.246 154.001 258.346 160.101 259.596C168.801 261.376 177.641 261.166 186.501 260.056C194.601 259.036 202.581 256.406 209.761 252.546C214.331 250.096 218.611 247.116 222.481 243.666C229.301 237.586 234.691 229.916 237.631 221.226C238.171 219.616 238.631 217.986 239.001 216.326C241.111 206.836 240.231 197.116 239.531 187.526C239.521 187.436 239.521 187.346 239.511 187.256C238.871 178.676 237.841 170.036 236.121 161.606C236.121 161.606 230.121 181.606 226.121 181.606C222.121 181.606 228.121 163.606 225.121 150.606C222.121 137.606 197.731 74.156 138.121 81.606C130.121 82.606 167.121 116.606 159.121 140.606C157.251 146.206 155.231 148.986 153.451 148.556C147.831 147.186 146.121 120.606 145.391 119.626C145.361 119.586 145.291 119.606 145.291 119.606C144.351 119.946 143.121 120.616 142.121 122.616C138.471 129.926 135.511 137.516 131.551 144.616C127.781 151.376 122.911 156.616 117.121 161.616C114.441 163.886 112.401 166.946 110.101 169.596Z" fill="url(#paint0_linear_453_125)" stroke="black" stroke-miterlimit="10"/>
<defs>
<filter id="filter0_ii_453_125" x="0" y="0" width="341" height="341" filterUnits="userSpaceOnUse" color-interpolation-filters="sRGB">
<feFlood flood-opacity="0" result="BackgroundImageFix"/>
<feBlend mode="normal" in="SourceGraphic" in2="BackgroundImageFix" result="shape"/>
<feColorMatrix in="SourceAlpha" type="matrix" values="0 0 0 0 0 0 0 0 0 0 0 0 0 0 0 0 0 0 127 0" result="hardAlpha"/>
<feOffset/>
<feGaussianBlur stdDeviation="75"/>
<feComposite in2="hardAlpha" operator="arithmetic" k2="-1" k3="1"/>
<feColorMatrix type="matrix" values="0 0 0 0 0.945098 0 0 0 0 0.443137 0 0 0 0 0.054902 0 0 0 0.63 0"/>
<feBlend mode="normal" in2="shape" result="effect1_innerShadow_453_125"/>
<feColorMatrix in="SourceAlpha" type="matrix" values="0 0 0 0 0 0 0 0 0 0 0 0 0 0 0 0 0 0 127 0" result="hardAlpha"/>
<feOffset/>
<feGaussianBlur stdDeviation="10"/>
<feComposite in2="hardAlpha" operator="arithmetic" k2="-1" k3="1"/>
<feColorMatrix type="matrix" values="0 0 0 0 0.625 0 0 0 0 0.321035 0 0 0 0 0.0859375 0 0 0 1 0"/>
<feBlend mode="normal" in2="effect1_innerShadow_453_125" result="effect2_innerShadow_453_125"/>
</filter>
<linearGradient id="paint0_linear_453_125" x1="161" y1="89" x2="170.153" y2="260.912" gradientUnits="userSpaceOnUse">
<stop stop-color="#311907"/>
<stop offset="1"/>
</linearGradient>
</defs>
</svg>
