<svg width="132" height="27" fill="none" xmlns="http://www.w3.org/2000/svg"><g clip-path="url(#clip0_412_6722)" fill="#fff"><path d="M26.035 26.611c-1.28-1.951-2.53-3.855-3.778-5.76a8328.676 8328.676 0 01-3.787-5.779L10.876 26.68c-.703-1.09-1.362-2.105-2.019-3.124L.657 10.83a3.29 3.29 0 01-.2-3.633 3.248 3.248 0 014.375-1.215c.492.27.906.664 1.2 1.142 1.487 2.277 2.944 4.58 4.415 6.87.13.203.267.403.437.662l3.633-5.665c.367-.577.731-1.161 1.102-1.736a3.256 3.256 0 015.698-.016c1.448 2.235 2.866 4.472 4.298 6.71.13.203.267.405.454.691.161-.233.294-.416.418-.606 1.495-2.327 2.976-4.664 4.488-6.979a3.065 3.065 0 013.339-1.395 3.059 3.059 0 012.514 2.364 3.094 3.094 0 01-.374 2.554A8034.478 8034.478 0 0126.248 26.43a1.393 1.393 0 01-.215.191l.002-.01zm67.495-8.473a4.48 4.48 0 004.218 3.55 5.481 5.481 0 003.98-1.368 1.08 1.08 0 01.621-.293c1.838-.022 3.675-.012 5.518-.008.107.013.214.036.317.067a10.28 10.28 0 01-2.338 3.6 10.97 10.97 0 01-15.284.274 10.964 10.964 0 01-2.966-4.72 10.785 10.785 0 014.571-12.192 10.8 10.8 0 014.347-1.58 10.808 10.808 0 0112.232 8.705 21.74 21.74 0 01.116 3.296c.022.571-.255.681-.772.681-4.609-.016-9.218-.01-13.827-.01l-.732-.002zm.182-4.727h8.706a4.524 4.524 0 00-4.625-2.829c-2.024.115-3.711 1.278-4.082 2.829h.001zM47.867 27c-5.358-.073-10.036-3.759-10.997-8.727a10.743 10.743 0 017.605-12.415c5.732-1.77 12.002 1.25 13.948 6.72a10.75 10.75 0 01-3.839 12.232c-1.24.9-2.658 1.526-4.16 1.834-.841.173-1.705.239-2.557.356zm4.863-10.865c-.008-3.471-3.042-5.934-6.199-5.03a5.282 5.282 0 00-3.414 6.353c.618 2.454 2.809 4.133 5.067 3.886a5.045 5.045 0 004.545-5.209zm72.689 10.315c0-3.315.013-6.57-.01-9.825a7.84 7.84 0 00-.234-1.9 4.059 4.059 0 00-4.161-3.217 4.18 4.18 0 00-3.927 3.606c-.082.48-.124.965-.126 1.452-.011 3.035-.006 6.068-.006 9.103v.777c-.177.03-.356.051-.536.062-1.795.004-3.591-.014-5.385.014-.503.007-.635-.154-.635-.644.019-3.411-.085-6.826.033-10.232.155-4.467 3.4-9.489 9.132-10.18 6.512-.783 11.678 3.273 12.354 9.791.092 1.504.107 3.011.046 4.516.004 2.038 0 4.075.004 6.113 0 .359.008.64-.502.636-1.907-.024-3.81-.01-5.716-.014a2.547 2.547 0 01-.329-.057l-.002-.001zM81.04 5.764c1.035 0 1.983-.022 2.93.005a2.91 2.91 0 012.75 1.94 2.673 2.673 0 01-.882 3.102 4.056 4.056 0 01-1.816.668 24.45 24.45 0 01-2.787.043.874.874 0 00-.198.079v7.252c0 1.434.483 1.925 1.891 1.927 1.085 0 2.171-.015 3.256.015.181.005.508.2.51.311.032 1.763.023 3.532.023 5.252-.104.073-.14.118-.174.117-1.88-.024-3.772.084-5.634-.107a6.641 6.641 0 01-6.017-6.777c-.008-5.49-.008-10.982 0-16.475A2.982 2.982 0 0176.765.214c.381-.153.79-.225 1.2-.212a3.015 3.015 0 013.072 3.131c.006.84.002 1.68.002 2.63zm-8.012.128c0 1.729.012 3.474-.023 5.216 0 .13-.34.358-.526.363-1.176.034-2.352.011-3.523.02-1.114.006-1.61.51-1.61 1.633 0 4.208-.015 8.416.013 12.623.004.616-.172.787-.78.771-1.683-.04-3.368-.012-5.052-.015-.216 0-.433-.02-.73-.035V13.365a7.409 7.409 0 016.366-7.437 48.606 48.606 0 015.865-.036z"/></g><defs><clipPath id="clip0_412_6722"><path fill="#fff" d="M0 0h132v27H0z"/></clipPath></defs></svg>