<svg width="132" height="27" viewBox="0 0 132 27" fill="none" xmlns="http://www.w3.org/2000/svg">
<g clip-path="url(#clip0_412_6722)">
<path d="M26.0353 26.6115C24.755 24.6596 23.5056 22.7563 22.2569 20.8515C21.0082 18.9467 19.758 17.039 18.4696 15.0724L10.876 26.6791C10.1726 25.5897 9.51411 24.5737 8.85705 23.5548C6.12397 19.3128 3.39041 15.071 0.656348 10.8294C0.269177 10.3106 0.0437003 9.68916 0.00814168 9.0429C-0.0274169 8.39663 0.12852 7.75422 0.456436 7.1961C0.738518 6.71059 1.14174 6.30653 1.62673 6.02328C2.11172 5.74003 2.66189 5.5873 3.22356 5.58003C3.78526 5.57246 4.33933 5.71058 4.83167 5.98095C5.324 6.25133 5.73779 6.64472 6.0326 7.12266C7.51869 9.3999 8.97612 11.7021 10.4475 13.9933C10.5776 14.1961 10.7136 14.3959 10.8841 14.6545L14.517 8.98999C14.8845 8.4126 15.2483 7.82866 15.6194 7.25421C15.8997 6.74505 16.3113 6.32017 16.8114 6.02373C17.3115 5.72728 17.882 5.57002 18.4634 5.56837C19.0448 5.56672 19.6161 5.72071 20.1179 6.01431C20.6197 6.30791 21.0337 6.73042 21.3169 7.23798C22.7647 9.47335 24.1832 11.7102 25.6149 13.9471C25.7458 14.1513 25.8817 14.3526 26.0691 14.6391C26.2301 14.4055 26.3631 14.2232 26.4866 14.033C27.9815 11.7058 29.4632 9.36903 30.975 7.05433C31.3114 6.49772 31.8162 6.06256 32.4165 5.81165C33.0167 5.56075 33.6812 5.50717 34.3139 5.65867C34.9225 5.75381 35.4881 6.03039 35.9367 6.45218C36.3853 6.87398 36.6961 7.42125 36.8282 8.02252C36.9534 8.4501 36.9848 8.89963 36.9202 9.34043C36.8557 9.78123 36.6967 10.203 36.4542 10.5767C33.0581 15.8658 29.656 21.1507 26.2477 26.4315C26.1827 26.5021 26.1108 26.5661 26.0331 26.6225L26.0353 26.6115Z" fill="white"/>
<path d="M93.5306 18.138C93.7373 19.1148 94.2645 19.9945 95.0285 20.6377C95.7926 21.2809 96.7496 21.6507 97.7478 21.6883C98.4686 21.7337 99.1913 21.6362 99.8743 21.4014C100.557 21.1667 101.187 20.7993 101.728 20.3204C101.897 20.1575 102.116 20.0543 102.349 20.0266C104.187 20.0046 106.024 20.0148 107.867 20.0192C107.974 20.0323 108.081 20.0547 108.184 20.0861C107.667 21.4368 106.87 22.6634 105.846 23.6857C104.515 25.0257 102.859 25.9992 101.041 26.5119C99.222 27.0245 97.3017 27.059 95.4658 26.6118C93.6299 26.1647 91.9407 25.2511 90.5618 23.9597C89.183 22.6683 88.1613 21.0427 87.5957 19.2406C87.1509 17.7462 87.0355 16.1731 87.2573 14.6298C87.479 13.0864 88.0328 11.6095 88.8804 10.3006C89.7281 8.9917 90.8494 7.88199 92.1673 7.04781C93.4852 6.21362 94.9683 5.67477 96.5145 5.46841C99.2845 5.05136 102.108 5.72593 104.39 7.34982C106.672 8.97372 108.234 11.42 108.746 14.1726C108.868 15.267 108.907 16.3692 108.862 17.4695C108.884 18.0403 108.607 18.1505 108.09 18.1505C103.481 18.1336 98.8723 18.1402 94.2633 18.1402L93.5306 18.138ZM93.7121 13.4109H102.418C102.056 12.5033 101.41 11.7373 100.576 11.2273C99.7423 10.7174 98.7658 10.491 97.7926 10.582C95.7693 10.6973 94.0818 11.8601 93.7106 13.4109H93.7121Z" fill="white"/>
<path d="M47.8665 27.0001C42.5086 26.9266 37.8314 23.2411 36.87 18.2731C36.3485 15.6276 36.8408 12.8827 38.2495 10.5831C39.6581 8.28344 41.8801 6.59706 44.4747 5.85842C50.2074 4.08878 56.4766 7.10719 58.4235 12.5784C58.9267 14.0253 59.1149 15.563 58.9754 17.0884C58.836 18.6139 58.3722 20.0919 57.6151 21.4237C56.8576 22.7554 55.8243 23.9099 54.5843 24.8102C53.3443 25.7104 51.9262 26.3356 50.4249 26.6438C49.5827 26.8172 48.7191 26.8825 47.8665 27.0001ZM52.7298 16.1354C52.7217 12.6637 49.6878 10.2006 46.5311 11.1049C45.2622 11.5339 44.2037 12.4288 43.5699 13.6083C42.9361 14.7879 42.7743 16.1641 43.1172 17.4584C43.7353 19.9119 45.9255 21.5905 48.184 21.3436C49.4628 21.2173 50.6451 20.6081 51.4897 19.6402C52.3343 18.6723 52.7776 17.4188 52.729 16.1354H52.7298Z" fill="white"/>
<path d="M125.419 26.4498C125.419 23.1346 125.432 19.8796 125.409 16.6246C125.409 15.984 125.33 15.3457 125.175 14.7242C124.976 13.782 124.448 12.9414 123.686 12.3523C122.924 11.7631 121.977 11.464 121.014 11.5082C120.042 11.558 119.118 11.9454 118.401 12.6036C117.684 13.2618 117.219 14.1495 117.087 15.1135C117.005 15.5933 116.963 16.0791 116.961 16.5659C116.95 19.6005 116.955 22.6343 116.955 25.6689V26.4461C116.778 26.4765 116.599 26.4971 116.419 26.5078C114.624 26.5122 112.828 26.4939 111.034 26.5218C110.531 26.5291 110.399 26.3676 110.399 25.8776C110.418 22.4669 110.314 19.0524 110.432 15.6461C110.587 11.179 113.832 6.15739 119.564 5.46687C126.076 4.68306 131.242 8.73876 131.918 15.2575C132.01 16.761 132.025 18.2681 131.964 19.7731C131.968 21.8108 131.964 23.8479 131.968 25.8864C131.968 26.2449 131.976 26.5269 131.466 26.5218C129.559 26.4983 127.656 26.5115 125.75 26.5078C125.639 26.4961 125.529 26.4772 125.421 26.4512L125.419 26.4498Z" fill="white"/>
<path d="M81.0391 5.76378C82.0747 5.76378 83.0235 5.74244 83.9694 5.76889C84.5725 5.76744 85.1611 5.95335 85.6538 6.30092C86.1465 6.64849 86.519 7.14053 86.7196 7.70895C86.9303 8.25152 86.9582 8.84802 86.799 9.40788C86.6399 9.96773 86.3024 10.4604 85.8377 10.8112C85.2951 11.177 84.672 11.4061 84.0216 11.4789C83.0942 11.5463 82.1636 11.5607 81.2346 11.5215C81.1657 11.5398 81.0993 11.5664 81.0369 11.6008V18.8528C81.0369 20.2874 81.5198 20.7781 82.928 20.7796C84.0135 20.7796 85.099 20.7649 86.1838 20.795C86.3654 20.8001 86.6917 20.9956 86.6939 21.1065C86.7262 22.8695 86.7167 24.6384 86.7167 26.3581C86.6131 26.4315 86.5778 26.4764 86.5432 26.4749C84.6639 26.4514 82.7714 26.5594 80.909 26.3677C79.2336 26.2103 77.6805 25.4232 76.5636 24.1652C75.4466 22.9073 74.8491 21.2724 74.8919 19.591C74.884 14.1002 74.884 8.60861 74.8919 3.1163C74.8737 2.7061 74.9405 2.2965 75.088 1.91326C75.2354 1.53002 75.4604 1.18139 75.7488 0.889024C76.0373 0.596613 76.3831 0.366845 76.7645 0.214152C77.146 0.0614583 77.5548 -0.0108793 77.9655 0.00162894C78.3763 -0.00640827 78.7843 0.06953 79.1647 0.224912C79.545 0.380295 79.8895 0.611825 80.177 0.905165C80.4647 1.19833 80.6894 1.54715 80.8373 1.9303C80.9852 2.31345 81.0531 2.72281 81.0369 3.13316C81.0435 3.97206 81.0391 4.81321 81.0391 5.76378Z" fill="white"/>
<path d="M73.0281 5.89224C73.0281 7.62074 73.0398 9.36612 73.0046 11.1078C73.0046 11.2379 72.665 11.4656 72.479 11.4707C71.3031 11.5045 70.1272 11.4825 68.9564 11.4906C67.8422 11.4972 67.3461 12.0004 67.3453 13.1243C67.3453 17.3321 67.3314 21.5398 67.3586 25.7468C67.363 26.3631 67.1866 26.5336 66.5788 26.5182C64.8957 26.4785 63.2112 26.5057 61.5274 26.5028C61.3106 26.5028 61.0945 26.4822 60.7976 26.4675V13.3652C60.7732 11.5642 61.4059 9.8159 62.5774 8.44718C63.7489 7.07846 65.379 6.18307 67.1631 5.92829C69.1156 5.79824 71.0741 5.78617 73.0281 5.89224Z" fill="white"/>
</g>
<defs>
<clipPath id="clip0_412_6722">
<rect width="132" height="27" fill="white"/>
</clipPath>
</defs>
</svg>
