<svg width="206" height="206" viewBox="0 0 206 206" fill="none" xmlns="http://www.w3.org/2000/svg">
<path d="M11.2813 91.7395L10.3569 92.1211L11.248 94.2797L12.1953 92.1451L11.2813 91.7395ZM12.6023 90.1491L13.1386 90.9932L13.1477 90.9873L12.6023 90.1491ZM17.0113 91.2294L17.8825 90.7384L17.8825 90.7384L17.0113 91.2294ZM17.0462 101.923L16.9653 102.92L17.962 103.001L18.0429 102.004L17.0462 101.923ZM4.48752 100.904L3.4908 100.823L3.40989 101.82L4.40661 101.901L4.48752 100.904ZM6.20305 90.8938L6.96712 91.539L6.9732 91.5317L6.20305 90.8938ZM10.2694 90.4113L9.67254 91.2136L9.67814 91.2177L10.2694 90.4113ZM7.33853 97.5957L6.34181 97.5148L6.2609 98.5115L7.25762 98.5924L7.33853 97.5957ZM9.76056 97.7923L9.67965 98.789L10.6764 98.8699L10.7573 97.8732L9.76056 97.7923ZM12.2185 97.9918L11.2218 97.9109L11.1408 98.9076L12.1376 98.9885L12.2185 97.9918ZM14.7661 98.1986L14.6852 99.1953L15.6819 99.2762L15.7628 98.2795L14.7661 98.1986ZM12.1953 92.1451C12.4353 91.6043 12.7543 91.2373 13.1386 90.9932L12.066 89.3051C11.3078 89.7869 10.7461 90.4801 10.3672 91.3338L12.1953 92.1451ZM13.1477 90.9873C13.4972 90.7599 13.9268 90.6459 14.4906 90.6917L14.6524 88.6983C13.7091 88.6217 12.826 88.8105 12.0569 89.311L13.1477 90.9873ZM14.4906 90.6917C15.2718 90.7551 15.7829 91.0864 16.1402 91.7204L17.8825 90.7384C17.1874 89.5051 16.0719 88.8135 14.6524 88.6983L14.4906 90.6917ZM16.1402 91.7204C16.5272 92.4072 16.7282 93.4809 16.6 95.0607L18.5934 95.2225C18.7371 93.4534 18.5478 91.9189 17.8825 90.7384L16.1402 91.7204ZM16.6 95.0607L16.0495 101.842L18.0429 102.004L18.5934 95.2225L16.6 95.0607ZM17.1271 100.927L4.56843 99.9071L4.40661 101.901L16.9653 102.92L17.1271 100.927ZM5.48424 100.985L6.00562 94.5619L4.01218 94.4001L3.4908 100.823L5.48424 100.985ZM6.00562 94.5619C6.12762 93.059 6.49167 92.102 6.96709 91.539L5.43901 90.2487C4.58243 91.2631 4.15039 92.6975 4.01218 94.4001L6.00562 94.5619ZM6.9732 91.5317C7.42337 90.9882 7.93741 90.7738 8.61024 90.8284L8.77206 88.8349C7.43549 88.7264 6.29081 89.2201 5.4329 90.256L6.9732 91.5317ZM8.61024 90.8284C9.03318 90.8627 9.37794 90.9944 9.67256 91.2136L10.8663 89.6089C10.2526 89.1524 9.54518 88.8977 8.77206 88.8349L8.61024 90.8284ZM9.67814 91.2177C9.9584 91.4232 10.188 91.7119 10.3569 92.1211L12.2056 91.3579C11.9117 90.646 11.4668 90.0492 10.8607 89.6048L9.67814 91.2177ZM7.25762 98.5924L9.67965 98.789L9.84147 96.7956L7.41944 96.599L7.25762 98.5924ZM10.7573 97.8732L10.9554 95.4332L8.96191 95.2714L8.76384 97.7114L10.7573 97.8732ZM10.9554 95.4332C11.0105 94.7534 10.9563 94.0588 10.6326 93.4884C10.2677 92.8454 9.65384 92.5184 8.96519 92.4625L8.80337 94.4559C8.88428 94.4625 8.90564 94.4788 8.89756 94.474C8.88515 94.4666 8.88357 94.4587 8.89315 94.4755C8.92756 94.5362 9.00381 94.7552 8.96191 95.2714L10.9554 95.4332ZM8.96519 92.4625C8.27628 92.4065 7.62155 92.6357 7.16332 93.2125C6.75821 93.7225 6.59491 94.3969 6.53987 95.0748L8.53332 95.2366C8.57538 94.7185 8.68523 94.5121 8.72935 94.4565C8.74156 94.4412 8.73762 94.4503 8.72081 94.457C8.70841 94.462 8.72751 94.4497 8.80337 94.4559L8.96519 92.4625ZM6.53987 95.0748L6.34181 97.5148L8.33525 97.6766L8.53332 95.2366L6.53987 95.0748ZM16.0046 95.3013C16.0617 94.597 16.0044 93.8835 15.6718 93.3C15.2982 92.6444 14.6714 92.3116 13.9664 92.2544L13.8046 94.2479C13.8501 94.2516 13.8803 94.2582 13.8983 94.2635C13.9159 94.2687 13.9229 94.2729 13.9233 94.2732C13.9237 94.2734 13.9234 94.2732 13.9227 94.2727C13.922 94.2721 13.9216 94.2717 13.9217 94.2718C13.9218 94.2719 13.9228 94.273 13.9248 94.2757C13.9268 94.2784 13.9301 94.2831 13.9342 94.2903C13.9758 94.3632 14.0549 94.5999 14.0111 95.1395L16.0046 95.3013ZM13.9664 92.2544C13.2615 92.1972 12.5892 92.4245 12.1147 93.0113C11.6924 93.5335 11.5207 94.2284 11.4635 94.9327L13.457 95.0945C13.5008 94.5549 13.6171 94.3341 13.6698 94.2689C13.6751 94.2624 13.679 94.2583 13.6815 94.2559C13.6839 94.2536 13.6851 94.2527 13.6852 94.2526C13.6853 94.2525 13.6848 94.2529 13.684 94.2533C13.6832 94.2538 13.6829 94.2539 13.6834 94.2537C13.6838 94.2535 13.6914 94.2505 13.7095 94.2482C13.7282 94.2459 13.7591 94.2442 13.8046 94.2479L13.9664 92.2544ZM11.4635 94.9327L11.2218 97.9109L13.2152 98.0727L13.457 95.0945L11.4635 94.9327ZM12.1376 98.9885L14.6852 99.1953L14.847 97.2019L12.2994 96.9951L12.1376 98.9885ZM15.7628 98.2795L16.0046 95.3013L14.0111 95.1395L13.7694 98.1177L15.7628 98.2795Z" fill="#E35D14"/>
<path d="M18.3143 76.91L18.5575 75.94L17.5875 75.6968L17.3443 76.6668L18.3143 76.91ZM20.9857 77.5797L21.9556 77.8229L22.1988 76.8529L21.2288 76.6097L20.9857 77.5797ZM18.5256 87.392L18.2824 88.362L19.2523 88.6052L19.4955 87.6352L18.5256 87.392ZM6.30382 84.3278L5.33384 84.0846L5.09065 85.0546L6.06063 85.2978L6.30382 84.3278ZM8.70701 74.7425L8.9502 73.7725L7.98022 73.5293L7.73703 74.4993L8.70701 74.7425ZM11.3783 75.4122L12.3483 75.6554L12.5915 74.6855L11.6215 74.4423L11.3783 75.4122ZM9.83311 81.5755L8.86313 81.3323L8.61994 82.3023L9.58992 82.5455L9.83311 81.5755ZM11.8933 82.092L11.6502 83.062L12.6201 83.3052L12.8633 82.3352L11.8933 82.092ZM13.2547 76.6621L13.4979 75.6921L12.5279 75.4489L12.2847 76.4189L13.2547 76.6621ZM15.8387 77.3099L16.8087 77.5531L17.0519 76.5831L16.0819 76.34L15.8387 77.3099ZM14.4774 82.7399L13.5074 82.4967L13.2642 83.4667L14.2342 83.7099L14.4774 82.7399ZM16.7122 83.3002L16.469 84.2702L17.439 84.5134L17.6822 83.5434L16.7122 83.3002ZM18.0711 77.8799L20.7425 78.5497L21.2288 76.6097L18.5575 75.94L18.0711 77.8799ZM20.0157 77.3365L17.5556 87.1488L19.4955 87.6352L21.9556 77.8229L20.0157 77.3365ZM18.7687 86.422L6.54701 83.3579L6.06063 85.2978L18.2824 88.362L18.7687 86.422ZM7.2738 84.571L9.67699 74.9857L7.73703 74.4993L5.33384 84.0846L7.2738 84.571ZM8.46382 75.7125L11.1351 76.3822L11.6215 74.4423L8.9502 73.7725L8.46382 75.7125ZM10.4084 75.1691L8.86313 81.3323L10.8031 81.8187L12.3483 75.6554L10.4084 75.1691ZM9.58992 82.5455L11.6502 83.062L12.1365 81.122L10.0763 80.6055L9.58992 82.5455ZM12.8633 82.3352L14.2247 76.9053L12.2847 76.4189L10.9234 81.8488L12.8633 82.3352ZM13.0115 77.6321L15.5956 78.2799L16.0819 76.34L13.4979 75.6921L13.0115 77.6321ZM14.8688 77.0667L13.5074 82.4967L15.4473 82.9831L16.8087 77.5531L14.8688 77.0667ZM14.2342 83.7099L16.469 84.2702L16.9554 82.3302L14.7206 81.7699L14.2342 83.7099ZM17.6822 83.5434L19.2843 77.1532L17.3443 76.6668L15.7422 83.057L17.6822 83.5434Z" fill="#E35D14"/>
<path d="M15.2759 58.3109L15.6792 57.3958L14.7641 56.9926L14.3608 57.9076L15.2759 58.3109ZM26.806 63.3919L27.7211 63.7952L28.1244 62.8801L27.2093 62.4768L26.806 63.3919ZM25.3688 66.6533L24.9656 67.5684L25.8807 67.9716L26.2839 67.0565L25.3688 66.6533ZM20.8721 64.6717L21.2753 63.7566L20.3603 63.3533L19.957 64.2684L20.8721 64.6717ZM18.9123 69.119L17.9972 68.7158L17.5939 69.6308L18.509 70.0341L18.9123 69.119ZM23.409 71.1006L24.3241 71.5039L24.7274 70.5888L23.8123 70.1855L23.409 71.1006ZM21.9718 74.362L21.5686 75.2771L22.4837 75.6803L22.8869 74.7652L21.9718 74.362ZM10.4417 69.281L9.52663 68.8777L9.12337 69.7928L10.0385 70.1961L10.4417 69.281ZM11.8789 66.0196L12.2822 65.1045L11.3671 64.7013L10.9638 65.6163L11.8789 66.0196ZM16.2109 67.9286L15.8077 68.8437L16.7228 69.2469L17.126 68.3319L16.2109 67.9286ZM18.1708 63.4813L19.0858 63.8845L19.4891 62.9694L18.574 62.5662L18.1708 63.4813ZM13.8387 61.5723L12.9236 61.169L12.5204 62.0841L13.4355 62.4874L13.8387 61.5723ZM14.8727 59.226L26.4028 64.307L27.2093 62.4768L15.6792 57.3958L14.8727 59.226ZM25.8909 62.9886L24.4537 66.25L26.2839 67.0565L27.7211 63.7952L25.8909 62.9886ZM25.7721 65.7382L21.2753 63.7566L20.4688 65.5868L24.9656 67.5684L25.7721 65.7382ZM19.957 64.2684L17.9972 68.7158L19.8274 69.5223L21.7872 65.0749L19.957 64.2684ZM18.509 70.0341L23.0058 72.0157L23.8123 70.1855L19.3155 68.2039L18.509 70.0341ZM22.4939 70.6973L21.0567 73.9587L22.8869 74.7652L24.3241 71.5039L22.4939 70.6973ZM22.3751 73.4469L10.845 68.3659L10.0385 70.1961L21.5686 75.2771L22.3751 73.4469ZM11.3568 69.6842L12.794 66.4229L10.9638 65.6163L9.52663 68.8777L11.3568 69.6842ZM11.4757 66.9347L15.8077 68.8437L16.6142 67.0135L12.2822 65.1045L11.4757 66.9347ZM17.126 68.3319L19.0858 63.8845L17.2557 63.078L15.2959 67.5254L17.126 68.3319ZM18.574 62.5662L14.242 60.6572L13.4355 62.4874L17.7675 64.3964L18.574 62.5662ZM14.7538 61.9755L16.191 58.7142L14.3608 57.9076L12.9236 61.169L14.7538 61.9755Z" fill="#E35D14"/>
<path d="M31.2098 51.9042L31.42 50.9265L30.7607 50.7848L30.3823 51.3428L31.2098 51.9042ZM28.2191 56.3136L27.3915 55.7523L27.013 56.3103L27.3885 56.8704L28.2191 56.3136ZM29.6894 58.507L30.517 59.0684L30.8954 58.5103L30.52 57.9502L29.6894 58.507ZM27.6484 61.5162L26.8007 62.0466L27.6146 63.3475L28.476 62.0775L27.6484 61.5162ZM20.3428 49.8404L19.5152 49.2791L19.1494 49.8184L19.495 50.3708L20.3428 49.8404ZM22.313 46.9356L22.4911 45.9515L21.8507 45.8356L21.4854 46.3742L22.313 46.9356ZM35.8729 49.3902L36.7005 49.9515L37.563 48.6799L36.051 48.4062L35.8729 49.3902ZM33.7915 52.459L33.5814 53.4366L34.2406 53.5783L34.6191 53.0203L33.7915 52.459ZM28.4489 51.293L29.2765 51.8543L30.107 50.6299L28.6612 50.3158L28.4489 51.293ZM24.2027 50.3705L24.415 49.3933L21.9828 48.8648L23.3733 50.9291L24.2027 50.3705ZM26.6302 53.9744L25.8008 54.5331L26.6273 55.7602L27.4578 54.5357L26.6302 53.9744ZM30.3823 51.3428L27.3915 55.7523L29.0467 56.8749L32.0374 52.4655L30.3823 51.3428ZM27.3885 56.8704L28.8587 59.0638L30.52 57.9502L29.0498 55.7568L27.3885 56.8704ZM28.8618 57.9457L26.8208 60.9549L28.476 62.0775L30.517 59.0684L28.8618 57.9457ZM28.4961 60.9857L21.1905 49.31L19.495 50.3708L26.8007 62.0466L28.4961 60.9857ZM21.1704 50.4017L23.1406 47.4969L21.4854 46.3742L19.5152 49.2791L21.1704 50.4017ZM22.1349 47.9196L35.6948 50.3742L36.051 48.4062L22.4911 45.9515L22.1349 47.9196ZM35.0453 48.8289L32.9639 51.8976L34.6191 53.0203L36.7005 49.9515L35.0453 48.8289ZM34.0016 51.4813L31.42 50.9265L30.9997 52.8818L33.5814 53.4366L34.0016 51.4813ZM28.6612 50.3158L24.415 49.3933L23.9904 51.3477L28.2366 52.2702L28.6612 50.3158ZM23.3733 50.9291L25.8008 54.5331L27.4596 53.4158L25.0321 49.8118L23.3733 50.9291ZM27.4578 54.5357L29.2765 51.8543L27.6213 50.7317L25.8026 53.4131L27.4578 54.5357Z" fill="#E35D14"/>
<path d="M36.8119 30.2231L37.5113 29.5083L36.7965 28.809L36.0972 29.5237L36.8119 30.2231ZM45.8181 39.035L46.5328 39.7344L47.2322 39.0196L46.5174 38.3202L45.8181 39.035ZM43.7662 41.1322L43.6836 42.1287L44.1521 42.1676L44.4809 41.8315L43.7662 41.1322ZM35.0773 40.4122L35.1599 39.4156L32.3948 39.1865L34.378 41.127L35.0773 40.4122ZM39.8763 45.1077L40.5911 45.8071L41.2905 45.0923L40.5757 44.3929L39.8763 45.1077ZM37.4342 47.6037L36.7348 48.3185L37.4496 49.0178L38.1489 48.3031L37.4342 47.6037ZM28.428 38.7918L27.7133 38.0924L27.0139 38.8072L27.7287 39.5066L28.428 38.7918ZM30.48 36.6947L30.5625 35.6981L30.094 35.6592L29.7652 35.9953L30.48 36.6947ZM39.1688 37.4146L39.0862 38.4112L41.8514 38.6403L39.8681 36.6998L39.1688 37.4146ZM34.3698 32.7191L33.655 32.0197L32.9557 32.7345L33.6704 33.4339L34.3698 32.7191ZM36.1126 30.9379L45.1187 39.7498L46.5174 38.3202L37.5113 29.5083L36.1126 30.9379ZM45.1033 38.3357L43.0514 40.4328L44.4809 41.8315L46.5328 39.7344L45.1033 38.3357ZM43.8487 40.1356L35.1599 39.4156L34.9948 41.4088L43.6836 42.1287L43.8487 40.1356ZM34.378 41.127L39.177 45.8225L40.5757 44.3929L35.7767 39.6975L34.378 41.127ZM39.1616 44.4084L36.7194 46.9043L38.1489 48.3031L40.5911 45.8071L39.1616 44.4084ZM38.1335 46.8889L29.1274 38.077L27.7287 39.5066L36.7348 48.3185L38.1335 46.8889ZM29.1428 39.4912L31.1947 37.394L29.7652 35.9953L27.7133 38.0924L29.1428 39.4912ZM30.3974 37.6912L39.0862 38.4112L39.2513 36.418L30.5625 35.6981L30.3974 37.6912ZM39.8681 36.6998L35.0691 32.0043L33.6704 33.4339L38.4694 38.1294L39.8681 36.6998ZM35.0846 33.4184L37.5267 30.9225L36.0972 29.5237L33.655 32.0197L35.0846 33.4184Z" fill="#E35D14"/>
<path d="M50.4128 34.6805L50.5387 35.6726L50.5523 35.6707L50.4128 34.6805ZM47.0454 34.2142L47.4413 33.2959L47.0454 34.2142ZM43.1042 28.7121L42.1074 28.7914L42.1074 28.7914L43.1042 28.7121ZM43.7568 25.3884L44.6516 25.8349L44.6535 25.8312L43.7568 25.3884ZM49.0495 21.3094L49.2538 22.2883L49.2538 22.2883L49.0495 21.3094ZM51.9497 21.4018L52.927 21.614L53.1262 20.6961L52.2226 20.4398L51.9497 21.4018ZM51.3009 24.3907L51.0468 25.3579L52.0566 25.6232L52.2781 24.6029L51.3009 24.3907ZM46.7964 26.3553L45.8925 25.9274L45.8884 25.9361L46.7964 26.3553ZM46.5309 28.1175L45.5385 28.2409L45.5395 28.2487L46.5309 28.1175ZM48.7216 31.1758L48.2702 32.0681L48.2819 32.0741L48.2937 32.0797L48.7216 31.1758ZM50.465 31.4769L50.5697 32.4714L50.5792 32.4703L50.465 31.4769ZM53.7746 27.8441L53.8882 26.8506L52.8509 26.732L52.7771 27.7735L53.7746 27.8441ZM56.8133 28.1916L57.812 28.2428L57.8601 27.3048L56.9269 27.1981L56.8133 28.1916ZM55.9675 30.9673L55.1064 30.4589L55.9675 30.9673ZM53.21 32.4653C52.2537 33.1503 51.2769 33.549 50.2733 33.6903L50.5523 35.6707C51.9086 35.4797 53.1848 34.9435 54.3747 34.0912L53.21 32.4653ZM50.2869 33.6885C49.2833 33.8159 48.3413 33.6839 47.4413 33.2959L46.6495 35.1325C47.885 35.6651 49.188 35.844 50.5387 35.6726L50.2869 33.6885ZM47.4413 33.2959C46.5544 32.9136 45.7931 32.2942 45.1561 31.4049L43.5302 32.5696C44.3607 33.7289 45.4009 34.5942 46.6495 35.1325L47.4413 33.2959ZM45.1561 31.4049C44.5191 30.5156 44.1777 29.5956 44.1011 28.6328L42.1074 28.7914C42.2152 30.1469 42.6997 31.4102 43.5302 32.5696L45.1561 31.4049ZM44.1011 28.6328C44.0235 27.658 44.2042 26.7316 44.6516 25.8349L42.862 24.9419C42.2549 26.1587 42.0005 27.4481 42.1074 28.7914L44.1011 28.6328ZM44.6535 25.8312C45.1035 24.9198 45.7904 24.1212 46.7439 23.4382L45.5792 21.8123C44.3865 22.6667 43.4702 23.7102 42.8602 24.9457L44.6535 25.8312ZM46.7439 23.4382C47.5832 22.837 48.4191 22.4626 49.2538 22.2883L48.8451 20.3305C47.7024 20.5691 46.613 21.0718 45.5792 21.8123L46.7439 23.4382ZM49.2538 22.2883C50.0891 22.114 50.892 22.1412 51.6769 22.3639L52.2226 20.4398C51.118 20.1264 49.9873 20.0921 48.8451 20.3305L49.2538 22.2883ZM50.9725 21.1897L50.3237 24.1786L52.2781 24.6029L52.927 21.614L50.9725 21.1897ZM51.555 23.4235C50.0628 23.0316 48.6585 23.2378 47.4446 24.1073L48.6092 25.7332C49.2878 25.2472 50.0662 25.1003 51.0468 25.3579L51.555 23.4235ZM47.4446 24.1073C46.7655 24.5938 46.2371 25.1995 45.8925 25.9274L47.7002 26.7831C47.8842 26.3944 48.1762 26.0434 48.6092 25.7332L47.4446 24.1073ZM45.8884 25.9361C45.5529 26.663 45.4388 27.439 45.5385 28.2409L47.5232 27.994C47.4679 27.5491 47.5308 27.1503 47.7043 26.7744L45.8884 25.9361ZM45.5395 28.2487C45.6446 29.042 45.964 29.7853 46.4568 30.4732L48.0828 29.3086C47.751 28.8454 47.5779 28.4063 47.5222 27.9862L45.5395 28.2487ZM46.4568 30.4732C46.9499 31.1616 47.5522 31.705 48.2702 32.0681L49.173 30.2835C48.7798 30.0846 48.4142 29.7713 48.0828 29.3086L46.4568 30.4732ZM48.2937 32.0797C49.0149 32.421 49.78 32.5545 50.5697 32.4714L50.3603 30.4824C49.9421 30.5264 49.545 30.4592 49.1494 30.272L48.2937 32.0797ZM50.5792 32.4703C51.3794 32.3783 52.1229 32.073 52.802 31.5865L51.6373 29.9606C51.2043 30.2708 50.778 30.4343 50.3508 30.4834L50.5792 32.4703ZM52.802 31.5865C54.0159 30.717 54.663 29.4538 54.7721 27.9148L52.7771 27.7735C52.7054 28.7848 52.3159 29.4745 51.6373 29.9606L52.802 31.5865ZM53.661 28.8377L56.6997 29.1851L56.9269 27.1981L53.8882 26.8506L53.661 28.8377ZM55.8146 28.1404C55.7728 28.9551 55.5403 29.7241 55.1064 30.4589L56.8286 31.4758C57.4218 30.4711 57.7532 29.3896 57.812 28.2428L55.8146 28.1404ZM55.1064 30.4589C54.6728 31.1931 54.0493 31.8641 53.21 32.4653L54.3747 34.0912C55.4084 33.3507 56.235 32.4811 56.8286 31.4758L55.1064 30.4589Z" fill="#E35D14"/>
<path d="M68.3183 21.6012L69.2145 21.1576L68.7709 20.2614L67.8747 20.7051L68.3183 21.6012ZM69.5402 24.0693L69.9839 24.9655L70.8801 24.5219L70.4364 23.6257L69.5402 24.0693ZM60.4744 28.5575L59.5782 29.0012L60.0218 29.8974L60.918 29.4537L60.4744 28.5575ZM54.8841 17.2656L54.4404 16.3694L53.5442 16.813L53.9879 17.7092L54.8841 17.2656ZM63.7402 12.8812L64.6364 12.4375L64.1927 11.5413L63.2966 11.985L63.7402 12.8812ZM64.9621 15.3493L65.4058 16.2455L66.302 15.8018L65.8583 14.9056L64.9621 15.3493ZM59.2677 18.1684L58.824 17.2722L57.9279 17.7159L58.3715 18.6121L59.2677 18.1684ZM60.2101 20.0719L59.3139 20.5156L59.7576 21.4117L60.6538 20.9681L60.2101 20.0719ZM65.2269 17.5882L66.1231 17.1445L65.6795 16.2483L64.7833 16.692L65.2269 17.5882ZM66.4089 19.9757L66.8526 20.8718L67.7487 20.4282L67.3051 19.532L66.4089 19.9757ZM61.392 22.4593L60.9483 21.5631L60.0522 22.0068L60.4958 22.903L61.392 22.4593ZM62.4142 24.5242L61.5181 24.9678L61.9617 25.864L62.8579 25.4203L62.4142 24.5242ZM67.4221 22.0449L68.644 24.513L70.4364 23.6257L69.2145 21.1576L67.4221 22.0449ZM69.0965 23.1732L60.0307 27.6613L60.918 29.4537L69.9839 24.9655L69.0965 23.1732ZM61.3705 28.1139L55.7803 16.8219L53.9879 17.7092L59.5782 29.0012L61.3705 28.1139ZM55.3278 18.1617L64.1839 13.7774L63.2966 11.985L54.4404 16.3694L55.3278 18.1617ZM62.844 13.3249L64.0659 15.793L65.8583 14.9056L64.6364 12.4375L62.844 13.3249ZM64.5184 14.4531L58.824 17.2722L59.7114 19.0646L65.4058 16.2455L64.5184 14.4531ZM58.3715 18.6121L59.3139 20.5156L61.1063 19.6282L60.1639 17.7247L58.3715 18.6121ZM60.6538 20.9681L65.6706 18.4844L64.7833 16.692L59.7664 19.1757L60.6538 20.9681ZM64.3308 18.0319L65.5127 20.4193L67.3051 19.532L66.1231 17.1445L64.3308 18.0319ZM65.9652 19.0795L60.9483 21.5631L61.8357 23.3555L66.8526 20.8718L65.9652 19.0795ZM60.4958 22.903L61.5181 24.9678L63.3104 24.0805L62.2882 22.0157L60.4958 22.903ZM62.8579 25.4203L68.762 22.4974L67.8747 20.7051L61.9706 23.628L62.8579 25.4203Z" fill="#E35D14"/>
<path d="M92.2091 8.20415L92.109 7.20917L91.114 7.30925L91.2141 8.30423L92.2091 8.20415ZM92.4865 10.9622L91.4915 11.0623L91.5916 12.0573L92.5866 11.9572L92.4865 10.9622ZM98.0206 10.4056L99.0156 10.3055L98.9155 9.31054L97.9205 9.41061L98.0206 10.4056ZM98.2962 13.1458L98.3963 14.1407L99.3913 14.0407L99.2912 13.0457L98.2962 13.1458ZM92.7621 13.7024L92.6621 12.7074L91.6671 12.8075L91.7672 13.8025L92.7621 13.7024ZM93.1945 18.0007L93.2946 18.9957L94.2895 18.8956L94.1895 17.9006L93.1945 18.0007ZM89.6484 18.3574L88.6534 18.4575L88.7535 19.4525L89.7485 19.3524L89.6484 18.3574ZM88.3874 5.82066L88.2873 4.82568L87.2923 4.92576L87.3924 5.92074L88.3874 5.82066ZM98.2198 4.83168L99.2147 4.7316L99.1147 3.73662L98.1197 3.8367L98.2198 4.83168ZM98.4954 7.57185L98.5955 8.56683L99.5904 8.46675L99.4904 7.47177L98.4954 7.57185ZM91.2141 8.30423L91.4915 11.0623L93.4815 10.8622L93.2041 8.10407L91.2141 8.30423ZM92.5866 11.9572L98.1207 11.4006L97.9205 9.41061L92.3864 9.96725L92.5866 11.9572ZM97.0256 10.5057L97.3012 13.2458L99.2912 13.0457L99.0156 10.3055L97.0256 10.5057ZM98.1961 12.1508L92.6621 12.7074L92.8622 14.6974L98.3963 14.1407L98.1961 12.1508ZM91.7672 13.8025L92.1995 18.1008L94.1895 17.9006L93.7571 13.6023L91.7672 13.8025ZM93.0944 17.0057L89.5483 17.3624L89.7485 19.3524L93.2946 18.9957L93.0944 17.0057ZM90.6434 18.2573L89.3824 5.72058L87.3924 5.92074L88.6534 18.4575L90.6434 18.2573ZM88.4875 6.81564L98.3198 5.82666L98.1197 3.8367L88.2873 4.82568L88.4875 6.81564ZM97.2248 4.93176L97.5004 7.67193L99.4904 7.47177L99.2147 4.7316L97.2248 4.93176ZM98.3953 6.57687L92.109 7.20917L92.3092 9.19913L98.5955 8.56683L98.3953 6.57687Z" fill="white"/>
<path d="M110.976 15.3235L111.924 15.0065L111.71 14.367L111.037 14.3254L110.976 15.3235ZM105.658 14.9948L105.72 13.9967L105.047 13.9551L104.756 14.5634L105.658 14.9948ZM104.519 17.3771L104.457 18.3752L105.13 18.4168L105.421 17.8085L104.519 17.3771ZM100.89 17.1528L100.001 16.6933L99.2964 18.0562L100.828 18.1509L100.89 17.1528ZM107.218 4.91989L107.28 3.92179L106.63 3.88159L106.33 4.46039L107.218 4.91989ZM110.722 5.13643L111.659 4.78868L111.433 4.17848L110.783 4.13833L110.722 5.13643ZM115.514 18.0567L115.452 19.0548L116.986 19.1496L116.451 17.7089L115.514 18.0567ZM111.813 17.8279L110.864 18.1449L111.078 18.7844L111.751 18.826L111.813 17.8279ZM110.096 12.6361L110.034 13.6342L111.511 13.7255L111.045 12.3212L110.096 12.6361ZM108.728 8.51184L109.677 8.19698L108.893 5.83468L107.825 8.08249L108.728 8.51184ZM106.862 12.4362L105.959 12.0069L105.324 13.343L106.8 13.4343L106.862 12.4362ZM111.037 14.3254L105.72 13.9967L105.596 15.9929L110.914 16.3216L111.037 14.3254ZM104.756 14.5634L103.617 16.9457L105.421 17.8085L106.56 15.4262L104.756 14.5634ZM104.58 16.379L100.951 16.1547L100.828 18.1509L104.457 18.3752L104.58 16.379ZM101.778 17.6123L108.107 5.37939L106.33 4.46039L100.001 16.6933L101.778 17.6123ZM107.157 5.91798L110.66 6.13452L110.783 4.13833L107.28 3.92179L107.157 5.91798ZM109.784 5.48418L114.576 18.4044L116.451 17.7089L111.659 4.78868L109.784 5.48418ZM115.575 17.0586L111.874 16.8298L111.751 18.826L115.452 19.0548L115.575 17.0586ZM112.761 17.5109L111.924 15.0065L110.027 15.6405L110.864 18.1449L112.761 17.5109ZM111.045 12.3212L109.677 8.19698L107.779 8.82671L109.147 12.951L111.045 12.3212ZM107.825 8.08249L105.959 12.0069L107.765 12.8656L109.631 8.9412L107.825 8.08249ZM106.8 13.4343L110.034 13.6342L110.158 11.638L106.924 11.4381L106.8 13.4343Z" fill="white"/>
<path d="M120.626 18.6196L119.957 19.3626L119.967 19.3716L120.626 18.6196ZM118.782 15.7641L119.736 15.4646L118.782 15.7641ZM120.378 9.18693L119.667 8.48348L119.667 8.48348L120.378 9.18693ZM123.322 7.51191L123.567 8.48124L123.571 8.4802L123.322 7.51191ZM129.866 8.85921L129.258 9.65295L129.258 9.65295L129.866 8.85921ZM131.689 11.1168L132.167 11.9956L132.992 11.5474L132.596 10.6955L131.689 11.1168ZM129.002 12.5761L128.103 13.0149L128.561 13.9531L129.479 13.4549L129.002 12.5761ZM124.573 10.4457L124.307 9.48168L124.298 9.48432L124.573 10.4457ZM123.065 11.3948L122.323 10.7236L122.318 10.7295L123.065 11.3948ZM122.178 15.0507L121.207 15.2912L121.21 15.3039L121.214 15.3166L122.178 15.0507ZM123.087 16.5681L122.402 17.2966L122.409 17.3031L123.087 16.5681ZM128 16.7043L128.827 16.1419L128.239 15.2786L127.402 15.9025L128 16.7043ZM129.72 19.2332L130.333 20.0233L131.075 19.4475L130.547 18.6708L129.72 19.2332ZM127.065 20.4042L126.888 19.42L127.065 20.4042ZM124.13 19.2928C122.987 19.0155 122.048 18.5356 121.285 17.8676L119.967 19.3716C120.997 20.2744 122.236 20.8913 123.659 21.2364L124.13 19.2928ZM121.296 17.8767C120.544 17.1995 120.029 16.3997 119.736 15.4646L117.827 16.0636C118.23 17.3472 118.945 18.4511 119.957 19.3625L121.296 17.8767ZM119.736 15.4646C119.446 14.5431 119.419 13.5621 119.677 12.4991L117.733 12.0275C117.397 13.4134 117.42 14.7662 117.827 16.0636L119.736 15.4646ZM119.677 12.4991C119.935 11.436 120.409 10.5768 121.088 9.89038L119.667 8.48348C118.71 9.44991 118.069 10.6416 117.733 12.0275L119.677 12.4991ZM121.088 9.89038C121.776 9.19532 122.596 8.72752 123.567 8.48123L123.076 6.54258C121.758 6.87679 120.615 7.52568 119.667 8.48348L121.088 9.89038ZM123.571 8.4802C124.556 8.22626 125.609 8.22541 126.749 8.50197L127.22 6.55837C125.795 6.21241 124.406 6.19938 123.072 6.54361L123.571 8.4802ZM126.749 8.50197C127.752 8.74541 128.581 9.13429 129.258 9.65295L130.475 8.06547C129.548 7.35538 128.456 6.85823 127.22 6.55837L126.749 8.50197ZM129.258 9.65295C129.935 10.172 130.439 10.7981 130.782 11.538L132.596 10.6955C132.113 9.65414 131.401 8.77517 130.475 8.06547L129.258 9.65295ZM131.212 10.2379L128.524 11.6973L129.479 13.4549L132.167 11.9956L131.212 10.2379ZM129.9 12.1373C129.223 10.751 128.15 9.82169 126.699 9.46957L126.228 11.4132C127.039 11.61 127.658 12.1039 128.103 13.0149L129.9 12.1373ZM126.699 9.46957C125.887 9.2726 125.084 9.26764 124.307 9.48172L124.839 11.4098C125.253 11.2954 125.71 11.2876 126.228 11.4132L126.699 9.46957ZM124.298 9.48432C123.528 9.70452 122.866 10.1246 122.323 10.7236L123.806 12.0661C124.107 11.7337 124.45 11.521 124.848 11.4072L124.298 9.48432ZM122.318 10.7295C121.786 11.3268 121.431 12.054 121.232 12.8764L123.175 13.348C123.31 12.7943 123.529 12.3766 123.811 12.0602L122.318 10.7295ZM121.232 12.8764C121.032 13.6993 121.013 14.5102 121.207 15.2912L123.148 14.8103C123.042 14.3826 123.041 13.9011 123.175 13.348L121.232 12.8764ZM121.214 15.3166C121.426 16.0857 121.824 16.7525 122.402 17.2965L123.773 15.8396C123.466 15.5516 123.258 15.2068 123.142 14.7849L121.214 15.3166ZM122.409 17.3031C123.001 17.8492 123.718 18.2132 124.53 18.4101L125.001 16.4665C124.484 16.3409 124.082 16.1247 123.765 15.8331L122.409 17.3031ZM124.53 18.4101C125.981 18.7623 127.36 18.428 128.597 17.5061L127.402 15.9025C126.589 16.5083 125.813 16.6634 125.001 16.4665L124.53 18.4101ZM127.173 17.2667L128.893 19.7957L130.547 18.6708L128.827 16.1419L127.173 17.2667ZM129.107 18.4432C128.462 18.9433 127.728 19.2691 126.888 19.42L127.242 21.3884C128.39 21.1821 129.426 20.7272 130.333 20.0233L129.107 18.4432ZM126.888 19.42C126.049 19.5707 125.134 19.5363 124.13 19.2928L123.659 21.2364C124.894 21.5363 126.093 21.5949 127.242 21.3884L126.888 19.42Z" fill="white"/>
<path d="M143.349 20.0262L143.284 19.0283L140.954 19.1797L142.671 20.7617L143.349 20.0262ZM144.431 21.7876L143.46 22.0247L143.462 22.0352L144.431 21.7876ZM141.993 25.6169L142.179 26.5996L142.179 26.5996L141.993 25.6169ZM131.854 22.219L130.936 21.8226L130.539 22.7406L131.457 23.1371L131.854 22.219ZM136.849 10.6513L137.245 9.73323L136.327 9.33681L135.93 10.2549L136.849 10.6513ZM145.779 15.4877L144.923 16.0044L144.928 16.0125L145.779 15.4877ZM144.931 19.494L144.363 18.6712L144.357 18.6752L144.931 19.494ZM139.067 14.413L139.464 13.4949L138.545 13.0985L138.149 14.0166L139.067 14.413ZM138.104 16.6439L137.186 16.2475L136.789 17.1655L137.707 17.562L138.104 16.6439ZM137.126 18.9078L137.523 17.9898L136.605 17.5934L136.208 18.5114L137.126 18.9078ZM136.113 21.2544L135.195 20.858L134.799 21.7761L135.717 22.1725L136.113 21.2544ZM142.671 20.7617C143.107 21.1625 143.352 21.5824 143.46 22.0247L145.403 21.5504C145.19 20.6777 144.713 19.9234 144.026 19.2906L142.671 20.7617ZM143.462 22.0352C143.566 22.4392 143.536 22.8827 143.311 23.402L145.148 24.1948C145.523 23.326 145.627 22.4289 145.4 21.5399L143.462 22.0352ZM143.311 23.402C143.001 24.1216 142.523 24.4993 141.808 24.6343L142.179 26.5996C143.57 26.3369 144.583 25.5023 145.148 24.1948L143.311 23.402ZM141.808 24.6343C141.033 24.7806 139.952 24.6265 138.497 23.9981L137.704 25.8343C139.333 26.5379 140.847 26.851 142.179 26.5996L141.808 24.6343ZM138.497 23.9981L132.25 21.3009L131.457 23.1371L137.704 25.8343L138.497 23.9981ZM132.772 22.6154L137.767 11.0477L135.93 10.2549L130.936 21.8226L132.772 22.6154ZM136.452 11.5694L142.368 14.1239L143.161 12.2877L137.245 9.73323L136.452 11.5694ZM142.368 14.1239C143.752 14.7216 144.542 15.3735 144.923 16.0044L146.635 14.9711C145.949 13.8343 144.729 12.9649 143.161 12.2877L142.368 14.1239ZM144.928 16.0125C145.298 16.6133 145.336 17.1689 145.069 17.7886L146.905 18.5815C147.436 17.3504 147.336 16.1078 146.63 14.9629L144.928 16.0125ZM145.069 17.7886C144.9 18.1782 144.665 18.4625 144.363 18.6712L145.5 20.3167C146.129 19.8819 146.597 19.2936 146.905 18.5815L145.069 17.7886ZM144.357 18.6752C144.073 18.8747 143.726 18.9996 143.284 19.0283L143.414 21.0241C144.182 20.9741 144.89 20.7442 145.506 20.3127L144.357 18.6752ZM138.149 14.0166L137.186 16.2475L139.022 17.0403L139.985 14.8094L138.149 14.0166ZM137.707 17.562L139.955 18.5324L140.748 16.6962L138.5 15.7258L137.707 17.562ZM139.955 18.5324C140.581 18.8028 141.256 18.9742 141.9 18.8506C142.627 18.7113 143.133 18.2349 143.407 17.6006L141.571 16.8077C141.539 16.8823 141.516 16.8972 141.524 16.8911C141.535 16.8817 141.543 16.8828 141.524 16.8865C141.455 16.8996 141.223 16.9016 140.748 16.6962L139.955 18.5324ZM143.407 17.6006C143.681 16.966 143.674 16.2724 143.275 15.6533C142.922 15.106 142.335 14.735 141.711 14.4653L140.918 16.3015C141.395 16.5075 141.556 16.6778 141.594 16.7374C141.605 16.7539 141.597 16.7472 141.596 16.7292C141.596 16.7158 141.601 16.7379 141.571 16.8077L143.407 17.6006ZM141.711 14.4653L139.464 13.4949L138.671 15.331L140.918 16.3015L141.711 14.4653ZM138.46 23.357C139.109 23.6371 139.803 23.8117 140.462 23.6839C141.203 23.5404 141.719 23.0535 142 22.4041L140.163 21.6113C140.145 21.6532 140.129 21.6797 140.118 21.6951C140.108 21.71 140.102 21.7153 140.101 21.7156C140.101 21.716 140.101 21.7157 140.102 21.7152C140.103 21.7147 140.103 21.7145 140.103 21.7145C140.103 21.7146 140.102 21.7152 140.099 21.7163C140.095 21.7173 140.09 21.7188 140.082 21.7204C139.999 21.7364 139.75 21.7355 139.253 21.5209L138.46 23.357ZM142 22.4041C142.28 21.7548 142.28 21.0451 141.877 20.4075C141.518 19.84 140.915 19.4544 140.266 19.1743L139.473 21.0104C139.97 21.225 140.142 21.406 140.187 21.4769C140.191 21.484 140.194 21.4891 140.195 21.4921C140.197 21.4951 140.197 21.4966 140.197 21.4967C140.197 21.4968 140.197 21.4962 140.197 21.4954C140.197 21.4945 140.197 21.4941 140.197 21.4946C140.197 21.4951 140.197 21.5032 140.194 21.5212C140.19 21.5396 140.182 21.5694 140.163 21.6113L142 22.4041ZM140.266 19.1743L137.523 17.9898L136.73 19.8259L139.473 21.0104L140.266 19.1743ZM136.208 18.5114L135.195 20.858L137.031 21.6509L138.044 19.3043L136.208 18.5114ZM135.717 22.1725L138.46 23.357L139.253 21.5209L136.509 20.3364L135.717 22.1725Z" fill="white"/>
<path d="M154.997 31.37L155.839 31.9099L156.379 31.0682L155.537 30.5283L154.997 31.37ZM153.51 33.6881L152.97 34.5298L153.812 35.0698L154.352 34.228L153.51 33.6881ZM144.995 28.2264L144.154 27.6865L143.614 28.5282L144.455 29.0681L144.995 28.2264ZM151.798 17.6207L152.338 16.779L151.496 16.239L150.957 17.0808L151.798 17.6207ZM160.116 22.9561L160.958 23.496L161.498 22.6543L160.656 22.1144L160.116 22.9561ZM158.629 25.2742L158.089 26.1159L158.931 26.6558L159.471 25.8141L158.629 25.2742ZM153.281 21.8436L153.821 21.0019L152.979 20.462L152.439 21.3037L153.281 21.8436ZM152.134 23.6314L151.292 23.0915L150.753 23.9332L151.594 24.4731L152.134 23.6314ZM156.846 26.6538L157.688 27.1937L158.228 26.352L157.386 25.8121L156.846 26.6538ZM155.408 28.8962L154.868 29.7379L155.71 30.2778L156.25 29.4361L155.408 28.8962ZM150.696 25.8738L151.236 25.032L150.394 24.4921L149.854 25.3338L150.696 25.8738ZM149.452 27.8131L148.61 27.2732L148.07 28.1149L148.912 28.6548L149.452 27.8131ZM154.155 30.8301L152.669 33.1482L154.352 34.228L155.839 31.9099L154.155 30.8301ZM154.05 32.8464L145.535 27.3847L144.455 29.0681L152.97 34.5298L154.05 32.8464ZM145.837 28.7663L152.64 18.1606L150.957 17.0808L144.154 27.6865L145.837 28.7663ZM151.258 18.4624L159.576 23.7978L160.656 22.1144L152.338 16.779L151.258 18.4624ZM159.274 22.4162L157.788 24.7343L159.471 25.8141L160.958 23.496L159.274 22.4162ZM159.169 24.4325L153.821 21.0019L152.741 22.6853L158.089 26.1159L159.169 24.4325ZM152.439 21.3037L151.292 23.0915L152.976 24.1713L154.123 22.3835L152.439 21.3037ZM151.594 24.4731L156.306 27.4955L157.386 25.8121L152.674 22.7897L151.594 24.4731ZM156.004 26.1139L154.566 28.3563L156.25 29.4361L157.688 27.1937L156.004 26.1139ZM155.948 28.0545L151.236 25.032L150.156 26.7155L154.868 29.7379L155.948 28.0545ZM149.854 25.3338L148.61 27.2732L150.294 28.353L151.538 26.4137L149.854 25.3338ZM148.912 28.6548L154.457 32.2117L155.537 30.5283L149.992 26.9714L148.912 28.6548Z" fill="white"/>
<path d="M158.721 37.0878L157.777 37.4164L157.778 37.4208L158.721 37.0878ZM158.47 33.6713L157.491 33.4694L157.489 33.4781L158.47 33.6713ZM163.036 28.7246L162.765 27.762L162.757 27.7645L163.036 28.7246ZM166.462 28.7023L166.719 27.7358L166.714 27.7346L166.462 28.7023ZM171.739 33.5737L170.795 33.9023L170.796 33.9068L171.739 33.5737ZM171.991 36.9902L171.011 36.7884L171.009 36.797L171.991 36.9902ZM167.424 41.9369L167.153 40.9743L167.145 40.9767L167.424 41.9369ZM163.999 41.9592L164.255 40.9927L164.251 40.9916L163.999 41.9592ZM164.37 38.8236L164.153 39.7997L164.153 39.7997L164.37 38.8236ZM166.124 38.7279L166.437 39.6778L166.446 39.6748L166.124 38.7279ZM168.676 35.9636L167.706 35.7185L167.704 35.7275L168.676 35.9636ZM168.643 34.1943L169.599 33.9L169.599 33.9L168.643 34.1943ZM166.104 31.8502L166.321 30.874L166.321 30.874L166.104 31.8502ZM164.338 31.959L164.651 32.9088L164.659 32.9059L164.338 31.959ZM161.786 34.7233L160.816 34.4782L160.814 34.4873L161.786 34.7233ZM161.831 36.4794L162.786 36.1851L162.786 36.1851L161.831 36.4794ZM161.471 39.4165C160.599 38.6118 160.007 37.7248 159.664 36.7548L157.778 37.4208C158.24 38.7284 159.029 39.8838 160.115 40.8861L161.471 39.4165ZM159.666 36.7592C159.329 35.7919 159.261 34.833 159.451 33.8645L157.489 33.4781C157.228 34.8035 157.327 36.1223 157.777 37.4164L159.666 36.7592ZM159.45 33.8731C159.645 32.9255 160.094 32.0594 160.827 31.2658L159.357 29.9092C158.397 30.9497 157.765 32.1394 157.491 33.4694L159.45 33.8731ZM160.827 31.2658C161.559 30.4722 162.387 29.9552 163.316 29.6848L162.757 27.7645C161.453 28.1439 160.318 28.8687 159.357 29.9092L160.827 31.2658ZM163.307 29.6872C164.258 29.4198 165.219 29.4117 166.21 29.67L166.714 27.7346C165.388 27.3891 164.066 27.396 162.765 27.762L163.307 29.6872ZM166.205 29.6688C167.2 29.9328 168.131 30.4526 169.003 31.2573L170.359 29.7877C169.274 28.7854 168.059 28.0917 166.719 27.7358L166.205 29.6688ZM169.003 31.2573C169.875 32.062 170.461 32.9437 170.795 33.9023L172.684 33.2451C172.231 31.9424 171.445 30.7899 170.359 29.7877L169.003 31.2573ZM170.796 33.9068C171.14 34.8809 171.208 35.8349 171.011 36.7884L172.97 37.1921C173.243 35.8679 173.143 34.5442 172.682 33.2407L170.796 33.9068ZM171.009 36.797C170.822 37.7503 170.377 38.6172 169.647 39.4079L171.117 40.7645C172.08 39.7212 172.708 38.5241 172.972 37.1835L171.009 36.797ZM169.647 39.4079C168.917 40.1987 168.089 40.711 167.153 40.9743L167.695 42.8995C169.011 42.5292 170.154 41.8078 171.117 40.7645L169.647 39.4079ZM167.145 40.9767C166.21 41.2487 165.254 41.2579 164.255 40.9927L163.742 42.9257C165.078 43.2806 166.406 43.2748 167.704 42.8971L167.145 40.9767ZM164.251 40.9916C163.269 40.7356 162.343 40.2212 161.471 39.4165L160.115 40.8861C161.2 41.8882 162.412 42.5792 163.747 42.9269L164.251 40.9916ZM162.117 38.7169C162.705 39.2599 163.387 39.6293 164.153 39.7997L164.587 37.8474C164.188 37.7587 163.82 37.5671 163.473 37.2473L162.117 38.7169ZM164.153 39.7997C164.918 39.9698 165.686 39.9253 166.437 39.6777L165.811 37.7782C165.389 37.9172 164.988 37.9365 164.587 37.8474L164.153 39.7997ZM166.446 39.6748C167.218 39.4125 167.893 38.9497 168.472 38.3227L167.002 36.9661C166.62 37.3796 166.22 37.6392 165.802 37.7811L166.446 39.6748ZM168.472 38.3227C169.05 37.696 169.456 36.9879 169.648 36.1997L167.704 35.7275C167.604 36.1399 167.384 36.5523 167.002 36.9661L168.472 38.3227ZM169.645 36.2087C169.842 35.4317 169.832 34.655 169.599 33.9L167.688 34.4886C167.806 34.8746 167.818 35.2774 167.706 35.7185L169.645 36.2087ZM169.599 33.9C169.368 33.1497 168.945 32.4998 168.357 31.9568L167.001 33.4264C167.347 33.7462 167.567 34.0981 167.688 34.4887L169.599 33.9ZM168.357 31.9568C167.769 31.4138 167.087 31.0444 166.321 30.874L165.887 32.8263C166.286 32.915 166.654 33.1066 167.001 33.4264L168.357 31.9568ZM166.321 30.874C165.55 30.7026 164.775 30.7543 164.016 31.0122L164.659 32.9059C165.09 32.7595 165.493 32.7387 165.887 32.8263L166.321 30.874ZM164.025 31.0092C163.254 31.2631 162.581 31.7244 162.002 32.351L163.472 33.7076C163.854 33.2938 164.248 33.0416 164.651 32.9088L164.025 31.0092ZM162.002 32.351C161.424 32.9781 161.016 33.6878 160.816 34.4782L162.755 34.9684C162.864 34.5407 163.09 34.1211 163.472 33.7076L162.002 32.351ZM160.814 34.4873C160.627 35.2561 160.644 36.025 160.875 36.7737L162.786 36.1851C162.666 35.793 162.653 35.3911 162.758 34.9594L160.814 34.4873ZM160.875 36.7737C161.106 37.524 161.529 38.1739 162.117 38.7169L163.473 37.2473C163.127 36.9276 162.907 36.5757 162.786 36.1851L160.875 36.7737Z" fill="white"/>
<path d="M170.293 48.9015L169.304 49.0466L169.304 49.0512L170.293 48.9015ZM170.689 45.4987L169.765 45.1162L169.761 45.1244L170.689 45.4987ZM176.104 41.4989L176.019 40.5025L176.01 40.5033L176.104 41.4989ZM179.472 42.1211L179.906 41.2201L179.902 41.2181L179.472 42.1211ZM183.739 47.8981L182.75 48.0432L182.751 48.0478L183.739 47.8981ZM183.344 51.3009L182.42 50.9184L182.417 50.9266L183.344 51.3009ZM177.929 55.3006L177.844 54.3042L177.835 54.305L177.929 55.3006ZM174.56 54.6784L174.994 53.7774L174.99 53.7754L174.56 54.6784ZM175.515 51.6685L175.118 52.5864L175.118 52.5864L175.515 51.6685ZM177.255 51.9044L177.384 52.8961L177.393 52.8948L177.255 51.9044ZM180.281 49.6692L179.375 49.2462L179.371 49.2546L180.281 49.6692ZM180.582 47.9254L181.576 47.816L181.576 47.816L180.582 47.9254ZM178.529 45.1455L178.925 44.2276L178.925 44.2276L178.529 45.1455ZM176.773 44.9203L176.902 45.912L176.911 45.9107L176.773 44.9203ZM173.747 47.1554L172.841 46.7324L172.837 46.7408L173.747 47.1554ZM173.461 48.8886L174.455 48.7793L174.455 48.7793L173.461 48.8886ZM172.556 51.7057C171.851 50.7514 171.436 49.7689 171.282 48.7517L169.304 49.0512C169.512 50.4224 170.069 51.7053 170.947 52.8939L172.556 51.7057ZM171.282 48.7563C171.134 47.743 171.247 46.7883 171.616 45.8729L169.761 45.1244C169.256 46.3771 169.105 47.6909 169.304 49.0466L171.282 48.7563ZM171.613 45.8811C171.983 44.9871 172.587 44.2209 173.456 43.5792L172.267 41.9705C171.128 42.8118 170.284 43.8615 169.765 45.1162L171.613 45.8811ZM173.456 43.5792C174.324 42.9376 175.234 42.5853 176.198 42.4945L176.01 40.5033C174.658 40.6308 173.406 41.1292 172.267 41.9705L173.456 43.5792ZM176.189 42.4953C177.172 42.4113 178.118 42.5842 179.043 43.0242L179.902 41.2181C178.665 40.6295 177.365 40.3876 176.019 40.5025L176.189 42.4953ZM179.039 43.0221C179.965 43.4684 180.783 44.1541 181.487 45.1083L183.096 43.9201C182.218 42.7315 181.156 41.8218 179.906 41.2201L179.039 43.0221ZM181.487 45.1083C182.192 46.0627 182.603 47.039 182.75 48.0432L184.729 47.7529C184.529 46.3882 183.974 45.1085 183.096 43.9201L181.487 45.1083ZM182.751 48.0478C182.905 49.0693 182.792 50.019 182.42 50.9184L184.268 51.6833C184.785 50.434 184.935 49.1151 184.728 47.7483L182.751 48.0478ZM182.417 50.9266C182.053 51.8275 181.453 52.5954 180.588 53.2348L181.776 54.8435C182.918 53.9999 183.76 52.9422 184.271 51.6751L182.417 50.9266ZM180.588 53.2348C179.722 53.8742 178.812 54.2215 177.844 54.3042L178.014 56.297C179.375 56.1807 180.634 55.6871 181.776 54.8435L180.588 53.2348ZM177.835 54.305C176.866 54.3964 175.925 54.2256 174.994 53.7774L174.126 55.5794C175.372 56.1791 176.677 56.4231 178.023 56.2962L177.835 54.305ZM174.99 53.7754C174.073 53.3393 173.261 52.66 172.556 51.7057L170.947 52.8939C171.825 54.0824 172.885 54.9888 174.131 55.5814L174.99 53.7754ZM173.322 51.14C173.797 51.784 174.397 52.2749 175.118 52.5864L175.911 50.7506C175.536 50.5884 175.21 50.331 174.93 49.9518L173.322 51.14ZM175.118 52.5864C175.837 52.8972 176.599 52.9979 177.384 52.8961L177.127 50.9127C176.686 50.9699 176.288 50.9133 175.911 50.7505L175.118 52.5864ZM177.393 52.8948C178.201 52.7824 178.951 52.4548 179.637 51.9478L178.449 50.3391C177.996 50.6734 177.554 50.8531 177.117 50.914L177.393 52.8948ZM179.637 51.9478C180.323 51.4411 180.855 50.822 181.191 50.0838L179.371 49.2546C179.195 49.6408 178.902 50.0045 178.449 50.3391L179.637 51.9478ZM181.187 50.0923C181.526 49.3661 181.662 48.6013 181.576 47.816L179.588 48.0347C179.632 48.4361 179.568 48.8339 179.375 49.2462L181.187 50.0923ZM181.576 47.816C181.49 47.0357 181.197 46.3179 180.722 45.674L179.113 46.8622C179.393 47.2414 179.543 47.6285 179.588 48.0347L181.576 47.816ZM180.722 45.674C180.246 45.03 179.646 44.5391 178.925 44.2276L178.132 46.0634C178.507 46.2256 178.833 46.483 179.113 46.8622L180.722 45.674ZM178.925 44.2276C178.2 43.9142 177.429 43.8193 176.636 43.9299L176.911 45.9107C177.362 45.848 177.761 45.9032 178.132 46.0634L178.925 44.2276ZM176.645 43.9286C175.84 44.033 175.092 44.3595 174.406 44.8662L175.594 46.4749C176.047 46.1403 176.481 45.9666 176.902 45.912L176.645 43.9286ZM174.406 44.8662C173.72 45.3732 173.186 45.9937 172.841 46.7324L174.654 47.5785C174.84 47.1787 175.142 46.8092 175.594 46.4749L174.406 44.8662ZM172.837 46.7408C172.509 47.4609 172.382 48.2192 172.467 48.998L174.455 48.7793C174.41 48.3714 174.473 47.9743 174.657 47.57L172.837 46.7408ZM172.467 48.998C172.553 49.7783 172.846 50.4961 173.322 51.14L174.93 49.9518C174.65 49.5726 174.5 49.1855 174.455 48.7793L172.467 48.998Z" fill="white"/>
<path d="M183.974 63.0213L184.874 63.4576L185.382 62.4105L184.27 62.0661L183.974 63.0213ZM182.113 62.4446L182.409 61.4894L182.031 61.3725L181.676 61.5452L182.113 62.4446ZM179.28 63.8212L178.38 64.2582L178.817 65.1577L179.717 64.7207L179.28 63.8212ZM177.738 60.6479L177.301 59.7485L176.401 60.1855L176.838 61.0849L177.738 60.6479ZM189.071 55.1416L189.971 54.7046L189.533 53.8051L188.634 54.2421L189.071 55.1416ZM190.613 58.3149L191.05 59.2143L191.949 58.7773L191.512 57.8779L190.613 58.3149ZM185.901 60.6039L185.464 59.7045L183.179 60.815L185.608 61.56L185.901 60.6039ZM192.745 62.7024L193.644 62.2654L193.454 61.874L193.038 61.7464L192.745 62.7024ZM194.459 66.2319L194.171 67.1893L196.357 67.8485L195.359 65.7949L194.459 66.2319ZM187.191 64.04L187.479 63.0826L186.671 62.8388L186.295 63.595L187.191 64.04ZM183.244 71.9811L182.345 72.4181L183.234 74.2485L184.14 72.4261L183.244 71.9811ZM181.435 68.2573L180.535 67.821L180.323 68.2577L180.536 68.6943L181.435 68.2573ZM184.27 62.0661L182.409 61.4894L181.817 63.3998L183.678 63.9765L184.27 62.0661ZM181.676 61.5452L178.843 62.9217L179.717 64.7207L182.55 63.3441L181.676 61.5452ZM180.179 63.3842L178.637 60.2109L176.838 61.0849L178.38 64.2582L180.179 63.3842ZM178.175 61.5474L189.508 56.0411L188.634 54.2421L177.301 59.7485L178.175 61.5474ZM188.172 55.5786L189.713 58.7519L191.512 57.8779L189.971 54.7046L188.172 55.5786ZM190.176 57.4154L185.464 59.7045L186.338 61.5034L191.05 59.2143L190.176 57.4154ZM185.608 61.56L192.451 63.6585L193.038 61.7464L186.195 59.6479L185.608 61.56ZM191.845 63.1395L193.56 66.6689L195.359 65.7949L193.644 62.2654L191.845 63.1395ZM194.748 65.2745L187.479 63.0826L186.902 64.9974L194.171 67.1893L194.748 65.2745ZM186.295 63.595L182.349 71.536L184.14 72.4261L188.086 64.4851L186.295 63.595ZM184.144 71.5441L182.334 67.8203L180.536 68.6943L182.345 72.4181L184.144 71.5441ZM182.335 68.6937L184.874 63.4576L183.074 62.5849L180.535 67.821L182.335 68.6937Z" fill="white"/>
<path d="M200.453 89.2017L201.446 89.0825L201.327 88.0897L200.334 88.2089L200.453 89.2017ZM200.878 92.7403L200.997 93.7332L201.99 93.614L201.871 92.6211L200.878 92.7403ZM188.368 94.2421L187.375 94.3613L187.494 95.3542L188.487 95.235L188.368 94.2421ZM187.943 90.7035L187.824 89.7106L186.831 89.8298L186.95 90.8227L187.943 90.7035ZM199.461 89.3209L199.885 92.8595L201.871 92.6211L201.446 89.0825L199.461 89.3209ZM200.759 91.7474L188.249 93.2492L188.487 95.235L200.997 93.7332L200.759 91.7474ZM189.361 94.1229L188.936 90.5843L186.95 90.8227L187.375 94.3613L189.361 94.1229ZM188.062 91.6964L200.573 90.1946L200.334 88.2089L187.824 89.7106L188.062 91.6964Z" fill="white"/>
<path d="M201.325 110.542L201.309 111.542L202.309 111.558L202.325 110.558L201.325 110.542ZM188.726 110.348L187.726 110.332L187.711 111.332L188.711 111.348L188.726 110.348ZM188.771 107.414L188.146 106.634L187.779 106.929L187.772 107.399L188.771 107.414ZM195.571 101.956L196.197 102.736L198.36 100.999L195.586 100.957L195.571 101.956ZM188.857 101.853L187.857 101.837L187.842 102.837L188.842 102.853L188.857 101.853ZM188.911 98.3611L188.927 97.3613L187.927 97.3458L187.911 98.3457L188.911 98.3611ZM201.51 98.5557L202.51 98.5711L202.525 97.5712L201.525 97.5558L201.51 98.5557ZM201.464 101.489L202.09 102.269L202.457 101.975L202.464 101.505L201.464 101.489ZM194.665 106.947L194.039 106.167L191.876 107.904L194.65 107.947L194.665 106.947ZM201.379 107.051L202.378 107.066L202.394 106.066L201.394 106.051L201.379 107.051ZM201.34 109.542L188.742 109.348L188.711 111.348L201.309 111.542L201.34 109.542ZM189.726 110.363L189.771 107.43L187.772 107.399L187.726 110.332L189.726 110.363ZM189.397 108.194L196.197 102.736L194.945 101.177L188.146 106.634L189.397 108.194ZM195.586 100.957L188.873 100.853L188.842 102.853L195.555 102.956L195.586 100.957ZM189.857 101.868L189.911 98.3766L187.911 98.3457L187.857 101.837L189.857 101.868ZM188.896 99.361L201.494 99.5556L201.525 97.5558L188.927 97.3613L188.896 99.361ZM200.51 98.5402L200.465 101.474L202.464 101.505L202.51 98.5711L200.51 98.5402ZM200.839 100.709L194.039 106.167L195.291 107.727L202.09 102.269L200.839 100.709ZM194.65 107.947L201.363 108.051L201.394 106.051L194.681 105.947L194.65 107.947ZM200.379 107.035L200.325 110.527L202.325 110.558L202.378 107.066L200.379 107.035Z" fill="white"/>
<path d="M188.186 115.234L189.093 115.654L188.186 115.234ZM189.59 113.108L190.151 112.28L189.469 111.818L188.885 112.399L189.59 113.108ZM191.971 114.722L192.696 115.411L193.508 114.557L192.532 113.895L191.971 114.722ZM190.74 116.495L191.629 116.952L191.629 116.952L190.74 116.495ZM191.549 120.352L190.733 119.775L190.722 119.79L190.712 119.806L191.549 120.352ZM192.428 118.608L193.351 118.993L193.354 118.987L192.428 118.608ZM193.484 116.383L192.626 115.871L192.621 115.878L192.617 115.885L193.484 116.383ZM198.992 115.649L198.289 116.361L198.296 116.367L198.992 115.649ZM200.115 117.752L201.089 117.526L201.088 117.521L200.115 117.752ZM199.39 123.236L198.474 122.836L198.471 122.842L198.468 122.849L199.39 123.236ZM198.219 125.184L197.679 126.026L198.411 126.496L198.978 125.835L198.219 125.184ZM195.807 123.637L195.025 123.015L194.335 123.881L195.267 124.479L195.807 123.637ZM197.333 118.79L196.406 119.166L196.411 119.178L196.416 119.19L197.333 118.79ZM195.775 118.603L194.944 118.047L194.944 118.047L195.775 118.603ZM194.935 120.336L195.861 120.713L195.862 120.712L194.935 120.336ZM193.861 122.558L193.006 122.04L193 122.05L192.994 122.06L193.861 122.558ZM192.474 123.974L191.954 123.119L191.944 123.126L191.933 123.132L192.474 123.974ZM188.404 123.319L189.106 122.607L188.404 123.319ZM187.284 121.198L186.309 121.424L186.312 121.436L187.284 121.198ZM188.275 118.267C188.44 117.345 188.713 116.475 189.093 115.654L187.279 114.814C186.824 115.794 186.501 116.829 186.307 117.915L188.275 118.267ZM189.093 115.654C189.477 114.825 189.884 114.226 190.296 113.817L188.885 112.399C188.258 113.023 187.729 113.841 187.279 114.814L189.093 115.654ZM189.029 113.936L191.41 115.55L192.532 113.895L190.151 112.28L189.029 113.936ZM191.246 114.033C190.706 114.602 190.243 115.274 189.85 116.039L191.629 116.952C191.948 116.332 192.305 115.822 192.696 115.411L191.246 114.033ZM189.85 116.039C189.453 116.812 189.178 117.607 189.032 118.421L191.001 118.773C191.109 118.169 191.316 117.563 191.629 116.952L189.85 116.039ZM189.032 118.421C188.903 119.144 188.865 119.849 189.039 120.44C189.13 120.75 189.29 121.06 189.553 121.313C189.822 121.572 190.148 121.721 190.489 121.782L190.841 119.813C190.84 119.813 190.852 119.815 190.874 119.825C190.896 119.836 190.919 119.852 190.938 119.871C190.98 119.91 190.974 119.93 190.957 119.874C190.915 119.732 190.889 119.396 191.001 118.773L189.032 118.421ZM190.489 121.782C190.859 121.848 191.243 121.807 191.602 121.627C191.947 121.453 192.201 121.183 192.387 120.899L190.712 119.806C190.662 119.882 190.651 119.866 190.702 119.84C190.728 119.827 190.759 119.818 190.79 119.814C190.82 119.81 190.839 119.813 190.841 119.813L190.489 121.782ZM192.366 120.929C192.678 120.488 193.005 119.821 193.351 118.993L191.505 118.222C191.169 119.028 190.91 119.523 190.733 119.775L192.366 120.929ZM193.354 118.987C193.711 118.114 194.044 117.416 194.352 116.881L192.617 115.885C192.252 116.522 191.881 117.306 191.503 118.228L193.354 118.987ZM194.343 116.895C194.607 116.453 194.958 116.099 195.409 115.824L194.369 114.116C193.644 114.557 193.058 115.145 192.626 115.871L194.343 116.895ZM195.409 115.824C195.737 115.625 196.199 115.525 196.889 115.649L197.241 113.68C196.206 113.495 195.218 113.599 194.369 114.116L195.409 115.824ZM196.889 115.649C197.453 115.75 197.91 115.987 198.29 116.361L199.694 114.937C199.016 114.269 198.189 113.85 197.241 113.68L196.889 115.649ZM198.296 116.367C198.674 116.734 198.969 117.252 199.142 117.983L201.088 117.521C200.844 116.494 200.39 115.611 199.687 114.931L198.296 116.367ZM199.141 117.978C199.309 118.701 199.317 119.6 199.12 120.701L201.089 121.053C201.319 119.768 201.334 118.583 201.089 117.526L199.141 117.978ZM199.12 120.701C198.988 121.439 198.773 122.15 198.474 122.836L200.307 123.636C200.669 122.806 200.929 121.945 201.089 121.053L199.12 120.701ZM198.468 122.849C198.183 123.528 197.844 124.085 197.46 124.533L198.978 125.835C199.518 125.205 199.96 124.463 200.312 123.623L198.468 122.849ZM198.759 124.342L196.347 122.795L195.267 124.479L197.679 126.026L198.759 124.342ZM196.59 124.26C197.521 123.09 198.13 121.851 198.363 120.547L196.395 120.195C196.231 121.111 195.792 122.05 195.025 123.015L196.59 124.26ZM198.363 120.547C198.498 119.793 198.526 119.024 198.249 118.391L196.416 119.19C196.451 119.27 196.509 119.555 196.395 120.195L198.363 120.547ZM198.26 118.415C198.008 117.794 197.518 117.314 196.797 117.185L196.445 119.153C196.448 119.154 196.441 119.153 196.427 119.147C196.413 119.14 196.4 119.131 196.39 119.122C196.379 119.113 196.377 119.108 196.38 119.113C196.383 119.118 196.393 119.134 196.406 119.166L198.26 118.415ZM196.797 117.185C196.43 117.119 196.053 117.165 195.705 117.343C195.372 117.514 195.126 117.776 194.944 118.047L196.607 119.159C196.658 119.082 196.669 119.096 196.618 119.123C196.591 119.137 196.557 119.148 196.52 119.153C196.484 119.158 196.457 119.156 196.445 119.153L196.797 117.185ZM194.944 118.047C194.651 118.485 194.34 119.142 194.008 119.96L195.862 120.712C196.185 119.916 196.434 119.418 196.607 119.159L194.944 118.047ZM194.009 119.959C193.65 120.84 193.315 121.528 193.006 122.04L194.717 123.075C195.099 122.443 195.48 121.65 195.861 120.713L194.009 119.959ZM192.994 122.06C192.743 122.497 192.401 122.847 191.954 123.119L192.994 124.828C193.723 124.384 194.306 123.791 194.728 123.056L192.994 122.06ZM191.933 123.132C191.621 123.333 191.173 123.438 190.489 123.316L190.137 125.284C191.177 125.471 192.171 125.358 193.015 124.815L191.933 123.132ZM190.489 123.316C189.94 123.217 189.488 122.983 189.106 122.607L187.702 124.031C188.377 124.696 189.198 125.116 190.137 125.284L190.489 123.316ZM189.106 122.607C188.738 122.243 188.44 121.716 188.255 120.961L186.312 121.436C186.564 122.466 187.013 123.352 187.702 124.031L189.106 122.607ZM188.258 120.972C188.09 120.248 188.081 119.355 188.275 118.267L186.307 117.915C186.079 119.19 186.065 120.368 186.31 121.424L188.258 120.972Z" fill="white"/>
<path d="M194.392 131.451L194.076 132.4L195.025 132.716L195.341 131.767L194.392 131.451ZM195.614 127.779L195.93 126.831L194.981 126.515L194.666 127.463L195.614 127.779ZM198.296 128.672L199.244 128.988L199.56 128.039L198.612 127.723L198.296 128.672ZM194.731 139.38L194.415 140.329L195.364 140.645L195.68 139.696L194.731 139.38ZM192.05 138.488L191.101 138.172L190.785 139.121L191.734 139.436L192.05 138.488ZM193.266 134.833L194.215 135.149L194.531 134.2L193.582 133.884L193.266 134.833ZM183.993 131.746L183.044 131.43L182.728 132.379L183.677 132.694L183.993 131.746ZM185.118 128.364L185.434 127.415L184.485 127.099L184.17 128.048L185.118 128.364ZM195.341 131.767L196.563 128.095L194.666 127.463L193.443 131.135L195.341 131.767ZM195.298 128.728L197.98 129.621L198.612 127.723L195.93 126.831L195.298 128.728ZM197.347 128.356L193.782 139.064L195.68 139.696L199.244 128.988L197.347 128.356ZM195.047 138.431L192.365 137.539L191.734 139.436L194.415 140.329L195.047 138.431ZM192.998 138.803L194.215 135.149L192.317 134.517L191.101 138.172L192.998 138.803ZM193.582 133.884L184.308 130.797L183.677 132.694L192.95 135.782L193.582 133.884ZM184.941 132.061L186.067 128.68L184.17 128.048L183.044 131.43L184.941 132.061ZM184.802 129.313L194.076 132.4L194.708 130.502L185.434 127.415L184.802 129.313Z" fill="white"/>
<path d="M180.118 146.283L180.016 147.278L180.687 147.346L181.002 146.75L180.118 146.283ZM182.604 141.571L183.489 142.038L183.804 141.442L183.369 140.926L182.604 141.571ZM180.902 139.553L180.017 139.086L179.702 139.683L180.137 140.198L180.902 139.553ZM182.599 136.337L183.383 135.717L182.431 134.514L181.714 135.871L182.599 136.337ZM191.146 147.137L192.03 147.604L192.334 147.028L191.93 146.517L191.146 147.137ZM189.508 150.242L189.439 151.239L190.088 151.284L190.392 150.708L189.508 150.242ZM175.76 149.295L174.875 148.829L174.158 150.188L175.691 150.293L175.76 149.295ZM177.491 146.016L177.592 145.021L176.921 144.953L176.606 145.549L177.491 146.016ZM182.929 146.587L182.045 146.12L181.354 147.428L182.826 147.581L182.929 146.587ZM187.251 147.036L187.148 148.03L189.623 148.288L188.014 146.389L187.251 147.036ZM184.441 143.721L185.204 143.075L184.247 141.946L183.557 143.254L184.441 143.721ZM181.002 146.75L183.489 142.038L181.72 141.104L179.233 145.816L181.002 146.75ZM183.369 140.926L181.666 138.908L180.137 140.198L181.84 142.216L183.369 140.926ZM181.786 140.02L183.483 136.804L181.714 135.871L180.017 139.086L181.786 140.02ZM181.815 136.958L190.362 147.758L191.93 146.517L183.383 135.717L181.815 136.958ZM190.261 146.671L188.623 149.775L190.392 150.708L192.03 147.604L190.261 146.671ZM189.576 149.244L175.828 148.298L175.691 150.293L189.439 151.239L189.576 149.244ZM176.644 149.762L178.375 146.483L176.606 145.549L174.875 148.829L176.644 149.762ZM177.389 147.011L180.016 147.278L180.219 145.288L177.592 145.021L177.389 147.011ZM182.826 147.581L187.148 148.03L187.354 146.041L183.032 145.592L182.826 147.581ZM188.014 146.389L185.204 143.075L183.678 144.368L186.488 147.682L188.014 146.389ZM183.557 143.254L182.045 146.12L183.813 147.053L185.326 144.188L183.557 143.254Z" fill="white"/>
<path d="M174.602 161.696L175.394 162.307L176.005 161.516L175.214 160.905L174.602 161.696ZM172.676 164.188L172.064 164.979L172.855 165.591L173.467 164.8L172.676 164.188ZM168.546 160.995L167.547 160.959L167.528 161.472L167.934 161.787L168.546 160.995ZM173.35 153.515L172.94 152.603L172.932 152.607L173.35 153.515ZM176.721 152.981L176.605 153.975L176.721 152.981ZM182.075 157.121L183.007 156.759L183.007 156.759L182.075 157.121ZM182.382 160.52L181.398 160.34L181.397 160.349L182.382 160.52ZM178.431 166.043L178.921 166.915L178.921 166.915L178.431 166.043ZM175.647 166.849L174.65 166.926L174.724 167.886L175.687 167.848L175.647 166.849ZM175.411 163.799L175.33 162.803L174.337 162.883L174.414 163.877L175.411 163.799ZM179.206 159.567L178.213 159.685L178.214 159.694L179.206 159.567ZM175.99 156.398L176.15 155.411L176.141 155.41L175.99 156.398ZM174.209 156.614L173.829 155.688L173.822 155.691L173.814 155.695L174.209 156.614ZM171.868 159.582L170.894 159.357L170.75 159.981L171.257 160.373L171.868 159.582ZM173.811 161.084L171.885 163.576L173.467 164.8L175.394 162.307L173.811 161.084ZM173.288 163.397L169.158 160.204L167.934 161.787L172.064 164.979L173.288 163.397ZM169.545 161.032C169.573 160.269 169.74 159.482 170.057 158.666L168.194 157.941C167.803 158.944 167.583 159.951 167.547 160.959L169.545 161.032ZM170.057 158.666C170.378 157.842 170.795 157.102 171.306 156.44L169.724 155.217C169.091 156.037 168.581 156.946 168.194 157.941L170.057 158.666ZM171.306 156.44C172.026 155.51 172.847 154.847 173.768 154.424L172.932 152.607C171.688 153.179 170.619 154.059 169.724 155.217L171.306 156.44ZM173.76 154.428C174.692 154.009 175.635 153.862 176.605 153.975L176.836 151.988C175.497 151.832 174.192 152.041 172.94 152.603L173.76 154.428ZM176.605 153.975C177.564 154.086 178.471 154.461 179.337 155.13L180.56 153.548C179.432 152.676 178.187 152.145 176.836 151.988L176.605 153.975ZM179.337 155.13C180.202 155.799 180.793 156.583 181.143 157.483L183.007 156.759C182.515 155.491 181.688 154.42 180.56 153.548L179.337 155.13ZM181.143 157.483C181.495 158.388 181.583 159.333 181.398 160.34L183.366 160.7C183.614 159.342 183.498 158.021 183.007 156.759L181.143 157.483ZM181.397 160.349C181.221 161.361 180.781 162.339 180.047 163.289L181.63 164.512C182.54 163.334 183.129 162.059 183.367 160.692L181.397 160.349ZM180.047 163.289C179.397 164.13 178.693 164.749 177.941 165.172L178.921 166.915C179.941 166.341 180.841 165.532 181.63 164.512L180.047 163.289ZM177.941 165.172C177.186 165.596 176.412 165.818 175.607 165.85L175.687 167.848C176.823 167.803 177.904 167.487 178.921 166.915L177.941 165.172ZM176.644 166.771L176.408 163.722L174.414 163.877L174.65 166.926L176.644 166.771ZM175.491 164.796C177.013 164.674 178.273 164.027 179.184 162.849L177.602 161.626C177.06 162.327 176.332 162.722 175.33 162.803L175.491 164.796ZM179.184 162.849C179.979 161.82 180.355 160.67 180.198 159.44L178.214 159.694C178.294 160.315 178.128 160.945 177.602 161.626L179.184 162.849ZM180.199 159.449C180.053 158.216 179.393 157.196 178.358 156.396L177.135 157.978C177.828 158.514 178.141 159.08 178.213 159.685L180.199 159.449ZM178.358 156.396C177.69 155.88 176.952 155.541 176.15 155.411L175.831 157.385C176.269 157.456 176.702 157.643 177.135 157.978L178.358 156.396ZM176.141 155.41C175.349 155.289 174.572 155.384 173.829 155.688L174.588 157.539C174.999 157.37 175.41 157.321 175.84 157.387L176.141 155.41ZM173.814 155.695C173.071 156.014 172.444 156.526 171.927 157.193L173.51 158.417C173.845 157.983 174.211 157.701 174.603 157.532L173.814 155.695ZM171.927 157.193C171.424 157.845 171.076 158.568 170.894 159.357L172.843 159.807C172.958 159.309 173.176 158.848 173.51 158.417L171.927 157.193ZM171.257 160.373L173.991 162.487L175.214 160.905L172.48 158.791L171.257 160.373Z" fill="white"/>
<path d="M163.424 168.821L163.197 169.795L163.711 169.915L164.1 169.558L163.424 168.821ZM164.858 167.508L165.533 168.245L166.271 167.569L165.595 166.832L164.858 167.508ZM162.596 165.039L161.92 164.302L161.183 164.978L161.859 165.715L162.596 165.039ZM165.223 162.632L165.961 161.956L165.285 161.219L164.548 161.894L165.223 162.632ZM173.736 171.921L174.412 172.658L175.149 171.983L174.473 171.245L173.736 171.921ZM166.911 177.394L166.603 176.443L166.591 176.447L166.911 177.394ZM164.383 177.514L164.637 176.546L164.629 176.544L164.383 177.514ZM161.073 173.955L162.057 173.777L162.056 173.773L161.073 173.955ZM161.343 171.559L162.273 171.927L162.701 170.847L161.569 170.584L161.343 171.559ZM156.664 170.475L155.988 169.738L154.588 171.021L156.438 171.45L156.664 170.475ZM159.477 167.897L159.705 166.924L159.191 166.803L158.802 167.16L159.477 167.897ZM169.211 172.259L169.887 172.996L170.624 172.32L169.949 171.583L169.211 172.259ZM166.718 169.538L167.456 168.863L166.78 168.125L166.043 168.801L166.718 169.538ZM164.354 172.34L163.362 172.209L163.361 172.218L163.36 172.228L164.354 172.34ZM164.1 169.558L165.533 168.245L164.182 166.771L162.749 168.084L164.1 169.558ZM165.595 166.832L163.333 164.364L161.859 165.715L164.12 168.183L165.595 166.832ZM163.271 165.777L165.899 163.369L164.548 161.894L161.92 164.302L163.271 165.777ZM164.486 163.307L172.999 172.597L174.473 171.245L165.961 161.956L164.486 163.307ZM173.06 171.184L168.814 175.075L170.165 176.55L174.412 172.658L173.06 171.184ZM168.814 175.075C168.055 175.771 167.317 176.212 166.603 176.443L167.219 178.346C168.262 178.008 169.243 177.395 170.165 176.55L168.814 175.075ZM166.591 176.447C165.888 176.684 165.245 176.706 164.637 176.546L164.129 178.481C165.149 178.749 166.192 178.692 167.23 178.342L166.591 176.447ZM164.629 176.544C164.037 176.394 163.478 176.058 162.95 175.482L161.475 176.833C162.228 177.655 163.116 178.223 164.136 178.483L164.629 176.544ZM162.95 175.482C162.445 174.931 162.163 174.364 162.057 173.777L160.089 174.132C160.27 175.137 160.748 176.04 161.475 176.833L162.95 175.482ZM162.056 173.773C161.95 173.198 162.01 172.591 162.273 171.927L160.414 171.19C160.028 172.163 159.907 173.153 160.09 174.137L162.056 173.773ZM161.569 170.584L156.889 169.501L156.438 171.45L161.118 172.533L161.569 170.584ZM157.339 171.213L160.153 168.635L158.802 167.16L155.988 169.738L157.339 171.213ZM159.249 168.871L163.197 169.795L163.652 167.848L159.705 166.924L159.249 168.871ZM164.129 174.401C164.681 175.003 165.39 175.378 166.228 175.357L166.177 173.357C166.029 173.361 165.847 173.315 165.604 173.05L164.129 174.401ZM166.228 175.357C167.056 175.336 167.793 174.915 168.427 174.334L167.076 172.859C166.631 173.267 166.335 173.353 166.177 173.357L166.228 175.357ZM168.427 174.334L169.887 172.996L168.536 171.521L167.076 172.859L168.427 174.334ZM169.949 171.583L167.456 168.863L165.981 170.214L168.474 172.934L169.949 171.583ZM166.043 168.801L164.583 170.139L165.934 171.613L167.394 170.275L166.043 168.801ZM164.583 170.139C163.955 170.714 163.469 171.402 163.362 172.209L165.345 172.471C165.366 172.315 165.483 172.026 165.934 171.613L164.583 170.139ZM163.36 172.228C163.266 173.061 163.578 173.799 164.129 174.401L165.604 173.05C165.361 172.785 165.331 172.599 165.348 172.452L163.36 172.228Z" fill="white"/>
<path d="M148.927 178.663L148.349 179.479L148.899 179.868L149.467 179.504L148.927 178.663ZM153.412 175.786L153.952 176.628L154.519 176.264L154.394 175.601L153.412 175.786ZM152.923 173.191L152.383 172.349L151.816 172.713L151.941 173.376L152.923 173.191ZM155.984 171.228L156.972 171.074L156.736 169.558L155.444 170.386L155.984 171.228ZM158.105 184.836L158.645 185.678L159.193 185.326L159.093 184.682L158.105 184.836ZM155.151 186.732L154.6 187.566L155.143 187.925L155.691 187.573L155.151 186.732ZM143.651 179.139L143.111 178.297L141.818 179.126L143.1 179.973L143.651 179.139ZM146.772 177.137L147.35 176.32L146.8 175.931L146.232 176.295L146.772 177.137ZM151.225 180.311L150.685 179.469L149.439 180.268L150.645 181.126L151.225 180.311ZM154.765 182.83L154.185 183.645L156.213 185.088L155.748 182.643L154.765 182.83ZM153.952 178.562L154.934 178.374L154.657 176.921L153.412 177.72L153.952 178.562ZM149.467 179.504L153.952 176.628L152.872 174.944L148.387 177.821L149.467 179.504ZM154.394 175.601L153.906 173.006L151.941 173.376L152.429 175.971L154.394 175.601ZM153.463 174.033L156.524 172.069L155.444 170.386L152.383 172.349L153.463 174.033ZM154.996 171.382L157.117 184.99L159.093 184.682L156.972 171.074L154.996 171.382ZM157.565 183.995L154.611 185.89L155.691 187.573L158.645 185.678L157.565 183.995ZM155.702 185.897L144.202 178.304L143.1 179.973L154.6 187.566L155.702 185.897ZM144.191 179.98L147.312 177.978L146.232 176.295L143.111 178.297L144.191 179.98ZM146.194 177.953L148.349 179.479L149.505 177.846L147.35 176.32L146.194 177.953ZM150.645 181.126L154.185 183.645L155.345 182.015L151.804 179.496L150.645 181.126ZM155.748 182.643L154.934 178.374L152.97 178.749L153.783 183.017L155.748 182.643ZM153.412 177.72L150.685 179.469L151.765 181.153L154.492 179.403L153.412 177.72Z" fill="white"/>
<path d="M130.83 184.519L131.76 184.153L131.395 183.227L130.468 183.587L130.83 184.519ZM133.28 190.732L132.349 191.099L133.668 194.441L134.266 190.898L133.28 190.732ZM134.333 184.492L133.972 183.56L133.442 183.765L133.347 184.325L134.333 184.492ZM135.81 183.919L136.416 183.123L135.97 182.784L135.448 182.987L135.81 183.919ZM140.715 187.653L140.11 188.449L142.93 190.596L141.648 187.291L140.715 187.653ZM138.364 181.595L138.003 180.663L137.07 181.025L137.432 181.957L138.364 181.595ZM141.435 180.403L142.367 180.041L142.006 179.109L141.073 179.471L141.435 180.403ZM145.994 192.15L146.356 193.082L147.288 192.72L146.926 191.788L145.994 192.15ZM143.259 193.211L142.651 194.005L143.097 194.347L143.621 194.143L143.259 193.211ZM136.5 188.034L137.108 187.24L135.788 186.229L135.513 187.869L136.5 188.034ZM135.104 196.376L135.465 197.309L135.996 197.103L136.09 196.541L135.104 196.376ZM132.368 197.438L131.437 197.802L131.801 198.731L132.73 198.37L132.368 197.438ZM127.776 185.705L127.414 184.772L126.479 185.135L126.845 186.069L127.776 185.705ZM129.9 184.886L132.349 191.099L134.21 190.365L131.76 184.153L129.9 184.886ZM134.266 190.898L135.319 184.658L133.347 184.325L132.294 190.565L134.266 190.898ZM134.695 185.424L136.172 184.851L135.448 182.987L133.972 183.56L134.695 185.424ZM135.204 184.714L140.11 188.449L141.321 186.857L136.416 183.123L135.204 184.714ZM141.648 187.291L139.297 181.233L137.432 181.957L139.783 188.015L141.648 187.291ZM138.726 182.527L141.797 181.336L141.073 179.471L138.003 180.663L138.726 182.527ZM140.503 180.765L145.062 192.511L146.926 191.788L142.367 180.041L140.503 180.765ZM145.632 191.217L142.897 192.279L143.621 194.143L146.356 193.082L145.632 191.217ZM143.867 192.417L137.108 187.24L135.892 188.828L142.651 194.005L143.867 192.417ZM135.513 187.869L134.117 196.211L136.09 196.541L137.486 188.199L135.513 187.869ZM134.742 195.444L132.007 196.506L132.73 198.37L135.465 197.309L134.742 195.444ZM133.3 197.073L128.707 185.34L126.845 186.069L131.437 197.802L133.3 197.073ZM128.138 186.637L131.192 185.452L130.468 183.587L127.414 184.772L128.138 186.637Z" fill="white"/>
<path d="M103.372 198.85L102.372 198.831L102.353 199.831L103.353 199.85L103.372 198.85ZM107.241 198.925L108.241 198.944L108.26 197.944L107.261 197.925L107.241 198.925ZM107.187 201.75L107.167 202.75L108.167 202.769L108.187 201.77L107.187 201.75ZM95.9029 201.533L94.903 201.513L94.8837 202.513L95.8836 202.532L95.9029 201.533ZM95.9574 198.707L95.9767 197.707L94.9769 197.688L94.9576 198.688L95.9574 198.707ZM99.8087 198.781L99.7894 199.781L100.789 199.8L100.808 198.801L99.8087 198.781ZM99.9973 189.009L100.017 188.009L99.0168 187.99L98.9975 188.99L99.9973 189.009ZM103.561 189.078L104.56 189.097L104.58 188.097L103.58 188.078L103.561 189.078ZM103.353 199.85L107.222 199.925L107.261 197.925L103.391 197.85L103.353 199.85ZM106.241 198.906L106.187 201.731L108.187 201.77L108.241 198.944L106.241 198.906ZM107.206 200.75L95.9222 200.533L95.8836 202.532L107.167 202.75L107.206 200.75ZM96.9027 201.552L96.9572 198.726L94.9576 198.688L94.903 201.513L96.9027 201.552ZM95.9381 199.707L99.7894 199.781L99.828 197.782L95.9767 197.707L95.9381 199.707ZM100.808 198.801L100.997 189.028L98.9975 188.99L98.8089 198.762L100.808 198.801ZM99.978 190.009L103.541 190.078L103.58 188.078L100.017 188.009L99.978 190.009ZM102.561 189.059L102.372 198.831L104.372 198.869L104.56 189.097L102.561 189.059Z" fill="white"/>
<path d="M83.3342 189.737L82.3485 189.569L82.18 190.554L83.1657 190.723L83.3342 189.737ZM83.7983 187.023L83.9669 186.037L82.9812 185.868L82.8126 186.854L83.7983 187.023ZM93.7696 188.728L94.7553 188.896L94.9239 187.91L93.9382 187.742L93.7696 188.728ZM91.6461 201.147L91.4775 202.133L92.4632 202.302L92.6318 201.316L91.6461 201.147ZM81.9054 199.482L80.9197 199.313L80.7512 200.299L81.7369 200.468L81.9054 199.482ZM82.3696 196.767L82.5381 195.782L81.5524 195.613L81.3839 196.599L82.3696 196.767ZM88.6327 197.838L88.4641 198.824L89.4498 198.992L89.6184 198.007L88.6327 197.838ZM88.9907 195.745L89.9764 195.913L90.1449 194.927L89.1592 194.759L88.9907 195.745ZM83.4727 194.801L82.487 194.633L82.3185 195.618L83.3042 195.787L83.4727 194.801ZM83.9217 192.175L84.0903 191.189L83.1046 191.021L82.936 192.007L83.9217 192.175ZM89.4396 193.119L89.2711 194.104L90.2568 194.273L90.4253 193.287L89.4396 193.119ZM89.8279 190.848L90.8136 191.016L90.9822 190.03L89.9965 189.862L89.8279 190.848ZM84.3199 189.906L84.784 187.191L82.8126 186.854L82.3485 189.569L84.3199 189.906ZM83.6298 188.008L93.6011 189.713L93.9382 187.742L83.9669 186.037L83.6298 188.008ZM92.7839 188.559L90.6604 200.979L92.6318 201.316L94.7553 188.896L92.7839 188.559ZM91.8146 200.162L82.074 198.496L81.7369 200.468L91.4775 202.133L91.8146 200.162ZM82.8911 199.65L83.3553 196.936L81.3839 196.599L80.9197 199.313L82.8911 199.65ZM82.201 197.753L88.4641 198.824L88.8012 196.852L82.5381 195.782L82.201 197.753ZM89.6184 198.007L89.9764 195.913L88.005 195.576L87.647 197.67L89.6184 198.007ZM89.1592 194.759L83.6413 193.815L83.3042 195.787L88.8221 196.73L89.1592 194.759ZM84.4584 194.97L84.9074 192.344L82.936 192.007L82.487 194.633L84.4584 194.97ZM83.7532 193.161L89.2711 194.104L89.6082 192.133L84.0903 191.189L83.7532 193.161ZM90.4253 193.287L90.8136 191.016L88.8423 190.679L88.4539 192.95L90.4253 193.287ZM89.9965 189.862L83.5027 188.752L83.1657 190.723L89.6594 191.833L89.9965 189.862Z" fill="white"/>
<path d="M76.8692 198.239L76.5606 199.19L77.5117 199.499L77.8204 198.547L76.8692 198.239ZM73.4793 197.139L72.5281 196.83L72.2194 197.781L73.1706 198.09L73.4793 197.139ZM76.4964 187.842L77.4476 188.151L77.7563 187.199L76.8051 186.891L76.4964 187.842ZM70.7781 185.986L69.8269 185.677L69.5182 186.628L70.4694 186.937L70.7781 185.986ZM71.6504 183.298L71.9591 182.347L71.0079 182.038L70.6993 182.989L71.6504 183.298ZM80.7587 186.254L81.7099 186.563L82.0186 185.612L81.0674 185.303L80.7587 186.254ZM77.1779 197.288L73.788 196.187L73.1706 198.09L76.5606 199.19L77.1779 197.288ZM74.4305 197.447L77.4476 188.151L75.5453 187.533L72.5281 196.83L74.4305 197.447ZM76.8051 186.891L71.0867 185.035L70.4694 186.937L76.1878 188.793L76.8051 186.891ZM71.7292 186.295L72.6016 183.607L70.6993 182.989L69.8269 185.677L71.7292 186.295ZM71.3417 184.249L80.4501 187.205L81.0674 185.303L71.9591 182.347L71.3417 184.249ZM79.8076 185.945L75.9181 197.93L77.8204 198.547L81.7099 186.563L79.8076 185.945Z" fill="white"/>
<path d="M59.5762 180.574L58.68 180.13L58.2363 181.026L59.1325 181.47L59.5762 180.574ZM60.7981 178.106L61.2417 177.209L60.3455 176.766L59.9019 177.662L60.7981 178.106ZM69.8639 182.594L70.7601 183.037L71.2038 182.141L70.3076 181.698L69.8639 182.594ZM64.2736 193.886L63.83 194.782L64.7262 195.226L65.1698 194.329L64.2736 193.886ZM55.4175 189.501L54.5213 189.058L54.0776 189.954L54.9738 190.398L55.4175 189.501ZM56.6394 187.033L57.083 186.137L56.1869 185.693L55.7432 186.59L56.6394 187.033ZM62.3338 189.852L61.8901 190.748L62.7863 191.192L63.2299 190.296L62.3338 189.852ZM63.2761 187.949L64.1723 188.392L64.616 187.496L63.7198 187.053L63.2761 187.949ZM58.2593 185.465L57.3631 185.021L56.9194 185.918L57.8156 186.361L58.2593 185.465ZM59.4412 183.078L59.8849 182.181L58.9887 181.738L58.545 182.634L59.4412 183.078ZM64.4581 185.561L64.0144 186.458L64.9106 186.901L65.3543 186.005L64.4581 185.561ZM65.4803 183.497L66.3765 183.94L66.8201 183.044L65.924 182.6L65.4803 183.497ZM60.4724 181.017L61.6942 178.549L59.9019 177.662L58.68 180.13L60.4724 181.017ZM60.3544 179.002L69.4202 183.49L70.3076 181.698L61.2417 177.209L60.3544 179.002ZM68.9677 182.15L63.3775 193.442L65.1698 194.329L70.7601 183.037L68.9677 182.15ZM64.7173 192.989L55.8612 188.605L54.9738 190.398L63.83 194.782L64.7173 192.989ZM56.3137 189.945L57.5356 187.477L55.7432 186.59L54.5213 189.058L56.3137 189.945ZM56.1957 187.929L61.8901 190.748L62.7774 188.956L57.083 186.137L56.1957 187.929ZM63.2299 190.296L64.1723 188.392L62.3799 187.505L61.4376 189.409L63.2299 190.296ZM63.7198 187.053L58.7029 184.569L57.8156 186.361L62.8324 188.845L63.7198 187.053ZM59.1554 185.909L60.3374 183.521L58.545 182.634L57.3631 185.021L59.1554 185.909ZM58.9975 183.974L64.0144 186.458L64.9017 184.665L59.8849 182.181L58.9975 183.974ZM65.3543 186.005L66.3765 183.94L64.5841 183.053L63.5619 185.118L65.3543 186.005ZM65.924 182.6L60.0199 179.677L59.1325 181.47L65.0366 184.393L65.924 182.6Z" fill="white"/>
<path d="M47.2698 176.944L46.6875 177.757L47.5005 178.339L48.0828 177.526L47.2698 176.944ZM44.709 175.109L43.8961 174.527L43.3138 175.34L44.1267 175.922L44.709 175.109ZM47.7488 170.866L47.7485 169.866L47.2349 169.866L46.9358 170.283L47.7488 170.866ZM55.399 175.394L56.2957 174.951L56.2917 174.943L55.399 175.394ZM56.0558 178.742L55.0589 178.663L56.0558 178.742ZM52.1146 184.244L52.5105 185.163L52.5105 185.163L52.1146 184.244ZM48.7284 184.675L48.8725 183.686L48.8637 183.684L48.7284 184.675ZM43.065 180.928L42.2119 181.45L42.2119 181.45L43.065 180.928ZM42.1584 178.176L42.0448 177.182L41.0879 177.291L41.1613 178.252L42.1584 178.176ZM45.1971 177.828L46.1903 177.711L46.0741 176.721L45.0835 176.835L45.1971 177.828ZM49.5655 181.466L49.4115 180.478L49.4024 180.48L49.5655 181.466ZM52.6145 178.137L53.6069 178.261L53.6079 178.251L52.6145 178.137ZM52.3344 176.365L53.2453 175.952L53.2418 175.944L53.2382 175.937L52.3344 176.365ZM49.2824 174.134L49.4717 173.152L48.8425 173.031L48.4694 173.552L49.2824 174.134ZM47.8522 176.131L45.2914 174.296L44.1267 175.922L46.6875 177.757L47.8522 176.131ZM45.522 175.692L48.5617 171.448L46.9358 170.283L43.8961 174.527L45.522 175.692ZM47.749 171.866C48.5121 171.866 49.3047 172.003 50.1313 172.291L50.7886 170.402C49.7719 170.048 48.7571 169.865 47.7485 169.866L47.749 171.866ZM50.1313 172.291C50.9664 172.581 51.7217 172.971 52.4015 173.458L53.5661 171.832C52.7241 171.229 51.7968 170.753 50.7886 170.402L50.1313 172.291ZM52.4015 173.458C53.3578 174.143 54.0496 174.94 54.5064 175.844L56.2917 174.943C55.6744 173.72 54.756 172.684 53.5661 171.832L52.4015 173.458ZM54.5024 175.836C54.955 176.753 55.1364 177.689 55.0589 178.663L57.0526 178.822C57.1596 177.477 56.9031 176.181 56.2957 174.951L54.5024 175.836ZM55.0589 178.663C54.9823 179.626 54.6409 180.546 54.0039 181.435L55.6298 182.6C56.4603 181.44 56.9448 180.177 57.0526 178.822L55.0589 178.663ZM54.0039 181.435C53.3669 182.324 52.6056 182.944 51.7187 183.326L52.5105 185.163C53.7591 184.624 54.7993 183.759 55.6298 182.6L54.0039 181.435ZM51.7187 183.326C50.8268 183.711 49.8856 183.833 48.8725 183.686L48.5844 185.665C49.9506 185.864 51.2668 185.699 52.5105 185.163L51.7187 183.326ZM48.8637 183.684C47.8458 183.545 46.8523 183.142 45.8768 182.443L44.7122 184.069C45.9219 184.936 47.2177 185.478 48.5931 185.666L48.8637 183.684ZM45.8768 182.443C45.0127 181.824 44.3684 181.143 43.918 180.407L42.2119 181.45C42.8222 182.448 43.6642 183.318 44.7122 184.069L45.8768 182.443ZM43.918 180.407C43.4663 179.668 43.2169 178.902 43.1555 178.099L41.1613 178.252C41.248 179.385 41.6029 180.455 42.2119 181.45L43.918 180.407ZM42.272 179.169L45.3107 178.822L45.0835 176.835L42.0448 177.182L42.272 179.169ZM44.204 177.945C44.3819 179.461 45.0739 180.697 46.2849 181.564L47.4495 179.938C46.7289 179.422 46.3075 178.71 46.1903 177.711L44.204 177.945ZM46.2849 181.564C47.3418 182.321 48.5047 182.655 49.7286 182.453L49.4024 180.48C48.7846 180.582 48.1486 180.439 47.4495 179.938L46.2849 181.564ZM49.7195 182.455C50.9462 182.263 51.9414 181.567 52.7032 180.503L51.0772 179.339C50.5672 180.051 50.0126 180.385 49.4115 180.478L49.7195 182.455ZM52.7032 180.503C53.1949 179.817 53.5065 179.067 53.6068 178.261L51.6221 178.014C51.5673 178.454 51.3961 178.894 51.0772 179.339L52.7032 180.503ZM53.6079 178.251C53.6994 177.456 53.5765 176.683 53.2453 175.952L51.4235 176.777C51.6068 177.182 51.6707 177.591 51.621 178.023L53.6079 178.251ZM53.2382 175.937C52.8924 175.206 52.3577 174.598 51.6715 174.106L50.5069 175.732C50.9523 176.051 51.2478 176.406 51.4305 176.792L53.2382 175.937ZM51.6715 174.106C51.0025 173.627 50.2669 173.305 49.4717 173.152L49.0931 175.116C49.5948 175.213 50.0638 175.415 50.5069 175.732L51.6715 174.106ZM48.4694 173.552L46.4569 176.361L48.0828 177.526L50.0953 174.716L48.4694 173.552Z" fill="white"/>
<path d="M40.0696 166.371L39.0875 166.183L38.9878 166.701L39.3599 167.076L40.0696 166.371ZM41.4392 167.751L40.7295 168.456L41.434 169.165L42.1437 168.461L41.4392 167.751ZM43.8152 165.392L44.5248 164.688L43.8203 163.978L43.1106 164.683L43.8152 165.392ZM46.3261 167.921L47.0306 168.631L47.7403 167.927L47.0358 167.217L46.3261 167.921ZM37.3843 176.799L36.6746 177.503L37.3791 178.213L38.0888 177.508L37.3843 176.799ZM31.6425 170.197L32.5809 169.852L32.5766 169.841L31.6425 170.197ZM31.4225 167.676L32.3991 167.892L32.4007 167.884L31.4225 167.676ZM34.8461 164.227L35.0629 165.203L35.0675 165.202L34.8461 164.227ZM37.2511 164.401L36.9199 165.345L38.0169 165.73L38.2336 164.587L37.2511 164.401ZM38.1465 159.682L38.8562 158.978L37.5181 157.63L37.164 159.496L38.1465 159.682ZM40.835 162.39L41.817 162.579L41.9167 162.061L41.5447 161.686L40.835 162.39ZM36.8661 172.291L36.1564 172.996L36.8609 173.705L37.5706 173.001L36.8661 172.291ZM39.4847 169.691L40.1893 170.401L40.8989 169.696L40.1944 168.987L39.4847 169.691ZM36.5909 167.441L36.6819 166.445L36.6727 166.444L36.6634 166.443L36.5909 167.441ZM39.3599 167.076L40.7295 168.456L42.1488 167.046L40.7792 165.667L39.3599 167.076ZM42.1437 168.461L44.5197 166.102L43.1106 164.683L40.7346 167.041L42.1437 168.461ZM43.1055 166.097L45.6164 168.626L47.0358 167.217L44.5248 164.688L43.1055 166.097ZM45.6216 167.212L36.6797 176.089L38.0888 177.508L47.0306 168.631L45.6216 167.212ZM38.0939 176.094L34.0358 172.006L32.6165 173.415L36.6746 177.503L38.0939 176.094ZM34.0358 172.006C33.3106 171.276 32.8403 170.556 32.5808 169.852L30.7041 170.543C31.0832 171.572 31.7353 172.528 32.6165 173.415L34.0358 172.006ZM32.5766 169.841C32.3119 169.147 32.2637 168.506 32.3991 167.892L30.4459 167.461C30.2189 168.492 30.3174 169.531 30.7083 170.554L32.5766 169.841ZM32.4007 167.884C32.5276 167.286 32.8408 166.714 33.3952 166.163L31.9861 164.744C31.195 165.529 30.6628 166.439 30.4443 167.469L32.4007 167.884ZM33.3952 166.163C33.9258 165.636 34.4804 165.332 35.0629 165.203L34.6294 163.251C33.6324 163.472 32.7499 163.986 31.9861 164.744L33.3952 166.163ZM35.0675 165.202C35.6369 165.073 36.2466 165.108 36.9199 165.345L37.5823 163.457C36.5946 163.111 35.601 163.03 34.6248 163.252L35.0675 165.202ZM38.2336 164.587L39.129 159.869L37.164 159.496L36.2686 164.215L38.2336 164.587ZM37.4368 160.387L40.1253 163.095L41.5447 161.686L38.8562 158.978L37.4368 160.387ZM39.853 162.201L39.0875 166.183L41.0516 166.56L41.817 162.579L39.853 162.201ZM34.5224 167.299C33.9432 167.874 33.5968 168.597 33.6514 169.433L35.6471 169.303C35.6375 169.155 35.6762 168.972 35.9315 168.718L34.5224 167.299ZM33.6514 169.433C33.7054 170.26 34.1557 170.98 34.7614 171.59L36.1808 170.181C35.7551 169.753 35.6575 169.461 35.6471 169.303L33.6514 169.433ZM34.7614 171.59L36.1564 172.996L37.5757 171.586L36.1808 170.181L34.7614 171.59ZM37.5706 173.001L40.1893 170.401L38.7802 168.982L36.1615 171.581L37.5706 173.001ZM40.1944 168.987L38.7994 167.582L37.3801 168.991L38.7751 170.396L40.1944 168.987ZM38.7994 167.582C38.199 166.977 37.4928 166.519 36.6819 166.445L36.4999 168.436C36.6561 168.451 36.9491 168.557 37.3801 168.991L38.7994 167.582ZM36.6634 166.443C35.8273 166.383 35.1017 166.724 34.5224 167.299L35.9315 168.718C36.1868 168.465 36.3705 168.427 36.5185 168.438L36.6634 166.443Z" fill="white"/>
<path d="M29.3067 151.823L28.47 151.275L28.1007 151.84L28.4853 152.393L29.3067 151.823ZM32.3457 156.199L31.5243 156.77L31.9089 157.324L32.5665 157.175L32.3457 156.199ZM34.9211 155.616L35.7425 155.046L35.3579 154.492L34.7003 154.641L34.9211 155.616ZM36.995 158.603L37.1851 159.585L38.6916 159.293L37.8164 158.033L36.995 158.603ZM23.4731 161.221L22.6517 161.791L23.0234 162.327L23.6632 162.203L23.4731 161.221ZM21.4711 158.338L20.617 157.818L20.2785 158.374L20.6497 158.908L21.4711 158.338ZM28.6378 146.568L29.4592 145.998L28.5828 144.736L27.7837 146.048L28.6378 146.568ZM30.7528 149.614L31.5895 150.161L31.9588 149.597L31.5742 149.043L30.7528 149.614ZM27.7436 154.18L28.565 153.609L27.7211 152.394L26.9081 153.63L27.7436 154.18ZM25.3558 157.81L24.5203 157.26L23.1526 159.34L25.5788 158.785L25.3558 157.81ZM29.5916 156.841L29.8146 157.816L31.2568 157.486L30.413 156.271L29.5916 156.841ZM28.4853 152.393L31.5243 156.77L33.1671 155.629L30.1281 151.253L28.4853 152.393ZM32.5665 157.175L35.1419 156.592L34.7003 154.641L32.1248 155.224L32.5665 157.175ZM34.0997 156.187L36.1736 159.173L37.8164 158.033L35.7425 155.046L34.0997 156.187ZM36.8049 157.621L23.283 160.239L23.6632 162.203L37.1851 159.585L36.8049 157.621ZM24.2945 160.651L22.2925 157.768L20.6497 158.908L22.6517 161.791L24.2945 160.651ZM22.3252 158.858L29.492 147.088L27.7837 146.048L20.617 157.818L22.3252 158.858ZM27.8165 147.138L29.9314 150.184L31.5742 149.043L29.4592 145.998L27.8165 147.138ZM29.9161 149.066L28.47 151.275L30.1434 152.371L31.5895 150.161L29.9161 149.066ZM26.9081 153.63L24.5203 157.26L26.1912 158.36L28.5791 154.729L26.9081 153.63ZM25.5788 158.785L29.8146 157.816L29.3686 155.866L25.1327 156.835L25.5788 158.785ZM30.413 156.271L28.565 153.609L26.9222 154.75L28.7702 157.411L30.413 156.271Z" fill="white"/>
<path d="M22.8095 133.97L23.2109 134.886L24.1219 134.487L23.7276 133.574L22.8095 133.97ZM16.6929 136.65L16.2915 135.734L13.0005 137.177L16.5634 137.642L16.6929 136.65ZM22.9679 137.47L23.886 137.074L23.6608 136.552L23.0974 136.478L22.9679 137.47ZM23.5958 138.924L24.4136 139.5L24.7359 139.042L24.5139 138.528L23.5958 138.924ZM20.0477 143.966L19.2299 143.39L17.1899 146.289L20.4441 144.884L20.0477 143.966ZM26.0133 141.39L26.9314 140.993L26.535 140.075L25.6169 140.472L26.0133 141.39ZM27.3191 144.414L27.7156 145.332L28.6336 144.936L28.2372 144.018L27.3191 144.414ZM15.7514 149.409L14.8334 149.805L15.2298 150.723L16.1479 150.327L15.7514 149.409ZM14.5884 146.715L13.7723 146.137L13.4475 146.596L13.6703 147.112L14.5884 146.715ZM19.5092 139.767L20.3253 140.345L21.2862 138.988L19.6373 138.775L19.5092 139.767ZM11.1205 138.684L10.2024 139.08L10.428 139.603L10.9924 139.676L11.1205 138.684ZM9.95742 135.99L9.55838 135.073L8.64406 135.471L9.03935 136.387L9.95742 135.99ZM21.5108 130.962L22.4289 130.566L22.0314 129.645L21.1118 130.045L21.5108 130.962ZM22.4081 133.054L16.2915 135.734L17.0943 137.566L23.2109 134.886L22.4081 133.054ZM16.5634 137.642L22.8384 138.462L23.0974 136.478L16.8224 135.659L16.5634 137.642ZM22.0498 137.866L22.6778 139.321L24.5139 138.528L23.886 137.074L22.0498 137.866ZM22.7781 138.349L19.2299 143.39L20.8655 144.541L24.4136 139.5L22.7781 138.349ZM20.4441 144.884L26.4098 142.308L25.6169 140.472L19.6513 143.048L20.4441 144.884ZM25.0953 141.786L26.4011 144.81L28.2372 144.018L26.9314 140.993L25.0953 141.786ZM26.9227 143.496L15.355 148.491L16.1479 150.327L27.7156 145.332L26.9227 143.496ZM16.6695 149.012L15.5064 146.319L13.6703 147.112L14.8334 149.805L16.6695 149.012ZM15.4044 147.293L20.3253 140.345L18.6932 139.189L13.7723 146.137L15.4044 147.293ZM19.6373 138.775L11.2486 137.692L10.9924 139.676L19.3812 140.759L19.6373 138.775ZM12.0386 138.287L10.8755 135.594L9.03935 136.387L10.2024 139.08L12.0386 138.287ZM10.3565 136.907L21.9099 131.879L21.1118 130.045L9.55838 135.073L10.3565 136.907ZM20.5928 131.359L21.8914 134.366L23.7276 133.574L22.4289 130.566L20.5928 131.359Z" fill="white"/>
<path d="M78.9205 18.3185C78.4587 18.4493 78.0062 18.4589 77.5631 18.3475C77.1199 18.236 76.7347 18.0209 76.4074 17.702C76.0769 17.3716 75.8445 16.9697 75.7105 16.4963C75.5764 16.0229 75.5651 15.5647 75.6765 15.1215C75.788 14.6784 76.0048 14.2989 76.3269 13.9832C76.6458 13.6559 77.0361 13.4268 77.498 13.296C77.9598 13.1652 78.4123 13.1555 78.8554 13.267C79.2953 13.3669 79.6789 13.5763 80.0062 13.8952C80.345 14.2108 80.5815 14.6053 80.7156 15.0786C80.8496 15.552 80.8568 16.0177 80.7371 16.4757C80.6256 16.9188 80.4105 17.304 80.0916 17.6313C79.7727 17.9586 79.3824 18.1876 78.9205 18.3185Z" fill="white"/>
<path d="M188.213 80.0647C188.087 79.6014 188.083 79.1488 188.199 78.7069C188.316 78.2651 188.535 77.8823 188.858 77.5587C189.192 77.2319 189.597 77.0042 190.072 76.8755C190.546 76.7468 191.005 76.7407 191.447 76.8572C191.888 76.9737 192.265 77.1948 192.578 77.5205C192.901 77.8431 193.126 78.236 193.251 78.6993C193.377 79.1626 193.381 79.6152 193.265 80.057C193.16 80.4957 192.946 80.8769 192.624 81.2005C192.304 81.5358 191.907 81.7677 191.432 81.8964C190.957 82.0251 190.492 82.027 190.035 81.902C189.593 81.7856 189.21 81.566 188.887 81.2435C188.563 80.9209 188.339 80.5279 188.213 80.0647Z" fill="white"/>
<path d="M117.236 190.379C117.71 190.304 118.161 190.347 118.587 190.51C119.014 190.673 119.372 190.932 119.659 191.287C119.948 191.655 120.132 192.081 120.209 192.567C120.286 193.053 120.243 193.509 120.081 193.936C119.918 194.363 119.658 194.714 119.301 194.99C118.945 195.277 118.531 195.459 118.057 195.534C117.583 195.61 117.132 195.566 116.705 195.403C116.28 195.252 115.924 194.999 115.637 194.644C115.337 194.29 115.149 193.871 115.072 193.385C114.994 192.899 115.042 192.436 115.215 191.995C115.378 191.568 115.637 191.211 115.992 190.923C116.347 190.636 116.762 190.454 117.236 190.379Z" fill="white"/>
<path d="M15.4756 116.654C15.5691 117.125 15.5427 117.577 15.3962 118.009C15.2497 118.442 15.0045 118.809 14.6605 119.11C14.3048 119.413 13.8856 119.612 13.4031 119.708C12.9205 119.804 12.4628 119.779 12.0299 119.632C11.5971 119.486 11.2362 119.24 10.9472 118.893C10.6464 118.549 10.4492 118.142 10.3557 117.671C10.2621 117.2 10.2886 116.749 10.4351 116.316C10.5698 115.885 10.8091 115.52 11.1531 115.219C11.4947 114.906 11.9068 114.702 12.3894 114.606C12.872 114.51 13.3367 114.54 13.7837 114.696C14.2165 114.843 14.5833 115.088 14.8841 115.432C15.1849 115.776 15.3821 116.183 15.4756 116.654Z" fill="white"/>
<path d="M86.9287 103.651C86.9287 94.5382 94.316 87.1509 103.429 87.1509C112.541 87.1509 119.929 94.5382 119.929 103.651C119.929 112.764 112.541 120.151 103.429 120.151C94.316 120.151 86.9287 112.764 86.9287 103.651Z" fill="#5A5A5A"/>
</svg>
