<svg width="206" height="206" fill="none" xmlns="http://www.w3.org/2000/svg"><path d="M11.281 91.74l-.924.381.891 2.159.947-2.135-.914-.405zm1.321-1.59l.537.843.009-.006-.546-.838zm4.41 1.08l.87-.492-.87.491zm.034 10.693l-.08.997.996.081.08-.997-.996-.081zm-12.558-1.019l-.997-.081-.081.997.997.081.08-.997zm1.715-10.01l.764.645.006-.007-.77-.638zm4.066-.483l-.596.803.005.004.591-.807zm-2.93 7.185l-.997-.081-.081.996.997.081.08-.996zm2.422.196l-.081.997.996.08.081-.996-.996-.08zm2.458.2l-.997-.081-.081.997.997.08.08-.996zm2.547.207l-.08.996.996.081.08-.996-.996-.081zm-2.57-6.054c.24-.54.558-.908.943-1.152l-1.073-1.688c-.758.482-1.32 1.175-1.699 2.029l1.828.811zm.952-1.158c.35-.227.779-.341 1.343-.295l.161-1.994c-.943-.076-1.826.113-2.595.613l1.09 1.676zm1.343-.295c.78.063 1.292.394 1.65 1.028l1.742-.982c-.696-1.233-1.811-1.924-3.23-2.04l-.162 1.994zm1.65 1.028c.386.687.587 1.76.459 3.34l1.993.162c.144-1.769-.045-3.303-.71-4.484l-1.743.982zm.459 3.34l-.55 6.782 1.993.162.55-6.782-1.993-.161zm.527 5.867l-12.559-1.02-.161 1.994 12.558 1.019.162-1.993zm-11.643.058l.522-6.423-1.994-.162-.521 6.423 1.993.162zm.522-6.423c.122-1.503.486-2.46.961-3.023l-1.528-1.29c-.857 1.014-1.289 2.449-1.427 4.151l1.994.162zm.967-3.03c.45-.544.964-.758 1.637-.704l.162-1.993c-1.337-.109-2.481.385-3.34 1.421l1.541 1.276zm1.637-.704c.423.035.768.166 1.063.386l1.193-1.605a3.993 3.993 0 00-2.094-.774l-.162 1.993zm1.068.39c.28.205.51.494.679.903l1.849-.763c-.294-.712-.74-1.309-1.345-1.753l-1.183 1.613zm-2.42 7.374l2.422.197.161-1.993-2.422-.197-.161 1.993zm3.5-.719l.197-2.44-1.993-.162-.198 2.44 1.993.162zm.197-2.44c.056-.68.001-1.374-.322-1.945-.365-.643-.98-.97-1.668-1.025l-.162 1.993c.081.007.103.023.095.018-.013-.007-.014-.015-.005.001.035.061.11.28.069.796l1.993.162zm-1.99-2.97c-.689-.056-1.343.173-1.802.75-.405.51-.568 1.184-.623 1.862l1.993.162c.042-.518.152-.725.196-.78.013-.016.009-.007-.008 0-.013.005.007-.007.082-.001l.162-1.993zM6.54 95.075l-.198 2.44 1.993.162.198-2.44-1.993-.162zm9.465.226c.057-.704 0-1.418-.333-2.001-.374-.656-1-.988-1.706-1.046l-.161 1.994a.473.473 0 01.118.025l-.001-.001.003.004a.143.143 0 01.01.014c.04.073.12.31.076.85l1.994.161zm-2.039-3.047c-.704-.057-1.377.17-1.851.757-.423.523-.594 1.217-.652 1.922l1.994.161c.044-.54.16-.76.213-.825a.147.147 0 01.011-.013l.004-.003h-.001s-.001 0 0 0l.026-.005a.475.475 0 01.095 0l.161-1.994zm-2.502 2.679l-.242 2.978 1.993.162.242-2.978-1.994-.162zm.674 4.055l2.547.207.162-1.993-2.548-.207-.161 1.993zm3.625-.709l.242-2.978-1.994-.162-.242 2.979 1.994.162zm2.551-21.369l.244-.97-.97-.243-.244.97.97.243zm2.672.67l.97.243.243-.97-.97-.243-.243.97zm-2.46 9.812l-.244.97.97.243.244-.97-.97-.243zM6.304 84.328l-.97-.243-.243.97.97.243.243-.97zm2.403-9.585l.243-.97-.97-.244-.243.97.97.244zm2.671.67l.97.242.243-.97-.97-.243-.243.97zm-1.545 6.163l-.97-.244-.243.97.97.243.243-.97zm2.06.516l-.243.97.97.243.243-.97-.97-.243zm1.362-5.43l.243-.97-.97-.243-.243.97.97.243zm2.584.648l.97.243.243-.97-.97-.243-.243.97zm-1.362 5.43l-.97-.243-.243.97.97.243.243-.97zm2.235.56l-.243.97.97.243.243-.97-.97-.243zm1.36-5.42l2.67.67.487-1.94-2.671-.67-.487 1.94zm1.944-.543l-2.46 9.812 1.94.486 2.46-9.812-1.94-.486zm-1.247 9.085L6.547 83.358l-.486 1.94 12.221 3.064.487-1.94zM7.274 84.571l2.403-9.585-1.94-.487-2.403 9.586 1.94.486zm1.19-8.858l2.671.67.486-1.94-2.67-.67-.487 1.94zm1.944-.544l-1.545 6.163 1.94.487 1.545-6.164-1.94-.486zm-.818 7.377l2.06.516.486-1.94-2.06-.516-.486 1.94zm3.273-.21l1.362-5.43-1.94-.487-1.362 5.43 1.94.486zm.149-4.704l2.584.648.486-1.94-2.584-.648-.486 1.94zm1.857-.565l-1.362 5.43 1.94.486 1.362-5.43-1.94-.486zm-.635 6.643l2.235.56.486-1.94-2.234-.56-.487 1.94zm3.448-.167l1.602-6.39-1.94-.486-1.602 6.39 1.94.486zM15.276 58.31l.403-.914-.915-.403-.403.915.915.403zm11.53 5.082l.915.403.403-.915-.915-.403-.403.915zm-1.437 3.261l-.403.915.915.404.403-.915-.915-.404zm-4.497-1.981l.403-.915-.915-.404-.403.915.915.404zm-1.96 4.447l-.915-.403-.403.915.915.403.403-.915zm4.497 1.982l.915.403.403-.915-.915-.403-.403.915zm-1.437 3.261l-.403.915.915.403.403-.915-.915-.403zm-11.53-5.081l-.915-.403-.404.915.916.403.403-.915zm1.437-3.261l.403-.915-.915-.404-.403.915.915.404zm4.332 1.909l-.403.915.915.403.403-.915-.915-.403zm1.96-4.448l.915.404.403-.916-.915-.403-.403.915zm-4.332-1.909l-.915-.403-.404.915.915.403.404-.915zm1.034-2.346l11.53 5.081.806-1.83-11.53-5.081-.806 1.83zm11.018 3.763l-1.437 3.261 1.83.806 1.437-3.26-1.83-.807zm-.119 2.75l-4.497-1.982-.806 1.83 4.497 1.981.806-1.83zm-5.815-1.47l-1.96 4.447 1.83.806 1.96-4.447-1.83-.807zm-1.448 5.765l4.497 1.982.806-1.83-4.497-1.982-.806 1.83zm3.985.663l-1.437 3.262 1.83.806 1.437-3.261-1.83-.807zm-.119 2.75l-11.53-5.081-.806 1.83 11.53 5.081.806-1.83zm-11.018-3.763l1.437-3.261-1.83-.807-1.437 3.262 1.83.806zm.119-2.75l4.332 1.91.806-1.83-4.332-1.91-.806 1.83zm5.65 1.398l1.96-4.447-1.83-.807-1.96 4.447 1.83.807zm1.448-5.766l-4.332-1.909-.807 1.83 4.332 1.91.807-1.83zm-3.82-.59l1.437-3.262-1.83-.806-1.437 3.261 1.83.806z" fill="#E35D14"/><path d="M31.21 51.904l.21-.978-.66-.141-.378.558.828.561zm-2.99 4.41l-.828-.562-.379.558.375.56.831-.556zm1.47 2.193l.827.561.378-.558-.375-.56-.83.557zm-2.042 3.01l-.847.53.814 1.3.861-1.27-.828-.56zM20.343 49.84l-.828-.56-.366.538.346.553.848-.53zm1.97-2.904l.178-.984-.64-.116-.366.538.828.562zm13.56 2.454l.828.562.862-1.272-1.512-.274-.178.984zm-2.081 3.069l-.21.978.659.141.378-.558-.828-.561zm-5.343-1.166l.827.561.831-1.224-1.446-.314-.212.977zm-4.246-.922l.212-.978-2.432-.528 1.39 2.064.83-.559zm2.427 3.603l-.83.56.827 1.226.83-1.224-.827-.562zm3.752-2.631l-2.99 4.41 1.655 1.122 2.99-4.41-1.655-1.122zm-2.994 5.527l1.47 2.194 1.662-1.114-1.47-2.193-1.662 1.113zm1.474 1.076l-2.041 3.009 1.655 1.123 2.041-3.01-1.655-1.122zm-.366 3.04L21.191 49.31l-1.696 1.06 7.306 11.677 1.695-1.061zM21.17 50.402l1.97-2.905-1.655-1.123-1.97 2.905 1.655 1.123zm.965-2.482l13.56 2.454.356-1.968-13.56-2.454-.356 1.968zm12.91.909l-2.081 3.069 1.655 1.122 2.081-3.069-1.655-1.122zm-1.043 2.652l-2.582-.555-.42 1.956 2.581.555.42-1.956zm-5.34-1.165l-4.247-.923-.425 1.955 4.247.922.424-1.954zm-5.289.613l2.428 3.604 1.659-1.117-2.428-3.604-1.659 1.117zm4.085 3.607l1.819-2.682-1.656-1.122-1.818 2.681 1.655 1.123z" fill="#E35D14"/><path d="M36.812 30.223l.7-.715-.715-.699-.7.715.715.7zm9.006 8.812l.715.7.7-.715-.716-.7-.699.715zm-2.052 2.097l-.082.997.468.039.329-.337-.715-.699zm-8.689-.72l.083-.996-2.765-.23 1.983 1.941.7-.715zm4.8 4.696l.714.7.7-.716-.715-.7-.7.716zm-2.443 2.496l-.7.715.716.699.699-.715-.715-.7zm-9.006-8.812l-.715-.7-.7.715.716.7.699-.715zm2.052-2.097l.082-.997-.468-.039-.329.336.715.7zm8.689.72l-.083.996 2.765.23-1.983-1.941-.7.715zm-4.8-4.696l-.714-.7-.7.715.715.7.7-.715zm1.744-1.781l9.006 8.812 1.398-1.43-9.006-8.812-1.398 1.43zm8.99 7.398l-2.052 2.097 1.43 1.398 2.052-2.097-1.43-1.398zm-1.254 1.8l-8.69-.72-.164 1.993 8.689.72.165-1.993zm-9.471.991l4.799 4.695 1.399-1.43-4.8-4.695-1.398 1.43zm4.784 3.281l-2.443 2.496 1.43 1.4 2.442-2.497-1.43-1.399zm-1.029 2.48l-9.006-8.811-1.398 1.43 9.006 8.812 1.398-1.43zm-8.99-7.397l2.052-2.097-1.43-1.399-2.052 2.097 1.43 1.4zm1.254-1.8l8.69.72.164-1.993-8.688-.72-.166 1.993zm9.471-.991l-4.799-4.696-1.399 1.43 4.8 4.695 1.398-1.43zm-4.783-3.282l2.442-2.495-1.43-1.4-2.442 2.497 1.43 1.398zm15.328 1.262l.126.993.013-.002-.14-.99zm-3.368-.466l.396-.918-.396.918zm-3.94-5.502l-.998.08.997-.08zm.652-3.324l.895.447.002-.004-.897-.443zm5.293-4.079l.204.98-.204-.98zm2.9.093l.977.212.2-.918-.904-.256-.273.962zm-.65 2.989l-.253.967 1.01.265.221-1.02-.977-.212zm-4.504 1.964l-.904-.428-.004.01.908.418zm-.265 1.762l-.992.124v.008l.992-.131zm2.19 3.059l-.45.892.01.006.013.006.428-.904zm1.744.3l.105.995h.01l-.115-.994zm3.31-3.632l.113-.993-1.037-.119-.074 1.041.998.071zm3.038.348l.999.05.048-.937-.933-.107-.114.994zm-.846 2.775l-.86-.508.86.508zm-2.757 1.498c-.956.685-1.933 1.084-2.937 1.225l.28 1.98c1.356-.19 2.632-.727 3.822-1.579l-1.165-1.626zm-2.923 1.223a5.34 5.34 0 01-2.846-.392l-.791 1.837a7.34 7.34 0 003.889.54l-.252-1.985zm-2.846-.392c-.887-.382-1.648-1.002-2.285-1.891L43.53 32.57c.83 1.159 1.87 2.024 3.12 2.563l.791-1.837zm-2.285-1.891c-.637-.89-.978-1.81-1.055-2.772l-1.994.158c.108 1.356.593 2.62 1.423 3.779l1.626-1.165zm-1.055-2.772a5.211 5.211 0 01.55-2.798l-1.789-.893a7.21 7.21 0 00-.755 3.85l1.994-.16zm.553-2.802c.45-.911 1.136-1.71 2.09-2.393l-1.165-1.626c-1.193.855-2.109 1.898-2.719 3.134l1.794.885zm2.09-2.393c.84-.601 1.675-.975 2.51-1.15l-.409-1.957c-1.143.238-2.232.74-3.266 1.481l1.165 1.626zm2.51-1.15a4.992 4.992 0 012.423.076l.546-1.924a6.99 6.99 0 00-3.378-.11l.409 1.958zm1.718-1.098l-.648 2.989 1.954.424.649-2.989-1.955-.424zm.583 2.233c-1.492-.391-2.897-.185-4.11.684l1.164 1.626c.679-.486 1.457-.633 2.438-.375l.508-1.934zm-4.11.684c-.68.487-1.208 1.093-1.553 1.82l1.808.856c.184-.389.476-.74.91-1.05l-1.165-1.626zm-1.557 1.83a4.186 4.186 0 00-.35 2.304l1.985-.247a2.187 2.187 0 01.181-1.22l-1.816-.838zm-.349 2.312c.106.793.425 1.536.918 2.224l1.626-1.164c-.332-.464-.505-.903-.56-1.323l-1.984.263zm.918 2.224c.493.689 1.095 1.232 1.813 1.595l.903-1.784c-.393-.2-.759-.513-1.09-.975l-1.626 1.164zm1.837 1.607a4.216 4.216 0 002.276.391l-.21-1.989a2.217 2.217 0 01-1.21-.21l-.856 1.808zm2.285.39c.8-.092 1.544-.397 2.223-.883l-1.165-1.626c-.433.31-.859.473-1.286.522l.228 1.987zm2.223-.883c1.214-.87 1.861-2.133 1.97-3.672l-1.995-.142c-.072 1.012-.461 1.701-1.14 2.188l1.165 1.626zm.859-2.75l3.039.348.227-1.987-3.039-.347-.227 1.987zm2.154-.697a4.992 4.992 0 01-.709 2.319l1.723 1.017a6.991 6.991 0 00.983-3.233l-1.997-.103zm-.709 2.319c-.433.734-1.057 1.405-1.896 2.006l1.165 1.626c1.033-.74 1.86-1.61 2.454-2.615l-1.723-1.017zm13.212-8.858l.897-.443-.444-.897-.896.444.443.896zm1.222 2.468l.444.896.896-.443-.444-.896-.896.443zm-9.066 4.489l-.896.443.444.896.896-.443-.444-.896zm-5.59-11.292l-.444-.897-.896.444.444.896.896-.443zm8.856-4.385l.896-.444-.443-.896-.896.444.443.896zm1.222 2.468l.444.896.896-.443-.444-.896-.896.443zm-5.694 2.82l-.444-.897-.896.444.444.896.896-.444zm.942 1.903l-.896.444.444.896.896-.444-.444-.896zm5.017-2.484l.896-.444-.444-.896-.896.444.444.896zm1.182 2.388l.444.896.896-.444-.444-.896-.896.444zm-5.017 2.483l-.444-.896-.896.444.444.896.896-.444zm1.022 2.065l-.896.444.444.896.896-.444-.444-.896zm5.008-2.48l1.222 2.469 1.792-.887-1.222-2.468-1.792.887zm1.675 1.13L60.03 27.66l.887 1.793 9.066-4.489-.887-1.792zm-7.726 4.94l-5.59-11.292-1.793.887 5.59 11.292 1.792-.887zm-6.043-9.952l8.856-4.385-.887-1.792-8.857 4.384.888 1.793zm7.516-4.837l1.222 2.468 1.792-.887-1.222-2.469-1.792.888zm1.674 1.128l-5.694 2.82.887 1.792 5.695-2.82-.888-1.792zm-6.147 4.16l.943 1.903 1.792-.888-.942-1.903-1.793.887zm2.283 2.355l5.017-2.484-.888-1.792-5.017 2.484.888 1.792zm3.677-2.936l1.182 2.387 1.792-.887-1.182-2.387-1.792.887zm1.634 1.047l-5.017 2.484.888 1.793 5.017-2.484-.888-1.793zm-5.47 3.824l1.023 2.065 1.792-.887-1.022-2.065-1.792.887zm2.363 2.517l5.904-2.923-.887-1.792-5.904 2.923.887 1.792z" fill="#E35D14"/><path d="M92.21 8.204l-.101-.995-.995.1.1.995.995-.1zm.277 2.758l-.995.1.1.995.995-.1-.1-.995zm5.534-.556l.995-.1-.1-.995-.995.1.1.995zm.275 2.74l.1.995.995-.1-.1-.995-.995.1zm-5.534.556l-.1-.995-.995.1.1.995.995-.1zm.433 4.299l.1.995.995-.1-.1-.995-.995.1zm-3.547.356l-.995.1.1.995.996-.1-.1-.995zm-1.26-12.536l-.1-.995-.996.1.1.995.995-.1zm9.832-.99l.995-.1-.1-.994-.995.1.1.995zm.275 2.74l.1.996.995-.1-.1-.995-.995.1zm-7.28.733l.276 2.758 1.99-.2-.277-2.758-1.99.2zm1.372 3.653l5.534-.556-.2-1.99-5.535.556.2 1.99zm4.439-1.451l.275 2.74 1.99-.2-.275-2.74-1.99.2zm1.17 1.645l-5.534.556.2 1.99 5.534-.556-.2-1.99zm-6.429 1.652L92.2 18.1l1.99-.2-.433-4.299-1.99.2zm1.327 3.203l-3.546.356.2 1.99 3.547-.356-.2-1.99zm-2.45 1.251L89.381 5.721l-1.99.2 1.261 12.537 1.99-.2zM88.486 6.816l9.833-.99-.2-1.99-9.833.99.2 1.99zm8.738-1.884l.275 2.74 1.99-.2-.275-2.74-1.99.2zm1.17 1.645l-6.286.632.2 1.99 6.287-.632-.2-1.99zm12.582 8.746l.948-.316-.214-.64-.673-.042-.061.998zm-5.318-.328l.062-.998-.673-.042-.291.608.902.432zm-1.139 2.382l-.062.998.673.042.291-.609-.902-.43zm-3.629-.224l-.889-.46-.705 1.363 1.532.095.062-.998zm6.328-12.233l.062-.998-.65-.04-.3.578.888.46zm3.504.216l.937-.347-.226-.61-.65-.04-.061.997zm4.792 12.92l-.062.999 1.534.095-.535-1.441-.937.348zm-3.701-.228l-.949.317.214.64.673.041.062-.998zm-1.717-5.192l-.062.998 1.477.091-.466-1.404-.949.315zm-1.368-4.124l.949-.315-.784-2.362-1.068 2.247.903.43zm-1.866 3.924l-.903-.43-.635 1.337 1.476.091.062-.998zm4.175 1.89l-5.317-.33-.124 1.997 5.318.329.123-1.997zm-6.281.237l-1.139 2.383 1.804.862 1.139-2.382-1.804-.863zm-.176 1.816l-3.629-.224-.123 1.996 3.629.224.123-1.996zm-2.802 1.233l6.329-12.233-1.777-.919-6.329 12.233 1.777.92zm5.379-11.694l3.503.217.123-1.997-3.503-.216-.123 1.996zm2.627-.434l4.792 12.92 1.875-.695-4.792-12.92-1.875.695zm5.791 11.575l-3.701-.23-.123 1.997 3.701.229.123-1.996zm-2.814.452l-.837-2.504-1.897.633.837 2.505 1.897-.634zm-1.716-5.19l-1.368-4.124-1.898.63 1.368 4.124 1.898-.63zm-3.22-4.239l-1.866 3.925 1.806.859 1.866-3.925-1.806-.859zm-1.025 5.352l3.234.2.124-1.996-3.234-.2-.124 1.996zm13.826 5.186l-.669.743.01.009.659-.752zm-1.844-2.856l.954-.3-.954.3zm1.596-6.577l-.711-.704.711.704zm2.944-1.675l.245.97.004-.002-.249-.968zm6.544 1.347l-.608.794.608-.794zm1.823 2.258l.478.879.825-.449-.396-.852-.907.422zm-2.687 1.46l-.899.438.458.938.918-.498-.477-.879zm-4.429-2.131l-.266-.964-.009.002.275.962zm-1.508.949l-.742-.671-.005.005.747.666zm-.887 3.656l-.971.24.003.013.004.013.964-.266zm.909 1.517l-.685.729.007.006.678-.735zm4.913.136l.827-.562-.588-.863-.837.623.598.802zm1.72 2.53l.613.79.742-.576-.528-.777-.827.562zm-2.655 1.17l-.177-.984.177.984zm-2.935-1.111c-1.143-.277-2.082-.757-2.845-1.425l-1.318 1.504c1.03.902 2.269 1.52 3.692 1.864l.471-1.943zm-2.834-1.416a5.333 5.333 0 01-1.56-2.412l-1.909.599a7.337 7.337 0 002.13 3.299l1.339-1.486zm-1.56-2.412c-.29-.922-.317-1.903-.059-2.966l-1.944-.472c-.336 1.386-.313 2.74.094 4.037l1.909-.6zm-.059-2.966c.258-1.063.732-1.922 1.411-2.609l-1.421-1.407c-.957.967-1.598 2.159-1.934 3.544l1.944.472zm1.411-2.609a5.213 5.213 0 012.479-1.409l-.491-1.938a7.211 7.211 0 00-3.409 1.94l1.421 1.407zm2.483-1.41c.985-.254 2.038-.255 3.178.022l.471-1.944c-1.425-.346-2.814-.359-4.148-.014l.499 1.936zm3.178.022c1.003.243 1.832.632 2.509 1.151l1.217-1.588c-.927-.71-2.019-1.207-3.255-1.507l-.471 1.944zm2.509 1.151a4.988 4.988 0 011.524 1.885l1.814-.843a6.984 6.984 0 00-2.121-2.63l-1.217 1.588zm1.954.585l-2.688 1.46.955 1.757 2.688-1.46-.955-1.757zm-1.312 1.9c-.677-1.387-1.75-2.316-3.201-2.668l-.471 1.943c.811.197 1.43.69 1.875 1.602l1.797-.878zm-3.201-2.668c-.812-.197-1.615-.202-2.392.012l.532 1.928c.414-.115.871-.122 1.389.003l.471-1.943zm-2.401.014a4.18 4.18 0 00-1.975 1.24l1.483 1.342a2.185 2.185 0 011.042-.659l-.55-1.923zm-1.98 1.245c-.532.598-.887 1.325-1.086 2.147l1.943.472c.135-.554.354-.971.636-1.288l-1.493-1.33zm-1.086 2.147c-.2.823-.219 1.634-.025 2.415l1.941-.48c-.106-.428-.107-.91.027-1.463l-1.943-.472zm-.018 2.44c.212.77.61 1.437 1.188 1.98l1.371-1.456a2.208 2.208 0 01-.631-1.055l-1.928.532zm1.195 1.987c.592.546 1.309.91 2.121 1.107l.471-1.944c-.517-.125-.919-.341-1.236-.633l-1.356 1.47zm2.121 1.107c1.451.352 2.83.018 4.067-.904l-1.195-1.604c-.813.606-1.589.761-2.401.565l-.471 1.943zm2.643-1.143l1.72 2.529 1.654-1.125-1.72-2.53-1.654 1.126zm1.934 1.176c-.645.5-1.379.826-2.219.977l.354 1.968a6.991 6.991 0 003.091-1.365l-1.226-1.58zm-2.219.977c-.839.15-1.754.116-2.758-.127l-.471 1.943c1.235.3 2.434.359 3.583.152l-.354-1.968zm16.461.606l-.065-.998-2.33.152 1.717 1.582.678-.736zm1.082 1.762l-.971.237.002.01.969-.247zm-2.438 3.829l.186.983-.186-.983zm-10.139-3.398l-.918-.396-.397.918.918.396.397-.918zm4.995-11.568l.396-.918-.918-.396-.397.918.919.396zm8.93 4.837l-.856.516.005.008.851-.524zm-.848 4.006l-.568-.823-.006.004.574.819zm-5.864-5.081l.397-.918-.919-.396-.396.918.918.396zm-.963 2.23l-.918-.396-.397.919.918.396.397-.918zm-.978 2.265l.397-.918-.918-.397-.397.918.918.397zm-1.013 2.346l-.918-.396-.396.918.918.396.396-.918zm6.558-.492c.436.4.681.82.789 1.263l1.943-.475c-.213-.872-.69-1.627-1.377-2.26l-1.355 1.472zm.791 1.273c.104.404.074.848-.151 1.367l1.837.793c.375-.869.479-1.766.252-2.655l-1.938.495zm-.151 1.367c-.31.72-.788 1.097-1.503 1.232l.371 1.966c1.391-.263 2.404-1.098 2.969-2.405l-1.837-.793zm-1.503 1.232c-.775.147-1.856-.008-3.311-.636l-.793 1.836c1.629.704 3.143 1.017 4.475.766l-.371-1.966zm-3.311-.636l-6.247-2.697-.793 1.836 6.247 2.697.793-1.836zm-5.725-1.383l4.995-11.567-1.837-.793-4.994 11.568 1.836.792zm3.68-11.046l5.916 2.555.793-1.836-5.916-2.555-.793 1.836zm5.916 2.555c1.384.598 2.174 1.25 2.555 1.88l1.712-1.033c-.686-1.137-1.906-2.006-3.474-2.683l-.793 1.836zm2.56 1.888c.37.601.408 1.157.141 1.777l1.836.792c.531-1.23.431-2.473-.275-3.618l-1.702 1.05zm.141 1.777c-.169.39-.404.673-.706.882l1.137 1.646a3.999 3.999 0 001.405-1.736l-1.836-.792zm-.712.886c-.284.2-.631.325-1.073.353l.13 1.996c.768-.05 1.476-.28 2.092-.711l-1.149-1.638zm-6.208-4.658l-.963 2.23 1.836.793.963-2.23-1.836-.793zm-.442 3.545l2.248.97.793-1.836-2.248-.97-.793 1.836zm2.248.97c.626.27 1.301.442 1.945.319.727-.14 1.233-.616 1.507-1.25l-1.836-.793c-.032.074-.055.09-.047.083.011-.01.019-.008 0-.004-.069.013-.301.015-.776-.19l-.793 1.835zm3.452-.931c.274-.635.267-1.329-.132-1.948-.353-.547-.94-.918-1.564-1.188l-.793 1.837c.477.206.638.376.676.435.011.017.003.01.002-.008 0-.013.005.009-.025.079l1.836.793zm-1.696-3.136l-2.247-.97-.793 1.836 2.247.97.793-1.836zm-3.251 8.892c.649.28 1.343.455 2.002.327.741-.144 1.257-.63 1.538-1.28l-1.837-.793a.454.454 0 01-.062.105h.001l.001-.002-.004.002-.017.004c-.083.016-.332.015-.829-.2l-.793 1.837zm3.54-.953c.28-.65.28-1.359-.123-1.997-.359-.567-.962-.953-1.611-1.233l-.793 1.836c.497.215.669.396.714.467l.008.015.002.005v-.002l-.003.026a.443.443 0 01-.031.09l1.837.793zm-1.734-3.23l-2.743-1.184-.793 1.836 2.743 1.184.793-1.836zm-4.058-.663l-1.013 2.347 1.836.793 1.013-2.347-1.836-.793zm-.491 3.662l2.743 1.184.793-1.836-2.744-1.185-.792 1.837zm19.28 9.197l.842.54.54-.842-.842-.54-.54.842zm-1.487 2.318l-.54.842.842.54.54-.842-.842-.54zm-8.515-5.462l-.841-.54-.54.842.841.54.54-.842zm6.803-10.605l.54-.842-.842-.54-.539.842.841.54zm8.318 5.335l.842.54.54-.842-.842-.54-.54.842zm-1.487 2.318l-.54.842.842.54.54-.842-.842-.54zm-5.348-3.43l.54-.842-.842-.54-.54.842.842.54zm-1.147 1.787l-.842-.54-.539.842.841.54.54-.842zm4.712 3.023l.842.54.54-.842-.842-.54-.54.842zm-1.438 2.242l-.54.842.842.54.54-.842-.842-.54zm-4.712-3.022l.54-.842-.842-.54-.54.842.842.54zm-1.244 1.94l-.842-.54-.54.84.842.54.54-.84zm4.703 3.016l-1.486 2.318 1.683 1.08 1.487-2.318-1.684-1.08zm-.105 2.016l-8.515-5.461-1.08 1.683 8.515 5.462 1.08-1.684zm-8.213-4.08l6.803-10.605-1.683-1.08-6.803 10.605 1.683 1.08zm5.421-10.304l8.318 5.336 1.08-1.684-8.318-5.335-1.08 1.683zm8.016 3.954l-1.486 2.318 1.683 1.08 1.487-2.318-1.684-1.08zm-.105 2.017l-5.348-3.431-1.08 1.683 5.348 3.43 1.08-1.682zm-6.73-3.13l-1.147 1.788 1.684 1.08 1.147-1.787-1.684-1.08zm-.845 3.17l4.712 3.023 1.08-1.684-4.712-3.022-1.08 1.683zm4.41 1.64l-1.438 2.243 1.684 1.08 1.438-2.242-1.684-1.08zm-.056 1.942l-4.712-3.023-1.08 1.683 4.712 3.023 1.08-1.683zm-6.094-2.721l-1.244 1.94 1.684 1.079 1.244-1.94-1.684-1.08zm-.942 3.32l5.545 3.558 1.08-1.684-5.545-3.557-1.08 1.684zm9.809 8.434l-.944.328.001.005.943-.333zm-.251-3.417l-.979-.202-.002.01.981.192zm4.566-4.946l-.271-.963-.008.003.279.96zm3.426-.023l.257-.966-.005-.001-.252.967zm5.277 4.872l-.944.328.001.005.943-.333zm.252 3.416l-.98-.202-.002.009.982.193zm-4.567 4.947l-.271-.963-.008.003.279.96zm-3.425.022l.256-.966-.004-.001-.252.967zm.371-3.135l-.217.976.217-.976zm1.754-.096l.313.95.009-.003-.322-.947zm2.552-2.764l-.97-.245-.002.008.972.237zm-.033-1.77l.956-.294-.956.294zm-2.539-2.344l.217-.976-.217.976zm-1.766.109l.313.95.008-.003-.321-.947zm-2.552 2.764l-.97-.245-.002.01.972.235zm.045 1.756l.955-.294-.955.294zm-.36 2.938c-.872-.805-1.464-1.692-1.807-2.662l-1.886.666c.462 1.307 1.251 2.463 2.337 3.465l1.356-1.47zm-1.805-2.658a5.441 5.441 0 01-.215-2.895l-1.962-.386a7.44 7.44 0 00.288 3.938l1.889-.657zm-.216-2.886c.195-.947.644-1.814 1.377-2.607l-1.47-1.357c-.96 1.04-1.592 2.23-1.866 3.56l1.959.404zm1.377-2.607c.732-.794 1.56-1.31 2.489-1.581l-.559-1.92c-1.304.379-2.439 1.104-3.4 2.144l1.47 1.357zm2.48-1.579a5.44 5.44 0 012.903-.017l.504-1.935a7.438 7.438 0 00-3.949.027l.542 1.925zm2.898-.018c.995.264 1.926.784 2.798 1.588l1.356-1.47c-1.085-1.002-2.3-1.695-3.64-2.051l-.514 1.933zm2.798 1.588c.872.805 1.458 1.687 1.792 2.645l1.889-.657c-.453-1.303-1.239-2.455-2.325-3.457l-1.356 1.47zm1.793 2.65c.344.974.412 1.928.215 2.881l1.959.404c.273-1.324.173-2.648-.288-3.951l-1.886.666zm.213 2.89c-.187.953-.632 1.82-1.362 2.61l1.47 1.358c.963-1.044 1.591-2.24 1.855-3.581l-1.963-.387zm-1.362 2.61c-.73.792-1.558 1.304-2.494 1.567l.542 1.926c1.316-.37 2.459-1.092 3.422-2.136l-1.47-1.356zm-2.502 1.57c-.935.272-1.891.28-2.89.016l-.513 1.933c1.336.355 2.664.349 3.962-.029l-.559-1.92zm-2.894.015c-.982-.256-1.908-.77-2.78-1.575l-1.356 1.47c1.085 1.001 2.297 1.692 3.632 2.04l.504-1.935zm-2.134-2.275a4.38 4.38 0 002.036 1.083l.434-1.953a2.38 2.38 0 01-1.114-.6l-1.356 1.47zm2.036 1.083c.765.17 1.533.125 2.284-.122l-.626-1.9a2.253 2.253 0 01-1.224.07l-.434 1.952zm2.293-.125c.772-.262 1.447-.725 2.026-1.352l-1.47-1.357c-.382.414-.782.673-1.2.815l.644 1.894zm2.026-1.352c.578-.627.984-1.335 1.176-2.123l-1.944-.473c-.1.413-.32.825-.702 1.24l1.47 1.356zm1.173-2.114a4.21 4.21 0 00-.046-2.309l-1.911.589c.118.386.13.788.018 1.23l1.939.49zm-.046-2.309a4.376 4.376 0 00-1.242-1.943l-1.356 1.47c.346.32.566.671.687 1.062l1.911-.589zm-1.242-1.943a4.374 4.374 0 00-2.036-1.083l-.434 1.952c.399.089.767.28 1.114.6l1.356-1.47zm-2.036-1.083a4.221 4.221 0 00-2.305.138l.643 1.894a2.225 2.225 0 011.228-.08l.434-1.952zm-2.296.135c-.771.254-1.444.715-2.023 1.342l1.47 1.357c.382-.414.776-.666 1.179-.8l-.626-1.899zm-2.023 1.342c-.578.627-.986 1.337-1.186 2.127l1.939.49c.109-.427.335-.847.717-1.26l-1.47-1.357zm-1.188 2.136a4.246 4.246 0 00.061 2.287l1.911-.589a2.26 2.26 0 01-.028-1.226l-1.944-.472zm.061 2.287c.231.75.654 1.4 1.242 1.943l1.356-1.47a2.385 2.385 0 01-.687-1.062l-1.911.589zm9.418 12.127l-.989.146v.004l.989-.15zm.396-3.402l-.924-.383-.004.008.928.375zm5.415-4l-.085-.997-.009.001.094.996zm3.368.622l.434-.9-.004-.003-.43.903zm4.267 5.777l-.989.145.001.005.988-.15zm-.395 3.403l-.924-.383-.003.009.927.374zm-5.415 4l-.085-.997-.009.001.094.996zm-3.369-.623l.434-.9-.004-.003-.43.903zm.955-3.01l-.397.918.397-.917zm1.74.236l.129.992.009-.001-.138-.99zm3.026-2.235l-.906-.423-.004.009.91.414zm.301-1.744l.994-.109-.994.11zm-2.053-2.78l.396-.917-.396.917zm-1.756-.225l.129.992.009-.001-.138-.99zm-3.026 2.235l-.906-.423-.004.009.91.414zm-.286 1.734l.994-.11-.994.11zm-.905 2.817c-.705-.955-1.12-1.937-1.274-2.954l-1.978.3c.208 1.37.765 2.653 1.643 3.842l1.609-1.188zm-1.274-2.95a5.45 5.45 0 01.334-2.883l-1.855-.749a7.441 7.441 0 00-.457 3.923l1.978-.29zm.331-2.875c.37-.894.974-1.66 1.843-2.302l-1.189-1.608c-1.139.84-1.983 1.89-2.502 3.145l1.848.765zm1.843-2.302c.868-.641 1.778-.994 2.742-1.084l-.188-1.992c-1.352.128-2.604.626-3.743 1.468l1.189 1.608zm2.733-1.084a5.44 5.44 0 012.854.53l.859-1.807a7.436 7.436 0 00-3.883-.716l.17 1.993zm2.85.527c.926.446 1.744 1.132 2.448 2.086l1.609-1.188c-.878-1.189-1.94-2.098-3.19-2.7l-.867 1.802zm2.448 2.086c.705.955 1.116 1.931 1.263 2.935l1.979-.29c-.2-1.365-.755-2.645-1.633-3.833l-1.609 1.188zm1.264 2.94c.154 1.021.041 1.971-.331 2.87l1.848.765c.517-1.249.667-2.568.46-3.935l-1.977.3zm-.334 2.879c-.364.9-.964 1.668-1.829 2.308l1.188 1.608c1.142-.843 1.984-1.9 2.495-3.168l-1.854-.748zm-1.829 2.308c-.866.64-1.776.986-2.744 1.07l.17 1.992c1.361-.116 2.62-.61 3.762-1.453l-1.188-1.61zm-2.753 1.07c-.969.091-1.91-.08-2.841-.528l-.868 1.802c1.246.6 2.551.844 3.897.717l-.188-1.991zm-2.845-.53c-.917-.436-1.729-1.115-2.434-2.07l-1.609 1.189c.878 1.188 1.938 2.095 3.184 2.687l.859-1.806zm-1.668-2.635a4.367 4.367 0 001.796 1.446l.793-1.835a2.377 2.377 0 01-.981-.8l-1.608 1.189zm1.796 1.446a4.248 4.248 0 002.266.31l-.257-1.983c-.441.057-.839 0-1.216-.162l-.793 1.835zm2.275.309c.808-.113 1.558-.44 2.244-.947l-1.188-1.609c-.453.334-.895.514-1.332.575l.276 1.98zm2.244-.947c.686-.507 1.218-1.126 1.554-1.864l-1.82-.83c-.176.387-.469.75-.922 1.085l1.188 1.609zm1.55-1.856a4.225 4.225 0 00.389-2.276l-1.988.219c.044.401-.02.799-.213 1.211l1.812.846zm.389-2.276a4.38 4.38 0 00-.854-2.142l-1.609 1.188c.28.38.43.767.475 1.173l1.988-.219zm-.854-2.142a4.376 4.376 0 00-1.797-1.446l-.793 1.835c.375.163.701.42.981.8l1.609-1.189zm-1.797-1.446a4.218 4.218 0 00-2.289-.298l.275 1.98c.451-.062.85-.007 1.221.153l.793-1.835zm-2.28-.3c-.805.105-1.553.431-2.239.938l1.188 1.609c.453-.335.887-.508 1.308-.563l-.257-1.983zm-2.239.938c-.686.507-1.22 1.128-1.565 1.866l1.813.846c.186-.4.488-.769.94-1.103l-1.188-1.609zm-1.569 1.875a4.26 4.26 0 00-.37 2.257l1.988-.219a2.254 2.254 0 01.202-1.209l-1.82-.83zm-.37 2.257c.086.78.379 1.498.855 2.142l1.608-1.188a2.38 2.38 0 01-.475-1.173l-1.988.219zm11.507 14.023l.9.437.508-1.047-1.112-.345-.296.955zm-1.861-.576l.296-.956-.378-.116-.355.172.437.9zm-2.833 1.376l-.9.437.437.9.9-.437-.437-.9zm-1.542-3.173l-.437-.9-.9.438.437.899.9-.437zm11.333-5.506l.9-.437-.438-.9-.899.437.437.9zm1.542 3.173l.437.9.899-.438-.437-.9-.899.438zm-4.712 2.289l-.437-.9-2.285 1.111 2.429.745.293-.956zm6.844 2.098l.899-.437-.19-.391-.416-.128-.293.956zm1.714 3.53l-.288.957 2.186.66-.998-2.054-.9.437zm-7.268-2.192l.288-.957-.808-.244-.376.756.896.445zm-3.947 7.941l-.899.437.889 1.83.906-1.822-.896-.445zm-1.809-3.724l-.9-.436-.212.437.213.436.899-.437zm2.835-6.19l-1.861-.578-.592 1.91 1.861.578.592-1.91zm-2.594-.522l-2.833 1.377.874 1.799 2.833-1.377-.874-1.799zm-1.497 1.84l-1.542-3.174-1.799.874 1.542 3.173 1.799-.874zm-2.004-1.838l11.333-5.506-.874-1.799-11.333 5.507.874 1.798zm9.997-5.968l1.541 3.173 1.799-.874-1.541-3.173-1.799.874zm2.004 1.836l-4.712 2.29.874 1.798 4.712-2.289-.874-1.799zm-4.568 4.145l6.843 2.098.587-1.912-6.843-2.098-.587 1.912zm6.237 1.58l1.715 3.529 1.799-.874-1.715-3.53-1.799.874zm2.903 2.135l-7.269-2.192-.577 1.914 7.269 2.192.577-1.914zm-8.453-1.68l-3.946 7.941 1.791.89 3.946-7.94-1.791-.891zm-2.151 7.95l-1.81-3.725-1.798.874 1.809 3.724 1.799-.874zm-1.809-2.851l2.539-5.236-1.8-.873-2.539 5.236 1.8.873zm18.118 20.508l.993-.12-.119-.992-.993.119.119.993zm.425 3.538l.119.993.993-.119-.119-.993-.993.12zm-12.51 1.502l-.993.12.119.992.993-.119-.119-.993zm-.425-3.538l-.119-.993-.993.119.119.993.993-.12zm11.518-1.383l.424 3.538 1.986-.238-.425-3.538-1.985.238zm1.298 2.426l-12.51 1.502.238 1.986 12.51-1.502-.238-1.986zm-11.398 2.376l-.425-3.539-1.986.239.425 3.538 1.986-.238zm-1.299-2.427l12.511-1.501-.239-1.986-12.51 1.502.238 1.985zm13.263 18.846l-.016 1 1 .016.016-1-1-.016zm-12.599-.194l-1-.016-.015 1 1 .016.015-1zm.045-2.934l-.625-.78-.367.295-.007.47.999.015zm6.8-5.458l.626.78 2.163-1.737-2.774-.042-.015.999zm-6.714-.103l-1-.016-.015 1 1 .016.015-1zm.054-3.492l.016-1-1-.015-.016 1 1 .015zm12.599.195l1 .015.015-1-1-.015-.015 1zm-.046 2.933l.626.78.367-.294.007-.47-1-.016zm-6.799 5.458l-.626-.78-2.163 1.737 2.774.043.015-1zm6.714.104l.999.015.016-1-1-.015-.015 1zm-.039 2.491l-12.598-.194-.031 2 12.598.194.031-2zm-11.614.821l.045-2.933-1.999-.031-.046 2.933 2 .031zm-.329-2.169l6.8-5.458-1.252-1.559-6.799 5.457 1.251 1.56zm6.189-7.237l-6.713-.104-.031 2 6.713.103.031-1.999zm-5.729.911l.054-3.491-2-.031-.054 3.491 2 .031zm-.961-2.507l12.598.195.031-2-12.598-.195-.031 2zm11.614-.82l-.045 2.933 1.999.031.046-2.934-2-.03zm.329 2.168l-6.8 5.458 1.252 1.56 6.799-5.458-1.251-1.56zm-6.189 7.238l6.713.104.031-2-6.713-.104-.031 2zm5.729-.912l-.054 3.492 2 .031.053-3.492-1.999-.031zm-12.193 8.199l.907.42-.907-.42zm1.404-2.126l.561-.828-.682-.462-.584.581.705.709zm2.381 1.614l.725.689.812-.854-.976-.662-.561.827zm-1.231 1.773l.889.457-.889-.457zm.809 3.857l-.816-.577-.011.015-.01.016.837.546zm.879-1.744l.923.385.003-.006-.926-.379zm1.056-2.225l-.858-.512-.005.007-.004.007.867.498zm5.508-.734l-.703.712.007.006.696-.718zm1.123 2.103l.974-.226-.001-.005-.973.231zm-.725 5.484l-.916-.4-.003.006-.003.007.922.387zm-1.171 1.948l-.54.842.732.47.567-.661-.759-.651zm-2.412-1.547l-.782-.622-.69.866.932.598.54-.842zm1.526-4.847l-.927.376.005.012.005.012.917-.4zm-1.558-.187l-.831-.556.831.556zm-.84 1.733l.926.377.001-.001-.927-.376zm-1.074 2.222l-.855-.518-.006.01-.006.01.867.498zm-1.387 1.416l-.52-.855-.01.007-.011.006.541.842zm-4.07-.655l.702-.712-.702.712zm-1.12-2.121l-.975.226.003.012.972-.238zm.991-2.931c.165-.922.438-1.792.818-2.613l-1.814-.84c-.455.98-.778 2.015-.972 3.101l1.968.352zm.818-2.613c.384-.829.791-1.428 1.203-1.837l-1.411-1.418c-.627.624-1.156 1.442-1.606 2.415l1.814.84zm-.064-1.718l2.381 1.614 1.122-1.655-2.381-1.615-1.122 1.656zm2.217.097a8.598 8.598 0 00-1.396 2.006l1.779.913c.319-.62.676-1.13 1.067-1.541l-1.45-1.378zm-1.396 2.006a8.48 8.48 0 00-.818 2.382l1.969.352c.108-.604.315-1.21.628-1.821l-1.779-.913zm-.818 2.382c-.129.723-.167 1.428.007 2.019.091.31.251.62.514.873.269.259.595.408.936.469l.352-1.969c-.001 0 .011.002.033.012a.253.253 0 01.064.046c.042.039.036.059.019.003-.042-.142-.068-.478.044-1.101l-1.969-.352zm1.457 3.361c.37.066.754.025 1.113-.155.345-.174.599-.444.785-.728l-1.675-1.093c-.05.076-.061.06-.01.034a.281.281 0 01.088-.026c.03-.004.049-.001.051-.001l-.352 1.969zm1.877-.853c.312-.441.639-1.108.985-1.936l-1.846-.771c-.336.806-.595 1.301-.772 1.553l1.633 1.154zm.988-1.942c.357-.873.69-1.571.998-2.106l-1.735-.996c-.365.637-.736 1.421-1.114 2.343l1.851.759zm.989-2.092a3.087 3.087 0 011.066-1.071l-1.04-1.708a5.066 5.066 0 00-1.743 1.755l1.717 1.024zm1.066-1.071c.328-.199.79-.299 1.48-.175l.352-1.969c-1.035-.185-2.023-.081-2.872.436l1.04 1.708zm1.48-.175a2.58 2.58 0 011.401.712l1.404-1.424a4.578 4.578 0 00-2.453-1.257l-.352 1.969zm1.407.718c.378.367.673.885.846 1.616l1.946-.462c-.244-1.027-.698-1.91-1.401-2.59l-1.391 1.436zm.845 1.611c.168.723.176 1.622-.021 2.723l1.969.352c.23-1.285.245-2.47 0-3.527l-1.948.452zm-.021 2.723a9.515 9.515 0 01-.646 2.135l1.833.8c.362-.83.622-1.691.782-2.583l-1.969-.352zm-.652 2.148c-.285.679-.624 1.236-1.008 1.684l1.518 1.302c.54-.63.982-1.372 1.334-2.212l-1.844-.774zm.291 1.493l-2.412-1.547-1.08 1.684 2.412 1.547 1.08-1.684zm-2.169-.082c.931-1.17 1.54-2.409 1.773-3.713l-1.968-.352c-.164.916-.603 1.855-1.37 2.82l1.565 1.245zm1.773-3.713c.135-.754.163-1.523-.114-2.156l-1.833.799c.035.08.093.365-.021 1.005l1.968.352zm-.103-2.132c-.252-.621-.742-1.101-1.463-1.23l-.352 1.968c.003.001-.004 0-.018-.006a.171.171 0 01-.037-.025c-.011-.009-.013-.014-.01-.009.003.005.013.021.026.053l1.854-.751zm-1.463-1.23a1.707 1.707 0 00-1.092.158 2.067 2.067 0 00-.761.704l1.663 1.112c.051-.077.062-.063.011-.036a.305.305 0 01-.173.03l.352-1.968zm-1.853.862c-.293.438-.604 1.095-.936 1.913l1.854.752c.323-.796.572-1.294.745-1.553l-1.663-1.112zm-.935 1.912c-.359.881-.694 1.569-1.003 2.081l1.711 1.035c.382-.632.763-1.425 1.144-2.362l-1.852-.754zm-1.015 2.101a2.922 2.922 0 01-1.04 1.059l1.04 1.709a4.924 4.924 0 001.734-1.772l-1.734-.996zm-1.061 1.072c-.312.201-.76.306-1.444.184l-.352 1.968c1.04.187 2.034.074 2.878-.469l-1.082-1.683zm-1.444.184a2.555 2.555 0 01-1.383-.709l-1.404 1.424a4.548 4.548 0 002.435 1.253l.352-1.968zm-1.383-.709c-.368-.364-.666-.891-.851-1.646l-1.943.475c.252 1.03.701 1.916 1.39 2.595l1.404-1.424zm-.848-1.635c-.168-.724-.177-1.617.017-2.705l-1.968-.352c-.228 1.275-.242 2.453.003 3.509l1.948-.452zm6.134 10.479l-.316.949.949.316.316-.949-.949-.316zm1.222-3.672l.316-.948-.949-.316-.315.948.948.316zm2.682.893l.948.316.316-.949-.948-.316-.316.949zm-3.565 10.708l-.316.949.949.316.316-.949-.949-.316zm-2.681-.892l-.949-.316-.316.949.949.315.316-.948zm1.216-3.655l.949.316.316-.949-.949-.316-.316.949zm-9.273-3.087l-.949-.316-.316.949.949.315.316-.948zm1.125-3.382l.316-.949-.949-.316-.315.949.948.316zm10.223 3.403l1.222-3.672-1.897-.632-1.223 3.672 1.898.632zm-.043-3.039l2.682.893.632-1.898-2.682-.892-.632 1.897zm2.049-.372l-3.565 10.708 1.898.632 3.564-10.708-1.897-.632zm-2.3 10.075l-2.682-.892-.631 1.897 2.681.893.632-1.898zm-2.049.372l1.217-3.654-1.898-.632-1.216 3.655 1.897.631zm.584-4.919l-9.274-3.087-.631 1.897 9.273 3.088.632-1.898zm-8.641-1.823l1.126-3.381-1.897-.632-1.126 3.382 1.897.631zm-.139-2.748l9.274 3.087.632-1.898-9.274-3.087-.632 1.898zm-4.684 16.97l-.102.995.671.068.315-.596-.884-.467zm2.486-4.712l.885.467.315-.596-.435-.516-.765.645zm-1.702-2.018l-.885-.467-.315.597.435.515.765-.645zm1.697-3.216l.784-.62-.952-1.203-.717 1.357.885.466zm8.547 10.8l.884.467.304-.576-.404-.511-.784.62zm-1.638 3.105l-.069.997.649.045.304-.576-.884-.466zm-13.748-.947l-.885-.466-.717 1.359 1.533.105.069-.998zm1.731-3.279l.101-.995-.671-.068-.315.596.885.467zm5.438.571l-.884-.467-.691 1.308 1.472.153.103-.994zm4.322.449l-.103.994 2.475.258-1.609-1.899-.763.647zm-2.81-3.315l.763-.646-.957-1.129-.69 1.308.884.467zm-3.439 3.029l2.487-4.712-1.769-.934-2.487 4.712 1.769.934zm2.367-5.824l-1.703-2.018-1.529 1.29 1.703 2.018 1.529-1.29zm-1.583-.906l1.697-3.216-1.769-.933-1.697 3.215 1.769.934zm.029-3.062l8.547 10.8 1.568-1.241-8.547-10.8-1.568 1.241zm8.446 9.713l-1.638 3.104 1.769.933 1.638-3.104-1.769-.933zm-.685 2.573l-13.748-.946-.137 1.995 13.748.946.137-1.995zm-12.932.518l1.731-3.279-1.769-.934-1.731 3.28 1.769.933zm.745-2.751l2.627.267.203-1.99-2.627-.267-.203 1.99zm5.437.57l4.322.449.206-1.989-4.322-.449-.206 1.989zm5.188-1.192l-2.81-3.314-1.526 1.293 2.81 3.314 1.526-1.293zm-4.457-3.135l-1.512 2.866 1.768.933 1.513-2.865-1.769-.934zm-8.955 18.442l.792.611.611-.791-.791-.611-.612.791zm-1.926 2.492l-.612.791.791.612.612-.791-.791-.612zm-4.13-3.193l-.999-.036-.019.513.406.315.612-.792zm4.804-7.48l-.41-.912-.008.004.418.908zm3.371-.534l-.116.994.116-.994zm5.354 4.14l.932-.362-.932.362zm.307 3.399l-.984-.18-.001.009.985.171zm-3.951 5.523l.49.872-.49-.872zm-2.784.806l-.997.077.074.96.963-.038-.04-.999zm-.236-3.05l-.081-.996-.993.08.077.994.997-.078zm3.795-4.232l-.993.118.001.009.992-.127zm-3.216-3.169l.16-.987-.009-.001-.151.988zm-1.781.216l-.38-.926-.007.003-.008.004.395.919zm-2.341 2.968l-.974-.225-.144.624.507.392.611-.791zm1.943 1.502l-1.926 2.492 1.582 1.224 1.927-2.493-1.583-1.223zm-.523 2.313l-4.13-3.193-1.224 1.583 4.13 3.192 1.224-1.582zm-3.743-2.365c.028-.763.195-1.55.512-2.366l-1.863-.725a9.184 9.184 0 00-.647 3.018l1.998.073zm.512-2.366a8.91 8.91 0 011.249-2.226l-1.582-1.223a10.895 10.895 0 00-1.53 2.724l1.863.725zm1.249-2.226c.72-.93 1.541-1.593 2.462-2.016l-.836-1.817c-1.244.572-2.313 1.452-3.208 2.61l1.582 1.223zm2.454-2.012a5.305 5.305 0 012.845-.453l.231-1.987a7.31 7.31 0 00-3.896.615l.82 1.825zm2.845-.453c.959.111 1.866.486 2.732 1.155l1.223-1.582c-1.128-.872-2.373-1.403-3.724-1.56l-.231 1.987zm2.732 1.155c.865.669 1.456 1.453 1.806 2.353l1.864-.724c-.492-1.268-1.319-2.339-2.447-3.211l-1.223 1.582zm1.806 2.353c.352.905.44 1.85.255 2.857l1.968.36c.248-1.358.132-2.679-.359-3.941l-1.864.724zm.254 2.866c-.176 1.012-.616 1.99-1.35 2.94l1.583 1.223c.91-1.178 1.499-2.453 1.737-3.82l-1.97-.343zm-1.35 2.94c-.65.841-1.354 1.46-2.106 1.883l.98 1.743c1.02-.574 1.92-1.383 2.709-2.403l-1.583-1.223zm-2.106 1.883a5.115 5.115 0 01-2.334.678l.08 1.998a7.103 7.103 0 003.234-.933l-.98-1.743zm-1.297 1.599l-.236-3.049-1.994.155.236 3.049 1.994-.155zm-1.153-1.975c1.522-.122 2.782-.769 3.693-1.947l-1.582-1.223c-.542.701-1.27 1.096-2.272 1.177l.161 1.993zm3.693-1.947c.795-1.029 1.171-2.179 1.014-3.409l-1.984.254c.08.621-.086 1.251-.612 1.932l1.582 1.223zm1.015-3.4c-.146-1.233-.806-2.253-1.841-3.053l-1.223 1.582c.693.536 1.006 1.102 1.078 1.707l1.986-.236zm-1.841-3.053c-.668-.516-1.406-.855-2.208-.985l-.319 1.974c.438.071.871.258 1.304.593l1.223-1.582zm-2.217-.986a4.305 4.305 0 00-2.312.278l.759 1.851a2.295 2.295 0 011.252-.152l.301-1.977zm-2.327.285c-.743.319-1.37.831-1.887 1.498l1.583 1.224c.335-.434.701-.716 1.093-.885l-.789-1.837zm-1.887 1.498a5.562 5.562 0 00-1.033 2.164l1.949.45a3.54 3.54 0 01.667-1.39l-1.583-1.224zm-.67 3.18l2.734 2.114 1.223-1.582-2.734-2.114-1.223 1.582zm-7.833 8.448l-.227.974.514.12.389-.357-.676-.737zm1.434-1.313l.675.737.738-.676-.676-.737-.737.676zm-2.262-2.469l-.676-.737-.737.676.676.737.737-.676zm2.627-2.407l.738-.676-.676-.737-.737.675.675.738zm8.513 9.289l.676.737.737-.675-.676-.738-.737.676zm-6.825 5.473l-.308-.951-.012.004.32.947zm-2.528.12l.254-.968-.008-.002-.246.97zm-3.31-3.559l.984-.178-.001-.004-.983.182zm.27-2.396l.93.368.428-1.08-1.132-.263-.226.975zm-4.679-1.084l-.676-.737-1.4 1.283 1.85.429.226-.975zm2.813-2.578l.228-.973-.514-.121-.389.357.675.737zm9.734 4.362l.676.737.737-.676-.675-.737-.738.676zm-2.493-2.721l.738-.675-.676-.738-.737.676.675.737zm-2.364 2.802l-.992-.131-.001.009-.001.01.994.112zm-.254-2.782l1.433-1.313-1.351-1.474-1.433 1.313 1.351 1.474zm1.495-2.726l-2.262-2.468-1.474 1.351 2.261 2.468 1.475-1.351zm-2.324-1.055l2.628-2.408-1.351-1.475-2.628 2.408 1.351 1.475zm1.215-2.47l8.513 9.29 1.474-1.352-8.512-9.289-1.475 1.351zm8.574 7.877l-4.246 3.891 1.351 1.475 4.247-3.892-1.352-1.474zm-4.246 3.891c-.759.696-1.497 1.137-2.211 1.368l.616 1.903c1.043-.338 2.024-.951 2.946-1.796l-1.351-1.475zm-2.223 1.372c-.703.237-1.346.259-1.954.099l-.508 1.935c1.02.268 2.063.211 3.101-.139l-.639-1.895zm-1.962.097c-.592-.15-1.151-.486-1.679-1.062l-1.475 1.351c.753.822 1.641 1.39 2.661 1.65l.493-1.939zm-1.679-1.062c-.505-.551-.787-1.118-.893-1.705l-1.968.355c.181 1.005.659 1.908 1.386 2.701l1.475-1.351zm-.894-1.709c-.106-.575-.046-1.182.217-1.846l-1.859-.737c-.386.973-.507 1.963-.324 2.947l1.966-.364zm-.487-3.189l-4.68-1.083-.451 1.949 4.68 1.083.451-1.949zm-4.23.629l2.814-2.578-1.351-1.475-2.814 2.578 1.351 1.475zm1.91-2.342l3.948.924.455-1.947-3.947-.924-.456 1.947zm4.88 5.53c.552.602 1.261.977 2.099.956l-.051-2c-.148.004-.33-.042-.573-.307l-1.475 1.351zm2.099.956c.828-.021 1.565-.442 2.199-1.023l-1.351-1.475c-.445.408-.741.494-.899.498l.051 2zm2.199-1.023l1.46-1.338-1.351-1.475-1.46 1.338 1.351 1.475zm1.522-2.751l-2.493-2.72-1.475 1.351 2.493 2.72 1.475-1.351zm-3.906-2.782l-1.46 1.338 1.351 1.474 1.46-1.338-1.351-1.474zm-1.46 1.338c-.628.575-1.114 1.263-1.221 2.07l1.983.262c.021-.156.138-.445.589-.858l-1.351-1.474zm-1.223 2.089c-.094.833.218 1.571.769 2.173l1.475-1.351c-.243-.265-.273-.451-.256-.598l-1.988-.224z" fill="#fff"/><path d="M148.927 178.663l-.578.816.55.389.568-.364-.54-.841zm4.485-2.877l.54.842.567-.364-.125-.663-.982.185zm-.489-2.595l-.54-.842-.567.364.125.663.982-.185zm3.061-1.963l.988-.154-.236-1.516-1.292.828.54.842zm2.121 13.608l.54.842.548-.352-.1-.644-.988.154zm-2.954 1.896l-.551.834.543.359.548-.352-.54-.841zm-11.5-7.593l-.54-.842-1.293.829 1.282.847.551-.834zm3.121-2.002l.578-.817-.55-.389-.568.364.54.842zm4.453 3.174l-.54-.842-1.246.799 1.206.858.58-.815zm3.54 2.519l-.58.815 2.028 1.443-.465-2.445-.983.187zm-.813-4.268l.982-.188-.277-1.453-1.245.799.54.842zm-4.485.942l4.485-2.876-1.08-1.684-4.485 2.877 1.08 1.683zm4.927-3.903l-.488-2.595-1.965.37.488 2.595 1.965-.37zm-.931-1.568l3.061-1.964-1.08-1.683-3.061 1.963 1.08 1.684zm1.533-2.651l2.121 13.608 1.976-.308-2.121-13.608-1.976.308zm2.569 12.613l-2.954 1.895 1.08 1.683 2.954-1.895-1.08-1.683zm-1.863 1.902l-11.5-7.593-1.102 1.669 11.5 7.593 1.102-1.669zm-11.511-5.917l3.121-2.002-1.08-1.683-3.121 2.002 1.08 1.683zm2.003-2.027l2.155 1.526 1.156-1.633-2.155-1.526-1.156 1.633zm4.451 3.173l3.54 2.519 1.16-1.63-3.541-2.519-1.159 1.63zm5.103 1.517l-.814-4.269-1.964.375.813 4.268 1.965-.374zm-2.336-4.923l-2.727 1.749 1.08 1.684 2.727-1.75-1.08-1.683z" fill="#fff"/><path d="M130.83 184.519l.93-.366-.365-.926-.927.36.362.932zm2.45 6.213l-.931.367 1.319 3.342.598-3.543-.986-.166zm1.053-6.24l-.361-.932-.53.205-.095.56.986.167zm1.477-.573l.606-.796-.446-.339-.522.203.362.932zm4.905 3.734l-.605.796 2.82 2.147-1.282-3.305-.933.362zm-2.351-6.058l-.361-.932-.933.362.362.932.932-.362zm3.071-1.192l.932-.362-.361-.932-.933.362.362.932zm4.559 11.747l.362.932.932-.362-.362-.932-.932.362zm-2.735 1.061l-.608.794.446.342.524-.204-.362-.932zm-6.759-5.177l.608-.794-1.32-1.011-.275 1.64.987.165zm-1.396 8.342l.361.933.531-.206.094-.562-.986-.165zm-2.736 1.062l-.931.364.364.929.929-.361-.362-.932zm-4.592-11.733l-.362-.933-.935.363.366.934.931-.364zm2.124-.819l2.449 6.213 1.861-.734-2.45-6.212-1.86.733zm4.366 6.012l1.053-6.24-1.972-.333-1.053 6.24 1.972.333zm.429-5.474l1.477-.573-.724-1.864-1.476.573.723 1.864zm.509-.71l4.906 3.735 1.211-1.592-4.905-3.734-1.212 1.591zm6.444 2.577l-2.351-6.058-1.865.724 2.351 6.058 1.865-.724zm-2.922-4.764l3.071-1.191-.724-1.865-3.07 1.192.723 1.864zm1.777-1.762l4.559 11.746 1.864-.723-4.559-11.747-1.864.724zm5.129 10.452l-2.735 1.062.724 1.864 2.735-1.061-.724-1.865zm-1.765 1.2l-6.759-5.177-1.216 1.588 6.759 5.177 1.216-1.588zm-8.354-4.548l-1.396 8.342 1.973.33 1.396-8.342-1.973-.33zm-.771 7.575l-2.735 1.062.723 1.864 2.735-1.061-.723-1.865zm-1.442 1.629l-4.593-11.733-1.862.729 4.592 11.733 1.863-.729zm-5.162-10.436l3.054-1.185-.724-1.865-3.054 1.185.724 1.865zm-24.766 12.213l-1-.019-.019 1 1 .019.019-1zm3.869.075l1 .019.019-1-.999-.019-.02 1zm-.054 2.825l-.02 1 1 .019.02-.999-1-.02zm-11.284-.217l-1-.02-.02 1 1 .019.02-.999zm.054-2.826l.02-1-1-.019-.02 1 1 .019zm3.852.074l-.02 1 1 .019.019-.999-1-.02zm.188-9.772l.02-1-1-.019-.02 1 1 .019zm3.564.069l.999.019.02-1-1-.019-.019 1zm-.208 10.772l3.869.075.039-2-3.87-.075-.038 2zm2.888-.944l-.054 2.825 2 .039.054-2.826-2-.038zm.965 1.844l-11.284-.217-.038 1.999 11.283.218.039-2zm-10.303.802l.054-2.826-2-.038-.054 2.825 2 .039zm-.965-1.845l3.851.074.039-1.999-3.851-.075-.039 2zm4.87-.906l.189-9.773-2-.038-.188 9.772 1.999.039zm-.83-8.792l3.563.069.039-2-3.563-.069-.039 2zm2.583-.95l-.189 9.772 2 .038.188-9.772-1.999-.038zm-19.227.678l-.986-.168-.168.985.986.169.168-.986zm.464-2.714l.169-.986-.986-.169-.168.986.985.169zm9.972 1.705l.985.168.169-.986-.986-.168-.168.986zm-2.124 12.419l-.168.986.985.169.169-.986-.986-.169zm-9.74-1.665l-.986-.169-.169.986.986.169.168-.986zm.464-2.715l.168-.985-.986-.169-.168.986.986.168zm6.263 1.071l-.169.986.986.168.168-.985-.985-.169zm.358-2.093l.985.168.169-.986-.986-.168-.168.986zm-5.518-.944l-.986-.168-.168.985.985.169.169-.986zm.449-2.626l.168-.986-.985-.168-.169.986.986.168zm5.518.944l-.169.985.986.169.168-.986-.985-.168zm.388-2.271l.986.168.168-.986-.986-.168-.168.986zm-5.508-.942l.464-2.715-1.971-.337-.465 2.715 1.972.337zm-.69-1.898l9.971 1.705.337-1.971-9.971-1.705-.337 1.971zm9.154.551l-2.124 12.42 1.972.337 2.123-12.42-1.971-.337zm-.97 11.603l-9.74-1.666-.337 1.972 9.74 1.665.338-1.971zm-8.923-.512l.464-2.714-1.971-.337-.464 2.714 1.971.337zm-.69-1.897l6.263 1.071.337-1.972-6.263-1.07-.337 1.971zm7.417.254l.358-2.094-1.971-.337-.358 2.094 1.971.337zm-.459-3.248l-5.518-.944-.337 1.972 5.518.943.337-1.971zm-4.7.211l.448-2.626-1.971-.337-.449 2.626 1.971.337zm-.706-1.809l5.518.943.337-1.971-5.518-.944-.337 1.972zm6.672.126l.389-2.271-1.972-.337-.388 2.271 1.971.337zm-.428-3.425l-6.494-1.11-.337 1.971 6.493 1.11.337-1.971zm-13.127 8.377l-.31.951.952.309.308-.952-.95-.308zm-3.39-1.1l-.952-.309-.309.951.952.309.308-.951zm3.016-9.297l.952.309.308-.952-.95-.308-.31.951zm-5.718-1.856l-.951-.309-.309.951.951.309.31-.951zm.872-2.688l.31-.951-.952-.309-.309.951.951.309zm9.109 2.956l.95.309.31-.951-.952-.309-.308.951zm-3.581 11.034l-3.39-1.101-.617 1.903 3.39 1.1.617-1.902zm-2.748.159l3.018-9.296-1.903-.618-3.017 9.297 1.902.617zm2.375-10.556l-5.718-1.856-.618 1.902 5.719 1.856.617-1.902zm-5.076-.596l.873-2.688-1.903-.618-.872 2.688 1.902.618zm-.387-2.046l9.108 2.956.617-1.902-9.108-2.956-.617 1.902zm8.466 1.696l-3.89 11.985 1.902.617 3.89-11.984-1.902-.618z" fill="#fff"/><path d="M59.576 180.574l-.896-.444-.444.896.897.444.443-.896zm1.222-2.468l.444-.897-.896-.443-.444.896.896.444zm9.066 4.488l.896.443.444-.896-.896-.443-.444.896zm-5.59 11.292l-.444.896.896.444.444-.897-.896-.443zm-8.857-4.385l-.896-.443-.443.896.896.444.444-.897zm1.222-2.468l.444-.896-.896-.444-.444.897.896.443zm5.695 2.819l-.444.896.896.444.444-.896-.896-.444zm.942-1.903l.896.443.444-.896-.896-.443-.444.896zm-5.017-2.484l-.896-.444-.444.897.897.443.443-.896zm1.182-2.387l.444-.897-.896-.443-.444.896.896.444zm5.017 2.483l-.444.897.897.443.443-.896-.896-.444zm1.022-2.064l.896.443.444-.896-.896-.444-.444.897zm-5.008-2.48l1.222-2.468-1.792-.887-1.222 2.468 1.792.887zm-.118-2.015l9.066 4.488.888-1.792-9.066-4.489-.888 1.793zm8.614 3.148l-5.59 11.292 1.792.887 5.59-11.292-1.792-.887zm-4.25 10.839l-8.857-4.384-.887 1.793 8.856 4.384.887-1.793zm-8.404-3.044l1.222-2.468-1.793-.887-1.222 2.468 1.793.887zm-.118-2.016l5.694 2.819.887-1.792-5.694-2.819-.887 1.792zm7.034 2.367l.942-1.904-1.792-.887-.942 1.904 1.792.887zm.49-3.243l-5.017-2.484-.887 1.792 5.016 2.484.888-1.792zm-4.565-1.144l1.182-2.388-1.792-.887-1.182 2.387 1.792.888zm-.157-1.935l5.016 2.484.888-1.793-5.017-2.484-.887 1.793zm6.356 2.031l1.022-2.065-1.792-.887-1.022 2.065 1.792.887zm.57-3.405l-5.904-2.923-.888 1.793 5.905 2.923.887-1.793zm-18.654-5.656l-.583.813.814.582.582-.813-.813-.582zm-2.561-1.835l-.813-.582-.582.813.813.582.582-.813zm3.04-4.243v-1h-.514l-.3.417.814.583zm7.65 4.528l.897-.443-.004-.008-.893.451zm.657 3.348l-.997-.079.997.079zm-3.941 5.502l.395.919-.395-.919zm-3.387.431l.145-.989-.01-.002-.135.991zm-5.663-3.747l-.853.522.853-.522zm-.907-2.752l-.113-.994-.957.109.073.961.997-.076zm3.04-.348l.992-.117-.116-.99-.99.114.113.993zm4.367 3.638l-.154-.988-.009.002.163.986zm3.05-3.329l.992.124v-.01l-.992-.114zm-.28-1.772l.91-.413-.003-.008-.004-.007-.904.428zm-3.053-2.231l.19-.982-.63-.121-.373.521.813.582zm-1.43 1.997l-2.56-1.835-1.165 1.626 2.56 1.835 1.165-1.626zm-2.33-.439l3.04-4.244-1.626-1.165-3.04 4.244 1.626 1.165zm2.227-3.826c.763 0 1.556.137 2.382.425l.658-1.889a9.185 9.185 0 00-3.04-.536v2zm2.382.425c.835.29 1.59.68 2.27 1.167l1.165-1.626a10.895 10.895 0 00-2.777-1.43l-.658 1.889zm2.27 1.167c.957.685 1.649 1.482 2.105 2.386l1.786-.901c-.618-1.223-1.536-2.259-2.726-3.111l-1.165 1.626zm2.101 2.378a5.31 5.31 0 01.557 2.827l1.994.159a7.306 7.306 0 00-.757-3.871l-1.794.885zm.557 2.827c-.077.963-.418 1.883-1.055 2.772l1.626 1.165c.83-1.16 1.315-2.423 1.423-3.778l-1.994-.159zm-1.055 2.772c-.637.889-1.398 1.509-2.285 1.891l.791 1.837c1.25-.539 2.29-1.404 3.12-2.563l-1.626-1.165zm-2.285 1.891c-.892.385-1.833.507-2.846.36l-.289 1.979a7.153 7.153 0 003.926-.502l-.791-1.837zm-2.855.358c-1.018-.139-2.012-.542-2.987-1.241l-1.165 1.626c1.21.867 2.506 1.409 3.881 1.597l.27-1.982zm-2.987-1.241c-.864-.619-1.509-1.3-1.959-2.036l-1.706 1.043c.61.998 1.452 1.868 2.5 2.619l1.165-1.626zm-1.959-2.036a5.113 5.113 0 01-.762-2.308l-1.995.153a7.105 7.105 0 001.05 3.198l1.707-1.043zm-1.646-1.238l3.039-.347-.227-1.987-3.04.347.228 1.987zm1.932-1.224c.178 1.516.87 2.752 2.08 3.619l1.166-1.626c-.721-.516-1.143-1.228-1.26-2.227l-1.986.234zm2.08 3.619c1.058.757 2.22 1.091 3.445.889l-.327-1.973c-.617.102-1.253-.041-1.953-.542l-1.164 1.626zm3.435.891c1.227-.192 2.222-.888 2.984-1.952l-1.626-1.164c-.51.712-1.064 1.046-1.666 1.139l.308 1.977zm2.984-1.952c.492-.686.803-1.436.904-2.242l-1.985-.247c-.055.44-.226.88-.545 1.325l1.626 1.164zm.905-2.252a4.304 4.304 0 00-.363-2.299l-1.822.825c.184.405.248.814.198 1.246l1.987.228zm-.37-2.314c-.346-.731-.88-1.339-1.566-1.831l-1.165 1.626c.445.319.74.674.924 1.06l1.807-.855zm-1.566-1.831a5.552 5.552 0 00-2.2-.954l-.379 1.964c.502.097.97.299 1.414.616l1.165-1.626zm-3.203-.554l-2.012 2.809 1.626 1.165 2.012-2.81-1.626-1.164zm-8.399-7.181l-.983-.188-.1.518.373.375.71-.705zm1.37 1.38l-.71.705.704.709.71-.704-.705-.71zm2.375-2.359l.71-.704-.705-.71-.71.705.705.709zm2.511 2.529l.705.71.71-.704-.705-.71-.71.704zm-8.942 8.878l-.71.704.705.71.71-.705-.705-.709zm-5.742-6.602l.939-.345-.004-.011-.934.356zm-.22-2.521l.977.216.002-.008-.979-.208zm3.424-3.449l.217.976.005-.001-.222-.975zm2.405.174l-.331.944 1.097.385.217-1.143-.983-.186zm.896-4.719l.71-.704-1.339-1.348-.354 1.866.983.186zm2.688 2.708l.982.189.1-.518-.372-.375-.71.704zm-3.969 9.901l-.71.705.705.709.71-.704-.705-.71zm2.619-2.6l.704.71.71-.705-.705-.709-.71.704zm-2.894-2.25l.09-.996-.008-.001-.01-.001-.072.998zm2.769-.365l1.37 1.38 1.419-1.41-1.37-1.379-1.42 1.409zm2.784 1.385l2.376-2.359-1.41-1.419-2.375 2.358 1.409 1.42zm.962-2.364l2.51 2.529 1.42-1.409-2.511-2.529-1.42 1.409zm2.516 1.115l-8.942 8.877 1.409 1.419 8.942-8.877-1.41-1.419zm-7.528 8.882l-4.058-4.088-1.42 1.409 4.059 4.088 1.419-1.409zm-4.058-4.088c-.725-.73-1.196-1.45-1.455-2.154l-1.877.691c.38 1.029 1.031 1.985 1.913 2.872l1.419-1.409zm-1.46-2.165c-.264-.694-.312-1.335-.177-1.949l-1.953-.431c-.227 1.031-.129 2.07.262 3.093l1.869-.713zm-.175-1.957c.127-.598.44-1.17.994-1.721l-1.409-1.419c-.791.785-1.323 1.695-1.542 2.725l1.957.415zm.994-1.721c.53-.527 1.085-.831 1.668-.96l-.434-1.952c-.997.221-1.88.735-2.643 1.493l1.41 1.419zm1.672-.961c.57-.129 1.18-.094 1.853.143l.662-1.888c-.987-.346-1.981-.427-2.957-.205l.443 1.95zm3.167-.615l.895-4.718-1.965-.373-.895 4.719 1.965.372zm-.797-4.2l2.688 2.708 1.42-1.409-2.689-2.708-1.42 1.409zm2.416 1.814l-.766 3.982 1.965.377.765-3.981-1.964-.378zm-5.33 5.098c-.58.575-.926 1.298-.872 2.134l1.996-.13c-.01-.148.03-.331.285-.585l-1.41-1.419zm-.872 2.134c.054.827.505 1.547 1.11 2.157l1.42-1.409c-.426-.428-.523-.72-.534-.878l-1.996.13zm1.11 2.157l1.395 1.406 1.42-1.41-1.395-1.405-1.42 1.409zm2.81 1.411l2.618-2.6-1.409-1.419-2.619 2.599 1.41 1.42zm2.623-4.014l-1.395-1.405-1.419 1.409 1.395 1.405 1.42-1.409zm-1.395-1.405c-.6-.605-1.306-1.063-2.117-1.137l-.182 1.991c.156.015.45.121.88.555l1.42-1.409zm-2.136-1.139c-.836-.06-1.561.281-2.14.856l1.408 1.419c.256-.253.44-.291.588-.28l.144-1.995z" fill="#fff"/><path d="M29.307 151.823l-.837-.548-.37.565.385.553.822-.57zm3.039 4.376l-.822.571.385.554.657-.149-.22-.976zm2.575-.583l.822-.57-.385-.554-.658.149.221.975zm2.074 2.987l.19.982 1.507-.292-.876-1.26-.821.57zm-13.522 2.618l-.821.57.371.536.64-.124-.19-.982zm-2.002-2.883l-.854-.52-.338.556.37.534.822-.57zm7.167-11.77l.821-.57-.876-1.262-.8 1.312.855.52zm2.115 3.046l.837.547.369-.564-.385-.554-.821.571zm-3.01 4.566l.822-.571-.844-1.215-.813 1.236.836.55zm-2.387 3.63l-.836-.55-1.367 2.08 2.426-.555-.223-.975zm4.236-.969l.223.975 1.442-.33-.844-1.215-.821.57zm-1.107-4.448l3.04 4.377 1.642-1.141-3.039-4.376-1.643 1.14zm4.081 4.782l2.576-.583-.442-1.951-2.575.583.441 1.951zm1.534-.988l2.074 2.986 1.642-1.14-2.074-2.987-1.642 1.141zm2.705 1.434l-13.522 2.618.38 1.964 13.522-2.618-.38-1.964zm-12.51 3.03l-2.003-2.883-1.642 1.14 2.002 2.883 1.642-1.14zm-1.97-1.793l7.167-11.77-1.708-1.04-7.167 11.77 1.708 1.04zm5.492-11.72l2.114 3.046 1.643-1.141-2.115-3.045-1.642 1.14zm2.1 1.928l-1.447 2.209 1.673 1.096 1.447-2.21-1.674-1.095zm-3.009 4.564l-2.388 3.63 1.671 1.1 2.388-3.631-1.67-1.099zm-1.33 5.155l4.237-.969-.446-1.95-4.236.969.446 1.95zm4.835-2.514l-1.848-2.662-1.643 1.141 1.848 2.661 1.643-1.14z" fill="#fff"/><path d="M22.81 133.97l.4.916.912-.399-.394-.913-.919.396zm-6.117 2.68l-.402-.916-3.29 1.443 3.562.465.13-.992zm6.275.82l.918-.396-.225-.522-.564-.074-.13.992zm.628 1.454l.818.576.322-.458-.222-.514-.918.396zm-3.548 5.042l-.818-.576-2.04 2.899 3.254-1.405-.396-.918zm5.965-2.576l.918-.397-.396-.918-.918.397.396.918zm1.306 3.024l.397.918.918-.396-.397-.918-.918.396zm-11.568 4.995l-.918.396.397.918.918-.396-.397-.918zm-1.163-2.694l-.816-.578-.325.459.223.516.918-.397zm4.921-6.948l.816.578.961-1.357-1.649-.213-.128.992zm-8.389-1.083l-.918.396.226.523.564.073.128-.992zm-1.163-2.694l-.399-.917-.914.398.395.916.918-.397zm11.554-5.028l.918-.396-.398-.921-.92.4.4.917zm.897 2.092l-6.117 2.68.803 1.832 6.117-2.68-.803-1.832zm-5.845 4.588l6.275.82.26-1.984-6.276-.819-.259 1.983zm5.487.224l.628 1.455 1.836-.793-.628-1.454-1.836.792zm.728.483l-3.548 5.041 1.636 1.151 3.548-5.041-1.636-1.151zm-2.334 6.535l5.966-2.576-.793-1.836-5.966 2.576.793 1.836zm4.651-3.098l1.306 3.024 1.836-.792-1.306-3.025-1.836.793zm1.828 1.71l-11.568 4.995.793 1.836 11.568-4.995-.793-1.836zm-10.253 5.516l-1.164-2.693-1.836.793 1.163 2.693 1.836-.793zm-1.266-1.719l4.921-6.948-1.632-1.156-4.92 6.948 1.631 1.156zm4.233-8.518l-8.388-1.083-.257 1.984 8.39 1.083.255-1.984zm-7.598-.488l-1.163-2.693-1.837.793 1.163 2.693 1.837-.793zm-1.682-1.38l11.553-5.028-.798-1.834-11.554 5.028.799 1.834zm10.236-5.548l1.298 3.007 1.837-.792-1.3-3.008-1.835.793zM78.92 18.319c-.461.13-.914.14-1.357.029a2.503 2.503 0 01-1.156-.646 2.72 2.72 0 01-.697-1.206 2.621 2.621 0 01-.033-1.374 2.37 2.37 0 01.65-1.139c.319-.327.71-.556 1.171-.687.462-.13.914-.14 1.357-.029.44.1.824.31 1.151.628.339.316.576.71.71 1.184.134.473.14.939.021 1.397a2.503 2.503 0 01-.645 1.155c-.32.328-.71.557-1.171.688zm109.293 61.746a2.587 2.587 0 01-.014-1.358 2.5 2.5 0 01.659-1.148 2.72 2.72 0 011.214-.683 2.62 2.62 0 011.375-.019c.441.117.818.338 1.131.663.323.323.548.716.673 1.18.126.463.13.915.014 1.357a2.38 2.38 0 01-.641 1.144c-.32.335-.717.567-1.192.695a2.6 2.6 0 01-1.397.006 2.498 2.498 0 01-1.148-.659 2.588 2.588 0 01-.674-1.178zm-70.977 110.314a2.588 2.588 0 011.351.131c.427.163.785.422 1.072.777.289.368.473.794.55 1.28.077.486.034.942-.128 1.369a2.378 2.378 0 01-.78 1.054 2.59 2.59 0 01-1.244.544 2.582 2.582 0 01-1.352-.131 2.37 2.37 0 01-1.068-.759 2.513 2.513 0 01-.565-1.259 2.607 2.607 0 01.143-1.39 2.51 2.51 0 01.777-1.072c.355-.287.77-.469 1.244-.544zm-101.76-73.725c.093.471.067.923-.08 1.355-.146.433-.392.8-.736 1.101a2.722 2.722 0 01-1.257.598c-.482.096-.94.071-1.373-.076a2.365 2.365 0 01-1.083-.739 2.585 2.585 0 01-.591-1.222 2.584 2.584 0 01.08-1.355c.134-.431.373-.796.717-1.097a2.517 2.517 0 011.236-.613 2.612 2.612 0 011.395.09c.432.147.8.392 1.1.736.3.344.498.751.592 1.222z" fill="#fff"/><path d="M86.929 103.651c0-9.113 7.387-16.5 16.5-16.5 9.112 0 16.5 7.387 16.5 16.5s-7.388 16.5-16.5 16.5c-9.113 0-16.5-7.387-16.5-16.5z" fill="#5A5A5A"/></svg>